<svg xmlns="http://www.w3.org/2000/svg" width="1025.5" height="730" viewBox="0 0 1025.5 730"><g transform="translate(-221 -4948)"><g transform="translate(0 -226)"><path d="M-767.094,506.38a1.781,1.781,0,0,1-.39-.039,1.61,1.61,0,0,1-.38-.111,1.634,1.634,0,0,1-.34-.19,2.325,2.325,0,0,1-.31-.239,2.043,2.043,0,0,1-.58-1.421,2,2,0,0,1,.58-1.409,1.7,1.7,0,0,1,.31-.25,1.546,1.546,0,0,1,.34-.19,2.279,2.279,0,0,1,.38-.111,1.992,1.992,0,0,1,1.8.551,1.964,1.964,0,0,1,.59,1.409,2.01,2.01,0,0,1-.59,1.421A2,2,0,0,1-767.094,506.38Z" transform="translate(1275.094 5020.618)" fill="#ff5650"/><line x2="279" transform="translate(222.5 5525)" fill="none" stroke="#4c717c" stroke-linecap="round" stroke-width="3"/></g><g transform="translate(0 -226)"><line y2="144" transform="translate(734 5758.5)" fill="none" stroke="#4c717c" stroke-linecap="round" stroke-width="3" opacity="0.944"/><path d="M-541.1,732.269a1.724,1.724,0,0,1-.39-.04,1.658,1.658,0,0,1-.38-.11,1.639,1.639,0,0,1-.34-.19,2.346,2.346,0,0,1-.31-.24,2.039,2.039,0,0,1-.58-1.42,2,2,0,0,1,.58-1.41,1.79,1.79,0,0,1,.31-.25,1.633,1.633,0,0,1,.34-.19,2.374,2.374,0,0,1,.38-.11,1.994,1.994,0,0,1,1.8.55,1.966,1.966,0,0,1,.59,1.41,2.006,2.006,0,0,1-.59,1.42A2,2,0,0,1-541.1,732.269Z" transform="translate(1275.101 5020.494)" fill="#ff5650"/></g><g transform="translate(0 -226)"><path d="M0,0V116" transform="translate(734 5175.5)" fill="none" stroke="#4c717c" stroke-linecap="round" stroke-width="3" opacity="0.944"/><path d="M-541.1,280.5a1.722,1.722,0,0,1-.39-.04,1.657,1.657,0,0,1-.38-.11,1.636,1.636,0,0,1-.34-.19,2.344,2.344,0,0,1-.31-.24,2.039,2.039,0,0,1-.58-1.42,2,2,0,0,1,.58-1.41,1.791,1.791,0,0,1,.31-.25,1.636,1.636,0,0,1,.34-.19,2.377,2.377,0,0,1,.38-.11,1.994,1.994,0,0,1,1.8.55,1.966,1.966,0,0,1,.59,1.41,2.006,2.006,0,0,1-.59,1.42A2,2,0,0,1-541.1,280.5Z" transform="translate(1275.101 5020.494)" fill="#ff5650"/><line x2="279" transform="translate(966 5525)" fill="none" stroke="#4c717c" stroke-linecap="round" stroke-width="3"/><path d="M-315.33,506.38a1.781,1.781,0,0,1-.39-.039,1.61,1.61,0,0,1-.38-.111,1.635,1.635,0,0,1-.34-.19,2.331,2.331,0,0,1-.31-.239,2.043,2.043,0,0,1-.58-1.421,2,2,0,0,1,.58-1.409,1.7,1.7,0,0,1,.31-.25,1.547,1.547,0,0,1,.34-.19,2.279,2.279,0,0,1,.38-.111,1.992,1.992,0,0,1,1.8.551,1.964,1.964,0,0,1,.59,1.409,2.01,2.01,0,0,1-.59,1.421A2,2,0,0,1-315.33,506.38Z" transform="translate(1275.094 5020.618)" fill="#ff5650"/></g><g transform="translate(510.876 4909.569)" opacity="0.988"><circle cx="8.149" cy="8.149" r="8.149" transform="translate(197.896 327.43)" fill="#ff5650"/><circle cx="8.149" cy="8.149" r="8.149" transform="translate(164.438 406.805)" fill="#4c717c"/><circle cx="8.149" cy="8.149" r="8.149" transform="translate(263.005 354.458)" fill="#4c717c"/><circle cx="8.149" cy="8.149" r="8.149" transform="translate(228.92 434.441)" fill="#4c717c"/><path d="M175.035,361.543l13.725-13.725A8.149,8.149,0,0,0,177.234,336.3l-13.725,13.721a8.15,8.15,0,0,0,11.526,11.526Z" transform="translate(0 16.512)" fill="#4c717c"/><path d="M200.6,376.662l15.863-16.148a8.15,8.15,0,0,0-11.526-11.526l-15.86,16.152A8.147,8.147,0,1,0,200.6,376.662Z" transform="translate(65.419 48.865)" fill="#4c717c"/><path d="M182.444,394.946l52.469-52.469a8.15,8.15,0,1,0-11.526-11.526L170.918,383.42a8.15,8.15,0,1,0,11.526,11.526Z" transform="translate(18.955 2.904)" fill="#4c717c"/><path d="M182.444,407.9l52.469-52.469a8.15,8.15,0,1,0-11.526-11.526l-52.469,52.469A8.15,8.15,0,1,0,182.444,407.9Z" transform="translate(18.955 35.785)" fill="#4c717c"/></g><g transform="translate(1275.094 4794.495)"><path d="M-315.33,497.392c-3.628-119.259-99.641-215.268-218.9-218.887" fill="none" stroke="#4c717c" stroke-linecap="round" stroke-width="3"/><path d="M-534.232,730.27c119.265-3.62,215.281-99.634,218.9-218.9" fill="none" stroke="#4c717c" stroke-linecap="round" stroke-width="3"/><path d="M-767.094,511.381c3.626,119.26,99.639,215.269,218.9,218.889" fill="none" stroke="#4c717c" stroke-linecap="round" stroke-width="3"/><path d="M-548.193,278.505c-119.255,3.619-215.265,99.619-218.9,218.87" fill="none" stroke="#4c717c" stroke-linecap="round" stroke-width="3"/></g></g></svg>