<svg xmlns="http://www.w3.org/2000/svg" width="84.491" height="97.792" viewBox="0 0 84.491 97.792"><g transform="translate(-369.696 -663.676)"><line x1="0.532" y2="8.379" transform="translate(404.268 725.085)" fill="none" stroke="#253046" stroke-linecap="round" stroke-linejoin="round" stroke-width="1"/><circle cx="1.5" cy="1.5" r="1.5" transform="translate(400.154 699.049)" fill="#253046"/><circle cx="1.5" cy="1.5" r="1.5" transform="translate(419.608 699.049)" fill="#253046"/><path d="M411.136,748.156s-4.031-.8-5.642-7.417,2.841-5.906,2.841-5.906" transform="translate(-16.794 -36.783)" fill="none" stroke="#253046" stroke-linecap="round" stroke-linejoin="round" stroke-width="1.5"/><path d="M489.717,748.156s4.031-.8,5.642-7.417-2.841-5.906-2.841-5.906" transform="translate(-60.527 -36.783)" fill="none" stroke="#253046" stroke-linecap="round" stroke-linejoin="round" stroke-width="1.5"/><path d="M441.761,765.475a9.493,9.493,0,0,0,5.939,1.894,8.182,8.182,0,0,0,5.824-2.267" transform="translate(-35.729 -51.447)" fill="none" stroke="#253046" stroke-linecap="round" stroke-linejoin="round" stroke-width="2"/><path d="M448.448,750.656a4.672,4.672,0,0,0,2.748,1.509c1.379,0,2.556-1.751,2.556-1.751" transform="translate(-39.187 -42.852)" fill="none" stroke="#253046" stroke-linecap="round" stroke-linejoin="round" stroke-width="2"/><path d="M394.342,812.2a83.82,83.82,0,0,1-8.291,2.579c-15.107,3.92-15.6,15.26-15.6,21.471" transform="translate(0 -76.803)" fill="none" stroke="#253046" stroke-linecap="round" stroke-linejoin="bevel" stroke-width="1.5"/><path d="M417.959,738.977h-1.408a2.189,2.189,0,0,1-2.182-2.182v-4.423a2.189,2.189,0,0,1,2.182-2.182H427.7a2.188,2.188,0,0,1,2.182,2.182v4.423a2.188,2.188,0,0,1-2.182,2.182h-6.436" transform="translate(-21.565 -34.394)" fill="none" stroke="#253046" stroke-linecap="round" stroke-linejoin="round" stroke-width="2"/><path d="M465.371,738.977h-3.585a2.188,2.188,0,0,1-2.182-2.182v-4.423a2.188,2.188,0,0,1,2.182-2.182h11.15a2.188,2.188,0,0,1,2.182,2.182v4.423a2.188,2.188,0,0,1-2.182,2.182h-4.45" transform="translate(-44.956 -34.394)" fill="none" stroke="#253046" stroke-linecap="round" stroke-linejoin="round" stroke-width="2"/><path d="M417.554,804.456l8.337-5.644,4.919,15.014-8.846,3.662a1.846,1.846,0,0,1-2.529-1.411Z" transform="translate(-23.212 -69.878)" fill="none" stroke="#253046" stroke-linecap="round" stroke-linejoin="round" stroke-width="1.5"/><line x2="0.532" y2="8.379" transform="translate(420.149 725.085)" fill="none" stroke="#253046" stroke-linecap="round" stroke-linejoin="round" stroke-width="1"/><path d="M492.651,812.2c2.385.8,5.271,1.638,8.74,2.449,15.924,3.722,14.041,16.971,14.041,22.869" transform="translate(-62.044 -76.803)" fill="none" stroke="#253046" stroke-linecap="round" stroke-linejoin="round" stroke-width="1.5"/><path d="M478.456,804.456l-8.337-5.644L465.2,813.826l8.846,3.662a1.846,1.846,0,0,0,2.528-1.411Z" transform="translate(-47.849 -69.878)" fill="none" stroke="#253046" stroke-linecap="round" stroke-linejoin="round" stroke-width="1.5"/><path d="M443.817,830.338l2.593,2.756a3.628,3.628,0,0,0,5.173.114l3-2.923" transform="translate(-36.792 -86.152)" fill="none" stroke="#253046" stroke-linecap="round" stroke-linejoin="round" stroke-width="1.5"/><path d="M412.178,710.724c.014.288.27,4.558.289,4.848.406,6.242,1.971,12.753,4.634,17.3a24.392,24.392,0,0,0,4.336,5.115,16.163,16.163,0,0,0,22.106.035,18.466,18.466,0,0,0,3.629-4.392,39.278,39.278,0,0,0,4.208-15.949c.056-.768.251-3.537.277-4.332" transform="translate(-20.432 -16.198)" fill="none" stroke="#253046" stroke-linecap="round" stroke-linejoin="round" stroke-width="1.5"/><path d="M477.365,722.058c.239-3.624-5.56-9.294-15.427-11.045" transform="translate(-46.163 -24.478)" fill="none"/><path d="M491.729,679.26a9.818,9.818,0,0,1,4.156,5.75,36.387,36.387,0,0,1-1.524,20.852" transform="translate(-61.567 -8.059)" fill="none"/><path d="M405.232,698.7s-2.085-10.057-2.649-13.115-1.851-12.878,8.773-12.636c0,0-.193-8.451,14.351-8.451,6.851,0,12,1.55,15.669,3.787" transform="translate(-15.282 -0.426)" fill="none"/><path d="M482.16,753.623s11.681,3.456,15.906-6.54-2.213-17.553-7.946-18.934" transform="translate(-56.619 -33.339)" fill="none"/><path d="M446.919,733.655a4.752,4.752,0,0,1,6.126,0" transform="translate(-38.396 -35.606)" fill="none" stroke="#253046" stroke-linecap="round" stroke-linejoin="round" stroke-width="2"/><path d="M406.874,698.239l3.291-6.453a26.084,26.084,0,0,0,3.892-12.367s9.362,7.605,17,7.116,14.982,6.144,15.984,9.529v2.175s4.431-13.133,3.052-18.82-5.729-10.993-15.2-14.2-22.441-1.618-23.443,6.463c0,0-9.187,1.7-9.229,6.512s2.535,12.77,2.535,12.77Z" transform="translate(-15.281)" fill="#253046"/></g></svg>