<svg xmlns="http://www.w3.org/2000/svg" width="31.896" height="32.144" viewBox="0 0 31.896 32.144"><g transform="translate(-0.052 0.072)"><path d="M7.756,14.753a1.372,1.372,0,0,0-1.372,1.373v8.167a1.372,1.372,0,0,0,1.372,1.372H15.78a1.373,1.373,0,0,0,0-2.745H9.129V16.126A1.372,1.372,0,0,0,7.756,14.753Z" fill="#ff5650"/><path d="M22.312,24.2a1.372,1.372,0,0,0-1.373,1.372v3.75H2.8V11.073H6.3a1.373,1.373,0,1,0,0-2.745H1.425A1.371,1.371,0,0,0,.052,9.7v21a1.372,1.372,0,0,0,1.373,1.373H22.312A1.372,1.372,0,0,0,23.684,30.7V25.577A1.372,1.372,0,0,0,22.312,24.2Z" fill="#ff5650"/><path d="M25.617,15.874V7.706a1.371,1.371,0,0,0-1.372-1.373H16.222a1.373,1.373,0,1,0,0,2.745h6.65v6.8a1.373,1.373,0,1,0,2.745,0Z" fill="#ff5650"/><path d="M30.575-.072H9.69A1.372,1.372,0,0,0,8.317,1.3v5.12a1.373,1.373,0,1,0,2.745,0V2.673H29.2V20.927H25.7a1.373,1.373,0,1,0,0,2.745h4.872A1.371,1.371,0,0,0,31.948,22.3V1.3A1.372,1.372,0,0,0,30.575-.072Z" fill="#ff5650"/></g></svg>