<svg xmlns="http://www.w3.org/2000/svg" width="31.762" height="31.762" viewBox="0 0 31.762 31.762"><g transform="translate(84.532 -0.119)"><path d="M-72.521,18.163h-10.3a1.707,1.707,0,0,0-1.707,1.707v10.3a1.707,1.707,0,0,0,1.707,1.707h10.3a1.707,1.707,0,0,0,1.707-1.707V19.87A1.708,1.708,0,0,0-72.521,18.163Zm-.823,11.189H-82V20.693h8.659Z" fill="#ff5650"/><path d="M-54.477,18.163h-10.3a1.708,1.708,0,0,0-1.707,1.707v10.3a1.707,1.707,0,0,0,1.707,1.707h10.3a1.707,1.707,0,0,0,1.707-1.707V19.87A1.707,1.707,0,0,0-54.477,18.163ZM-55.3,29.352h-8.659V20.693H-55.3Z" fill="#ff5650"/><path d="M-72.521.119h-10.3a1.707,1.707,0,0,0-1.707,1.707v10.3a1.707,1.707,0,0,0,1.707,1.707h10.3a1.708,1.708,0,0,0,1.707-1.707V1.826A1.707,1.707,0,0,0-72.521.119Zm-.823,11.188H-82V2.648h8.659Z" fill="#ff5650"/><path d="M-54.477.119h-10.3a1.707,1.707,0,0,0-1.707,1.707v10.3a1.708,1.708,0,0,0,1.707,1.707h10.3A1.707,1.707,0,0,0-52.77,12.13V1.826A1.707,1.707,0,0,0-54.477.119ZM-55.3,11.307h-8.659V2.648H-55.3Z" fill="#ff5650"/></g></svg>