<svg xmlns="http://www.w3.org/2000/svg" width="31.763" height="31.762" viewBox="0 0 31.763 31.762"><g transform="translate(41.928 -0.119)"><path d="M-11.872.119H-40.221a1.707,1.707,0,0,0-1.707,1.707V30.174a1.707,1.707,0,0,0,1.707,1.707h28.349a1.707,1.707,0,0,0,1.707-1.707V1.826A1.707,1.707,0,0,0-11.872.119Zm-1.039,29.016H-39.182V2.865h26.271Z" fill="#ff5650"/><path d="M-31.486,23.146h10.879A1.707,1.707,0,0,0-18.9,21.439V10.56a1.707,1.707,0,0,0-1.707-1.707H-31.486a1.707,1.707,0,0,0-1.707,1.707V21.439A1.707,1.707,0,0,0-31.486,23.146ZM-30.447,11.6h8.8v8.8h-8.8Z" fill="#ff5650"/></g></svg>