<svg xmlns="http://www.w3.org/2000/svg" width="31.763" height="31.762" viewBox="0 0 31.763 31.762"><path d="M-180.584,1.828A1.709,1.709,0,0,0-182.293.119h-28.344a1.709,1.709,0,0,0-1.709,1.709V30.172a1.709,1.709,0,0,0,1.709,1.709h28.344a1.709,1.709,0,0,0,1.709-1.709V17.809h0V15.064h0Zm-12.742,1.036v12.2H-200V2.864Zm-9.418,0v12.2H-209.6V2.864ZM-209.6,17.809h6.856V29.135H-209.6Zm9.6,0h6.673V29.135H-200Zm9.418,0h7.251V29.135h-7.251m0-14.071V2.864h7.251v12.2Z" transform="translate(212.346 -0.119)" fill="#ff5650"/></svg>