<svg xmlns="http://www.w3.org/2000/svg" width="424" height="103" viewBox="0 0 424 103"><path d="M364.509,82.342l.267.922.01-.013.316-1.219.27-1.052.287,1,.055-.33.241-1.456.525,1.439.381,1.038.013.027.173-.894.352-1.843.551,1.69.326-.744.479,1.286.023.072.4-1.4.668,1.564.2-1.139.639-3.773.7,5.242.962-.956.453.787.189-.23.46.335.714-1.686.4.774,1.275.631,1.2-3.223.085.4.238-1.054L377.989,81l.727-3.627,1.18,4.762,1.248-.689.391.607.607-.19.466.206,1.053-4.1,1.287,4.224.036,0,1.17-2.216.313.685.186-.343,1.724,2.932.065.01.835-1.761.837.933.016-.017,1.1-2.365.851,1.934,1.737,1.16.945-.8,1.252-3.664.763,1.988.215.342,1.066-2.8,1.255,3.982.476-.414.437.441,1.147-.906.173.433,1.493-8.47.76,3.779,1.141-4.223.867,6.917.747-1.768.691,2.062,1.03-2.022.183.953,1.235-2.761.86,5.018.01,0L412.7,70.542l.929,5.651,1.226-4.393.43,4.346,1.617-19.522,1.3,16.194.8,3.717.205-1.569,1.252,2.338.47-2.978,1-9.576.858,6.642.069-.59,1.545,6.841,1.274-5.735,1.392,6.418.336-.367,1.558-12.835,1.4,13.528,1.216-9.124.929,6.76.476-2.837.7,1.772.192-.363.284,1.57.805,2.048.541-4.085.867-11.88,1.213,9.684.447-5.115,1.216,7.137.857-3.658.6,6.639.1-.523.355-3.853.241.749.349-1.821.417,3.225,1.421-10.407.032.394.271-3.928,1.02,9.945.551-4.467,1.281,12.76.909-.511.9-5.759,1.278,6.076.075-.068.7-4,2.008,4.682.218.506.408-1.577.642,2.141L454,80.6l2.037-11.2.7,8.711.544,1.086.309-.114,1.353-7.972,1.053,9.989.033.323.088-.088.039-.518.492,0,.776-.777.072.768.848-.008.619-2.486.7-6.834,1.271,8.291.672.682.346.355.023.021.134-.344.9-2.29.962,2.209.215.5.841-2.107.437,4.029.486-.437.372.444,1.033-1.413.235.976.238-.665.672-1.86.913,1.621.342.621.16.285.036.339.033.285.284-1.488.531-2.764.932,2.085.691-10.023.671,7.537.28-2.6.858,4.639.564-1.254.248,3.019.072.879.186-.309.557.828.352.515.124.184.049.235.127.607.235-3.019.492-6.344.584,4.087.486-3.171.111,1.152.359-4.87.72,7.86.329,3.595.095.339.084-.221.342-1.9.013-.077.02-.068.352-1.131.864-2.744.01.061.209-2.336.792,4.461.326,1.852.342-.6.085.346.179-.815.088-.4.277-.146.356-.186.466-.248.261.6.352.815.059.138.019.154.062.479.157-1.931,1.073.023.019-.259.372-.17.352-.159.447-.2.238.57.323.76.137-.364.447.828.1-.883.73-6.9.466,6.949.075,1.1.319-2.547.317,2.065.29-2.621.7,3.781.231-1.76.281-2.121.864,1.775.143.288.222-.03.2.209.349.372.209.221.039.372.007.051.111-.737.561-3.722.74,3.673.209,1.055.2-1.659.649-5.494.75,5.482.205,1.524.359-.157.055.416.349-1.873.7,2.971.042-.222.006-.038.016-.05.339-1.393.173-.694.528-.034h.02l.134-.21.707-1.116.541,1.31.219.523.107.065.192.109.114-.589,1.1-5.753.313,3.62.655-3.289.408,3.453.44-1.417.535,1.8.453-2.1.232.987.675-4.047.734,6.149.394.128.352.112.375.121.111.213.541-2.063.277.793.4-1.774.756-9.4,1.069,11.161.068.085,1.487-8.453.812,9.49.01.119.023-.068.652-1.833,1.21-14.444,1.05,12,.326-2.686.44,2,.838-8.043.7,5.213.633-7.09,1.617,12.962.231-.345.228,1.429.029-.062,1.3-2.5.257-3.612,2.595,6.21.222.53,1.972-10.183.812,7.574,1.832-5.967.2,2.679.978-6.737.218,1.679.812-6.544.3,3.973,1.63,11.343.59.8.062.082.968.441.02.145.313-.281,2.288-2.076.082.876,1.193-1.6,1.444-8.735.371,4.665.916-4.411.73,10.6.189.3,1.754-6.814.385,3.921.557-1.94.952-14.871,1.226,13.688.714-13.819,1.245,14.3.492-6.068.466,3.413,1.05-21.425.971,23.094.786-19.959,1.046,18.7.505-13.342.9,11.8.144-1.515.73,6.806.8-4.311.114,2.649.486-7.536.593,8.361.776-18.927,1.03,21.569.9-2.487.427,3.579.9-21.082.551,13.653.411-10.431.528,11.418.355-5.709.4,9.429.28-2.391.561,7.443.055-.452.365,1.207.1-.441.258-1.08.052.054.108-2.779.659-16.929L574.4,76.8l1-11.133.466,9.07.2-2.65.473,3.859.737-19.419.45,9.643,1.3,9.724,1.206-14.458.085,1.824.248-4.853.658,11.336.753-16.686,1.216,21.912,1.285-3.173.4,2.8.626-.883.479.947,1.085-18.866,1.128,16.535.316-1.3,1.121-21.685.352,5.979.166-3.224,1.777,23.568.062.077.86-14.148.867,7.5.01-.116,1.134-19.04.877,15.565,1.79,9.317.972-6.449L599.785,38.9l.792,16,.215,2.754,1.1-22.509,1.3,32,.492-3.317.443,3.535,1.187-7.28.434,8.883,1.281-21.941.785,11.846,1.167-13.236.9,21.685.763-5.547.717,6.462,1.06-6.336.186,2.987,1.271-8.654.887,15.729.013.008,2.2-33.493,1.236,27.416.994-4.833.437,7.786,1.662-35,1.346,29.045.825,6.665.209-2.813,1.291,4.192.489-5.347,1.03-17.163.887,11.907.065-1.056,1.6,12.27,1.311-10.284,1.438,11.507.342-.66,1.6-23.016,1.441,24.26,1.252-16.36.952,12.119.492-5.087.72,3.181.2-.651.287,2.819.828,3.67.557-7.307.9-21.326,1.245,17.365.466-9.173,1.245,12.8.893-6.558.613,11.909.107-.955L646.3,62.9l.244,1.334.359-3.26.433,5.783,1.457-18.66.039.709.277-7.051,1.047,17.836.573-8.008,1.32,22.879.936-.915.929-10.328,1.314,10.9.075-.123.724-7.177,2.06,8.4.225.9.424-2.826.662,3.843.114-.295,2.1-20.087.72,15.617.561,1.948.316-.2,1.4-14.3,1.079,17.916.032.579.091-.157.043-.929.5-.007.8-1.393.072,1.378.87-.015.642-4.453.727-12.261,1.307,14.868.685,1.222.365.638.02.038.133-.618.936-4.108.984,3.961.225.9.864-3.778.443,7.219.505-.776.385.793,1.063-2.535.241,1.75.245-1.194.694-3.334.929,2.907.358,3.72.166.985.039,1.176.029,1,.3-5.176.544-9.6.962,7.248.711-34.817.809,36.4.169-2.775.887,8.13.583-2.194.082,1.771.437-23.814.577,23.537.359,2.216.127.793.055,1.012.127,2.611.241-13,.509-27.32.6,17.6.508-13.657.108,4.952.371-20.953.74,33.84.342,15.451.095,1.476.091-.944.349-8.178.016-.336.019-.292.365-4.867.887-11.822,0,.264.222-10.052.812,19.21L693.431,80l.346-2.6.091,1.5.182-3.521.095-1.737.283-.63.365-.807.479-1.061.267,2.595.365,3.51.059.59.02.668.065,2.07.166-8.324,1.1.1.016-1.113.385-.737.358-.682.46-.871.248,2.462.329,3.27.143-1.571.46,3.565.1-3.8.753-29.7.482,29.918.075,4.748.329-10.964.326,8.907.306-11.3.717,16.272.235-7.571.287-9.134.893,7.649.143,1.24.232-.128.2.9.365,1.6.205.951.045,1.6,0,.218.118-3.182.583-16.025.753,15.821.218,4.529.205-7.133.668-23.653.77,23.6.212,6.563.365-.674.059,1.792.359-8.072.76,12.078,0-.21.01-.077.016-.1.355-2.69.176-1.343.544-.064.016,0,.137-.406.734-2.157.558,2.531.222,1.015.114.122.2.214.118-1.139L714.81,68.3l.333,7.005.668-6.36.421,6.683.453-2.742.557,3.478.46-4.061.486,4.784.453-1.483.75,5.57.411.113.358.1.391.108.111.194.561-1.869.28.719.417-1.605.779-8.514,1.1,10.108.075.076L725.4,72.95l.831,8.595.013.108.026-.062.668-1.658,1.245-13.084,1.085,10.862.329-2.428.456,1.812.864-7.287.72,4.721.655-6.421,1.666,11.74.231-.313.238,1.293.033-.055,1.343-2.263.261-3.269,2.673,5.622.228.482L741,72.122l.835,6.859,1.894-5.4L743.937,76l1.011-6.1.222,1.519L746,65.494l.306,3.609,1.683,10.262.61.723.059.074,1,.4.017.13.323-.257.672.481.264-.082.036.26.215-.252.075.492,1.1.78.081.418,1.223-.763,1.493-4.154.385,2.218.939-2.1.756,5.04.2.142,1.806-3.24.391,1.865.349-.552,1.213-18.745,1.532,18.461.46-2.058,1.284,3.542.508-1.5.479.845,1.079-5.311,1,5.725L768.354,77l1.069,4.631.522-3.306.932,2.926.143-.376.753,1.686.818-1.068.117.656.5-1.866.61,2.072.8-4.691,1.06,5.345.929-.615.443.885.926-5.223.561,3.382.427-2.584.547,2.829.362-1.415.29,1.557.411-1.882.6,3.717.117.7.052-.052.349-.679.261-.512.545.247.009-.013.841-.742.235.9.1.4.375-.347.209.885.212.939.238-1.225.013-.067.046-.05.372-.4.659-.715.143.818.131.709.2-.713.225-.8.4.76.343-.893.013.044,0,.03.065.579.143-1.266.049-.343.241.138.358.2-.157.462-.107-.051-.271,3.253-.2,2.307-.326-2.3-.336-1.166-.117.552-.016.054-.055.051-.358.32-.538.491-.14-.608-.058-.238-.15,1.046-.166,1.134-.785-1.028-.16-.214-.5.125-.117-.407-.144-.512-.349.344-.27-.883-.166-.536-.013,0-.1.241-.023.047-.053.053-.352.37-.007.01-.026.02-.3.259-.326.481-.844,1.258-.382,2.177-.437-1.907-.349,1.631-.134-.565-.026.209-1.255-2.006-.518.527-.867-.418-.17-.084-.4,2.823-.786-1.461-.167,1.222-1.261-1.909-.215.923-.828-.848-1.222,1.978-.365-1.79-.143,1.078-.258-.218-.1.275-.169-.5L769.5,87.4l-.681,4.915-1.467-4.239-.3.685-.538,3-1.862-5.5-.052,0-.518.244-.358.169-1.154.545-1.16,18.429-1.689-16.458-.887,3.72-.408-1.781-.694,3.111-.938-4.528-1.184,4.766-.212-1.357-.508,2.748-.958-5.319-.965-2.093-1.259-.323-.12.737-1.461-.455-.629,3.422-1.242-2.789-1.03,8.221-1.112-6.8-.916,6.417-.6-4.195-.793,4.071-.084-.617-.969,8.422L741.368,88l-1.849,1.625-.189-1.653-.984,2.456-.088-.233-.808,8.983L735.7,89.3l-.838,3.3L733.5,88.055l-.059.026-1.017,8.768-1.053-6.838-.433,1.49-.287-2.1-.694,4.549-.753-3.334-1.144,6.455L728,96.388l-.075.678-.857-6.927-.528-1.4-.186.865-1.363-1.842-.424,3.783-1.235-2.99-.88,8.138-1.112-10.1-.241-.649-.349-.1-.355-.108-.114-.035-.042.335-.535,4.509-1.223-3.457L718.2,88.4l-.251-.859-.469,4.2-.668-4.463-1.043,12.828L715.4,93.38l-.805,10.848-.607-15.5-.045-1.3-.118.17L712.9,88.92l-.274-2.632-.245-2.353-.238-.265-.134,1.012-.362,3.559-.059.58-.16.4-.358.9-.359.9-.453,8.135-.176-.4-.046.949-.538.186-.359.125-.684.231-.111-3.927-.176-6.16L707.98,94.4l-.284,6.217-.841-3.962-.359-1.692-.192-.889-.059-1.347-.127-2.986-.14-.1-.209,4.372-.86,18.032-.443-18.516-.31-12.669-.033.018-.163,5.112-.065,1.944-.3.832-.137.383-.264,3.676-.746,10.388-.065-1.541-.424,15.323-.437-12.343-.753-3.518-.359-1.687-.023-.1-.029,1.116-.14-1.9-.026-.109v-.27l-.685-9.247-.133-1.829-.541,5.861-.427-8.16-.049-.883-.212,13.732-.026,1.9-.284.928-.365,1.178-.812,2.679-.081-5.533-.026-1.86-.509,4.111-.473-4.766-.365-3.6-.059-.567-.023-.651-.221-7.217-.03.495-.342,7.314L694,103.367l-.649-10.819-.368,2.724-.251-4.3-.544,25.387-.652-24.239-.293,3.168-.108,1.1-.192.537-.365.986-.186.515-.215-.238-.362-.43L689.5,97.4l-.5,31.413-.632-26.174-.222,6.4-.114-3.185-.095,5.566-1.144-10.681-.023-.21-.358.243-.61.4-.163-9.811-.15.382.16,3.461-.326-.169.111,3.319-.218-3.369-.661,8.051-.424-7.757-.075-1.316-.15.14-.013.07-.006-.047-.15.14-.359.343-.091.288-.046,1.363-.482,14.294L681.484,99.6l-.1-2.323-.091.584-.359,2.25-.169,1.062-.277.461-.359.593-.645-11.764-.417-1.381-.365-1.205-.134-.438,0-.035-.055.23-.652,2.616-.9-2.173-.359-.872-.166-.391-.059-.425-.421.218-.033-.067-.166,1.245-1.3,9.86-.228-3.355-.8,9.872-.61-12.531-1.323-3.5-.724,13.447-1.089-11.388-.87,5.329-.7-5.8-.043-.1-1.421,4.952-.071-1.456-1.014,3.042-.46-7.5-.049-.856-.01.019-.039.567L663.265,117.2l-1.046-25.8-1.438,11.832-.232-4.351-.179,1.853-.476-4.4-.215,2.212-.652-3.637-.274,1.926-.848-4.171-.665,2.375-.3-2.252-.466,4.949-.769-6.751-.649-1.4-.636,7.455-.949-4.892-.258,1.683-.968-1.493-1.356,21.741-.577-9.338-.355,9.935-1.747-16.963-.9,17.925L645.462,91.8l-.5-.423-.984,20.79L642.9,101.439l-.743,19.06-1.112-13.959-1.386-11.36L638.61,99l-.225,2.409-.15-1.422-.919,18.859-.76-9.294-.57,7.792-.776-11.831-.31,3.287-.759,14.927-.636-10.223-.01.1L631.233,88l0,.015-.1.76-.205.675-.362,1.19-.994,3.269-1.4,23.415-.863-10.176-.189,3.125-.779-6.153-1.3,14.334L623.66,91.409l-.15.213-1.63,21.2-.3,6.382-.1-1.141-.359,4.631-.835-17.808-.825-9.162-.319-1.672-.049.128-.714-1.723-2.4,20.016-.192-4.213-.469,4.443L614.073,93l-.258,4.966-2.891-6.387-.652,4.643-1.8,40.617-1.056-27.01-.681,11.2-.981-16.981-1.3,24.015-1.03-22.36-1.219,16.686-.844-21.59-1.314,23.246-1.467-32.629-1.069-.139-.013-.388-.134.167-.86,15.225-.665-5.654-1.073,13.284-.182-3.644-.033.455-.776-10.488-.069.97-1.464-8.375-.261.872-.072.807-.078-.316-.626,2.059L591.1,94.4l-1.076,18.85-.786-14.925-1.1,8.843L587.8,97.114l-.613,6.112-.551-9.132-1.327,9.7L584.7,87.566l-.143-3.867-.046.015-.326.132-.147.963-.156-.072-.127,1.56-1.6,20.051L581.438,91.5l-.176-.2-1.229,20.725L579.2,90.253l-1.314,1.2-.059-1.272-.5,10.555L576.18,89.218l-.2-.382-.023.349-.411-1.175-.15-.287-.362-.691-.055-.109-.209,1.061L573.553,94.1l-.2-6.462-.329.6-.658-.574-.241,1.578-.515,1.451-.424,12L570.759,95l-.343,6.583-.127-2.283-.03.84-1.216-8.089-.277,1.176-.16,2.925-.108-2.053-.8-1.611-.166-.335-.385,11.4-.766-5.9-.163,4.933L565,94.878l-.212,3.72-.8-3.422-1.187,8-.352-7.228-.137,4.342-.258-.878-.095,1.106-.166-2.032-1-3.478-.665,19.833-1.421-17.1-.29,2.762-.525,12.124-1.8-22.21-.055-.013-.5.989-.349.682-1.053-1.714-.016.61-1.177,16.8-1.5-16.312-1.007,9.1-.395-3.744-.672,6.543-.913-9.52L547.3,103.84l-.206-2.857-.492,5.787-.929-11.19-1.03-4.835-1.04-1.356-.212,2.657-1.578-2.3-.447,2.764-1.206-3.077-1,9.076L538.082,91l-.89,7.083-.587-4.633-.766,4.5-.085-.679-.939,9.3-1.346-18.286-1.793,1.8-.183-1.826-.952,2.711-.094-.261-.776,9.922-1.7-10.91-.812,3.642-1.33-5.011-.056.028-.988,9.681L523.761,90.5l-.421,1.646-.284-2.321-.671,5.027-.737-3.678-1.1,7.125-.055-.753-.075.746-.831-7.652-.515-1.546-.176.956-1.324-2.032-.414,4.175-1.2-3.3-.848,8.986-1.082-11.149-.238-.719-.336-.114-.349-.118-.114-.038-.036.367-.522,4.98-1.19-3.819-.261,1.458-.46-2.079-.245,1.052-.645-2.309-1.017,6.631-.359-3.477-.782,5.61-.583-8.015-.052-.669-.114.088-.887.681-.271-1.361-.235-1.215-.228-.136-.137.53-.345,1.831-.059.3-.157.207-.349.466-.352.467-.437-.241-.17-.092-.042.221-.521.041-.352.03-.659.054-.111-.913L501.239,85l-.186.983-.271,1.444-.818-.917-.349-.393-.183-.209-.062-.313-.121-.693-.137-.024-.2,1.015-.838,4.189-.43-4.3-.3-2.941-.033,0-.159,1.185-.062.452-.29.193-.134.088-.258.855-.724,2.414-.065-.36-.411,3.559-.427-2.867-.73-.816-.352-.391-.02-.023-.029.258-.133-.441-.023-.026-.007-.064-.658-2.147-.131-.424-.525,1.361-.417-1.9-.042-.2-.209,3.186-.029.441-.271.214-.355.275-.789.62L489.985,87l-.026-.433-.489.956L489,86.42l-.352-.838-.052-.13-.023-.152-.219-1.675-.026.115-.329,1.7-.518,2.626-.632-2.514-.356.634-.248-1-.525,5.9-.633-5.63-.287.734-.1.258-.189.123-.352.228-.186.121-.205-.057-.349-.1-.306-.085-.492,7.3-.61-6.082-.222,1.488-.108-.734-.091,1.288-1.112-2.48-.02-.048-.352.055-.586.095-.18-.814-.013-.074-1.02,4.186-.417-4.424-.068-.749-.147.081-.013.037-.01-.026-.14.08-.349.2-.081.045-.052.9-.47,8.148-1.226-8.008-.1-.669-.091.169-.342.65-.166.3-.274.133-.352.169-.623.308-.4-.768-.355-.674-.13-.244,0-.023-.059.131-.622,1.456-.874-1.207-.356-.489-.156-.218-.062-.237-.4.121-.036-.037-.16.7L468.5,92.2l-.222-1.869-.776,5.5-.593-6.988L465.621,86.9l-.694,7.5-1.063-6.35-.844,2.969-.681-3.232-.039-.061-1.386,2.762-.065-.811-.981,1.695-.45-4.185-.052-.477-.007.01-.033.315L457.641,103.1l-1.014-14.389-1.4,6.6L455,92.892l-.172,1.03-.463-2.453-.2,1.232-.636-2.028-.267,1.075-.825-2.326-.642,1.323-.293-1.252-.447,2.757-.75-3.766-.626-.776-.619,4.156-.923-2.73-.254.939-.936-.829-1.317,12.124-.558-5.207-.349,5.537-1.7-9.457-.874,9.992-1.8-13.289-.486-.235-.962,11.594-1.043-5.984-.724,10.625-1.079-7.788-1.346-6.329L433.7,92.962l-.219,1.339-.143-.788-.89,10.512-.737-5.18-.557,4.343-.756-6.6-.3,1.842-.737,8.314-.616-5.7-.007.054-2.2-14.28v.008l-.1.425-.2.374-.352.664-.958,1.825-1.363,13.055-.844-5.675-.182,1.743-.75-3.429-1.268,7.993-1.33-15.08-.144.116-1.59,11.824-.293,3.559-.1-.638-.345,2.585-.805-9.924-.808-5.115L414.8,90.2l-.049.071-1.014-1.408-2,5.289-.179-1.282-.463,1.358-1.209-6.292-.251,1.587-2.8-2.038-.636,1.483-1.744,12.96-1.027-8.619-.662,3.574-1.333-8.537-.877,1.414-1.01-2.781-1.18,2.076-.818-2.686-1.275,2.893-1.424-4.06-1.037-.017-.016-.048-.13.02-.835,1.9-.639-.7L391.139,88l-.179-.452-.026.054-.756-1.3-.065.12-1.425-1.041-.251.108-.072.1-.075-.04-.6.257-.111-.231-1.04,2.344-.515-1.29-1.31,2.5-.333-2.187-.6,1.329-.535-1.985L381.959,88.4l-.6-3.528-.14-.84-.039,0-.316.028-.147.208-.153-.015-.124.339-1.558,4.359-.688-3.229-.169-.04-1.193,4.5-.815-4.772-1.268-1.374-.052-.111-.482.918-1.122-1-.763-.13-.349-.061-.055-.01-.205.094-1.18,1.3-.2-1.44-.323.134-.59.244-.277.83-.73-.96-.257-.342-.427.872-.183-.669-.049.192-.574-.216-.355-.132-.134-.05-.042-.081-.222-.4-.1.459-.336,1.466-.323-1.461-.081-.355-.055.176-.01.021-.013.015-.372.436-.345.41-.1-.445-.313-1.375Z" transform="translate(-364.125 -33.84)" fill="#f4544f"/></svg>