<svg xmlns="http://www.w3.org/2000/svg" width="229.353" height="23.007" viewBox="0 0 229.353 23.007"><g style="isolation:isolate"><path d="M392.883,631.849a.312.312,0,0,1,.224-.065h11.438a.209.209,0,0,1,.236.236l-.026,1.078a.21.21,0,0,1-.262.263h-9.387a.421.421,0,0,0-.25.053q-.065.053-.065.236v6.758a.262.262,0,0,0,.065.21.358.358,0,0,0,.224.053H402.2a.2.2,0,0,1,.237.236v1.1c0,.089-.018.146-.052.171a.321.321,0,0,1-.185.04h-7.152a.311.311,0,0,0-.2.052.263.263,0,0,0-.065.21v6.968a.211.211,0,0,0,.263.263h9.808a.454.454,0,0,1,.223.04c.044.027.066.092.066.2v1.1c0,.158-.088.237-.263.237H393.134a.256.256,0,0,1-.316-.316V632.1A.357.357,0,0,1,392.883,631.849Z" transform="translate(-392.818 -631.521)" fill="#3f5e67"/><path d="M442.608,631.876a.221.221,0,0,1,.013.223l-6.757,18.852a.467.467,0,0,1-.5.342h-1.393q-.5,0-.578-.316l-6.6-18.852a.289.289,0,0,1-.026-.132.187.187,0,0,1,.079-.144.279.279,0,0,1,.184-.065h1.341a.363.363,0,0,1,.394.263l5.784,16.643c.053.158.122.237.21.237.07,0,.132-.088.184-.263l5.916-16.644a.326.326,0,0,1,.342-.236h1.21A.225.225,0,0,1,442.608,631.876Z" transform="translate(-400.316 -631.521)" fill="#3f5e67"/><path d="M468.835,631.784a.265.265,0,0,1,.211.065.429.429,0,0,1,.052.249v18.8a.456.456,0,0,1-.079.316.461.461,0,0,1-.316.079h-1.209a.468.468,0,0,1-.29-.065.317.317,0,0,1-.079-.25V632.1a.358.358,0,0,1,.065-.249.313.313,0,0,1,.225-.065Z" transform="translate(-409.229 -631.521)" fill="#3f5e67"/><path d="M495.52,631.81q5.338.053,7.784,2.406t2.445,7.192q0,5.022-2.6,7.454t-7.94,2.432H491.84q-.315,0-.316-.342V632.072c0-.192.105-.288.316-.288Zm-2.024,1.919v15.75c0,.174.105.263.316.263h1.131a12.984,12.984,0,0,0,5.049-.815,5.379,5.379,0,0,0,2.786-2.616,10.944,10.944,0,0,0,.894-4.824,10.786,10.786,0,0,0-.881-4.812,5.136,5.136,0,0,0-2.669-2.485,13.561,13.561,0,0,0-4.785-.828h-1.63C493.566,633.361,493.5,633.484,493.5,633.729Z" transform="translate(-414.618 -631.521)" fill="#3f5e67"/><path d="M530.532,631.849a.313.313,0,0,1,.224-.065h11.437a.209.209,0,0,1,.237.236L542.4,633.1a.31.31,0,0,1-.052.21.306.306,0,0,1-.21.052h-9.387a.418.418,0,0,0-.249.053c-.044.035-.066.114-.066.236v6.758a.259.259,0,0,0,.066.21.357.357,0,0,0,.223.053h7.126a.256.256,0,0,1,.184.052.26.26,0,0,1,.052.184v1.1a.211.211,0,0,1-.052.171.317.317,0,0,1-.184.04H532.7a.309.309,0,0,0-.2.052.26.26,0,0,0-.066.21v6.968a.211.211,0,0,0,.263.263h9.807a.458.458,0,0,1,.224.04c.044.027.065.092.065.2v1.1c0,.158-.088.237-.263.237H530.782a.256.256,0,0,1-.316-.316V632.1A.358.358,0,0,1,530.532,631.849Z" transform="translate(-423.218 -631.521)" fill="#3f5e67"/><path d="M580.45,631.784a.263.263,0,0,1,.21.065.371.371,0,0,1,.052.223V651a.256.256,0,0,1-.289.29h-1.052a.453.453,0,0,1-.394-.184l-10.6-15.513c-.087-.122-.162-.175-.223-.158s-.093.079-.093.185V651c0,.194-.105.29-.316.29h-1.13a.256.256,0,0,1-.316-.316V632.1a.362.362,0,0,1,.065-.249.314.314,0,0,1,.225-.065h1.1a.737.737,0,0,1,.276.039.526.526,0,0,1,.2.2l10.412,15.3c.087.105.166.158.237.158a.144.144,0,0,0,.105-.066.267.267,0,0,0,.052-.171V632.072c0-.192.087-.288.263-.288Z" transform="translate(-431.133 -631.521)" fill="#3f5e67"/><path d="M604.639,632.047a.232.232,0,0,1,.263-.263h13.883a.232.232,0,0,1,.263.263v1.078q0,.236-.263.236h-5.443a.377.377,0,0,0-.21.04c-.036.026-.053.092-.053.2v17.38a.358.358,0,0,1-.065.25.313.313,0,0,1-.224.065h-1.419a.312.312,0,0,1-.224-.065.358.358,0,0,1-.065-.25V633.6c0-.105-.017-.171-.052-.2a.381.381,0,0,0-.21-.04H604.9q-.263,0-.263-.236Z" transform="translate(-439.6 -631.521)" fill="#3f5e67"/><path d="M644.684,631.784a.265.265,0,0,1,.211.065.43.43,0,0,1,.052.249v18.8a.456.456,0,0,1-.079.316.461.461,0,0,1-.316.079h-1.209a.469.469,0,0,1-.29-.065.317.317,0,0,1-.079-.25V632.1a.357.357,0,0,1,.065-.249.313.313,0,0,1,.224-.065Z" transform="translate(-448.066 -631.521)" fill="#3f5e67"/><path d="M668.4,634.062a8.191,8.191,0,0,1,12,0q2.155,2.617,2.156,7.454,0,6.337-3.812,8.782a.3.3,0,0,0-.132.237,1.4,1.4,0,0,0,.513.854,5.27,5.27,0,0,0,1.328.934,4.922,4.922,0,0,0,1.656.526c.157.018.236.1.236.237v.947a.361.361,0,0,1-.144.329.96.96,0,0,1-.487.092,4.807,4.807,0,0,1-2.405-.723,8.24,8.24,0,0,1-2.432-2.353.323.323,0,0,0-.394-.105,10.634,10.634,0,0,1-2.077.209,7.453,7.453,0,0,1-5.995-2.563q-2.183-2.563-2.182-7.4T668.4,634.062Zm6.008,15.815q6.1,0,6.1-8.361,0-4.206-1.538-6.35a5.916,5.916,0,0,0-9.124.013q-1.538,2.156-1.538,6.389Q668.3,649.877,674.4,649.877Z" transform="translate(-453.201 -631.446)" fill="#3f5e67"/></g></svg>