<svg xmlns="http://www.w3.org/2000/svg" width="176.176" height="17.672" viewBox="0 0 176.176 17.672"><g style="isolation:isolate"><path d="M392.868,631.834a.24.24,0,0,1,.172-.05h8.786a.16.16,0,0,1,.181.181l-.02.828a.162.162,0,0,1-.2.2h-7.211a.323.323,0,0,0-.192.041q-.05.04-.05.181v5.191a.2.2,0,0,0,.05.161.275.275,0,0,0,.172.041h5.473a.151.151,0,0,1,.182.181v.848c0,.068-.014.112-.04.132a.247.247,0,0,1-.142.031h-5.494a.239.239,0,0,0-.151.04.2.2,0,0,0-.05.161v5.352a.162.162,0,0,0,.2.2h7.534a.349.349,0,0,1,.171.031c.033.02.051.071.051.152v.848c0,.122-.068.182-.2.182H393.06a.2.2,0,0,1-.242-.242v-14.5A.275.275,0,0,1,392.868,631.834Z" transform="translate(-392.818 -631.582)" fill="#3f5e67"/><path d="M438.935,631.855a.17.17,0,0,1,.01.171l-5.19,14.481a.359.359,0,0,1-.384.263H432.3q-.384,0-.444-.242l-5.07-14.481a.222.222,0,0,1-.02-.1.144.144,0,0,1,.061-.111.214.214,0,0,1,.141-.05H428a.279.279,0,0,1,.3.2l4.443,12.785c.041.121.094.182.162.182s.1-.068.141-.2l4.544-12.785a.25.25,0,0,1,.263-.181h.93A.173.173,0,0,1,438.935,631.855Z" transform="translate(-406.449 -631.582)" fill="#3f5e67"/><path d="M468.439,631.784a.2.2,0,0,1,.162.05.33.33,0,0,1,.04.192v14.441a.35.35,0,0,1-.06.242.354.354,0,0,1-.242.06h-.929a.359.359,0,0,1-.223-.05.243.243,0,0,1-.06-.192v-14.5a.275.275,0,0,1,.05-.192.241.241,0,0,1,.172-.05Z" transform="translate(-422.653 -631.582)" fill="#3f5e67"/><path d="M494.594,631.8q4.1.04,5.979,1.848t1.878,5.524q0,3.858-2,5.726t-6.1,1.868h-2.586q-.242,0-.242-.263v-14.5c0-.147.081-.221.242-.221Zm-1.555,1.474v12.1c0,.134.081.2.242.2h.868a9.975,9.975,0,0,0,3.878-.626,4.132,4.132,0,0,0,2.14-2.01,8.407,8.407,0,0,0,.687-3.706,8.285,8.285,0,0,0-.677-3.7,3.945,3.945,0,0,0-2.05-1.909,10.417,10.417,0,0,0-3.676-.636H493.2C493.093,633,493.039,633.09,493.039,633.278Z" transform="translate(-432.449 -631.582)" fill="#3f5e67"/><path d="M530.516,631.834a.241.241,0,0,1,.172-.05h8.785a.16.16,0,0,1,.182.181l-.02.828a.238.238,0,0,1-.04.162.235.235,0,0,1-.162.04h-7.211a.32.32,0,0,0-.192.041c-.034.027-.051.087-.051.181v5.191a.2.2,0,0,0,.051.161.274.274,0,0,0,.171.041h5.474a.2.2,0,0,1,.141.04.2.2,0,0,1,.04.141v.848a.162.162,0,0,1-.04.132.244.244,0,0,1-.141.031h-5.493a.237.237,0,0,0-.151.04.2.2,0,0,0-.051.161v5.352a.162.162,0,0,0,.2.2h7.533a.353.353,0,0,1,.172.031c.033.02.05.071.05.152v.848c0,.122-.068.182-.2.182h-9.028a.2.2,0,0,1-.242-.242v-14.5A.275.275,0,0,1,530.516,631.834Z" transform="translate(-448.084 -631.582)" fill="#3f5e67"/><path d="M577.17,631.784a.2.2,0,0,1,.162.05.285.285,0,0,1,.04.171v14.542a.2.2,0,0,1-.222.223h-.808a.348.348,0,0,1-.3-.141L567.9,634.712c-.067-.094-.124-.135-.171-.121s-.071.061-.071.142v11.814c0,.149-.081.223-.242.223h-.868a.2.2,0,0,1-.243-.242v-14.5a.279.279,0,0,1,.05-.192.241.241,0,0,1,.172-.05h.848a.565.565,0,0,1,.212.03.4.4,0,0,1,.152.151l8,11.754c.067.081.127.121.182.121a.111.111,0,0,0,.081-.051.2.2,0,0,0,.04-.131V632.005c0-.147.067-.221.2-.221Z" transform="translate(-462.473 -631.582)" fill="#3f5e67"/><path d="M604.639,631.986a.178.178,0,0,1,.2-.2h10.664a.178.178,0,0,1,.2.2v.828q0,.181-.2.181h-4.181a.29.29,0,0,0-.161.031c-.027.02-.041.071-.041.151v13.35a.275.275,0,0,1-.05.192.241.241,0,0,1-.172.05h-1.09a.239.239,0,0,1-.172-.05.275.275,0,0,1-.05-.192v-13.35c0-.081-.013-.131-.04-.151a.292.292,0,0,0-.161-.031h-4.544q-.2,0-.2-.181Z" transform="translate(-477.865 -631.582)" fill="#3f5e67"/><path d="M644.288,631.784a.2.2,0,0,1,.162.05.331.331,0,0,1,.04.192v14.441a.242.242,0,0,1-.3.3h-.929a.36.36,0,0,1-.223-.05.243.243,0,0,1-.06-.192v-14.5a.274.274,0,0,1,.05-.192.241.241,0,0,1,.172-.05Z" transform="translate(-493.257 -631.582)" fill="#3f5e67"/><path d="M667.892,633.456a6.292,6.292,0,0,1,9.22,0,8.784,8.784,0,0,1,1.656,5.726q0,4.867-2.928,6.746a.231.231,0,0,0-.1.182,1.075,1.075,0,0,0,.394.656,4.053,4.053,0,0,0,1.02.717,3.782,3.782,0,0,0,1.272.4q.181.021.181.182v.727a.278.278,0,0,1-.111.253.738.738,0,0,1-.374.07,3.692,3.692,0,0,1-1.848-.555,6.33,6.33,0,0,1-1.868-1.807.248.248,0,0,0-.3-.081,8.174,8.174,0,0,1-1.6.161,5.725,5.725,0,0,1-4.6-1.969,8.536,8.536,0,0,1-1.676-5.685A8.744,8.744,0,0,1,667.892,633.456Zm4.615,12.148q4.685,0,4.686-6.422a8.344,8.344,0,0,0-1.182-4.878,4.544,4.544,0,0,0-7.008.01,8.432,8.432,0,0,0-1.182,4.908Q667.822,645.6,672.507,645.6Z" transform="translate(-502.592 -631.446)" fill="#3f5e67"/></g></svg>