<svg xmlns="http://www.w3.org/2000/svg" width="50.346" height="56.902" viewBox="0 0 50.346 56.902"><g transform="translate(-429.79 -16.882)"><path d="M436.247,52.908a3.323,3.323,0,0,1-3.32-3.32V36.842a6.24,6.24,0,0,1,6.233-6.233.712.712,0,1,1,0,1.423,4.816,4.816,0,0,0-4.81,4.81V49.588a1.9,1.9,0,0,0,3.794,0V39.715a.711.711,0,1,1,1.423,0v9.873A3.323,3.323,0,0,1,436.247,52.908Z" fill="#ff5650"/><path d="M444.715,73.638h-5.859a.712.712,0,0,1-.712-.712v-25a.711.711,0,1,1,1.423,0V72.215H444V50.767a.712.712,0,0,1,1.424,0V72.926A.712.712,0,0,1,444.715,73.638Z" fill="#ff5650"/><path d="M450.575,73.711h-5.86A.712.712,0,0,1,444,73V50.84a.712.712,0,0,1,1.424,0V72.288h4.436V53.1a.712.712,0,0,1,1.424,0V73A.712.712,0,0,1,450.575,73.711Z" fill="#ff5650"/><path d="M444.715,28.269a5.693,5.693,0,1,1,5.693-5.694A5.7,5.7,0,0,1,444.715,28.269Zm0-9.964a4.27,4.27,0,1,0,4.27,4.27A4.275,4.275,0,0,0,444.715,18.305Z" fill="#ff5650"/><path d="M473.678,52.908a3.323,3.323,0,0,1-3.32-3.32V39.715a.712.712,0,1,1,1.423,0v9.873a1.9,1.9,0,0,0,3.794,0V36.842a4.816,4.816,0,0,0-4.81-4.81.712.712,0,1,1,0-1.423A6.24,6.24,0,0,1,477,36.842V49.588A3.323,3.323,0,0,1,473.678,52.908Z" fill="#ff5650"/><path d="M471.07,73.638h-5.86a.711.711,0,0,1-.711-.712V50.767a.712.712,0,1,1,1.423,0V72.215h4.436V47.926a.712.712,0,1,1,1.423,0v25A.711.711,0,0,1,471.07,73.638Z" fill="#ff5650"/><path d="M459.655,32.1H450.27a.712.712,0,0,1,0-1.423h9.385a.712.712,0,1,1,0,1.423Z" fill="#ff5650"/><path d="M465.21,73.711h-5.86a.711.711,0,0,1-.711-.712V54.757a.712.712,0,1,1,1.423,0V72.288H464.5V50.84a.712.712,0,1,1,1.423,0V73A.712.712,0,0,1,465.21,73.711Z" fill="#ff5650"/><path d="M465.21,28.269a5.693,5.693,0,1,1,5.693-5.694A5.7,5.7,0,0,1,465.21,28.269Zm0-9.964a4.27,4.27,0,1,0,4.27,4.27A4.275,4.275,0,0,0,465.21,18.305Z" fill="#ff5650"/><path d="M459.35,51.342a.711.711,0,0,1-.711-.711v-3.78l-11.813.007a.712.712,0,0,1,0-1.424l12.525-.007a.712.712,0,0,1,.712.712v4.492A.711.711,0,0,1,459.35,51.342Z" fill="#ff5650"/><path d="M449.294,49.319a.709.709,0,0,1-.5-.208l-2.468-2.461a.712.712,0,0,1,0-1.007l2.468-2.475a.711.711,0,0,1,1.007,1.005l-1.965,1.971L449.8,48.1a.712.712,0,0,1-.5,1.216Z" fill="#ff5650"/><path d="M446.826,39.753a.71.71,0,0,1-.712-.712V34.55a.711.711,0,1,1,1.423,0v3.779l11.813-.006a.711.711,0,1,1,0,1.423l-12.525.007Z" fill="#ff5650"/><path d="M456.882,42.221a.712.712,0,0,1-.5-1.214l1.965-1.971-1.964-1.959a.712.712,0,1,1,1.005-1.008l2.468,2.462a.711.711,0,0,1,0,1.006l-2.468,2.475A.71.71,0,0,1,456.882,42.221Z" fill="#ff5650"/><path d="M479.424,73.784H430.5a.711.711,0,0,1,0-1.423h48.923a.711.711,0,1,1,0,1.423Z" fill="#ff5650"/></g></svg>