<svg xmlns="http://www.w3.org/2000/svg" width="62.965" height="64" viewBox="0 0 62.965 64"><g transform="translate(-264.04 -226.629)"><path d="M311.277,278.206a3.487,3.487,0,0,1-1.9-.563l-11.133-7.261a.811.811,0,0,1,.886-1.358l11.133,7.26a1.852,1.852,0,0,0,2.632-.654,1.853,1.853,0,0,0-.633-2.464l-15.438-9.718a4.332,4.332,0,0,0-2.313-.666h-7.283v1.92a3.29,3.29,0,1,1-6.58,0V259.16a2.219,2.219,0,0,1,1.269-2l6.34-2.984a.807.807,0,0,1,.345-.076h17.313a.811.811,0,1,1,0,1.621H288.781l-6.176,2.906a.59.59,0,0,0-.338.532V264.7a1.669,1.669,0,1,0,3.338,0v-2.731a.81.81,0,0,1,.81-.811h8.094a5.956,5.956,0,0,1,3.176.916l15.438,9.718a3.472,3.472,0,0,1-1.847,6.413Z" transform="translate(2.312 3.825)" fill="#ff5650"/><path d="M303.129,278.878a3.606,3.606,0,0,1-2.021-.62l-7.857-5.282a.811.811,0,1,1,.9-1.345l7.857,5.28a2.016,2.016,0,1,0,2.226-3.361L297.1,268.9a.811.811,0,0,1,.886-1.359l7.141,4.656A3.648,3.648,0,0,1,306.2,277.2a3.611,3.611,0,0,1-2.322,1.6A3.7,3.7,0,0,1,303.129,278.878Z" transform="translate(4.017 5.677)" fill="#ff5650"/><path d="M298.091,281.321a3.584,3.584,0,0,1-1.942-.57l-5.4-3.477a.811.811,0,0,1,.877-1.364l5.4,3.477a1.99,1.99,0,0,0,2.66-.477,1.984,1.984,0,0,0-.48-2.837l-3.521-2.366a.811.811,0,0,1,.9-1.345l3.521,2.366a3.606,3.606,0,0,1,.872,5.156A3.613,3.613,0,0,1,298.091,281.321Z" transform="translate(3.667 6.348)" fill="#ff5650"/><path d="M291.7,283.027a3.483,3.483,0,0,1-1.83-.517l-.586-.36a.811.811,0,0,1,.85-1.381l.586.36a1.888,1.888,0,0,0,2.521-.513,1.883,1.883,0,0,0-.515-2.674l-1.324-.852a.811.811,0,0,1,.878-1.364l1.324.852a3.5,3.5,0,0,1-1.9,6.448Z" transform="translate(3.461 6.818)" fill="#ff5650"/><path d="M287.395,283.638a3.248,3.248,0,0,1-2.419-5.416l.27-.3a3.253,3.253,0,1,1,4.821,4.369l-.275.3A3.244,3.244,0,0,1,287.395,283.638Zm.275-5.18a1.628,1.628,0,0,0-1.214.542l-.271.3a1.63,1.63,0,0,0,.194,2.358,1.634,1.634,0,0,0,2.22-.169l.275-.3a1.628,1.628,0,0,0-.161-2.356A1.643,1.643,0,0,0,287.67,278.458Z" transform="translate(2.8 6.991)" fill="#ff5650"/><path d="M283.4,282.1a3.261,3.261,0,0,1-2.443-5.418l3.41-3.863a3.247,3.247,0,0,1,4.514-.36l-.472.662.515-.627a3.26,3.26,0,0,1,.35,4.7l-3.453,3.827A3.255,3.255,0,0,1,283.4,282.1Zm3.41-8.764a1.634,1.634,0,0,0-1.227.556l-3.41,3.863a1.638,1.638,0,0,0,2.444,2.181l3.454-3.827a1.638,1.638,0,0,0-.174-2.361A1.678,1.678,0,0,0,286.813,273.332Z" transform="translate(2.242 6.277)" fill="#ff5650"/><path d="M280.45,278.642a3.315,3.315,0,0,1-2.572-5.4l1.16-1.429a3.353,3.353,0,1,1,5.117,4.33l-1.218,1.381A3.311,3.311,0,0,1,280.45,278.642Zm1.2-6.447a1.736,1.736,0,0,0-1.35.637l-1.159,1.43a1.693,1.693,0,0,0,2.584,2.186l1.218-1.38a1.727,1.727,0,0,0-1.293-2.873Z" transform="translate(1.824 6.119)" fill="#ff5650"/><path d="M277.445,275.29a3.115,3.115,0,0,1-2.39-5.12l.523-.621a3.1,3.1,0,0,1,4.794,3.938l-.506.633A3.091,3.091,0,0,1,277.445,275.29Zm.5-5.221a1.477,1.477,0,0,0-1.132.527l-.523.62a1.491,1.491,0,1,0,2.306,1.891l.506-.632a1.482,1.482,0,0,0-1.156-2.406Z" transform="translate(1.432 5.823)" fill="#ff5650"/><path d="M276.627,272.789a.807.807,0,0,1-.583-.248l-4.577-4.753a.81.81,0,0,1-.077-1.03l8.237-11.651a.809.809,0,0,1,.662-.343H288.3a.811.811,0,0,1,0,1.622h-7.6l-7.607,10.76,4.112,4.27a.811.811,0,0,1-.584,1.373Z" transform="translate(1.003 3.917)" fill="#ff5650"/><path d="M313.865,271.378a2.813,2.813,0,0,1-2.338-1.245c-2.068-3.054-6.543-9.807-9.026-13.56a2.835,2.835,0,0,1,.644-3.808l7.322-5.58a.811.811,0,1,1,.983,1.29l-7.322,5.58a1.21,1.21,0,0,0-.275,1.625c2.481,3.749,6.953,10.5,9.017,13.546a1.2,1.2,0,0,0,1.641.345l5.96-3.747a.811.811,0,1,1,.864,1.373l-5.962,3.747A2.836,2.836,0,0,1,313.865,271.378Z" transform="translate(5.29 2.839)" fill="#ff5650"/><path d="M271.427,270.049a2.823,2.823,0,0,1-1.4-.369l-5.579-3.153a.811.811,0,0,1,.8-1.412l5.579,3.153a1.2,1.2,0,0,0,1.581-.358l8.375-11.955a1.2,1.2,0,0,0-.214-1.617l-8.032-6.617a.81.81,0,0,1,1.03-1.251l8.038,6.621a2.812,2.812,0,0,1,.5,3.792l-8.373,11.955A2.814,2.814,0,0,1,271.427,270.049Z" transform="translate(0 2.737)" fill="#ff5650"/><path d="M307.2,270.542a.81.81,0,0,1-.578-1.378l3.639-3.7a.811.811,0,0,1,1.156,1.137l-3.639,3.7A.811.811,0,0,1,307.2,270.542Z" transform="translate(5.897 5.373)" fill="#ff5650"/><path d="M268.256,264.356a.811.811,0,0,1-.668-1.269l4.322-6.307a.811.811,0,0,1,1.337.917L268.926,264A.812.812,0,0,1,268.256,264.356Z" transform="translate(0.474 4.149)" fill="#ff5650"/><path d="M314.484,265.167a.811.811,0,0,1-.688-.382l-4.089-6.548a.81.81,0,1,1,1.375-.858l4.089,6.547a.81.81,0,0,1-.687,1.241Z" transform="translate(6.341 4.228)" fill="#ff5650"/><path d="M293.364,254.4a13.885,13.885,0,1,1,9.818-23.7.81.81,0,0,1-1.146,1.146,12.265,12.265,0,1,0,3.591,8.672,12.4,12.4,0,0,0-.177-2.089.811.811,0,1,1,1.6-.273A13.9,13.9,0,0,1,293.364,254.4Z" transform="translate(2.15)" fill="#ff5650"/><path d="M283.568,238.559a.788.788,0,0,1-.2-.025.81.81,0,0,1-.59-.982,10.442,10.442,0,0,1,17.509-4.842.811.811,0,0,1-1.146,1.147,8.82,8.82,0,0,0-14.79,4.088A.811.811,0,0,1,283.568,238.559Z" transform="translate(2.606 0.421)" fill="#ff5650"/><path d="M292.831,249.065a.808.808,0,0,1-.535-.2l-8.651-7.6a.81.81,0,0,1,1.07-1.218l8.01,7.033,12.536-15.874a.811.811,0,1,1,1.273,1l-13.066,16.545a.816.816,0,0,1-.563.305C292.88,249.065,292.855,249.065,292.831,249.065Z" transform="translate(2.691 0.595)" fill="#ff5650"/></g></svg>