<svg xmlns="http://www.w3.org/2000/svg" width="106.59" height="74.305" viewBox="0 0 106.59 74.305"><g transform="translate(-186.721 112.847) rotate(-47)"><path d="M189.388,102.3a8.046,8.046,0,1,1,5.692-2.354A8.022,8.022,0,0,1,189.388,102.3Zm0-14.227a6.182,6.182,0,1,0,4.374,1.809A6.169,6.169,0,0,0,189.388,88.07Z" transform="translate(0 0)" fill="#ff5650"/><path d="M199.86,121.438a4.245,4.245,0,0,1-.748-.066l-9.7-1.718a3.947,3.947,0,0,1-3.165-3.008l-3.3-17.683a.933.933,0,0,1,1.834-.343l3.292,17.647a2.078,2.078,0,0,0,1.665,1.552l9.7,1.717a2.4,2.4,0,0,0,.995-4.7l-7.395-1.823a.933.933,0,0,1-.692-.722l-1.336-6.68a.934.934,0,0,1,.518-1.028,17.1,17.1,0,0,0,8.193-8.193.934.934,0,0,1,1.026-.518l6.68,1.336a.933.933,0,0,1,.723.692l1.823,7.393a2.4,2.4,0,0,0,4.7-.993l-1.718-9.7a2.085,2.085,0,0,0-1.589-1.672l-17.609-3.285a.933.933,0,1,1,.343-1.834L211.745,91.1a3.959,3.959,0,0,1,3.046,3.173l1.718,9.7a4.268,4.268,0,0,1-8.346,1.765l-1.683-6.819-5.4-1.079a18.983,18.983,0,0,1-8.1,8.1l1.079,5.4,6.821,1.683a4.268,4.268,0,0,1-1.018,8.412Z" transform="translate(0.493 0.493)" fill="#ff5650"/><path d="M234.649,147.563a8.049,8.049,0,1,1,5.693-2.358A7.99,7.99,0,0,1,234.649,147.563Zm0-14.234a6.184,6.184,0,1,0,4.374,1.811A6.144,6.144,0,0,0,234.649,133.329Z" transform="translate(14.061 14.06)" fill="#ff5650"/><path d="M234.271,150.132a.962.962,0,0,1-.172-.016l-17.645-3.292a3.962,3.962,0,0,1-3.047-3.173l-1.718-9.7a4.269,4.269,0,0,1,8.348-1.767L221.718,139l5.4,1.079a18.986,18.986,0,0,1,8.1-8.105l-1.08-5.4-6.819-1.683a4.269,4.269,0,0,1,1.767-8.348l9.7,1.718a3.95,3.95,0,0,1,3.165,3.009l3.3,17.683a.933.933,0,0,1-1.834.343l-3.292-17.647a2.078,2.078,0,0,0-1.665-1.552l-9.7-1.718a2.4,2.4,0,0,0-.995,4.7l7.395,1.823a.932.932,0,0,1,.691.722l1.337,6.68a.933.933,0,0,1-.519,1.028,17.1,17.1,0,0,0-8.192,8.193.931.931,0,0,1-1.028.518l-6.68-1.336a.933.933,0,0,1-.722-.692l-1.824-7.395a2.4,2.4,0,0,0-4.7.995l1.718,9.7a2.088,2.088,0,0,0,1.59,1.672l17.607,3.285a.933.933,0,0,1-.17,1.849Z" transform="translate(9.407 9.407)" fill="#ff5650"/><path d="M216.358,147.492a26.24,26.24,0,0,1-25.98-30.418.938.938,0,0,1,.38-.615.928.928,0,0,1,.7-.159l5.76,1.02a2.4,2.4,0,0,0,.995-4.7l-5.071-1.25a.933.933,0,0,1-.623-1.3,25.937,25.937,0,0,1,12.685-12.683.931.931,0,0,1,1.3.621l1.25,5.071a2.4,2.4,0,0,0,4.7-.995l-1.021-5.759a.93.93,0,0,1,.773-1.084,26.253,26.253,0,0,1,30.094,30.094.935.935,0,0,1-1.084.773l-5.759-1.021a2.4,2.4,0,0,0-.995,4.7l5.071,1.25a.931.931,0,0,1,.621,1.3,25.927,25.927,0,0,1-12.683,12.683.931.931,0,0,1-1.3-.621l-1.252-5.071a2.4,2.4,0,0,0-4.7.995l1.021,5.759a.943.943,0,0,1-.159.705.931.931,0,0,1-.615.379A26.255,26.255,0,0,1,216.358,147.492Zm-24.267-29.186a24.381,24.381,0,0,0,27.149,27.15l-.852-4.806a4.269,4.269,0,0,1,8.348-1.767l.973,3.944a23.96,23.96,0,0,0,10.256-10.255l-3.944-.974a4.269,4.269,0,0,1,1.767-8.348l4.806.852a24.381,24.381,0,0,0-27.149-27.149l.851,4.806a4.268,4.268,0,0,1-8.346,1.765l-.974-3.942a23.966,23.966,0,0,0-10.255,10.255l3.944.974a4.268,4.268,0,0,1-1.767,8.346Z" transform="translate(2.707 2.707)" fill="#ff5650"/><path d="M224.7,106.316a.93.93,0,0,1-.659-.274,19.852,19.852,0,0,0-12.6-5.756.933.933,0,0,1,.134-1.861,21.714,21.714,0,0,1,13.782,6.3.933.933,0,0,1-.661,1.592Z" transform="translate(9.083 3.795)" fill="#ff5650"/><path d="M221.577,128.531a.928.928,0,0,1-.431-.106L214.8,125.11h-4.8a2.8,2.8,0,0,1-2.8-2.8v-4.819a2.8,2.8,0,0,1,2.8-2.8h9.717a2.8,2.8,0,0,1,2.8,2.8V127.6a.933.933,0,0,1-.933.933Zm-11.582-11.972a.934.934,0,0,0-.932.933v4.819a.934.934,0,0,0,.932.933h5.033a.929.929,0,0,1,.431.106l5.185,2.707v-8.565a.934.934,0,0,0-.932-.933Z" transform="translate(8.032 8.85)" fill="#ff5650"/><path d="M201.315,119.258a.933.933,0,0,1-.933-.932V108.221a2.8,2.8,0,0,1,2.8-2.8H212.9a2.8,2.8,0,0,1,2.8,2.8v4.819a2.8,2.8,0,0,1-2.8,2.8h-4.8l-6.348,3.313A.913.913,0,0,1,201.315,119.258Zm1.865-11.97a.933.933,0,0,0-.932.933v8.565l5.185-2.708a.931.931,0,0,1,.431-.1H212.9a.934.934,0,0,0,.932-.933v-4.819a.933.933,0,0,0-.932-.933Z" transform="translate(5.915 5.97)" fill="#ff5650"/><path d="M214.337,119.069a1.05,1.05,0,1,1-1.05-1.05A1.049,1.049,0,0,1,214.337,119.069Z" transform="translate(9.598 9.883)" fill="#ff5650"/><path d="M216.708,119.069a1.049,1.049,0,1,1-1.05-1.05A1.049,1.049,0,0,1,216.708,119.069Z" transform="translate(10.335 9.883)" fill="#ff5650"/><path d="M211.963,119.069a1.049,1.049,0,1,1-1.049-1.05A1.048,1.048,0,0,1,211.963,119.069Z" transform="translate(8.861 9.883)" fill="#ff5650"/><path d="M207.523,109.7a1.05,1.05,0,1,1-1.05-1.049A1.05,1.05,0,0,1,207.523,109.7Z" transform="translate(7.481 6.972)" fill="#ff5650"/><path d="M209.894,109.7a1.049,1.049,0,1,1-1.05-1.049A1.05,1.05,0,0,1,209.894,109.7Z" transform="translate(8.218 6.972)" fill="#ff5650"/><circle cx="1.049" cy="1.049" r="1.049" transform="translate(209.795 115.619)" fill="#ff5650"/></g></svg>