<svg xmlns="http://www.w3.org/2000/svg" width="146.116" height="27.379" viewBox="0 0 146.116 27.379"><circle cx="1.701" cy="1.701" r="1.701" transform="translate(7.676)" fill="#3f5e67"/><circle cx="1.701" cy="1.701" r="1.701" transform="translate(0.692 16.606)" fill="#fff"/><circle cx="1.701" cy="1.701" r="1.701" transform="translate(21.266 5.654)" fill="#fff"/><circle cx="1.701" cy="1.701" r="1.701" transform="translate(14.151 22.391)" fill="#f7ede1"/><path d="M164.027,339.676l2.865-2.865a1.7,1.7,0,1,0-2.406-2.4l-2.865,2.864a1.7,1.7,0,1,0,2.406,2.406Z" transform="translate(-161.123 -329.097)" fill="#fff"/><path d="M189.6,352.876l3.311-3.371A1.7,1.7,0,0,0,190.5,347.1l-3.31,3.371a1.7,1.7,0,1,0,2.405,2.4Z" transform="translate(-167.702 -332.362)" fill="#fff"/><path d="M171.436,342.421l10.952-10.952a1.7,1.7,0,0,0-2.406-2.406l-10.952,10.952a1.7,1.7,0,0,0,2.406,2.406Z" transform="translate(-163.03 -327.722)" fill="#fff"/><path d="M171.436,355.376l10.952-10.952a1.7,1.7,0,0,0-2.406-2.406L169.031,352.97a1.7,1.7,0,0,0,2.406,2.406Z" transform="translate(-163.03 -331.055)" fill="#fff"/><g transform="translate(34.455 0.757)"><path d="M207.512,328.912h5.7c3.916,0,5.6,1.821,5.6,5.53v.962c0,2.473-.755,4.019-2.438,4.706v.069c2.026.687,2.816,2.473,2.816,5.015v2.061c0,3.709-1.958,5.7-5.736,5.7h-5.943Zm5.256,9.79c1.408,0,2.267-.618,2.267-2.542v-1.34c0-1.718-.584-2.473-1.924-2.473h-1.82V338.7Zm.687,10.82c1.271,0,1.958-.584,1.958-2.37v-2.1c0-2.233-.721-2.92-2.439-2.92H211.29v7.385Z" transform="translate(-207.512 -328.569)" fill="#fff"/><path d="M226.194,328.912h3.778v24.046h-3.778Z" transform="translate(-212.318 -328.569)" fill="#fff"/><path d="M235.072,328.912h5.771c3.778,0,5.634,2.1,5.634,5.943v12.16c0,3.847-1.855,5.943-5.634,5.943h-5.771Zm5.7,20.61c1.2,0,1.923-.618,1.923-2.335v-12.5c0-1.717-.721-2.336-1.923-2.336h-1.924v17.175Z" transform="translate(-214.602 -328.569)" fill="#fff"/><path d="M261.245,328.912h10.306v3.435h-6.526V338.7h5.187v3.435h-5.187v7.385h6.526v3.435H261.245Z" transform="translate(-221.335 -328.569)" fill="#fff"/><path d="M285.906,352.77a7.106,7.106,0,0,1-2.508.413c-3.71,0-5.736-2.2-5.736-6.046V334.5c0-3.847,2.026-6.045,5.736-6.045s5.737,2.2,5.737,6.045v12.642a6.81,6.81,0,0,1-1.065,3.951c.275.481.722.549,1.408.549h.584v3.435h-1A2.906,2.906,0,0,1,285.906,352.77Zm-.55-5.392V334.255c0-1.718-.755-2.371-1.958-2.371s-1.958.653-1.958,2.371v13.122c0,1.717.756,2.369,1.958,2.369S285.356,349.095,285.356,347.377Z" transform="translate(-225.559 -328.45)" fill="#fff"/><path d="M296.344,347.256V328.912h3.778V347.53c0,1.717.721,2.335,1.924,2.335s1.924-.618,1.924-2.335V328.912h3.641v18.344c0,3.847-1.924,6.046-5.634,6.046S296.344,351.1,296.344,347.256Z" transform="translate(-230.365 -328.569)" fill="#fff"/><path d="M315.118,328.912H318.9v24.046h-3.779Z" transform="translate(-235.194 -328.569)" fill="#fff"/><path d="M327.531,332.347H323.58v-3.435h11.68v3.435h-3.951v20.61h-3.778Z" transform="translate(-237.371 -328.569)" fill="#fff"/><path d="M345.027,342.721l-4.569-13.809h4.019l2.577,8.828h.069l2.576-8.828h3.676l-4.569,13.809v10.237h-3.778Z" transform="translate(-241.713 -328.569)" fill="#fff"/></g></svg>