<svg xmlns="http://www.w3.org/2000/svg" width="38.521" height="87.021" viewBox="0 0 38.521 87.021"><g transform="translate(-167.16 -106.018)"><g transform="translate(167.16 106.018)"><path d="M201.6,131.423a4.3,4.3,0,0,0-2.6.866,4.338,4.338,0,0,0-7.219-3.243,4.33,4.33,0,0,0-4.058-2.828,4.383,4.383,0,0,0-2.6.866v-6.938a4.339,4.339,0,0,0-8.67-.358c0,.119,0,.238,0,.358v19.392a5.693,5.693,0,0,0-6.264-3.036l-2.1.452a.859.859,0,0,0-.676,1.008l0,.013,3.939,18.511a13,13,0,0,0,12.891,11.365h8.678a13.031,13.031,0,0,0,12.994-13.009V135.762A4.345,4.345,0,0,0,201.6,131.423Zm2.6,23.42a11.284,11.284,0,0,1-11.269,11.269h-8.678a11.292,11.292,0,0,1-11.188-9.9l-3.761-17.77,1.251-.259a3.833,3.833,0,0,1,2.962.541,3.922,3.922,0,0,1,1.7,2.48l1.251,6.819a.889.889,0,0,0,.94.74.866.866,0,0,0,.8-.866V120.146a2.6,2.6,0,0,1,5.183,0v20.813a.86.86,0,0,0,.852.866h.015a.866.866,0,0,0,.866-.866v-10.4a2.6,2.6,0,0,1,5.183,0v10.4a.86.86,0,0,0,.851.866h.015a.866.866,0,0,0,.866-.866v-8.67a2.6,2.6,0,0,1,5.183,0v8.67a.86.86,0,0,0,.851.866h.015a.866.866,0,0,0,.866-.866v-5.183a2.6,2.6,0,0,1,5.183-.392,2.478,2.478,0,0,1,0,.392Z" transform="translate(-167.4 -108.512)" fill="#ff5650"/><path d="M191.708,114.69a.96.96,0,0,1-1.909.015v-.015a5.647,5.647,0,0,0-.172-1.385,6.182,6.182,0,0,0-.44-1.3,6.834,6.834,0,0,0-.71-1.177,8.165,8.165,0,0,0-.938-1.044,8.717,8.717,0,0,0-1.125-.851,12.509,12.509,0,0,0-1.3-.644,8.282,8.282,0,0,0-1.436-.4,8.587,8.587,0,0,0-3.076,0,8.282,8.282,0,0,0-1.436.4,12.579,12.579,0,0,0-1.3.644,8.715,8.715,0,0,0-1.125.851,8.165,8.165,0,0,0-.938,1.044A6.784,6.784,0,0,0,175.1,112a6.143,6.143,0,0,0-.441,1.3,5.6,5.6,0,0,0-.155,1.385.914.914,0,0,1-.954.866h0a.908.908,0,0,1-.954-.851v-.015a7.69,7.69,0,0,1,.2-1.777,7.33,7.33,0,0,1,.555-1.614,8.33,8.33,0,0,1,.881-1.481,8.7,8.7,0,0,1,1.166-1.281,10.057,10.057,0,0,1,1.411-1.059,11.685,11.685,0,0,1,1.632-.814,13.01,13.01,0,0,1,1.794-.5,10.221,10.221,0,0,1,1.884-.141,10,10,0,0,1,1.91.17,13.01,13.01,0,0,1,1.794.5,11.686,11.686,0,0,1,1.632.814,8.812,8.812,0,0,1,1.411,1.059,8.648,8.648,0,0,1,2.047,2.754,7.172,7.172,0,0,1,.555,1.629A7.448,7.448,0,0,1,191.708,114.69Z" transform="translate(-168.748 -106.018)" fill="#ff5650"/></g><g transform="translate(177.161 171.597)"><g transform="translate(0 10.812)"><g transform="translate(-182.843 -206.564)" fill="#ff5650" stroke-miterlimit="10"><path d="M 192.4064178466797 217.0935516357422 C 192.1267395019531 217.0935516357422 191.8632049560547 216.9840698242188 191.6643829345703 216.7852478027344 C 188.5335693359375 213.653564453125 183.707763671875 208.8482055664063 183.2211761474609 208.3956451416016 C 182.9888610839844 208.2444458007813 182.8281860351563 208.0124816894531 182.7683258056641 207.7415008544922 C 182.7077789306641 207.4674377441406 182.7576141357422 207.1862640380859 182.9086761474609 206.9497985839844 C 183.1027679443359 206.6453399658203 183.4342956542969 206.4635162353516 183.7955017089844 206.4635162353516 C 183.9936065673828 206.4635162353516 184.1869964599609 206.5196533203125 184.3551025390625 206.6258850097656 C 184.5478210449219 206.7234191894531 184.6710357666016 206.8142700195313 192.4134674072266 214.5494079589844 L 200.2308807373047 206.8188018798828 C 200.4289855957031 206.6216278076172 200.6924896240234 206.512939453125 200.97265625 206.512939453125 C 201.2561340332031 206.512939453125 201.5222320556641 206.6237182617188 201.721923828125 206.8248443603516 C 202.1314239501953 207.2383575439453 202.1282806396484 207.9076995849609 201.7149963378906 208.3170013427734 L 193.1524658203125 216.7865600585938 C 192.9556274414063 216.9833831787109 192.6930236816406 217.0925445556641 192.4134521484375 217.0935363769531 L 192.4064178466797 217.0935516357422 Z" stroke="none"/><path d="M 192.4064178466797 216.9935607910156 C 192.4086456298828 216.9935607910156 192.4108734130859 216.9935455322266 192.4131011962891 216.9935302734375 C 192.6640930175781 216.9926452636719 192.9042663574219 216.893310546875 193.0821380615234 216.7154541015625 L 201.6446228027344 208.2459564208984 C 202.019287109375 207.8748931884766 202.0220031738281 207.2699737548828 201.6509552001953 206.8953094482422 C 201.4642944335938 206.7072906494141 201.2184753417969 206.6129455566406 200.9726409912109 206.6129455566406 C 200.7297973632813 206.6129455566406 200.4869384765625 206.7050476074219 200.3011932373047 206.889892578125 L 192.4131011962891 214.6903991699219 C 184.5647735595703 206.8492584228516 184.4862213134766 206.8041229248047 184.3056488037109 206.7129364013672 C 184.1473236083984 206.6118011474609 183.9704284667969 206.5635223388672 183.7955017089844 206.5635223388672 C 183.4817047119141 206.5635223388672 183.1743927001953 206.7190093994141 182.9929351806641 207.0036315917969 C 182.7103424072266 207.446044921875 182.8403472900391 208.0337829589844 183.2827453613281 208.3163757324219 C 183.7323608398438 208.7316741943359 188.5625152587891 213.5410766601563 191.7350921630859 216.7145385742188 C 191.9131927490234 216.8926239013672 192.1542510986328 216.9935607910156 192.4064178466797 216.9935607910156 M 192.4064178466797 217.1935577392578 C 192.1000366210938 217.1935577392578 191.8113861083984 217.0736694335938 191.5936737060547 216.8559722900391 C 188.4757080078125 213.7371368408203 183.6768341064453 208.9584808349609 183.1592102050781 208.474609375 C 182.9087829589844 208.3089294433594 182.735595703125 208.0569610595703 182.6706848144531 207.7630767822266 C 182.6043701171875 207.4629058837891 182.6589660644531 207.1549530029297 182.8243865966797 206.8959808349609 C 183.0368957519531 206.5626220703125 183.3999633789063 206.3635101318359 183.7955017089844 206.3635101318359 C 184.0109710693359 206.3635101318359 184.2212829589844 206.424072265625 184.4044647216797 206.5387878417969 C 184.6154937744141 206.6460418701172 184.7758026123047 206.7777252197266 192.413818359375 214.4084014892578 L 200.1605529785156 206.7476806640625 C 200.3773040771484 206.531982421875 200.6658630371094 206.4129486083984 200.97265625 206.4129486083984 C 201.2829742431641 206.4129486083984 201.5742797851563 206.5342102050781 201.7928924560547 206.75439453125 C 202.2412872314453 207.2071685791016 202.2378234863281 207.9399566650391 201.7853546142578 208.3880615234375 L 193.2227935791016 216.8576507568359 C 193.0075378417969 217.0728912353516 192.7199554443359 217.1924438476563 192.4138031005859 217.1935272216797 L 192.4064178466797 217.1935577392578 Z" stroke="none" fill="#000"/></g></g><g transform="translate(8.308 5.088)"><g transform="translate(-192.046 -200.224)" fill="#ff5650" stroke-miterlimit="10"><path d="M 193.3235168457031 202.8790130615234 C 192.56396484375 202.8790130615234 191.9460144042969 202.2610778808594 191.9460144042969 201.5015258789063 C 191.9460144042969 200.7419586181641 192.56396484375 200.1240081787109 193.3235168457031 200.1240081787109 C 194.0830993652344 200.1240081787109 194.7010498046875 200.7419586181641 194.7010498046875 201.5015258789063 C 194.7010498046875 202.2610778808594 194.0830993652344 202.8790130615234 193.3235168457031 202.8790130615234 Z" stroke="none"/><path d="M 193.3235168457031 200.2239990234375 C 192.6174926757813 200.2239990234375 192.0460205078125 200.7955017089844 192.0460205078125 201.5015258789063 C 192.0460205078125 202.2075500488281 192.6174926757813 202.7790222167969 193.3235168457031 202.7790222167969 C 194.029541015625 202.7790222167969 194.6010589599609 202.2075500488281 194.6010589599609 201.5015258789063 C 194.6010589599609 200.7955017089844 194.029541015625 200.2239990234375 193.3235168457031 200.2239990234375 M 193.3235168457031 200.0240020751953 C 194.1382446289063 200.0240020751953 194.8010559082031 200.6868133544922 194.8010559082031 201.5015258789063 C 194.8010559082031 202.3162231445313 194.1382446289063 202.9790191650391 193.3235168457031 202.9790191650391 C 192.5088195800781 202.9790191650391 191.8460235595703 202.3162231445313 191.8460235595703 201.5015258789063 C 191.8460235595703 200.6868133544922 192.5088195800781 200.0240020751953 193.3235168457031 200.0240020751953 Z" stroke="none" fill="#000"/></g></g><g transform="translate(8.308)"><g fill="#ff5650" stroke="#000" stroke-miterlimit="10" stroke-width="0.2"><circle cx="1.278" cy="1.278" r="1.278" stroke="none"/><circle cx="1.278" cy="1.278" r="1.378" fill="none"/></g></g><g transform="translate(8.308 10.265)"><g transform="translate(-192.046 -205.958)" fill="#ff5650" stroke-miterlimit="10"><path d="M 193.3235168457031 208.6139373779297 C 192.56396484375 208.6139373779297 191.9460144042969 207.9959869384766 191.9460144042969 207.2364196777344 C 191.9460144042969 206.4763488769531 192.56396484375 205.8579864501953 193.3235168457031 205.8579864501953 C 194.0830993652344 205.8579864501953 194.7010498046875 206.4763488769531 194.7010498046875 207.2364196777344 C 194.7010498046875 207.9959869384766 194.0830993652344 208.6139373779297 193.3235168457031 208.6139373779297 Z" stroke="none"/><path d="M 193.3235168457031 205.9579925537109 C 192.6174926757813 205.9579925537109 192.0460205078125 206.5303955078125 192.0460205078125 207.2364196777344 C 192.0460205078125 207.9415283203125 192.6174926757813 208.5139312744141 193.3235168457031 208.5139312744141 C 194.029541015625 208.5139312744141 194.6010589599609 207.9415283203125 194.6010589599609 207.2364196777344 C 194.6010589599609 206.5303955078125 194.029541015625 205.9579925537109 193.3235168457031 205.9579925537109 M 193.3235168457031 205.7579956054688 C 194.1382446289063 205.7579956054688 194.8010559082031 206.4212188720703 194.8010559082031 207.2364196777344 C 194.8010559082031 208.0511169433594 194.1382446289063 208.7139282226563 193.3235168457031 208.7139282226563 C 192.5088195800781 208.7139282226563 191.8460235595703 208.0511169433594 191.8460235595703 207.2364196777344 C 191.8460235595703 206.4212188720703 192.5088195800781 205.7579956054688 193.3235168457031 205.7579956054688 Z" stroke="none" fill="#000"/></g></g></g></g></svg>