<?xml version="1.0" standalone="no"?>
<!DOCTYPE svg PUBLIC "-//W3C//DTD SVG 1.1//EN" "http://www.w3.org/Graphics/SVG/1.1/DTD/svg11.dtd" >
<svg xmlns="http://www.w3.org/2000/svg" xmlns:xlink="http://www.w3.org/1999/xlink" version="1.1">
<metadata>
Created by FontForge 20190801 at Fri Sep  4 16:15:08 2015
 By Jimmy Wärting
Copyright 2014 Adobe Systems Incorporated. All Rights Reserved.
</metadata>
<defs>
<font id="AcuminPro-Semibold" horiz-adv-x="400" >
  <font-face 
    font-family="Acumin Pro"
    font-weight="600"
    font-stretch="normal"
    units-per-em="1000"
    panose-1="2 11 7 4 2 2 2 2 2 4"
    ascent="735"
    descent="-265"
    x-height="514"
    cap-height="692"
    bbox="-203 -262 1269 1049"
    underline-thickness="50"
    underline-position="-100"
    stemh="107"
    stemv="124"
    unicode-range="U+0020-FB02"
  />
<missing-glyph horiz-adv-x="500" 
d="M0 0v700h500v-700h-500zM250 395l170 255h-340zM280 350l170 -255v510zM80 50h340l-170 255zM50 605v-510l170 255z" />
    <glyph glyph-name="f_f" unicode="ff" horiz-adv-x="606" 
d="M378 419h-168v-419h-124v419h-78v95h78v51c0 103 41 176 161 176c22 0 42 -2 55 -7v-98c-12 3 -24 5 -36 5c-42 0 -56 -28 -56 -77v-50h168v51c0 103 43 176 161 176c22 0 42 -2 55 -7v-98c-12 3 -24 5 -36 5c-42 0 -56 -28 -56 -77v-50h94v-95h-94v-419h-124v419z" />
    <glyph glyph-name=".notdef" horiz-adv-x="500" 
d="M0 0v700h500v-700h-500zM250 395l170 255h-340zM280 350l170 -255v510zM80 50h340l-170 255zM50 605v-510l170 255z" />
    <glyph glyph-name="space" unicode=" " horiz-adv-x="246" 
 />
    <glyph glyph-name="A" unicode="A" horiz-adv-x="678" 
d="M464 176h-261l-61 -176h-128l239 692h162l249 -692h-137zM232 284h202c-54 158 -87 252 -104 311h-1c-17 -65 -53 -176 -97 -311z" />
    <glyph glyph-name="B" unicode="B" horiz-adv-x="665" 
d="M85 0v692h290c160 0 225 -84 225 -176c0 -79 -43 -130 -92 -150c47 -17 113 -66 113 -160c0 -123 -96 -206 -237 -206h-299zM213 414h145c81 0 113 34 113 89s-40 87 -106 87h-152v-176zM213 312v-210h147c83 0 128 36 128 107c0 62 -41 103 -135 103h-140z" />
    <glyph glyph-name="C" unicode="C" horiz-adv-x="703" 
d="M529 207h130c-29 -125 -123 -216 -290 -216c-215 0 -319 155 -319 352c0 189 106 359 325 359c176 0 265 -103 284 -219h-130c-18 61 -60 115 -159 115c-133 0 -186 -120 -186 -251c0 -123 48 -253 190 -253c101 0 137 64 155 113z" />
    <glyph glyph-name="D" unicode="D" horiz-adv-x="731" 
d="M85 0v692h265c199 0 331 -133 331 -338c0 -203 -128 -354 -336 -354h-260zM215 586v-480h124c143 0 208 105 208 247c0 121 -61 233 -208 233h-124z" />
    <glyph glyph-name="E" unicode="E" horiz-adv-x="611" 
d="M547 414v-107h-335v-200h369l-16 -107h-480v692h477v-108h-350v-170h335z" />
    <glyph glyph-name="F" unicode="F" horiz-adv-x="580" 
d="M85 0v692h470v-108h-343v-188h321v-108h-321v-288h-127z" />
    <glyph glyph-name="G" unicode="G" horiz-adv-x="743" 
d="M673 382v-382h-96c-5 19 -9 45 -11 77c-35 -51 -100 -88 -206 -88c-200 0 -310 152 -310 349c0 207 118 364 333 364c172 0 275 -96 293 -216h-129c-18 57 -61 112 -166 112c-148 0 -197 -122 -197 -254c0 -128 53 -250 196 -250c137 0 166 94 166 174v7h-166v107h293z
" />
    <glyph glyph-name="H" unicode="H" horiz-adv-x="737" 
d="M85 0v692h130v-277h307v277h129v-692h-129v308h-307v-308h-130z" />
    <glyph glyph-name="I" unicode="I" horiz-adv-x="300" 
d="M85 692h130v-692h-130v692z" />
    <glyph glyph-name="J" unicode="J" horiz-adv-x="391" 
d="M310 692v-477c0 -158 -55 -225 -194 -225c-26 0 -64 2 -87 8v104c13 -2 46 -4 67 -4c74 0 85 51 85 109v485h129z" />
    <glyph glyph-name="K" unicode="K" horiz-adv-x="663" 
d="M85 0v692h129v-320c47 54 201 216 296 320h157l-285 -289l296 -403h-156l-230 319l-78 -74v-245h-129z" />
    <glyph glyph-name="L" unicode="L" horiz-adv-x="578" 
d="M85 0v692h130v-585h350l-15 -107h-465z" />
    <glyph glyph-name="M" unicode="M" horiz-adv-x="880" 
d="M669 0v272c0 121 2 253 5 329h-5c-31 -131 -115 -384 -186 -601h-112c-53 185 -140 472 -171 603h-4c6 -81 9 -227 9 -346v-257h-120v692h193c63 -193 136 -437 157 -535h2c16 83 105 346 171 535h186v-692h-125z" />
    <glyph glyph-name="N" unicode="N" horiz-adv-x="751" 
d="M205 0h-120v692h164c91 -158 270 -460 304 -535h1c-7 78 -7 194 -7 307v228h119v-692h-154c-81 140 -274 479 -312 558h-1c5 -67 6 -200 6 -325v-233z" />
    <glyph glyph-name="O" unicode="O" horiz-adv-x="760" 
d="M385 702c200 0 326 -144 326 -353c0 -192 -113 -359 -335 -359c-213 0 -326 158 -326 356c0 200 122 356 335 356zM379 595c-136 0 -195 -107 -195 -246c0 -140 65 -252 197 -252c142 0 195 118 195 250c0 137 -60 248 -197 248z" />
    <glyph glyph-name="P" unicode="P" horiz-adv-x="645" 
d="M85 0v692h278c143 0 240 -80 240 -210c0 -145 -108 -215 -244 -215h-144v-267h-130zM215 587v-215h130c78 0 127 33 127 107c0 76 -54 108 -123 108h-134z" />
    <glyph glyph-name="Q" unicode="Q" horiz-adv-x="763" 
d="M385 702c200 0 326 -144 326 -353c0 -110 -37 -212 -111 -279l160 -111l-76 -87l-194 135c-34 -11 -72 -17 -114 -17c-213 0 -326 158 -326 356c0 200 122 356 335 356zM379 595c-136 0 -195 -107 -195 -246c0 -140 65 -252 197 -252c142 0 195 118 195 250
c0 137 -60 248 -197 248z" />
    <glyph glyph-name="R" unicode="R" horiz-adv-x="655" 
d="M326 286h-113v-286h-128v692h293c148 0 227 -81 227 -189c0 -91 -51 -143 -107 -163c42 -13 93 -51 93 -174v-32c0 -47 0 -103 10 -134h-124c-12 30 -13 83 -13 153v12c0 83 -22 121 -138 121zM213 587v-196h134c90 0 126 34 126 99c0 62 -40 97 -121 97h-139z" />
    <glyph glyph-name="S" unicode="S" horiz-adv-x="625" 
d="M36 199h131c17 -74 69 -109 156 -109c89 0 126 38 126 94c0 60 -33 90 -159 119c-179 43 -229 107 -229 202c0 114 85 197 246 197c177 0 248 -98 258 -195h-131c-9 49 -38 96 -131 96c-69 0 -109 -29 -109 -84c0 -54 33 -76 148 -103c199 -47 240 -123 240 -217
c0 -121 -91 -208 -269 -208c-175 0 -261 89 -277 208z" />
    <glyph glyph-name="T" unicode="T" horiz-adv-x="578" 
d="M224 0v584h-214v108h558v-108h-214v-584h-130z" />
    <glyph glyph-name="U" unicode="U" horiz-adv-x="722" 
d="M77 692h130v-414c0 -143 76 -184 155 -184c92 0 153 47 153 184v414h130v-407c0 -233 -134 -294 -285 -294c-152 0 -283 65 -283 290v411z" />
    <glyph glyph-name="V" unicode="V" horiz-adv-x="661" 
d="M403 0h-153l-246 692h139l109 -329c33 -98 61 -187 76 -255h2c15 62 46 154 80 253l114 331h133z" />
    <glyph glyph-name="W" unicode="W" horiz-adv-x="946" 
d="M334 0h-136l-179 692h138c61 -287 106 -478 116 -555h1c23 114 100 384 142 555h119c37 -141 116 -437 136 -549h1c22 141 100 429 129 549h127l-193 -692h-135c-38 155 -109 415 -131 522h-1c-23 -117 -95 -376 -134 -522z" />
    <glyph glyph-name="X" unicode="X" horiz-adv-x="599" 
d="M607 0h-150l-160 258h-1l-163 -258h-141l231 349l-224 343h151l152 -243h1l156 243h139l-225 -331z" />
    <glyph glyph-name="Y" unicode="Y" horiz-adv-x="610" 
d="M368 0h-130v248c0 7 -2 14 -6 21l-240 423h147c57 -107 137 -260 170 -330c30 68 115 225 172 330h137l-245 -423c-3 -4 -5 -8 -5 -20v-249z" />
    <glyph glyph-name="Z" unicode="Z" horiz-adv-x="610" 
d="M30 0v96l393 488h-375v108h523v-106l-383 -479h401l-17 -107h-542z" />
    <glyph glyph-name="a" unicode="a" horiz-adv-x="549" 
d="M480 352v-226c0 -48 4 -113 7 -126h-119c-4 11 -7 37 -8 56c-18 -31 -55 -68 -149 -68c-123 0 -175 81 -175 160c0 116 93 170 244 170h78v35c0 40 -13 82 -90 82c-68 0 -82 -31 -89 -69h-119c7 84 60 161 213 160c134 -1 207 -54 207 -174zM359 225v15h-67
c-91 0 -131 -27 -131 -85c0 -42 28 -76 83 -76c102 0 115 70 115 146z" />
    <glyph glyph-name="b" unicode="b" horiz-adv-x="591" 
d="M68 170v561h124v-278c22 37 66 73 153 73c136 0 210 -112 210 -259c0 -151 -77 -279 -224 -279c-78 0 -115 26 -140 67c0 -20 -3 -42 -5 -55h-119c1 56 1 113 1 170zM428 264c0 94 -38 161 -119 161c-90 0 -123 -60 -123 -170c0 -94 29 -167 121 -167
c78 0 121 70 121 176z" />
    <glyph glyph-name="c" unicode="c" horiz-adv-x="527" 
d="M377 163h123c-19 -86 -79 -175 -225 -175c-154 0 -238 108 -238 266c0 149 89 272 245 272c164 0 214 -118 218 -179h-122c-10 46 -37 80 -99 80c-74 0 -115 -64 -115 -169c0 -112 42 -172 114 -172c54 0 84 31 99 77z" />
    <glyph glyph-name="d" unicode="d" horiz-adv-x="591" 
d="M401 731h124v-588c0 -48 0 -95 1 -143h-120c-2 15 -5 46 -5 60c-25 -45 -72 -72 -152 -72c-130 0 -213 105 -213 264s88 274 233 274c79 0 119 -30 132 -55v260zM164 256c0 -108 46 -167 120 -167c105 0 121 84 121 171c0 97 -16 165 -117 165c-80 0 -124 -63 -124 -169z
" />
    <glyph glyph-name="e" unicode="e" horiz-adv-x="544" 
d="M508 231h-347c0 -77 39 -144 116 -144c66 0 87 30 101 63h125c-19 -64 -75 -162 -230 -162c-166 0 -237 128 -237 262c0 159 81 276 243 276c173 0 231 -129 231 -251c0 -17 0 -29 -2 -44zM164 310h221c-1 69 -31 125 -107 125s-107 -52 -114 -125z" />
    <glyph glyph-name="f" unicode="f" horiz-adv-x="313" 
d="M210 0h-124v419h-78v95h78v51c0 102 47 176 159 176c22 0 50 -2 63 -6v-100c-9 2 -23 4 -35 4c-46 0 -63 -21 -63 -83v-42h94v-95h-94v-419z" />
    <glyph glyph-name="g" unicode="g" horiz-adv-x="587" 
d="M521 366v-309c0 -165 -64 -266 -249 -266c-177 0 -218 99 -224 161h126c12 -42 45 -68 103 -68c101 0 122 62 122 169v30c-27 -49 -71 -78 -150 -78c-132 0 -213 108 -213 251c0 163 97 270 224 270c92 0 130 -43 139 -70c1 17 4 49 5 58h118c-1 -40 -1 -98 -1 -148z
M164 261c0 -95 49 -155 119 -155c94 0 120 65 120 160c0 97 -20 159 -117 159c-73 0 -122 -58 -122 -164z" />
    <glyph glyph-name="h" unicode="h" horiz-adv-x="584" 
d="M68 731h124v-283c24 38 67 78 152 78c91 0 172 -53 172 -197v-329h-123v310c0 74 -28 114 -93 114c-84 0 -108 -60 -108 -148v-276h-124v731z" />
    <glyph glyph-name="i" unicode="i" horiz-adv-x="260" 
d="M68 0v514h124v-514h-124zM192 610h-124v121h124v-121z" />
    <glyph glyph-name="j" unicode="j" horiz-adv-x="260" 
d="M68 514h124v-513c0 -145 -30 -210 -162 -210c-10 0 -29 1 -40 2v101h15c51 0 63 22 63 83v537zM192 610h-124v121h124v-121z" />
    <glyph glyph-name="k" unicode="k" horiz-adv-x="539" 
d="M192 731v-443c40 51 123 144 194 226h144l-184 -196l202 -318h-142l-144 238l-70 -67v-171h-124v731h124z" />
    <glyph glyph-name="l" unicode="l" horiz-adv-x="260" 
d="M192 0h-124v731h124v-731z" />
    <glyph glyph-name="m" unicode="m" horiz-adv-x="863" 
d="M68 0v382c0 44 0 89 -1 132h119c2 -13 4 -45 5 -67c25 41 68 79 145 79c73 0 117 -38 136 -83c29 44 75 83 160 83c88 0 163 -53 163 -189v-337h-122v322c0 51 -18 103 -84 103c-68 0 -96 -48 -96 -131v-294h-122v318c0 57 -15 106 -82 106s-98 -46 -98 -138v-286h-123z
" />
    <glyph glyph-name="n" unicode="n" horiz-adv-x="584" 
d="M69 0v385c0 44 0 90 -1 129h120c3 -14 5 -56 5 -72c18 36 60 84 153 84c101 0 171 -66 171 -198v-328h-124v314c0 64 -23 110 -91 110c-73 0 -109 -47 -109 -142v-282h-124z" />
    <glyph glyph-name="o" unicode="o" horiz-adv-x="570" 
d="M289 526c149 0 245 -107 245 -268c0 -153 -90 -270 -251 -270c-156 0 -247 114 -247 268c0 156 93 270 253 270zM284 427c-76 0 -122 -58 -122 -170c0 -104 47 -170 124 -170c78 0 121 65 121 169c0 111 -43 171 -123 171z" />
    <glyph glyph-name="p" unicode="p" horiz-adv-x="588" 
d="M192 -199h-124v589c0 41 0 83 -1 124h120c2 -15 5 -46 5 -70c24 43 72 82 155 82c117 0 205 -98 205 -256c0 -182 -99 -282 -224 -282c-76 0 -116 30 -136 64v-251zM426 265c0 99 -42 160 -117 160c-89 0 -123 -57 -123 -168c0 -106 30 -169 117 -169
c81 0 123 65 123 177z" />
    <glyph glyph-name="q" unicode="q" horiz-adv-x="589" 
d="M401 -199v260c-28 -49 -75 -73 -150 -73c-115 0 -215 88 -215 264c0 168 100 274 227 274c87 0 126 -37 138 -66c0 15 2 39 4 54h117c0 -46 -1 -94 -1 -141v-572h-120zM164 256c0 -96 37 -167 120 -167c95 0 119 68 119 170c0 106 -23 166 -117 166
c-82 0 -122 -69 -122 -169z" />
    <glyph glyph-name="r" unicode="r" horiz-adv-x="380" 
d="M68 0v375c0 58 0 101 -1 139h122c2 -12 3 -60 3 -95c24 62 81 106 168 107v-120c-104 1 -168 -36 -168 -173v-233h-124z" />
    <glyph glyph-name="s" unicode="s" horiz-adv-x="501" 
d="M30 152h122c12 -46 48 -72 107 -72c60 0 83 23 83 59c0 39 -23 55 -104 75c-161 39 -189 89 -189 160c0 75 53 152 200 152c148 0 202 -82 207 -153h-119c-5 24 -22 64 -93 64c-56 0 -73 -26 -73 -53c0 -29 18 -44 105 -65c166 -38 193 -95 193 -171
c0 -86 -67 -160 -214 -160c-149 0 -213 73 -225 164z" />
    <glyph glyph-name="t" unicode="t" horiz-adv-x="348" 
d="M13 419v95h82v143h124v-143h105v-95h-105v-270c0 -43 12 -61 56 -61c10 0 25 0 37 2v-87c-26 -9 -62 -10 -90 -10c-93 0 -127 50 -127 138v288h-82z" />
    <glyph glyph-name="u" unicode="u" horiz-adv-x="575" 
d="M507 514v-364c0 -50 0 -109 1 -150h-121c-2 14 -3 43 -4 65c-29 -53 -76 -77 -146 -77c-99 0 -171 57 -171 190v336h124v-311c0 -60 18 -112 88 -112c75 0 105 41 105 151v272h124z" />
    <glyph glyph-name="v" unicode="v" horiz-adv-x="509" 
d="M8 514h134c56 -186 100 -340 112 -403h1c14 76 65 230 121 403h124l-184 -514h-132z" />
    <glyph glyph-name="w" unicode="w" horiz-adv-x="791" 
d="M20 514h131c52 -218 81 -342 91 -402h1c10 54 32 150 99 402h117c65 -266 85 -343 92 -396h1c12 54 29 131 96 396h124l-155 -514h-133c-45 192 -78 319 -89 383h-1c-9 -62 -43 -192 -93 -383h-134z" />
    <glyph glyph-name="x" unicode="x" horiz-adv-x="481" 
d="M1 514h138c60 -103 85 -144 101 -172h1c19 32 54 92 103 172h138l-169 -245l169 -269h-141c-52 92 -86 152 -103 183h-1c-14 -28 -52 -95 -102 -183h-137l164 253z" />
    <glyph glyph-name="y" unicode="y" horiz-adv-x="506" 
d="M7 514h133c64 -201 110 -351 120 -401h1c13 54 45 170 114 401h124l-177 -532c-50 -149 -90 -191 -207 -191c-14 0 -40 1 -63 4v102c11 -1 26 -2 39 -2c56 0 82 21 105 88z" />
    <glyph glyph-name="z" unicode="z" horiz-adv-x="477" 
d="M28 0v95l269 320h-255v99h395v-98l-263 -316h280l-16 -100h-410z" />
    <glyph glyph-name="Agrave" unicode="&#xc0;" horiz-adv-x="678" 
d="M464 176h-261l-61 -176h-128l239 692h162l249 -692h-137zM232 284h202c-54 158 -87 252 -104 311h-1c-17 -65 -53 -176 -97 -311zM112 890h156l128 -139h-117z" />
    <glyph glyph-name="Aacute" unicode="&#xc1;" horiz-adv-x="678" 
d="M464 176h-261l-61 -176h-128l239 692h162l249 -692h-137zM232 284h202c-54 158 -87 252 -104 311h-1c-17 -65 -53 -176 -97 -311zM410 890h154l-175 -139h-119z" />
    <glyph glyph-name="Acircumflex" unicode="&#xc2;" horiz-adv-x="678" 
d="M464 176h-261l-61 -176h-128l239 692h162l249 -692h-137zM232 284h202c-54 158 -87 252 -104 311h-1c-17 -65 -53 -176 -97 -311zM274 887h124l128 -136h-118l-73 75l-74 -75h-119z" />
    <glyph glyph-name="Atilde" unicode="&#xc3;" horiz-adv-x="678" 
d="M464 176h-261l-61 -176h-128l239 692h162l249 -692h-137zM232 284h202c-54 158 -87 252 -104 311h-1c-17 -65 -53 -176 -97 -311zM240 760h-82v30c0 79 36 104 92 104c66 0 122 -48 156 -48c16 0 28 8 28 38v9h80v-23c0 -89 -36 -115 -95 -115c-55 0 -118 48 -153 48
c-15 0 -26 -8 -26 -28v-15z" />
    <glyph glyph-name="Adieresis" unicode="&#xc4;" horiz-adv-x="678" 
d="M464 176h-261l-61 -176h-128l239 692h162l249 -692h-137zM232 284h202c-54 158 -87 252 -104 311h-1c-17 -65 -53 -176 -97 -311zM288 763h-102v121h102v-121zM486 763h-102v121h102v-121z" />
    <glyph glyph-name="Amacron" unicode="&#x100;" horiz-adv-x="678" 
d="M464 176h-261l-61 -176h-128l239 692h162l249 -692h-137zM232 284h202c-54 158 -87 252 -104 311h-1c-17 -65 -53 -176 -97 -311zM188 856h298v-90h-298v90z" />
    <glyph glyph-name="Abreve" unicode="&#x102;" horiz-adv-x="678" 
d="M464 176h-261l-61 -176h-128l239 692h162l249 -692h-137zM232 284h202c-54 158 -87 252 -104 311h-1c-17 -65 -53 -176 -97 -311zM171 886h89c7 -35 34 -60 77 -60c51 0 72 29 78 60h88c-10 -72 -59 -141 -167 -141c-115 0 -159 74 -165 141z" />
    <glyph glyph-name="Aring" unicode="&#xc5;" horiz-adv-x="678" 
d="M464 176h-261l-61 -176h-128l239 692h162l249 -692h-137zM232 284h202c-54 158 -87 252 -104 311h-1c-17 -65 -53 -176 -97 -311zM334 728c-73 0 -117 44 -117 100s42 102 116 102s116 -43 116 -100c0 -59 -45 -102 -115 -102zM332 783c34 0 50 22 50 46
c0 23 -15 47 -49 47c-35 0 -49 -23 -49 -46s14 -47 48 -47z" />
    <glyph glyph-name="uni01CD" unicode="&#x1cd;" horiz-adv-x="678" 
d="M464 176h-261l-61 -176h-128l239 692h162l249 -692h-137zM232 284h202c-54 158 -87 252 -104 311h-1c-17 -65 -53 -176 -97 -311zM396 751h-119l-131 136h118l73 -75l74 75h119z" />
    <glyph glyph-name="uni1EA0" unicode="&#x1ea0;" horiz-adv-x="678" 
d="M464 176h-261l-61 -176h-128l239 692h162l249 -692h-137zM232 284h202c-54 158 -87 252 -104 311h-1c-17 -65 -53 -176 -97 -311zM403 -195h-129v129h129v-129z" />
    <glyph glyph-name="uni1EA2" unicode="&#x1ea2;" horiz-adv-x="678" 
d="M464 176h-261l-61 -176h-128l239 692h162l249 -692h-137zM232 284h202c-54 158 -87 252 -104 311h-1c-17 -65 -53 -176 -97 -311zM387 750h-101c37 34 52 53 52 80c0 17 -11 31 -37 31c-23 0 -37 -5 -55 -15l-25 69c25 16 59 31 110 31c72 0 112 -41 112 -93
c0 -48 -31 -81 -56 -103z" />
    <glyph glyph-name="uni1EA4" unicode="&#x1ea4;" horiz-adv-x="678" 
d="M464 176h-261l-61 -176h-128l239 692h162l249 -692h-137zM232 284h202c-54 158 -87 252 -104 311h-1c-17 -65 -53 -176 -97 -311zM273 879h126l133 -128h-128l-66 65l-63 -65h-128zM576 969h139l-138 -120h-102z" />
    <glyph glyph-name="uni1EA6" unicode="&#x1ea6;" horiz-adv-x="678" 
d="M464 176h-261l-61 -176h-128l239 692h162l249 -692h-137zM232 284h202c-54 158 -87 252 -104 311h-1c-17 -65 -53 -176 -97 -311zM273 879h126l133 -128h-128l-66 65l-63 -65h-128zM404 958h142l97 -114h-96z" />
    <glyph glyph-name="uni1EA8" unicode="&#x1ea8;" horiz-adv-x="678" 
d="M464 176h-261l-61 -176h-128l239 692h162l249 -692h-137zM232 284h202c-54 158 -87 252 -104 311h-1c-17 -65 -53 -176 -97 -311zM578 846h-91c35 28 49 52 49 73c0 14 -9 27 -34 27c-20 0 -38 -7 -56 -18l-23 58c21 17 56 35 104 35c62 0 99 -35 99 -84
c0 -40 -25 -72 -48 -91zM273 879h126l133 -128h-128l-66 67l-63 -67h-128z" />
    <glyph glyph-name="uni1EAA" unicode="&#x1eaa;" horiz-adv-x="678" 
d="M464 176h-261l-61 -176h-128l239 692h162l249 -692h-137zM232 284h202c-54 158 -87 252 -104 311h-1c-17 -65 -53 -176 -97 -311zM239 878h-69v11c0 70 35 95 85 95c64 0 115 -33 160 -33c15 0 26 4 26 24v7h68v-12c0 -71 -32 -93 -82 -93c-57 0 -122 33 -163 33
c-15 0 -25 -8 -25 -26v-6zM272 843h134l117 -102h-120l-65 53l-62 -53h-122z" />
    <glyph glyph-name="uni1EAC" unicode="&#x1eac;" horiz-adv-x="678" 
d="M464 176h-261l-61 -176h-128l239 692h162l249 -692h-137zM232 284h202c-54 158 -87 252 -104 311h-1c-17 -65 -53 -176 -97 -311zM403 -195h-129v129h129v-129zM276 880h124l128 -136h-118l-73 75l-74 -75h-119z" />
    <glyph glyph-name="uni1EAE" unicode="&#x1eae;" horiz-adv-x="678" 
d="M464 176h-261l-61 -176h-128l239 692h162l249 -692h-137zM232 284h202c-54 158 -87 252 -104 311h-1c-17 -65 -53 -176 -97 -311zM169 867h91c10 -26 35 -48 78 -48c50 0 69 25 79 48h91c-15 -62 -60 -126 -171 -127c-121 0 -160 78 -168 127zM381 995h149l-143 -102
h-107z" />
    <glyph glyph-name="uni1EB0" unicode="&#x1eb0;" horiz-adv-x="678" 
d="M464 176h-261l-61 -176h-128l239 692h162l249 -692h-137zM232 284h202c-54 158 -87 252 -104 311h-1c-17 -65 -53 -176 -97 -311zM169 867h91c10 -26 35 -48 78 -48c50 0 69 25 79 48h91c-15 -62 -60 -127 -171 -127c-121 0 -160 78 -168 127zM152 995h149l100 -102h-109
z" />
    <glyph glyph-name="uni1EB2" unicode="&#x1eb2;" horiz-adv-x="678" 
d="M464 176h-261l-61 -176h-128l239 692h162l249 -692h-137zM232 284h202c-54 158 -87 252 -104 311h-1c-17 -65 -53 -176 -97 -311zM379 884h-90c34 27 50 46 50 67c0 14 -10 26 -33 26c-20 0 -37 -7 -53 -16l-24 56c20 16 54 32 101 32c61 0 95 -33 95 -81
c0 -40 -24 -66 -46 -84zM169 867h90c11 -26 34 -48 78 -48c51 0 69 25 79 48h92c-20 -63 -60 -127 -171 -127c-121 0 -161 79 -168 127z" />
    <glyph glyph-name="uni1EB4" unicode="&#x1eb4;" horiz-adv-x="678" 
d="M464 176h-261l-61 -176h-128l239 692h162l249 -692h-137zM232 284h202c-54 158 -87 252 -104 311h-1c-17 -65 -53 -176 -97 -311zM238 885h-69v10c0 70 35 95 85 95c64 0 115 -33 160 -33c15 0 26 4 26 25v7h68v-13c0 -70 -32 -92 -82 -92c-57 0 -122 33 -163 33
c-15 0 -25 -8 -25 -27v-5zM167 844h92c10 -19 35 -39 78 -39c50 0 70 18 78 39h91c-14 -52 -56 -108 -170 -108c-115 0 -156 62 -169 108z" />
    <glyph glyph-name="uni1EB6" unicode="&#x1eb6;" horiz-adv-x="678" 
d="M464 176h-261l-61 -176h-128l239 692h162l249 -692h-137zM232 284h202c-54 158 -87 252 -104 311h-1c-17 -65 -53 -176 -97 -311zM403 -195h-129v129h129v-129zM171 886h89c7 -35 34 -60 77 -60c51 0 72 29 78 60h88c-10 -72 -59 -141 -167 -141c-115 0 -159 74 -165 141
z" />
    <glyph glyph-name="Aogonek" unicode="&#x104;" horiz-adv-x="678" 
d="M464 176h-261l-61 -176h-128l239 692h162l249 -692h-10c-36 -28 -63 -60 -63 -95c0 -30 21 -46 52 -46c23 0 37 2 50 6v-87c-23 -11 -53 -15 -86 -15c-78 0 -126 41 -126 114c0 49 28 92 60 123h-14zM232 284h202c-54 158 -87 252 -104 311h-1c-17 -65 -53 -176 -97 -311
z" />
    <glyph glyph-name="AE" unicode="&#xc6;" horiz-adv-x="982" 
d="M387 692h546v-109h-350v-168h335v-108h-335v-198h369l-16 -109h-480v210h-222l-125 -210h-137zM292 319h164v275h-2z" />
    <glyph glyph-name="Ccedilla" unicode="&#xc7;" horiz-adv-x="703" 
d="M529 207h130c-25 -110 -101 -193 -232 -212l-38 -43c35 -8 90 -28 90 -94c0 -84 -78 -102 -135 -102c-32 0 -60 5 -74 11v70c14 -4 47 -7 59 -7c35 0 47 9 47 28c0 31 -46 37 -92 38v32l52 64c-192 15 -286 164 -286 351c0 189 106 359 325 359c176 0 265 -103 284 -219
h-130c-18 61 -60 115 -159 115c-133 0 -186 -120 -186 -251c0 -123 48 -253 190 -253c101 0 137 64 155 113z" />
    <glyph glyph-name="Cacute" unicode="&#x106;" horiz-adv-x="703" 
d="M529 207h130c-29 -125 -123 -216 -290 -216c-215 0 -319 155 -319 352c0 189 106 359 325 359c176 0 265 -103 284 -219h-130c-18 61 -60 115 -159 115c-133 0 -186 -120 -186 -251c0 -123 48 -253 190 -253c101 0 137 64 155 113zM428 893h154l-175 -139h-119z" />
    <glyph glyph-name="Ccircumflex" unicode="&#x108;" horiz-adv-x="703" 
d="M529 207h130c-29 -125 -123 -216 -290 -216c-215 0 -319 155 -319 352c0 189 106 359 325 359c176 0 265 -103 284 -219h-130c-18 61 -60 115 -159 115c-133 0 -186 -120 -186 -251c0 -123 48 -253 190 -253c101 0 137 64 155 113zM305 888h124l128 -136h-118l-73 75
l-74 -75h-119z" />
    <glyph glyph-name="Ccaron" unicode="&#x10c;" horiz-adv-x="703" 
d="M529 207h130c-29 -125 -123 -216 -290 -216c-215 0 -319 155 -319 352c0 189 106 359 325 359c176 0 265 -103 284 -219h-130c-18 61 -60 115 -159 115c-133 0 -186 -120 -186 -251c0 -123 48 -253 190 -253c101 0 137 64 155 113zM432 752h-119l-131 136h118l73 -75
l74 75h119z" />
    <glyph glyph-name="Cdotaccent" unicode="&#x10a;" horiz-adv-x="703" 
d="M529 207h130c-29 -125 -123 -216 -290 -216c-215 0 -319 155 -319 352c0 189 106 359 325 359c176 0 265 -103 284 -219h-130c-18 61 -60 115 -159 115c-133 0 -186 -120 -186 -251c0 -123 48 -253 190 -253c101 0 137 64 155 113zM427 771h-124v121h124v-121z" />
    <glyph glyph-name="Dcaron" unicode="&#x10e;" horiz-adv-x="731" 
d="M85 0v692h265c199 0 331 -133 331 -338c0 -203 -128 -354 -336 -354h-260zM215 586v-480h124c143 0 208 105 208 247c0 121 -61 233 -208 233h-124zM390 753h-119l-131 136h118l73 -75l74 75h119z" />
    <glyph glyph-name="uni1E0C" unicode="&#x1e0c;" horiz-adv-x="731" 
d="M85 0v692h265c199 0 331 -133 331 -338c0 -203 -128 -354 -336 -354h-260zM215 586v-480h124c143 0 208 105 208 247c0 121 -61 233 -208 233h-124zM406 -195h-129v129h129v-129z" />
    <glyph glyph-name="uni1E0E" unicode="&#x1e0e;" horiz-adv-x="731" 
d="M85 0v692h265c199 0 331 -133 331 -338c0 -203 -128 -354 -336 -354h-260zM215 586v-480h124c143 0 208 105 208 247c0 121 -61 233 -208 233h-124zM196 -83h292v-94h-292v94z" />
    <glyph glyph-name="Dcroat" unicode="&#x110;" horiz-adv-x="740" 
d="M17 401h78v291h265c199 0 331 -133 331 -338c0 -203 -128 -354 -336 -354h-260v310h-78v91zM225 586v-185h158v-91h-158v-204h124c143 0 208 105 208 247c0 121 -61 233 -208 233h-124z" />
    <glyph glyph-name="Egrave" unicode="&#xc8;" horiz-adv-x="611" 
d="M547 414v-107h-335v-200h369l-16 -107h-480v692h477v-108h-350v-170h335zM118 895h156l128 -139h-117z" />
    <glyph glyph-name="Eacute" unicode="&#xc9;" horiz-adv-x="611" 
d="M547 414v-107h-335v-200h369l-16 -107h-480v692h477v-108h-350v-170h335zM395 894h154l-175 -139h-119z" />
    <glyph glyph-name="Ecircumflex" unicode="&#xca;" horiz-adv-x="611" 
d="M547 414v-107h-335v-200h369l-16 -107h-480v692h477v-108h-350v-170h335zM265 890h124l128 -136h-118l-73 75l-74 -75h-119z" />
    <glyph glyph-name="Ecaron" unicode="&#x11a;" horiz-adv-x="611" 
d="M547 414v-107h-335v-200h369l-16 -107h-480v692h477v-108h-350v-170h335zM383 751h-119l-131 136h118l73 -75l74 75h119z" />
    <glyph glyph-name="Edieresis" unicode="&#xcb;" horiz-adv-x="611" 
d="M547 414v-107h-335v-200h369l-16 -107h-480v692h477v-108h-350v-170h335zM277 765h-102v121h102v-121zM475 765h-102v121h102v-121z" />
    <glyph glyph-name="Emacron" unicode="&#x112;" horiz-adv-x="611" 
d="M547 414v-107h-335v-200h369l-16 -107h-480v692h477v-108h-350v-170h335zM177 862h298v-90h-298v90z" />
    <glyph glyph-name="Ebreve" unicode="&#x114;" horiz-adv-x="611" 
d="M547 414v-107h-335v-200h369l-16 -107h-480v692h477v-108h-350v-170h335zM161 888h89c7 -35 34 -60 77 -60c51 0 72 29 78 60h88c-10 -72 -59 -141 -167 -141c-115 0 -159 74 -165 141z" />
    <glyph glyph-name="Edotaccent" unicode="&#x116;" horiz-adv-x="611" 
d="M547 414v-107h-335v-200h369l-16 -107h-480v692h477v-108h-350v-170h335zM387 765h-124v121h124v-121z" />
    <glyph glyph-name="uni1EB8" unicode="&#x1eb8;" horiz-adv-x="611" 
d="M547 414v-107h-335v-200h369l-16 -107h-480v692h477v-108h-350v-170h335zM392 -195h-129v129h129v-129z" />
    <glyph glyph-name="uni1EBA" unicode="&#x1eba;" horiz-adv-x="611" 
d="M547 414v-107h-335v-200h369l-16 -107h-480v692h477v-108h-350v-170h335zM381 751h-101c37 34 52 53 52 80c0 17 -11 31 -37 31c-23 0 -37 -5 -55 -15l-25 69c25 16 59 31 110 31c72 0 112 -41 112 -93c0 -48 -31 -81 -56 -103z" />
    <glyph glyph-name="uni1EBC" unicode="&#x1ebc;" horiz-adv-x="611" 
d="M547 414v-107h-335v-200h369l-16 -107h-480v692h477v-108h-350v-170h335zM229 765h-82v30c0 79 36 104 92 104c66 0 122 -48 156 -48c16 0 28 8 28 38v9h80v-23c0 -89 -36 -115 -95 -115c-55 0 -118 48 -153 48c-15 0 -26 -8 -26 -28v-15z" />
    <glyph glyph-name="uni1EBE" unicode="&#x1ebe;" horiz-adv-x="611" 
d="M547 414v-107h-335v-200h369l-16 -107h-480v692h477v-108h-350v-170h335zM258 880h126l133 -128h-128l-66 65l-63 -65h-128zM561 970h139l-138 -120h-102z" />
    <glyph glyph-name="uni1EC0" unicode="&#x1ec0;" horiz-adv-x="611" 
d="M547 414v-107h-335v-200h369l-16 -107h-480v692h477v-108h-350v-170h335zM258 881h126l133 -128h-128l-66 65l-63 -65h-128zM389 960h142l97 -114h-96z" />
    <glyph glyph-name="uni1EC2" unicode="&#x1ec2;" horiz-adv-x="611" 
d="M547 414v-107h-335v-200h369l-16 -107h-480v692h477v-108h-350v-170h335zM561 848h-91c35 28 49 52 49 73c0 14 -9 27 -34 27c-20 0 -38 -7 -56 -18l-23 58c21 17 56 35 104 35c62 0 99 -35 99 -84c0 -40 -25 -72 -48 -91zM256 881h126l133 -128h-128l-66 67l-63 -67
h-128z" />
    <glyph glyph-name="uni1EC4" unicode="&#x1ec4;" horiz-adv-x="611" 
d="M547 414v-107h-335v-200h369l-16 -107h-480v692h477v-108h-350v-170h335zM224 882h-69v11c0 70 35 95 85 95c64 0 115 -33 160 -33c15 0 26 4 26 24v7h68v-12c0 -71 -32 -93 -82 -93c-57 0 -122 33 -163 33c-15 0 -25 -8 -25 -26v-6zM257 847h134l117 -102h-120l-65 53
l-62 -53h-122z" />
    <glyph glyph-name="uni1EC6" unicode="&#x1ec6;" horiz-adv-x="611" 
d="M547 414v-107h-335v-200h369l-16 -107h-480v692h477v-108h-350v-170h335zM396 -195h-129v129h129v-129zM261 889h124l128 -136h-118l-73 75l-74 -75h-119z" />
    <glyph glyph-name="Eogonek" unicode="&#x118;" horiz-adv-x="611" 
d="M547 414v-107h-335v-200h369l-16 -107h-30c-36 -28 -63 -60 -63 -95c0 -30 21 -46 52 -46c23 0 37 2 50 6v-87c-23 -11 -53 -15 -86 -15c-78 0 -126 41 -126 114c0 49 28 92 60 123h-337v692h477v-108h-350v-170h335z" />
    <glyph glyph-name="Gcircumflex" unicode="&#x11c;" horiz-adv-x="743" 
d="M673 382v-382h-96c-5 19 -9 45 -11 77c-35 -51 -100 -88 -206 -88c-200 0 -310 152 -310 349c0 207 118 364 333 364c172 0 275 -96 293 -216h-129c-18 57 -61 112 -166 112c-148 0 -197 -122 -197 -254c0 -128 53 -250 196 -250c137 0 166 94 166 174v7h-166v107h293z
M314 887h124l128 -136h-118l-73 75l-74 -75h-119z" />
    <glyph glyph-name="Gbreve" unicode="&#x11e;" horiz-adv-x="743" 
d="M673 382v-382h-96c-5 19 -9 45 -11 77c-35 -51 -100 -88 -206 -88c-200 0 -310 152 -310 349c0 207 118 364 333 364c172 0 275 -96 293 -216h-129c-18 57 -61 112 -166 112c-148 0 -197 -122 -197 -254c0 -128 53 -250 196 -250c137 0 166 94 166 174v7h-166v107h293z
M209 895h89c7 -35 34 -60 77 -60c51 0 72 29 78 60h88c-10 -72 -59 -141 -167 -141c-115 0 -159 74 -165 141z" />
    <glyph glyph-name="Gdotaccent" unicode="&#x120;" horiz-adv-x="743" 
d="M673 382v-382h-96c-5 19 -9 45 -11 77c-35 -51 -100 -88 -206 -88c-200 0 -310 152 -310 349c0 207 118 364 333 364c172 0 275 -96 293 -216h-129c-18 57 -61 112 -166 112c-148 0 -197 -122 -197 -254c0 -128 53 -250 196 -250c137 0 166 94 166 174v7h-166v107h293z
M436 762h-124v121h124v-121z" />
    <glyph glyph-name="uni0122" unicode="&#x122;" horiz-adv-x="743" 
d="M673 382v-382h-96c-5 19 -9 45 -11 77c-35 -51 -100 -88 -206 -88c-200 0 -310 152 -310 349c0 207 118 364 333 364c172 0 275 -96 293 -216h-129c-18 57 -61 112 -166 112c-148 0 -197 -122 -197 -254c0 -128 53 -250 196 -250c137 0 166 94 166 174v7h-166v107h293z
M377 -258h-99c30 68 51 146 55 207h124c-6 -70 -42 -165 -80 -207z" />
    <glyph glyph-name="Gcaron" unicode="&#x1e6;" horiz-adv-x="743" 
d="M673 382v-382h-96c-5 19 -9 45 -11 77c-35 -51 -100 -88 -206 -88c-200 0 -310 152 -310 349c0 207 118 364 333 364c172 0 275 -96 293 -216h-129c-18 57 -61 112 -166 112c-148 0 -197 -122 -197 -254c0 -128 53 -250 196 -250c137 0 166 94 166 174v7h-166v107h293z
M432 754h-119l-131 136h118l73 -75l74 75h119z" />
    <glyph glyph-name="uni1E20" unicode="&#x1e20;" horiz-adv-x="743" 
d="M673 382v-382h-96c-5 19 -9 45 -11 77c-35 -51 -100 -88 -206 -88c-200 0 -310 152 -310 349c0 207 118 364 333 364c172 0 275 -96 293 -216h-129c-18 57 -61 112 -166 112c-148 0 -197 -122 -197 -254c0 -128 53 -250 196 -250c137 0 166 94 166 174v7h-166v107h293z
M225 862h298v-90h-298v90z" />
    <glyph glyph-name="uni00470303" horiz-adv-x="743" 
d="M673 382v-382h-96c-5 19 -9 45 -11 77c-35 -51 -100 -88 -206 -88c-200 0 -310 152 -310 349c0 207 118 364 333 364c172 0 275 -96 293 -216h-129c-18 57 -61 112 -166 112c-148 0 -197 -122 -197 -254c0 -128 53 -250 196 -250c137 0 166 94 166 174v7h-166v107h293z
M275 760h-82v30c0 79 36 104 92 104c66 0 122 -48 156 -48c16 0 28 8 28 38v9h80v-23c0 -89 -36 -115 -95 -115c-55 0 -118 48 -153 48c-15 0 -26 -8 -26 -28v-15z" />
    <glyph glyph-name="Hcircumflex" unicode="&#x124;" horiz-adv-x="737" 
d="M85 0v692h130v-277h307v277h129v-692h-129v308h-307v-308h-130zM308 887h124l128 -136h-118l-73 75l-74 -75h-119z" />
    <glyph glyph-name="uni1E24" unicode="&#x1e24;" horiz-adv-x="737" 
d="M85 0v692h130v-277h307v277h129v-692h-129v308h-307v-308h-130zM432 -195h-129v129h129v-129z" />
    <glyph glyph-name="uni1E2A" unicode="&#x1e2a;" horiz-adv-x="737" 
d="M85 0v692h130v-277h307v277h129v-692h-129v308h-307v-308h-130zM213 -55h87c8 -32 27 -58 68 -58c48 0 60 28 68 58h86c-10 -76 -55 -144 -156 -144c-106 0 -148 73 -153 144z" />
    <glyph glyph-name="Hbar" unicode="&#x126;" horiz-adv-x="737" 
d="M23 595h62v97h130v-97h307v97h129v-97h63v-89h-63v-506h-129v308h-307v-308h-130v506h-62v89zM215 415h307v91h-307v-91z" />
    <glyph glyph-name="Igrave" unicode="&#xcc;" horiz-adv-x="300" 
d="M85 692h130v-692h-130v692zM-71 892h156l128 -139h-117z" />
    <glyph glyph-name="Iacute" unicode="&#xcd;" horiz-adv-x="300" 
d="M85 692h130v-692h-130v692zM227 890h154l-175 -139h-119z" />
    <glyph glyph-name="Icircumflex" unicode="&#xce;" horiz-adv-x="300" 
d="M85 692h130v-692h-130v692zM90 887h124l128 -136h-118l-73 75l-74 -75h-119z" />
    <glyph glyph-name="Itilde" unicode="&#x128;" horiz-adv-x="300" 
d="M85 692h130v-692h-130v692zM54 760h-82v30c0 79 36 104 92 104c66 0 122 -48 156 -48c16 0 28 8 28 38v9h80v-23c0 -89 -36 -115 -95 -115c-55 0 -118 48 -153 48c-15 0 -26 -8 -26 -28v-15z" />
    <glyph glyph-name="Idieresis" unicode="&#xcf;" horiz-adv-x="300" 
d="M85 692h130v-692h-130v692zM102 763h-102v121h102v-121zM300 763h-102v121h102v-121z" />
    <glyph glyph-name="Imacron" unicode="&#x12a;" horiz-adv-x="300" 
d="M85 692h130v-692h-130v692zM1 856h298v-90h-298v90z" />
    <glyph glyph-name="Idotaccent" unicode="&#x130;" horiz-adv-x="300" 
d="M85 692h130v-692h-130v692zM212 762h-124v121h124v-121z" />
    <glyph glyph-name="uni01CF" unicode="&#x1cf;" horiz-adv-x="300" 
d="M85 692h130v-692h-130v692zM210 751h-119l-131 136h118l73 -75l74 75h119z" />
    <glyph glyph-name="uni1EC8" unicode="&#x1ec8;" horiz-adv-x="300" 
d="M85 692h130v-692h-130v692zM199 750h-101c37 34 52 53 52 80c0 17 -11 31 -37 31c-23 0 -37 -5 -55 -15l-25 69c25 16 59 31 110 31c72 0 112 -41 112 -93c0 -48 -31 -81 -56 -103z" />
    <glyph glyph-name="uni1ECA" unicode="&#x1eca;" horiz-adv-x="300" 
d="M85 692h130v-692h-130v692zM214 -195h-129v129h129v-129z" />
    <glyph glyph-name="Iogonek" unicode="&#x12e;" horiz-adv-x="300" 
d="M85 692h130v-692h-8c-36 -28 -63 -60 -63 -95c0 -30 21 -46 52 -46c23 0 37 2 50 6v-87c-23 -11 -53 -15 -86 -15c-78 0 -126 41 -126 114c0 49 28 92 60 123h-9v692z" />
    <glyph glyph-name="Jcircumflex" unicode="&#x134;" horiz-adv-x="391" 
d="M310 692v-477c0 -158 -55 -225 -194 -225c-26 0 -64 2 -87 8v104c13 -2 46 -4 67 -4c74 0 85 51 85 109v485h129zM185 887h124l128 -136h-118l-73 75l-74 -75h-119z" />
    <glyph glyph-name="uni0136" unicode="&#x136;" horiz-adv-x="663" 
d="M85 0v692h129v-320c47 54 201 216 296 320h157l-285 -289l296 -403h-156l-230 319l-78 -74v-245h-129zM334 -258h-99c30 68 51 146 55 207h124c-6 -70 -42 -165 -80 -207z" />
    <glyph glyph-name="Lacute" unicode="&#x139;" horiz-adv-x="578" 
d="M85 0v692h130v-585h350l-15 -107h-465zM227 891h154l-175 -139h-119z" />
    <glyph glyph-name="Lcaron" unicode="&#x13d;" horiz-adv-x="578" 
d="M85 0v692h130v-585h350l-15 -107h-465zM446 429h-83l-5 264h93z" />
    <glyph glyph-name="uni013B" unicode="&#x13b;" horiz-adv-x="578" 
d="M85 0v692h130v-585h350l-15 -107h-465zM312 -258h-99c30 68 51 146 55 207h124c-6 -70 -42 -165 -80 -207z" />
    <glyph glyph-name="Ldot" unicode="&#x13f;" horiz-adv-x="578" 
d="M485 306h-126v159h126v-159zM85 0v692h130v-585h350l-15 -107h-465z" />
    <glyph glyph-name="uni1E36" unicode="&#x1e36;" horiz-adv-x="578" 
d="M85 0v692h130v-585h350l-15 -107h-465zM390 -195h-129v129h129v-129z" />
    <glyph glyph-name="uni1E38" unicode="&#x1e38;" horiz-adv-x="578" 
d="M85 0v692h130v-585h350l-15 -107h-465zM390 -195h-129v129h129v-129zM6 853h298v-90h-298v90z" />
    <glyph glyph-name="uni1E3A" unicode="&#x1e3a;" horiz-adv-x="578" 
d="M85 0v692h130v-585h350l-15 -107h-465zM176 -83h292v-94h-292v94z" />
    <glyph glyph-name="Lslash" unicode="&#x141;" horiz-adv-x="588" 
d="M371 426l-146 -66v-253h350l-15 -107h-465v302l-85 -38v88l85 38v302h130v-243l146 66v-89z" />
    <glyph glyph-name="uni1E42" unicode="&#x1e42;" horiz-adv-x="880" 
d="M669 0v272c0 121 2 253 5 329h-5c-31 -131 -115 -384 -186 -601h-112c-53 185 -140 472 -171 603h-4c6 -81 9 -227 9 -346v-257h-120v692h193c63 -193 136 -437 157 -535h2c16 83 105 346 171 535h186v-692h-125zM493 -195h-129v129h129v-129z" />
    <glyph glyph-name="Nacute" unicode="&#x143;" horiz-adv-x="751" 
d="M205 0h-120v692h164c91 -158 270 -460 304 -535h1c-7 78 -7 194 -7 307v228h119v-692h-154c-81 140 -274 479 -312 558h-1c5 -67 6 -200 6 -325v-233zM449 890h154l-175 -139h-119z" />
    <glyph glyph-name="Ncaron" unicode="&#x147;" horiz-adv-x="751" 
d="M205 0h-120v692h164c91 -158 270 -460 304 -535h1c-7 78 -7 194 -7 307v228h119v-692h-154c-81 140 -274 479 -312 558h-1c5 -67 6 -200 6 -325v-233zM437 749h-119l-131 136h118l73 -75l74 75h119z" />
    <glyph glyph-name="Ntilde" unicode="&#xd1;" horiz-adv-x="751" 
d="M205 0h-120v692h164c91 -158 270 -460 304 -535h1c-7 78 -7 194 -7 307v228h119v-692h-154c-81 140 -274 479 -312 558h-1c5 -67 6 -200 6 -325v-233zM280 760h-82v30c0 79 36 104 92 104c66 0 122 -48 156 -48c16 0 28 8 28 38v9h80v-23c0 -89 -36 -115 -95 -115
c-55 0 -118 48 -153 48c-15 0 -26 -8 -26 -28v-15z" />
    <glyph glyph-name="uni0145" unicode="&#x145;" horiz-adv-x="751" 
d="M205 0h-120v692h164c91 -158 270 -460 304 -535h1c-7 78 -7 194 -7 307v228h119v-692h-154c-81 140 -274 479 -312 558h-1c5 -67 6 -200 6 -325v-233zM370 -258h-99c30 68 51 146 55 207h124c-6 -70 -42 -165 -80 -207z" />
    <glyph glyph-name="uni1E44" unicode="&#x1e44;" horiz-adv-x="751" 
d="M205 0h-120v692h164c91 -158 270 -460 304 -535h1c-7 78 -7 194 -7 307v228h119v-692h-154c-81 140 -274 479 -312 558h-1c5 -67 6 -200 6 -325v-233zM443 756h-124v121h124v-121z" />
    <glyph glyph-name="uni1E46" unicode="&#x1e46;" horiz-adv-x="751" 
d="M205 0h-120v692h164c91 -158 270 -460 304 -535h1c-7 78 -7 194 -7 307v228h119v-692h-154c-81 140 -274 479 -312 558h-1c5 -67 6 -200 6 -325v-233zM440 -195h-129v129h129v-129z" />
    <glyph glyph-name="uni1E48" unicode="&#x1e48;" horiz-adv-x="751" 
d="M205 0h-120v692h164c91 -158 270 -460 304 -535h1c-7 78 -7 194 -7 307v228h119v-692h-154c-81 140 -274 479 -312 558h-1c5 -67 6 -200 6 -325v-233zM230 -83h292v-94h-292v94z" />
    <glyph glyph-name="Ograve" unicode="&#xd2;" horiz-adv-x="760" 
d="M385 702c200 0 326 -144 326 -353c0 -192 -113 -359 -335 -359c-213 0 -326 158 -326 356c0 200 122 356 335 356zM379 595c-136 0 -195 -107 -195 -246c0 -140 65 -252 197 -252c142 0 195 118 195 250c0 137 -60 248 -197 248zM168 902h156l128 -139h-117z" />
    <glyph glyph-name="Oacute" unicode="&#xd3;" horiz-adv-x="760" 
d="M385 702c200 0 326 -144 326 -353c0 -192 -113 -359 -335 -359c-213 0 -326 158 -326 356c0 200 122 356 335 356zM379 595c-136 0 -195 -107 -195 -246c0 -140 65 -252 197 -252c142 0 195 118 195 250c0 137 -60 248 -197 248zM453 898h154l-175 -139h-119z" />
    <glyph glyph-name="Ocircumflex" unicode="&#xd4;" horiz-adv-x="760" 
d="M385 702c200 0 326 -144 326 -353c0 -192 -113 -359 -335 -359c-213 0 -326 158 -326 356c0 200 122 356 335 356zM379 595c-136 0 -195 -107 -195 -246c0 -140 65 -252 197 -252c142 0 195 118 195 250c0 137 -60 248 -197 248zM320 889h124l128 -136h-118l-73 75
l-74 -75h-119z" />
    <glyph glyph-name="Otilde" unicode="&#xd5;" horiz-adv-x="760" 
d="M385 702c200 0 326 -144 326 -353c0 -192 -113 -359 -335 -359c-213 0 -326 158 -326 356c0 200 122 356 335 356zM379 595c-136 0 -195 -107 -195 -246c0 -140 65 -252 197 -252c142 0 195 118 195 250c0 137 -60 248 -197 248zM284 762h-82v30c0 79 36 104 92 104
c66 0 122 -48 156 -48c16 0 28 8 28 38v9h80v-23c0 -89 -36 -115 -95 -115c-55 0 -118 48 -153 48c-15 0 -26 -8 -26 -28v-15z" />
    <glyph glyph-name="Odieresis" unicode="&#xd6;" horiz-adv-x="760" 
d="M385 702c200 0 326 -144 326 -353c0 -192 -113 -359 -335 -359c-213 0 -326 158 -326 356c0 200 122 356 335 356zM379 595c-136 0 -195 -107 -195 -246c0 -140 65 -252 197 -252c142 0 195 118 195 250c0 137 -60 248 -197 248zM332 765h-102v121h102v-121zM530 765
h-102v121h102v-121z" />
    <glyph glyph-name="Omacron" unicode="&#x14c;" horiz-adv-x="760" 
d="M385 702c200 0 326 -144 326 -353c0 -192 -113 -359 -335 -359c-213 0 -326 158 -326 356c0 200 122 356 335 356zM379 595c-136 0 -195 -107 -195 -246c0 -140 65 -252 197 -252c142 0 195 118 195 250c0 137 -60 248 -197 248zM231 862h298v-90h-298v90z" />
    <glyph glyph-name="Ohungarumlaut" unicode="&#x150;" horiz-adv-x="760" 
d="M385 702c200 0 326 -144 326 -353c0 -192 -113 -359 -335 -359c-213 0 -326 158 -326 356c0 200 122 356 335 356zM379 595c-136 0 -195 -107 -195 -246c0 -140 65 -252 197 -252c142 0 195 118 195 250c0 137 -60 248 -197 248zM323 891h133l-145 -138h-100zM524 891
h132l-145 -138h-100z" />
    <glyph glyph-name="uni01D1" unicode="&#x1d1;" horiz-adv-x="760" 
d="M385 702c200 0 326 -144 326 -353c0 -192 -113 -359 -335 -359c-213 0 -326 158 -326 356c0 200 122 356 335 356zM379 595c-136 0 -195 -107 -195 -246c0 -140 65 -252 197 -252c142 0 195 118 195 250c0 137 -60 248 -197 248zM438 753h-119l-131 136h118l73 -75l74 75
h119z" />
    <glyph glyph-name="uni1ECC" unicode="&#x1ecc;" horiz-adv-x="760" 
d="M385 702c200 0 326 -144 326 -353c0 -192 -113 -359 -335 -359c-213 0 -326 158 -326 356c0 200 122 356 335 356zM379 595c-136 0 -195 -107 -195 -246c0 -140 65 -252 197 -252c142 0 195 118 195 250c0 137 -60 248 -197 248zM444 -202h-129v129h129v-129z" />
    <glyph glyph-name="uni1ECE" unicode="&#x1ece;" horiz-adv-x="760" 
d="M385 702c200 0 326 -144 326 -353c0 -192 -113 -359 -335 -359c-213 0 -326 158 -326 356c0 200 122 356 335 356zM379 595c-136 0 -195 -107 -195 -246c0 -140 65 -252 197 -252c142 0 195 118 195 250c0 137 -60 248 -197 248zM429 751h-101c37 34 52 53 52 80
c0 17 -11 31 -37 31c-23 0 -37 -5 -55 -15l-25 69c25 16 59 31 110 31c72 0 112 -41 112 -93c0 -48 -31 -81 -56 -103z" />
    <glyph glyph-name="uni1ED0" unicode="&#x1ed0;" horiz-adv-x="760" 
d="M385 702c200 0 326 -144 326 -353c0 -192 -113 -359 -335 -359c-213 0 -326 158 -326 356c0 200 122 356 335 356zM379 595c-136 0 -195 -107 -195 -246c0 -140 65 -252 197 -252c142 0 195 118 195 250c0 137 -60 248 -197 248zM314 879h126l133 -128h-128l-66 65
l-63 -65h-128zM617 969h139l-138 -120h-102z" />
    <glyph glyph-name="uni1ED2" unicode="&#x1ed2;" horiz-adv-x="760" 
d="M385 702c200 0 326 -144 326 -353c0 -192 -113 -359 -335 -359c-213 0 -326 158 -326 356c0 200 122 356 335 356zM379 595c-136 0 -195 -107 -195 -246c0 -140 65 -252 197 -252c142 0 195 118 195 250c0 137 -60 248 -197 248zM314 879h126l133 -128h-128l-66 65
l-63 -65h-128zM445 958h142l97 -114h-96z" />
    <glyph glyph-name="uni1ED4" unicode="&#x1ed4;" horiz-adv-x="760" 
d="M385 702c200 0 326 -144 326 -353c0 -192 -113 -359 -335 -359c-213 0 -326 158 -326 356c0 200 122 356 335 356zM379 595c-136 0 -195 -107 -195 -246c0 -140 65 -252 197 -252c142 0 195 118 195 250c0 137 -60 248 -197 248zM619 846h-91c35 28 49 52 49 73
c0 14 -9 27 -34 27c-20 0 -38 -7 -56 -18l-23 58c21 17 56 35 104 35c62 0 99 -35 99 -84c0 -40 -25 -72 -48 -91zM314 879h126l133 -128h-128l-66 67l-63 -67h-128z" />
    <glyph glyph-name="uni1ED6" unicode="&#x1ed6;" horiz-adv-x="760" 
d="M385 702c200 0 326 -144 326 -353c0 -192 -113 -359 -335 -359c-213 0 -326 158 -326 356c0 200 122 356 335 356zM379 595c-136 0 -195 -107 -195 -246c0 -140 65 -252 197 -252c142 0 195 118 195 250c0 137 -60 248 -197 248zM280 880h-69v11c0 70 35 95 85 95
c64 0 115 -33 160 -33c15 0 26 4 26 24v7h68v-12c0 -71 -32 -93 -82 -93c-57 0 -122 33 -163 33c-15 0 -25 -8 -25 -26v-6zM313 845h134l117 -102h-120l-65 53l-62 -53h-122z" />
    <glyph glyph-name="uni1ED8" unicode="&#x1ed8;" horiz-adv-x="760" 
d="M385 702c200 0 326 -144 326 -353c0 -192 -113 -359 -335 -359c-213 0 -326 158 -326 356c0 200 122 356 335 356zM379 595c-136 0 -195 -107 -195 -246c0 -140 65 -252 197 -252c142 0 195 118 195 250c0 137 -60 248 -197 248zM444 -201h-129v129h129v-129zM320 884
h124l128 -136h-118l-73 75l-74 -75h-119z" />
    <glyph glyph-name="Oslash" unicode="&#xd8;" horiz-adv-x="760" 
d="M385 702c66 0 124 -16 172 -44l25 34h88l-56 -78c64 -62 100 -155 100 -265c0 -193 -111 -359 -338 -359c-71 0 -132 19 -180 51l-30 -41h-88l63 87c-60 66 -91 158 -91 259c0 195 123 356 335 356zM180 349c0 -56 13 -112 38 -157l273 374c-30 21 -67 32 -112 32
c-129 0 -199 -101 -199 -249zM381 93c142 0 200 119 200 254c0 66 -13 124 -41 167l-276 -379c31 -26 70 -42 117 -42z" />
    <glyph glyph-name="OE" unicode="&#x152;" horiz-adv-x="1026" 
d="M977 692v-110h-330v-167h314v-109h-314v-197h349l-16 -109h-427c-19 -1 -71 -9 -140 -9c-246 1 -363 159 -363 354c0 183 129 353 378 353c63 0 121 -5 133 -6h416zM521 105v479c-23 8 -71 9 -97 9c-141 0 -240 -86 -240 -245c0 -149 89 -250 236 -250c55 0 82 3 101 7z
" />
    <glyph glyph-name="Ohorn" unicode="&#x1a0;" horiz-adv-x="760" 
d="M385 702c75 0 139 -20 191 -56c26 8 38 26 38 50c0 23 -5 44 -11 63h109c6 -15 9 -38 9 -60c0 -52 -24 -99 -76 -122c42 -60 66 -138 66 -228c0 -192 -113 -359 -335 -359c-213 0 -326 158 -326 356c0 200 122 356 335 356zM379 595c-136 0 -195 -107 -195 -246
c0 -140 65 -252 197 -252c142 0 195 118 195 250c0 137 -60 248 -197 248z" />
    <glyph glyph-name="uni1EDA" unicode="&#x1eda;" horiz-adv-x="760" 
d="M385 702c75 0 139 -20 191 -56c26 8 38 26 38 50c0 23 -5 44 -11 63h109c6 -15 9 -38 9 -60c0 -52 -24 -99 -76 -122c42 -60 66 -138 66 -228c0 -192 -113 -359 -335 -359c-213 0 -326 158 -326 356c0 200 122 356 335 356zM379 595c-136 0 -195 -107 -195 -246
c0 -140 65 -252 197 -252c142 0 195 118 195 250c0 137 -60 248 -197 248zM448 894h154l-175 -139h-119z" />
    <glyph glyph-name="uni1EDC" unicode="&#x1edc;" horiz-adv-x="760" 
d="M385 702c75 0 139 -20 191 -56c26 8 38 26 38 50c0 23 -5 44 -11 63h109c6 -15 9 -38 9 -60c0 -52 -24 -99 -76 -122c42 -60 66 -138 66 -228c0 -192 -113 -359 -335 -359c-213 0 -326 158 -326 356c0 200 122 356 335 356zM379 595c-136 0 -195 -107 -195 -246
c0 -140 65 -252 197 -252c142 0 195 118 195 250c0 137 -60 248 -197 248zM170 894h156l128 -139h-117z" />
    <glyph glyph-name="uni1EDE" unicode="&#x1ede;" horiz-adv-x="760" 
d="M385 702c75 0 139 -20 191 -56c26 8 38 26 38 50c0 23 -5 44 -11 63h109c6 -15 9 -38 9 -60c0 -52 -24 -99 -76 -122c42 -60 66 -138 66 -228c0 -192 -113 -359 -335 -359c-213 0 -326 158 -326 356c0 200 122 356 335 356zM379 595c-136 0 -195 -107 -195 -246
c0 -140 65 -252 197 -252c142 0 195 118 195 250c0 137 -60 248 -197 248zM429 750h-101c37 34 52 53 52 80c0 17 -11 31 -37 31c-23 0 -37 -5 -55 -15l-25 69c25 16 59 31 110 31c72 0 112 -41 112 -93c0 -48 -31 -81 -56 -103z" />
    <glyph glyph-name="uni1EE0" unicode="&#x1ee0;" horiz-adv-x="760" 
d="M385 702c75 0 139 -20 191 -56c26 8 38 26 38 50c0 23 -5 44 -11 63h109c6 -15 9 -38 9 -60c0 -52 -24 -99 -76 -122c42 -60 66 -138 66 -228c0 -192 -113 -359 -335 -359c-213 0 -326 158 -326 356c0 200 122 356 335 356zM379 595c-136 0 -195 -107 -195 -246
c0 -140 65 -252 197 -252c142 0 195 118 195 250c0 137 -60 248 -197 248zM284 760h-82v30c0 79 36 104 92 104c66 0 122 -48 156 -48c16 0 28 8 28 38v9h80v-23c0 -89 -36 -115 -95 -115c-55 0 -118 48 -153 48c-15 0 -26 -8 -26 -28v-15z" />
    <glyph glyph-name="uni1EE2" unicode="&#x1ee2;" horiz-adv-x="760" 
d="M385 702c75 0 139 -20 191 -56c26 8 38 26 38 50c0 23 -5 44 -11 63h109c6 -15 9 -38 9 -60c0 -52 -24 -99 -76 -122c42 -60 66 -138 66 -228c0 -192 -113 -359 -335 -359c-213 0 -326 158 -326 356c0 200 122 356 335 356zM379 595c-136 0 -195 -107 -195 -246
c0 -140 65 -252 197 -252c142 0 195 118 195 250c0 137 -60 248 -197 248zM444 -198h-129v129h129v-129z" />
    <glyph glyph-name="Racute" unicode="&#x154;" horiz-adv-x="655" 
d="M326 286h-113v-286h-128v692h293c148 0 227 -81 227 -189c0 -91 -51 -143 -107 -163c42 -13 93 -51 93 -174v-32c0 -47 0 -103 10 -134h-124c-12 30 -13 83 -13 153v12c0 83 -22 121 -138 121zM213 587v-196h134c90 0 126 34 126 99c0 62 -40 97 -121 97h-139zM400 890
h154l-175 -139h-119z" />
    <glyph glyph-name="Rcaron" unicode="&#x158;" horiz-adv-x="655" 
d="M326 286h-113v-286h-128v692h293c148 0 227 -81 227 -189c0 -91 -51 -143 -107 -163c42 -13 93 -51 93 -174v-32c0 -47 0 -103 10 -134h-124c-12 30 -13 83 -13 153v12c0 83 -22 121 -138 121zM213 587v-196h134c90 0 126 34 126 99c0 62 -40 97 -121 97h-139zM389 751
h-119l-131 136h118l73 -75l74 75h119z" />
    <glyph glyph-name="uni0156" unicode="&#x156;" horiz-adv-x="655" 
d="M326 286h-113v-286h-128v692h293c148 0 227 -81 227 -189c0 -91 -51 -143 -107 -163c42 -13 93 -51 93 -174v-32c0 -47 0 -103 10 -134h-124c-12 30 -13 83 -13 153v12c0 83 -22 121 -138 121zM213 587v-196h134c90 0 126 34 126 99c0 62 -40 97 -121 97h-139zM327 -258
h-99c30 68 51 146 55 207h124c-6 -70 -42 -165 -80 -207z" />
    <glyph glyph-name="uni1E5A" unicode="&#x1e5a;" horiz-adv-x="655" 
d="M326 286h-113v-286h-128v692h293c148 0 227 -81 227 -189c0 -91 -51 -143 -107 -163c42 -13 93 -51 93 -174v-32c0 -47 0 -103 10 -134h-124c-12 30 -13 83 -13 153v12c0 83 -22 121 -138 121zM213 587v-196h134c90 0 126 34 126 99c0 62 -40 97 -121 97h-139zM401 -192
h-129v129h129v-129z" />
    <glyph glyph-name="uni1E5C" unicode="&#x1e5c;" horiz-adv-x="655" 
d="M326 286h-113v-286h-128v692h293c148 0 227 -81 227 -189c0 -91 -51 -143 -107 -163c42 -13 93 -51 93 -174v-32c0 -47 0 -103 10 -134h-124c-12 30 -13 83 -13 153v12c0 83 -22 121 -138 121zM213 587v-196h134c90 0 126 34 126 99c0 62 -40 97 -121 97h-139zM401 -191
h-129v129h129v-129zM177 858h298v-90h-298v90z" />
    <glyph glyph-name="uni1E5E" unicode="&#x1e5e;" horiz-adv-x="655" 
d="M326 286h-113v-286h-128v692h293c148 0 227 -81 227 -189c0 -91 -51 -143 -107 -163c42 -13 93 -51 93 -174v-32c0 -47 0 -103 10 -134h-124c-12 30 -13 83 -13 153v12c0 83 -22 121 -138 121zM213 587v-196h134c90 0 126 34 126 99c0 62 -40 97 -121 97h-139zM191 -81
h292v-94h-292v94z" />
    <glyph glyph-name="Sacute" unicode="&#x15a;" horiz-adv-x="625" 
d="M36 199h131c17 -74 69 -109 156 -109c89 0 126 38 126 94c0 60 -33 90 -159 119c-179 43 -229 107 -229 202c0 114 85 197 246 197c177 0 248 -98 258 -195h-131c-9 49 -38 96 -131 96c-69 0 -109 -29 -109 -84c0 -54 33 -76 148 -103c199 -47 240 -123 240 -217
c0 -121 -91 -208 -269 -208c-175 0 -261 89 -277 208zM385 893h154l-175 -139h-119z" />
    <glyph glyph-name="Scircumflex" unicode="&#x15c;" horiz-adv-x="625" 
d="M36 199h131c17 -74 69 -109 156 -109c89 0 126 38 126 94c0 60 -33 90 -159 119c-179 43 -229 107 -229 202c0 114 85 197 246 197c177 0 248 -98 258 -195h-131c-9 49 -38 96 -131 96c-69 0 -109 -29 -109 -84c0 -54 33 -76 148 -103c199 -47 240 -123 240 -217
c0 -121 -91 -208 -269 -208c-175 0 -261 89 -277 208zM252 887h124l128 -136h-118l-73 75l-74 -75h-119z" />
    <glyph glyph-name="Scaron" unicode="&#x160;" horiz-adv-x="625" 
d="M36 199h131c17 -74 69 -109 156 -109c89 0 126 38 126 94c0 60 -33 90 -159 119c-179 43 -229 107 -229 202c0 114 85 197 246 197c177 0 248 -98 258 -195h-131c-9 49 -38 96 -131 96c-69 0 -109 -29 -109 -84c0 -54 33 -76 148 -103c199 -47 240 -123 240 -217
c0 -121 -91 -208 -269 -208c-175 0 -261 89 -277 208zM370 751h-119l-131 136h118l73 -75l74 75h119z" />
    <glyph glyph-name="uni015E" unicode="&#x15e;" horiz-adv-x="625" 
d="M36 199h131c17 -74 69 -109 156 -109c89 0 126 38 126 94c0 60 -33 90 -159 119c-179 43 -229 107 -229 202c0 114 85 197 246 197c177 0 248 -98 258 -195h-131c-9 49 -38 96 -131 96c-69 0 -109 -29 -109 -84c0 -54 33 -76 148 -103c199 -47 240 -123 240 -217
c0 -108 -72 -189 -214 -205l-37 -42c35 -8 90 -28 90 -94c0 -84 -78 -102 -135 -102c-32 0 -60 5 -74 11v70c14 -4 47 -7 59 -7c35 0 47 9 47 28c0 31 -46 37 -92 38v32l52 64c-151 11 -227 96 -242 207z" />
    <glyph glyph-name="uni0218" unicode="&#x218;" horiz-adv-x="625" 
d="M36 199h131c17 -74 69 -109 156 -109c89 0 126 38 126 94c0 60 -33 90 -159 119c-179 43 -229 107 -229 202c0 114 85 197 246 197c177 0 248 -98 258 -195h-131c-9 49 -38 96 -131 96c-69 0 -109 -29 -109 -84c0 -54 33 -76 148 -103c199 -47 240 -123 240 -217
c0 -121 -91 -208 -269 -208c-175 0 -261 89 -277 208zM305 -262h-99c30 68 51 146 55 207h124c-6 -70 -42 -165 -80 -207z" />
    <glyph glyph-name="uni1E60" unicode="&#x1e60;" horiz-adv-x="625" 
d="M36 199h131c17 -74 69 -109 156 -109c89 0 126 38 126 94c0 60 -33 90 -159 119c-179 43 -229 107 -229 202c0 114 85 197 246 197c177 0 248 -98 258 -195h-131c-9 49 -38 96 -131 96c-69 0 -109 -29 -109 -84c0 -54 33 -76 148 -103c199 -47 240 -123 240 -217
c0 -121 -91 -208 -269 -208c-175 0 -261 89 -277 208zM374 762h-124v121h124v-121z" />
    <glyph glyph-name="uni1E62" unicode="&#x1e62;" horiz-adv-x="625" 
d="M36 199h131c17 -74 69 -109 156 -109c89 0 126 38 126 94c0 60 -33 90 -159 119c-179 43 -229 107 -229 202c0 114 85 197 246 197c177 0 248 -98 258 -195h-131c-9 49 -38 96 -131 96c-69 0 -109 -29 -109 -84c0 -54 33 -76 148 -103c199 -47 240 -123 240 -217
c0 -121 -91 -208 -269 -208c-175 0 -261 89 -277 208zM376 -195h-129v129h129v-129z" />
    <glyph glyph-name="uni1E9E" unicode="&#x1e9e;" horiz-adv-x="666" 
d="M215 478v-478h-131v506c0 127 85 196 256 196c211 0 264 -106 264 -180c0 -9 0 -25 -2 -33l-152 -96v-5l60 -36c107 -65 132 -120 132 -184c0 -102 -69 -177 -216 -177c-71 0 -131 22 -160 47v117c37 -38 99 -66 160 -66c64 0 91 30 91 68s-16 58 -88 101l-96 56
c-48 29 -47 84 2 116l133 85c0 39 -24 91 -125 91c-74 0 -128 -21 -128 -128z" />
    <glyph glyph-name="Tcaron" unicode="&#x164;" horiz-adv-x="578" 
d="M224 0v584h-214v108h558v-108h-214v-584h-130zM347 751h-119l-131 136h118l73 -75l74 75h119z" />
    <glyph glyph-name="uni0162" unicode="&#x162;" horiz-adv-x="578" 
d="M224 0v584h-214v108h558v-108h-214v-584h-13l-42 -48c35 -8 90 -28 90 -94c0 -84 -78 -102 -135 -102c-32 0 -60 5 -74 11v70c14 -4 47 -7 59 -7c35 0 47 9 47 28c0 31 -46 37 -92 38v32l59 72h-29z" />
    <glyph glyph-name="uni021A" unicode="&#x21a;" horiz-adv-x="578" 
d="M224 0v584h-214v108h558v-108h-214v-584h-130zM271 -258h-99c30 68 51 146 55 207h124c-6 -70 -42 -165 -80 -207z" />
    <glyph glyph-name="uni1E6C" unicode="&#x1e6c;" horiz-adv-x="578" 
d="M224 0v584h-214v108h558v-108h-214v-584h-130zM353 -195h-129v129h129v-129z" />
    <glyph glyph-name="uni1E6E" unicode="&#x1e6e;" horiz-adv-x="578" 
d="M224 0v584h-214v108h558v-108h-214v-584h-130zM143 -83h292v-94h-292v94z" />
    <glyph glyph-name="Ugrave" unicode="&#xd9;" horiz-adv-x="722" 
d="M77 692h130v-414c0 -143 76 -184 155 -184c92 0 153 47 153 184v414h130v-407c0 -233 -134 -294 -285 -294c-152 0 -283 65 -283 290v411zM149 890h156l128 -139h-117z" />
    <glyph glyph-name="Uacute" unicode="&#xda;" horiz-adv-x="722" 
d="M77 692h130v-414c0 -143 76 -184 155 -184c92 0 153 47 153 184v414h130v-407c0 -233 -134 -294 -285 -294c-152 0 -283 65 -283 290v411zM431 890h154l-175 -139h-119z" />
    <glyph glyph-name="Ucircumflex" unicode="&#xdb;" horiz-adv-x="722" 
d="M77 692h130v-414c0 -143 76 -184 155 -184c92 0 153 47 153 184v414h130v-407c0 -233 -134 -294 -285 -294c-152 0 -283 65 -283 290v411zM301 891h124l128 -136h-118l-73 75l-74 -75h-119z" />
    <glyph glyph-name="Utilde" unicode="&#x168;" horiz-adv-x="722" 
d="M77 692h130v-414c0 -143 76 -184 155 -184c92 0 153 47 153 184v414h130v-407c0 -233 -134 -294 -285 -294c-152 0 -283 65 -283 290v411zM265 762h-82v30c0 79 36 104 92 104c66 0 122 -48 156 -48c16 0 28 8 28 38v9h80v-23c0 -89 -36 -115 -95 -115
c-55 0 -118 48 -153 48c-15 0 -26 -8 -26 -28v-15z" />
    <glyph glyph-name="Udieresis" unicode="&#xdc;" horiz-adv-x="722" 
d="M77 692h130v-414c0 -143 76 -184 155 -184c92 0 153 47 153 184v414h130v-407c0 -233 -134 -294 -285 -294c-152 0 -283 65 -283 290v411zM313 763h-102v121h102v-121zM511 763h-102v121h102v-121z" />
    <glyph glyph-name="Umacron" unicode="&#x16a;" horiz-adv-x="722" 
d="M77 692h130v-414c0 -143 76 -184 155 -184c92 0 153 47 153 184v414h130v-407c0 -233 -134 -294 -285 -294c-152 0 -283 65 -283 290v411zM212 860h298v-90h-298v90z" />
    <glyph glyph-name="Ubreve" unicode="&#x16c;" horiz-adv-x="722" 
d="M77 692h130v-414c0 -143 76 -184 155 -184c92 0 153 47 153 184v414h130v-407c0 -233 -134 -294 -285 -294c-152 0 -283 65 -283 290v411zM195 888h89c7 -35 34 -60 77 -60c51 0 72 29 78 60h88c-10 -72 -59 -141 -167 -141c-115 0 -159 74 -165 141z" />
    <glyph glyph-name="Uring" unicode="&#x16e;" horiz-adv-x="722" 
d="M77 692h130v-414c0 -143 76 -184 155 -184c92 0 153 47 153 184v414h130v-407c0 -233 -134 -294 -285 -294c-152 0 -283 65 -283 290v411zM362 730c-73 0 -117 44 -117 100s42 102 116 102s116 -43 116 -100c0 -59 -45 -102 -115 -102zM360 785c34 0 50 22 50 46
c0 23 -15 47 -49 47c-35 0 -49 -23 -49 -46s14 -47 48 -47z" />
    <glyph glyph-name="Uhungarumlaut" unicode="&#x170;" horiz-adv-x="722" 
d="M77 692h130v-414c0 -143 76 -184 155 -184c92 0 153 47 153 184v414h130v-407c0 -233 -134 -294 -285 -294c-152 0 -283 65 -283 290v411zM304 893h133l-145 -138h-100zM505 893h132l-145 -138h-100z" />
    <glyph glyph-name="uni01D3" unicode="&#x1d3;" horiz-adv-x="722" 
d="M77 692h130v-414c0 -143 76 -184 155 -184c92 0 153 47 153 184v414h130v-407c0 -233 -134 -294 -285 -294c-152 0 -283 65 -283 290v411zM419 754h-119l-131 136h118l73 -75l74 75h119z" />
    <glyph glyph-name="uni01D5" unicode="&#x1d5;" horiz-adv-x="722" 
d="M77 692h130v-414c0 -143 76 -184 155 -184c92 0 153 47 153 184v414h130v-407c0 -233 -134 -294 -285 -294c-152 0 -283 65 -283 290v411zM309 751h-103v100h103v-100zM502 898h-283v81h283v-81zM515 751h-102v100h102v-100z" />
    <glyph glyph-name="uni01D7" unicode="&#x1d7;" horiz-adv-x="722" 
d="M77 692h130v-414c0 -143 76 -184 155 -184c92 0 153 47 153 184v414h130v-407c0 -233 -134 -294 -285 -294c-152 0 -283 65 -283 290v411zM206 849h103v-100h-103v100zM302 881l97 117h148l-139 -117h-106zM515 749h-102v100h102v-100z" />
    <glyph glyph-name="uni01D9" unicode="&#x1d9;" horiz-adv-x="722" 
d="M77 692h130v-414c0 -143 76 -184 155 -184c92 0 153 47 153 184v414h130v-407c0 -233 -134 -294 -285 -294c-152 0 -283 65 -283 290v411zM416 877h-116l-105 119h105l59 -63l59 63h104zM310 747h-103v100h103v-100zM516 747h-102v100h102v-100z" />
    <glyph glyph-name="uni01DB" unicode="&#x1db;" horiz-adv-x="722" 
d="M77 692h130v-414c0 -143 76 -184 155 -184c92 0 153 47 153 184v414h130v-407c0 -233 -134 -294 -285 -294c-152 0 -283 65 -283 290v411zM206 850h103v-100h-103v100zM416 882h-105l-143 117h143zM515 750h-102v100h102v-100z" />
    <glyph glyph-name="uni1EE4" unicode="&#x1ee4;" horiz-adv-x="722" 
d="M77 692h130v-414c0 -143 76 -184 155 -184c92 0 153 47 153 184v414h130v-407c0 -233 -134 -294 -285 -294c-152 0 -283 65 -283 290v411zM425 -199h-129v129h129v-129z" />
    <glyph glyph-name="uni1EE6" unicode="&#x1ee6;" horiz-adv-x="722" 
d="M77 692h130v-414c0 -143 76 -184 155 -184c92 0 153 47 153 184v414h130v-407c0 -233 -134 -294 -285 -294c-152 0 -283 65 -283 290v411zM406 742h-101c37 34 52 53 52 80c0 17 -11 31 -37 31c-23 0 -37 -5 -55 -15l-25 69c25 16 59 31 110 31c72 0 112 -41 112 -93
c0 -48 -31 -81 -56 -103z" />
    <glyph glyph-name="Uogonek" unicode="&#x172;" horiz-adv-x="722" 
d="M77 692h130v-414c0 -143 76 -184 155 -184c92 0 153 47 153 184v414h130v-407c0 -167 -69 -246 -164 -277c-34 -27 -59 -58 -59 -92c0 -30 21 -46 52 -46c23 0 37 2 50 6v-87c-23 -11 -53 -15 -86 -15c-78 0 -126 41 -126 114c0 39 18 74 42 103c-150 2 -277 68 -277 290
v411z" />
    <glyph glyph-name="Uhorn" unicode="&#x1af;" horiz-adv-x="722" 
d="M77 692h130v-414c0 -143 76 -184 155 -184c92 0 153 47 153 184v414h76c32 8 47 27 47 53c0 23 -5 44 -11 63h109c6 -15 9 -38 9 -60c0 -59 -31 -112 -100 -130v-333c0 -233 -134 -294 -285 -294c-152 0 -283 65 -283 290v411z" />
    <glyph glyph-name="uni1EE8" unicode="&#x1ee8;" horiz-adv-x="722" 
d="M77 692h130v-414c0 -143 76 -184 155 -184c92 0 153 47 153 184v414h76c32 8 47 27 47 53c0 23 -5 44 -11 63h109c6 -15 9 -38 9 -60c0 -59 -31 -112 -100 -130v-333c0 -233 -134 -294 -285 -294c-152 0 -283 65 -283 290v411zM434 890h154l-175 -139h-119z" />
    <glyph glyph-name="uni1EEA" unicode="&#x1eea;" horiz-adv-x="722" 
d="M77 692h130v-414c0 -143 76 -184 155 -184c92 0 153 47 153 184v414h76c32 8 47 27 47 53c0 23 -5 44 -11 63h109c6 -15 9 -38 9 -60c0 -59 -31 -112 -100 -130v-333c0 -233 -134 -294 -285 -294c-152 0 -283 65 -283 290v411zM149 883h156l128 -139h-117z" />
    <glyph glyph-name="uni1EEC" unicode="&#x1eec;" horiz-adv-x="722" 
d="M77 692h130v-414c0 -143 76 -184 155 -184c92 0 153 47 153 184v414h76c32 8 47 27 47 53c0 23 -5 44 -11 63h109c6 -15 9 -38 9 -60c0 -59 -31 -112 -100 -130v-333c0 -233 -134 -294 -285 -294c-152 0 -283 65 -283 290v411zM408 744h-101c37 34 52 53 52 80
c0 17 -11 31 -37 31c-23 0 -37 -5 -55 -15l-25 69c25 16 59 31 110 31c72 0 112 -41 112 -93c0 -48 -31 -81 -56 -103z" />
    <glyph glyph-name="uni1EEE" unicode="&#x1eee;" horiz-adv-x="722" 
d="M77 692h130v-414c0 -143 76 -184 155 -184c92 0 153 47 153 184v414h76c32 8 47 27 47 53c0 23 -5 44 -11 63h109c6 -15 9 -38 9 -60c0 -59 -31 -112 -100 -130v-333c0 -233 -134 -294 -285 -294c-152 0 -283 65 -283 290v411zM265 760h-82v30c0 79 36 104 92 104
c66 0 122 -48 156 -48c16 0 28 8 28 38v9h80v-23c0 -89 -36 -115 -95 -115c-55 0 -118 48 -153 48c-15 0 -26 -8 -26 -28v-15z" />
    <glyph glyph-name="uni1EF0" unicode="&#x1ef0;" horiz-adv-x="722" 
d="M77 692h130v-414c0 -143 76 -184 155 -184c92 0 153 47 153 184v414h76c32 8 47 27 47 53c0 23 -5 44 -11 63h109c6 -15 9 -38 9 -60c0 -59 -31 -112 -100 -130v-333c0 -233 -134 -294 -285 -294c-152 0 -283 65 -283 290v411zM425 -195h-129v129h129v-129z" />
    <glyph glyph-name="Wgrave" unicode="&#x1e80;" horiz-adv-x="946" 
d="M334 0h-136l-179 692h138c61 -287 106 -478 116 -555h1c23 114 100 384 142 555h119c37 -141 116 -437 136 -549h1c22 141 100 429 129 549h127l-193 -692h-135c-38 155 -109 415 -131 522h-1c-23 -117 -95 -376 -134 -522zM251 890h156l128 -139h-117z" />
    <glyph glyph-name="Wacute" unicode="&#x1e82;" horiz-adv-x="946" 
d="M334 0h-136l-179 692h138c61 -287 106 -478 116 -555h1c23 114 100 384 142 555h119c37 -141 116 -437 136 -549h1c22 141 100 429 129 549h127l-193 -692h-135c-38 155 -109 415 -131 522h-1c-23 -117 -95 -376 -134 -522zM551 890h154l-175 -139h-119z" />
    <glyph glyph-name="Wcircumflex" unicode="&#x174;" horiz-adv-x="946" 
d="M334 0h-136l-179 692h138c61 -287 106 -478 116 -555h1c23 114 100 384 142 555h119c37 -141 116 -437 136 -549h1c22 141 100 429 129 549h127l-193 -692h-135c-38 155 -109 415 -131 522h-1c-23 -117 -95 -376 -134 -522zM413 887h124l128 -136h-118l-73 75l-74 -75
h-119z" />
    <glyph glyph-name="Wdieresis" unicode="&#x1e84;" horiz-adv-x="946" 
d="M334 0h-136l-179 692h138c61 -287 106 -478 116 -555h1c23 114 100 384 142 555h119c37 -141 116 -437 136 -549h1c22 141 100 429 129 549h127l-193 -692h-135c-38 155 -109 415 -131 522h-1c-23 -117 -95 -376 -134 -522zM425 760h-102v121h102v-121zM623 760h-102v121
h102v-121z" />
    <glyph glyph-name="Ygrave" unicode="&#x1ef2;" horiz-adv-x="610" 
d="M368 0h-130v248c0 7 -2 14 -6 21l-240 423h147c57 -107 137 -260 170 -330c30 68 115 225 172 330h137l-245 -423c-3 -4 -5 -8 -5 -20v-249zM93 887h156l128 -139h-117z" />
    <glyph glyph-name="Yacute" unicode="&#xdd;" horiz-adv-x="610" 
d="M368 0h-130v248c0 7 -2 14 -6 21l-240 423h147c57 -107 137 -260 170 -330c30 68 115 225 172 330h137l-245 -423c-3 -4 -5 -8 -5 -20v-249zM378 885h154l-175 -139h-119z" />
    <glyph glyph-name="Ycircumflex" unicode="&#x176;" horiz-adv-x="610" 
d="M368 0h-130v248c0 7 -2 14 -6 21l-240 423h147c57 -107 137 -260 170 -330c30 68 115 225 172 330h137l-245 -423c-3 -4 -5 -8 -5 -20v-249zM245 887h124l128 -136h-118l-73 75l-74 -75h-119z" />
    <glyph glyph-name="Ydieresis" unicode="&#x178;" horiz-adv-x="610" 
d="M368 0h-130v248c0 7 -2 14 -6 21l-240 423h147c57 -107 137 -260 170 -330c30 68 115 225 172 330h137l-245 -423c-3 -4 -5 -8 -5 -20v-249zM257 760h-102v121h102v-121zM455 760h-102v121h102v-121z" />
    <glyph glyph-name="uni1E8E" unicode="&#x1e8e;" horiz-adv-x="610" 
d="M368 0h-130v248c0 7 -2 14 -6 21l-240 423h147c57 -107 137 -260 170 -330c30 68 115 225 172 330h137l-245 -423c-3 -4 -5 -8 -5 -20v-249zM367 755h-124v121h124v-121z" />
    <glyph glyph-name="uni1EF4" unicode="&#x1ef4;" horiz-adv-x="610" 
d="M368 0h-130v248c0 7 -2 14 -6 21l-240 423h147c57 -107 137 -260 170 -330c30 68 115 225 172 330h137l-245 -423c-3 -4 -5 -8 -5 -20v-249zM367 -195h-129v129h129v-129z" />
    <glyph glyph-name="uni1EF6" unicode="&#x1ef6;" horiz-adv-x="610" 
d="M368 0h-130v248c0 7 -2 14 -6 21l-240 423h147c57 -107 137 -260 170 -330c30 68 115 225 172 330h137l-245 -423c-3 -4 -5 -8 -5 -20v-249zM354 739h-101c37 34 52 53 52 80c0 17 -11 31 -37 31c-23 0 -37 -5 -55 -15l-25 69c25 16 59 31 110 31c72 0 112 -41 112 -93
c0 -48 -31 -81 -56 -103z" />
    <glyph glyph-name="uni1EF8" unicode="&#x1ef8;" horiz-adv-x="610" 
d="M368 0h-130v248c0 7 -2 14 -6 21l-240 423h147c57 -107 137 -260 170 -330c30 68 115 225 172 330h137l-245 -423c-3 -4 -5 -8 -5 -20v-249zM209 760h-82v30c0 79 36 104 92 104c66 0 122 -48 156 -48c16 0 28 8 28 38v9h80v-23c0 -89 -36 -115 -95 -115
c-55 0 -118 48 -153 48c-15 0 -26 -8 -26 -28v-15z" />
    <glyph glyph-name="Zacute" unicode="&#x179;" horiz-adv-x="610" 
d="M30 0v96l393 488h-375v108h523v-106l-383 -479h401l-17 -107h-542zM371 893h154l-175 -139h-119z" />
    <glyph glyph-name="Zcaron" unicode="&#x17d;" horiz-adv-x="610" 
d="M30 0v96l393 488h-375v108h523v-106l-383 -479h401l-17 -107h-542zM363 758h-119l-131 136h118l73 -75l74 75h119z" />
    <glyph glyph-name="Zdotaccent" unicode="&#x17b;" horiz-adv-x="610" 
d="M30 0v96l393 488h-375v108h523v-106l-383 -479h401l-17 -107h-542zM367 767h-124v121h124v-121z" />
    <glyph glyph-name="uni1E92" unicode="&#x1e92;" horiz-adv-x="610" 
d="M30 0v96l393 488h-375v108h523v-106l-383 -479h401l-17 -107h-542zM369 -195h-129v129h129v-129z" />
    <glyph glyph-name="Eth" unicode="&#xd0;" horiz-adv-x="740" 
d="M17 401h78v291h265c199 0 331 -133 331 -338c0 -203 -128 -354 -336 -354h-260v310h-78v91zM225 586v-185h158v-91h-158v-204h124c143 0 208 105 208 247c0 121 -61 233 -208 233h-124z" />
    <glyph glyph-name="Thorn" unicode="&#xde;" horiz-adv-x="649" 
d="M85 0v692h130v-131h146c165 0 241 -93 241 -206c0 -131 -93 -214 -248 -214h-139v-141h-130zM215 456v-210h131c76 0 127 26 127 107c0 67 -47 103 -125 103h-133z" />
    <glyph glyph-name="uni018F" unicode="&#x18f;" horiz-adv-x="725" 
d="M675 353c0 -204 -105 -363 -321 -363c-219 0 -309 154 -309 334c0 13 1 32 3 54h495c-3 126 -61 218 -189 218c-97 0 -146 -40 -175 -105h-125c30 104 122 211 305 211c217 0 317 -166 316 -349zM540 282h-362c2 -118 71 -188 178 -188c108 0 171 67 184 188z" />
    <glyph glyph-name="agrave" unicode="&#xe0;" horiz-adv-x="549" 
d="M480 352v-226c0 -48 4 -113 7 -126h-119c-4 11 -7 37 -8 56c-18 -31 -55 -68 -149 -68c-123 0 -175 81 -175 160c0 116 93 170 244 170h78v35c0 40 -13 82 -90 82c-68 0 -82 -31 -89 -69h-119c7 84 60 161 213 160c134 -1 207 -54 207 -174zM359 225v15h-67
c-91 0 -131 -27 -131 -85c0 -42 28 -76 83 -76c102 0 115 70 115 146zM78 741h150l119 -150h-112z" />
    <glyph glyph-name="aacute" unicode="&#xe1;" horiz-adv-x="549" 
d="M480 352v-226c0 -48 4 -113 7 -126h-119c-4 11 -7 37 -8 56c-18 -31 -55 -68 -149 -68c-123 0 -175 81 -175 160c0 116 93 170 244 170h78v35c0 40 -13 82 -90 82c-68 0 -82 -31 -89 -69h-119c7 84 60 161 213 160c134 -1 207 -54 207 -174zM359 225v15h-67
c-91 0 -131 -27 -131 -85c0 -42 28 -76 83 -76c102 0 115 70 115 146zM322 741h149l-157 -150h-111z" />
    <glyph glyph-name="acircumflex" unicode="&#xe2;" horiz-adv-x="549" 
d="M480 352v-226c0 -48 4 -113 7 -126h-119c-4 11 -7 37 -8 56c-18 -31 -55 -68 -149 -68c-123 0 -175 81 -175 160c0 116 93 170 244 170h78v35c0 40 -13 82 -90 82c-68 0 -82 -31 -89 -69h-119c7 84 60 161 213 160c134 -1 207 -54 207 -174zM359 225v15h-67
c-91 0 -131 -27 -131 -85c0 -42 28 -76 83 -76c102 0 115 70 115 146zM220 731h109l115 -150h-114l-57 83l-53 -83h-114z" />
    <glyph glyph-name="atilde" unicode="&#xe3;" horiz-adv-x="549" 
d="M480 352v-226c0 -48 4 -113 7 -126h-119c-4 11 -7 37 -8 56c-18 -31 -55 -68 -149 -68c-123 0 -175 81 -175 160c0 116 93 170 244 170h78v35c0 40 -13 82 -90 82c-68 0 -82 -31 -89 -69h-119c7 84 60 161 213 160c134 -1 207 -54 207 -174zM359 225v15h-67
c-91 0 -131 -27 -131 -85c0 -42 28 -76 83 -76c102 0 115 70 115 146zM190 594h-81v31c0 78 36 105 89 105c58 0 103 -45 136 -45c17 0 27 8 27 37v9h80v-24c0 -88 -39 -115 -93 -115c-61 0 -99 44 -134 44c-15 0 -24 -7 -24 -27v-15z" />
    <glyph glyph-name="adieresis" unicode="&#xe4;" horiz-adv-x="549" 
d="M480 352v-226c0 -48 4 -113 7 -126h-119c-4 11 -7 37 -8 56c-18 -31 -55 -68 -149 -68c-123 0 -175 81 -175 160c0 116 93 170 244 170h78v35c0 40 -13 82 -90 82c-68 0 -82 -31 -89 -69h-119c7 84 60 161 213 160c134 -1 207 -54 207 -174zM359 225v15h-67
c-91 0 -131 -27 -131 -85c0 -42 28 -76 83 -76c102 0 115 70 115 146zM230 609h-102v121h102v-121zM422 609h-102v121h102v-121z" />
    <glyph glyph-name="amacron" unicode="&#x101;" horiz-adv-x="549" 
d="M480 352v-226c0 -48 4 -113 7 -126h-119c-4 11 -7 37 -8 56c-18 -31 -55 -68 -149 -68c-123 0 -175 81 -175 160c0 116 93 170 244 170h78v35c0 40 -13 82 -90 82c-68 0 -82 -31 -89 -69h-119c7 84 60 161 213 160c134 -1 207 -54 207 -174zM359 225v15h-67
c-91 0 -131 -27 -131 -85c0 -42 28 -76 83 -76c102 0 115 70 115 146zM129 706h292v-94h-292v94z" />
    <glyph glyph-name="abreve" unicode="&#x103;" horiz-adv-x="549" 
d="M480 352v-226c0 -48 4 -113 7 -126h-119c-4 11 -7 37 -8 56c-18 -31 -55 -68 -149 -68c-123 0 -175 81 -175 160c0 116 93 170 244 170h78v35c0 40 -13 82 -90 82c-68 0 -82 -31 -89 -69h-119c7 84 60 161 213 160c134 -1 207 -54 207 -174zM359 225v15h-67
c-91 0 -131 -27 -131 -85c0 -42 28 -76 83 -76c102 0 115 70 115 146zM120 726h87c8 -32 27 -58 68 -58c48 0 60 28 68 58h86c-10 -76 -55 -144 -156 -144c-106 0 -148 73 -153 144z" />
    <glyph glyph-name="aring" unicode="&#xe5;" horiz-adv-x="549" 
d="M480 352v-226c0 -48 4 -113 7 -126h-119c-4 11 -7 37 -8 56c-18 -31 -55 -68 -149 -68c-123 0 -175 81 -175 160c0 116 93 170 244 170h78v35c0 40 -13 82 -90 82c-68 0 -82 -31 -89 -69h-119c7 84 60 161 213 160c134 -1 207 -54 207 -174zM359 225v15h-67
c-91 0 -131 -27 -131 -85c0 -42 28 -76 83 -76c102 0 115 70 115 146zM276 569c-73 0 -117 44 -117 100s42 102 116 102s116 -43 116 -100c0 -59 -45 -102 -115 -102zM274 624c34 0 50 22 50 46c0 23 -15 47 -49 47c-35 0 -49 -23 -49 -46s14 -47 48 -47z" />
    <glyph glyph-name="uni01CE" unicode="&#x1ce;" horiz-adv-x="549" 
d="M480 352v-226c0 -48 4 -113 7 -126h-119c-4 11 -7 37 -8 56c-18 -31 -55 -68 -149 -68c-123 0 -175 81 -175 160c0 116 93 170 244 170h78v35c0 40 -13 82 -90 82c-68 0 -82 -31 -89 -69h-119c7 84 60 161 213 160c134 -1 207 -54 207 -174zM359 225v15h-67
c-91 0 -131 -27 -131 -85c0 -42 28 -76 83 -76c102 0 115 70 115 146zM330 581h-111l-113 150h113l57 -83l54 83h114z" />
    <glyph glyph-name="uni1EA1" unicode="&#x1ea1;" horiz-adv-x="549" 
d="M480 352v-226c0 -48 4 -113 7 -126h-119c-4 11 -7 37 -8 56c-18 -31 -55 -68 -149 -68c-123 0 -175 81 -175 160c0 116 93 170 244 170h78v35c0 40 -13 82 -90 82c-68 0 -82 -31 -89 -69h-119c7 84 60 161 213 160c134 -1 207 -54 207 -174zM359 225v15h-67
c-91 0 -131 -27 -131 -85c0 -42 28 -76 83 -76c102 0 115 70 115 146zM339 -195h-129v129h129v-129z" />
    <glyph glyph-name="uni1EA3" unicode="&#x1ea3;" horiz-adv-x="549" 
d="M480 352v-226c0 -48 4 -113 7 -126h-119c-4 11 -7 37 -8 56c-18 -31 -55 -68 -149 -68c-123 0 -175 81 -175 160c0 116 93 170 244 170h78v35c0 40 -13 82 -90 82c-68 0 -82 -31 -89 -69h-119c7 84 60 161 213 160c134 -1 207 -54 207 -174zM359 225v15h-67
c-91 0 -131 -27 -131 -85c0 -42 28 -76 83 -76c102 0 115 70 115 146zM324 581h-101c37 34 52 53 52 80c0 17 -11 31 -37 31c-23 0 -37 -5 -55 -15l-25 69c25 16 59 31 110 31c72 0 112 -41 112 -93c0 -48 -31 -81 -56 -103z" />
    <glyph glyph-name="uni1EA5" unicode="&#x1ea5;" horiz-adv-x="549" 
d="M480 352v-226c0 -48 4 -113 7 -126h-119c-4 11 -7 37 -8 56c-18 -31 -55 -68 -149 -68c-123 0 -175 81 -175 160c0 116 93 170 244 170h78v35c0 40 -13 82 -90 82c-68 0 -82 -31 -89 -69h-119c7 84 60 161 213 160c134 -1 207 -54 207 -174zM359 225v15h-67
c-91 0 -131 -27 -131 -85c0 -42 28 -76 83 -76c102 0 115 70 115 146zM214 704h122l104 -132h-107l-59 74l-58 -74h-106zM499 817h123l-137 -132h-91z" />
    <glyph glyph-name="uni1EA7" unicode="&#x1ea7;" horiz-adv-x="549" 
d="M480 352v-226c0 -48 4 -113 7 -126h-119c-4 11 -7 37 -8 56c-18 -31 -55 -68 -149 -68c-123 0 -175 81 -175 160c0 116 93 170 244 170h78v35c0 40 -13 82 -90 82c-68 0 -82 -31 -89 -69h-119c7 84 60 161 213 160c134 -1 207 -54 207 -174zM359 225v15h-67
c-91 0 -131 -27 -131 -85c0 -42 28 -76 83 -76c102 0 115 70 115 146zM214 704h122l104 -132h-107l-59 74l-58 -74h-106zM328 811h126l106 -135h-96z" />
    <glyph glyph-name="uni1EA9" unicode="&#x1ea9;" horiz-adv-x="549" 
d="M480 352v-226c0 -48 4 -113 7 -126h-119c-4 11 -7 37 -8 56c-18 -31 -55 -68 -149 -68c-123 0 -175 81 -175 160c0 116 93 170 244 170h78v35c0 40 -13 82 -90 82c-68 0 -82 -31 -89 -69h-119c7 84 60 161 213 160c134 -1 207 -54 207 -174zM359 225v15h-67
c-91 0 -131 -27 -131 -85c0 -42 28 -76 83 -76c102 0 115 70 115 146zM497 677h-91c35 28 52 51 52 70c0 16 -10 27 -31 27c-18 0 -37 -6 -52 -17l-21 57c19 15 50 31 97 31c62 0 93 -31 93 -80c0 -39 -21 -69 -47 -88zM214 704h122l104 -132h-107l-59 74l-58 -74h-106z" />
    <glyph glyph-name="uni1EAB" unicode="&#x1eab;" horiz-adv-x="549" 
d="M480 352v-226c0 -48 4 -113 7 -126h-119c-4 11 -7 37 -8 56c-18 -31 -55 -68 -149 -68c-123 0 -175 81 -175 160c0 116 93 170 244 170h78v35c0 40 -13 82 -90 82c-68 0 -82 -31 -89 -69h-119c7 84 60 161 213 160c134 -1 207 -54 207 -174zM359 225v15h-67
c-91 0 -131 -27 -131 -85c0 -42 28 -76 83 -76c102 0 115 70 115 146zM194 724h-69v11c0 70 35 95 80 95c57 0 96 -34 125 -34c16 0 26 5 26 25v7h67v-12c0 -71 -37 -93 -82 -93c-50 0 -89 34 -122 34c-15 0 -25 -9 -25 -27v-6zM211 681h125l111 -109h-113l-62 58l-59 -58
h-111z" />
    <glyph glyph-name="uni1EAD" unicode="&#x1ead;" horiz-adv-x="549" 
d="M480 352v-226c0 -48 4 -113 7 -126h-119c-4 11 -7 37 -8 56c-18 -31 -55 -68 -149 -68c-123 0 -175 81 -175 160c0 116 93 170 244 170h78v35c0 40 -13 82 -90 82c-68 0 -82 -31 -89 -69h-119c7 84 60 161 213 160c134 -1 207 -54 207 -174zM359 225v15h-67
c-91 0 -131 -27 -131 -85c0 -42 28 -76 83 -76c102 0 115 70 115 146zM339 -195h-129v129h129v-129zM220 731h109l115 -150h-114l-57 83l-53 -83h-114z" />
    <glyph glyph-name="uni1EAF" unicode="&#x1eaf;" horiz-adv-x="549" 
d="M480 352v-226c0 -48 4 -113 7 -126h-119c-4 11 -7 37 -8 56c-18 -31 -55 -68 -149 -68c-123 0 -175 81 -175 160c0 116 93 170 244 170h78v35c0 40 -13 82 -90 82c-68 0 -82 -31 -89 -69h-119c7 84 60 161 213 160c134 -1 207 -54 207 -174zM359 225v15h-67
c-91 0 -131 -27 -131 -85c0 -42 28 -76 83 -76c102 0 115 70 115 146zM115 700h87c9 -28 30 -50 72 -50c48 0 65 25 72 50h86c-12 -68 -56 -127 -159 -127c-105 0 -148 67 -158 127zM318 838h127l-126 -112h-100z" />
    <glyph glyph-name="uni1EB1" unicode="&#x1eb1;" horiz-adv-x="549" 
d="M480 352v-226c0 -48 4 -113 7 -126h-119c-4 11 -7 37 -8 56c-18 -31 -55 -68 -149 -68c-123 0 -175 81 -175 160c0 116 93 170 244 170h78v35c0 40 -13 82 -90 82c-68 0 -82 -31 -89 -69h-119c7 84 60 161 213 160c134 -1 207 -54 207 -174zM359 225v15h-67
c-91 0 -131 -27 -131 -85c0 -42 28 -76 83 -76c102 0 115 70 115 146zM116 700h87c9 -28 30 -50 72 -50c48 0 65 25 72 50h86c-12 -68 -56 -127 -159 -127c-105 0 -148 67 -158 127zM106 838h131l99 -112h-101z" />
    <glyph glyph-name="uni1EB3" unicode="&#x1eb3;" horiz-adv-x="549" 
d="M480 352v-226c0 -48 4 -113 7 -126h-119c-4 11 -7 37 -8 56c-18 -31 -55 -68 -149 -68c-123 0 -175 81 -175 160c0 116 93 170 244 170h78v35c0 40 -13 82 -90 82c-68 0 -82 -31 -89 -69h-119c7 84 60 161 213 160c134 -1 207 -54 207 -174zM359 225v15h-67
c-91 0 -131 -27 -131 -85c0 -42 28 -76 83 -76c102 0 115 70 115 146zM308 720h-85c37 28 55 50 55 69c0 18 -10 28 -31 28c-20 0 -37 -7 -52 -18l-21 56c18 15 49 33 96 33c63 0 94 -31 94 -81c0 -39 -26 -69 -56 -87zM116 700h87c9 -28 30 -50 72 -50c48 0 65 25 72 50h86
c-12 -68 -56 -127 -159 -127c-105 0 -148 67 -158 127z" />
    <glyph glyph-name="uni1EB5" unicode="&#x1eb5;" horiz-adv-x="549" 
d="M480 352v-226c0 -48 4 -113 7 -126h-119c-4 11 -7 37 -8 56c-18 -31 -55 -68 -149 -68c-123 0 -175 81 -175 160c0 116 93 170 244 170h78v35c0 40 -13 82 -90 82c-68 0 -82 -31 -89 -69h-119c7 84 60 161 213 160c134 -1 207 -54 207 -174zM359 225v15h-67
c-91 0 -131 -27 -131 -85c0 -42 28 -76 83 -76c102 0 115 70 115 146zM195 739h-69v10c0 70 36 95 80 95c57 0 95 -33 125 -33c15 0 26 4 26 25v7h67v-13c0 -70 -37 -92 -82 -92c-50 0 -89 33 -122 33c-15 0 -25 -8 -25 -27v-5zM126 694h82c10 -22 28 -43 67 -43
c46 0 60 23 67 43h83c-11 -63 -58 -119 -151 -119c-96 0 -140 62 -148 119z" />
    <glyph glyph-name="uni1EB7" unicode="&#x1eb7;" horiz-adv-x="549" 
d="M480 352v-226c0 -48 4 -113 7 -126h-119c-4 11 -7 37 -8 56c-18 -31 -55 -68 -149 -68c-123 0 -175 81 -175 160c0 116 93 170 244 170h78v35c0 40 -13 82 -90 82c-68 0 -82 -31 -89 -69h-119c7 84 60 161 213 160c134 -1 207 -54 207 -174zM359 225v15h-67
c-91 0 -131 -27 -131 -85c0 -42 28 -76 83 -76c102 0 115 70 115 146zM120 726h87c8 -32 27 -58 68 -58c48 0 60 28 68 58h86c-10 -76 -55 -144 -156 -144c-106 0 -148 73 -153 144zM348 -195h-129v129h129v-129z" />
    <glyph glyph-name="aogonek" unicode="&#x105;" horiz-adv-x="549" 
d="M480 352v-226c0 -48 4 -113 7 -126h-2c-36 -28 -63 -60 -63 -95c0 -30 21 -46 52 -46c23 0 37 2 50 6v-87c-23 -11 -53 -15 -86 -15c-78 0 -126 41 -126 114c0 49 28 92 60 123h-4c-4 11 -7 37 -8 56c-18 -31 -55 -68 -149 -68c-123 0 -175 81 -175 160
c0 116 93 170 244 170h78v35c0 40 -13 82 -90 82c-68 0 -82 -31 -89 -69h-119c7 84 60 161 213 160c134 -1 207 -54 207 -174zM359 225v15h-67c-91 0 -131 -27 -131 -85c0 -42 28 -76 83 -76c102 0 115 70 115 146z" />
    <glyph glyph-name="ae" unicode="&#xe6;" horiz-adv-x="865" 
d="M702 152h124c-20 -74 -76 -162 -233 -162c-108 0 -163 47 -188 85c-45 -66 -113 -85 -185 -85c-126 0 -184 75 -184 157c0 143 152 167 280 167h47v39c0 42 -15 85 -82 85c-60 0 -80 -29 -87 -70h-132c8 101 86 156 209 156c92 0 146 -26 169 -66c25 30 79 66 165 66
c162 0 225 -121 225 -241v-50h-351c-1 -85 41 -149 119 -149c61 0 87 24 104 68zM363 221v12h-53c-92 0 -149 -17 -149 -78c0 -36 27 -71 85 -71c92 0 117 61 117 137zM481 314h227c-2 65 -30 117 -110 118c-73 1 -110 -48 -117 -118z" />
    <glyph glyph-name="ccedilla" unicode="&#xe7;" horiz-adv-x="527" 
d="M377 163h123c-16 -73 -62 -149 -166 -169l-36 -42c35 -8 90 -28 90 -94c0 -84 -78 -102 -135 -102c-32 0 -60 5 -74 11v70c14 -4 47 -7 59 -7c35 0 47 9 47 28c0 31 -46 37 -92 38v32l50 62c-133 14 -206 117 -206 264c0 149 89 272 245 272c164 0 214 -118 218 -179
h-122c-10 46 -37 80 -99 80c-74 0 -115 -64 -115 -169c0 -112 42 -172 114 -172c54 0 84 31 99 77z" />
    <glyph glyph-name="cacute" unicode="&#x107;" horiz-adv-x="527" 
d="M377 163h123c-19 -86 -79 -175 -225 -175c-154 0 -238 108 -238 266c0 149 89 272 245 272c164 0 214 -118 218 -179h-122c-10 46 -37 80 -99 80c-74 0 -115 -64 -115 -169c0 -112 42 -172 114 -172c54 0 84 31 99 77zM323 741h149l-157 -150h-111z" />
    <glyph glyph-name="ccircumflex" unicode="&#x109;" horiz-adv-x="527" 
d="M377 163h123c-19 -86 -79 -175 -225 -175c-154 0 -238 108 -238 266c0 149 89 272 245 272c164 0 214 -118 218 -179h-122c-10 46 -37 80 -99 80c-74 0 -115 -64 -115 -169c0 -112 42 -172 114 -172c54 0 84 31 99 77zM226 731h109l115 -150h-114l-57 83l-53 -83h-114z
" />
    <glyph glyph-name="ccaron" unicode="&#x10d;" horiz-adv-x="527" 
d="M377 163h123c-19 -86 -79 -175 -225 -175c-154 0 -238 108 -238 266c0 149 89 272 245 272c164 0 214 -118 218 -179h-122c-10 46 -37 80 -99 80c-74 0 -115 -64 -115 -169c0 -112 42 -172 114 -172c54 0 84 31 99 77zM336 581h-111l-113 150h113l57 -83l54 83h114z" />
    <glyph glyph-name="cdotaccent" unicode="&#x10b;" horiz-adv-x="527" 
d="M377 163h123c-19 -86 -79 -175 -225 -175c-154 0 -238 108 -238 266c0 149 89 272 245 272c164 0 214 -118 218 -179h-122c-10 46 -37 80 -99 80c-74 0 -115 -64 -115 -169c0 -112 42 -172 114 -172c54 0 84 31 99 77zM342 609h-122v121h122v-121z" />
    <glyph glyph-name="dcaron" unicode="&#x10f;" horiz-adv-x="646" 
d="M401 731h124v-588c0 -48 0 -95 1 -143h-120c-2 15 -5 46 -5 60c-25 -45 -72 -72 -152 -72c-130 0 -213 105 -213 264s88 274 233 274c79 0 119 -30 132 -55v260zM164 256c0 -108 46 -167 120 -167c105 0 121 84 121 171c0 97 -16 165 -117 165c-80 0 -124 -63 -124 -169z
M668 467h-83l-5 264h93z" />
    <glyph glyph-name="uni1E0D" unicode="&#x1e0d;" horiz-adv-x="591" 
d="M401 731h124v-588c0 -48 0 -95 1 -143h-120c-2 15 -5 46 -5 60c-25 -45 -72 -72 -152 -72c-130 0 -213 105 -213 264s88 274 233 274c79 0 119 -30 132 -55v260zM164 256c0 -108 46 -167 120 -167c105 0 121 84 121 171c0 97 -16 165 -117 165c-80 0 -124 -63 -124 -169z
M359 -195h-129v129h129v-129z" />
    <glyph glyph-name="uni1E0F" unicode="&#x1e0f;" horiz-adv-x="591" 
d="M401 731h124v-588c0 -48 0 -95 1 -143h-120c-2 15 -5 46 -5 60c-25 -45 -72 -72 -152 -72c-130 0 -213 105 -213 264s88 274 233 274c79 0 119 -30 132 -55v260zM164 256c0 -108 46 -167 120 -167c105 0 121 84 121 171c0 97 -16 165 -117 165c-80 0 -124 -63 -124 -169z
M149 -83h292v-94h-292v94z" />
    <glyph glyph-name="dcroat" unicode="&#x111;" horiz-adv-x="591" 
d="M401 731h124v-74h65v-76h-65v-438c0 -48 0 -95 1 -143h-120c-2 15 -5 52 -5 66c-27 -48 -67 -78 -155 -78c-135 0 -210 119 -210 260c0 148 88 270 233 270c81 0 120 -32 132 -57v120h-227v76h227v74zM164 256c0 -103 47 -167 118 -167c94 0 123 79 123 171
c0 80 -20 156 -115 156c-74 0 -126 -54 -126 -160z" />
    <glyph glyph-name="egrave" unicode="&#xe8;" horiz-adv-x="544" 
d="M508 231h-347c0 -77 39 -144 116 -144c66 0 87 30 101 63h125c-19 -64 -75 -162 -230 -162c-166 0 -237 128 -237 262c0 159 81 276 243 276c173 0 231 -129 231 -251c0 -17 0 -29 -2 -44zM164 310h221c-1 69 -31 125 -107 125s-107 -52 -114 -125zM79 741h150l119 -150
h-112z" />
    <glyph glyph-name="eacute" unicode="&#xe9;" horiz-adv-x="544" 
d="M508 231h-347c0 -77 39 -144 116 -144c66 0 87 30 101 63h125c-19 -64 -75 -162 -230 -162c-166 0 -237 128 -237 262c0 159 81 276 243 276c173 0 231 -129 231 -251c0 -17 0 -29 -2 -44zM164 310h221c-1 69 -31 125 -107 125s-107 -52 -114 -125zM322 741h149
l-157 -150h-111z" />
    <glyph glyph-name="ecircumflex" unicode="&#xea;" horiz-adv-x="544" 
d="M508 231h-347c0 -77 39 -144 116 -144c66 0 87 30 101 63h125c-19 -64 -75 -162 -230 -162c-166 0 -237 128 -237 262c0 159 81 276 243 276c173 0 231 -129 231 -251c0 -17 0 -29 -2 -44zM164 310h221c-1 69 -31 125 -107 125s-107 -52 -114 -125zM227 731h109l115 -150
h-114l-57 83l-53 -83h-114z" />
    <glyph glyph-name="ecaron" unicode="&#x11b;" horiz-adv-x="544" 
d="M508 231h-347c0 -77 39 -144 116 -144c66 0 87 30 101 63h125c-19 -64 -75 -162 -230 -162c-166 0 -237 128 -237 262c0 159 81 276 243 276c173 0 231 -129 231 -251c0 -17 0 -29 -2 -44zM164 310h221c-1 69 -31 125 -107 125s-107 -52 -114 -125zM337 581h-111
l-113 150h113l57 -83l54 83h114z" />
    <glyph glyph-name="edieresis" unicode="&#xeb;" horiz-adv-x="544" 
d="M508 231h-347c0 -77 39 -144 116 -144c66 0 87 30 101 63h125c-19 -64 -75 -162 -230 -162c-166 0 -237 128 -237 262c0 159 81 276 243 276c173 0 231 -129 231 -251c0 -17 0 -29 -2 -44zM164 310h221c-1 69 -31 125 -107 125s-107 -52 -114 -125zM234 609h-102v121h102
v-121zM426 609h-102v121h102v-121z" />
    <glyph glyph-name="emacron" unicode="&#x113;" horiz-adv-x="544" 
d="M508 231h-347c0 -77 39 -144 116 -144c66 0 87 30 101 63h125c-19 -64 -75 -162 -230 -162c-166 0 -237 128 -237 262c0 159 81 276 243 276c173 0 231 -129 231 -251c0 -17 0 -29 -2 -44zM164 310h221c-1 69 -31 125 -107 125s-107 -52 -114 -125zM136 706h292v-94h-292
v94z" />
    <glyph glyph-name="ebreve" unicode="&#x115;" horiz-adv-x="544" 
d="M508 231h-347c0 -77 39 -144 116 -144c66 0 87 30 101 63h125c-19 -64 -75 -162 -230 -162c-166 0 -237 128 -237 262c0 159 81 276 243 276c173 0 231 -129 231 -251c0 -17 0 -29 -2 -44zM164 310h221c-1 69 -31 125 -107 125s-107 -52 -114 -125zM127 726h87
c8 -32 27 -58 68 -58c48 0 60 28 68 58h86c-10 -76 -55 -144 -156 -144c-106 0 -148 73 -153 144z" />
    <glyph glyph-name="edotaccent" unicode="&#x117;" horiz-adv-x="544" 
d="M508 231h-347c0 -77 39 -144 116 -144c66 0 87 30 101 63h125c-19 -64 -75 -162 -230 -162c-166 0 -237 128 -237 262c0 159 81 276 243 276c173 0 231 -129 231 -251c0 -17 0 -29 -2 -44zM164 310h221c-1 69 -31 125 -107 125s-107 -52 -114 -125zM343 609h-122v121h122
v-121z" />
    <glyph glyph-name="uni1EB9" unicode="&#x1eb9;" horiz-adv-x="544" 
d="M508 231h-347c0 -77 39 -144 116 -144c66 0 87 30 101 63h125c-19 -64 -75 -162 -230 -162c-166 0 -237 128 -237 262c0 159 81 276 243 276c173 0 231 -129 231 -251c0 -17 0 -29 -2 -44zM164 310h221c-1 69 -31 125 -107 125s-107 -52 -114 -125zM346 -195h-129v129
h129v-129z" />
    <glyph glyph-name="uni1EBB" unicode="&#x1ebb;" horiz-adv-x="544" 
d="M508 231h-347c0 -77 39 -144 116 -144c66 0 87 30 101 63h125c-19 -64 -75 -162 -230 -162c-166 0 -237 128 -237 262c0 159 81 276 243 276c173 0 231 -129 231 -251c0 -17 0 -29 -2 -44zM164 310h221c-1 69 -31 125 -107 125s-107 -52 -114 -125zM330 578h-101
c37 34 52 53 52 80c0 17 -11 31 -37 31c-23 0 -37 -5 -55 -15l-25 69c25 16 59 31 110 31c72 0 112 -41 112 -93c0 -48 -31 -81 -56 -103z" />
    <glyph glyph-name="uni1EBD" unicode="&#x1ebd;" horiz-adv-x="544" 
d="M508 231h-347c0 -77 39 -144 116 -144c66 0 87 30 101 63h125c-19 -64 -75 -162 -230 -162c-166 0 -237 128 -237 262c0 159 81 276 243 276c173 0 231 -129 231 -251c0 -17 0 -29 -2 -44zM164 310h221c-1 69 -31 125 -107 125s-107 -52 -114 -125zM187 594h-81v31
c0 78 36 105 89 105c58 0 103 -45 136 -45c17 0 27 8 27 37v9h80v-24c0 -88 -39 -115 -93 -115c-61 0 -99 44 -134 44c-15 0 -24 -7 -24 -27v-15z" />
    <glyph glyph-name="uni1EBF" unicode="&#x1ebf;" horiz-adv-x="544" 
d="M508 231h-347c0 -77 39 -144 116 -144c66 0 87 30 101 63h125c-19 -64 -75 -162 -230 -162c-166 0 -237 128 -237 262c0 159 81 276 243 276c173 0 231 -129 231 -251c0 -17 0 -29 -2 -44zM164 310h221c-1 69 -31 125 -107 125s-107 -52 -114 -125zM213 704h122l104 -132
h-107l-59 74l-58 -74h-106zM498 817h123l-137 -132h-91z" />
    <glyph glyph-name="uni1EC1" unicode="&#x1ec1;" horiz-adv-x="544" 
d="M508 231h-347c0 -77 39 -144 116 -144c66 0 87 30 101 63h125c-19 -64 -75 -162 -230 -162c-166 0 -237 128 -237 262c0 159 81 276 243 276c173 0 231 -129 231 -251c0 -17 0 -29 -2 -44zM164 310h221c-1 69 -31 125 -107 125s-107 -52 -114 -125zM213 704h122l104 -132
h-107l-59 74l-58 -74h-106zM327 811h126l106 -135h-96z" />
    <glyph glyph-name="uni1EC3" unicode="&#x1ec3;" horiz-adv-x="544" 
d="M508 231h-347c0 -77 39 -144 116 -144c66 0 87 30 101 63h125c-19 -64 -75 -162 -230 -162c-166 0 -237 128 -237 262c0 159 81 276 243 276c173 0 231 -129 231 -251c0 -17 0 -29 -2 -44zM164 310h221c-1 69 -31 125 -107 125s-107 -52 -114 -125zM494 677h-91
c35 28 52 51 52 70c0 16 -10 27 -31 27c-18 0 -37 -6 -52 -17l-21 57c19 15 50 31 97 31c62 0 93 -31 93 -80c0 -39 -21 -69 -47 -88zM211 704h122l104 -132h-107l-59 74l-58 -74h-106z" />
    <glyph glyph-name="uni1EC5" unicode="&#x1ec5;" horiz-adv-x="544" 
d="M508 231h-347c0 -77 39 -144 116 -144c66 0 87 30 101 63h125c-19 -64 -75 -162 -230 -162c-166 0 -237 128 -237 262c0 159 81 276 243 276c173 0 231 -129 231 -251c0 -17 0 -29 -2 -44zM164 310h221c-1 69 -31 125 -107 125s-107 -52 -114 -125zM192 722h-69v11
c0 70 35 95 80 95c57 0 96 -34 125 -34c16 0 26 5 26 25v7h67v-12c0 -71 -37 -93 -82 -93c-50 0 -89 34 -122 34c-15 0 -25 -9 -25 -27v-6zM209 679h125l111 -109h-113l-62 58l-59 -58h-111z" />
    <glyph glyph-name="uni1EC7" unicode="&#x1ec7;" horiz-adv-x="544" 
d="M508 231h-347c0 -77 39 -144 116 -144c66 0 87 30 101 63h125c-19 -64 -75 -162 -230 -162c-166 0 -237 128 -237 262c0 159 81 276 243 276c173 0 231 -129 231 -251c0 -17 0 -29 -2 -44zM164 310h221c-1 69 -31 125 -107 125s-107 -52 -114 -125zM346 -195h-129v129
h129v-129zM227 731h109l115 -150h-114l-57 83l-53 -83h-114z" />
    <glyph glyph-name="eogonek" unicode="&#x119;" horiz-adv-x="544" 
d="M508 231h-347c0 -77 39 -144 116 -144c66 0 87 30 101 63h125c-13 -45 -45 -107 -117 -140c-35 -28 -62 -59 -62 -94c0 -30 21 -46 52 -46c23 0 37 2 50 6v-87c-23 -11 -53 -15 -86 -15c-78 0 -126 41 -126 114c0 38 17 72 40 101c-153 9 -218 132 -218 261
c0 159 81 276 243 276c173 0 231 -129 231 -251c0 -17 0 -29 -2 -44zM164 310h221c-1 69 -31 125 -107 125s-107 -52 -114 -125z" />
    <glyph glyph-name="gcircumflex" unicode="&#x11d;" horiz-adv-x="587" 
d="M521 366v-309c0 -165 -64 -266 -249 -266c-177 0 -218 99 -224 161h126c12 -42 45 -68 103 -68c101 0 122 62 122 169v30c-27 -49 -71 -78 -150 -78c-132 0 -213 108 -213 251c0 163 97 270 224 270c92 0 130 -43 139 -70c1 17 4 49 5 58h118c-1 -40 -1 -98 -1 -148z
M164 261c0 -95 49 -155 119 -155c94 0 120 65 120 160c0 97 -20 159 -117 159c-73 0 -122 -58 -122 -164zM238 731h109l115 -150h-114l-57 83l-53 -83h-114z" />
    <glyph glyph-name="gbreve" unicode="&#x11f;" horiz-adv-x="587" 
d="M521 366v-309c0 -165 -64 -266 -249 -266c-177 0 -218 99 -224 161h126c12 -42 45 -68 103 -68c101 0 122 62 122 169v30c-27 -49 -71 -78 -150 -78c-132 0 -213 108 -213 251c0 163 97 270 224 270c92 0 130 -43 139 -70c1 17 4 49 5 58h118c-1 -40 -1 -98 -1 -148z
M164 261c0 -95 49 -155 119 -155c94 0 120 65 120 160c0 97 -20 159 -117 159c-73 0 -122 -58 -122 -164zM138 726h87c8 -32 27 -58 68 -58c48 0 60 28 68 58h86c-10 -76 -55 -144 -156 -144c-106 0 -148 73 -153 144z" />
    <glyph glyph-name="gdotaccent" unicode="&#x121;" horiz-adv-x="587" 
d="M521 366v-309c0 -165 -64 -266 -249 -266c-177 0 -218 99 -224 161h126c12 -42 45 -68 103 -68c101 0 122 62 122 169v30c-27 -49 -71 -78 -150 -78c-132 0 -213 108 -213 251c0 163 97 270 224 270c92 0 130 -43 139 -70c1 17 4 49 5 58h118c-1 -40 -1 -98 -1 -148z
M164 261c0 -95 49 -155 119 -155c94 0 120 65 120 160c0 97 -20 159 -117 159c-73 0 -122 -58 -122 -164zM354 609h-122v121h122v-121z" />
    <glyph glyph-name="uni0123" unicode="&#x123;" horiz-adv-x="587" 
d="M294 786h108c-25 -57 -56 -136 -61 -199h-121c6 65 39 147 74 199zM521 366v-309c0 -165 -64 -266 -249 -266c-177 0 -218 99 -224 161h126c12 -42 45 -68 103 -68c101 0 122 62 122 169v30c-27 -49 -71 -78 -150 -78c-132 0 -213 108 -213 251c0 163 97 270 224 270
c92 0 130 -43 139 -70c1 17 4 49 5 58h118c-1 -40 -1 -98 -1 -148zM164 261c0 -95 49 -155 119 -155c94 0 120 65 120 160c0 97 -20 159 -117 159c-73 0 -122 -58 -122 -164z" />
    <glyph glyph-name="gcaron" unicode="&#x1e7;" horiz-adv-x="587" 
d="M521 366v-309c0 -165 -64 -266 -249 -266c-177 0 -218 99 -224 161h126c12 -42 45 -68 103 -68c101 0 122 62 122 169v30c-27 -49 -71 -78 -150 -78c-132 0 -213 108 -213 251c0 163 97 270 224 270c92 0 130 -43 139 -70c1 17 4 49 5 58h118c-1 -40 -1 -98 -1 -148z
M164 261c0 -95 49 -155 119 -155c94 0 120 65 120 160c0 97 -20 159 -117 159c-73 0 -122 -58 -122 -164zM347 581h-111l-113 150h113l57 -83l54 83h114z" />
    <glyph glyph-name="uni1E21" unicode="&#x1e21;" horiz-adv-x="587" 
d="M521 366v-309c0 -165 -64 -266 -249 -266c-177 0 -218 99 -224 161h126c12 -42 45 -68 103 -68c101 0 122 62 122 169v30c-27 -49 -71 -78 -150 -78c-132 0 -213 108 -213 251c0 163 97 270 224 270c92 0 130 -43 139 -70c1 17 4 49 5 58h118c-1 -40 -1 -98 -1 -148z
M164 261c0 -95 49 -155 119 -155c94 0 120 65 120 160c0 97 -20 159 -117 159c-73 0 -122 -58 -122 -164zM147 706h292v-94h-292v94z" />
    <glyph glyph-name="uni00670303" horiz-adv-x="587" 
d="M521 366v-309c0 -165 -64 -266 -249 -266c-177 0 -218 99 -224 161h126c12 -42 45 -68 103 -68c101 0 122 62 122 169v30c-27 -49 -71 -78 -150 -78c-132 0 -213 108 -213 251c0 163 97 270 224 270c92 0 130 -43 139 -70c1 17 4 49 5 58h118c-1 -40 -1 -98 -1 -148z
M164 261c0 -95 49 -155 119 -155c94 0 120 65 120 160c0 97 -20 159 -117 159c-73 0 -122 -58 -122 -164zM208 594h-81v31c0 78 36 105 89 105c58 0 103 -45 136 -45c17 0 27 8 27 37v9h80v-24c0 -88 -39 -115 -93 -115c-61 0 -99 44 -134 44c-15 0 -24 -7 -24 -27v-15z" />
    <glyph glyph-name="hcircumflex" unicode="&#x125;" horiz-adv-x="584" 
d="M52 897h157l107 -116h-123l-63 61l-61 -61h-123zM68 731h124v-283c24 38 67 78 152 78c91 0 172 -53 172 -197v-329h-123v310c0 74 -28 114 -93 114c-84 0 -108 -60 -108 -148v-276h-124v731z" />
    <glyph glyph-name="uni1E25" unicode="&#x1e25;" horiz-adv-x="584" 
d="M68 731h124v-283c24 38 67 78 152 78c91 0 172 -53 172 -197v-329h-123v310c0 74 -28 114 -93 114c-84 0 -108 -60 -108 -148v-276h-124v731zM356 -195h-129v129h129v-129z" />
    <glyph glyph-name="uni1E2B" unicode="&#x1e2b;" horiz-adv-x="584" 
d="M68 731h124v-283c24 38 67 78 152 78c91 0 172 -53 172 -197v-329h-123v310c0 74 -28 114 -93 114c-84 0 -108 -60 -108 -148v-276h-124v731zM137 -55h87c8 -32 27 -58 68 -58c48 0 60 28 68 58h86c-10 -76 -55 -144 -156 -144c-106 0 -148 73 -153 144z" />
    <glyph glyph-name="hbar" unicode="&#x127;" horiz-adv-x="584" 
d="M68 731h124v-74h208v-76h-208v-142c24 39 68 79 155 79c91 0 169 -49 169 -197v-321h-123v302c0 74 -27 113 -92 113c-78 0 -109 -59 -109 -142v-273h-124v581h-81v76h81v74z" />
    <glyph glyph-name="igrave" unicode="&#xec;" horiz-adv-x="260" 
d="M68 0v514h124v-514h-124zM-82 741h150l119 -150h-112z" />
    <glyph glyph-name="iacute" unicode="&#xed;" horiz-adv-x="260" 
d="M68 0v514h124v-514h-124zM191 741h149l-157 -150h-111z" />
    <glyph glyph-name="icircumflex" unicode="&#xee;" horiz-adv-x="260" 
d="M68 0v514h124v-514h-124zM75 731h109l115 -150h-114l-57 83l-53 -83h-114z" />
    <glyph glyph-name="itilde" unicode="&#x129;" horiz-adv-x="260" 
d="M68 0v514h124v-514h-124zM45 594h-81v31c0 78 36 105 89 105c58 0 103 -45 136 -45c17 0 27 8 27 37v9h80v-24c0 -88 -39 -115 -93 -115c-61 0 -99 44 -134 44c-15 0 -24 -7 -24 -27v-15z" />
    <glyph glyph-name="idieresis" unicode="&#xef;" horiz-adv-x="260" 
d="M68 0v514h124v-514h-124zM85 609h-102v121h102v-121zM277 609h-102v121h102v-121z" />
    <glyph glyph-name="imacron" unicode="&#x12b;" horiz-adv-x="260" 
d="M68 0v514h124v-514h-124zM-16 706h292v-94h-292v94z" />
    <glyph glyph-name="uni01D0" unicode="&#x1d0;" horiz-adv-x="260" 
d="M68 0v514h124v-514h-124zM185 581h-111l-113 150h113l57 -83l54 83h114z" />
    <glyph glyph-name="uni1EC9" unicode="&#x1ec9;" horiz-adv-x="260" 
d="M68 0v514h124v-514h-124zM179 581h-101c37 34 52 53 52 80c0 17 -11 31 -37 31c-23 0 -37 -5 -55 -15l-25 69c25 16 59 31 110 31c72 0 112 -41 112 -93c0 -48 -31 -81 -56 -103z" />
    <glyph glyph-name="uni1ECB" unicode="&#x1ecb;" horiz-adv-x="260" 
d="M68 0v514h124v-514h-124zM192 610h-124v121h124v-121zM194 -195h-129v129h129v-129z" />
    <glyph glyph-name="iogonek" unicode="&#x12f;" horiz-adv-x="260" 
d="M68 0v514h124v-514h-5c-36 -28 -63 -60 -63 -95c0 -30 21 -46 52 -46c23 0 37 2 50 6v-87c-23 -11 -53 -15 -86 -15c-78 0 -126 41 -126 114c0 49 28 92 60 123h-6zM192 610h-124v121h124v-121z" />
    <glyph glyph-name="dotlessi" unicode="&#x131;" horiz-adv-x="260" 
d="M68 0v514h124v-514h-124z" />
    <glyph glyph-name="jcircumflex" unicode="&#x135;" horiz-adv-x="260" 
d="M68 514h124v-513c0 -145 -30 -210 -162 -210c-10 0 -29 1 -40 2v101h16c49 0 62 23 62 83v537zM75 731h109l115 -150h-114l-57 83l-53 -83h-114z" />
    <glyph glyph-name="uni0137" unicode="&#x137;" horiz-adv-x="539" 
d="M192 731v-443c40 51 123 144 194 226h144l-184 -196l202 -318h-142l-144 238l-70 -67v-171h-124v731h124zM270 -258h-99c30 68 51 146 55 207h124c-6 -70 -42 -165 -80 -207z" />
    <glyph glyph-name="kgreenlandic" unicode="&#x138;" horiz-adv-x="536" 
d="M192 514v-231c41 54 137 165 190 231h144c-61 -69 -128 -137 -189 -203c66 -95 140 -211 208 -311h-142c-41 65 -105 160 -148 230l-63 -64v-166h-124v514h124z" />
    <glyph glyph-name="lacute" unicode="&#x13a;" horiz-adv-x="260" 
d="M187 910h153l-155 -125h-117zM192 0h-124v731h124v-731z" />
    <glyph glyph-name="lcaron" unicode="&#x13e;" horiz-adv-x="328" 
d="M192 0h-124v731h124v-731zM341 467h-83l-5 264h93z" />
    <glyph glyph-name="ldot" unicode="&#x140;" horiz-adv-x="329" 
d="M348 355h-111v159h111v-159zM192 0h-124v731h124v-731z" />
    <glyph glyph-name="uni013C" unicode="&#x13c;" horiz-adv-x="260" 
d="M192 0h-124v731h124v-731zM113 -258h-99c30 68 51 146 55 207h124c-6 -70 -42 -165 -80 -207z" />
    <glyph glyph-name="uni1E37" unicode="&#x1e37;" horiz-adv-x="260" 
d="M192 0h-124v731h124v-731zM194 -195h-129v129h129v-129z" />
    <glyph glyph-name="uni1E39" unicode="&#x1e39;" horiz-adv-x="260" 
d="M192 0h-124v731h124v-731zM-16 884h292v-94h-292v94zM194 -195h-129v129h129v-129z" />
    <glyph glyph-name="uni1E3B" unicode="&#x1e3b;" horiz-adv-x="260" 
d="M192 0h-124v731h124v-731zM-16 -83h292v-94h-292v94z" />
    <glyph glyph-name="lslash" unicode="&#x142;" horiz-adv-x="273" 
d="M198 0h-124v317l-60 -31v102l60 32v311h124v-246l69 36v-104l-69 -36v-381z" />
    <glyph glyph-name="uni1E43" unicode="&#x1e43;" horiz-adv-x="863" 
d="M68 0v382c0 44 0 89 -1 132h119c2 -13 4 -45 5 -67c25 41 68 79 145 79c73 0 117 -38 136 -83c29 44 75 83 160 83c88 0 163 -53 163 -189v-337h-122v322c0 51 -18 103 -84 103c-68 0 -96 -48 -96 -131v-294h-122v318c0 57 -15 106 -82 106s-98 -46 -98 -138v-286h-123z
M495 -195h-129v129h129v-129z" />
    <glyph glyph-name="nacute" unicode="&#x144;" horiz-adv-x="584" 
d="M69 0v385c0 44 0 90 -1 129h120c3 -14 5 -56 5 -72c18 36 60 84 153 84c101 0 171 -66 171 -198v-328h-124v314c0 64 -23 110 -91 110c-73 0 -109 -47 -109 -142v-282h-124zM341 741h149l-157 -150h-111z" />
    <glyph glyph-name="ncaron" unicode="&#x148;" horiz-adv-x="584" 
d="M69 0v385c0 44 0 90 -1 129h120c3 -14 5 -56 5 -72c18 36 60 84 153 84c101 0 171 -66 171 -198v-328h-124v314c0 64 -23 110 -91 110c-73 0 -109 -47 -109 -142v-282h-124zM346 588h-111l-113 150h113l57 -83l54 83h114z" />
    <glyph glyph-name="ntilde" unicode="&#xf1;" horiz-adv-x="584" 
d="M69 0v385c0 44 0 90 -1 129h120c3 -14 5 -56 5 -72c18 36 60 84 153 84c101 0 171 -66 171 -198v-328h-124v314c0 64 -23 110 -91 110c-73 0 -109 -47 -109 -142v-282h-124zM205 600h-81v31c0 78 36 105 89 105c58 0 103 -45 136 -45c17 0 27 8 27 37v9h80v-24
c0 -88 -39 -115 -93 -115c-61 0 -99 44 -134 44c-15 0 -24 -7 -24 -27v-15z" />
    <glyph glyph-name="uni0146" unicode="&#x146;" horiz-adv-x="584" 
d="M69 0v385c0 44 0 90 -1 129h120c3 -14 5 -56 5 -72c18 36 60 84 153 84c101 0 171 -66 171 -198v-328h-124v314c0 64 -23 110 -91 110c-73 0 -109 -47 -109 -142v-282h-124zM274 -258h-99c30 68 51 146 55 207h124c-6 -70 -42 -165 -80 -207z" />
    <glyph glyph-name="uni1E45" unicode="&#x1e45;" horiz-adv-x="584" 
d="M69 0v385c0 44 0 90 -1 129h120c3 -14 5 -56 5 -72c18 36 60 84 153 84c101 0 171 -66 171 -198v-328h-124v314c0 64 -23 110 -91 110c-73 0 -109 -47 -109 -142v-282h-124zM352 609h-122v121h122v-121z" />
    <glyph glyph-name="uni1E47" unicode="&#x1e47;" horiz-adv-x="584" 
d="M69 0v385c0 44 0 90 -1 129h120c3 -14 5 -56 5 -72c18 36 60 84 153 84c101 0 171 -66 171 -198v-328h-124v314c0 64 -23 110 -91 110c-73 0 -109 -47 -109 -142v-282h-124zM356 -195h-129v129h129v-129z" />
    <glyph glyph-name="uni1E49" unicode="&#x1e49;" horiz-adv-x="584" 
d="M69 0v385c0 44 0 90 -1 129h120c3 -14 5 -56 5 -72c18 36 60 84 153 84c101 0 171 -66 171 -198v-328h-124v314c0 64 -23 110 -91 110c-73 0 -109 -47 -109 -142v-282h-124zM146 -83h292v-94h-292v94z" />
    <glyph glyph-name="napostrophe" unicode="&#x149;" horiz-adv-x="584" 
d="M95 578h-90c19 61 30 129 33 206h117c-4 -71 -28 -157 -60 -206zM69 0v385c0 44 0 90 -1 129h120c3 -14 5 -56 5 -72c18 36 60 84 153 84c101 0 171 -66 171 -198v-328h-124v314c0 64 -23 110 -91 110c-73 0 -109 -47 -109 -142v-282h-124z" />
    <glyph glyph-name="ograve" unicode="&#xf2;" horiz-adv-x="570" 
d="M289 526c149 0 245 -107 245 -268c0 -153 -90 -270 -251 -270c-156 0 -247 114 -247 268c0 156 93 270 253 270zM284 427c-76 0 -122 -58 -122 -170c0 -104 47 -170 124 -170c78 0 121 65 121 169c0 111 -43 171 -123 171zM88 741h150l119 -150h-112z" />
    <glyph glyph-name="oacute" unicode="&#xf3;" horiz-adv-x="570" 
d="M289 526c149 0 245 -107 245 -268c0 -153 -90 -270 -251 -270c-156 0 -247 114 -247 268c0 156 93 270 253 270zM284 427c-76 0 -122 -58 -122 -170c0 -104 47 -170 124 -170c78 0 121 65 121 169c0 111 -43 171 -123 171zM333 741h149l-157 -150h-111z" />
    <glyph glyph-name="ocircumflex" unicode="&#xf4;" horiz-adv-x="570" 
d="M289 526c149 0 245 -107 245 -268c0 -153 -90 -270 -251 -270c-156 0 -247 114 -247 268c0 156 93 270 253 270zM284 427c-76 0 -122 -58 -122 -170c0 -104 47 -170 124 -170c78 0 121 65 121 169c0 111 -43 171 -123 171zM229 731h109l115 -150h-114l-57 83l-53 -83
h-114z" />
    <glyph glyph-name="otilde" unicode="&#xf5;" horiz-adv-x="570" 
d="M289 526c149 0 245 -107 245 -268c0 -153 -90 -270 -251 -270c-156 0 -247 114 -247 268c0 156 93 270 253 270zM284 427c-76 0 -122 -58 -122 -170c0 -104 47 -170 124 -170c78 0 121 65 121 169c0 111 -43 171 -123 171zM199 594h-81v31c0 78 36 105 89 105
c58 0 103 -45 136 -45c17 0 27 8 27 37v9h80v-24c0 -88 -39 -115 -93 -115c-61 0 -99 44 -134 44c-15 0 -24 -7 -24 -27v-15z" />
    <glyph glyph-name="odieresis" unicode="&#xf6;" horiz-adv-x="570" 
d="M289 526c149 0 245 -107 245 -268c0 -153 -90 -270 -251 -270c-156 0 -247 114 -247 268c0 156 93 270 253 270zM284 427c-76 0 -122 -58 -122 -170c0 -104 47 -170 124 -170c78 0 121 65 121 169c0 111 -43 171 -123 171zM239 609h-102v121h102v-121zM431 609h-102v121
h102v-121z" />
    <glyph glyph-name="omacron" unicode="&#x14d;" horiz-adv-x="570" 
d="M289 526c149 0 245 -107 245 -268c0 -153 -90 -270 -251 -270c-156 0 -247 114 -247 268c0 156 93 270 253 270zM284 427c-76 0 -122 -58 -122 -170c0 -104 47 -170 124 -170c78 0 121 65 121 169c0 111 -43 171 -123 171zM138 706h292v-94h-292v94z" />
    <glyph glyph-name="ohungarumlaut" unicode="&#x151;" horiz-adv-x="570" 
d="M289 526c149 0 245 -107 245 -268c0 -153 -90 -270 -251 -270c-156 0 -247 114 -247 268c0 156 93 270 253 270zM284 427c-76 0 -122 -58 -122 -170c0 -104 47 -170 124 -170c78 0 121 65 121 169c0 111 -43 171 -123 171zM219 580h-95l100 152h125zM416 580h-95l100 152
h125z" />
    <glyph glyph-name="uni01D2" unicode="&#x1d2;" horiz-adv-x="570" 
d="M289 526c149 0 245 -107 245 -268c0 -153 -90 -270 -251 -270c-156 0 -247 114 -247 268c0 156 93 270 253 270zM284 427c-76 0 -122 -58 -122 -170c0 -104 47 -170 124 -170c78 0 121 65 121 169c0 111 -43 171 -123 171zM339 581h-111l-113 150h113l57 -83l54 83h114z
" />
    <glyph glyph-name="uni1ECD" unicode="&#x1ecd;" horiz-adv-x="570" 
d="M289 526c149 0 245 -107 245 -268c0 -153 -90 -270 -251 -270c-156 0 -247 114 -247 268c0 156 93 270 253 270zM284 427c-76 0 -122 -58 -122 -170c0 -104 47 -170 124 -170c78 0 121 65 121 169c0 111 -43 171 -123 171zM348 -199h-129v129h129v-129z" />
    <glyph glyph-name="uni1ECF" unicode="&#x1ecf;" horiz-adv-x="570" 
d="M289 526c149 0 245 -107 245 -268c0 -153 -90 -270 -251 -270c-156 0 -247 114 -247 268c0 156 93 270 253 270zM284 427c-76 0 -122 -58 -122 -170c0 -104 47 -170 124 -170c78 0 121 65 121 169c0 111 -43 171 -123 171zM333 581h-101c37 34 52 53 52 80
c0 17 -11 31 -37 31c-23 0 -37 -5 -55 -15l-25 69c25 16 59 31 110 31c72 0 112 -41 112 -93c0 -48 -31 -81 -56 -103z" />
    <glyph glyph-name="uni1ED1" unicode="&#x1ed1;" horiz-adv-x="570" 
d="M289 526c149 0 245 -107 245 -268c0 -153 -90 -270 -251 -270c-156 0 -247 114 -247 268c0 156 93 270 253 270zM284 427c-76 0 -122 -58 -122 -170c0 -104 47 -170 124 -170c78 0 121 65 121 169c0 111 -43 171 -123 171zM223 704h122l104 -132h-107l-59 74l-58 -74
h-106zM508 817h123l-137 -132h-91z" />
    <glyph glyph-name="uni1ED3" unicode="&#x1ed3;" horiz-adv-x="570" 
d="M289 526c149 0 245 -107 245 -268c0 -153 -90 -270 -251 -270c-156 0 -247 114 -247 268c0 156 93 270 253 270zM284 427c-76 0 -122 -58 -122 -170c0 -104 47 -170 124 -170c78 0 121 65 121 169c0 111 -43 171 -123 171zM223 704h122l104 -132h-107l-59 74l-58 -74
h-106zM337 811h126l106 -135h-96z" />
    <glyph glyph-name="uni1ED5" unicode="&#x1ed5;" horiz-adv-x="570" 
d="M289 526c149 0 245 -107 245 -268c0 -153 -90 -270 -251 -270c-156 0 -247 114 -247 268c0 156 93 270 253 270zM284 427c-76 0 -122 -58 -122 -170c0 -104 47 -170 124 -170c78 0 121 65 121 169c0 111 -43 171 -123 171zM506 677h-91c35 28 52 51 52 70
c0 16 -10 27 -31 27c-18 0 -37 -6 -52 -17l-21 57c19 15 50 31 97 31c62 0 93 -31 93 -80c0 -39 -21 -69 -47 -88zM223 704h122l104 -132h-107l-59 74l-58 -74h-106z" />
    <glyph glyph-name="uni1ED7" unicode="&#x1ed7;" horiz-adv-x="570" 
d="M289 526c149 0 245 -107 245 -268c0 -153 -90 -270 -251 -270c-156 0 -247 114 -247 268c0 156 93 270 253 270zM284 427c-76 0 -122 -58 -122 -170c0 -104 47 -170 124 -170c78 0 121 65 121 169c0 111 -43 171 -123 171zM204 720h-69v11c0 70 35 95 80 95
c57 0 96 -34 125 -34c16 0 26 5 26 25v7h67v-12c0 -71 -37 -93 -82 -93c-50 0 -89 34 -122 34c-15 0 -25 -9 -25 -27v-6zM221 677h125l111 -109h-113l-62 58l-59 -58h-111z" />
    <glyph glyph-name="uni1ED9" unicode="&#x1ed9;" horiz-adv-x="570" 
d="M289 526c149 0 245 -107 245 -268c0 -153 -90 -270 -251 -270c-156 0 -247 114 -247 268c0 156 93 270 253 270zM284 427c-76 0 -122 -58 -122 -170c0 -104 47 -170 124 -170c78 0 121 65 121 169c0 111 -43 171 -123 171zM348 -195h-129v129h129v-129zM229 731h109
l115 -150h-114l-57 83l-53 -83h-114z" />
    <glyph glyph-name="oslash" unicode="&#xf8;" horiz-adv-x="570" 
d="M289 526c52 0 97 -13 134 -36l20 27h69l-46 -63c45 -49 69 -119 69 -198c0 -163 -100 -268 -253 -269c-52 0 -96 13 -133 36l-24 -33h-68l50 68c-47 49 -72 119 -72 196c0 168 105 272 254 272zM285 433c-82 0 -128 -61 -128 -175c0 -41 7 -77 20 -105l185 254
c-20 17 -46 26 -77 26zM286 80c78 0 127 63 127 174c0 42 -6 77 -17 105l-185 -252c20 -18 45 -27 75 -27z" />
    <glyph glyph-name="oe" unicode="&#x153;" horiz-adv-x="917" 
d="M646 -12c-83 0 -141 34 -177 83c-42 -51 -104 -83 -186 -83c-156 0 -247 114 -247 268c0 156 93 270 253 270c78 0 142 -31 182 -84c39 51 99 84 180 84c166 0 231 -127 231 -245c0 -17 0 -35 -1 -50h-347c0 -79 40 -144 115 -144c62 0 87 30 102 63h124
c-19 -64 -76 -162 -229 -162zM284 427c-76 0 -122 -58 -122 -170c0 -104 47 -170 124 -170c78 0 121 65 121 169c0 111 -43 171 -123 171zM537 310h220c-1 71 -34 124 -106 125c-73 1 -108 -51 -114 -125z" />
    <glyph glyph-name="ohorn" unicode="&#x1a1;" horiz-adv-x="570" 
d="M289 526c60 0 111 -17 151 -48c26 9 39 27 39 51c0 23 -5 44 -11 63h109c6 -15 9 -38 9 -60c0 -55 -27 -105 -86 -126c22 -41 34 -91 34 -148c0 -153 -90 -270 -251 -270c-156 0 -247 114 -247 268c0 156 93 270 253 270zM284 427c-76 0 -122 -58 -122 -170
c0 -104 47 -170 124 -170c78 0 121 65 121 169c0 111 -43 171 -123 171z" />
    <glyph glyph-name="uni1EDB" unicode="&#x1edb;" horiz-adv-x="570" 
d="M289 526c60 0 111 -17 151 -48c26 9 39 27 39 51c0 23 -5 44 -11 63h109c6 -15 9 -38 9 -60c0 -55 -27 -105 -86 -126c22 -41 34 -91 34 -148c0 -153 -90 -270 -251 -270c-156 0 -247 114 -247 268c0 156 93 270 253 270zM284 427c-76 0 -122 -58 -122 -170
c0 -104 47 -170 124 -170c78 0 121 65 121 169c0 111 -43 171 -123 171zM334 741h149l-157 -150h-111z" />
    <glyph glyph-name="uni1EDD" unicode="&#x1edd;" horiz-adv-x="570" 
d="M289 526c60 0 111 -17 151 -48c26 9 39 27 39 51c0 23 -5 44 -11 63h109c6 -15 9 -38 9 -60c0 -55 -27 -105 -86 -126c22 -41 34 -91 34 -148c0 -153 -90 -270 -251 -270c-156 0 -247 114 -247 268c0 156 93 270 253 270zM284 427c-76 0 -122 -58 -122 -170
c0 -104 47 -170 124 -170c78 0 121 65 121 169c0 111 -43 171 -123 171zM88 741h150l119 -150h-112z" />
    <glyph glyph-name="uni1EDF" unicode="&#x1edf;" horiz-adv-x="570" 
d="M289 526c60 0 111 -17 151 -48c26 9 39 27 39 51c0 23 -5 44 -11 63h109c6 -15 9 -38 9 -60c0 -55 -27 -105 -86 -126c22 -41 34 -91 34 -148c0 -153 -90 -270 -251 -270c-156 0 -247 114 -247 268c0 156 93 270 253 270zM284 427c-76 0 -122 -58 -122 -170
c0 -104 47 -170 124 -170c78 0 121 65 121 169c0 111 -43 171 -123 171zM333 581h-101c37 34 52 53 52 80c0 17 -11 31 -37 31c-23 0 -37 -5 -55 -15l-25 69c25 16 59 31 110 31c72 0 112 -41 112 -93c0 -48 -31 -81 -56 -103z" />
    <glyph glyph-name="uni1EE1" unicode="&#x1ee1;" horiz-adv-x="570" 
d="M289 526c60 0 111 -17 151 -48c26 9 39 27 39 51c0 23 -5 44 -11 63h109c6 -15 9 -38 9 -60c0 -55 -27 -105 -86 -126c22 -41 34 -91 34 -148c0 -153 -90 -270 -251 -270c-156 0 -247 114 -247 268c0 156 93 270 253 270zM284 427c-76 0 -122 -58 -122 -170
c0 -104 47 -170 124 -170c78 0 121 65 121 169c0 111 -43 171 -123 171zM199 594h-81v31c0 78 36 105 89 105c58 0 103 -45 136 -45c17 0 27 8 27 37v9h80v-24c0 -88 -39 -115 -93 -115c-61 0 -99 44 -134 44c-15 0 -24 -7 -24 -27v-15z" />
    <glyph glyph-name="uni1EE3" unicode="&#x1ee3;" horiz-adv-x="570" 
d="M289 526c60 0 111 -17 151 -48c26 9 39 27 39 51c0 23 -5 44 -11 63h109c6 -15 9 -38 9 -60c0 -55 -27 -105 -86 -126c22 -41 34 -91 34 -148c0 -153 -90 -270 -251 -270c-156 0 -247 114 -247 268c0 156 93 270 253 270zM284 427c-76 0 -122 -58 -122 -170
c0 -104 47 -170 124 -170c78 0 121 65 121 169c0 111 -43 171 -123 171zM348 -195h-129v129h129v-129z" />
    <glyph glyph-name="racute" unicode="&#x155;" horiz-adv-x="380" 
d="M68 0v375c0 58 0 101 -1 139h122c2 -12 3 -60 3 -95c24 62 81 106 168 107v-120c-104 1 -168 -36 -168 -173v-233h-124zM254 741h149l-157 -150h-111z" />
    <glyph glyph-name="uni0157" unicode="&#x157;" horiz-adv-x="380" 
d="M68 0v375c0 58 0 101 -1 139h122c2 -12 3 -60 3 -95c24 62 81 106 168 107v-120c-104 1 -168 -36 -168 -173v-233h-124zM113 -258h-99c30 68 51 146 55 207h124c-6 -70 -42 -165 -80 -207z" />
    <glyph glyph-name="rcaron" unicode="&#x159;" horiz-adv-x="380" 
d="M68 0v375c0 58 0 101 -1 139h122c2 -12 3 -60 3 -95c24 62 81 106 168 107v-120c-104 1 -168 -36 -168 -173v-233h-124zM262 581h-111l-113 150h113l57 -83l54 83h114z" />
    <glyph glyph-name="uni1E5B" unicode="&#x1e5b;" horiz-adv-x="380" 
d="M68 0v375c0 58 0 101 -1 139h122c2 -12 3 -60 3 -95c24 62 81 106 168 107v-120c-104 1 -168 -36 -168 -173v-233h-124zM195 -195h-129v129h129v-129z" />
    <glyph glyph-name="uni1E5D" unicode="&#x1e5d;" horiz-adv-x="380" 
d="M68 0v375c0 58 0 101 -1 139h122c2 -12 3 -60 3 -95c24 62 81 106 168 107v-120c-104 1 -168 -36 -168 -173v-233h-124zM66 706h292v-94h-292v94zM196 -195h-129v129h129v-129z" />
    <glyph glyph-name="uni1E5F" unicode="&#x1e5f;" horiz-adv-x="380" 
d="M68 0v375c0 58 0 101 -1 139h122c2 -12 3 -60 3 -95c24 62 81 106 168 107v-120c-104 1 -168 -36 -168 -173v-233h-124zM1 -83h292v-94h-292v94z" />
    <glyph glyph-name="sacute" unicode="&#x15b;" horiz-adv-x="501" 
d="M30 152h122c12 -46 48 -72 107 -72c60 0 83 23 83 59c0 39 -23 55 -104 75c-161 39 -189 89 -189 160c0 75 53 152 200 152c148 0 202 -82 207 -153h-119c-5 24 -22 64 -93 64c-56 0 -73 -26 -73 -53c0 -29 18 -44 105 -65c166 -38 193 -95 193 -171
c0 -86 -67 -160 -214 -160c-149 0 -213 73 -225 164zM298 741h149l-157 -150h-111z" />
    <glyph glyph-name="scircumflex" unicode="&#x15d;" horiz-adv-x="501" 
d="M30 152h122c12 -46 48 -72 107 -72c60 0 83 23 83 59c0 39 -23 55 -104 75c-161 39 -189 89 -189 160c0 75 53 152 200 152c148 0 202 -82 207 -153h-119c-5 24 -22 64 -93 64c-56 0 -73 -26 -73 -53c0 -29 18 -44 105 -65c166 -38 193 -95 193 -171
c0 -86 -67 -160 -214 -160c-149 0 -213 73 -225 164zM196 731h109l115 -150h-114l-57 83l-53 -83h-114z" />
    <glyph glyph-name="scaron" unicode="&#x161;" horiz-adv-x="501" 
d="M30 152h122c12 -46 48 -72 107 -72c60 0 83 23 83 59c0 39 -23 55 -104 75c-161 39 -189 89 -189 160c0 75 53 152 200 152c148 0 202 -82 207 -153h-119c-5 24 -22 64 -93 64c-56 0 -73 -26 -73 -53c0 -29 18 -44 105 -65c166 -38 193 -95 193 -171
c0 -86 -67 -160 -214 -160c-149 0 -213 73 -225 164zM306 581h-111l-113 150h113l57 -83l54 83h114z" />
    <glyph glyph-name="uni015F" unicode="&#x15f;" horiz-adv-x="501" 
d="M30 152h122c12 -46 48 -72 107 -72c60 0 83 23 83 59c0 39 -23 55 -104 75c-161 39 -189 89 -189 160c0 75 53 152 200 152c148 0 202 -82 207 -153h-119c-5 24 -22 64 -93 64c-56 0 -73 -26 -73 -53c0 -29 18 -44 105 -65c166 -38 193 -95 193 -171s-52 -142 -165 -157
l-34 -39c35 -8 90 -28 90 -94c0 -84 -78 -102 -135 -102c-32 0 -60 5 -74 11v70c14 -4 47 -7 59 -7c35 0 47 9 47 28c0 31 -46 37 -92 38v32l51 62c-121 12 -175 79 -186 162z" />
    <glyph glyph-name="uni0219" unicode="&#x219;" horiz-adv-x="501" 
d="M30 152h122c12 -46 48 -72 107 -72c60 0 83 23 83 59c0 39 -23 55 -104 75c-161 39 -189 89 -189 160c0 75 53 152 200 152c148 0 202 -82 207 -153h-119c-5 24 -22 64 -93 64c-56 0 -73 -26 -73 -53c0 -29 18 -44 105 -65c166 -38 193 -95 193 -171
c0 -86 -67 -160 -214 -160c-149 0 -213 73 -225 164zM248 -258h-99c30 68 51 146 55 207h124c-6 -70 -42 -165 -80 -207z" />
    <glyph glyph-name="uni1E61" unicode="&#x1e61;" horiz-adv-x="501" 
d="M30 152h122c12 -46 48 -72 107 -72c60 0 83 23 83 59c0 39 -23 55 -104 75c-161 39 -189 89 -189 160c0 75 53 152 200 152c148 0 202 -82 207 -153h-119c-5 24 -22 64 -93 64c-56 0 -73 -26 -73 -53c0 -29 18 -44 105 -65c166 -38 193 -95 193 -171
c0 -86 -67 -160 -214 -160c-149 0 -213 73 -225 164zM312 609h-122v121h122v-121z" />
    <glyph glyph-name="uni1E63" unicode="&#x1e63;" horiz-adv-x="501" 
d="M30 152h122c12 -46 48 -72 107 -72c60 0 83 23 83 59c0 39 -23 55 -104 75c-161 39 -189 89 -189 160c0 75 53 152 200 152c148 0 202 -82 207 -153h-119c-5 24 -22 64 -93 64c-56 0 -73 -26 -73 -53c0 -29 18 -44 105 -65c166 -38 193 -95 193 -171
c0 -86 -67 -160 -214 -160c-149 0 -213 73 -225 164zM315 -195h-129v129h129v-129z" />
    <glyph glyph-name="germandbls" unicode="&#xdf;" horiz-adv-x="613" 
d="M313 742c176 0 239 -102 241 -196c0 -12 0 -23 -1 -33l-156 -107v-1l69 -50c87 -63 115 -114 115 -183c0 -105 -71 -181 -199 -181c-64 0 -119 17 -151 42v114c40 -39 98 -59 144 -59c63 0 84 35 84 71c0 35 -14 60 -70 101l-85 62c-56 42 -59 98 0 138l124 85
c1 42 -19 100 -118 100c-70 0 -119 -28 -119 -128v-517h-124v526c0 162 111 216 246 216z" />
    <glyph glyph-name="tcaron" unicode="&#x165;" horiz-adv-x="348" 
d="M369 581h-75l-2 228h94zM13 419v95h82v143h124v-143h105v-95h-105v-270c0 -43 12 -61 56 -61c10 0 25 0 37 2v-87c-26 -9 -62 -10 -90 -10c-93 0 -127 50 -127 138v288h-82z" />
    <glyph glyph-name="uni0163" unicode="&#x163;" horiz-adv-x="348" 
d="M13 419v95h82v143h124v-143h105v-95h-105v-270c0 -43 12 -61 56 -61c10 0 25 0 37 2v-87c-16 -6 -37 -8 -56 -9l-37 -42c35 -8 90 -28 90 -94c0 -84 -78 -102 -135 -102c-32 0 -60 5 -74 11v70c14 -4 47 -7 59 -7c35 0 47 9 47 28c0 31 -46 37 -92 38v32l58 71
c-55 16 -77 62 -77 132v288h-82z" />
    <glyph glyph-name="uni021B" unicode="&#x21b;" horiz-adv-x="348" 
d="M13 419v95h82v143h124v-143h105v-95h-105v-270c0 -43 12 -61 56 -61c10 0 25 0 37 2v-87c-26 -9 -62 -10 -90 -10c-93 0 -127 50 -127 138v288h-82zM173 -258h-99c30 68 51 146 55 207h124c-6 -70 -42 -165 -80 -207z" />
    <glyph glyph-name="uni1E6D" unicode="&#x1e6d;" horiz-adv-x="348" 
d="M13 419v95h82v143h124v-143h105v-95h-105v-270c0 -43 12 -61 56 -61c10 0 25 0 37 2v-87c-26 -9 -62 -10 -90 -10c-93 0 -127 50 -127 138v288h-82zM257 -195h-129v129h129v-129z" />
    <glyph glyph-name="uni1E6F" unicode="&#x1e6f;" horiz-adv-x="348" 
d="M13 419v95h82v143h124v-143h105v-95h-105v-270c0 -43 12 -61 56 -61c10 0 25 0 37 2v-87c-26 -9 -62 -10 -90 -10c-93 0 -127 50 -127 138v288h-82zM47 -83h292v-94h-292v94z" />
    <glyph glyph-name="uni1E97" unicode="&#x1e97;" horiz-adv-x="348" 
d="M13 419v95h82v143h124v-143h105v-95h-105v-270c0 -43 12 -61 56 -61c10 0 25 0 37 2v-87c-26 -9 -62 -10 -90 -10c-93 0 -127 50 -127 138v288h-82zM112 706h-102v121h102v-121zM304 706h-102v121h102v-121z" />
    <glyph glyph-name="ugrave" unicode="&#xf9;" horiz-adv-x="575" 
d="M507 514v-364c0 -50 0 -109 1 -150h-121c-2 14 -3 43 -4 65c-29 -53 -76 -77 -146 -77c-99 0 -171 57 -171 190v336h124v-311c0 -60 18 -112 88 -112c75 0 105 41 105 151v272h124zM91 741h150l119 -150h-112z" />
    <glyph glyph-name="uacute" unicode="&#xfa;" horiz-adv-x="575" 
d="M507 514v-364c0 -50 0 -109 1 -150h-121c-2 14 -3 43 -4 65c-29 -53 -76 -77 -146 -77c-99 0 -171 57 -171 190v336h124v-311c0 -60 18 -112 88 -112c75 0 105 41 105 151v272h124zM337 741h149l-157 -150h-111z" />
    <glyph glyph-name="ucircumflex" unicode="&#xfb;" horiz-adv-x="575" 
d="M507 514v-364c0 -50 0 -109 1 -150h-121c-2 14 -3 43 -4 65c-29 -53 -76 -77 -146 -77c-99 0 -171 57 -171 190v336h124v-311c0 -60 18 -112 88 -112c75 0 105 41 105 151v272h124zM232 731h109l115 -150h-114l-57 83l-53 -83h-114z" />
    <glyph glyph-name="utilde" unicode="&#x169;" horiz-adv-x="575" 
d="M507 514v-364c0 -50 0 -109 1 -150h-121c-2 14 -3 43 -4 65c-29 -53 -76 -77 -146 -77c-99 0 -171 57 -171 190v336h124v-311c0 -60 18 -112 88 -112c75 0 105 41 105 151v272h124zM202 594h-81v31c0 78 36 105 89 105c58 0 103 -45 136 -45c17 0 27 8 27 37v9h80v-24
c0 -88 -39 -115 -93 -115c-61 0 -99 44 -134 44c-15 0 -24 -7 -24 -27v-15z" />
    <glyph glyph-name="udieresis" unicode="&#xfc;" horiz-adv-x="575" 
d="M507 514v-364c0 -50 0 -109 1 -150h-121c-2 14 -3 43 -4 65c-29 -53 -76 -77 -146 -77c-99 0 -171 57 -171 190v336h124v-311c0 -60 18 -112 88 -112c75 0 105 41 105 151v272h124zM242 609h-102v121h102v-121zM434 609h-102v121h102v-121z" />
    <glyph glyph-name="umacron" unicode="&#x16b;" horiz-adv-x="575" 
d="M507 514v-364c0 -50 0 -109 1 -150h-121c-2 14 -3 43 -4 65c-29 -53 -76 -77 -146 -77c-99 0 -171 57 -171 190v336h124v-311c0 -60 18 -112 88 -112c75 0 105 41 105 151v272h124zM141 706h292v-94h-292v94z" />
    <glyph glyph-name="ubreve" unicode="&#x16d;" horiz-adv-x="575" 
d="M507 514v-364c0 -50 0 -109 1 -150h-121c-2 14 -3 43 -4 65c-29 -53 -76 -77 -146 -77c-99 0 -171 57 -171 190v336h124v-311c0 -60 18 -112 88 -112c75 0 105 41 105 151v272h124zM132 726h87c8 -32 27 -58 68 -58c48 0 60 28 68 58h86c-10 -76 -55 -144 -156 -144
c-106 0 -148 73 -153 144z" />
    <glyph glyph-name="uring" unicode="&#x16f;" horiz-adv-x="575" 
d="M507 514v-364c0 -50 0 -109 1 -150h-121c-2 14 -3 43 -4 65c-29 -53 -76 -77 -146 -77c-99 0 -171 57 -171 190v336h124v-311c0 -60 18 -112 88 -112c75 0 105 41 105 151v272h124zM288 569c-73 0 -117 44 -117 100s42 102 116 102s116 -43 116 -100
c0 -59 -45 -102 -115 -102zM286 624c34 0 50 22 50 46c0 23 -15 47 -49 47c-35 0 -49 -23 -49 -46s14 -47 48 -47z" />
    <glyph glyph-name="uhungarumlaut" unicode="&#x171;" horiz-adv-x="575" 
d="M507 514v-364c0 -50 0 -109 1 -150h-121c-2 14 -3 43 -4 65c-29 -53 -76 -77 -146 -77c-99 0 -171 57 -171 190v336h124v-311c0 -60 18 -112 88 -112c75 0 105 41 105 151v272h124zM219 580h-95l100 152h125zM416 580h-95l100 152h125z" />
    <glyph glyph-name="uni01D4" unicode="&#x1d4;" horiz-adv-x="575" 
d="M507 514v-364c0 -50 0 -109 1 -150h-121c-2 14 -3 43 -4 65c-29 -53 -76 -77 -146 -77c-99 0 -171 57 -171 190v336h124v-311c0 -60 18 -112 88 -112c75 0 105 41 105 151v272h124zM342 581h-111l-113 150h113l57 -83l54 83h114z" />
    <glyph glyph-name="uni01D6" unicode="&#x1d6;" horiz-adv-x="575" 
d="M507 514v-364c0 -50 0 -109 1 -150h-121c-2 14 -3 43 -4 65c-29 -53 -76 -77 -146 -77c-99 0 -171 57 -171 190v336h124v-311c0 -60 18 -112 88 -112c75 0 105 41 105 151v272h124zM240 570h-102v100h102v-100zM428 724h-283v78h283v-78zM437 570h-103v100h103v-100z" />
    <glyph glyph-name="uni01D8" unicode="&#x1d8;" horiz-adv-x="575" 
d="M507 514v-364c0 -50 0 -109 1 -150h-121c-2 14 -3 43 -4 65c-29 -53 -76 -77 -146 -77c-99 0 -171 57 -171 190v336h124v-311c0 -60 18 -112 88 -112c75 0 105 41 105 151v272h124zM138 670h102v-100h-102v100zM334 701h-108l97 119h145zM437 570h-103v100h103v-100z" />
    <glyph glyph-name="uni01DA" unicode="&#x1da;" horiz-adv-x="575" 
d="M507 514v-364c0 -50 0 -109 1 -150h-121c-2 14 -3 43 -4 65c-29 -53 -76 -77 -146 -77c-99 0 -171 57 -171 190v336h124v-311c0 -60 18 -112 88 -112c75 0 105 41 105 151v272h124zM344 694h-114l-105 119h105l57 -66l58 66h104zM240 563h-102v100h102v-100zM437 563
h-103v100h103v-100z" />
    <glyph glyph-name="uni01DC" unicode="&#x1dc;" horiz-adv-x="575" 
d="M507 514v-364c0 -50 0 -109 1 -150h-121c-2 14 -3 43 -4 65c-29 -53 -76 -77 -146 -77c-99 0 -171 57 -171 190v336h124v-311c0 -60 18 -112 88 -112c75 0 105 41 105 151v272h124zM138 663h102v-100h-102v100zM107 813h146l95 -119h-104zM437 563h-103v100h103v-100z
" />
    <glyph glyph-name="uni1EE5" unicode="&#x1ee5;" horiz-adv-x="575" 
d="M507 514v-364c0 -50 0 -109 1 -150h-121c-2 14 -3 43 -4 65c-29 -53 -76 -77 -146 -77c-99 0 -171 57 -171 190v336h124v-311c0 -60 18 -112 88 -112c75 0 105 41 105 151v272h124zM351 -202h-129v129h129v-129z" />
    <glyph glyph-name="uni1EE7" unicode="&#x1ee7;" horiz-adv-x="575" 
d="M507 514v-364c0 -50 0 -109 1 -150h-121c-2 14 -3 43 -4 65c-29 -53 -76 -77 -146 -77c-99 0 -171 57 -171 190v336h124v-311c0 -60 18 -112 88 -112c75 0 105 41 105 151v272h124zM332 581h-101c37 34 52 53 52 80c0 17 -11 31 -37 31c-23 0 -37 -5 -55 -15l-25 69
c25 16 59 31 110 31c72 0 112 -41 112 -93c0 -48 -31 -81 -56 -103z" />
    <glyph glyph-name="uogonek" unicode="&#x173;" horiz-adv-x="575" 
d="M507 514v-364c0 -50 0 -109 1 -150h-3c-36 -28 -63 -60 -63 -95c0 -30 21 -46 52 -46c23 0 37 2 50 6v-87c-23 -11 -53 -15 -86 -15c-78 0 -126 41 -126 114c0 49 28 92 60 123h-5c-2 14 -3 43 -4 65c-29 -53 -76 -77 -146 -77c-99 0 -171 57 -171 190v336h124v-311
c0 -60 18 -112 88 -112c75 0 105 41 105 151v272h124z" />
    <glyph glyph-name="uhorn" unicode="&#x1b0;" horiz-adv-x="575" 
d="M383 65c-29 -53 -76 -77 -146 -77c-99 0 -171 57 -171 190v336h124v-311c0 -60 18 -112 88 -112c75 0 105 41 105 151v272h51c39 6 57 26 57 55c0 23 -5 44 -11 63h109c6 -15 9 -38 9 -60c0 -57 -29 -107 -91 -127v-295c0 -50 0 -109 1 -150h-121c-2 14 -3 43 -4 65z" />
    <glyph glyph-name="uni1EE9" unicode="&#x1ee9;" horiz-adv-x="575" 
d="M383 65c-29 -53 -76 -77 -146 -77c-99 0 -171 57 -171 190v336h124v-311c0 -60 18 -112 88 -112c75 0 105 41 105 151v272h51c39 6 57 26 57 55c0 23 -5 44 -11 63h109c6 -15 9 -38 9 -60c0 -57 -29 -107 -91 -127v-295c0 -50 0 -109 1 -150h-121c-2 14 -3 43 -4 65z
M337 741h149l-157 -150h-111z" />
    <glyph glyph-name="uni1EEB" unicode="&#x1eeb;" horiz-adv-x="575" 
d="M383 65c-29 -53 -76 -77 -146 -77c-99 0 -171 57 -171 190v336h124v-311c0 -60 18 -112 88 -112c75 0 105 41 105 151v272h51c39 6 57 26 57 55c0 23 -5 44 -11 63h109c6 -15 9 -38 9 -60c0 -57 -29 -107 -91 -127v-295c0 -50 0 -109 1 -150h-121c-2 14 -3 43 -4 65z
M94 741h150l119 -150h-112z" />
    <glyph glyph-name="uni1EED" unicode="&#x1eed;" horiz-adv-x="575" 
d="M383 65c-29 -53 -76 -77 -146 -77c-99 0 -171 57 -171 190v336h124v-311c0 -60 18 -112 88 -112c75 0 105 41 105 151v272h51c39 6 57 26 57 55c0 23 -5 44 -11 63h109c6 -15 9 -38 9 -60c0 -57 -29 -107 -91 -127v-295c0 -50 0 -109 1 -150h-121c-2 14 -3 43 -4 65z
M336 581h-101c37 34 52 53 52 80c0 17 -11 31 -37 31c-23 0 -37 -5 -55 -15l-25 69c25 16 59 31 110 31c72 0 112 -41 112 -93c0 -48 -31 -81 -56 -103z" />
    <glyph glyph-name="uni1EEF" unicode="&#x1eef;" horiz-adv-x="575" 
d="M383 65c-29 -53 -76 -77 -146 -77c-99 0 -171 57 -171 190v336h124v-311c0 -60 18 -112 88 -112c75 0 105 41 105 151v272h51c39 6 57 26 57 55c0 23 -5 44 -11 63h109c6 -15 9 -38 9 -60c0 -57 -29 -107 -91 -127v-295c0 -50 0 -109 1 -150h-121c-2 14 -3 43 -4 65z
M202 594h-81v31c0 78 36 105 89 105c58 0 103 -45 136 -45c17 0 27 8 27 37v9h80v-24c0 -88 -39 -115 -93 -115c-61 0 -99 44 -134 44c-15 0 -24 -7 -24 -27v-15z" />
    <glyph glyph-name="uni1EF1" unicode="&#x1ef1;" horiz-adv-x="575" 
d="M383 65c-29 -53 -76 -77 -146 -77c-99 0 -171 57 -171 190v336h124v-311c0 -60 18 -112 88 -112c75 0 105 41 105 151v272h51c39 6 57 26 57 55c0 23 -5 44 -11 63h109c6 -15 9 -38 9 -60c0 -57 -29 -107 -91 -127v-295c0 -50 0 -109 1 -150h-121c-2 14 -3 43 -4 65z
M351 -195h-129v129h129v-129z" />
    <glyph glyph-name="wgrave" unicode="&#x1e81;" horiz-adv-x="791" 
d="M20 514h131c52 -218 81 -342 91 -402h1c10 54 32 150 99 402h117c65 -266 85 -343 92 -396h1c12 54 29 131 96 396h124l-155 -514h-133c-45 192 -78 319 -89 383h-1c-9 -62 -43 -192 -93 -383h-134zM190 741h150l119 -150h-112z" />
    <glyph glyph-name="wacute" unicode="&#x1e83;" horiz-adv-x="791" 
d="M20 514h131c52 -218 81 -342 91 -402h1c10 54 32 150 99 402h117c65 -266 85 -343 92 -396h1c12 54 29 131 96 396h124l-155 -514h-133c-45 192 -78 319 -89 383h-1c-9 -62 -43 -192 -93 -383h-134zM456 741h149l-157 -150h-111z" />
    <glyph glyph-name="wcircumflex" unicode="&#x175;" horiz-adv-x="791" 
d="M20 514h131c52 -218 81 -342 91 -402h1c10 54 32 150 99 402h117c65 -266 85 -343 92 -396h1c12 54 29 131 96 396h124l-155 -514h-133c-45 192 -78 319 -89 383h-1c-9 -62 -43 -192 -93 -383h-134zM341 731h109l115 -150h-114l-57 83l-53 -83h-114z" />
    <glyph glyph-name="wdieresis" unicode="&#x1e85;" horiz-adv-x="791" 
d="M20 514h131c52 -218 81 -342 91 -402h1c10 54 32 150 99 402h117c65 -266 85 -343 92 -396h1c12 54 29 131 96 396h124l-155 -514h-133c-45 192 -78 319 -89 383h-1c-9 -62 -43 -192 -93 -383h-134zM351 609h-102v121h102v-121zM543 609h-102v121h102v-121z" />
    <glyph glyph-name="ygrave" unicode="&#x1ef3;" horiz-adv-x="506" 
d="M7 514h133c64 -201 110 -351 120 -401h1c13 54 45 170 114 401h124l-177 -532c-50 -149 -90 -191 -207 -191c-14 0 -40 1 -63 4v102c11 -1 26 -2 39 -2c56 0 82 21 105 88zM57 741h150l119 -150h-112z" />
    <glyph glyph-name="yacute" unicode="&#xfd;" horiz-adv-x="506" 
d="M7 514h133c64 -201 110 -351 120 -401h1c13 54 45 170 114 401h124l-177 -532c-50 -149 -90 -191 -207 -191c-14 0 -40 1 -63 4v102c11 -1 26 -2 39 -2c56 0 82 21 105 88zM302 741h149l-157 -150h-111z" />
    <glyph glyph-name="ycircumflex" unicode="&#x177;" horiz-adv-x="506" 
d="M7 514h133c64 -201 110 -351 120 -401h1c13 54 45 170 114 401h124l-177 -532c-50 -149 -90 -191 -207 -191c-14 0 -40 1 -63 4v102c11 -1 26 -2 39 -2c56 0 82 21 105 88zM198 731h109l115 -150h-114l-57 83l-53 -83h-114z" />
    <glyph glyph-name="ydieresis" unicode="&#xff;" horiz-adv-x="506" 
d="M7 514h133c64 -201 110 -351 120 -401h1c13 54 45 170 114 401h124l-177 -532c-50 -149 -90 -191 -207 -191c-14 0 -40 1 -63 4v102c11 -1 26 -2 39 -2c56 0 82 21 105 88zM208 609h-102v121h102v-121zM400 609h-102v121h102v-121z" />
    <glyph glyph-name="uni1E8F" unicode="&#x1e8f;" horiz-adv-x="506" 
d="M7 514h133c64 -201 110 -351 120 -401h1c13 54 45 170 114 401h124l-177 -532c-50 -149 -90 -191 -207 -191c-14 0 -40 1 -63 4v102c11 -1 26 -2 39 -2c56 0 82 21 105 88zM314 609h-122v121h122v-121z" />
    <glyph glyph-name="uni1EF5" unicode="&#x1ef5;" horiz-adv-x="506" 
d="M7 514h133c64 -201 110 -351 120 -401h1c13 54 45 170 114 401h124l-177 -532c-50 -149 -90 -191 -207 -191c-14 0 -40 1 -63 4v102c11 -1 26 -2 39 -2c56 0 82 21 105 88zM489 -195h-129v129h129v-129z" />
    <glyph glyph-name="uni1EF7" unicode="&#x1ef7;" horiz-adv-x="506" 
d="M7 514h133c64 -201 110 -351 120 -401h1c13 54 45 170 114 401h124l-177 -532c-50 -149 -90 -191 -207 -191c-14 0 -40 1 -63 4v102c11 -1 26 -2 39 -2c56 0 82 21 105 88zM302 581h-101c37 34 52 53 52 80c0 17 -11 31 -37 31c-23 0 -37 -5 -55 -15l-25 69
c25 16 59 31 110 31c72 0 112 -41 112 -93c0 -48 -31 -81 -56 -103z" />
    <glyph glyph-name="uni1EF9" unicode="&#x1ef9;" horiz-adv-x="506" 
d="M7 514h133c64 -201 110 -351 120 -401h1c13 54 45 170 114 401h124l-177 -532c-50 -149 -90 -191 -207 -191c-14 0 -40 1 -63 4v102c11 -1 26 -2 39 -2c56 0 82 21 105 88zM168 594h-81v31c0 78 36 105 89 105c58 0 103 -45 136 -45c17 0 27 8 27 37v9h80v-24
c0 -88 -39 -115 -93 -115c-61 0 -99 44 -134 44c-15 0 -24 -7 -24 -27v-15z" />
    <glyph glyph-name="zacute" unicode="&#x17a;" horiz-adv-x="477" 
d="M28 0v95l269 320h-255v99h395v-98l-263 -316h280l-16 -100h-410zM285 741h149l-157 -150h-111z" />
    <glyph glyph-name="zcaron" unicode="&#x17e;" horiz-adv-x="477" 
d="M28 0v95l269 320h-255v99h395v-98l-263 -316h280l-16 -100h-410zM293 581h-111l-113 150h113l57 -83l54 83h114z" />
    <glyph glyph-name="zdotaccent" unicode="&#x17c;" horiz-adv-x="477" 
d="M28 0v95l269 320h-255v99h395v-98l-263 -316h280l-16 -100h-410zM299 609h-122v121h122v-121z" />
    <glyph glyph-name="uni1E93" unicode="&#x1e93;" horiz-adv-x="477" 
d="M28 0v95l269 320h-255v99h395v-98l-263 -316h280l-16 -100h-410zM302 -195h-129v129h129v-129z" />
    <glyph glyph-name="eth" unicode="&#xf0;" horiz-adv-x="556" 
d="M97 649v93c76 -7 145 -27 204 -58l105 74l34 -55l-81 -56c100 -76 161 -194 161 -351c0 -216 -108 -308 -248 -308c-155 0 -240 113 -240 258c0 152 104 248 247 248c35 0 63 -8 82 -19c-19 41 -48 79 -92 109l-119 -83l-34 53l91 64c-31 13 -68 24 -110 31zM284 396
c-77 0 -126 -63 -126 -155c0 -84 40 -155 119 -155c80 0 118 73 118 187c0 67 -25 123 -111 123z" />
    <glyph glyph-name="thorn" unicode="&#xfe;" horiz-adv-x="588" 
d="M192 -201h-124v932h124v-282c24 38 66 75 152 75c116 0 208 -91 208 -255c0 -179 -102 -280 -231 -280c-74 0 -108 29 -129 61v-251zM426 264c0 109 -52 159 -120 159c-89 0 -120 -79 -120 -166c0 -80 20 -167 116 -167c74 0 124 58 124 174z" />
    <glyph glyph-name="uni0237" unicode="&#x237;" horiz-adv-x="260" 
d="M68 514h124v-513c0 -145 -30 -210 -162 -210c-10 0 -29 1 -40 2v101h16c49 0 62 23 62 83v537z" />
    <glyph glyph-name="uni0251" unicode="&#x251;" horiz-adv-x="594" 
d="M401 514h124v-376c0 -46 3 -113 6 -138h-112c-4 15 -6 45 -8 67c-26 -49 -74 -79 -158 -79c-128 0 -217 105 -217 264c0 153 89 274 233 274c80 0 120 -33 132 -59v47zM164 256c0 -105 48 -167 119 -167c95 0 122 76 122 171c0 87 -21 165 -115 165
c-74 0 -126 -62 -126 -169z" />
    <glyph glyph-name="uni0259" unicode="&#x259;" horiz-adv-x="538" 
d="M30 283h347c0 77 -39 144 -116 144c-66 0 -87 -30 -101 -63h-125c19 64 75 162 230 162c166 0 237 -128 237 -262c0 -159 -81 -276 -243 -276c-173 0 -231 129 -231 251c0 17 0 29 2 44zM374 204h-221c1 -69 31 -125 107 -125s107 52 114 125z" />
    <glyph glyph-name="uni0261" unicode="&#x261;" horiz-adv-x="587" 
d="M521 366v-309c0 -165 -64 -266 -249 -266c-177 0 -218 99 -224 161h126c12 -42 45 -68 103 -68c101 0 122 62 122 169v30c-27 -49 -71 -78 -150 -78c-132 0 -213 108 -213 251c0 163 97 270 224 270c92 0 130 -43 139 -70c1 17 4 49 5 58h118c-1 -40 -1 -98 -1 -148z
M164 261c0 -95 49 -155 119 -155c94 0 120 65 120 160c0 97 -20 159 -117 159c-73 0 -122 -58 -122 -164z" />
    <glyph glyph-name="fi" unicode="&#xfb01;" horiz-adv-x="576" 
d="M210 0h-124v419h-78v95h78v51c0 102 47 176 159 176c22 0 50 -2 63 -6v-100c-9 2 -23 4 -35 4c-46 0 -63 -21 -63 -83v-42h94v-95h-94v-419zM383 0v514h124v-514h-124zM507 610h-124v121h124v-121z" />
    <glyph glyph-name="fl" unicode="&#xfb02;" horiz-adv-x="575" 
d="M210 0h-124v419h-78v95h78v51c0 102 47 176 159 176c22 0 50 -2 63 -6v-100c-9 2 -23 4 -35 4c-46 0 -63 -21 -63 -83v-42h94v-95h-94v-419zM507 0h-124v731h124v-731z" />
    <glyph glyph-name="ampersand" unicode="&#x26;" horiz-adv-x="769" 
d="M274 96c52 0 84 17 127 66l-152 148c-52 -36 -75 -68 -75 -116c0 -51 36 -98 100 -98zM596 433h128l-181 -252l186 -181h-162l-93 91c-54 -63 -112 -101 -213 -101c-146 0 -215 97 -215 189c0 76 33 130 142 196c-43 46 -74 87 -74 148c0 100 72 179 189 179
c116 0 183 -78 183 -166c0 -68 -37 -116 -131 -171l114 -111zM303 614c-45 0 -74 -32 -74 -82c0 -37 22 -65 66 -107c65 42 80 73 80 109c0 41 -23 80 -72 80z" />
    <glyph glyph-name="zero.slash" horiz-adv-x="580" 
d="M293 670c176 0 242 -156 242 -337c0 -169 -57 -345 -245 -345c-180 0 -245 160 -245 341c0 179 67 341 248 341zM293 574c-96 0 -126 -100 -126 -244c0 -41 2 -80 8 -114l191 326c-18 20 -41 32 -73 32zM291 85c96 0 121 115 121 248c0 49 -3 96 -12 135l-195 -337
c19 -29 46 -46 86 -46z" />
    <glyph glyph-name="zero" unicode="0" horiz-adv-x="580" 
d="M293 670c181 0 242 -156 242 -337c0 -174 -54 -345 -245 -345c-189 0 -245 163 -245 341c0 176 62 341 248 341zM293 570c-95 0 -119 -97 -119 -240c0 -122 16 -241 117 -241c100 0 115 112 115 244c0 127 -18 237 -113 237z" />
    <glyph glyph-name="one" unicode="1" horiz-adv-x="387" 
d="M293 0h-126v513c-31 -17 -91 -34 -125 -38v94c59 12 122 49 162 91h89v-660z" />
    <glyph glyph-name="two" unicode="2" horiz-adv-x="544" 
d="M498 0h-455v8c0 108 55 203 195 306c97 72 126 97 126 159c0 60 -30 99 -94 99c-70 0 -98 -41 -108 -106h-121c10 113 84 204 229 204c162 0 219 -99 219 -195c0 -97 -41 -141 -162 -229c-85 -62 -123 -104 -136 -141h323z" />
    <glyph glyph-name="three" unicode="3" horiz-adv-x="556" 
d="M168 493h-119c10 81 67 177 223 177c147 0 213 -85 213 -176c0 -80 -46 -119 -83 -135v-2c48 -17 110 -61 110 -162c0 -98 -61 -207 -241 -207c-167 0 -229 102 -237 190h122c10 -50 46 -93 119 -93c76 0 111 49 111 112c0 70 -39 108 -120 108h-55v97h48
c73 0 103 26 103 86c0 50 -31 84 -94 84c-71 0 -91 -39 -100 -79z" />
    <glyph glyph-name="four" unicode="4" horiz-adv-x="555" 
d="M452 0h-117v155h-301v110l283 393h135v-401h81l-12 -102h-69v-155zM335 257v134c0 64 1 113 3 155c-26 -54 -126 -196 -191 -289h188z" />
    <glyph glyph-name="five" unicode="5" horiz-adv-x="562" 
d="M502 658l-18 -103h-267c-5 -41 -18 -117 -23 -147c25 24 65 42 125 42c126 0 201 -91 201 -219s-69 -243 -240 -243c-126 0 -218 66 -234 182h125c13 -51 49 -85 112 -85c75 0 112 55 112 136c0 74 -29 129 -110 129c-68 0 -95 -29 -113 -73l-113 16c18 84 46 277 56 365
h387z" />
    <glyph glyph-name="six" unicode="6" horiz-adv-x="568" 
d="M509 504h-121c-9 37 -32 70 -93 70c-96 0 -123 -90 -127 -196c27 38 75 72 155 72c123 0 205 -90 205 -219c0 -137 -85 -243 -235 -243c-188 0 -248 147 -248 333c0 174 60 349 256 349c140 0 201 -89 208 -166zM290 88c79 0 113 61 113 133c0 66 -25 130 -112 130
c-70 0 -114 -42 -114 -126c0 -54 26 -137 113 -137z" />
    <glyph glyph-name="seven" unicode="7" horiz-adv-x="488" 
d="M19 658h448v-94c-108 -150 -212 -372 -240 -564h-128c27 191 145 431 240 554h-320v104z" />
    <glyph glyph-name="eight" unicode="8" horiz-adv-x="573" 
d="M281 -12c-132 0 -239 73 -239 200c0 87 60 140 112 162c-53 30 -85 71 -85 138c0 108 78 182 222 182c131 0 216 -71 216 -181c0 -74 -39 -114 -87 -133c53 -19 111 -76 111 -164c0 -132 -105 -204 -250 -204zM289 86c68 0 117 35 117 108c0 71 -47 106 -119 106
c-80 0 -120 -44 -120 -106c0 -63 47 -108 122 -108zM288 573c-68 0 -100 -33 -100 -89c0 -48 33 -83 101 -83c66 0 99 27 99 82c0 53 -34 90 -100 90z" />
    <glyph glyph-name="nine" unicode="9" horiz-adv-x="562" 
d="M49 157h125c14 -44 41 -70 100 -70c104 0 115 133 118 210c-28 -44 -82 -64 -144 -64c-132 0 -209 92 -209 211c0 126 87 225 235 225c178 0 241 -138 241 -305c0 -181 -44 -375 -247 -375c-146 0 -206 88 -219 168zM274 571c-74 0 -109 -53 -109 -121
c0 -73 42 -119 109 -119c73 0 110 38 110 116c0 43 -17 124 -110 124z" />
    <glyph glyph-name="zero.slashtab" horiz-adv-x="561" 
d="M284 670c176 0 242 -156 242 -337c0 -169 -57 -345 -245 -345c-180 0 -245 160 -245 341c0 179 67 341 248 341zM284 574c-96 0 -126 -100 -126 -244c0 -41 2 -80 8 -114l191 326c-18 20 -41 32 -73 32zM282 85c96 0 121 115 121 248c0 49 -3 96 -12 135l-195 -337
c19 -29 46 -46 86 -46z" />
    <glyph glyph-name="zero.tab" horiz-adv-x="561" 
d="M284 670c181 0 242 -156 242 -337c0 -174 -54 -345 -245 -345c-189 0 -245 163 -245 341c0 176 62 341 248 341zM284 570c-95 0 -119 -97 -119 -240c0 -122 16 -241 117 -241c100 0 115 112 115 244c0 127 -18 237 -113 237z" />
    <glyph glyph-name="one.tab" horiz-adv-x="561" 
d="M481 0h-406v105h144v407c-29 -12 -90 -19 -127 -20v88c66 10 128 39 165 78h85v-553h139v-105z" />
    <glyph glyph-name="two.tab" horiz-adv-x="561" 
d="M509 0h-455v8c0 108 55 203 195 306c97 72 126 97 126 159c0 60 -30 99 -94 99c-70 0 -98 -41 -108 -106h-121c10 113 84 204 229 204c162 0 219 -99 219 -195c0 -97 -41 -141 -162 -229c-85 -62 -123 -104 -136 -141h323z" />
    <glyph glyph-name="three.tab" horiz-adv-x="561" 
d="M172 493h-119c10 81 67 177 223 177c147 0 213 -85 213 -176c0 -80 -46 -119 -83 -135v-2c48 -17 110 -61 110 -162c0 -98 -61 -207 -241 -207c-167 0 -229 102 -237 190h122c10 -50 46 -93 119 -93c76 0 111 49 111 112c0 70 -39 108 -120 108h-55v97h48
c73 0 103 26 103 86c0 50 -31 84 -94 84c-71 0 -91 -39 -100 -79z" />
    <glyph glyph-name="four.tab" horiz-adv-x="561" 
d="M452 0h-117v155h-301v110l283 393h135v-401h81l-12 -102h-69v-155zM335 257v134c0 64 1 113 3 155c-26 -54 -126 -196 -191 -289h188z" />
    <glyph glyph-name="five.tab" horiz-adv-x="561" 
d="M500 658l-18 -103h-267c-5 -41 -18 -117 -23 -147c25 24 65 42 125 42c126 0 201 -91 201 -219s-69 -243 -240 -243c-126 0 -218 66 -234 182h125c13 -51 49 -85 112 -85c75 0 112 55 112 136c0 74 -29 129 -110 129c-68 0 -95 -29 -113 -73l-113 16c18 84 46 277 56 365
h387z" />
    <glyph glyph-name="six.tab" horiz-adv-x="561" 
d="M508 504h-121c-9 37 -32 70 -93 70c-96 0 -123 -90 -127 -196c27 38 75 72 155 72c123 0 205 -90 205 -219c0 -137 -85 -243 -235 -243c-188 0 -248 147 -248 333c0 174 60 349 256 349c140 0 201 -89 208 -166zM289 88c79 0 113 61 113 133c0 66 -25 130 -112 130
c-70 0 -114 -42 -114 -126c0 -54 26 -137 113 -137z" />
    <glyph glyph-name="seven.tab" horiz-adv-x="561" 
d="M57 658h448v-94c-108 -150 -212 -372 -240 -564h-128c27 191 145 431 240 554h-320v104z" />
    <glyph glyph-name="eight.tab" horiz-adv-x="561" 
d="M275 -12c-132 0 -239 73 -239 200c0 87 60 140 112 162c-53 30 -85 71 -85 138c0 108 78 182 222 182c131 0 216 -71 216 -181c0 -74 -39 -114 -87 -133c53 -19 111 -76 111 -164c0 -132 -105 -204 -250 -204zM283 86c68 0 117 35 117 108c0 71 -47 106 -119 106
c-80 0 -120 -44 -120 -106c0 -63 47 -108 122 -108zM282 573c-68 0 -100 -33 -100 -89c0 -48 33 -83 101 -83c66 0 99 27 99 82c0 53 -34 90 -100 90z" />
    <glyph glyph-name="nine.tab" horiz-adv-x="561" 
d="M53 157h125c14 -44 41 -70 100 -70c104 0 115 133 118 210c-28 -44 -82 -64 -144 -64c-132 0 -209 92 -209 211c0 126 87 225 235 225c178 0 241 -138 241 -305c0 -181 -44 -375 -247 -375c-146 0 -206 88 -219 168zM278 571c-74 0 -109 -53 -109 -121
c0 -73 42 -119 109 -119c73 0 110 38 110 116c0 43 -17 124 -110 124z" />
    <glyph glyph-name="zero.slashcap" horiz-adv-x="609" 
d="M308 702c188 0 254 -173 254 -352c0 -173 -57 -362 -258 -362c-193 0 -257 173 -257 358c0 173 67 356 261 356zM308 604c-99 0 -136 -107 -136 -257c0 -51 4 -98 14 -139l202 357c-19 24 -46 39 -80 39zM305 87c99 0 132 123 132 262c0 50 -4 99 -15 140l-202 -358
c20 -28 48 -44 85 -44z" />
    <glyph glyph-name="zero.cap" horiz-adv-x="609" 
d="M308 702c188 0 254 -173 254 -352c0 -173 -57 -362 -258 -362c-193 0 -257 173 -257 358c0 173 67 356 261 356zM308 599c-99 0 -130 -102 -130 -252c0 -136 26 -256 127 -256c99 0 126 120 126 258c0 134 -24 250 -123 250z" />
    <glyph glyph-name="one.cap" horiz-adv-x="393" 
d="M301 0h-129v539c-30 -18 -102 -33 -136 -35v92c64 13 135 52 174 96h91v-692z" />
    <glyph glyph-name="two.cap" horiz-adv-x="571" 
d="M524 0h-480v9c0 107 38 207 213 332c97 70 126 90 126 155c0 62 -36 104 -100 104c-72 0 -101 -41 -112 -110h-128c11 115 86 211 240 211c171 0 230 -107 230 -202c0 -106 -43 -150 -173 -238c-95 -65 -134 -116 -148 -156h349z" />
    <glyph glyph-name="three.cap" horiz-adv-x="584" 
d="M173 512h-121c13 90 77 190 234 190c151 0 224 -86 224 -182c0 -82 -41 -119 -89 -140v-3c52 -18 115 -65 115 -169c0 -108 -68 -221 -253 -220c-161 1 -238 101 -246 201h123c12 -52 47 -101 129 -101c81 0 120 48 120 117c0 74 -36 119 -134 119h-45v97h42
c79 0 113 28 113 88c0 53 -31 93 -101 93c-76 0 -101 -45 -111 -90z" />
    <glyph glyph-name="four.cap" horiz-adv-x="583" 
d="M474 0h-121v170h-318v108l299 414h140v-422h86l-13 -100h-73v-170zM353 270v146c0 67 0 121 3 162c-27 -56 -149 -218 -207 -308h204z" />
    <glyph glyph-name="five.cap" horiz-adv-x="590" 
d="M526 692l-15 -104h-292c-6 -57 -15 -126 -21 -160c26 25 64 44 134 44c128 0 214 -92 214 -230c0 -144 -83 -254 -253 -254c-131 0 -228 71 -245 195h124c13 -49 49 -94 122 -94c89 0 125 58 125 142c0 71 -29 141 -121 141c-77 0 -103 -37 -121 -79l-115 18
c16 77 42 275 52 381h412z" />
    <glyph glyph-name="six.cap" horiz-adv-x="596" 
d="M536 530h-123c-11 40 -36 74 -102 75c-108 0 -135 -113 -138 -216c29 42 79 77 166 77c129 0 216 -91 216 -228c0 -138 -82 -250 -248 -250c-192 0 -259 142 -259 348c0 156 51 366 266 366c150 0 210 -90 222 -172zM306 89c79 0 122 56 122 140c0 71 -31 136 -120 136
c-74 0 -123 -41 -123 -130c0 -65 31 -146 121 -146z" />
    <glyph glyph-name="seven.cap" horiz-adv-x="512" 
d="M20 692h470v-96c-116 -161 -210 -369 -250 -596h-139c35 223 153 457 256 587h-337v105z" />
    <glyph glyph-name="eight.cap" horiz-adv-x="602" 
d="M295 -12c-141 0 -250 75 -250 211c0 100 64 146 113 168c-53 29 -84 79 -84 145c0 108 84 190 232 190c136 0 225 -78 225 -187c0 -76 -40 -121 -87 -142c55 -21 114 -74 114 -168c0 -145 -112 -217 -263 -217zM303 88c77 0 128 40 128 116c0 73 -48 112 -130 112
c-91 0 -129 -45 -129 -110c0 -70 49 -118 131 -118zM302 603c-73 0 -108 -34 -108 -95c0 -52 37 -90 110 -90c70 0 106 33 106 89c0 59 -39 96 -108 96z" />
    <glyph glyph-name="nine.cap" horiz-adv-x="590" 
d="M53 161h126c15 -50 49 -75 105 -75c108 0 127 123 131 228c-33 -46 -87 -65 -153 -65c-129 0 -220 84 -220 220c0 130 92 233 243 233c181 0 257 -129 257 -323c0 -172 -39 -391 -265 -391c-140 0 -209 78 -224 173zM288 605c-71 0 -118 -48 -118 -131
c0 -82 48 -129 118 -129c76 0 117 38 117 123c0 64 -22 137 -117 137z" />
    <glyph glyph-name="period" unicode="." horiz-adv-x="234" 
d="M184 0h-133v166h133v-166z" />
    <glyph glyph-name="comma" unicode="," horiz-adv-x="250" 
d="M103 -115h-98c56 125 67 212 73 281h127c-10 -96 -42 -204 -102 -281z" />
    <glyph glyph-name="colon" unicode=":" horiz-adv-x="280" 
d="M204 0h-128v159h128v-159zM204 351h-128v160h128v-160z" />
    <glyph glyph-name="semicolon" unicode=";" horiz-adv-x="283" 
d="M108 -115h-98c46 97 69 207 73 281h126c-9 -117 -56 -223 -101 -281zM212 344h-132v167h132v-167z" />
    <glyph glyph-name="ellipsis" unicode="&#x2026;" horiz-adv-x="891" 
d="M196 0h-133v166h133v-166zM497 0h-133v166h133v-166zM797 0h-133v166h133v-166z" />
    <glyph glyph-name="exclam" unicode="!" horiz-adv-x="317" 
d="M236 244h-101l-16 327v121h133v-122zM245 0h-122v156h122v-156z" />
    <glyph glyph-name="exclamdown" unicode="&#xa1;" horiz-adv-x="275" 
d="M72 269h101l16 -326v-121h-133v121zM63 514h122v-156h-122v156z" />
    <glyph glyph-name="question" unicode="?" horiz-adv-x="516" 
d="M324 215h-129v17c0 62 23 112 99 179c47 42 58 75 58 112c0 42 -25 81 -83 81c-62 0 -87 -41 -94 -96h-122c5 76 54 194 219 194c158 -1 206 -105 206 -182c0 -66 -21 -110 -94 -177c-45 -42 -60 -75 -60 -118v-10zM324 0h-129v156h129v-156z" />
    <glyph glyph-name="questiondown" unicode="&#xbf;" horiz-adv-x="473" 
d="M25 -8c0 66 21 117 91 182c46 42 63 72 63 115v10h129v-20c0 -62 -25 -106 -99 -176c-48 -44 -62 -73 -62 -110c0 -42 28 -84 88 -84c56 0 96 30 104 110h110c-2 -101 -54 -207 -220 -207c-149 1 -204 92 -204 180zM179 514h129v-156h-129v156z" />
    <glyph glyph-name="quotesingle" unicode="'" horiz-adv-x="202" 
d="M152 447h-102l-10 195v89h123v-90z" />
    <glyph glyph-name="quotedbl" unicode="&#x22;" horiz-adv-x="399" 
d="M151 447h-89l-13 195v89h113v-90zM337 447h-89l-11 195v89h113v-90z" />
    <glyph glyph-name="quoteleft" unicode="&#x2018;" horiz-adv-x="250" 
d="M116 731h100c-27 -93 -45 -210 -47 -285h-130c7 92 38 210 77 285z" />
    <glyph glyph-name="quoteright" unicode="&#x2019;" horiz-adv-x="250" 
d="M135 446h-101c28 93 45 210 47 285h130c-7 -91 -38 -210 -76 -285z" />
    <glyph glyph-name="quotedblleft" unicode="&#x201c;" horiz-adv-x="450" 
d="M317 728h94c-29 -97 -43 -205 -45 -286h-126c6 102 45 222 77 286zM115 728h95c-26 -96 -44 -212 -46 -286h-125c5 88 40 213 76 286z" />
    <glyph glyph-name="quotedblright" unicode="&#x201d;" horiz-adv-x="450" 
d="M132 446h-93c28 97 43 205 45 285h126c-6 -101 -45 -221 -78 -285zM334 446h-94c26 95 44 212 46 285h125c-5 -88 -40 -212 -77 -285z" />
    <glyph glyph-name="quotesinglbase" unicode="&#x201a;" horiz-adv-x="250" 
d="M135 -137h-101c28 93 45 211 47 286h130c-7 -92 -38 -211 -76 -286z" />
    <glyph glyph-name="quotedblbase" unicode="&#x201e;" horiz-adv-x="437" 
d="M128 -137h-94c29 97 44 205 46 286h125c-5 -102 -45 -222 -77 -286zM330 -137h-95c27 95 44 212 46 286h126c-6 -88 -40 -213 -77 -286z" />
    <glyph glyph-name="guilsinglleft" unicode="&#x2039;" horiz-adv-x="383" 
d="M329 456l-164 -196l164 -196h-108l-167 196l167 196h108z" />
    <glyph glyph-name="guilsinglright" unicode="&#x203a;" horiz-adv-x="383" 
d="M54 64l164 196l-164 196h108l167 -196l-167 -196h-108z" />
    <glyph glyph-name="guillemotleft" unicode="&#xab;" horiz-adv-x="583" 
d="M314 456l-148 -196l148 -196h-110l-150 196l150 196h110zM529 456l-149 -196l149 -196h-111l-150 196l150 196h111z" />
    <glyph glyph-name="guillemotright" unicode="&#xbb;" horiz-adv-x="583" 
d="M269 64l148 196l-148 196h109l151 -196l-151 -196h-109zM54 64l149 196l-149 196h111l149 -196l-149 -196h-111z" />
    <glyph glyph-name="uni00A0" unicode="&#xa0;" horiz-adv-x="246" 
 />
    <glyph glyph-name="uni2007" unicode="&#x2007;" horiz-adv-x="561" 
 />
    <glyph glyph-name="hyphen" unicode="-" horiz-adv-x="383" 
d="M55 312h273v-110h-273v110z" />
    <glyph glyph-name="uni2010" unicode="&#x2010;" horiz-adv-x="383" 
d="M55 312h273v-110h-273v110z" />
    <glyph glyph-name="uni00AD" unicode="&#xad;" horiz-adv-x="383" 
d="M55 312h273v-110h-273v110z" />
    <glyph glyph-name="endash" unicode="&#x2013;" horiz-adv-x="499" 
d="M55 309h389v-105h-389v105z" />
    <glyph glyph-name="emdash" unicode="&#x2014;" horiz-adv-x="846" 
d="M55 309h736v-105h-736v105z" />
    <glyph glyph-name="figuredash" unicode="&#x2012;" horiz-adv-x="561" 
d="M83 372h396v-104h-396v104z" />
    <glyph glyph-name="uni2015" unicode="&#x2015;" horiz-adv-x="846" 
d="M55 309h736v-105h-736v105z" />
    <glyph glyph-name="periodcentered" unicode="&#xb7;" horiz-adv-x="234" 
d="M184 200h-133v166h133v-166z" />
    <glyph glyph-name="bullet" unicode="&#x2022;" horiz-adv-x="403" 
d="M90 371h223v-228h-223v228z" />
    <glyph glyph-name="underscore" unicode="_" horiz-adv-x="531" 
d="M0 -78h530v-51h-530v51z" />
    <glyph glyph-name="parenleft" unicode="(" horiz-adv-x="361" 
d="M202 730h121c-83 -110 -156 -263 -156 -446c0 -168 59 -328 156 -458h-121c-79 108 -148 262 -148 459s72 339 148 445z" />
    <glyph glyph-name="parenright" unicode=")" horiz-adv-x="361" 
d="M158 -174h-120c83 110 156 263 156 446c0 168 -59 328 -156 458h120c79 -108 148 -262 148 -459c0 -196 -71 -339 -148 -445z" />
    <glyph glyph-name="bracketleft" unicode="[" horiz-adv-x="353" 
d="M316 -174h-236v904h236v-94h-129v-715h129v-95z" />
    <glyph glyph-name="bracketright" unicode="]" horiz-adv-x="353" 
d="M37 730h236v-904h-236v94h129v715h-129v95z" />
    <glyph glyph-name="braceleft" unicode="{" horiz-adv-x="380" 
d="M26 230v98c94 0 108 38 108 104v119c0 123 78 179 180 179h29v-88h-15c-62 0 -81 -38 -81 -99v-111c0 -82 -31 -139 -106 -152c78 -14 106 -69 106 -155v-109c0 -64 27 -102 84 -102h12v-89h-29c-91 0 -180 46 -180 178v123c0 62 -12 103 -108 104z" />
    <glyph glyph-name="braceright" unicode="}" horiz-adv-x="380" 
d="M343 326v-98c-95 0 -108 -39 -108 -105v-119c0 -123 -78 -179 -180 -179h-29v89h14c63 0 82 37 82 98v111c0 82 30 139 106 152c-78 14 -106 69 -106 155v109c0 64 -27 103 -84 103h-12v88h29c91 0 180 -46 180 -178v-123c0 -61 12 -103 108 -103z" />
    <glyph glyph-name="slash" unicode="/" horiz-adv-x="460" 
d="M144 -51h-106l278 753h105z" />
    <glyph glyph-name="bar" unicode="|" horiz-adv-x="304" 
d="M97 781h110v-1042h-110v1042z" />
    <glyph glyph-name="backslash" unicode="\" horiz-adv-x="460" 
d="M316 -51l-278 753h105l278 -753h-105z" />
    <glyph glyph-name="brokenbar" unicode="&#xa6;" horiz-adv-x="248" 
d="M77 179h102v-358h-102v358zM77 689h102v-356h-102v356z" />
    <glyph glyph-name="asterisk" unicode="*" horiz-adv-x="425" 
d="M168 692h88l-16 -150l112 95l49 -80l-145 -60l144 -61l-48 -80l-112 96l16 -152h-89l17 152l-111 -96l-48 80l143 61l-144 60l49 81l110 -96z" />
    <glyph glyph-name="dagger" unicode="&#x2020;" horiz-adv-x="522" 
d="M188 649h109l-7 -212l165 6v-101l-165 7l7 -481h-109l8 481l-167 -7v101l167 -6z" />
    <glyph glyph-name="daggerdbl" unicode="&#x2021;" horiz-adv-x="522" 
d="M196 165v209l-167 -7v102l167 -8l-8 188h109l-7 -188l165 8v-102l-165 7v-209l165 6v-100l-165 7l7 -210h-109l8 210l-167 -7v100z" />
    <glyph glyph-name="section" unicode="&#xa7;" horiz-adv-x="585" 
d="M505 524h-117c-8 32 -31 70 -99 70c-58 0 -85 -27 -85 -66c0 -49 40 -62 133 -98c131 -52 197 -105 197 -208c0 -67 -31 -115 -75 -149c21 -19 39 -54 39 -104c0 -110 -84 -175 -216 -175c-137 0 -221 64 -234 171h122c10 -44 44 -79 114 -79c62 0 96 23 96 72
c0 46 -24 67 -138 107c-148 52 -200 105 -200 201c0 62 36 117 86 148c-25 24 -39 58 -39 101c0 97 75 171 206 171c158 0 205 -97 210 -162zM153 287c0 -40 12 -70 108 -105c55 -21 99 -39 126 -55c21 17 35 45 35 76c0 52 -25 78 -113 118c-42 17 -78 32 -107 46
c-28 -18 -49 -46 -49 -80z" />
    <glyph glyph-name="paragraph" unicode="&#xb6;" horiz-adv-x="625" 
d="M503 -154h-89v287h-116c-161 -2 -252 91 -252 255c0 152 83 255 241 255h126c2 20 3 48 6 59h85c-1 -19 -1 -50 -1 -69v-787zM368 227h45v330h-46c-74 0 -81 -83 -83 -158c0 -69 -2 -172 84 -172z" />
    <glyph glyph-name="at" unicode="@" horiz-adv-x="939" 
d="M676 -42l21 -79c-48 -30 -122 -56 -240 -56c-228 0 -400 159 -400 403c0 261 178 445 443 445c208 0 386 -119 386 -352c0 -177 -92 -289 -233 -289c-59 0 -102 21 -111 67c-34 -43 -71 -67 -136 -67c-84 0 -144 60 -144 175c0 149 93 266 207 266c67 0 100 -32 110 -65
l15 55h109l-59 -272c-12 -54 0 -71 33 -71c65 0 114 79 114 197c0 167 -118 271 -293 271c-203 0 -338 -135 -338 -360c-1 -175 117 -314 303 -314c83 0 151 13 213 46zM488 385c-68 0 -109 -91 -109 -176c0 -58 21 -90 61 -90c49 0 85 35 105 128c22 96 1 138 -57 138z" />
    <glyph glyph-name="copyright" unicode="&#xa9;" horiz-adv-x="783" 
d="M475 283l82 1c-18 -76 -69 -133 -165 -133c-107 0 -180 81 -180 196c0 108 66 198 181 199c110 0 158 -74 165 -133h-81c-10 32 -31 63 -85 63c-53 0 -94 -44 -94 -125s38 -129 95 -129c44 0 70 25 82 61zM388 700c194 0 341 -147 341 -354c0 -206 -147 -356 -341 -356
c-197 0 -343 142 -343 356c0 203 148 354 343 354zM387 641c-158 0 -277 -110 -277 -297c0 -169 118 -294 277 -294c157 0 276 110 276 295c0 175 -117 296 -276 296z" />
    <glyph glyph-name="uni2117" unicode="&#x2117;" horiz-adv-x="783" 
d="M255 164v372h162c70 0 138 -42 138 -122c0 -84 -58 -126 -140 -126h-77v-124h-83zM339 468v-115h62c50 0 67 23 67 59s-21 57 -66 56h-63zM388 700c194 0 341 -147 341 -354c0 -206 -146 -356 -341 -356c-197 0 -343 142 -343 356c0 203 148 354 343 354zM387 641
c-158 0 -277 -110 -277 -297c0 -169 115 -294 277 -294c157 0 276 110 276 295c0 175 -117 296 -276 296z" />
    <glyph glyph-name="registered" unicode="&#xae;" horiz-adv-x="355" 
d="M163 450h-48v166h78c35 0 69 -11 69 -48c0 -22 -14 -35 -28 -39c16 -6 23 -19 23 -43c0 -9 1 -26 2 -36h-48c-3 7 -4 26 -4 34c0 20 -6 27 -26 27h-18v-61zM165 582v-37h22c15 0 24 5 24 20c0 14 -8 17 -25 17h-21zM185 702c101 0 167 -79 167 -172
c0 -102 -67 -174 -167 -174c-96 0 -167 75 -167 174c0 98 68 172 167 172zM184 664c-80 0 -126 -61 -126 -135c0 -75 55 -134 127 -134c81 0 126 54 126 134c0 79 -51 135 -127 135z" />
    <glyph glyph-name="trademark" unicode="&#x2122;" horiz-adv-x="494" 
d="M519 452h-61v67c0 63 4 106 5 128h-2l-58 -194h-56l-52 194h-2c1 -23 3 -64 3 -137v-58h-58v240h99l42 -149h1l47 149h92v-240zM-8 692h218v-56h-76v-184h-65v184h-77v56z" />
    <glyph glyph-name="uni2120" unicode="&#x2120;" horiz-adv-x="490" 
d="M508 452h-61v67c0 63 5 106 6 128h-2c-19 -69 -38 -128 -58 -194h-56c-17 61 -37 127 -52 194h-3c1 -23 4 -64 4 -137v-58h-59v240h99c16 -55 31 -102 43 -149c12 40 32 102 48 149h91v-240zM-11 528h62c3 -24 24 -37 46 -37c25 0 38 9 38 25c0 17 -15 23 -52 33
c-66 16 -86 41 -86 76c0 44 33 73 95 73c73 0 97 -42 99 -78h-60c-2 20 -13 34 -41 34c-25 0 -32 -10 -32 -24c0 -10 8 -19 40 -27c75 -18 100 -39 100 -81c0 -49 -33 -76 -105 -76c-62 0 -101 36 -104 82z" />
    <glyph glyph-name="degree" unicode="&#xb0;" horiz-adv-x="335" 
d="M170 681c88 0 140 -62 140 -137c0 -87 -63 -141 -142 -141c-83 0 -138 57 -138 137c0 82 61 141 140 141zM169 624c-46 0 -72 -37 -72 -83c0 -45 28 -81 72 -81c47 0 74 35 74 83c0 40 -24 81 -74 81z" />
    <glyph glyph-name="numbersign" unicode="#" horiz-adv-x="619" 
d="M285 0l44 182h-115l-44 -182h-89l45 182h-80v96h104l32 132h-86v96h110l41 165h86l-40 -165h116l40 165h86l-40 -165h74l-1 -96h-96l-32 -132h83v-96h-106l-44 -182h-88zM353 278l32 132h-115l-32 -132h115z" />
    <glyph glyph-name="uni2116" unicode="&#x2116;" horiz-adv-x="1065" 
d="M195 0h-115v674h162c188 -368 233 -479 250 -532h1c-7 85 -7 205 -7 319v213h114v-674h-153c-206 419 -243 518 -259 555h-1c6 -87 8 -209 8 -333v-222zM767 436c0 -72 31 -112 80 -112c48 0 78 37 78 112c0 78 -31 112 -80 112c-45 0 -78 -39 -78 -112zM693 182h305v-83
h-305v83zM845 632c111 0 181 -76 181 -196c0 -117 -67 -198 -182 -198c-105 0 -179 77 -179 198c0 117 74 196 180 196z" />
    <glyph glyph-name="zero.sups" unicode="&#x2070;" horiz-adv-x="403" 
d="M203 830c115 0 170 -85 170 -201c0 -134 -66 -206 -172 -206c-112 0 -170 87 -170 202c0 117 62 205 172 205zM202 753c-43 0 -71 -34 -71 -126c0 -89 30 -126 72 -126c48 0 70 38 70 126c0 91 -25 126 -71 126z" />
    <glyph glyph-name="one.sups" unicode="&#xb9;" horiz-adv-x="261" 
d="M198 428h-99v288c-19 -7 -57 -12 -75 -11v72c52 7 83 29 108 53h66v-402z" />
    <glyph glyph-name="two.sups" unicode="&#xb2;" horiz-adv-x="372" 
d="M341 428h-305v7c0 78 34 136 124 191c61 36 79 47 79 78c0 28 -15 50 -54 50c-35 0 -55 -23 -61 -59h-92c6 77 63 135 157 135c115 0 150 -72 150 -123c0 -64 -31 -91 -105 -131c-32 -18 -74 -47 -85 -73h205z" />
    <glyph glyph-name="three.sups" unicode="&#xb3;" horiz-adv-x="384" 
d="M150 598v78h30c43 0 60 14 60 38c0 25 -16 44 -57 44c-45 0 -58 -24 -64 -48h-87c4 39 33 120 155 120c100 0 148 -50 148 -111c0 -46 -33 -69 -56 -77c29 -9 73 -36 73 -96c0 -55 -37 -122 -162 -122c-136 0 -163 86 -166 125h93c6 -27 29 -53 74 -53c40 0 62 21 62 51
c0 37 -25 51 -66 51h-37z" />
    <glyph glyph-name="four.sups" unicode="&#x2074;" horiz-adv-x="383" 
d="M309 428h-90v97h-194v71l168 228h116v-228h59l-7 -71h-52v-97zM113 596h106v60c0 21 1 70 3 94c-16 -27 -75 -106 -109 -154z" />
    <glyph glyph-name="five.sups" unicode="&#x2075;" horiz-adv-x="391" 
d="M341 825l-12 -77h-184c-3 -22 -9 -55 -12 -75c17 12 42 23 87 23c81 0 139 -48 139 -129s-61 -143 -162 -143c-110 0 -157 66 -164 118h96c8 -22 23 -45 67 -45s63 27 63 65s-20 64 -66 64c-36 0 -56 -15 -66 -33l-87 12c10 58 28 162 35 220h266z" />
    <glyph glyph-name="six.sups" unicode="&#x2076;" horiz-adv-x="392" 
d="M352 722h-88c-8 20 -23 39 -61 39c-56 0 -75 -49 -78 -104c19 22 53 40 103 40c81 -1 137 -51 137 -131c0 -83 -67 -143 -162 -143c-104 0 -172 71 -172 199c0 105 48 208 174 208c96 0 140 -58 147 -108zM201 494c34 0 69 17 68 69c-1 44 -24 68 -69 68
c-44 0 -70 -24 -70 -61c0 -34 20 -76 71 -76z" />
    <glyph glyph-name="seven.sups" unicode="&#x2077;" horiz-adv-x="357" 
d="M31 825h299v-69c-72 -90 -120 -201 -152 -327h-105c23 112 91 243 154 319h-196v77z" />
    <glyph glyph-name="eight.sups" unicode="&#x2078;" horiz-adv-x="381" 
d="M189 423c-110 0 -163 56 -163 121c0 46 29 77 67 92c-30 19 -49 48 -49 83c0 59 42 111 150 111c102 0 143 -57 143 -109c0 -40 -20 -65 -52 -80c41 -16 70 -47 70 -95c0 -75 -69 -123 -166 -123zM191 488c48 0 69 25 69 56c0 39 -25 59 -70 59c-47 0 -68 -23 -68 -57
c0 -33 25 -58 69 -58zM191 766c-39 0 -56 -20 -56 -47c0 -33 18 -51 58 -51c33 0 52 18 52 50c0 28 -14 48 -54 48z" />
    <glyph glyph-name="nine.sups" unicode="&#x2079;" horiz-adv-x="388" 
d="M34 532h95c9 -23 24 -38 59 -38c49 0 72 44 73 109c-20 -22 -52 -33 -97 -33c-78 0 -137 45 -137 124c0 75 59 136 162 136s168 -68 168 -193c0 -115 -47 -213 -168 -213c-104 0 -147 58 -155 108zM187 758c-33 0 -66 -16 -66 -61c0 -38 24 -61 70 -61c37 0 67 16 67 55
s-23 67 -71 67z" />
    <glyph glyph-name="parenleft.sups" unicode="&#x207d;" horiz-adv-x="235" 
d="M115 875h88c-40 -60 -83 -136 -83 -253c0 -115 42 -191 83 -251h-88c-33 40 -79 130 -79 251c0 124 45 207 79 253z" />
    <glyph glyph-name="parenright.sups" unicode="&#x207e;" horiz-adv-x="235" 
d="M119 383h-87c39 60 82 137 82 254c0 114 -42 191 -82 250h87c33 -40 79 -130 79 -250c0 -124 -45 -207 -79 -254z" />
    <glyph glyph-name="period.sups" horiz-adv-x="175" 
d="M136 428h-97v118h97v-118z" />
    <glyph glyph-name="comma.sups" horiz-adv-x="168" 
d="M93 355h-82c23 59 37 125 39 191h96c-7 -71 -27 -148 -53 -191z" />
    <glyph glyph-name="dollar.sups" horiz-adv-x="407" 
d="M241 367h-81v61c-82 11 -129 57 -138 117h98c9 -33 44 -52 90 -52c48 0 69 18 69 43c0 26 -15 41 -90 54c-121 22 -157 60 -157 120c0 53 38 105 128 117v46h81v-47c85 -14 119 -68 124 -110h-91c-5 17 -19 46 -78 46c-53 0 -70 -20 -70 -40c0 -26 22 -33 92 -46
c123 -24 158 -70 158 -127c0 -66 -47 -111 -135 -122v-60z" />
    <glyph glyph-name="cent.sups" horiz-adv-x="407" 
d="M288 577h92c-13 -52 -49 -96 -121 -108v-58h-81v58c-89 13 -140 75 -140 155c0 89 58 145 140 159v49h81v-49c89 -15 117 -76 120 -109h-92c-8 26 -29 46 -73 46c-49 0 -82 -34 -82 -93c0 -51 31 -95 83 -95c40 0 62 17 73 45z" />
    <glyph glyph-name="hyphen.sups" horiz-adv-x="236" 
d="M31 666h173v-81h-173v81z" />
    <glyph glyph-name="zero.subs" unicode="&#x2080;" horiz-adv-x="403" 
d="M203 229c115 0 170 -85 170 -201c0 -134 -66 -206 -172 -206c-112 0 -170 87 -170 202c0 117 62 205 172 205zM202 152c-43 0 -71 -34 -71 -126c0 -89 30 -126 72 -126c48 0 70 38 70 126c0 91 -25 126 -71 126z" />
    <glyph glyph-name="one.subs" unicode="&#x2081;" horiz-adv-x="261" 
d="M198 -173h-99v288c-19 -7 -57 -12 -75 -11v72c52 7 83 29 108 53h66v-402z" />
    <glyph glyph-name="two.subs" unicode="&#x2082;" horiz-adv-x="372" 
d="M341 -173h-305v7c0 78 34 136 124 191c61 36 79 47 79 78c0 28 -15 50 -54 50c-35 0 -55 -23 -61 -59h-92c6 77 63 135 157 135c115 0 150 -72 150 -123c0 -64 -31 -91 -105 -131c-32 -18 -74 -47 -85 -73h205z" />
    <glyph glyph-name="three.subs" unicode="&#x2083;" horiz-adv-x="384" 
d="M150 -3v78h30c43 0 60 14 60 38c0 25 -16 44 -57 44c-45 0 -58 -24 -64 -48h-87c4 39 33 120 155 120c100 0 148 -50 148 -111c0 -46 -33 -69 -56 -77c29 -9 73 -36 73 -96c0 -55 -37 -122 -162 -122c-136 0 -163 86 -166 125h93c6 -27 29 -53 74 -53c40 0 62 21 62 51
c0 37 -25 51 -66 51h-37z" />
    <glyph glyph-name="four.subs" unicode="&#x2084;" horiz-adv-x="383" 
d="M309 -173h-90v97h-194v71l168 228h116v-228h59l-7 -71h-52v-97zM113 -5h106v60c0 21 1 70 3 94c-16 -27 -75 -106 -109 -154z" />
    <glyph glyph-name="five.subs" unicode="&#x2085;" horiz-adv-x="391" 
d="M341 224l-12 -77h-184c-3 -22 -9 -55 -12 -75c17 12 42 23 87 23c81 0 139 -48 139 -129s-61 -143 -162 -143c-110 0 -157 66 -164 118h96c8 -22 23 -45 67 -45s63 27 63 65s-20 64 -66 64c-36 0 -56 -15 -66 -33l-87 12c10 58 28 162 35 220h266z" />
    <glyph glyph-name="six.subs" unicode="&#x2086;" horiz-adv-x="392" 
d="M352 121h-88c-8 20 -23 39 -61 39c-56 0 -75 -49 -78 -104c19 22 53 40 103 40c81 -1 137 -51 137 -131c0 -83 -67 -143 -162 -143c-104 0 -172 71 -172 199c0 105 48 208 174 208c96 0 140 -58 147 -108zM201 -107c34 0 69 17 68 69c-1 44 -24 68 -69 68
c-44 0 -70 -24 -70 -61c0 -34 20 -76 71 -76z" />
    <glyph glyph-name="seven.subs" unicode="&#x2087;" horiz-adv-x="357" 
d="M31 224h299v-69c-72 -90 -120 -201 -152 -327h-105c23 112 91 243 154 319h-196v77z" />
    <glyph glyph-name="eight.subs" unicode="&#x2088;" horiz-adv-x="381" 
d="M189 -178c-110 0 -163 56 -163 121c0 46 29 77 67 92c-30 19 -49 48 -49 83c0 59 42 111 150 111c102 0 143 -57 143 -109c0 -40 -20 -65 -52 -80c41 -16 70 -47 70 -95c0 -75 -69 -123 -166 -123zM191 -113c48 0 69 25 69 56c0 39 -25 59 -70 59c-47 0 -68 -23 -68 -57
c0 -33 25 -58 69 -58zM191 165c-39 0 -56 -20 -56 -47c0 -33 18 -51 58 -51c33 0 52 18 52 50c0 28 -14 48 -54 48z" />
    <glyph glyph-name="nine.subs" unicode="&#x2089;" horiz-adv-x="388" 
d="M34 -69h95c9 -23 24 -38 59 -38c49 0 72 44 73 109c-20 -22 -52 -33 -97 -33c-78 0 -137 45 -137 124c0 75 59 136 162 136s168 -68 168 -193c0 -115 -47 -213 -168 -213c-104 0 -147 58 -155 108zM187 157c-33 0 -66 -16 -66 -61c0 -38 24 -61 70 -61c37 0 67 16 67 55
s-23 67 -71 67z" />
    <glyph glyph-name="parenleft.subs" unicode="&#x208d;" horiz-adv-x="235" 
d="M115 274h88c-40 -60 -83 -136 -83 -253c0 -115 42 -191 83 -251h-88c-33 40 -79 130 -79 251c0 124 45 207 79 253z" />
    <glyph glyph-name="parenright.subs" unicode="&#x208e;" horiz-adv-x="235" 
d="M119 -218h-87c39 60 82 137 82 254c0 114 -42 191 -82 250h87c33 -40 79 -130 79 -250c0 -124 -45 -207 -79 -254z" />
    <glyph glyph-name="period.subs" horiz-adv-x="175" 
d="M136 -173h-97v118h97v-118z" />
    <glyph glyph-name="comma.subs" horiz-adv-x="168" 
d="M93 -246h-82c23 59 37 125 39 191h96c-7 -71 -27 -148 -53 -191z" />
    <glyph glyph-name="dollar.subs" horiz-adv-x="407" 
d="M241 -234h-81v61c-82 11 -129 57 -138 117h98c9 -33 44 -52 90 -52c48 0 69 18 69 43c0 26 -15 41 -90 54c-121 22 -157 60 -157 120c0 53 38 105 128 117v46h81v-47c85 -14 119 -68 124 -110h-91c-5 17 -19 46 -78 46c-53 0 -70 -20 -70 -40c0 -26 22 -33 92 -46
c123 -24 158 -70 158 -127c0 -66 -47 -111 -135 -122v-60z" />
    <glyph glyph-name="cent.subs" horiz-adv-x="407" 
d="M288 -24h92c-13 -52 -49 -96 -121 -108v-58h-81v58c-89 13 -140 75 -140 155c0 89 58 145 140 159v49h81v-49c89 -15 117 -76 120 -109h-92c-8 26 -29 46 -73 46c-49 0 -82 -34 -82 -93c0 -51 31 -95 83 -95c40 0 62 17 73 45z" />
    <glyph glyph-name="hyphen.subs" horiz-adv-x="236" 
d="M31 65h173v-81h-173v81z" />
    <glyph glyph-name="zero.numr" horiz-adv-x="403" 
d="M203 663c115 0 170 -85 170 -201c0 -134 -66 -206 -172 -206c-112 0 -170 87 -170 202c0 117 62 205 172 205zM202 586c-43 0 -71 -34 -71 -126c0 -89 30 -126 72 -126c48 0 70 38 70 126c0 91 -25 126 -71 126z" />
    <glyph glyph-name="one.numr" horiz-adv-x="261" 
d="M198 261h-99v288c-19 -7 -57 -12 -75 -11v72c52 7 83 29 108 53h66v-402z" />
    <glyph glyph-name="two.numr" horiz-adv-x="372" 
d="M341 261h-305v7c0 78 34 136 124 191c61 36 79 47 79 78c0 28 -15 50 -54 50c-35 0 -55 -23 -61 -59h-92c6 77 63 135 157 135c115 0 150 -72 150 -123c0 -64 -31 -91 -105 -131c-32 -18 -74 -47 -85 -73h205z" />
    <glyph glyph-name="three.numr" horiz-adv-x="384" 
d="M150 431v78h30c43 0 60 14 60 38c0 25 -16 44 -57 44c-45 0 -58 -24 -64 -48h-87c4 39 33 120 155 120c100 0 148 -50 148 -111c0 -46 -33 -69 -56 -77c29 -9 73 -36 73 -96c0 -55 -37 -122 -162 -122c-136 0 -163 86 -166 125h93c6 -27 29 -53 74 -53c40 0 62 21 62 51
c0 37 -25 51 -66 51h-37z" />
    <glyph glyph-name="four.numr" horiz-adv-x="383" 
d="M309 261h-90v97h-194v71l168 228h116v-228h59l-7 -71h-52v-97zM113 429h106v60c0 21 1 70 3 94c-16 -27 -75 -106 -109 -154z" />
    <glyph glyph-name="five.numr" horiz-adv-x="391" 
d="M341 658l-12 -77h-184c-3 -22 -9 -55 -12 -75c17 12 42 23 87 23c81 0 139 -48 139 -129s-61 -143 -162 -143c-110 0 -157 66 -164 118h96c8 -22 23 -45 67 -45s63 27 63 65s-20 64 -66 64c-36 0 -56 -15 -66 -33l-87 12c10 58 28 162 35 220h266z" />
    <glyph glyph-name="six.numr" horiz-adv-x="392" 
d="M352 555h-88c-8 20 -23 39 -61 39c-56 0 -75 -49 -78 -104c19 22 53 40 103 40c81 -1 137 -51 137 -131c0 -83 -67 -143 -162 -143c-104 0 -172 71 -172 199c0 105 48 208 174 208c96 0 140 -58 147 -108zM201 327c34 0 69 17 68 69c-1 44 -24 68 -69 68
c-44 0 -70 -24 -70 -61c0 -34 20 -76 71 -76z" />
    <glyph glyph-name="seven.numr" horiz-adv-x="357" 
d="M31 658h299v-69c-72 -90 -120 -201 -152 -327h-105c23 112 91 243 154 319h-196v77z" />
    <glyph glyph-name="eight.numr" horiz-adv-x="381" 
d="M189 256c-110 0 -163 56 -163 121c0 46 29 77 67 92c-30 19 -49 48 -49 83c0 59 42 111 150 111c102 0 143 -57 143 -109c0 -40 -20 -65 -52 -80c41 -16 70 -47 70 -95c0 -75 -69 -123 -166 -123zM191 321c48 0 69 25 69 56c0 39 -25 59 -70 59c-47 0 -68 -23 -68 -57
c0 -33 25 -58 69 -58zM191 599c-39 0 -56 -20 -56 -47c0 -33 18 -51 58 -51c33 0 52 18 52 50c0 28 -14 48 -54 48z" />
    <glyph glyph-name="nine.numr" horiz-adv-x="388" 
d="M34 365h95c9 -23 24 -38 59 -38c49 0 72 44 73 109c-20 -22 -52 -33 -97 -33c-78 0 -137 45 -137 124c0 75 59 136 162 136s168 -68 168 -193c0 -115 -47 -213 -168 -213c-104 0 -147 58 -155 108zM187 591c-33 0 -66 -16 -66 -61c0 -38 24 -61 70 -61c37 0 67 16 67 55
s-23 67 -71 67z" />
    <glyph glyph-name="parenleft.numr" horiz-adv-x="235" 
d="M115 708h88c-40 -60 -83 -136 -83 -253c0 -115 42 -191 83 -251h-88c-33 40 -79 130 -79 251c0 124 45 207 79 253z" />
    <glyph glyph-name="parenright.numr" horiz-adv-x="235" 
d="M119 216h-87c39 60 82 137 82 254c0 114 -42 191 -82 250h87c33 -40 79 -130 79 -250c0 -124 -45 -207 -79 -254z" />
    <glyph glyph-name="period.numr" horiz-adv-x="175" 
d="M136 261h-97v118h97v-118z" />
    <glyph glyph-name="comma.numr" horiz-adv-x="168" 
d="M93 188h-82c23 59 37 125 39 191h96c-7 -71 -27 -148 -53 -191z" />
    <glyph glyph-name="dollar.numr" horiz-adv-x="407" 
d="M241 200h-81v61c-82 11 -129 57 -138 117h98c9 -33 44 -52 90 -52c48 0 69 18 69 43c0 26 -15 41 -90 54c-121 22 -157 60 -157 120c0 53 38 105 128 117v46h81v-47c85 -14 119 -68 124 -110h-91c-5 17 -19 46 -78 46c-53 0 -70 -20 -70 -40c0 -26 22 -33 92 -46
c123 -24 158 -70 158 -127c0 -66 -47 -111 -135 -122v-60z" />
    <glyph glyph-name="cent.numr" horiz-adv-x="407" 
d="M288 410h92c-13 -52 -49 -96 -121 -108v-58h-81v58c-89 13 -140 75 -140 155c0 89 58 145 140 159v49h81v-49c89 -15 117 -76 120 -109h-92c-8 26 -29 46 -73 46c-49 0 -82 -34 -82 -93c0 -51 31 -95 83 -95c40 0 62 17 73 45z" />
    <glyph glyph-name="hyphen.numr" horiz-adv-x="236" 
d="M31 499h173v-81h-173v81z" />
    <glyph glyph-name="zero.dnom" horiz-adv-x="403" 
d="M203 401c115 0 170 -85 170 -201c0 -134 -66 -206 -172 -206c-112 0 -170 87 -170 202c0 117 62 205 172 205zM202 324c-43 0 -71 -34 -71 -126c0 -89 30 -126 72 -126c48 0 70 38 70 126c0 91 -25 126 -71 126z" />
    <glyph glyph-name="one.dnom" horiz-adv-x="261" 
d="M198 -1h-99v288c-19 -7 -57 -12 -75 -11v72c52 7 83 29 108 53h66v-402z" />
    <glyph glyph-name="two.dnom" horiz-adv-x="372" 
d="M341 -1h-305v7c0 78 34 136 124 191c61 36 79 47 79 78c0 28 -15 50 -54 50c-35 0 -55 -23 -61 -59h-92c6 77 63 135 157 135c115 0 150 -72 150 -123c0 -64 -31 -91 -105 -131c-32 -18 -74 -47 -85 -73h205z" />
    <glyph glyph-name="three.dnom" horiz-adv-x="384" 
d="M150 169v78h30c43 0 60 14 60 38c0 25 -16 44 -57 44c-45 0 -58 -24 -64 -48h-87c4 39 33 120 155 120c100 0 148 -50 148 -111c0 -46 -33 -69 -56 -77c29 -9 73 -36 73 -96c0 -55 -37 -122 -162 -122c-136 0 -163 86 -166 125h93c6 -27 29 -53 74 -53c40 0 62 21 62 51
c0 37 -25 51 -66 51h-37z" />
    <glyph glyph-name="four.dnom" horiz-adv-x="383" 
d="M309 -1h-90v97h-194v71l168 228h116v-228h59l-7 -71h-52v-97zM113 167h106v60c0 21 1 70 3 94c-16 -27 -75 -106 -109 -154z" />
    <glyph glyph-name="five.dnom" horiz-adv-x="391" 
d="M341 396l-12 -77h-184c-3 -22 -9 -55 -12 -75c17 12 42 23 87 23c81 0 139 -48 139 -129s-61 -143 -162 -143c-110 0 -157 66 -164 118h96c8 -22 23 -45 67 -45s63 27 63 65s-20 64 -66 64c-36 0 -56 -15 -66 -33l-87 12c10 58 28 162 35 220h266z" />
    <glyph glyph-name="six.dnom" horiz-adv-x="392" 
d="M352 293h-88c-8 20 -23 39 -61 39c-56 0 -75 -49 -78 -104c19 22 53 40 103 40c81 -1 137 -51 137 -131c0 -83 -67 -143 -162 -143c-104 0 -172 71 -172 199c0 105 48 208 174 208c96 0 140 -58 147 -108zM201 65c34 0 69 17 68 69c-1 44 -24 68 -69 68
c-44 0 -70 -24 -70 -61c0 -34 20 -76 71 -76z" />
    <glyph glyph-name="seven.dnom" horiz-adv-x="357" 
d="M31 396h299v-69c-72 -90 -120 -201 -152 -327h-105c23 112 91 243 154 319h-196v77z" />
    <glyph glyph-name="eight.dnom" horiz-adv-x="381" 
d="M189 -6c-110 0 -163 56 -163 121c0 46 29 77 67 92c-30 19 -49 48 -49 83c0 59 42 111 150 111c102 0 143 -57 143 -109c0 -40 -20 -65 -52 -80c41 -16 70 -47 70 -95c0 -75 -69 -123 -166 -123zM191 59c48 0 69 25 69 56c0 39 -25 59 -70 59c-47 0 -68 -23 -68 -57
c0 -33 25 -58 69 -58zM191 337c-39 0 -56 -20 -56 -47c0 -33 18 -51 58 -51c33 0 52 18 52 50c0 28 -14 48 -54 48z" />
    <glyph glyph-name="nine.dnom" horiz-adv-x="388" 
d="M34 103h95c9 -23 24 -38 59 -38c49 0 72 44 73 109c-20 -22 -52 -33 -97 -33c-78 0 -137 45 -137 124c0 75 59 136 162 136s168 -68 168 -193c0 -115 -47 -213 -168 -213c-104 0 -147 58 -155 108zM187 329c-33 0 -66 -16 -66 -61c0 -38 24 -61 70 -61c37 0 67 16 67 55
s-23 67 -71 67z" />
    <glyph glyph-name="parenleft.dnom" horiz-adv-x="235" 
d="M115 446h88c-40 -60 -83 -136 -83 -253c0 -115 42 -191 83 -251h-88c-33 40 -79 130 -79 251c0 124 45 207 79 253z" />
    <glyph glyph-name="parenright.dnom" horiz-adv-x="235" 
d="M119 -46h-87c39 60 82 137 82 254c0 114 -42 191 -82 250h87c33 -40 79 -130 79 -250c0 -124 -45 -207 -79 -254z" />
    <glyph glyph-name="period.dnom" horiz-adv-x="175" 
d="M136 -1h-97v118h97v-118z" />
    <glyph glyph-name="comma.dnom" horiz-adv-x="168" 
d="M93 -74h-82c23 59 37 125 39 191h96c-7 -71 -27 -148 -53 -191z" />
    <glyph glyph-name="dollar.dnom" horiz-adv-x="407" 
d="M241 -62h-81v61c-82 11 -129 57 -138 117h98c9 -33 44 -52 90 -52c48 0 69 18 69 43c0 26 -15 41 -90 54c-121 22 -157 60 -157 120c0 53 38 105 128 117v46h81v-47c85 -14 119 -68 124 -110h-91c-5 17 -19 46 -78 46c-53 0 -70 -20 -70 -40c0 -26 22 -33 92 -46
c123 -24 158 -70 158 -127c0 -66 -47 -111 -135 -122v-60z" />
    <glyph glyph-name="cent.dnom" horiz-adv-x="407" 
d="M288 148h92c-13 -52 -49 -96 -121 -108v-58h-81v58c-89 13 -140 75 -140 155c0 89 58 145 140 159v49h81v-49c89 -15 117 -76 120 -109h-92c-8 26 -29 46 -73 46c-49 0 -82 -34 -82 -93c0 -51 31 -95 83 -95c40 0 62 17 73 45z" />
    <glyph glyph-name="hyphen.dnom" horiz-adv-x="236" 
d="M31 237h173v-81h-173v81z" />
    <glyph glyph-name="ordfeminine" unicode="&#xaa;" horiz-adv-x="369" 
d="M325 484v-140c0 -23 0 -61 1 -83l-88 -1c-2 13 -2 27 -3 39c-21 -30 -54 -44 -98 -44c-74 0 -116 45 -116 105c0 77 59 110 158 110h52v20c0 23 -8 50 -52 50c-39 0 -49 -19 -53 -44h-90c5 48 36 106 146 106c120 0 143 -64 143 -118zM234 403v10h-46
c-46 0 -72 -12 -72 -44c0 -23 14 -43 50 -43c44 0 68 28 68 77z" />
    <glyph glyph-name="ordmasculine" unicode="&#xba;" horiz-adv-x="393" 
d="M199 602c106 0 168 -71 168 -173c-1 -114 -75 -174 -173 -174c-99 0 -168 68 -168 172c0 107 69 175 173 175zM196 533c-47 0 -75 -37 -75 -105c0 -62 28 -104 75 -104c49 0 77 34 77 106c-2 63 -26 103 -77 103z" />
    <glyph glyph-name="a.sups" horiz-adv-x="369" 
d="M325 484v-140c0 -23 0 -61 1 -83l-88 -1c-2 13 -2 27 -3 39c-21 -30 -54 -44 -98 -44c-74 0 -116 45 -116 105c0 77 59 110 158 110h52v20c0 23 -8 50 -52 50c-39 0 -49 -19 -53 -44h-90c5 48 36 106 146 106c120 0 143 -64 143 -118zM234 403v10h-46
c-46 0 -72 -12 -72 -44c0 -23 14 -43 50 -43c44 0 68 28 68 77z" />
    <glyph glyph-name="b.sups" horiz-adv-x="398" 
d="M42 262v474h92v-182c12 20 42 48 102 48c67 0 136 -52 136 -165c0 -130 -76 -181 -148 -181c-51 0 -75 21 -90 40v-34h-92zM277 433c0 65 -28 94 -72 94c-51 0 -73 -32 -73 -98c0 -59 18 -99 70 -99c50 0 75 40 75 103z" />
    <glyph glyph-name="c.sups" horiz-adv-x="359" 
d="M256 373h85c-14 -68 -61 -118 -152 -118c-109 0 -163 78 -163 172c0 101 63 175 165 175c104 0 146 -71 150 -122h-89c-7 33 -25 53 -62 53c-43 0 -69 -36 -69 -104c0 -51 19 -105 73 -105c31 0 50 14 62 49z" />
    <glyph glyph-name="d.sups" horiz-adv-x="404" 
d="M265 736h92v-382c0 -38 1 -71 1 -92h-86c-1 9 -2 31 -2 44c-18 -32 -51 -51 -101 -51c-80 0 -143 62 -143 171c0 112 72 176 154 176c48 0 74 -16 85 -31v165zM121 426c0 -59 29 -96 73 -96c43 0 74 22 74 101c0 80 -30 96 -71 96c-47 0 -76 -36 -76 -101z" />
    <glyph glyph-name="e.sups" horiz-adv-x="371" 
d="M346 410h-227c1 -49 27 -84 75 -84c37 0 56 14 66 36h86c-17 -61 -66 -106 -156 -106c-117 0 -164 86 -164 170c0 91 56 176 164 176c115 0 158 -83 158 -159c0 -12 0 -25 -2 -33zM120 464h137c0 40 -18 73 -67 73c-44 0 -67 -29 -70 -73z" />
    <glyph glyph-name="f.sups" horiz-adv-x="196" 
d="M140 262h-91v264h-47v68h47v27c0 70 37 121 115 121c20 0 31 -1 41 -4v-71c-8 2 -19 2 -26 2c-29 0 -39 -15 -39 -49v-26h60v-68h-60v-264z" />
    <glyph glyph-name="g.sups" horiz-adv-x="401" 
d="M355 496v-201c0 -110 -47 -174 -170 -174c-111 0 -147 61 -154 111h92c7 -21 23 -42 64 -42c55 0 77 29 77 88v28c-18 -28 -50 -42 -95 -42c-81 0 -142 63 -142 164c0 100 65 170 145 172c43 0 82 -11 98 -41c0 11 1 27 2 34h85c-1 -21 -2 -51 -2 -97zM122 430
c0 -53 26 -92 72 -92c51 0 72 32 72 97c0 71 -28 92 -72 92c-45 0 -72 -36 -72 -97z" />
    <glyph glyph-name="h.sups" horiz-adv-x="397" 
d="M42 262v474h92v-180c22 27 50 46 103 46c59 0 117 -36 117 -132v-208h-92v190c0 43 -11 73 -57 73s-71 -29 -71 -89v-174h-92z" />
    <glyph glyph-name="i.sups" horiz-adv-x="178" 
d="M134 262h-92v332h92v-332zM134 656h-92v80h92v-80z" />
    <glyph glyph-name="j.sups" horiz-adv-x="180" 
d="M-1 121v79h4c34 0 44 21 44 59v335h91v-327c0 -90 -32 -146 -125 -146h-14zM138 656h-92v80h92v-80z" />
    <glyph glyph-name="k.sups" horiz-adv-x="366" 
d="M133 736v-285c28 36 86 101 120 143h105c-42 -44 -80 -86 -120 -128l132 -204h-106l-90 152c-11 -13 -30 -32 -41 -43v-109h-91v474h91z" />
    <glyph glyph-name="l.sups" horiz-adv-x="177" 
d="M134 262h-92v474h92v-474z" />
    <glyph glyph-name="m.sups" horiz-adv-x="594" 
d="M552 262h-88v195c0 34 -11 68 -56 68c-42 0 -64 -26 -64 -82v-181h-93v200c0 32 -11 63 -53 63c-44 0 -64 -32 -64 -86v-177h-92v227c0 66 0 81 -1 105h91c1 -5 2 -29 2 -44c16 27 49 52 100 52c50 0 80 -23 94 -56c17 25 51 56 109 56c63 0 115 -35 115 -131v-209z" />
    <glyph glyph-name="n.sups" unicode="&#x207f;" horiz-adv-x="397" 
d="M42 262v225c0 56 0 90 -1 107h89c1 -8 3 -27 3 -45c15 22 43 53 103 53c52 0 118 -26 118 -131v-209h-92v192c0 40 -13 71 -57 71c-43 0 -71 -23 -71 -86v-177h-92z" />
    <glyph glyph-name="o.sups" horiz-adv-x="393" 
d="M199 602c106 0 168 -71 168 -173c-1 -114 -75 -174 -173 -174c-99 0 -168 68 -168 172c0 107 69 175 173 175zM196 533c-47 0 -75 -37 -75 -105c0 -62 28 -104 75 -104c49 0 77 34 77 106c-2 63 -26 103 -77 103z" />
    <glyph glyph-name="p.sups" horiz-adv-x="398" 
d="M134 133h-92v366c0 45 0 75 -1 95h89c0 -6 2 -28 3 -45c18 29 47 53 104 53c68 0 135 -58 135 -166c0 -121 -77 -180 -151 -180c-48 0 -72 18 -87 38v-161zM277 433c0 69 -29 93 -72 93c-55 0 -73 -35 -73 -97c0 -57 15 -99 70 -99c50 0 75 33 75 103z" />
    <glyph glyph-name="q.sups" 
d="M266 133v166c-19 -29 -53 -44 -99 -44c-73 0 -141 58 -141 171c0 111 76 176 153 176c53 0 83 -23 93 -44c0 8 1 27 2 36h85c-1 -19 -2 -60 -2 -128v-333h-91zM121 428c0 -59 28 -98 74 -98c43 0 72 26 72 99c0 77 -24 97 -70 97s-76 -34 -76 -98z" />
    <glyph glyph-name="r.sups" horiz-adv-x="259" 
d="M42 262v220c0 54 0 96 -1 112h89c1 -9 2 -33 2 -57c25 42 61 65 115 65v-91c-74 1 -113 -29 -113 -113v-136h-92z" />
    <glyph glyph-name="s.sups" horiz-adv-x="330" 
d="M23 365h85c7 -28 30 -44 59 -44c35 0 51 12 51 33c0 23 -17 31 -68 43c-101 23 -118 60 -118 104c0 57 48 101 132 101c89 0 132 -47 136 -103h-79c-5 19 -19 40 -58 40c-29 0 -43 -11 -43 -28s8 -27 56 -37c107 -25 132 -59 132 -111c0 -62 -49 -107 -140 -107
c-90 0 -139 53 -145 109z" />
    <glyph glyph-name="t.sups" horiz-adv-x="217" 
d="M-5 594h56v93h89v-93h68v-68h-68v-155c0 -28 7 -41 36 -41c8 0 17 1 28 2v-67c-16 -7 -43 -9 -62 -9c-67 0 -93 31 -93 97v173h-54v68z" />
    <glyph glyph-name="u.sups" horiz-adv-x="394" 
d="M351 594v-232c0 -48 1 -84 2 -100h-86c-3 7 -4 36 -4 45c-21 -32 -50 -51 -104 -51c-67 0 -117 39 -117 127v211h92v-188c0 -39 12 -71 57 -71c35 0 67 23 67 85v174h93z" />
    <glyph glyph-name="v.sups" horiz-adv-x="355" 
d="M6 594h99c37 -113 65 -210 76 -263h1c13 60 60 203 79 263h91l-117 -332h-114z" />
    <glyph glyph-name="w.sups" horiz-adv-x="533" 
d="M7 594h99c39 -159 51 -209 58 -244h1c7 41 15 74 61 244h88c44 -168 52 -207 58 -245h1c4 33 16 71 58 245h95l-101 -332h-101c-27 115 -48 185 -58 228h-1c-10 -48 -26 -98 -62 -228h-102z" />
    <glyph glyph-name="x.sups" horiz-adv-x="322" 
d="M-8 594h108c34 -56 56 -91 65 -109h1c12 21 35 62 65 109h98l-114 -159l116 -173h-105c-36 59 -59 95 -68 113h-1c-12 -22 -30 -51 -68 -113h-98l116 166z" />
    <glyph glyph-name="y.sups" horiz-adv-x="350" 
d="M1 594h105c48 -137 69 -210 75 -240h1c9 38 34 121 72 240h96l-122 -336c-38 -110 -76 -135 -146 -135c-16 0 -31 1 -46 3v81c12 -1 27 -1 31 -1c32 0 51 16 68 57z" />
    <glyph glyph-name="z.sups" horiz-adv-x="320" 
d="M18 262v62c22 25 121 138 176 196h-168v74h275v-61c-14 -19 -129 -152 -175 -197h186l-13 -74h-281z" />
    <glyph glyph-name="egrave.sups" horiz-adv-x="371" 
d="M55 733h110l79 -97h-86zM346 410h-227c1 -49 27 -84 75 -84c37 0 56 14 66 36h86c-17 -61 -66 -106 -156 -106c-117 0 -164 86 -164 170c0 91 56 176 164 176c115 0 158 -83 158 -159c0 -12 0 -25 -2 -33zM120 464h137c0 40 -18 73 -67 73c-44 0 -67 -29 -70 -73z" />
    <glyph glyph-name="eacute.sups" horiz-adv-x="371" 
d="M220 732h111l-107 -96h-88zM346 410h-227c1 -49 27 -84 75 -84c37 0 56 14 66 36h86c-17 -61 -66 -106 -156 -106c-117 0 -164 86 -164 170c0 91 56 176 164 176c115 0 158 -83 158 -159c0 -12 0 -25 -2 -33zM120 464h137c0 40 -18 73 -67 73c-44 0 -67 -29 -70 -73z" />
    <glyph glyph-name="currency" unicode="&#xa4;" horiz-adv-x="553" 
d="M279 558c43 0 82 -12 115 -34l71 74l66 -70l-73 -75c15 -30 24 -66 24 -106c0 -41 -9 -78 -25 -110l74 -76l-66 -71l-71 74c-32 -22 -71 -34 -117 -34c-43 0 -82 12 -114 33l-70 -73l-67 71l73 74c-17 31 -26 68 -26 109c0 40 9 77 27 109l-74 75l67 70l71 -73
c32 20 71 33 115 33zM277 466c-64 0 -104 -42 -104 -121c0 -92 54 -125 104 -125c57 0 102 33 102 126c0 76 -36 120 -102 120z" />
    <glyph glyph-name="dollar" unicode="$" horiz-adv-x="541" 
d="M319 -86h-106v82c-115 17 -180 88 -188 184h123c12 -58 56 -94 121 -94c78 0 110 37 110 86c0 54 -27 82 -127 111c-160 46 -213 103 -213 200c0 99 73 162 169 178v66h105v-66c125 -17 168 -96 175 -169h-123c-9 35 -28 80 -108 80c-71 0 -94 -41 -94 -77
c0 -50 26 -71 135 -102c152 -42 205 -103 205 -207c0 -111 -72 -175 -184 -190v-82z" />
    <glyph glyph-name="sterling" unicode="&#xa3;" horiz-adv-x="532" 
d="M501 0h-466v97c56 29 71 84 71 184v8h-83v90h78c-1 20 -2 43 -2 70c0 126 61 220 199 220c149 0 190 -103 195 -173h-119c-6 38 -25 73 -77 73c-58 0 -75 -41 -75 -109c0 -32 1 -56 2 -81h144v-90h-142c0 -82 -12 -142 -45 -183h335z" />
    <glyph glyph-name="yen" unicode="&#xa5;" horiz-adv-x="497" 
d="M435 147h-130v-147h-124v147h-128v77h128v59h-128v77h109l-173 298h140c91 -177 110 -213 120 -243h1c11 27 35 73 123 243h129l-178 -298h111v-77h-130v-59h130v-77z" />
    <glyph glyph-name="Euro" unicode="&#x20ac;" horiz-adv-x="564" 
d="M413 163h121c-22 -105 -96 -174 -213 -174c-134 0 -212 90 -233 245h-59v74h53v20c0 12 0 24 1 36h-54v74h62c28 148 113 231 234 231c141 0 201 -98 209 -174h-120c-13 45 -43 76 -94 76c-60 0 -95 -44 -109 -133h166v-74h-173v-31v-25h173v-74h-167
c13 -93 47 -144 112 -144c53 0 78 33 91 73z" />
    <glyph glyph-name="cent" unicode="&#xa2;" horiz-adv-x="549" 
d="M395 238h123c-16 -81 -74 -145 -169 -164v-86h-105v85c-121 19 -197 116 -197 249c0 123 71 230 198 251v66h104v-67c124 -20 165 -109 169 -167h-123c-11 36 -34 76 -104 76c-82 0 -119 -70 -119 -155c0 -87 37 -159 118 -159c63 0 90 30 105 71z" />
    <glyph glyph-name="florin" unicode="&#x192;" horiz-adv-x="540" 
d="M525 678l-22 -94c-16 8 -35 12 -54 12c-56 0 -73 -53 -83 -117l-9 -59h109v-92h-124l-34 -221c-19 -127 -59 -224 -184 -224c-38 0 -75 6 -100 22l23 96c17 -9 45 -14 63 -14c48 0 58 38 73 126l35 215h-90v92h105l7 41c16 103 54 235 195 235c42 0 73 -6 90 -18z" />
    <glyph glyph-name="colonmonetary" unicode="&#x20a1;" horiz-adv-x="547" 
d="M157 326c0 -151 45 -235 125 -235c59 0 92 21 110 88h123c-13 -84 -57 -146 -135 -173v-101h-71v88c-7 -1 -15 -1 -23 -1h-16v-87h-70v101c-107 36 -167 147 -167 318c0 173 59 286 167 325v79h70v-64c8 1 16 1 25 1h14v63h71v-75c87 -29 127 -100 134 -172h-123
c-9 44 -37 88 -104 88c-92 0 -130 -86 -130 -243z" />
    <glyph glyph-name="lira" unicode="&#x20a4;" horiz-adv-x="532" 
d="M501 0h-466v97c50 22 66 62 70 127h-83v72h85c-1 20 -2 38 -3 58h-82v73h78v20c0 136 64 222 202 222c149 0 192 -108 197 -168h-119c-5 35 -25 68 -79 68c-58 0 -78 -41 -78 -111v-31h142v-73h-140c1 -18 1 -37 1 -58h139v-72h-141c-4 -49 -14 -89 -40 -118h332z" />
    <glyph glyph-name="franc" unicode="&#x20a3;" horiz-adv-x="522" 
d="M94 0v124h-82v86h82v448h390v-105h-266v-153h248v-103h-248v-87h117v-86h-117v-124h-124z" />
    <glyph glyph-name="uni20A6" unicode="&#x20a6;" horiz-adv-x="565" 
d="M160 561c3 -33 4 -71 5 -113h35l-33 113h-7zM383 114h8c-3 36 -6 78 -7 123h-38zM166 0h-95v237h-50v72h50v66h-50v73h50v210h149l63 -210h98v210h94v-210h51v-73h-51v-66h51v-72h-51v-237h-142l-70 237h-97v-4v-233zM382 309c0 22 -1 44 -1 66h-76l20 -66h57zM242 309
l-20 66h-56v-66h76z" />
    <glyph glyph-name="peseta" unicode="&#x20a7;" horiz-adv-x="540" 
d="M65 0v403h-62v75h62v180h184c130 0 224 -59 240 -180h49v-75h-50c-16 -117 -109 -182 -246 -182h-60v-221h-117zM182 569v-91h188c-10 59 -48 91 -121 91h-67zM182 312h60c72 0 117 26 128 91h-188v-91z" />
    <glyph glyph-name="dong" unicode="&#x20ab;" horiz-adv-x="560" 
d="M53 -72h432v-83h-432v83zM363 665h117v-62h60v-83h-60v-379c0 -47 0 -109 1 -141h-112c-3 13 -5 38 -6 57c-24 -36 -61 -66 -140 -66c-107 0 -194 90 -194 230c0 147 97 234 210 234c73 0 107 -23 124 -46v111h-220v83h220v62zM149 223c0 -88 43 -138 110 -138
c57 0 108 35 108 144c0 94 -42 133 -105 133c-74 0 -113 -54 -113 -139z" />
    <glyph glyph-name="dong.alt" horiz-adv-x="560" 
d="M363 665h117v-62h60v-83h-60v-379c0 -47 0 -109 1 -141h-112c-3 13 -5 38 -6 57c-24 -36 -61 -66 -140 -66c-107 0 -194 90 -194 230c0 147 97 234 210 234c73 0 107 -23 124 -46v111h-220v83h220v62zM149 223c0 -88 43 -138 110 -138c57 0 108 35 108 144
c0 94 -42 133 -105 133c-74 0 -113 -54 -113 -139z" />
    <glyph glyph-name="uni20B1" unicode="&#x20b1;" horiz-adv-x="598" 
d="M91 0v351h-61v63h61v42h-61v62h61v140h187c110 0 199 -43 231 -140h53v-62h-42c1 -7 1 -14 1 -21s0 -14 -1 -21h42v-63h-54c-33 -95 -124 -145 -239 -145h-64v-206h-114zM205 571v-53h185c-20 35 -56 53 -112 53h-73zM408 433c0 8 0 16 -1 23h-202v-42h202c1 6 1 12 1 19
zM205 295h64c56 0 99 16 121 56h-185v-56z" />
    <glyph glyph-name="uni20B2" unicode="&#x20b2;" horiz-adv-x="568" 
d="M528 486h-120c-11 42 -36 84 -108 84c-94 0 -128 -108 -128 -226c0 -143 29 -254 148 -254c28 0 56 3 76 15v228h127v-302c-67 -24 -109 -38 -168 -43v-74h-106v80c-131 27 -202 144 -202 339c0 183 73 305 203 331v63h105v-62c102 -17 165 -85 173 -179z" />
    <glyph glyph-name="uni20B4" unicode="&#x20b4;" horiz-adv-x="552" 
d="M187 502h-120c8 95 83 168 208 168c142 0 202 -83 202 -169c0 -28 -5 -53 -17 -76h46v-66h-105c-21 -17 -47 -34 -80 -52h176v-67h-281c-31 -26 -39 -48 -39 -74c0 -47 37 -82 94 -82c72 0 99 38 107 79h120c-18 -116 -99 -175 -235 -175c-117 0 -209 70 -209 173
c0 29 5 54 20 79h-38v67h100c21 16 46 33 77 52h-167v66h272c29 25 39 47 39 75c0 36 -24 77 -83 77c-54 0 -81 -31 -87 -75z" />
    <glyph glyph-name="uni20B5" unicode="&#x20b5;" horiz-adv-x="571" 
d="M157 326c0 -132 40 -230 128 -230c60 0 88 25 107 86h123c-18 -97 -73 -168 -176 -186v-82h-105v83c-128 24 -201 139 -201 327c0 194 71 309 201 335v68h105v-65c115 -18 168 -107 175 -188h-123c-10 44 -37 89 -104 89c-92 0 -130 -82 -130 -237z" />
    <glyph glyph-name="uni20B9" unicode="&#x20b9;" horiz-adv-x="534" 
d="M501 454h-94c-3 -95 -63 -149 -140 -176l206 -278h-141l-190 257h-10h-85v91h94c68 0 139 24 144 106h-238v75h220c-21 32 -61 50 -118 50h-102v79h454v-77h-132c12 -15 22 -32 28 -52h104v-75z" />
    <glyph glyph-name="uni20BA" unicode="&#x20ba;" horiz-adv-x="568" 
d="M237 0h-128v248l-78 -33v74l78 33v67l-78 -33v75l78 33v194h124v-141l116 49v-74l-116 -50v-67l116 49v-74l-116 -49v-201c115 0 162 58 174 164h110c-6 -116 -65 -264 -280 -264z" />
    <glyph glyph-name="uni20BD" unicode="&#x20bd;" horiz-adv-x="586" 
d="M91 0v128h-67v81h67v74h-67v97h67v278h220c148 0 234 -69 234 -183c0 -131 -85 -192 -235 -192h-91v-74h162v-81h-162v-128h-128zM219 561v-181h86c78 0 111 30 111 91c0 56 -35 90 -110 90h-87z" />
    <glyph glyph-name="currency.tab" horiz-adv-x="561" 
d="M278 549c43 0 82 -12 115 -34l71 74l66 -70l-73 -75c15 -30 24 -66 24 -106c0 -41 -9 -78 -25 -110l74 -76l-66 -71l-71 74c-32 -22 -71 -34 -117 -34c-43 0 -82 12 -114 33l-70 -73l-67 71l73 74c-17 31 -26 68 -26 109c0 40 9 77 27 109l-74 75l67 70l71 -73
c32 20 71 33 115 33zM276 457c-64 0 -104 -42 -104 -121c0 -92 54 -125 104 -125c57 0 102 33 102 126c0 76 -36 120 -102 120z" />
    <glyph glyph-name="dollar.tab" horiz-adv-x="561" 
d="M327 -86h-106v82c-115 17 -180 88 -188 184h123c12 -58 56 -94 121 -94c78 0 110 37 110 86c0 54 -27 82 -127 111c-160 46 -213 103 -213 200c0 99 73 162 169 178v66h105v-66c125 -17 168 -96 175 -169h-123c-9 35 -28 80 -108 80c-71 0 -94 -41 -94 -77
c0 -50 26 -71 135 -102c152 -42 205 -103 205 -207c0 -111 -72 -175 -184 -190v-82z" />
    <glyph glyph-name="sterling.tab" horiz-adv-x="561" 
d="M511 0h-466v97c56 29 71 84 71 184v8h-83v90h78c-1 20 -2 43 -2 70c0 126 61 220 199 220c149 0 190 -103 195 -173h-119c-6 38 -25 73 -77 73c-58 0 -75 -41 -75 -109c0 -32 1 -56 2 -81h144v-90h-142c0 -82 -12 -142 -45 -183h335z" />
    <glyph glyph-name="yen.tab" horiz-adv-x="561" 
d="M470 147h-130v-147h-124v147h-128v77h128v59h-128v77h109l-173 298h140c91 -177 110 -213 120 -243h1c11 27 35 73 123 243h129l-178 -298h111v-77h-130v-59h130v-77z" />
    <glyph glyph-name="Euro.tab" horiz-adv-x="561" 
d="M395 163h121c-22 -105 -96 -174 -213 -174c-134 0 -212 90 -233 245h-59v74h53v20c0 12 0 24 1 36h-54v74h62c28 148 113 231 234 231c141 0 201 -98 209 -174h-120c-13 45 -43 76 -94 76c-60 0 -95 -44 -109 -133h166v-74h-173v-31v-25h173v-74h-167
c13 -93 47 -144 112 -144c53 0 78 33 91 73z" />
    <glyph glyph-name="cent.tab" horiz-adv-x="561" 
d="M401 238h123c-16 -81 -74 -145 -169 -164v-86h-105v85c-121 19 -197 116 -197 249c0 123 71 230 198 251v66h104v-67c124 -20 165 -109 169 -167h-123c-11 36 -34 76 -104 76c-82 0 -119 -70 -119 -155c0 -87 37 -159 118 -159c63 0 90 30 105 71z" />
    <glyph glyph-name="florin.tab" horiz-adv-x="561" 
d="M530 678l-22 -94c-16 8 -35 12 -54 12c-56 0 -73 -53 -83 -117l-9 -59h109v-92h-124l-34 -221c-19 -127 -59 -224 -184 -224c-38 0 -75 6 -100 22l23 96c17 -9 45 -14 63 -14c48 0 58 38 73 126l35 215h-90v92h105l7 41c16 103 54 235 195 235c42 0 73 -6 90 -18z" />
    <glyph glyph-name="colonmonetary.tab" horiz-adv-x="561" 
d="M154 326c0 -151 45 -235 125 -235c59 0 92 21 110 88h123c-13 -84 -57 -146 -135 -173v-101h-71v88c-7 -1 -15 -1 -23 -1h-16v-87h-70v101c-107 36 -167 147 -167 318c0 173 59 286 167 325v79h70v-64c8 1 16 1 25 1h14v63h71v-75c87 -29 127 -100 134 -172h-123
c-9 44 -37 88 -104 88c-92 0 -130 -86 -130 -243z" />
    <glyph glyph-name="lira.tab" horiz-adv-x="561" 
d="M510 0h-466v97c50 22 66 62 70 127h-83v72h85c-1 20 -2 38 -3 58h-82v73h78v20c0 136 64 222 202 222c149 0 192 -108 197 -168h-119c-5 35 -25 68 -79 68c-58 0 -78 -41 -78 -111v-31h142v-73h-140c1 -18 1 -37 1 -58h139v-72h-141c-4 -49 -14 -89 -40 -118h332z" />
    <glyph glyph-name="franc.tab" horiz-adv-x="561" 
d="M116 0v124h-82v86h82v448h390v-105h-266v-153h248v-103h-248v-87h117v-86h-117v-124h-124z" />
    <glyph glyph-name="uni20A6.tab" horiz-adv-x="561" 
d="M152 561c3 -33 4 -71 5 -113h35l-33 113h-7zM375 114h8c-3 36 -6 78 -7 123h-38zM158 0h-95v237h-50v72h50v66h-50v73h50v210h149l63 -210h98v210h94v-210h51v-73h-51v-66h51v-72h-51v-237h-142l-70 237h-97v-4v-233zM374 309c0 22 -1 44 -1 66h-76l20 -66h57zM234 309
l-20 66h-56v-66h76z" />
    <glyph glyph-name="peseta.tab" horiz-adv-x="561" 
d="M54 0v403h-62v75h62v180h184c130 0 224 -59 240 -180h49v-75h-50c-16 -117 -109 -182 -246 -182h-60v-221h-117zM171 569v-91h188c-10 59 -48 91 -121 91h-67zM171 312h60c72 0 117 26 128 91h-188v-91z" />
    <glyph glyph-name="dong.tab" horiz-adv-x="561" 
d="M42 -72h432v-83h-432v83zM352 665h117v-62h60v-83h-60v-379c0 -47 0 -109 1 -141h-112c-3 13 -5 38 -6 57c-24 -36 -61 -66 -140 -66c-107 0 -194 90 -194 230c0 147 97 234 210 234c73 0 107 -23 124 -46v111h-220v83h220v62zM138 223c0 -88 43 -138 110 -138
c57 0 108 35 108 144c0 94 -42 133 -105 133c-74 0 -113 -54 -113 -139z" />
    <glyph glyph-name="dong.alttab" horiz-adv-x="561" 
d="M352 665h117v-62h60v-83h-60v-379c0 -47 0 -109 1 -141h-112c-3 13 -5 38 -6 57c-24 -36 -61 -66 -140 -66c-107 0 -194 90 -194 230c0 147 97 234 210 234c73 0 107 -23 124 -46v111h-220v83h220v62zM138 223c0 -88 43 -138 110 -138c57 0 108 35 108 144
c0 94 -42 133 -105 133c-74 0 -113 -54 -113 -139z" />
    <glyph glyph-name="uni20B1.tab" horiz-adv-x="561" 
d="M50 0v351h-61v63h61v42h-61v62h61v140h187c110 0 199 -43 231 -140h53v-62h-42c1 -7 1 -14 1 -21s0 -14 -1 -21h42v-63h-54c-33 -95 -124 -145 -239 -145h-64v-206h-114zM164 571v-53h185c-20 35 -56 53 -112 53h-73zM367 433c0 8 0 16 -1 23h-202v-42h202c1 6 1 12 1 19
zM164 295h64c56 0 99 16 121 56h-185v-56z" />
    <glyph glyph-name="uni20B2.tab" horiz-adv-x="561" 
d="M497 486h-120c-11 42 -36 84 -108 84c-94 0 -128 -108 -128 -226c0 -143 29 -254 148 -254c28 0 56 3 76 15v228h127v-302c-67 -24 -109 -38 -168 -43v-74h-106v80c-131 27 -202 144 -202 339c0 183 73 305 203 331v63h105v-62c102 -17 165 -85 173 -179z" />
    <glyph glyph-name="uni20B4.tab" horiz-adv-x="561" 
d="M187 502h-120c8 95 83 168 208 168c142 0 202 -83 202 -169c0 -28 -5 -53 -17 -76h46v-66h-105c-21 -17 -47 -34 -80 -52h176v-67h-281c-31 -26 -39 -48 -39 -74c0 -47 37 -82 94 -82c72 0 99 38 107 79h120c-18 -116 -99 -175 -235 -175c-117 0 -209 70 -209 173
c0 29 5 54 20 79h-38v67h100c21 16 46 33 77 52h-167v66h272c29 25 39 47 39 75c0 36 -24 77 -83 77c-54 0 -81 -31 -87 -75z" />
    <glyph glyph-name="uni20B5.tab" horiz-adv-x="561" 
d="M140 326c0 -132 40 -230 128 -230c60 0 88 25 107 86h123c-18 -97 -73 -168 -176 -186v-82h-105v83c-128 24 -201 139 -201 327c0 194 71 309 201 335v68h105v-65c115 -18 168 -107 175 -188h-123c-10 44 -37 89 -104 89c-92 0 -130 -82 -130 -237z" />
    <glyph glyph-name="uni20B9.tab" horiz-adv-x="561" 
d="M507 454h-94c-3 -95 -63 -149 -140 -176l206 -278h-141l-190 257h-10h-85v91h94c68 0 139 24 144 106h-238v75h220c-21 32 -61 50 -118 50h-102v79h454v-77h-132c12 -15 22 -32 28 -52h104v-75z" />
    <glyph glyph-name="uni20BA.tab" horiz-adv-x="561" 
d="M231 0h-128v248l-78 -33v74l78 33v67l-78 -33v75l78 33v194h124v-141l116 49v-74l-116 -50v-67l116 49v-74l-116 -49v-201c115 0 162 58 174 164h110c-6 -116 -65 -264 -280 -264z" />
    <glyph glyph-name="uni20BD.tab" horiz-adv-x="561" 
d="M61 0v128h-67v81h67v74h-67v97h67v278h220c148 0 234 -69 234 -183c0 -131 -85 -192 -235 -192h-91v-74h162v-81h-162v-128h-128zM189 561v-181h86c78 0 111 30 111 91c0 56 -35 90 -110 90h-87z" />
    <glyph glyph-name="currency.cap" horiz-adv-x="556" 
d="M279 569c43 0 83 -12 115 -34l71 73l66 -69l-73 -76c15 -30 24 -66 24 -106c0 -41 -9 -78 -25 -110l74 -76l-66 -70l-71 73c-32 -22 -71 -34 -117 -34c-43 0 -82 12 -114 34l-70 -73l-67 70l73 74c-17 31 -26 69 -26 110c0 40 9 77 27 109l-74 75l67 69l71 -73
c32 21 70 33 115 34zM277 477c-64 0 -104 -43 -104 -121c0 -92 53 -126 104 -126c57 0 102 33 102 126c0 76 -36 121 -102 121z" />
    <glyph glyph-name="dollar.cap" horiz-adv-x="568" 
d="M334 -93h-108v87c-121 16 -188 87 -200 189h126c14 -66 61 -99 132 -99c82 0 119 38 119 95s-33 91 -138 121c-168 49 -224 109 -224 212c0 105 75 169 178 185v72h107v-71c134 -18 177 -100 186 -173h-129c-8 31 -28 81 -116 81c-77 0 -99 -45 -99 -84
c0 -52 32 -75 143 -108c169 -49 218 -122 218 -221c0 -111 -77 -182 -195 -198v-88z" />
    <glyph glyph-name="sterling.cap" horiz-adv-x="560" 
d="M528 0h-489v95c57 40 79 107 79 191v16h-96v90h90c-2 27 -3 56 -3 88c0 129 71 222 210 222c154 0 201 -108 207 -177h-123c-7 45 -33 76 -84 76c-60 0 -85 -41 -85 -116c0 -34 1 -63 3 -93h147v-90h-145v-5c0 -87 -21 -150 -55 -192h359z" />
    <glyph glyph-name="yen.cap" horiz-adv-x="522" 
d="M456 154h-135v-154h-124v154h-135v77h135v68h-135v79h116l-183 314h140c93 -180 116 -225 127 -257h1c12 27 42 84 134 257h130l-186 -314h115v-79h-135v-68h135v-77z" />
    <glyph glyph-name="Euro.cap" horiz-adv-x="588" 
d="M434 167h122c-25 -113 -100 -178 -222 -178c-142 0 -224 90 -246 256h-62v77h56v23c0 13 0 25 1 37h-57v77h65c29 166 123 243 246 243c142 0 210 -94 219 -178h-121c-14 52 -50 79 -104 79c-65 0 -102 -45 -116 -144h177v-77h-184v-32v-28h184v-77h-178
c14 -104 52 -156 121 -156c57 0 87 32 99 78z" />
    <glyph glyph-name="cent.cap" horiz-adv-x="576" 
d="M418 248h126c-18 -89 -79 -154 -183 -171v-83h-106v83c-127 21 -206 123 -206 261c0 140 77 244 207 264v68h105v-68c134 -22 178 -121 183 -176h-126c-11 40 -40 84 -115 84c-87 0 -127 -71 -127 -167c0 -94 39 -172 129 -172c68 0 99 35 113 77z" />
    <glyph glyph-name="florin.cap" horiz-adv-x="567" 
d="M549 714l-25 -98c-16 8 -39 11 -60 11c-60 0 -74 -57 -84 -124l-10 -62h115v-94h-129l-37 -235c-20 -134 -58 -235 -189 -235c-40 0 -78 6 -105 22l25 99c16 -9 46 -14 65 -14c51 0 62 42 77 135l38 228h-95v94h111l7 43c18 108 52 247 203 247c43 0 73 -6 93 -17z" />
    <glyph glyph-name="colonmonetary.cap" horiz-adv-x="574" 
d="M161 343c0 -140 43 -248 140 -248c61 0 94 27 115 94h125c-15 -94 -62 -158 -145 -184v-98h-71v86c-8 -1 -16 -1 -25 -1h-16v-85h-71v99c-114 39 -178 159 -178 335c0 178 63 300 178 342v78h71v-63c9 1 18 1 27 1h14v62h71v-74c94 -28 138 -104 144 -178h-125
c-14 51 -47 89 -115 89c-96 0 -139 -108 -139 -255z" />
    <glyph glyph-name="lira.cap" horiz-adv-x="560" 
d="M528 0h-489v95c45 32 68 77 76 139h-89v73h92c-1 19 -3 39 -4 61h-88v75h84c-1 11 -1 22 -1 33c0 129 69 226 210 226c157 0 201 -108 207 -177h-123c-7 42 -30 76 -84 76c-63 0 -85 -48 -85 -117c0 -15 0 -28 1 -41h146v-75h-143c0 -18 1 -38 1 -61h142v-73h-145
c-6 -55 -21 -97 -48 -129h355z" />
    <glyph glyph-name="franc.cap" horiz-adv-x="532" 
d="M89 0v138h-86v85h86v469h410v-108h-284v-162h264v-105h-264v-94h127v-85h-127v-138h-126z" />
    <glyph glyph-name="uni20A6.cap" horiz-adv-x="599" 
d="M165 576c2 -31 4 -66 5 -105h35l-33 105h-7zM406 133h8c-3 36 -5 77 -7 121h-40zM171 0h-100v254h-52v75h52v65h-52v77h52v221h157l70 -221h106v221h98v-221h53v-77h-53v-65h53v-75h-53v-254h-148l-80 254h-103v-25v-229zM405 329c0 21 -1 43 -1 65h-81l21 -65h61z
M250 329l-20 65h-59v-65h79z" />
    <glyph glyph-name="peseta.cap" horiz-adv-x="587" 
d="M74 0v418h-66v85h66v189h198c131 0 233 -60 250 -189h52v-85h-52c-19 -126 -118 -190 -257 -190h-69v-228h-122zM196 599v-96h202c-13 65 -60 96 -131 96h-71zM196 323h63c69 0 124 22 139 95h-202v-95z" />
    <glyph glyph-name="dong.cap" horiz-adv-x="588" 
d="M55 -75h455v-83h-455v83zM382 692h122v-59h63v-83h-63v-419c0 -44 0 -101 1 -131h-117c-3 14 -5 43 -6 60c-25 -38 -65 -69 -147 -69c-113 0 -205 90 -205 241c0 156 103 246 222 246c76 0 112 -24 130 -48v120h-232v83h232v59zM156 234c0 -92 46 -145 116 -145
c60 0 114 36 114 152c0 99 -44 140 -112 140c-76 0 -118 -60 -118 -147z" />
    <glyph glyph-name="dong.altcap" horiz-adv-x="588" 
d="M382 692h122v-59h63v-83h-63v-419c0 -44 0 -101 1 -131h-117c-3 14 -5 43 -6 60c-25 -38 -65 -69 -147 -69c-113 0 -205 90 -205 241c0 156 103 246 222 246c76 0 112 -24 130 -48v120h-232v83h232v59zM156 234c0 -92 46 -145 116 -145c60 0 114 36 114 152
c0 99 -44 140 -112 140c-76 0 -118 -60 -118 -147z" />
    <glyph glyph-name="uni20B1.cap" horiz-adv-x="633" 
d="M95 0v377h-63v59h63v46h-63v58h63v152h199c116 0 212 -46 244 -152h55v-58h-45c1 -8 1 -16 1 -24s0 -15 -1 -22h45v-59h-55c-33 -105 -130 -159 -253 -159h-68v-218h-122zM217 600v-60h195c-20 39 -58 60 -120 60h-75zM428 455c0 9 0 19 -1 27h-210v-46h210
c1 6 1 12 1 19zM217 310h65c63 0 109 19 131 67h-196v-67z" />
    <glyph glyph-name="uni20B2.cap" horiz-adv-x="596" 
d="M553 508h-126c-10 37 -33 86 -113 86c-98 0 -136 -106 -136 -232c0 -164 36 -264 162 -264c30 0 59 6 78 18v233h129v-310c-71 -25 -116 -40 -177 -45v-87h-108v92c-140 27 -215 146 -215 351c0 190 82 314 215 341v76h108v-75c106 -16 174 -84 183 -184z" />
    <glyph glyph-name="uni20B4.cap" horiz-adv-x="575" 
d="M192 525h-122c13 103 90 178 221 178c148 0 210 -95 210 -177c0 -26 -4 -50 -14 -72h45v-69h-101c-25 -22 -59 -44 -100 -66h191v-70h-301c-28 -25 -36 -46 -36 -74c0 -52 40 -89 101 -89c76 0 102 38 113 83h124c-17 -116 -102 -181 -248 -181c-129 0 -218 76 -218 180
c0 29 5 56 19 81h-39v70h101c25 21 57 42 98 66h-188v69h295c25 23 34 44 34 71c0 39 -25 81 -89 81c-60 0 -86 -33 -96 -81z" />
    <glyph glyph-name="uni20B5.cap" horiz-adv-x="600" 
d="M161 343c0 -152 46 -246 139 -246c62 0 97 29 116 94h125c-17 -101 -76 -176 -186 -195v-89h-108v89c-135 24 -212 141 -212 345c0 197 75 323 212 352v76h108v-73c122 -18 178 -107 185 -189h-125c-14 51 -46 89 -114 89c-92 0 -140 -90 -140 -253z" />
    <glyph glyph-name="uni20B9.cap" horiz-adv-x="563" 
d="M527 474h-99c-6 -103 -68 -158 -148 -184l208 -290h-143l-194 270h-12h-89v95h102c73 0 145 27 151 109h-253v75h240c-21 39 -64 62 -126 62h-114v81h477v-77h-140c16 -18 27 -40 34 -66h106v-75z" />
    <glyph glyph-name="uni20BA.cap" horiz-adv-x="582" 
d="M533 267c-6 -117 -70 -267 -289 -267h-128v247l-80 -37v74l80 37v65l-80 -37v75l80 37v231h124v-174l122 56v-74l-122 -57v-65l122 57v-75l-122 -56v-204c116 0 171 56 182 167h111z" />
    <glyph glyph-name="uni20BD.cap" horiz-adv-x="611" 
d="M107 0v145h-67v81h67v75h-67v96h67v295h213c150 0 241 -72 241 -192c0 -133 -102 -199 -242 -199h-84v-75h161v-81h-161v-145h-128zM235 595v-198h78c81 0 119 32 119 100c0 65 -42 98 -117 98h-80z" />
    <glyph glyph-name="at.cap" horiz-adv-x="939" 
d="M676 15l21 -79c-48 -30 -122 -56 -240 -56c-228 0 -400 159 -400 403c0 261 178 445 443 445c208 0 386 -119 386 -352c0 -177 -92 -289 -233 -289c-59 0 -102 21 -111 67c-34 -43 -71 -67 -136 -67c-84 0 -144 60 -144 175c0 149 93 266 207 266c67 0 100 -32 110 -65
l15 55h109l-59 -272c-12 -54 0 -71 33 -71c65 0 114 79 114 197c0 167 -118 271 -293 271c-203 0 -338 -135 -338 -360c-1 -175 117 -314 303 -314c83 0 151 13 213 46zM488 442c-68 0 -109 -91 -109 -176c0 -58 21 -90 61 -90c49 0 85 35 105 128c22 96 1 138 -57 138z" />
    <glyph glyph-name="emdash.cap" horiz-adv-x="846" 
d="M55 409h736v-105h-736v105z" />
    <glyph glyph-name="endash.cap" horiz-adv-x="499" 
d="M55 409h389v-105h-389v105z" />
    <glyph glyph-name="hyphen.cap" horiz-adv-x="383" 
d="M55 412h273v-110h-273v110z" />
    <glyph glyph-name="uni00AD.cap" horiz-adv-x="383" 
d="M55 412h273v-110h-273v110z" />
    <glyph glyph-name="exclamdown.cap" horiz-adv-x="275" 
d="M72 448h101l16 -326v-121h-133v121zM63 693h122v-156h-122v156z" />
    <glyph glyph-name="questiondown.cap" horiz-adv-x="473" 
d="M25 51c0 66 21 117 91 182c46 42 63 72 63 115v10h129v-20c0 -62 -25 -106 -99 -176c-48 -44 -62 -73 -62 -110c0 -42 28 -84 88 -84c56 0 96 30 104 110h110c-2 -101 -54 -207 -220 -207c-149 1 -204 92 -204 180zM179 573h129v-156h-129v156z" />
    <glyph glyph-name="guillemotleft.cap" horiz-adv-x="583" 
d="M314 542l-148 -196l148 -196h-110l-150 196l150 196h110zM529 542l-149 -196l149 -196h-111l-150 196l150 196h111z" />
    <glyph glyph-name="guillemotright.cap" horiz-adv-x="583" 
d="M269 153l148 196l-148 196h109l151 -196l-151 -196h-109zM54 153l149 196l-149 196h111l149 -196l-149 -196h-111z" />
    <glyph glyph-name="guilsinglleft.cap" horiz-adv-x="383" 
d="M329 542l-164 -196l164 -196h-108l-167 196l167 196h108z" />
    <glyph glyph-name="guilsinglright.cap" horiz-adv-x="383" 
d="M54 150l164 196l-164 196h108l167 -196l-167 -196h-108z" />
    <glyph glyph-name="parenleft.cap" horiz-adv-x="361" 
d="M202 789h121c-83 -110 -156 -263 -156 -446c0 -168 59 -328 156 -458h-121c-79 108 -148 262 -148 459s72 339 148 445z" />
    <glyph glyph-name="parenright.cap" horiz-adv-x="361" 
d="M158 -115h-120c83 110 156 263 156 446c0 168 -59 328 -156 458h120c79 -108 148 -262 148 -459c0 -196 -71 -339 -148 -445z" />
    <glyph glyph-name="braceleft.cap" horiz-adv-x="380" 
d="M26 289v98c94 0 108 38 108 104v119c0 123 78 179 180 179h29v-88h-15c-62 0 -81 -38 -81 -99v-111c0 -82 -31 -139 -106 -152c78 -14 106 -69 106 -155v-109c0 -64 27 -102 84 -102h12v-89h-29c-91 0 -180 46 -180 178v123c0 62 -12 103 -108 104z" />
    <glyph glyph-name="braceright.cap" horiz-adv-x="380" 
d="M343 385v-98c-95 0 -108 -39 -108 -105v-119c0 -123 -78 -179 -180 -179h-29v89h14c63 0 82 37 82 98v111c0 82 30 139 106 152c-78 14 -106 69 -106 155v109c0 64 -27 103 -84 103h-12v88h29c91 0 180 -46 180 -178v-123c0 -61 12 -103 108 -103z" />
    <glyph glyph-name="bracketleft.cap" horiz-adv-x="353" 
d="M316 -115h-236v904h236v-94h-129v-715h129v-95z" />
    <glyph glyph-name="bracketright.cap" horiz-adv-x="353" 
d="M37 789h236v-904h-236v94h129v715h-129v95z" />
    <glyph glyph-name="bullet.cap" horiz-adv-x="403" 
d="M90 464h223v-228h-223v228z" />
    <glyph glyph-name="periodcentered.cap" horiz-adv-x="234" 
d="M184 289h-133v166h133v-166z" />
    <glyph glyph-name="bulletoperator.cap" horiz-adv-x="234" 
d="M184 289h-133v166h133v-166z" />
    <glyph glyph-name="fraction" unicode="&#x2044;" horiz-adv-x="188" 
d="M-73 0h-87l423 658h87z" />
    <glyph glyph-name="uni2215" unicode="&#x2215;" horiz-adv-x="188" 
d="M-73 0h-87l423 658h87z" />
    <glyph glyph-name="slash.frac" horiz-adv-x="188" 
d="M-73 0h-87l423 658h87z" />
    <glyph glyph-name="percent" unicode="%" horiz-adv-x="911" 
d="M211 670c103 0 173 -67 173 -188c0 -110 -62 -190 -174 -190c-107 0 -174 68 -174 189c0 105 61 189 175 189zM211 589c-47 0 -76 -36 -76 -107c0 -68 27 -109 76 -109s77 37 77 109c0 74 -30 107 -77 107zM299 0h-95l413 659h95zM706 365c104 0 173 -66 173 -188
c0 -110 -62 -189 -174 -190c-107 0 -174 70 -174 190c0 104 61 188 175 188zM706 284c-46 0 -76 -37 -76 -107c0 -68 27 -109 76 -109s77 37 77 109c0 74 -30 107 -77 107z" />
    <glyph glyph-name="percent.alt" horiz-adv-x="534" 
d="M127 395c-63 0 -104 50 -104 119c0 67 41 119 104 119c67 0 106 -52 106 -119s-38 -119 -106 -119zM127 577c-25 0 -42 -20 -42 -63c0 -36 17 -64 43 -64c27 0 44 25 44 64c0 42 -18 63 -45 63zM108 224l274 403h51l-272 -403h-53zM411 217c-64 0 -105 50 -105 119
c0 67 41 118 105 118c66 0 104 -51 104 -118c0 -68 -37 -119 -104 -119zM411 400c-26 0 -43 -21 -43 -64c0 -37 17 -64 43 -64c27 0 43 25 43 64c0 42 -17 64 -43 64z" />
    <glyph glyph-name="perthousand" unicode="&#x2030;" horiz-adv-x="1306" 
d="M1096 365c104 0 173 -67 173 -188c0 -109 -62 -189 -175 -190c-106 0 -173 70 -173 190c0 103 61 188 175 188zM1095 284c-45 0 -75 -35 -75 -107c0 -68 26 -109 76 -109c49 0 77 37 77 109c0 74 -30 107 -78 107zM211 670c103 0 173 -67 173 -188
c0 -110 -62 -190 -174 -190c-107 0 -174 68 -174 189c0 105 61 189 175 189zM211 589c-47 0 -76 -36 -76 -107c0 -68 27 -109 76 -109s77 37 77 109c0 74 -30 107 -77 107zM299 0h-95l413 659h95zM706 365c104 0 173 -66 173 -188c0 -110 -62 -189 -174 -190
c-107 0 -174 70 -174 190c0 104 61 188 175 188zM706 284c-46 0 -76 -37 -76 -107c0 -68 27 -109 76 -109s77 37 77 109c0 74 -30 107 -77 107z" />
    <glyph glyph-name="onequarter" unicode="&#xbc;" horiz-adv-x="810" 
d="M202 1h-87l423 658h87zM207 261h-99v288c-19 -7 -57 -12 -75 -11v72c52 7 83 29 108 53h66v-402zM720 0h-90v97h-194v71l168 228h116v-228h59l-7 -71h-52v-97zM524 168h106v60c0 21 1 70 3 94c-16 -27 -75 -106 -109 -154z" />
    <glyph glyph-name="onehalf" unicode="&#xbd;" horiz-adv-x="841" 
d="M203 0h-87l423 658h87zM210 261h-99v288c-19 -7 -57 -12 -75 -11v72c52 7 83 29 108 53h66v-402zM798 0h-305v7c0 78 34 136 124 191c61 36 79 47 79 78c0 28 -15 50 -54 50c-35 0 -55 -23 -61 -59h-92c6 77 63 135 157 135c115 0 150 -72 150 -123
c0 -64 -31 -91 -105 -131c-32 -18 -74 -47 -85 -73h205z" />
    <glyph glyph-name="threequarters" unicode="&#xbe;" horiz-adv-x="897" 
d="M313 1h-87l423 658h87zM811 0h-90v97h-194v71l168 228h116v-228h59l-7 -71h-52v-97zM615 168h106v60c0 21 1 70 3 94c-16 -27 -75 -106 -109 -154zM163 431v78h30c43 0 60 14 60 38c0 25 -16 44 -57 44c-45 0 -58 -24 -64 -48h-87c4 39 33 120 155 120
c100 0 148 -50 148 -111c0 -46 -33 -69 -56 -77c29 -9 73 -36 73 -96c0 -55 -37 -122 -162 -122c-136 0 -163 86 -166 125h93c6 -27 29 -53 74 -53c40 0 62 21 62 51c0 37 -25 51 -66 51h-37z" />
    <glyph glyph-name="onethird" unicode="&#x2153;" horiz-adv-x="858" 
d="M214 1h-87l423 658h87zM209 261h-99v288c-19 -7 -57 -12 -75 -11v72c52 7 83 29 108 53h66v-402zM617 168v78h30c43 0 60 14 60 38c0 25 -16 44 -57 44c-45 0 -58 -24 -64 -48h-87c4 39 33 120 155 120c100 0 148 -50 148 -111c0 -46 -33 -69 -56 -77
c29 -9 73 -36 73 -96c0 -55 -37 -122 -162 -122c-136 0 -163 86 -166 125h93c6 -27 29 -53 74 -53c40 0 62 21 62 51c0 37 -25 51 -66 51h-37z" />
    <glyph glyph-name="twothirds" unicode="&#x2154;" horiz-adv-x="953" 
d="M326 1h-87l423 658h87zM348 261h-305v7c0 78 34 136 124 191c61 36 79 47 79 78c0 28 -15 50 -54 50c-35 0 -55 -23 -61 -59h-92c6 77 63 135 157 135c115 0 150 -72 150 -123c0 -64 -31 -91 -105 -131c-32 -18 -74 -47 -85 -73h205zM718 168v78h30c43 0 60 14 60 38
c0 25 -16 44 -57 44c-45 0 -58 -24 -64 -48h-87c4 39 33 120 155 120c100 0 148 -50 148 -111c0 -46 -33 -69 -56 -77c29 -9 73 -36 73 -96c0 -55 -37 -122 -162 -122c-136 0 -163 86 -166 125h93c6 -27 29 -53 74 -53c40 0 62 21 62 51c0 37 -25 51 -66 51h-37z" />
    <glyph glyph-name="oneeighth" unicode="&#x215b;" horiz-adv-x="825" 
d="M193 1h-87l423 658h87zM208 261h-99v288c-19 -7 -57 -12 -75 -11v72c52 7 83 29 108 53h66v-402zM622 -20c-110 0 -163 56 -163 121c0 46 29 77 67 92c-30 19 -49 48 -49 83c0 59 42 111 150 111c102 0 143 -57 143 -109c0 -40 -20 -65 -52 -80c41 -16 70 -47 70 -95
c0 -75 -69 -123 -166 -123zM624 45c48 0 69 25 69 56c0 39 -25 59 -70 59c-47 0 -68 -23 -68 -57c0 -33 25 -58 69 -58zM624 323c-39 0 -56 -20 -56 -47c0 -33 18 -51 58 -51c33 0 52 18 52 50c0 28 -14 48 -54 48z" />
    <glyph glyph-name="threeeighths" unicode="&#x215c;" horiz-adv-x="935" 
d="M301 1h-87l423 658h87zM731 -6c-110 0 -163 56 -163 121c0 46 29 77 67 92c-30 19 -49 48 -49 83c0 59 42 111 150 111c102 0 143 -57 143 -109c0 -40 -20 -65 -52 -80c41 -16 70 -47 70 -95c0 -75 -69 -123 -166 -123zM733 59c48 0 69 25 69 56c0 39 -25 59 -70 59
c-47 0 -68 -23 -68 -57c0 -33 25 -58 69 -58zM733 337c-39 0 -56 -20 -56 -47c0 -33 18 -51 58 -51c33 0 52 18 52 50c0 28 -14 48 -54 48zM160 431v78h30c43 0 60 14 60 38c0 25 -16 44 -57 44c-45 0 -58 -24 -64 -48h-87c4 39 33 120 155 120c100 0 148 -50 148 -111
c0 -46 -33 -69 -56 -77c29 -9 73 -36 73 -96c0 -55 -37 -122 -162 -122c-136 0 -163 86 -166 125h93c6 -27 29 -53 74 -53c40 0 62 21 62 51c0 37 -25 51 -66 51h-37z" />
    <glyph glyph-name="fiveeighths" unicode="&#x215d;" horiz-adv-x="950" 
d="M313 1h-87l423 658h87zM358 658l-12 -77h-184c-3 -22 -9 -55 -12 -75c17 12 42 23 87 23c81 0 139 -48 139 -129s-61 -143 -162 -143c-110 0 -157 66 -164 118h96c8 -22 23 -45 67 -45s63 27 63 65s-20 64 -66 64c-36 0 -56 -15 -66 -33l-87 12c10 58 28 162 35 220h266z
M743 -6c-110 0 -163 56 -163 121c0 46 29 77 67 92c-30 19 -49 48 -49 83c0 59 42 111 150 111c102 0 143 -57 143 -109c0 -40 -20 -65 -52 -80c41 -16 70 -47 70 -95c0 -75 -69 -123 -166 -123zM745 59c48 0 69 25 69 56c0 39 -25 59 -70 59c-47 0 -68 -23 -68 -57
c0 -33 25 -58 69 -58zM745 337c-39 0 -56 -20 -56 -47c0 -33 18 -51 58 -51c33 0 52 18 52 50c0 28 -14 48 -54 48z" />
    <glyph glyph-name="seveneighths" unicode="&#x215e;" horiz-adv-x="852" 
d="M213 1h-87l423 658h87zM649 -20c-110 0 -163 56 -163 121c0 46 29 77 67 92c-30 19 -49 48 -49 83c0 59 42 111 150 111c102 0 143 -57 143 -109c0 -40 -20 -65 -52 -80c41 -16 70 -47 70 -95c0 -75 -69 -123 -166 -123zM651 45c48 0 69 25 69 56c0 39 -25 59 -70 59
c-47 0 -68 -23 -68 -57c0 -33 25 -58 69 -58zM651 323c-39 0 -56 -20 -56 -47c0 -33 18 -51 58 -51c33 0 52 18 52 50c0 28 -14 48 -54 48zM45 658h299v-69c-72 -90 -120 -201 -152 -327h-105c23 112 91 243 154 319h-196v77z" />
    <glyph glyph-name="plus" unicode="+" horiz-adv-x="706" 
d="M301 562h106v-226h223v-106h-223v-230h-106v230h-224v106h224v226z" />
    <glyph glyph-name="minus" unicode="&#x2212;" horiz-adv-x="713" 
d="M633 230h-553v105h553v-105z" />
    </font>
</defs>
</svg>
