<svg xmlns="http://www.w3.org/2000/svg">
<defs>
<font id="BebasNeuePro-ExpandedBold" horiz-adv-x="348" >
  <font-face 
    font-family="Bebas Neue Pro Expanded"
    font-weight="700"
    font-stretch="expanded"
    units-per-em="1000"
    panose-1="2 11 6 6 2 2 2 5 2 1"
    ascent="700"
    descent="-300"
    x-height="506"
    cap-height="700"
    bbox="-260 -236 1001 969"
    underline-thickness="67"
    underline-position="-278"
    unicode-range="U+000D-FB02"
  />
<missing-glyph horiz-adv-x="738" 
d="M54 0v700h630v-700h-630zM152 134h434v432h-434v-432zM168 550h114v-112h-114v112zM346 390h-32v16h-16v80h32v32h-32v32h16v-16h32v-16h16v16h-16v16h32v-16h16v16h16v-32h16v-16h-16v-32h-16v-16h-16v48h-32v-16h16v-32h-16v16h-32v-48h16v32h16v-16h16v16h16v-32h-32
v-32zM426 550h16v-32h-16v32zM458 550h112v-112h-112v112zM184 454h82v80h-82v-80zM474 454h80v80h-80v-80zM200 518h50v-48h-50v48zM490 518h48v-48h-48v48zM410 454v-32h-16v32h16zM442 438h-16v16h16v-16zM200 406v-16h17v-16h-33v16h-16v32h49v-16h-17zM282 422v-16h-16
v-16h-32v16h16v16h32zM426 390v-16h-16v48h16v-16h16v-16h-16zM442 390h16v16h-16v16h64v-16h-16v-16h16v16h16v-16h16v-16h-16v-16h-32v16h-32v-16h-16v32zM570 374h-16v16h-16v32h32v-48zM282 406h16v-32h-32v16h16v16zM378 406h16v-16h-16v16zM362 390v-16h-16v16h16z
M217 358v16h17v-16h-17zM266 358h32v-16h-64v16h16v16h16v-16zM314 326v48h16v-48h-16zM410 358h-16v16h16v-16zM168 358h16v-32h-16v32zM410 342h48v16h32v-32h48v-16h-48v-16h16v-32h16v-16h-16v-16h16v-16h32v-16h16v-16h-32v16h-32v-32h-32v-16h-16v16h-16v-16h-16v32
h-16v-32h-32v16h16v16h-16v-16h-32v16h16v32h-16v-16h-16v32h48v16h16v-32h-16v-16h32v48h16v16h-16v16h-16v-16h-16v32h16v16h16v-16h16v16h-16v32zM378 310v-16h-32v16h16v32h-16v16h32v-16h16v-32h-16zM570 310h-16v16h-16v16h16v16h16v-48zM234 294h-17v16h-17v16h17v16
h17v-32h16v-32h-16v16zM298 326v-32h16v-32h-16v16h-32v16h16v16h-32v16h48zM330 326h16v-16h-16v16zM168 310h32v-16h-32v16zM314 310h16v-16h-16v16zM458 310h-16v-16h16v16zM217 278h-17v16h17v-16zM346 278h-16v16h16v-16zM538 294h16v-16h-16v16zM442 230h48v48h-48

<glyph glyph-name="fi" unicode="fi" horiz-adv-x="570" 
d="M102 506v54q0 150 148 150q39 0 71 -13v-94q-23 9 -50 9q-32 0 -45.5 -15t-13.5 -50v-41h109v-91h-109v-415h-110v415h-78v91h78zM404 583v126h110v-126h-110zM513 0h-110v506h110v-506z" />
    <glyph glyph-name="fl" unicode="fl" horiz-adv-x="570" 
d="M102 506v54q0 150 148 150q39 0 71 -13v-94q-23 9 -50 9q-32 0 -45.5 -15t-13.5 -50v-41h109v-91h-109v-415h-110v415h-78v91h78zM403 0v700h110v-700h-110z" />
    <glyph glyph-name=".notdef" horiz-adv-x="738" 
d="M54 0v700h630v-700h-630zM152 134h434v432h-434v-432zM168 550h114v-112h-114v112zM346 390h-32v16h-16v80h32v32h-32v32h16v-16h32v-16h16v16h-16v16h32v-16h16v16h16v-32h16v-16h-16v-32h-16v-16h-16v48h-32v-16h16v-32h-16v16h-32v-48h16v32h16v-16h16v16h16v-32h-32
v-32zM426 550h16v-32h-16v32zM458 550h112v-112h-112v112zM184 454h82v80h-82v-80zM474 454h80v80h-80v-80zM200 518h50v-48h-50v48zM490 518h48v-48h-48v48zM410 454v-32h-16v32h16zM442 438h-16v16h16v-16zM200 406v-16h17v-16h-33v16h-16v32h49v-16h-17zM282 422v-16h-16
v-16h-32v16h16v16h32zM426 390v-16h-16v48h16v-16h16v-16h-16zM442 390h16v16h-16v16h64v-16h-16v-16h16v16h16v-16h16v-16h-16v-16h-32v16h-32v-16h-16v32zM570 374h-16v16h-16v32h32v-48zM282 406h16v-32h-32v16h16v16zM378 406h16v-16h-16v16zM362 390v-16h-16v16h16z
M217 358v16h17v-16h-17zM266 358h32v-16h-64v16h16v16h16v-16zM314 326v48h16v-48h-16zM410 358h-16v16h16v-16zM168 358h16v-32h-16v32zM410 342h48v16h32v-32h48v-16h-48v-16h16v-32h16v-16h-16v-16h16v-16h32v-16h16v-16h-32v16h-32v-32h-32v-16h-16v16h-16v-16h-16v32
h-16v-32h-32v16h16v16h-16v-16h-32v16h16v32h-16v-16h-16v32h48v16h16v-32h-16v-16h32v48h16v16h-16v16h-16v-16h-16v32h16v16h16v-16h16v16h-16v32zM378 310v-16h-32v16h16v32h-16v16h32v-16h16v-32h-16zM570 310h-16v16h-16v16h16v16h16v-48zM234 294h-17v16h-17v16h17v16
h17v-32h16v-32h-16v16zM298 326v-32h16v-32h-16v16h-32v16h16v16h-32v16h48zM330 326h16v-16h-16v16zM168 310h32v-16h-32v16zM314 310h16v-16h-16v16zM458 310h-16v-16h16v16zM217 278h-17v16h17v-16zM346 278h-16v16h16v-16zM538 294h16v-16h-16v16zM442 230h48v48h-48
v-48zM522 278h16v-16h-16v16zM538 230v16h16v32h16v-64h-16v16h-16zM168 262h114v-112h-114v112zM314 246v16h16v-32h-32v16h16zM362 246h-16v16h16v-16zM458 262h16v-16h-16v16zM184 166h82v80h-82v-80zM200 230h50v-48h-50v48zM426 198h16v16h-16v-16zM458 182h32v32h-32
v-32zM298 198h32v-32h16v-16h-48v48zM522 166v-16h-16v16h16zM570 150h-16v16h16v-16z" />
    <glyph glyph-name=".null" horiz-adv-x="0" 
 />
    <glyph glyph-name="nonmarkingreturn" horiz-adv-x="333" 
 />
    <glyph glyph-name="CR" unicode="&#xd;" horiz-adv-x="182" 
 />
    <glyph glyph-name="space" unicode=" " horiz-adv-x="182" 
 />
    <glyph glyph-name="exclam" unicode="!" horiz-adv-x="254" 
d="M169 186h-84l-15 226v288h113v-288zM184 0h-115v111h115v-111z" />
    <glyph glyph-name="quotedbl" unicode="&#x22;" horiz-adv-x="384" 
d="M138 431h-62l-27 269h116zM307 431h-62l-27 269h116z" />
    <glyph glyph-name="numbersign" unicode="#" horiz-adv-x="508" 
d="M151 0h-86l29 203h-69l7 73h69l26 188h-71l8 73h71l22 163h84l-21 -163h111l22 163h83l-21 -163h68l-8 -73h-67l-26 -188h68l-8 -73h-68l-27 -203h-84l26 203h-111zM211 464l-26 -188h113l24 188h-111z" />
    <glyph glyph-name="dollar" unicode="$" horiz-adv-x="508" 
d="M301 15v-70h-93v69q-75 12 -116 61t-41 123v29h108v-36q0 -38 24.5 -59.5t67.5 -21.5q44 0 68.5 21t24.5 61q0 46 -26 70q-24 24 -105 53q-85 30 -122 76t-37 114q0 73 40 120.5t114 59.5v60h93v-59q74 -11 114 -58.5t40 -123.5v-5h-108v10q0 38 -23.5 59.5t-66.5 21.5
q-42 0 -65.5 -20.5t-23.5 -57.5q0 -39 27 -66q28 -26 104 -53q88 -32 123 -76t35 -117t-41 -122.5t-115 -62.5z" />
    <glyph glyph-name="percent" unicode="%" horiz-adv-x="718" 
d="M32 438v145q0 61 34 94t98 33t98 -33t34 -94v-145q0 -61 -34 -94t-98 -33t-98 33t-34 94zM224 0h-76l346 700h75zM164 375q57 0 57 58v155q0 58 -57 58q-56 0 -56 -58v-155q0 -58 56 -58zM422 117v145q0 61 34 94t98 33t98 -33t34 -94v-145q0 -61 -34 -94t-98 -33t-98 33
t-34 94zM610 112v155q0 58 -56 58t-56 -58v-155q0 -58 56 -58t56 58z" />
    <glyph glyph-name="ampersand" unicode="&#x26;" horiz-adv-x="524" 
d="M492 404v-95h-40v-161q0 -95 17 -148h-102q-7 7 -12 73q-44 -83 -152 -83q-158 0 -158 167v41q0 130 105 162v3q-50 15 -76 53t-26 90v18q0 90 52 138t150 48q100 0 151 -50t51 -145v-6h-105v18q0 88 -93 88q-94 0 -94 -92v-21q0 -98 107 -98h225zM343 188v121h-80
q-108 0 -108 -104v-35q0 -85 85 -85q47 0 75 26.5t28 76.5z" />
    <glyph glyph-name="quotesingle" unicode="'" horiz-adv-x="215" 
d="M138 431h-62l-27 269h116z" />
    <glyph glyph-name="parenleft" unicode="(" horiz-adv-x="339" 
d="M290 -100h-38q-98 0 -140.5 43t-42.5 142v431q0 98 42.5 141t140.5 43h38v-86h-32q-45 0 -65 -23t-20 -75v-431q0 -52 20 -75.5t65 -23.5h32v-86z" />
    <glyph glyph-name="parenright" unicode=")" horiz-adv-x="339" 
d="M86 -100h-37v86h31q46 0 65.5 23t19.5 76v431q0 52 -19.5 75t-65.5 23h-31v86h37q99 0 141.5 -43t42.5 -141v-431q0 -99 -42.5 -142t-141.5 -43z" />
    <glyph glyph-name="asterisk" unicode="*" horiz-adv-x="462" 
d="M231 458l-83 -143l-68 51l110 120l-161 36l27 81l150 -70l-18 167h86l-19 -167l151 70l26 -81l-161 -36l111 -120l-69 -51z" />
    <glyph glyph-name="plus" unicode="+" horiz-adv-x="508" 
d="M297 84h-86v175h-174v85h174v174h86v-174h174v-85h-174v-175z" />
    <glyph glyph-name="comma" unicode="," horiz-adv-x="241" 
d="M109 -112h-53l47 112h-40v126h114v-115z" />
    <glyph glyph-name="hyphen" unicode="-" horiz-adv-x="337" 
d="M302 254h-268v92h268v-92z" />
    <glyph glyph-name="period" unicode="." horiz-adv-x="241" 
d="M177 0h-114v126h114v-126z" />
    <glyph glyph-name="slash" unicode="/" horiz-adv-x="484" 
d="M116 -100h-98l350 800h98z" />
    <glyph glyph-name="zero" unicode="0" horiz-adv-x="508" 
d="M47 189v322q0 95 53.5 147t153.5 52t153.5 -52t53.5 -147v-322q0 -95 -53.5 -147t-153.5 -52t-153.5 52t-53.5 147zM347 184v332q0 46 -24 70t-69 24t-69 -24t-24 -70v-332q0 -46 24 -70t69 -24t69 24t24 70z" />
    <glyph glyph-name="one" unicode="1" horiz-adv-x="349" 
d="M289 0h-114v542q-77 -11 -150 -11v81q83 1 123 20q39 17 62 68h79v-700z" />
    <glyph glyph-name="two" unicode="2" horiz-adv-x="477" 
d="M432 0h-395v79q0 74 35 133q36 60 123 127q77 59 107 96q29 35 29 87q0 42 -23.5 65t-68.5 23t-69 -25.5t-24 -71.5v-49h-107v49q0 91 52.5 144t150.5 53q97 0 150 -50.5t53 -133.5q0 -73 -41 -129t-142 -136q-65 -51 -89 -83t-24 -72v-6h283v-100z" />
    <glyph glyph-name="three" unicode="3" horiz-adv-x="479" 
d="M236 -10q-203 0 -203 195v37h107v-38q0 -94 93 -94q50 0 72 23.5t22 74.5v19q0 56 -25 81.5t-81 25.5h-50v100h54q99 0 99 96v13q0 42 -23.5 64.5t-67.5 22.5q-88 0 -88 -87v-24h-108v14q0 96 51 146.5t150 50.5q96 0 148 -48.5t52 -135.5v-13q0 -49 -27 -88t-76 -54v-2
q105 -33 105 -162v-19q0 -198 -204 -198z" />
    <glyph glyph-name="four" unicode="4" horiz-adv-x="515" 
d="M421 0h-114v127h-280v99l268 474h126v-474h68v-99h-68v-127zM307 534l-175 -308h175v308z" />
    <glyph glyph-name="five" unicode="5" horiz-adv-x="489" 
d="M247 -10q-101 0 -152.5 51t-51.5 146v36h107v-39q0 -94 94 -94q93 0 93 94v108q0 94 -86 94q-81 0 -99 -79h-107l25 393h359v-100h-258l-13 -174q43 60 134 60q78 0 118.5 -47t40.5 -135v-117q0 -96 -51.5 -146.5t-152.5 -50.5z" />
    <glyph glyph-name="six" unicode="6" horiz-adv-x="501" 
d="M254 -10q-99 0 -152.5 51.5t-53.5 146.5v317q0 205 207 205q96 0 149.5 -51t53.5 -139h-108q0 90 -92 90q-49 0 -72.5 -26.5t-23.5 -83.5v-118q44 72 139 72q160 0 160 -183v-83q0 -95 -53.5 -146.5t-153.5 -51.5zM254 90q93 0 93 92v76q0 96 -90 96q-45 0 -70 -26
t-25 -72v-74q0 -92 92 -92z" />
    <glyph glyph-name="seven" unicode="7" horiz-adv-x="462" 
d="M202 0h-122l240 600h-295v100h410v-95z" />
    <glyph glyph-name="eight" unicode="8" horiz-adv-x="501" 
d="M250 -10q-212 0 -212 197v16q0 130 101 163v2q-44 15 -70 55t-26 88v16q0 88 52.5 135.5t154.5 47.5q103 0 155 -47.5t52 -135.5v-16q0 -49 -25.5 -88.5t-69.5 -54.5v-2q101 -33 101 -163v-16q0 -197 -213 -197zM250 413q96 0 96 91v14q0 92 -96 92q-95 0 -95 -92v-14
q0 -46 25.5 -68.5t69.5 -22.5zM350 194v17q0 102 -100 102q-99 0 -99 -102v-17q0 -55 22.5 -79.5t76.5 -24.5t77 24.5t23 79.5z" />
    <glyph glyph-name="nine" unicode="9" horiz-adv-x="500" 
d="M247 708q99 0 152.5 -51.5t53.5 -146.5v-317q0 -205 -207 -205q-96 0 -149.5 51t-53.5 139h108q0 -90 92 -90q49 0 72.5 26.5t23.5 83.5v118q-43 -72 -139 -72q-160 0 -160 183v83q0 95 53.5 146.5t153.5 51.5zM247 608q-93 0 -93 -92v-76q0 -96 90 -96q45 0 70 26t25 72
v74q0 92 -92 92z" />
    <glyph glyph-name="colon" unicode=":" horiz-adv-x="241" 
d="M177 374h-114v125h114v-125zM177 0h-114v126h114v-126z" />
    <glyph glyph-name="semicolon" unicode=";" horiz-adv-x="241" 
d="M177 374h-114v125h114v-125zM109 -112h-53l47 112h-40v126h114v-115z" />
    <glyph glyph-name="less" unicode="&#x3c;" horiz-adv-x="508" 
d="M442 175v-87l-384 172v80l384 172v-87l-282 -125z" />
    <glyph glyph-name="equal" unicode="=" horiz-adv-x="508" 
d="M458 360h-408v86h408v-86zM458 154h-408v86h408v-86z" />
    <glyph glyph-name="greater" unicode="&#x3e;" horiz-adv-x="508" 
d="M450 260l-384 -172v87l281 125l-281 125v87l384 -172v-80z" />
    <glyph glyph-name="question" unicode="?" horiz-adv-x="463" 
d="M261 186h-100v24q0 49 16.5 87.5t59.5 81.5q46 47 64 80t18 70q0 81 -88 81q-49 0 -71 -24.5t-22 -77.5v-44h-107v47q0 101 49.5 150t150.5 49q98 0 149.5 -45.5t51.5 -129.5q0 -103 -93 -192q-46 -44 -62 -74t-16 -69v-14zM268 0h-115v111h115v-111z" />
    <glyph glyph-name="at" unicode="@" horiz-adv-x="778" 
d="M479 496h93l-32 -267q-1 -5 -1 -15q0 -29 31 -29q40 0 65 66q26 67 26 167q0 99 -64.5 155t-179.5 56q-147 0 -217 -100t-70 -269q0 -134 74 -202t216 -68q110 0 193 57l-7 -91q-79 -46 -188 -46q-182 0 -280 91.5t-98 264.5q0 200 96 322q98 122 278 122
q156 0 241 -76.5t85 -218.5q0 -144 -52 -230q-53 -86 -138 -86q-80 0 -95 67q-37 -67 -112 -67q-54 0 -83.5 30t-29.5 84q0 3 2 29l16 134q17 131 124 131q74 0 102 -52zM376 181q62 0 76 75v3l10 86v12q0 33 -17 51.5t-47 18.5q-52 0 -60 -63l-14 -118q-1 -4 -1 -15
q0 -50 53 -50z" />
    <glyph glyph-name="A" unicode="A" horiz-adv-x="514" 
d="M490 0h-117l-28 136h-185l-28 -136h-108l155 700h154zM252 581l-71 -346h143z" />
    <glyph glyph-name="B" unicode="B" horiz-adv-x="516" 
d="M275 0h-215v700h202q203 0 203 -173v-13q0 -111 -95 -143v-3q109 -31 109 -164v-14q0 -97 -50 -143.5t-154 -46.5zM174 600v-190h72q55 0 80 21.5t25 68.5v13q0 46 -21.5 66.5t-70.5 20.5h-85zM174 310v-210h101q48 0 69 21t21 69v19q0 55 -25 78t-87 23h-79z" />
    <glyph glyph-name="C" unicode="C" horiz-adv-x="489" 
d="M250 -10q-96 0 -148.5 51.5t-52.5 146.5v324q0 95 52.5 146.5t148.5 51.5q97 0 149 -51.5t52 -146.5v-50h-108v54q0 47 -24 72t-67 25q-42 0 -65.5 -25t-23.5 -72v-332q0 -47 23.5 -72t65.5 -25q43 0 67 25t24 72v74h108v-70q0 -95 -52 -146.5t-149 -51.5z" />
    <glyph glyph-name="D" unicode="D" horiz-adv-x="518" 
d="M266 0h-206v700h206q204 0 204 -195v-310q0 -195 -204 -195zM174 600v-500h90q49 0 70.5 22t21.5 71v314q0 49 -21.5 71t-70.5 22h-90z" />
    <glyph glyph-name="E" unicode="E" horiz-adv-x="463" 
d="M430 0h-370v700h370v-100h-256v-195h207v-100h-207v-205h256v-100z" />
    <glyph glyph-name="F" unicode="F" horiz-adv-x="444" 
d="M174 0h-114v700h359v-100h-245v-200h195v-100h-195v-300z" />
    <glyph glyph-name="G" unicode="G" horiz-adv-x="502" 
d="M49 187v324q0 95 53 147t150 52t150.5 -52.5t53.5 -146.5v-38h-107v43q0 46 -24 70t-69 24t-69 -24t-24 -70v-332q0 -46 24 -70t69 -24t69 24t24 70v104h-88v104h195v-205q0 -94 -53 -145.5t-150 -51.5t-150.5 51.5t-53.5 145.5z" />
    <glyph glyph-name="H" unicode="H" horiz-adv-x="536" 
d="M174 0h-114v700h114v-295h189v295h114v-700h-114v305h-189v-305z" />
    <glyph glyph-name="I" unicode="I" horiz-adv-x="234" 
d="M174 0h-114v700h114v-700z" />
    <glyph glyph-name="J" unicode="J" horiz-adv-x="338" 
d="M86 -5q-33 0 -60 6v100q20 -6 48 -6q50 0 72.5 20.5t22.5 67.5v517h114v-514q0 -99 -47.5 -145t-149.5 -46z" />
    <glyph glyph-name="K" unicode="K" horiz-adv-x="528" 
d="M505 0h-122l-134 333l-75 -109v-224h-114v700h114v-316l211 316h117l-175 -262z" />
    <glyph glyph-name="L" unicode="L" horiz-adv-x="444" 
d="M419 0h-359v700h114v-600h245v-100z" />
    <glyph glyph-name="M" unicode="M" horiz-adv-x="677" 
d="M160 0h-100v700h162l117 -521l116 521h163v-700h-109v551l-127 -551h-95l-127 551v-551z" />
    <glyph glyph-name="N" unicode="N" horiz-adv-x="545" 
d="M162 0h-102v700h143l179 -461v461h103v-700h-116l-207 537v-537z" />
    <glyph glyph-name="O" unicode="O" horiz-adv-x="512" 
d="M49 189v322q0 95 53.5 147t153.5 52t153.5 -52t53.5 -147v-322q0 -95 -53.5 -147t-153.5 -52t-153.5 52t-53.5 147zM349 184v332q0 46 -24 70t-69 24t-69 -24t-24 -70v-332q0 -46 24 -70t69 -24t69 24t24 70z" />
    <glyph glyph-name="P" unicode="P" horiz-adv-x="494" 
d="M174 0h-114v700h198q104 0 154 -46.5t50 -143.5v-36q0 -98 -50 -144.5t-154 -46.5h-84v-283zM174 600v-217h84q48 0 69 21t21 70v36q0 48 -21 69t-69 21h-84z" />
    <glyph glyph-name="Q" unicode="Q" horiz-adv-x="512" 
d="M474 17h20v-100h-31q-97 0 -118 86q-40 -13 -89 -13q-100 0 -153.5 52t-53.5 147v322q0 95 53.5 147t153.5 52t153.5 -52t53.5 -147v-322q0 -92 -49 -142q14 -30 60 -30zM349 184v332q0 46 -24 70t-69 24t-69 -24t-24 -70v-332q0 -46 24 -70t69 -24t69 24t24 70z" />
    <glyph glyph-name="R" unicode="R" horiz-adv-x="514" 
d="M174 0h-114v700h199q103 0 153 -43t50 -133v-23q0 -119 -99 -150v-3q52 -12 76 -52t24 -115v-84q0 -61 14 -97h-116q-12 32 -12 97v92q0 57 -24 80.5t-83 23.5h-68v-293zM174 600v-208h69q55 0 80 23t25 72v23q0 47 -21.5 68.5t-68.5 21.5h-84z" />
    <glyph glyph-name="S" unicode="S" horiz-adv-x="477" 
d="M236 -10q-95 0 -147.5 50t-52.5 137v30h107v-30q0 -41 24.5 -65.5t67.5 -24.5t67.5 24.5t24.5 65.5q0 48 -25 73q-22 23 -104 62q-90 43 -125 90q-34 47 -34 122q0 85 53 135.5t148 50.5q94 0 145.5 -50t51.5 -138v-19h-108v18q0 43 -23 67.5t-66 24.5q-40 0 -63.5 -24
t-23.5 -63q0 -43 25 -68q26 -24 106 -62q91 -43 124 -91t33 -125q0 -88 -54 -139t-151 -51z" />
    <glyph glyph-name="T" unicode="T" horiz-adv-x="471" 
d="M293 0h-114v600h-154v100h421v-100h-153v-600z" />
    <glyph glyph-name="U" unicode="U" horiz-adv-x="517" 
d="M55 189v511h114v-518q0 -92 91 -92q92 0 92 92v518h110v-511q0 -96 -52.5 -147.5t-151.5 -51.5t-151 51.5t-52 147.5z" />
    <glyph glyph-name="V" unicode="V" horiz-adv-x="501" 
d="M325 1h-149l-152 699h117l113 -566l114 566h109z" />
    <glyph glyph-name="W" unicode="W" horiz-adv-x="712" 
d="M280 0h-149l-104 700h110l80 -557l87 557h115l88 -557l80 557h99l-104 -700h-140l-81 508z" />
    <glyph glyph-name="X" unicode="X" horiz-adv-x="515" 
d="M133 0h-110l170 358l-163 342h123l110 -242l111 242h111l-163 -342l170 -358h-123l-117 260z" />
    <glyph glyph-name="Y" unicode="Y" horiz-adv-x="507" 
d="M310 0h-114v296l-175 404h123l114 -272l115 272h113l-176 -404v-296z" />
    <glyph glyph-name="Z" unicode="Z" horiz-adv-x="466" 
d="M433 0h-402v97l276 503h-264v100h390v-97l-277 -503h277v-100z" />
    <glyph glyph-name="bracketleft" unicode="[" horiz-adv-x="339" 
d="M292 -100h-218v800h218v-86h-113v-628h113v-86z" />
    <glyph glyph-name="backslash" unicode="\" horiz-adv-x="484" 
d="M466 -100h-98l-350 800h98z" />
    <glyph glyph-name="bracketright" unicode="]" horiz-adv-x="339" 
d="M264 700v-800h-217v86h113v628h-113v86h217z" />
    <glyph glyph-name="asciicircum" unicode="^" horiz-adv-x="508" 
d="M128 357h-96l182 343h80l182 -343h-96l-126 239z" />
    <glyph glyph-name="underscore" unicode="_" horiz-adv-x="400" 
d="M400 -114h-400v73h400v-73z" />
    <glyph glyph-name="grave" unicode="`" horiz-adv-x="635" 
d="M385 583h-93l-127 126h131z" />
    <glyph glyph-name="a" unicode="a" horiz-adv-x="469" 
d="M428 0h-101q-10 11 -11 89q-32 -99 -143 -99q-66 0 -104 35.5t-38 98.5t34.5 100.5t115.5 57.5q78 19 101 33q22 13 22 39q0 71 -72 71q-77 0 -77 -78h-103q0 81 47.5 125t134.5 44q94 0 137 -45.5t43 -139.5v-183q0 -95 14 -148zM208 81q45 0 70.5 28.5t25.5 84.5v51
q-17 -15 -88 -35q-41 -11 -58 -27.5t-17 -43.5q0 -58 67 -58z" />
    <glyph glyph-name="b" unicode="b" horiz-adv-x="488" 
d="M299 516q142 0 142 -168v-190q0 -168 -142 -168q-109 0 -144 98l-18 -88h-80v700h110v-256q39 72 132 72zM331 176v154q0 48 -17 69.5t-56 21.5q-91 0 -91 -112v-112q0 -112 91 -112q39 0 56 21.5t17 69.5z" />
    <glyph glyph-name="c" unicode="c" horiz-adv-x="457" 
d="M234 -11q-91 0 -140.5 48.5t-49.5 137.5v155q0 89 49.5 137.5t140.5 48.5t138 -48t48 -136v-11h-106v18q0 82 -80 82q-38 0 -59 -21.5t-21 -60.5v-173q0 -81 80 -81t80 81v29h106v-20q0 -89 -47.5 -137.5t-138.5 -48.5z" />
    <glyph glyph-name="d" unicode="d" horiz-adv-x="490" 
d="M445 0h-102q-8 10 -11 87q-33 -97 -143 -97q-142 0 -142 168v190q0 168 142 168q93 0 132 -72v256h110v-552q0 -101 14 -148zM230 85q91 0 91 112v112q0 112 -91 112q-39 0 -56 -21.5t-17 -69.5v-154q0 -48 17 -69.5t56 -21.5z" />
    <glyph glyph-name="e" unicode="e" horiz-adv-x="470" 
d="M429 330v-101h-276v-65q0 -83 85 -83t85 84h106q-2 -82 -53 -128.5t-140 -46.5q-93 0 -143 48.5t-50 137.5v154q0 89 50 137.5t143 48.5t143 -48t50 -138zM153 343v-34h168v34q0 82 -84 82t-84 -82z" />
    <glyph glyph-name="f" unicode="f" horiz-adv-x="346" 
d="M271 612q-32 0 -45.5 -15t-13.5 -50v-41h109v-91h-109v-415h-110v415h-78v91h78v54q0 150 148 150q39 0 71 -13v-94q-23 9 -50 9z" />
    <glyph glyph-name="g" unicode="g" horiz-adv-x="485" 
d="M330 417l2 89h95v-494q0 -88 -45.5 -132.5t-146.5 -44.5q-179 0 -186 141h106q6 -50 79 -50q44 0 63.5 20t19.5 66v86q-40 -70 -131 -70q-143 0 -143 168v152q0 168 143 168q110 0 144 -99zM227 123q90 0 90 112v74q0 112 -90 112q-39 0 -56.5 -22t-17.5 -69v-116
q0 -47 17.5 -69t56.5 -22z" />
    <glyph glyph-name="h" unicode="h" horiz-adv-x="490" 
d="M297 516q140 0 140 -168v-348h-110v330q0 48 -16.5 69.5t-54.5 21.5q-89 0 -89 -112v-309h-110v700h110v-255q39 71 130 71z" />
    <glyph glyph-name="i" unicode="i" horiz-adv-x="225" 
d="M168 583h-110v126h110v-126zM167 0h-110v506h110v-506z" />
    <glyph glyph-name="j" unicode="j" horiz-adv-x="225" 
d="M168 583h-110v126h110v-126zM42 -165q-38 0 -63 13v90q21 -8 41 -8t28.5 10t8.5 33v533h110v-540q0 -131 -125 -131z" />
    <glyph glyph-name="k" unicode="k" horiz-adv-x="494" 
d="M474 0h-122l-116 230l-69 -86v-144h-110v700h110v-419l175 225h124l-153 -189z" />
    <glyph glyph-name="l" unicode="l" horiz-adv-x="225" 
d="M167 0h-110v700h110v-700z" />
    <glyph glyph-name="m" unicode="m" horiz-adv-x="748" 
d="M558 516q68 0 103 -43t35 -125v-348h-110v330q0 91 -70 91q-84 0 -84 -112v-309h-110v330q0 91 -69 91q-86 0 -86 -112v-309h-110v506h96l2 -87q33 97 139 97q99 0 128 -92q33 92 136 92z" />
    <glyph glyph-name="n" unicode="n" horiz-adv-x="490" 
d="M297 516q140 0 140 -168v-348h-110v330q0 48 -16.5 69.5t-54.5 21.5q-89 0 -89 -112v-309h-110v506h96l2 -88q33 98 142 98z" />
    <glyph glyph-name="o" unicode="o" horiz-adv-x="470" 
d="M43 176v154q0 89 50 137.5t142 48.5t142 -48.5t50 -137.5v-154q0 -90 -50 -138t-142 -48t-142 48t-50 138zM317 167v171q0 40 -21 61.5t-61 21.5t-61 -21.5t-21 -61.5v-171q0 -39 21 -60.5t61 -21.5t61 21.5t21 60.5z" />
    <glyph glyph-name="p" unicode="p" horiz-adv-x="488" 
d="M299 516q142 0 142 -168v-190q0 -168 -142 -168q-93 0 -132 71v-216h-110v661h96l2 -88q35 98 144 98zM331 176v154q0 48 -17 69.5t-56 21.5q-91 0 -91 -112v-112q0 -112 91 -112q39 0 56 21.5t17 69.5z" />
    <glyph glyph-name="q" unicode="q" horiz-adv-x="489" 
d="M334 418l18 88h79v-661h-110v215q-40 -70 -131 -70q-143 0 -143 168v190q0 168 143 168q109 0 144 -98zM231 85q90 0 90 112v112q0 112 -90 112q-39 0 -56.5 -22t-17.5 -69v-154q0 -47 17.5 -69t56.5 -22z" />
    <glyph glyph-name="r" unicode="r" 
d="M285 516q26 0 40 -7v-106q-13 4 -37 4q-121 0 -121 -145v-262h-110v506h96l3 -101q27 111 129 111z" />
    <glyph glyph-name="s" unicode="s" horiz-adv-x="436" 
d="M222 -10q-89 0 -138.5 40.5t-49.5 112.5v16h105v-16q0 -65 78 -65q76 0 76 65q0 21 -16 34q-14 13 -29 18t-60 15q-74 16 -110.5 50.5t-36.5 101.5q0 72 46.5 113t129.5 41q80 0 127.5 -39.5t47.5 -106.5v-11h-104v10q0 58 -70 58q-32 0 -51 -15.5t-19 -43.5
q0 -29 22 -42.5t85 -28.5q61 -15 99 -41q48 -32 48 -105q0 -76 -47 -118.5t-133 -42.5z" />
    <glyph glyph-name="t" unicode="t" horiz-adv-x="355" 
d="M321 506v-91h-109v-261q0 -36 13.5 -51t45.5 -15q27 0 50 9v-94q-32 -13 -71 -13q-148 0 -148 150v275h-78v91h81l8 134h99v-134h109z" />
    <glyph glyph-name="u" unicode="u" horiz-adv-x="490" 
d="M323 197v309h110v-506h-96l-2 88q-33 -98 -142 -98q-140 0 -140 168v348h110v-330q0 -48 16.5 -69.5t54.5 -21.5q89 0 89 112z" />
    <glyph glyph-name="v" unicode="v" horiz-adv-x="464" 
d="M301 0h-137l-142 506h114l101 -391l99 391h106z" />
    <glyph glyph-name="w" unicode="w" horiz-adv-x="680" 
d="M268 0h-138l-106 506h109l79 -388l76 388h114l77 -388l78 388h99l-105 -506h-132l-75 372z" />
    <glyph glyph-name="x" unicode="x" horiz-adv-x="473" 
d="M129 0h-108l152 260l-145 246h120l93 -165l95 165h109l-146 -246l154 -260h-120l-102 181z" />
    <glyph glyph-name="y" unicode="y" horiz-adv-x="461" 
d="M242 145l91 361h106l-155 -550q-18 -64 -56 -92.5t-104 -28.5q-46 0 -74 14v94q26 -13 61 -13q51 0 67 49l4 13l-161 514h115z" />
    <glyph glyph-name="z" unicode="z" horiz-adv-x="425" 
d="M391 0h-360v91l243 321h-230v94h347v-91l-243 -323h243v-92z" />
    <glyph glyph-name="braceleft" unicode="{" horiz-adv-x="339" 
d="M306 -100h-62q-62 0 -98 35t-36 103v131q0 50 -17.5 69t-63.5 19v86q46 0 63.5 19t17.5 68v132q0 67 35 102.5t99 35.5h62v-87h-20q-41 0 -56 -18.5t-15 -67.5v-110q0 -93 -77 -116v-2q77 -23 77 -117v-109q0 -49 15 -67.5t56 -18.5h20v-87z" />
    <glyph glyph-name="bar" unicode="|" horiz-adv-x="400" 
d="M248 -200h-95v1000h95v-1000z" />
    <glyph glyph-name="braceright" unicode="}" horiz-adv-x="339" 
d="M94 -100h-62v87h20q42 0 57 18.5t15 67.5v109q0 95 76 117v2q-76 22 -76 116v110q0 49 -15 67.5t-57 18.5h-20v87h62q64 0 99.5 -35.5t35.5 -102.5v-132q0 -49 17 -68t64 -19v-86q-47 0 -64 -18.5t-17 -69.5v-131q0 -69 -36 -103.5t-99 -34.5z" />
    <glyph glyph-name="asciitilde" unicode="~" horiz-adv-x="508" 
d="M81 214l-62 46q38 66 70.5 94t76.5 28q40 0 96 -38q52 -37 79 -37q23 0 40 16t46 63l62 -47q-37 -65 -70 -93.5t-77 -28.5q-42 0 -96 39q-53 37 -79 37q-22 0 -39.5 -16.5t-46.5 -62.5z" />
    <glyph glyph-name="uni00A0" unicode="&#xa0;" horiz-adv-x="182" 
 />
    <glyph glyph-name="exclamdown" unicode="&#xa1;" horiz-adv-x="254" 
d="M70 506h114v-112h-114v112zM85 319h84l15 -226v-288h-114v288z" />
    <glyph glyph-name="cent" unicode="&#xa2;" horiz-adv-x="508" 
d="M458 455v-16h-107v16q0 45 -23 69t-68 24q-44 0 -67 -24t-23 -69v-209q0 -45 23 -69.5t67 -24.5t67.5 24.5t23.5 69.5v36h107v-37q0 -80 -40 -129t-115 -61v-75h-93v75q-75 12 -114.5 61t-39.5 129v210q0 80 39.5 129t114.5 61v66h93v-66q75 -12 115 -61t40 -129z" />
    <glyph glyph-name="sterling" unicode="&#xa3;" horiz-adv-x="508" 
d="M458 0h-408v97q127 43 127 122q0 18 -3 32h-122v90h88q-22 27 -33 46q-45 65 -45 138q0 80 52 132q53 53 149 53q98 0 150 -52.5t52 -143.5v-22h-108v26q0 43 -23 67.5t-68 24.5q-44 0 -66.5 -24.5t-22.5 -67.5q0 -28 9 -57q10 -31 18 -46l27 -48q1 -2 7 -12.5t7 -13.5
h175v-90h-155q2 -10 2 -21q0 -82 -87 -127h278v-103z" />
    <glyph glyph-name="currency" unicode="&#xa4;" horiz-adv-x="508" 
d="M389 265l73 -68l-53 -53l-67 73q-38 -26 -86 -26t-87 25l-66 -72l-53 53l72 67q-25 39 -25 86t25 86l-72 67l53 52l67 -72q39 25 86 25t86 -25l67 72l53 -52l-73 -68q25 -37 25 -85t-25 -85zM200 294q22 -22 56 -22t56 22t22 56t-22 56t-56 22t-56 -22t-22 -56t22 -56z
" />
    <glyph glyph-name="yen" unicode="&#xa5;" horiz-adv-x="508" 
d="M373 700h114l-164 -376h116v-71h-128v-71h128v-71h-128v-111h-114v111h-123v71h123v71h-123v71h111l-163 376h124l113 -278z" />
    <glyph glyph-name="brokenbar" unicode="&#xa6;" horiz-adv-x="400" 
d="M248 400h-95v400h95v-400zM248 -200h-95v399h95v-399z" />
    <glyph glyph-name="section" unicode="&#xa7;" horiz-adv-x="531" 
d="M408 167q53 -42 53 -111q0 -75 -52 -119t-143 -44q-88 0 -142 44t-54 116v13h106v-9q0 -71 90 -71q87 0 87 68q0 32 -29.5 49.5t-104.5 35.5q-91 21 -135 57.5t-44 103.5q0 98 83 136q-53 42 -53 111q0 75 52 119t144 44q88 0 141.5 -43.5t53.5 -116.5v-13h-105v9
q0 71 -91 71q-87 0 -87 -68q0 -32 29.5 -49.5t104.5 -35.5q91 -21 135 -57.5t44 -103.5q0 -98 -83 -136zM150 311q0 -35 32 -55.5t102 -36.5l31 -8q66 13 66 81q0 35 -32 55.5t-102 36.5l-31 8q-66 -14 -66 -81z" />
    <glyph glyph-name="dieresis" unicode="&#xa8;" horiz-adv-x="635" 
d="M288 583h-107v126h107v-126zM455 583h-107v126h107v-126z" />
    <glyph glyph-name="copyright" unicode="&#xa9;" horiz-adv-x="769" 
d="M633 92q-99 -102 -249 -102t-249 102q-99 104 -99 258q0 155 99 257q99 103 249 103t249 -103q99 -102 99 -257q0 -154 -99 -258zM178 134q81 -84 206 -84t206 84q81 86 81 216q0 131 -81 215q-81 85 -206 85t-206 -85q-80 -85 -80 -215t80 -216zM379 128
q-55 0 -85.5 32.5t-30.5 88.5v202q0 56 30.5 88.5t85.5 32.5q57 0 88 -32t31 -89v-30h-61v32q0 63 -56 63q-24 0 -38.5 -16.5t-14.5 -46.5v-207q0 -30 14.5 -46.5t38.5 -16.5q26 0 41 16.5t15 46.5v40h61v-37q0 -57 -31 -89t-88 -32z" />
    <glyph glyph-name="ordfeminine" unicode="&#xaa;" horiz-adv-x="356" 
d="M141 549q52 14 65 21q15 9 15 26q0 46 -46 46q-50 0 -50 -51h-77q0 57 33 88t96 31q66 0 97 -32.5t31 -99.5v-127q0 -71 10 -102h-77q-6 7 -8 56q-24 -63 -97 -63q-46 0 -73 25.5t-27 69.5q0 45 24.5 71t83.5 41zM221 485v32q-15 -12 -55 -23q-49 -12 -49 -47
q0 -36 42 -36q62 0 62 74zM305 225h-272v54h272v-54z" />
    <glyph glyph-name="guillemotleft" unicode="&#xab;" horiz-adv-x="407" 
d="M203 164h-83l-88 137l88 132h83l-67 -132zM373 164h-83l-87 137l87 132h83l-66 -132z" />
    <glyph glyph-name="logicalnot" unicode="&#xac;" horiz-adv-x="508" 
d="M460 128h-85v177h-349v85h434v-262z" />
    <glyph glyph-name="uni00AD" unicode="&#xad;" horiz-adv-x="337" 
d="M302 254h-268v92h268v-92z" />
    <glyph glyph-name="registered" unicode="&#xae;" horiz-adv-x="769" 
d="M633 92q-99 -102 -249 -102t-249 102q-99 104 -99 258q0 155 99 257q99 103 249 103t249 -103q99 -102 99 -257q0 -154 -99 -258zM178 134q81 -84 206 -84t206 84q81 86 81 216q0 131 -81 215q-81 85 -206 85t-206 -85q-80 -85 -80 -215t80 -216zM337 136h-65v429h116
q120 0 120 -107v-13q0 -75 -58 -94v-1q59 -14 59 -102v-53q0 -41 7 -59h-66q-6 22 -6 59v57q0 65 -65 65h-42v-181zM337 508v-132h43q63 0 63 60v13q0 59 -55 59h-51z" />
    <glyph glyph-name="overscore" unicode="&#xaf;" horiz-adv-x="635" 
d="M457 604h-278v84h278v-84z" />
    <glyph glyph-name="degree" unicode="&#xb0;" horiz-adv-x="508" 
d="M118 573q0 61 37.5 99t98.5 38t98.5 -38t37.5 -99q0 -60 -37.5 -98t-98.5 -38t-98.5 38t-37.5 98zM318 573q0 30 -17.5 47.5t-46.5 17.5t-46.5 -17.5t-17.5 -47.5q0 -29 17.5 -46.5t46.5 -17.5t46.5 17.5t17.5 46.5z" />
    <glyph glyph-name="plusminus" unicode="&#xb1;" horiz-adv-x="508" 
d="M458 58h-408v85h161v154h-161v85h161v160h86v-160h161v-85h-161v-154h161v-85z" />
    <glyph glyph-name="uni00B2" unicode="&#xb2;" 
d="M295 351h-247v55q0 49 21 86t72 78q48 39 65 62q18 24 18 57q0 53 -49 53q-23 0 -36.5 -15t-13.5 -42v-36h-76v34q0 57 34 92.5t94 35.5q59 0 93 -33.5t34 -88.5q0 -48 -25 -83q-25 -36 -90 -90q-37 -29 -49.5 -48t-12.5 -41v-7h168v-69z" />
    <glyph glyph-name="uni00B3" unicode="&#xb3;" 
d="M170 341q-62 0 -95 32.5t-33 94.5v24h76v-27q0 -55 50 -55q51 0 51 59v13q0 66 -61 66h-30v71h33q56 0 56 60v11q0 52 -48 52q-49 0 -49 -55v-14h-76v11q0 61 33.5 94t95.5 33q59 0 91.5 -31.5t32.5 -89.5v-9q0 -32 -16.5 -57.5t-45.5 -37.5v-1q64 -22 64 -103v-12
q0 -63 -33 -96t-96 -33z" />
    <glyph glyph-name="acute" unicode="&#xb4;" horiz-adv-x="635" 
d="M344 583h-93l89 126h131z" />
    <glyph glyph-name="uni00B5" unicode="&#xb5;" horiz-adv-x="495" 
d="M328 197v309h110v-506h-96l-2 88q-33 -98 -142 -98q-5 0 -31 2v-147h-110v661h111v-330q0 -48 16.5 -69.5t54.5 -21.5q89 0 89 112z" />
    <glyph glyph-name="paragraph" unicode="&#xb6;" horiz-adv-x="571" 
d="M322 -97h-87v401q-192 2 -192 162v61q0 173 207 173h250v-797h-87v714h-91v-714z" />
    <glyph glyph-name="middot" unicode="&#xb7;" horiz-adv-x="241" 
d="M177 238h-114v125h114v-125z" />
    <glyph glyph-name="cedilla" unicode="&#xb8;" horiz-adv-x="635" 
d="M318 -165q-102 0 -102 63v10h64v-9q0 -27 37 -27q42 0 42 30t-46 30h-10v79h43v-57q77 0 77 -54q0 -37 -25 -51t-80 -14z" />
    <glyph glyph-name="uni00B9" unicode="&#xb9;" 
d="M238 351h-81v339q-31 -7 -76 -8v55q41 0 61.5 14t33.5 50h62v-450z" />
    <glyph glyph-name="ordmasculine" unicode="&#xba;" horiz-adv-x="352" 
d="M176 342q-64 0 -99.5 34t-35.5 97v107q0 62 35 96t100 34t100 -34t35 -96v-107q0 -63 -35 -97t-100 -34zM229 466v120q0 25 -14 39t-39 14t-38.5 -14t-13.5 -39v-120q0 -24 13.5 -38t38.5 -14t39 14t14 38zM311 225h-270v54h270v-54z" />
    <glyph glyph-name="guillemotright" unicode="&#xbb;" horiz-adv-x="406" 
d="M117 164h-83l66 137l-66 132h83l88 -132zM288 164h-83l65 137l-65 132h83l87 -132z" />
    <glyph glyph-name="onequarter" unicode="&#xbc;" horiz-adv-x="809" 
d="M238 256h-81v339q-31 -7 -76 -8v55q41 0 61.5 14t33.5 50h62v-450zM270 0h-75l345 700h75zM747 0h-81v78h-186v70l177 302h90v-302h45v-70h-45v-78zM666 340l-110 -192h110v192z" />
    <glyph glyph-name="onehalf" unicode="&#xbd;" horiz-adv-x="809" 
d="M238 256h-81v339q-31 -7 -76 -8v55q41 0 61.5 14t33.5 50h62v-450zM270 0h-75l345 700h75zM756 0h-247v55q0 49 21 86t72 78q48 39 65 62q18 24 18 57q0 53 -49 53q-23 0 -36.5 -15t-13.5 -42v-36h-76v34q0 57 34 92.5t94 35.5q59 0 93 -33.5t34 -88.5q0 -48 -25 -83
q-26 -36 -90 -90q-37 -29 -49.5 -48t-12.5 -41v-7h168v-69z" />
    <glyph glyph-name="threequarters" unicode="&#xbe;" horiz-adv-x="809" 
d="M170 246q-62 0 -95 32.5t-33 94.5v24h76v-27q0 -55 50 -55q51 0 51 59v13q0 66 -61 66h-30v71h33q56 0 56 60v11q0 52 -48 52q-49 0 -49 -55v-14h-76v11q0 61 33.5 94t95.5 33q59 0 91.5 -31.5t32.5 -89.5v-9q0 -32 -16.5 -57.5t-45.5 -37.5v-1q64 -22 64 -103v-12
q0 -63 -33 -96t-96 -33zM270 0h-75l345 700h75zM747 0h-81v78h-186v70l177 302h90v-302h45v-70h-45v-78zM666 340l-110 -192h110v192z" />
    <glyph glyph-name="questiondown" unicode="&#xbf;" horiz-adv-x="463" 
d="M196 506h114v-112h-114v112zM203 319h99v-23q0 -49 -16.5 -87.5t-59.5 -82.5q-47 -47 -64.5 -80t-17.5 -70q0 -81 89 -81q48 0 70 25t22 78v44h108v-48q0 -198 -201 -198q-98 0 -149.5 45.5t-51.5 129.5q0 103 93 191q46 44 62.5 74.5t16.5 69.5v13z" />
    <glyph glyph-name="Agrave" unicode="&#xc0;" horiz-adv-x="514" 
d="M234 893l89 -126h-93l-127 126h131zM490 0h-117l-28 136h-185l-28 -136h-108l155 700h154zM252 581l-71 -346h143z" />
    <glyph glyph-name="Aacute" unicode="&#xc1;" horiz-adv-x="514" 
d="M278 893h131l-127 -126h-93zM490 0h-117l-28 136h-185l-28 -136h-108l155 700h154zM252 581l-71 -346h143z" />
    <glyph glyph-name="Acircumflex" unicode="&#xc2;" horiz-adv-x="514" 
d="M319 767l-63 63l-63 -63h-93l98 126h116l98 -126h-93zM490 0h-117l-28 136h-185l-28 -136h-108l155 700h154zM252 581l-71 -346h143z" />
    <glyph glyph-name="Atilde" unicode="&#xc3;" horiz-adv-x="514" 
d="M201 812q-27 0 -48 -51l-58 34q43 99 106 99q33 0 68 -28q26 -19 42 -19q25 0 48 51l58 -33q-43 -99 -106 -99q-31 0 -69 27q-25 19 -41 19zM490 0h-117l-28 136h-185l-28 -136h-108l155 700h154zM252 581l-71 -346h143z" />
    <glyph glyph-name="Adieresis" unicode="&#xc4;" horiz-adv-x="514" 
d="M119 893h107v-126h-107v126zM286 893h107v-126h-107v126zM490 0h-117l-28 136h-185l-28 -136h-108l155 700h154zM252 581l-71 -346h143z" />
    <glyph glyph-name="Aring" unicode="&#xc5;" horiz-adv-x="514" 
d="M151 864q0 45 30 75t75 30t75 -30t30 -75q0 -43 -30 -73.5t-75 -30.5t-75 30.5t-30 73.5zM287 897q-12 14 -31 14t-32 -14q-12 -13 -12 -33t12 -33q13 -13 32 -13t31 13q13 13 13 33t-13 33zM490 0h-117l-28 136h-185l-28 -136h-108l155 700h154zM252 581l-71 -346h143z
" />
    <glyph glyph-name="AE" unicode="&#xc6;" horiz-adv-x="747" 
d="M715 700v-100h-256v-195h207v-100h-207v-205h256v-100h-370v136h-161l-50 -136h-112l266 700h427zM345 572l-125 -338h125v338z" />
    <glyph glyph-name="Ccedilla" unicode="&#xc7;" horiz-adv-x="489" 
d="M451 512v-50h-108v54q0 47 -24 72t-67 25q-42 0 -65.5 -25t-23.5 -72v-332q0 -47 23.5 -72t65.5 -25q43 0 67 25t24 72v74h108v-70q0 -89 -45.5 -140t-131.5 -57v-37q77 0 77 -54q0 -37 -25 -51t-80 -14q-102 0 -102 63v10h64v-9q0 -27 37 -27q42 0 42 30t-46 30h-10v59
q-87 5 -134.5 56t-47.5 141v324q0 95 52.5 146.5t148.5 51.5q97 0 149 -51.5t52 -146.5z" />
    <glyph glyph-name="Egrave" unicode="&#xc8;" horiz-adv-x="463" 
d="M312 767h-93l-127 126h131zM430 0h-370v700h370v-100h-256v-195h207v-100h-207v-205h256v-100z" />
    <glyph glyph-name="Eacute" unicode="&#xc9;" horiz-adv-x="463" 
d="M271 767h-93l89 126h131zM430 0h-370v700h370v-100h-256v-195h207v-100h-207v-205h256v-100z" />
    <glyph glyph-name="Ecircumflex" unicode="&#xca;" horiz-adv-x="463" 
d="M182 767h-93l98 126h116l98 -126h-93l-63 63zM430 0h-370v700h370v-100h-256v-195h207v-100h-207v-205h256v-100z" />
    <glyph glyph-name="Edieresis" unicode="&#xcb;" horiz-adv-x="463" 
d="M215 767h-107v126h107v-126zM382 767h-107v126h107v-126zM430 0h-370v700h370v-100h-256v-195h207v-100h-207v-205h256v-100z" />
    <glyph glyph-name="Igrave" unicode="&#xcc;" horiz-adv-x="234" 
d="M184 767h-93l-127 126h131zM174 0h-114v700h114v-700z" />
    <glyph glyph-name="Iacute" unicode="&#xcd;" horiz-adv-x="234" 
d="M143 767h-93l89 126h131zM174 0h-114v700h114v-700z" />
    <glyph glyph-name="Icircumflex" unicode="&#xce;" horiz-adv-x="234" 
d="M54 767h-93l98 126h116l98 -126h-93l-63 63zM174 0h-114v700h114v-700z" />
    <glyph glyph-name="Idieresis" unicode="&#xcf;" horiz-adv-x="234" 
d="M87 767h-107v126h107v-126zM254 767h-107v126h107v-126zM174 0h-114v700h114v-700z" />
    <glyph glyph-name="Eth" unicode="&#xd0;" horiz-adv-x="535" 
d="M77 700h206q204 0 204 -195v-310q0 -195 -204 -195h-206v319h-59v91h59v290zM373 193v314q0 49 -21.5 71t-70.5 22h-90v-190h89v-91h-89v-219h90q49 0 70.5 22t21.5 71z" />
    <glyph glyph-name="Ntilde" unicode="&#xd1;" horiz-adv-x="545" 
d="M170 761l-58 34q43 99 106 99q33 0 68 -28q26 -19 42 -19q26 0 48 51l58 -33q-44 -99 -106 -99q-32 0 -69 27q-25 19 -41 19q-27 0 -48 -51zM162 0h-102v700h143l179 -461v461h103v-700h-116l-207 537v-537z" />
    <glyph glyph-name="Ograve" unicode="&#xd2;" horiz-adv-x="512" 
d="M323 767h-93l-127 126h131zM49 189v322q0 95 53.5 147t153.5 52t153.5 -52t53.5 -147v-322q0 -95 -53.5 -147t-153.5 -52t-153.5 52t-53.5 147zM349 184v332q0 46 -24 70t-69 24t-69 -24t-24 -70v-332q0 -46 24 -70t69 -24t69 24t24 70z" />
    <glyph glyph-name="Oacute" unicode="&#xd3;" horiz-adv-x="512" 
d="M282 767h-93l89 126h131zM49 189v322q0 95 53.5 147t153.5 52t153.5 -52t53.5 -147v-322q0 -95 -53.5 -147t-153.5 -52t-153.5 52t-53.5 147zM349 184v332q0 46 -24 70t-69 24t-69 -24t-24 -70v-332q0 -46 24 -70t69 -24t69 24t24 70z" />
    <glyph glyph-name="Ocircumflex" unicode="&#xd4;" horiz-adv-x="512" 
d="M193 767h-93l98 126h116l98 -126h-93l-63 63zM49 189v322q0 95 53.5 147t153.5 52t153.5 -52t53.5 -147v-322q0 -95 -53.5 -147t-153.5 -52t-153.5 52t-53.5 147zM349 184v332q0 46 -24 70t-69 24t-69 -24t-24 -70v-332q0 -46 24 -70t69 -24t69 24t24 70z" />
    <glyph glyph-name="Otilde" unicode="&#xd5;" horiz-adv-x="512" 
d="M153 761l-58 34q43 99 106 99q33 0 68 -28q26 -19 42 -19q25 0 48 51l58 -33q-43 -99 -106 -99q-31 0 -69 27q-25 19 -41 19q-27 0 -48 -51zM49 189v322q0 95 53.5 147t153.5 52t153.5 -52t53.5 -147v-322q0 -95 -53.5 -147t-153.5 -52t-153.5 52t-53.5 147zM349 184v332
q0 46 -24 70t-69 24t-69 -24t-24 -70v-332q0 -46 24 -70t69 -24t69 24t24 70z" />
    <glyph glyph-name="Odieresis" unicode="&#xd6;" horiz-adv-x="512" 
d="M226 767h-107v126h107v-126zM393 767h-107v126h107v-126zM49 189v322q0 95 53.5 147t153.5 52t153.5 -52t53.5 -147v-322q0 -95 -53.5 -147t-153.5 -52t-153.5 52t-53.5 147zM349 184v332q0 46 -24 70t-69 24t-69 -24t-24 -70v-332q0 -46 24 -70t69 -24t69 24t24 70z" />
    <glyph glyph-name="multiply" unicode="&#xd7;" horiz-adv-x="508" 
d="M254 243l-141 -145l-57 58l140 144l-140 144l57 58l141 -145l141 145l57 -58l-140 -144l140 -144l-57 -58z" />
    <glyph glyph-name="Oslash" unicode="&#xd8;" horiz-adv-x="512" 
d="M410 726l63 -35l-36 -69q26 -47 26 -111v-322q0 -95 -53.5 -147t-153.5 -52q-80 0 -129 33l-25 -49l-63 35l36 69q-26 47 -26 111v322q0 95 53.5 147t153.5 52q80 0 129 -33zM163 516v-267l170 328q-24 33 -77 33q-45 0 -69 -24t-24 -70zM349 184v267l-170 -328
q24 -33 77 -33q45 0 69 24t24 70z" />
    <glyph glyph-name="Ugrave" unicode="&#xd9;" horiz-adv-x="517" 
d="M325 767h-93l-127 126h131zM55 189v511h114v-518q0 -92 91 -92q92 0 92 92v518h110v-511q0 -96 -52.5 -147.5t-151.5 -51.5t-151 51.5t-52 147.5z" />
    <glyph glyph-name="Uacute" unicode="&#xda;" horiz-adv-x="517" 
d="M284 767h-93l89 126h131zM55 189v511h114v-518q0 -92 91 -92q92 0 92 92v518h110v-511q0 -96 -52.5 -147.5t-151.5 -51.5t-151 51.5t-52 147.5z" />
    <glyph glyph-name="Ucircumflex" unicode="&#xdb;" horiz-adv-x="517" 
d="M195 767h-93l98 126h116l98 -126h-93l-63 63zM55 189v511h114v-518q0 -92 91 -92q92 0 92 92v518h110v-511q0 -96 -52.5 -147.5t-151.5 -51.5t-151 51.5t-52 147.5z" />
    <glyph glyph-name="Udieresis" unicode="&#xdc;" horiz-adv-x="517" 
d="M228 767h-107v126h107v-126zM395 767h-107v126h107v-126zM55 189v511h114v-518q0 -92 91 -92q92 0 92 92v518h110v-511q0 -96 -52.5 -147.5t-151.5 -51.5t-151 51.5t-52 147.5z" />
    <glyph glyph-name="Yacute" unicode="&#xdd;" horiz-adv-x="507" 
d="M279 767h-93l89 126h131zM310 0h-114v296l-175 404h123l114 -272l115 272h113l-176 -404v-296z" />
    <glyph glyph-name="Thorn" unicode="&#xde;" horiz-adv-x="494" 
d="M174 0h-114v700h114v-98h84q104 0 154 -46.5t50 -143.5v-36q0 -98 -50 -144.5t-154 -46.5h-84v-185zM174 503v-218h84q48 0 69 21t21 70v36q0 49 -21 70t-69 21h-84z" />
    <glyph glyph-name="germandbls" unicode="&#xdf;" horiz-adv-x="506" 
d="M305 -10q-44 0 -73 10v93q21 -6 53 -6q83 0 83 56q0 20 -12 33.5t-42 32.5q-31 20 -41 29q-17 15 -30 43.5t-13 61.5q0 27 7 48q12 32 37 66q39 48 39 92q0 70 -72 70q-74 0 -74 -78v-541h-110v541q0 169 188 169q80 0 129 -40.5t49 -114.5q0 -64 -47 -122
q-37 -43 -37 -83q0 -25 14 -42.5t46 -40.5q20 -13 38 -29q41 -35 41 -95q0 -153 -173 -153z" />
    <glyph glyph-name="agrave" unicode="&#xe0;" horiz-adv-x="469" 
d="M207 709l89 -126h-93l-127 126h131zM428 0h-101q-10 11 -11 89q-32 -99 -143 -99q-66 0 -104 35.5t-38 98.5t34.5 100.5t115.5 57.5q78 19 101 33q22 13 22 39q0 71 -72 71q-77 0 -77 -78h-103q0 81 47.5 125t134.5 44q94 0 137 -45.5t43 -139.5v-183q0 -95 14 -148z
M208 81q45 0 70.5 28.5t25.5 84.5v51q-17 -15 -88 -35q-41 -11 -58 -27.5t-17 -43.5q0 -58 67 -58z" />
    <glyph glyph-name="aacute" unicode="&#xe1;" horiz-adv-x="469" 
d="M251 709h131l-127 -126h-93zM428 0h-101q-10 11 -11 89q-32 -99 -143 -99q-66 0 -104 35.5t-38 98.5t34.5 100.5t115.5 57.5q78 19 101 33q22 13 22 39q0 71 -72 71q-77 0 -77 -78h-103q0 81 47.5 125t134.5 44q94 0 137 -45.5t43 -139.5v-183q0 -95 14 -148zM208 81
q45 0 70.5 28.5t25.5 84.5v51q-17 -15 -88 -35q-41 -11 -58 -27.5t-17 -43.5q0 -58 67 -58z" />
    <glyph glyph-name="acircumflex" unicode="&#xe2;" horiz-adv-x="469" 
d="M292 583l-63 63l-63 -63h-93l98 126h116l98 -126h-93zM428 0h-101q-10 11 -11 89q-32 -99 -143 -99q-66 0 -104 35.5t-38 98.5t34.5 100.5t115.5 57.5q78 19 101 33q22 13 22 39q0 71 -72 71q-77 0 -77 -78h-103q0 81 47.5 125t134.5 44q94 0 137 -45.5t43 -139.5v-183
q0 -95 14 -148zM208 81q45 0 70.5 28.5t25.5 84.5v51q-17 -15 -88 -35q-41 -11 -58 -27.5t-17 -43.5q0 -58 67 -58z" />
    <glyph glyph-name="atilde" unicode="&#xe3;" horiz-adv-x="469" 
d="M174 628q-27 0 -48 -51l-58 34q44 99 106 99q33 0 68 -28q26 -19 42 -19q26 0 48 51l58 -33q-44 -99 -106 -99q-32 0 -69 27q-25 19 -41 19zM428 0h-101q-10 11 -11 89q-32 -99 -143 -99q-66 0 -104 35.5t-38 98.5t34.5 100.5t115.5 57.5q78 19 101 33q22 13 22 39
q0 71 -72 71q-77 0 -77 -78h-103q0 81 47.5 125t134.5 44q94 0 137 -45.5t43 -139.5v-183q0 -95 14 -148zM208 81q45 0 70.5 28.5t25.5 84.5v51q-17 -15 -88 -35q-41 -11 -58 -27.5t-17 -43.5q0 -58 67 -58z" />
    <glyph glyph-name="adieresis" unicode="&#xe4;" horiz-adv-x="469" 
d="M92 709h107v-126h-107v126zM259 709h107v-126h-107v126zM428 0h-101q-10 11 -11 89q-32 -99 -143 -99q-66 0 -104 35.5t-38 98.5t34.5 100.5t115.5 57.5q78 19 101 33q22 13 22 39q0 71 -72 71q-77 0 -77 -78h-103q0 81 47.5 125t134.5 44q94 0 137 -45.5t43 -139.5v-183
q0 -95 14 -148zM208 81q45 0 70.5 28.5t25.5 84.5v51q-17 -15 -88 -35q-41 -11 -58 -27.5t-17 -43.5q0 -58 67 -58z" />
    <glyph glyph-name="aring" unicode="&#xe5;" horiz-adv-x="469" 
d="M124 680q0 45 30 75t75 30t75 -30t30 -75q0 -43 -30 -73.5t-75 -30.5t-75 30.5t-30 73.5zM260 713q-12 14 -31 14t-32 -14q-12 -13 -12 -33t12 -33q13 -13 32 -13t31 13q13 13 13 33t-13 33zM428 0h-101q-10 11 -11 89q-32 -99 -143 -99q-66 0 -104 35.5t-38 98.5
t34.5 100.5t115.5 57.5q78 19 101 33q22 13 22 39q0 71 -72 71q-77 0 -77 -78h-103q0 81 47.5 125t134.5 44q94 0 137 -45.5t43 -139.5v-183q0 -95 14 -148zM208 81q45 0 70.5 28.5t25.5 84.5v51q-17 -15 -88 -35q-41 -11 -58 -27.5t-17 -43.5q0 -58 67 -58z" />
    <glyph glyph-name="ae" unicode="&#xe6;" horiz-adv-x="731" 
d="M505 516q87 0 135.5 -48.5t48.5 -137.5v-101h-275v-65q0 -40 22 -61.5t63 -21.5q85 0 85 84h105q-1 -82 -51.5 -128.5t-140.5 -46.5q-111 0 -161 68q-42 -68 -149 -68q-75 0 -115.5 35t-40.5 99q0 63 34.5 100.5t115.5 57.5q78 19 101 33q22 13 22 39q0 71 -72 71
q-77 0 -77 -78h-103q0 78 46 123.5t127 45.5q103 0 138 -68q42 68 142 68zM414 343v-34h168v34q0 82 -84 82t-84 -82zM208 81q45 0 70.5 28.5t25.5 84.5v51q-17 -15 -88 -35q-41 -11 -58 -27.5t-17 -43.5q0 -58 67 -58z" />
    <glyph glyph-name="ccedilla" unicode="&#xe7;" horiz-adv-x="457" 
d="M420 332v-11h-106v18q0 82 -80 82q-38 0 -59 -21.5t-21 -60.5v-173q0 -81 80 -81t80 81v29h106v-20q0 -83 -41.5 -131t-121.5 -54v-36q77 0 77 -54q0 -37 -25 -51t-80 -14q-102 0 -102 63v10h64v-9q0 -27 37 -27q42 0 42 30t-46 30h-10v58q-82 5 -126 53t-44 132v155
q0 89 49.5 137.5t140.5 48.5t138 -48t48 -136z" />
    <glyph glyph-name="egrave" unicode="&#xe8;" horiz-adv-x="470" 
d="M214 709l89 -126h-93l-127 126h131zM429 330v-101h-276v-65q0 -83 85 -83t85 84h106q-2 -82 -53 -128.5t-140 -46.5q-93 0 -143 48.5t-50 137.5v154q0 89 50 137.5t143 48.5t143 -48t50 -138zM153 343v-34h168v34q0 82 -84 82t-84 -82z" />
    <glyph glyph-name="eacute" unicode="&#xe9;" horiz-adv-x="470" 
d="M258 709h131l-127 -126h-93zM429 330v-101h-276v-65q0 -83 85 -83t85 84h106q-2 -82 -53 -128.5t-140 -46.5q-93 0 -143 48.5t-50 137.5v154q0 89 50 137.5t143 48.5t143 -48t50 -138zM153 343v-34h168v34q0 82 -84 82t-84 -82z" />
    <glyph glyph-name="ecircumflex" unicode="&#xea;" horiz-adv-x="470" 
d="M299 583l-63 63l-63 -63h-93l98 126h116l98 -126h-93zM429 330v-101h-276v-65q0 -83 85 -83t85 84h106q-2 -82 -53 -128.5t-140 -46.5q-93 0 -143 48.5t-50 137.5v154q0 89 50 137.5t143 48.5t143 -48t50 -138zM153 343v-34h168v34q0 82 -84 82t-84 -82z" />
    <glyph glyph-name="edieresis" unicode="&#xeb;" horiz-adv-x="470" 
d="M99 709h107v-126h-107v126zM266 709h107v-126h-107v126zM429 330v-101h-276v-65q0 -83 85 -83t85 84h106q-2 -82 -53 -128.5t-140 -46.5q-93 0 -143 48.5t-50 137.5v154q0 89 50 137.5t143 48.5t143 -48t50 -138zM153 343v-34h168v34q0 82 -84 82t-84 -82z" />
    <glyph glyph-name="igrave" unicode="&#xec;" horiz-adv-x="225" 
d="M179 583h-93l-127 126h131zM167 0h-110v506h110v-506z" />
    <glyph glyph-name="iacute" unicode="&#xed;" horiz-adv-x="225" 
d="M138 583h-93l89 126h131zM167 0h-110v506h110v-506z" />
    <glyph glyph-name="icircumflex" unicode="&#xee;" horiz-adv-x="225" 
d="M49 583h-93l98 126h116l98 -126h-93l-63 63zM167 0h-110v506h110v-506z" />
    <glyph glyph-name="idieresis" unicode="&#xef;" horiz-adv-x="225" 
d="M82 583h-107v126h107v-126zM249 583h-107v126h107v-126zM167 0h-110v506h110v-506z" />
    <glyph glyph-name="eth" unicode="&#xf0;" horiz-adv-x="471" 
d="M332 700h99l-105 -80q99 -106 99 -322v-122q0 -90 -50 -138t-142 -48t-141.5 48t-49.5 138v37h-1v95q0 168 143 168q91 0 130 -69q-6 89 -61 157l-64 -48h-99l121 92q-58 52 -144 92h150q33 -16 64 -39zM315 167v102q0 112 -90 112q-39 0 -56.5 -22t-17.5 -69v-43h1v-80
q0 -39 21 -60.5t60 -21.5q40 0 61 21.5t21 60.5z" />
    <glyph glyph-name="ntilde" unicode="&#xf1;" horiz-adv-x="490" 
d="M191 628q-27 0 -48 -51l-58 34q43 99 106 99q33 0 68 -28q26 -19 42 -19q25 0 48 51l58 -33q-43 -99 -106 -99q-31 0 -69 27q-25 19 -41 19zM297 516q140 0 140 -168v-348h-110v330q0 48 -16.5 69.5t-54.5 21.5q-89 0 -89 -112v-309h-110v506h96l2 -88q33 98 142 98z" />
    <glyph glyph-name="ograve" unicode="&#xf2;" horiz-adv-x="470" 
d="M302 583h-93l-127 126h131zM43 176v154q0 89 50 137.5t142 48.5t142 -48.5t50 -137.5v-154q0 -90 -50 -138t-142 -48t-142 48t-50 138zM317 167v171q0 40 -21 61.5t-61 21.5t-61 -21.5t-21 -61.5v-171q0 -39 21 -60.5t61 -21.5t61 21.5t21 60.5z" />
    <glyph glyph-name="oacute" unicode="&#xf3;" horiz-adv-x="470" 
d="M261 583h-93l89 126h131zM43 176v154q0 89 50 137.5t142 48.5t142 -48.5t50 -137.5v-154q0 -90 -50 -138t-142 -48t-142 48t-50 138zM317 167v171q0 40 -21 61.5t-61 21.5t-61 -21.5t-21 -61.5v-171q0 -39 21 -60.5t61 -21.5t61 21.5t21 60.5z" />
    <glyph glyph-name="ocircumflex" unicode="&#xf4;" horiz-adv-x="470" 
d="M172 583h-93l98 126h116l98 -126h-93l-63 63zM43 176v154q0 89 50 137.5t142 48.5t142 -48.5t50 -137.5v-154q0 -90 -50 -138t-142 -48t-142 48t-50 138zM317 167v171q0 40 -21 61.5t-61 21.5t-61 -21.5t-21 -61.5v-171q0 -39 21 -60.5t61 -21.5t61 21.5t21 60.5z" />
    <glyph glyph-name="otilde" unicode="&#xf5;" horiz-adv-x="470" 
d="M132 577l-58 34q43 99 106 99q33 0 68 -28q26 -19 42 -19q26 0 48 51l58 -33q-44 -99 -106 -99q-32 0 -69 27q-25 19 -41 19q-27 0 -48 -51zM43 176v154q0 89 50 137.5t142 48.5t142 -48.5t50 -137.5v-154q0 -90 -50 -138t-142 -48t-142 48t-50 138zM317 167v171
q0 40 -21 61.5t-61 21.5t-61 -21.5t-21 -61.5v-171q0 -39 21 -60.5t61 -21.5t61 21.5t21 60.5z" />
    <glyph glyph-name="odieresis" unicode="&#xf6;" horiz-adv-x="470" 
d="M205 583h-107v126h107v-126zM372 583h-107v126h107v-126zM43 176v154q0 89 50 137.5t142 48.5t142 -48.5t50 -137.5v-154q0 -90 -50 -138t-142 -48t-142 48t-50 138zM317 167v171q0 40 -21 61.5t-61 21.5t-61 -21.5t-21 -61.5v-171q0 -39 21 -60.5t61 -21.5t61 21.5
t21 60.5z" />
    <glyph glyph-name="divide" unicode="&#xf7;" horiz-adv-x="508" 
d="M310 423h-114v128h114v-128zM470 257h-434v86h434v-86zM310 49h-114v128h114v-128z" />
    <glyph glyph-name="oslash" unicode="&#xf8;" horiz-adv-x="470" 
d="M423 501l-31 -51q35 -47 35 -120v-154q0 -90 -50 -138t-142 -48q-65 0 -109 24l-24 -40l-55 34l30 49q-34 46 -34 119v154q0 89 50 137.5t142 48.5q64 0 108 -23l25 41zM153 338v-156l136 223q-19 16 -54 16q-40 0 -61 -21.5t-21 -61.5zM235 85q40 0 61 21.5t21 60.5v160
l-137 -225q20 -17 55 -17z" />
    <glyph glyph-name="ugrave" unicode="&#xf9;" horiz-adv-x="490" 
d="M223 709l89 -126h-93l-127 126h131zM323 197v309h110v-506h-96l-2 88q-33 -98 -142 -98q-140 0 -140 168v348h110v-330q0 -48 16.5 -69.5t54.5 -21.5q89 0 89 112z" />
    <glyph glyph-name="uacute" unicode="&#xfa;" horiz-adv-x="490" 
d="M267 709h131l-127 -126h-93zM323 197v309h110v-506h-96l-2 88q-33 -98 -142 -98q-140 0 -140 168v348h110v-330q0 -48 16.5 -69.5t54.5 -21.5q89 0 89 112z" />
    <glyph glyph-name="ucircumflex" unicode="&#xfb;" horiz-adv-x="490" 
d="M308 583l-63 63l-63 -63h-93l98 126h116l98 -126h-93zM323 197v309h110v-506h-96l-2 88q-33 -98 -142 -98q-140 0 -140 168v348h110v-330q0 -48 16.5 -69.5t54.5 -21.5q89 0 89 112z" />
    <glyph glyph-name="udieresis" unicode="&#xfc;" horiz-adv-x="490" 
d="M108 709h107v-126h-107v126zM275 709h107v-126h-107v126zM323 197v309h110v-506h-96l-2 88q-33 -98 -142 -98q-140 0 -140 168v348h110v-330q0 -48 16.5 -69.5t54.5 -21.5q89 0 89 112z" />
    <glyph glyph-name="yacute" unicode="&#xfd;" horiz-adv-x="461" 
d="M254 709h131l-127 -126h-93zM242 145l91 361h106l-155 -550q-18 -64 -56 -92.5t-104 -28.5q-46 0 -74 14v94q26 -13 61 -13q51 0 67 49l4 13l-161 514h115z" />
    <glyph glyph-name="thorn" unicode="&#xfe;" horiz-adv-x="488" 
d="M299 516q142 0 142 -168v-190q0 -168 -142 -168q-93 0 -132 71v-216h-110v855h110v-256q39 72 132 72zM331 176v154q0 48 -17 69.5t-56 21.5q-91 0 -91 -112v-112q0 -112 91 -112q39 0 56 21.5t17 69.5z" />
    <glyph glyph-name="ydieresis" unicode="&#xff;" horiz-adv-x="461" 
d="M95 709h107v-126h-107v126zM262 709h107v-126h-107v126zM242 145l91 361h106l-155 -550q-18 -64 -56 -92.5t-104 -28.5q-46 0 -74 14v94q26 -13 61 -13q51 0 67 49l4 13l-161 514h115z" />
    <glyph glyph-name="Amacron" unicode="&#x100;" horiz-adv-x="514" 
d="M117 872h278v-84h-278v84zM490 0h-117l-28 136h-185l-28 -136h-108l155 700h154zM252 581l-71 -346h143z" />
    <glyph glyph-name="amacron" unicode="&#x101;" horiz-adv-x="469" 
d="M90 688h278v-84h-278v84zM428 0h-101q-10 11 -11 89q-32 -99 -143 -99q-66 0 -104 35.5t-38 98.5t34.5 100.5t115.5 57.5q78 19 101 33q22 13 22 39q0 71 -72 71q-77 0 -77 -78h-103q0 81 47.5 125t134.5 44q94 0 137 -45.5t43 -139.5v-183q0 -95 14 -148zM208 81
q45 0 70.5 28.5t25.5 84.5v51q-17 -15 -88 -35q-41 -11 -58 -27.5t-17 -43.5q0 -58 67 -58z" />
    <glyph glyph-name="Abreve" unicode="&#x102;" horiz-adv-x="514" 
d="M256 764q-63 0 -100 34.5t-39 94.5h70q8 -53 69 -53q63 0 72 53h68q-2 -59 -39 -94t-101 -35zM490 0h-117l-28 136h-185l-28 -136h-108l155 700h154zM252 581l-71 -346h143z" />
    <glyph glyph-name="abreve" unicode="&#x103;" horiz-adv-x="469" 
d="M229 580q-63 0 -100 34.5t-39 94.5h70q8 -53 69 -53q63 0 72 53h68q-2 -59 -39 -94t-101 -35zM428 0h-101q-10 11 -11 89q-32 -99 -143 -99q-66 0 -104 35.5t-38 98.5t34.5 100.5t115.5 57.5q78 19 101 33q22 13 22 39q0 71 -72 71q-77 0 -77 -78h-103q0 81 47.5 125
t134.5 44q94 0 137 -45.5t43 -139.5v-183q0 -95 14 -148zM208 81q45 0 70.5 28.5t25.5 84.5v51q-17 -15 -88 -35q-41 -11 -58 -27.5t-17 -43.5q0 -58 67 -58z" />
    <glyph glyph-name="Aogonek" unicode="&#x104;" horiz-adv-x="514" 
d="M462 -101q23 0 41 7v-59q-35 -12 -70 -12q-107 0 -107 69q0 58 77 96h-30l-28 136h-185l-28 -136h-108l155 700h154l157 -700h-32q-43 -28 -43 -65q0 -36 47 -36zM252 581l-71 -346h143z" />
    <glyph glyph-name="aogonek" unicode="&#x105;" horiz-adv-x="469" 
d="M400 -101q23 0 41 7v-59q-34 -12 -70 -12q-107 0 -107 69q0 58 77 96h-14q-10 11 -11 89q-32 -99 -143 -99q-66 0 -104 35.5t-38 98.5t34.5 100.5t115.5 57.5q78 19 101 33q22 13 22 39q0 71 -72 71q-77 0 -77 -78h-103q0 81 47.5 125t134.5 44q94 0 137 -45.5t43 -139.5
v-183q0 -95 14 -148h-32q-43 -28 -43 -65q0 -36 47 -36zM208 81q45 0 70.5 28.5t25.5 84.5v51q-17 -15 -88 -35q-41 -11 -58 -27.5t-17 -43.5q0 -58 67 -58z" />
    <glyph glyph-name="Cacute" unicode="&#x106;" horiz-adv-x="489" 
d="M274 767h-93l89 126h131zM250 -10q-96 0 -148.5 51.5t-52.5 146.5v324q0 95 52.5 146.5t148.5 51.5q97 0 149 -51.5t52 -146.5v-50h-108v54q0 47 -24 72t-67 25q-42 0 -65.5 -25t-23.5 -72v-332q0 -47 23.5 -72t65.5 -25q43 0 67 25t24 72v74h108v-70q0 -95 -52 -146.5
t-149 -51.5z" />
    <glyph glyph-name="cacute" unicode="&#x107;" horiz-adv-x="457" 
d="M258 583h-93l89 126h131zM234 -11q-91 0 -140.5 48.5t-49.5 137.5v155q0 89 49.5 137.5t140.5 48.5t138 -48t48 -136v-11h-106v18q0 82 -80 82q-38 0 -59 -21.5t-21 -60.5v-173q0 -81 80 -81t80 81v29h106v-20q0 -89 -47.5 -137.5t-138.5 -48.5z" />
    <glyph glyph-name="Ccircumflex" unicode="&#x108;" horiz-adv-x="489" 
d="M185 767h-93l98 126h116l98 -126h-93l-63 63zM250 -10q-96 0 -148.5 51.5t-52.5 146.5v324q0 95 52.5 146.5t148.5 51.5q97 0 149 -51.5t52 -146.5v-50h-108v54q0 47 -24 72t-67 25q-42 0 -65.5 -25t-23.5 -72v-332q0 -47 23.5 -72t65.5 -25q43 0 67 25t24 72v74h108v-70
q0 -95 -52 -146.5t-149 -51.5z" />
    <glyph glyph-name="ccircumflex" unicode="&#x109;" horiz-adv-x="457" 
d="M169 583h-93l98 126h116l98 -126h-93l-63 63zM234 -11q-91 0 -140.5 48.5t-49.5 137.5v155q0 89 49.5 137.5t140.5 48.5t138 -48t48 -136v-11h-106v18q0 82 -80 82q-38 0 -59 -21.5t-21 -60.5v-173q0 -81 80 -81t80 81v29h106v-20q0 -89 -47.5 -137.5t-138.5 -48.5z" />
    <glyph glyph-name="Cdotaccent" unicode="&#x10a;" horiz-adv-x="489" 
d="M304 767h-110v126h110v-126zM250 -10q-96 0 -148.5 51.5t-52.5 146.5v324q0 95 52.5 146.5t148.5 51.5q97 0 149 -51.5t52 -146.5v-50h-108v54q0 47 -24 72t-67 25q-42 0 -65.5 -25t-23.5 -72v-332q0 -47 23.5 -72t65.5 -25q43 0 67 25t24 72v74h108v-70
q0 -95 -52 -146.5t-149 -51.5z" />
    <glyph glyph-name="cdotaccent" unicode="&#x10b;" horiz-adv-x="457" 
d="M288 583h-110v126h110v-126zM234 -11q-91 0 -140.5 48.5t-49.5 137.5v155q0 89 49.5 137.5t140.5 48.5t138 -48t48 -136v-11h-106v18q0 82 -80 82q-38 0 -59 -21.5t-21 -60.5v-173q0 -81 80 -81t80 81v29h106v-20q0 -89 -47.5 -137.5t-138.5 -48.5z" />
    <glyph glyph-name="Ccaron" unicode="&#x10c;" horiz-adv-x="489" 
d="M306 767h-116l-98 126h93l63 -63l63 63h93zM250 -10q-96 0 -148.5 51.5t-52.5 146.5v324q0 95 52.5 146.5t148.5 51.5q97 0 149 -51.5t52 -146.5v-50h-108v54q0 47 -24 72t-67 25q-42 0 -65.5 -25t-23.5 -72v-332q0 -47 23.5 -72t65.5 -25q43 0 67 25t24 72v74h108v-70
q0 -95 -52 -146.5t-149 -51.5z" />
    <glyph glyph-name="ccaron" unicode="&#x10d;" horiz-adv-x="457" 
d="M290 583h-116l-98 126h93l63 -63l63 63h93zM234 -11q-91 0 -140.5 48.5t-49.5 137.5v155q0 89 49.5 137.5t140.5 48.5t138 -48t48 -136v-11h-106v18q0 82 -80 82q-38 0 -59 -21.5t-21 -60.5v-173q0 -81 80 -81t80 81v29h106v-20q0 -89 -47.5 -137.5t-138.5 -48.5z" />
    <glyph glyph-name="Dcaron" unicode="&#x10e;" horiz-adv-x="518" 
d="M306 767h-116l-98 126h93l63 -63l63 63h93zM266 0h-206v700h206q204 0 204 -195v-310q0 -195 -204 -195zM174 600v-500h90q49 0 70.5 22t21.5 71v314q0 49 -21.5 71t-70.5 22h-90z" />
    <glyph glyph-name="dcaron" unicode="&#x10f;" horiz-adv-x="562" 
d="M321 700h110v-552q0 -101 14 -148h-102q-8 10 -11 87q-33 -97 -143 -97q-142 0 -142 168v190q0 168 142 168q93 0 132 -72v256zM472 576v124h106v-112l-51 -135h-47l33 123h-41zM230 85q91 0 91 112v112q0 112 -91 112q-39 0 -56 -21.5t-17 -69.5v-154q0 -48 17 -69.5
t56 -21.5z" />
    <glyph glyph-name="Dcroat" unicode="&#x110;" horiz-adv-x="535" 
d="M77 700h206q204 0 204 -195v-310q0 -195 -204 -195h-206v319h-59v91h59v290zM373 193v314q0 49 -21.5 71t-70.5 22h-90v-190h89v-91h-89v-219h90q49 0 70.5 22t21.5 71z" />
    <glyph glyph-name="dslash" unicode="&#x111;" horiz-adv-x="490" 
d="M488 633v-77h-57v-408q0 -101 14 -148h-102q-8 10 -11 87q-33 -97 -143 -97q-142 0 -142 168v190q0 168 142 168q93 0 132 -72v112h-95v77h95v67h110v-67h57zM230 85q91 0 91 112v112q0 112 -91 112q-39 0 -56 -21.5t-17 -69.5v-154q0 -48 17 -69.5t56 -21.5z" />
    <glyph glyph-name="Emacron" unicode="&#x112;" horiz-adv-x="463" 
d="M384 788h-278v84h278v-84zM430 0h-370v700h370v-100h-256v-195h207v-100h-207v-205h256v-100z" />
    <glyph glyph-name="emacron" unicode="&#x113;" horiz-adv-x="470" 
d="M97 688h278v-84h-278v84zM429 330v-101h-276v-65q0 -83 85 -83t85 84h106q-2 -82 -53 -128.5t-140 -46.5q-93 0 -143 48.5t-50 137.5v154q0 89 50 137.5t143 48.5t143 -48t50 -138zM153 343v-34h168v34q0 82 -84 82t-84 -82z" />
    <glyph glyph-name="Ebreve" unicode="&#x114;" horiz-adv-x="463" 
d="M245 764q-63 0 -100 34.5t-39 94.5h70q8 -53 69 -53q63 0 72 53h68q-2 -59 -39 -94t-101 -35zM430 0h-370v700h370v-100h-256v-195h207v-100h-207v-205h256v-100z" />
    <glyph glyph-name="ebreve" unicode="&#x115;" horiz-adv-x="470" 
d="M236 580q-63 0 -100 34.5t-39 94.5h70q8 -53 69 -53q63 0 72 53h68q-2 -59 -39 -94t-101 -35zM429 330v-101h-276v-65q0 -83 85 -83t85 84h106q-2 -82 -53 -128.5t-140 -46.5q-93 0 -143 48.5t-50 137.5v154q0 89 50 137.5t143 48.5t143 -48t50 -138zM153 343v-34h168v34
q0 82 -84 82t-84 -82z" />
    <glyph glyph-name="Edotaccent" unicode="&#x116;" horiz-adv-x="463" 
d="M301 767h-110v126h110v-126zM430 0h-370v700h370v-100h-256v-195h207v-100h-207v-205h256v-100z" />
    <glyph glyph-name="edotaccent" unicode="&#x117;" horiz-adv-x="470" 
d="M182 709h110v-126h-110v126zM429 330v-101h-276v-65q0 -83 85 -83t85 84h106q-2 -82 -53 -128.5t-140 -46.5q-93 0 -143 48.5t-50 137.5v154q0 89 50 137.5t143 48.5t143 -48t50 -138zM153 343v-34h168v34q0 82 -84 82t-84 -82z" />
    <glyph glyph-name="Eogonek" unicode="&#x118;" horiz-adv-x="463" 
d="M390 -101q23 0 41 7v-59q-35 -12 -70 -12q-107 0 -107 69q0 59 76 96h-270v700h370v-100h-256v-195h207v-100h-207v-205h256v-100h-47q-40 -28 -40 -65q0 -36 47 -36z" />
    <glyph glyph-name="eogonek" unicode="&#x119;" horiz-adv-x="470" 
d="M429 330v-101h-276v-65q0 -83 85 -83t85 84h106q-2 -90 -62 -137q-49 -55 -49 -93q0 -36 46 -36q21 0 39 7v-59q-36 -12 -69 -12q-104 0 -104 69q0 54 65 92q-27 -6 -59 -6q-93 0 -143 48.5t-50 137.5v154q0 89 50 137.5t143 48.5t143 -48t50 -138zM153 343v-34h168v34
q0 82 -84 82t-84 -82z" />
    <glyph glyph-name="Ecaron" unicode="&#x11a;" horiz-adv-x="463" 
d="M303 767h-116l-98 126h93l63 -63l63 63h93zM430 0h-370v700h370v-100h-256v-195h207v-100h-207v-205h256v-100z" />
    <glyph glyph-name="ecaron" unicode="&#x11b;" horiz-adv-x="470" 
d="M392 709l-98 -126h-116l-98 126h93l63 -63l63 63h93zM429 330v-101h-276v-65q0 -83 85 -83t85 84h106q-2 -82 -53 -128.5t-140 -46.5q-93 0 -143 48.5t-50 137.5v154q0 89 50 137.5t143 48.5t143 -48t50 -138zM153 343v-34h168v34q0 82 -84 82t-84 -82z" />
    <glyph glyph-name="Gcircumflex" unicode="&#x11c;" horiz-adv-x="502" 
d="M188 767h-93l98 126h116l98 -126h-93l-63 63zM49 187v324q0 95 53 147t150 52t150.5 -52.5t53.5 -146.5v-38h-107v43q0 46 -24 70t-69 24t-69 -24t-24 -70v-332q0 -46 24 -70t69 -24t69 24t24 70v104h-88v104h195v-205q0 -94 -53 -145.5t-150 -51.5t-150.5 51.5
t-53.5 145.5z" />
    <glyph glyph-name="gcircumflex" unicode="&#x11d;" horiz-adv-x="485" 
d="M292 583l-63 63l-63 -63h-93l98 126h116l98 -126h-93zM330 417l2 89h95v-494q0 -88 -45.5 -132.5t-146.5 -44.5q-179 0 -186 141h106q6 -50 79 -50q44 0 63.5 20t19.5 66v86q-40 -70 -131 -70q-143 0 -143 168v152q0 168 143 168q110 0 144 -99zM227 123q90 0 90 112v74
q0 112 -90 112q-39 0 -56.5 -22t-17.5 -69v-116q0 -47 17.5 -69t56.5 -22z" />
    <glyph glyph-name="Gbreve" unicode="&#x11e;" horiz-adv-x="502" 
d="M251 764q-63 0 -100 34.5t-39 94.5h70q8 -53 69 -53q63 0 72 53h68q-2 -59 -39 -94t-101 -35zM49 187v324q0 95 53 147t150 52t150.5 -52.5t53.5 -146.5v-38h-107v43q0 46 -24 70t-69 24t-69 -24t-24 -70v-332q0 -46 24 -70t69 -24t69 24t24 70v104h-88v104h195v-205
q0 -94 -53 -145.5t-150 -51.5t-150.5 51.5t-53.5 145.5z" />
    <glyph glyph-name="gbreve" unicode="&#x11f;" horiz-adv-x="485" 
d="M229 580q-63 0 -100 34.5t-39 94.5h70q8 -53 69 -53q63 0 72 53h68q-2 -59 -39 -94t-101 -35zM330 417l2 89h95v-494q0 -88 -45.5 -132.5t-146.5 -44.5q-179 0 -186 141h106q6 -50 79 -50q44 0 63.5 20t19.5 66v86q-40 -70 -131 -70q-143 0 -143 168v152q0 168 143 168
q110 0 144 -99zM227 123q90 0 90 112v74q0 112 -90 112q-39 0 -56.5 -22t-17.5 -69v-116q0 -47 17.5 -69t56.5 -22z" />
    <glyph glyph-name="Gdotaccent" unicode="&#x120;" horiz-adv-x="502" 
d="M307 767h-110v126h110v-126zM49 187v324q0 95 53 147t150 52t150.5 -52.5t53.5 -146.5v-38h-107v43q0 46 -24 70t-69 24t-69 -24t-24 -70v-332q0 -46 24 -70t69 -24t69 24t24 70v104h-88v104h195v-205q0 -94 -53 -145.5t-150 -51.5t-150.5 51.5t-53.5 145.5z" />
    <glyph glyph-name="gdotaccent" unicode="&#x121;" horiz-adv-x="485" 
d="M175 709h110v-126h-110v126zM330 417l2 89h95v-494q0 -88 -45.5 -132.5t-146.5 -44.5q-179 0 -186 141h106q6 -50 79 -50q44 0 63.5 20t19.5 66v86q-40 -70 -131 -70q-143 0 -143 168v152q0 168 143 168q110 0 144 -99zM227 123q90 0 90 112v74q0 112 -90 112
q-39 0 -56.5 -22t-17.5 -69v-116q0 -47 17.5 -69t56.5 -22z" />
    <glyph glyph-name="uni0122" unicode="&#x122;" horiz-adv-x="502" 
d="M49 187v324q0 95 53 147t150 52t150.5 -52.5t53.5 -146.5v-38h-107v43q0 46 -24 70t-69 24t-69 -24t-24 -70v-332q0 -46 24 -70t69 -24t69 24t24 70v104h-88v104h195v-205q0 -94 -53 -145.5t-150 -51.5t-150.5 51.5t-53.5 145.5zM245 -236h-42l45 68h-50v110h110v-100z
" />
    <glyph glyph-name="uni0123" unicode="&#x123;" horiz-adv-x="485" 
d="M233 694h51v-111h-110v101l56 77h42zM330 417l2 89h95v-494q0 -88 -45.5 -132.5t-146.5 -44.5q-179 0 -186 141h106q6 -50 79 -50q44 0 63.5 20t19.5 66v86q-40 -70 -131 -70q-143 0 -143 168v152q0 168 143 168q110 0 144 -99zM227 123q90 0 90 112v74q0 112 -90 112
q-39 0 -56.5 -22t-17.5 -69v-116q0 -47 17.5 -69t56.5 -22z" />
    <glyph glyph-name="Hcircumflex" unicode="&#x124;" horiz-adv-x="536" 
d="M205 767h-93l98 126h116l98 -126h-93l-63 63zM174 0h-114v700h114v-295h189v295h114v-700h-114v305h-189v-305z" />
    <glyph glyph-name="hcircumflex" unicode="&#x125;" horiz-adv-x="490" 
d="M268 767h-93l-63 63l-63 -63h-93l98 126h116zM297 516q140 0 140 -168v-348h-110v330q0 48 -16.5 69.5t-54.5 21.5q-89 0 -89 -112v-309h-110v700h110v-255q39 71 130 71z" />
    <glyph glyph-name="Hbar" unicode="&#x126;" horiz-adv-x="555" 
d="M486 589h52v-94h-52v-495h-114v305h-189v-305h-114v495h-51v94h51v111h114v-111h189v111h114v-111zM183 405h189v90h-189v-90z" />
    <glyph glyph-name="hbar" unicode="&#x127;" horiz-adv-x="490" 
d="M297 516q140 0 140 -168v-348h-110v330q0 48 -16.5 69.5t-54.5 21.5q-89 0 -89 -112v-309h-110v561h-57v77h57v62h110v-62h95v-77h-95v-116q39 71 130 71z" />
    <glyph glyph-name="Itilde" unicode="&#x128;" horiz-adv-x="234" 
d="M14 761l-58 34q43 99 106 99q33 0 68 -28q26 -19 42 -19q26 0 48 51l58 -33q-44 -99 -106 -99q-32 0 -69 27q-25 19 -41 19q-27 0 -48 -51zM174 0h-114v700h114v-700z" />
    <glyph glyph-name="itilde" unicode="&#x129;" horiz-adv-x="225" 
d="M9 577l-58 34q43 99 106 99q33 0 68 -28q26 -19 42 -19q25 0 48 51l58 -33q-43 -99 -106 -99q-31 0 -69 27q-25 19 -41 19q-27 0 -48 -51zM167 0h-110v506h110v-506z" />
    <glyph glyph-name="Imacron" unicode="&#x12a;" horiz-adv-x="234" 
d="M256 788h-278v84h278v-84zM174 0h-114v700h114v-700z" />
    <glyph glyph-name="imacron" unicode="&#x12b;" horiz-adv-x="225" 
d="M251 604h-278v84h278v-84zM167 0h-110v506h110v-506z" />
    <glyph glyph-name="Ibreve" unicode="&#x12c;" horiz-adv-x="234" 
d="M117 764q-63 0 -100 34.5t-39 94.5h70q8 -53 69 -53q63 0 72 53h68q-2 -59 -39 -94t-101 -35zM174 0h-114v700h114v-700z" />
    <glyph glyph-name="ibreve" unicode="&#x12d;" horiz-adv-x="225" 
d="M112 580q-63 0 -100 34.5t-39 94.5h70q8 -53 69 -53q63 0 72 53h68q-2 -59 -39 -94t-101 -35zM167 0h-110v506h110v-506z" />
    <glyph glyph-name="Iogonek" unicode="&#x12e;" horiz-adv-x="234" 
d="M159 -101q21 0 39 7v-59q-34 -12 -65 -12q-107 0 -107 69q0 57 65 96h-31v700h114v-700h-29q-30 -28 -30 -65q0 -36 44 -36z" />
    <glyph glyph-name="iogonek" unicode="&#x12f;" horiz-adv-x="225" 
d="M58 709h110v-126h-110v126zM154 -101q21 0 39 7v-59q-35 -12 -65 -12q-107 0 -107 69q0 57 65 96h-29v506h110v-506h-27q-30 -28 -30 -65q0 -36 44 -36z" />
    <glyph glyph-name="Idot" unicode="&#x130;" horiz-adv-x="234" 
d="M173 767h-110v126h110v-126zM174 0h-114v700h114v-700z" />
    <glyph glyph-name="dotlessi" unicode="&#x131;" horiz-adv-x="225" 
d="M167 0h-110v506h110v-506z" />
    <glyph glyph-name="IJ" unicode="&#x132;" horiz-adv-x="572" 
d="M174 0h-114v700h114v-700zM320 -5q-33 0 -60 6v100q20 -6 48 -6q50 0 72.5 20.5t22.5 67.5v517h114v-514q0 -99 -47.5 -145t-149.5 -46z" />
    <glyph glyph-name="ij" unicode="&#x133;" horiz-adv-x="450" 
d="M168 583h-110v126h110v-126zM392 583h-110v126h110v-126zM167 0h-110v506h110v-506zM267 -165q-38 0 -63 13v90q21 -8 41 -8t28.5 10t8.5 33v533h110v-540q0 -131 -125 -131z" />
    <glyph glyph-name="Jcircumflex" unicode="&#x134;" horiz-adv-x="338" 
d="M155 767h-93l98 126h116l98 -126h-93l-63 63zM86 -5q-33 0 -60 6v100q20 -6 48 -6q50 0 72.5 20.5t22.5 67.5v517h114v-514q0 -99 -47.5 -145t-149.5 -46z" />
    <glyph glyph-name="jcircumflex" unicode="&#x135;" horiz-adv-x="225" 
d="M49 583h-93l98 126h116l98 -126h-93l-63 63zM42 -165q-38 0 -63 13v90q21 -8 41 -8t28.5 10t8.5 33v533h110v-540q0 -131 -125 -131z" />
    <glyph glyph-name="uni0136" unicode="&#x136;" horiz-adv-x="528" 
d="M502 700l-175 -262l178 -438h-122l-134 333l-75 -109v-224h-114v700h114v-316l211 316h117zM273 -168h-50v110h110v-100l-63 -78h-42z" />
    <glyph glyph-name="uni0137" unicode="&#x137;" horiz-adv-x="494" 
d="M466 506l-153 -189l161 -317h-122l-116 230l-69 -86v-144h-110v700h110v-419l175 225h124zM257 -168h-50v110h110v-100l-63 -78h-42z" />
    <glyph glyph-name="kgreenlandic" unicode="&#x138;" horiz-adv-x="494" 
d="M474 0h-122l-116 230l-69 -86v-144h-110v506h110v-225l175 225h124l-153 -189z" />
    <glyph glyph-name="Lacute" unicode="&#x139;" horiz-adv-x="444" 
d="M155 767h-93l89 126h131zM419 0h-359v700h114v-600h245v-100z" />
    <glyph glyph-name="lacute" unicode="&#x13a;" horiz-adv-x="225" 
d="M138 767h-93l89 126h131zM167 0h-110v700h110v-700z" />
    <glyph glyph-name="uni013B" unicode="&#x13b;" horiz-adv-x="444" 
d="M419 0h-359v700h114v-600h245v-100zM233 -236h-42l45 68h-50v110h110v-100z" />
    <glyph glyph-name="uni013C" unicode="&#x13c;" horiz-adv-x="225" 
d="M167 0h-110v700h110v-700zM105 -236h-42l45 68h-50v110h110v-100z" />
    <glyph glyph-name="Lcaron" unicode="&#x13d;" horiz-adv-x="444" 
d="M419 0h-359v700h114v-600h245v-100zM325 453h-47l33 123h-41v124h106v-112z" />
    <glyph glyph-name="lcaron" unicode="&#x13e;" horiz-adv-x="298" 
d="M167 0h-110v700h110v-700zM264 453h-47l33 123h-41v124h106v-112z" />
    <glyph glyph-name="Ldot" unicode="&#x13f;" horiz-adv-x="444" 
d="M419 0h-359v700h114v-600h245v-100zM391 326h-104v114h104v-114z" />
    <glyph glyph-name="ldot" unicode="&#x140;" horiz-adv-x="314" 
d="M167 0h-110v700h110v-700zM325 288h-114v125h114v-125z" />
    <glyph glyph-name="Lslash" unicode="&#x141;" horiz-adv-x="471" 
d="M200 287v-187h245v-100h-359v165l-68 -73v121l68 73v414h114v-291l142 153v-122z" />
    <glyph glyph-name="lslash" unicode="&#x142;" horiz-adv-x="258" 
d="M184 465l58 61v-114l-58 -61v-351h-110v236l-55 -58v114l55 58v350h110v-235z" />
    <glyph glyph-name="Nacute" unicode="&#x143;" horiz-adv-x="545" 
d="M299 767h-93l89 126h131zM162 0h-102v700h143l179 -461v461h103v-700h-116l-207 537v-537z" />
    <glyph glyph-name="nacute" unicode="&#x144;" horiz-adv-x="490" 
d="M268 709h131l-127 -126h-93zM297 516q140 0 140 -168v-348h-110v330q0 48 -16.5 69.5t-54.5 21.5q-89 0 -89 -112v-309h-110v506h96l2 -88q33 98 142 98z" />
    <glyph glyph-name="uni0145" unicode="&#x145;" horiz-adv-x="545" 
d="M162 0h-102v700h143l179 -461v461h103v-700h-116l-207 537v-537zM266 -236h-42l45 68h-50v110h110v-100z" />
    <glyph glyph-name="uni0146" unicode="&#x146;" horiz-adv-x="490" 
d="M297 516q140 0 140 -168v-348h-110v330q0 48 -16.5 69.5t-54.5 21.5q-89 0 -89 -112v-309h-110v506h96l2 -88q33 98 142 98zM242 -168h-50v110h110v-100l-63 -78h-42z" />
    <glyph glyph-name="Ncaron" unicode="&#x147;" horiz-adv-x="545" 
d="M331 767h-116l-98 126h93l63 -63l63 63h93zM162 0h-102v700h143l179 -461v461h103v-700h-116l-207 537v-537z" />
    <glyph glyph-name="ncaron" unicode="&#x148;" horiz-adv-x="490" 
d="M402 709l-98 -126h-116l-98 126h93l63 -63l63 63h93zM297 516q140 0 140 -168v-348h-110v330q0 48 -16.5 69.5t-54.5 21.5q-89 0 -89 -112v-309h-110v506h96l2 -88q33 98 142 98z" />
    <glyph glyph-name="napostrophe" unicode="&#x149;" horiz-adv-x="497" 
d="M-6 572h-43v128h110v-117l-54 -130h-47zM304 516q140 0 140 -168v-348h-110v330q0 48 -17 69.5t-55 21.5q-88 0 -88 -112v-309h-110v506h95l3 -88q33 98 142 98z" />
    <glyph glyph-name="Eng" unicode="&#x14a;" horiz-adv-x="545" 
d="M311 -165q-40 0 -64 4v93q20 -4 50 -4q75 0 75 70q0 30 -9 48l-201 504v-550h-102v700h143l180 -426v426h102v-694q0 -171 -174 -171z" />
    <glyph glyph-name="eng" unicode="&#x14b;" horiz-adv-x="490" 
d="M297 516q140 0 140 -168v-363q0 -150 -146 -150q-40 0 -72 13v94q23 -12 51 -12q31 0 44 15t13 51v334q0 48 -16.5 69.5t-54.5 21.5q-89 0 -89 -112v-309h-110v506h96l2 -88q33 98 142 98z" />
    <glyph glyph-name="Omacron" unicode="&#x14c;" horiz-adv-x="512" 
d="M395 788h-278v84h278v-84zM49 189v322q0 95 53.5 147t153.5 52t153.5 -52t53.5 -147v-322q0 -95 -53.5 -147t-153.5 -52t-153.5 52t-53.5 147zM349 184v332q0 46 -24 70t-69 24t-69 -24t-24 -70v-332q0 -46 24 -70t69 -24t69 24t24 70z" />
    <glyph glyph-name="omacron" unicode="&#x14d;" horiz-adv-x="470" 
d="M374 604h-278v84h278v-84zM43 176v154q0 89 50 137.5t142 48.5t142 -48.5t50 -137.5v-154q0 -90 -50 -138t-142 -48t-142 48t-50 138zM317 167v171q0 40 -21 61.5t-61 21.5t-61 -21.5t-21 -61.5v-171q0 -39 21 -60.5t61 -21.5t61 21.5t21 60.5z" />
    <glyph glyph-name="Obreve" unicode="&#x14e;" horiz-adv-x="512" 
d="M256 764q-63 0 -100 34.5t-39 94.5h70q8 -53 69 -53q63 0 72 53h68q-2 -59 -39 -94t-101 -35zM49 189v322q0 95 53.5 147t153.5 52t153.5 -52t53.5 -147v-322q0 -95 -53.5 -147t-153.5 -52t-153.5 52t-53.5 147zM349 184v332q0 46 -24 70t-69 24t-69 -24t-24 -70v-332
q0 -46 24 -70t69 -24t69 24t24 70z" />
    <glyph glyph-name="obreve" unicode="&#x14f;" horiz-adv-x="470" 
d="M235 580q-63 0 -100 34.5t-39 94.5h70q8 -53 69 -53q63 0 72 53h68q-2 -59 -39 -94t-101 -35zM43 176v154q0 89 50 137.5t142 48.5t142 -48.5t50 -137.5v-154q0 -90 -50 -138t-142 -48t-142 48t-50 138zM317 167v171q0 40 -21 61.5t-61 21.5t-61 -21.5t-21 -61.5v-171
q0 -39 21 -60.5t61 -21.5t61 21.5t21 60.5z" />
    <glyph glyph-name="Ohungarumlaut" unicode="&#x150;" horiz-adv-x="512" 
d="M196 767h-89l89 126h126zM365 767h-89l89 126h126zM49 189v322q0 95 53.5 147t153.5 52t153.5 -52t53.5 -147v-322q0 -95 -53.5 -147t-153.5 -52t-153.5 52t-53.5 147zM349 184v332q0 46 -24 70t-69 24t-69 -24t-24 -70v-332q0 -46 24 -70t69 -24t69 24t24 70z" />
    <glyph glyph-name="ohungarumlaut" unicode="&#x151;" horiz-adv-x="470" 
d="M175 583h-89l89 126h126zM344 583h-89l89 126h126zM43 176v154q0 89 50 137.5t142 48.5t142 -48.5t50 -137.5v-154q0 -90 -50 -138t-142 -48t-142 48t-50 138zM317 167v171q0 40 -21 61.5t-61 21.5t-61 -21.5t-21 -61.5v-171q0 -39 21 -60.5t61 -21.5t61 21.5t21 60.5z
" />
    <glyph glyph-name="OE" unicode="&#x152;" horiz-adv-x="747" 
d="M715 0h-463q-204 0 -204 195v310q0 195 204 195h463v-100h-257v-197h207v-98h-207v-205h257v-100zM254 100h90v500h-90q-49 0 -70.5 -22t-21.5 -71v-314q0 -49 21.5 -71t70.5 -22z" />
    <glyph glyph-name="oe" unicode="&#x153;" horiz-adv-x="744" 
d="M518 516q88 0 136 -48.5t48 -137.5v-101h-275v-65q0 -83 85 -83q84 0 84 84h106q-3 -84 -50.5 -129.5t-134.5 -45.5q-105 0 -143 69q-39 -69 -147 -69q-88 0 -136 48t-48 138v154q0 89 48 137.5t136 48.5q108 0 147 -70q39 70 144 70zM427 343v-34h167v34q0 82 -84 82
q-83 0 -83 -82zM317 167v171q0 40 -21 61.5t-61 21.5t-61 -21.5t-21 -61.5v-171q0 -39 21 -60.5t61 -21.5t61 21.5t21 60.5z" />
    <glyph glyph-name="Racute" unicode="&#x154;" horiz-adv-x="514" 
d="M271 767h-93l89 126h131zM174 0h-114v700h199q103 0 153 -43t50 -133v-23q0 -119 -99 -150v-3q52 -12 76 -52t24 -115v-84q0 -61 14 -97h-116q-12 32 -12 97v92q0 57 -24 80.5t-83 23.5h-68v-293zM174 600v-208h69q55 0 80 23t25 72v23q0 47 -21.5 68.5t-68.5 21.5h-84z
" />
    <glyph glyph-name="racute" unicode="&#x155;" 
d="M204 709h131l-127 -126h-93zM153 506l3 -101q27 111 129 111q26 0 40 -7v-106q-13 4 -37 4q-121 0 -121 -145v-262h-110v506h96z" />
    <glyph glyph-name="uni0156" unicode="&#x156;" horiz-adv-x="514" 
d="M174 0h-114v700h199q103 0 153 -43t50 -133v-23q0 -119 -99 -150v-3q52 -12 76 -52t24 -115v-84q0 -61 14 -97h-116q-12 32 -12 97v92q0 57 -24 80.5t-83 23.5h-68v-293zM174 600v-208h69q55 0 80 23t25 72v23q0 47 -21.5 68.5t-68.5 21.5h-84zM260 -236h-42l45 68h-50
v110h110v-100z" />
    <glyph glyph-name="uni0157" unicode="&#x157;" 
d="M285 516q26 0 40 -7v-106q-13 4 -37 4q-121 0 -121 -145v-262h-110v506h96l3 -101q27 111 129 111zM108 -168h-50v110h110v-100l-63 -78h-42z" />
    <glyph glyph-name="Rcaron" unicode="&#x158;" horiz-adv-x="514" 
d="M303 767h-116l-98 126h93l63 -63l63 63h93zM174 0h-114v700h199q103 0 153 -43t50 -133v-23q0 -119 -99 -150v-3q52 -12 76 -52t24 -115v-84q0 -61 14 -97h-116q-12 32 -12 97v92q0 57 -24 80.5t-83 23.5h-68v-293zM174 600v-208h69q55 0 80 23t25 72v23q0 47 -21.5 68.5
t-68.5 21.5h-84z" />
    <glyph glyph-name="rcaron" unicode="&#x159;" 
d="M338 709l-98 -126h-116l-98 126h93l63 -63l63 63h93zM153 506l3 -101q27 111 129 111q26 0 40 -7v-106q-13 4 -37 4q-121 0 -121 -145v-262h-110v506h96z" />
    <glyph glyph-name="Sacute" unicode="&#x15a;" horiz-adv-x="477" 
d="M263 767h-93l89 126h131zM236 -10q-95 0 -147.5 50t-52.5 137v30h107v-30q0 -41 24.5 -65.5t67.5 -24.5t67.5 24.5t24.5 65.5q0 48 -25 73q-22 23 -104 62q-90 43 -125 90q-34 47 -34 122q0 85 53 135.5t148 50.5q94 0 145.5 -50t51.5 -138v-19h-108v18q0 43 -23 67.5
t-66 24.5q-40 0 -63.5 -24t-23.5 -63q0 -43 25 -68q26 -24 106 -62q91 -43 124 -91t33 -125q0 -88 -54 -139t-151 -51z" />
    <glyph glyph-name="sacute" unicode="&#x15b;" horiz-adv-x="436" 
d="M240 583h-93l89 126h131zM222 -10q-89 0 -138.5 40.5t-49.5 112.5v16h105v-16q0 -65 78 -65q76 0 76 65q0 21 -16 34q-14 13 -29 18t-60 15q-74 16 -110.5 50.5t-36.5 101.5q0 72 46.5 113t129.5 41q80 0 127.5 -39.5t47.5 -106.5v-11h-104v10q0 58 -70 58
q-32 0 -51 -15.5t-19 -43.5q0 -29 22 -42.5t85 -28.5q61 -15 99 -41q48 -32 48 -105q0 -76 -47 -118.5t-133 -42.5z" />
    <glyph glyph-name="Scircumflex" unicode="&#x15c;" horiz-adv-x="477" 
d="M174 767h-93l98 126h116l98 -126h-93l-63 63zM236 -10q-95 0 -147.5 50t-52.5 137v30h107v-30q0 -41 24.5 -65.5t67.5 -24.5t67.5 24.5t24.5 65.5q0 48 -25 73q-22 23 -104 62q-90 43 -125 90q-34 47 -34 122q0 85 53 135.5t148 50.5q94 0 145.5 -50t51.5 -138v-19h-108
v18q0 43 -23 67.5t-66 24.5q-40 0 -63.5 -24t-23.5 -63q0 -43 25 -68q26 -24 106 -62q91 -43 124 -91t33 -125q0 -88 -54 -139t-151 -51z" />
    <glyph glyph-name="scircumflex" unicode="&#x15d;" horiz-adv-x="436" 
d="M151 583h-93l98 126h116l98 -126h-93l-63 63zM222 -10q-89 0 -138.5 40.5t-49.5 112.5v16h105v-16q0 -65 78 -65q76 0 76 65q0 21 -16 34q-14 13 -29 18t-60 15q-74 16 -110.5 50.5t-36.5 101.5q0 72 46.5 113t129.5 41q80 0 127.5 -39.5t47.5 -106.5v-11h-104v10
q0 58 -70 58q-32 0 -51 -15.5t-19 -43.5q0 -29 22 -42.5t85 -28.5q61 -15 99 -41q48 -32 48 -105q0 -76 -47 -118.5t-133 -42.5z" />
    <glyph glyph-name="Scedilla" unicode="&#x15e;" horiz-adv-x="477" 
d="M441 180q0 -82 -48 -132.5t-134 -56.5v-37q77 0 77 -54q0 -37 -25 -51t-80 -14q-102 0 -102 63v10h64v-9q0 -27 37 -27q42 0 42 30t-46 30h-10v59q-86 5 -133 54.5t-47 131.5v30h107v-30q0 -41 24.5 -65.5t67.5 -24.5t67.5 24.5t24.5 65.5q0 48 -25 73q-22 23 -104 62
q-90 43 -125 90q-34 47 -34 122q0 85 53 135.5t148 50.5q94 0 145.5 -50t51.5 -138v-19h-108v18q0 43 -23 67.5t-66 24.5q-40 0 -63.5 -24t-23.5 -63q0 -43 25 -68q26 -24 106 -62q91 -43 124 -91t33 -125z" />
    <glyph glyph-name="scedilla" unicode="&#x15f;" horiz-adv-x="436" 
d="M402 151q0 -72 -42.5 -114t-119.5 -46v-37q77 0 77 -54q0 -37 -25 -51t-80 -14q-102 0 -102 63v10h64v-9q0 -27 37 -27q42 0 42 30t-46 30h-10v59q-78 6 -120.5 46t-42.5 106v16h105v-16q0 -65 78 -65q76 0 76 65q0 21 -16 34q-14 13 -29 18t-60 15q-74 16 -110.5 50.5
t-36.5 101.5q0 72 46.5 113t129.5 41q80 0 127.5 -39.5t47.5 -106.5v-11h-104v10q0 58 -70 58q-32 0 -51 -15.5t-19 -43.5q0 -29 22 -42.5t85 -28.5q61 -15 99 -41q48 -32 48 -105z" />
    <glyph glyph-name="Scaron" unicode="&#x160;" horiz-adv-x="477" 
d="M295 767h-116l-98 126h93l63 -63l63 63h93zM236 -10q-95 0 -147.5 50t-52.5 137v30h107v-30q0 -41 24.5 -65.5t67.5 -24.5t67.5 24.5t24.5 65.5q0 48 -25 73q-22 23 -104 62q-90 43 -125 90q-34 47 -34 122q0 85 53 135.5t148 50.5q94 0 145.5 -50t51.5 -138v-19h-108v18
q0 43 -23 67.5t-66 24.5q-40 0 -63.5 -24t-23.5 -63q0 -43 25 -68q26 -24 106 -62q91 -43 124 -91t33 -125q0 -88 -54 -139t-151 -51z" />
    <glyph glyph-name="scaron" unicode="&#x161;" horiz-adv-x="436" 
d="M272 583h-116l-98 126h93l63 -63l63 63h93zM222 -10q-89 0 -138.5 40.5t-49.5 112.5v16h105v-16q0 -65 78 -65q76 0 76 65q0 21 -16 34q-14 13 -29 18t-60 15q-74 16 -110.5 50.5t-36.5 101.5q0 72 46.5 113t129.5 41q80 0 127.5 -39.5t47.5 -106.5v-11h-104v10
q0 58 -70 58q-32 0 -51 -15.5t-19 -43.5q0 -29 22 -42.5t85 -28.5q61 -15 99 -41q48 -32 48 -105q0 -76 -47 -118.5t-133 -42.5z" />
    <glyph glyph-name="uni0162" unicode="&#x162;" horiz-adv-x="471" 
d="M293 600v-600h-36v-46q77 0 77 -54q0 -37 -25 -51t-80 -14q-102 0 -102 63v10h64v-9q0 -27 37 -27q42 0 42 30t-46 30h-10v68h-35v600h-154v100h421v-100h-153z" />
    <glyph glyph-name="uni0163" unicode="&#x163;" horiz-adv-x="355" 
d="M321 506v-91h-109v-261q0 -36 13.5 -51t45.5 -15q27 0 50 9v-94q-32 -13 -71 -13q-19 0 -24 1v-37q77 0 77 -54q0 -37 -25 -51t-80 -14q-102 0 -102 63v10h64v-9q0 -27 37 -27q42 0 42 30t-46 30h-10v68q-81 28 -81 140v275h-78v91h81l8 134h99v-134h109z" />
    <glyph glyph-name="Tcaron" unicode="&#x164;" horiz-adv-x="471" 
d="M293 767h-116l-98 126h93l63 -63l63 63h93zM293 0h-114v600h-154v100h421v-100h-153v-600z" />
    <glyph glyph-name="tcaron" unicode="&#x165;" horiz-adv-x="354" 
d="M246 670v123h106v-112l-51 -135h-47l33 124h-41zM113 640h99v-134h109v-91h-109v-261q0 -36 13.5 -51t45.5 -15q27 0 50 9v-94q-32 -13 -71 -13q-148 0 -148 150v275h-78v91h81z" />
    <glyph glyph-name="Tbar" unicode="&#x166;" horiz-adv-x="471" 
d="M446 700v-100h-153v-193h100v-91h-100v-316h-114v316h-101v91h101v193h-154v100h421z" />
    <glyph glyph-name="tbar" unicode="&#x167;" horiz-adv-x="355" 
d="M321 506v-91h-109v-111h85v-76h-85v-74q0 -36 13.5 -51t45.5 -15q27 0 50 9v-94q-32 -13 -71 -13q-148 0 -148 150v88h-67v76h67v111h-78v91h81l8 134h99v-134h109z" />
    <glyph glyph-name="Utilde" unicode="&#x168;" horiz-adv-x="517" 
d="M155 761l-58 34q43 99 106 99q33 0 68 -28q26 -19 42 -19q25 0 48 51l58 -33q-43 -99 -106 -99q-31 0 -69 27q-25 19 -41 19q-27 0 -48 -51zM55 189v511h114v-518q0 -92 91 -92q92 0 92 92v518h110v-511q0 -96 -52.5 -147.5t-151.5 -51.5t-151 51.5t-52 147.5z" />
    <glyph glyph-name="utilde" unicode="&#x169;" horiz-adv-x="490" 
d="M190 628q-27 0 -48 -51l-58 34q44 99 106 99q33 0 68 -28q26 -19 42 -19q26 0 48 51l58 -33q-44 -99 -106 -99q-32 0 -69 27q-25 19 -41 19zM323 197v309h110v-506h-96l-2 88q-33 -98 -142 -98q-140 0 -140 168v348h110v-330q0 -48 16.5 -69.5t54.5 -21.5q89 0 89 112z
" />
    <glyph glyph-name="Umacron" unicode="&#x16a;" horiz-adv-x="517" 
d="M397 788h-278v84h278v-84zM55 189v511h114v-518q0 -92 91 -92q92 0 92 92v518h110v-511q0 -96 -52.5 -147.5t-151.5 -51.5t-151 51.5t-52 147.5z" />
    <glyph glyph-name="umacron" unicode="&#x16b;" horiz-adv-x="490" 
d="M106 688h278v-84h-278v84zM323 197v309h110v-506h-96l-2 88q-33 -98 -142 -98q-140 0 -140 168v348h110v-330q0 -48 16.5 -69.5t54.5 -21.5q89 0 89 112z" />
    <glyph glyph-name="Ubreve" unicode="&#x16c;" horiz-adv-x="517" 
d="M258 764q-63 0 -100 34.5t-39 94.5h70q8 -53 69 -53q63 0 72 53h68q-2 -59 -39 -94t-101 -35zM55 189v511h114v-518q0 -92 91 -92q92 0 92 92v518h110v-511q0 -96 -52.5 -147.5t-151.5 -51.5t-151 51.5t-52 147.5z" />
    <glyph glyph-name="ubreve" unicode="&#x16d;" horiz-adv-x="490" 
d="M245 580q-63 0 -100 34.5t-39 94.5h70q8 -53 69 -53q63 0 72 53h68q-2 -59 -39 -94t-101 -35zM323 197v309h110v-506h-96l-2 88q-33 -98 -142 -98q-140 0 -140 168v348h110v-330q0 -48 16.5 -69.5t54.5 -21.5q89 0 89 112z" />
    <glyph glyph-name="Uring" unicode="&#x16e;" horiz-adv-x="517" 
d="M153 864q0 45 30 75t75 30t75 -30t30 -75q0 -43 -30 -73.5t-75 -30.5t-75 30.5t-30 73.5zM226 831q13 -13 32 -13t31 13q13 13 13 33t-13 33q-12 14 -31 14t-32 -14q-12 -13 -12 -33t12 -33zM55 189v511h114v-518q0 -92 91 -92q92 0 92 92v518h110v-511
q0 -96 -52.5 -147.5t-151.5 -51.5t-151 51.5t-52 147.5z" />
    <glyph glyph-name="uring" unicode="&#x16f;" horiz-adv-x="490" 
d="M140 680q0 45 30 75t75 30t75 -30t30 -75q0 -43 -30 -73.5t-75 -30.5t-75 30.5t-30 73.5zM276 713q-12 14 -31 14t-32 -14q-12 -13 -12 -33t12 -33q13 -13 32 -13t31 13q13 13 13 33t-13 33zM323 197v309h110v-506h-96l-2 88q-33 -98 -142 -98q-140 0 -140 168v348h110
v-330q0 -48 16.5 -69.5t54.5 -21.5q89 0 89 112z" />
    <glyph glyph-name="Uhungarumlaut" unicode="&#x170;" horiz-adv-x="517" 
d="M198 767h-89l89 126h126zM367 767h-89l89 126h126zM55 189v511h114v-518q0 -92 91 -92q92 0 92 92v518h110v-511q0 -96 -52.5 -147.5t-151.5 -51.5t-151 51.5t-52 147.5z" />
    <glyph glyph-name="uhungarumlaut" unicode="&#x171;" horiz-adv-x="490" 
d="M185 709h126l-126 -126h-89zM480 709l-126 -126h-89l89 126h126zM323 197v309h110v-506h-96l-2 88q-33 -98 -142 -98q-140 0 -140 168v348h110v-330q0 -48 16.5 -69.5t54.5 -21.5q89 0 89 112z" />
    <glyph glyph-name="Uogonek" unicode="&#x172;" horiz-adv-x="517" 
d="M352 182v518h110v-511q0 -152 -127 -189q-40 -28 -40 -65q0 -36 47 -36q23 0 41 7v-59q-35 -12 -70 -12q-107 0 -107 69q0 50 58 86h-6q-99 0 -151 51.5t-52 147.5v511h114v-518q0 -92 91 -92q92 0 92 92z" />
    <glyph glyph-name="uogonek" unicode="&#x173;" horiz-adv-x="490" 
d="M412 -101q23 0 41 7v-59q-34 -12 -70 -12q-107 0 -107 69q0 58 77 96h-16l-2 88q-33 -98 -142 -98q-140 0 -140 168v348h110v-330q0 -48 16.5 -69.5t54.5 -21.5q89 0 89 112v309h110v-506h-25q-43 -28 -43 -65q0 -36 47 -36z" />
    <glyph glyph-name="Wcircumflex" unicode="&#x174;" horiz-adv-x="712" 
d="M294 767h-93l98 126h116l98 -126h-93l-63 63zM280 0h-149l-104 700h110l80 -557l87 557h115l88 -557l80 557h99l-104 -700h-140l-81 508z" />
    <glyph glyph-name="wcircumflex" unicode="&#x175;" horiz-adv-x="680" 
d="M277 583h-93l98 126h116l98 -126h-93l-63 63zM268 0h-138l-106 506h109l79 -388l76 388h114l77 -388l78 388h99l-105 -506h-132l-75 372z" />
    <glyph glyph-name="Ycircumflex" unicode="&#x176;" horiz-adv-x="507" 
d="M190 767h-93l98 126h116l98 -126h-93l-63 63zM310 0h-114v296l-175 404h123l114 -272l115 272h113l-176 -404v-296z" />
    <glyph glyph-name="ycircumflex" unicode="&#x177;" horiz-adv-x="461" 
d="M295 583l-63 63l-63 -63h-93l98 126h116l98 -126h-93zM242 145l91 361h106l-155 -550q-18 -64 -56 -92.5t-104 -28.5q-46 0 -74 14v94q26 -13 61 -13q51 0 67 49l4 13l-161 514h115z" />
    <glyph glyph-name="Ydieresis" unicode="&#x178;" horiz-adv-x="507" 
d="M223 767h-107v126h107v-126zM390 767h-107v126h107v-126zM310 0h-114v296l-175 404h123l114 -272l115 272h113l-176 -404v-296z" />
    <glyph glyph-name="Zacute" unicode="&#x179;" horiz-adv-x="466" 
d="M264 767h-93l89 126h131zM433 0h-402v97l276 503h-264v100h390v-97l-277 -503h277v-100z" />
    <glyph glyph-name="zacute" unicode="&#x17a;" horiz-adv-x="425" 
d="M243 583h-93l89 126h131zM391 0h-360v91l243 321h-230v94h347v-91l-243 -323h243v-92z" />
    <glyph glyph-name="Zdotaccent" unicode="&#x17b;" horiz-adv-x="466" 
d="M294 767h-110v126h110v-126zM433 0h-402v97l276 503h-264v100h390v-97l-277 -503h277v-100z" />
    <glyph glyph-name="zdotaccent" unicode="&#x17c;" horiz-adv-x="425" 
d="M273 583h-110v126h110v-126zM391 0h-360v91l243 321h-230v94h347v-91l-243 -323h243v-92z" />
    <glyph glyph-name="Zcaron" unicode="&#x17d;" horiz-adv-x="466" 
d="M296 767h-116l-98 126h93l63 -63l63 63h93zM433 0h-402v97l276 503h-264v100h390v-97l-277 -503h277v-100z" />
    <glyph glyph-name="zcaron" unicode="&#x17e;" horiz-adv-x="425" 
d="M275 583h-116l-98 126h93l63 -63l63 63h93zM391 0h-360v91l243 321h-230v94h347v-91l-243 -323h243v-92z" />
    <glyph glyph-name="florin" unicode="&#x192;" horiz-adv-x="508" 
d="M369 364v-1q109 -34 109 -149v-23q0 -135 -135 -160v-86h-71v80h-79v-80h-71v80h-91v100h53v450h-53v100h91v70h71v-70h79v70h71v-78q121 -27 121 -148v-15q0 -105 -95 -140zM267 575h-69v-171h52q52 0 76.5 17.5t24.5 57.5v25q0 71 -84 71zM365 201v26q0 42 -26 60.5
t-88 18.5h-53v-181h73q94 0 94 76z" />
    <glyph glyph-name="AEacute" unicode="&#x1fc;" horiz-adv-x="747" 
d="M398 893h131l-127 -126h-93zM715 700v-100h-256v-195h207v-100h-207v-205h256v-100h-370v136h-161l-50 -136h-112l266 700h427zM345 572l-125 -338h125v338z" />
    <glyph glyph-name="aeacute" unicode="&#x1fd;" horiz-adv-x="731" 
d="M388 709h131l-127 -126h-93zM505 516q87 0 135.5 -48.5t48.5 -137.5v-101h-275v-65q0 -40 22 -61.5t63 -21.5q85 0 85 84h105q-1 -82 -51.5 -128.5t-140.5 -46.5q-111 0 -161 68q-42 -68 -149 -68q-75 0 -115.5 35t-40.5 99q0 63 34.5 100.5t115.5 57.5q78 19 101 33
q22 13 22 39q0 71 -72 71q-77 0 -77 -78h-103q0 78 46 123.5t127 45.5q103 0 138 -68q42 68 142 68zM414 343v-34h168v34q0 82 -84 82t-84 -82zM208 81q45 0 70.5 28.5t25.5 84.5v51q-17 -15 -88 -35q-41 -11 -58 -27.5t-17 -43.5q0 -58 67 -58z" />
    <glyph glyph-name="Oslashacute" unicode="&#x1fe;" horiz-adv-x="512" 
d="M278 893h131l-127 -126h-93zM410 726l63 -35l-36 -69q26 -47 26 -111v-322q0 -95 -53.5 -147t-153.5 -52q-80 0 -129 33l-25 -49l-63 35l36 69q-26 47 -26 111v322q0 95 53.5 147t153.5 52q80 0 129 -33zM163 516v-267l170 328q-24 33 -77 33q-45 0 -69 -24t-24 -70z
M349 184v267l-170 -328q24 -33 77 -33q45 0 69 24t24 70z" />
    <glyph glyph-name="oslashacute" unicode="&#x1ff;" horiz-adv-x="470" 
d="M257 709h131l-127 -126h-93zM423 501l-31 -51q35 -47 35 -120v-154q0 -90 -50 -138t-142 -48q-65 0 -109 24l-24 -40l-55 34l30 49q-34 46 -34 119v154q0 89 50 137.5t142 48.5q64 0 108 -23l25 41zM153 338v-156l136 223q-19 16 -54 16q-40 0 -61 -21.5t-21 -61.5z
M235 85q40 0 61 21.5t21 60.5v160l-137 -225q20 -17 55 -17z" />
    <glyph glyph-name="uni0218" unicode="&#x218;" horiz-adv-x="477" 
d="M236 -10q-95 0 -147.5 50t-52.5 137v30h107v-30q0 -41 24.5 -65.5t67.5 -24.5t67.5 24.5t24.5 65.5q0 48 -25 73q-22 23 -104 62q-90 43 -125 90q-34 47 -34 122q0 85 53 135.5t148 50.5q94 0 145.5 -50t51.5 -138v-19h-108v18q0 43 -23 67.5t-66 24.5q-40 0 -63.5 -24
t-23.5 -63q0 -43 25 -68q26 -24 106 -62q91 -43 124 -91t33 -125q0 -88 -54 -139t-151 -51zM230 -236h-42l45 68h-50v110h110v-100z" />
    <glyph glyph-name="uni0219" unicode="&#x219;" horiz-adv-x="436" 
d="M222 -10q-89 0 -138.5 40.5t-49.5 112.5v16h105v-16q0 -65 78 -65q76 0 76 65q0 21 -16 34q-14 13 -29 18t-60 15q-74 16 -110.5 50.5t-36.5 101.5q0 72 46.5 113t129.5 41q80 0 127.5 -39.5t47.5 -106.5v-11h-104v10q0 58 -70 58q-32 0 -51 -15.5t-19 -43.5
q0 -29 22 -42.5t85 -28.5q61 -15 99 -41q48 -32 48 -105q0 -76 -47 -118.5t-133 -42.5zM211 -236h-42l45 68h-50v110h110v-100z" />
    <glyph glyph-name="uni021A" unicode="&#x21a;" horiz-adv-x="471" 
d="M293 0h-114v600h-154v100h421v-100h-153v-600zM228 -236h-42l45 68h-50v110h110v-100z" />
    <glyph glyph-name="uni021B" unicode="&#x21b;" horiz-adv-x="355" 
d="M321 506v-91h-109v-261q0 -36 13.5 -51t45.5 -15q27 0 50 9v-94q-32 -13 -71 -13q-148 0 -148 150v275h-78v91h81l8 134h99v-134h109zM200 -168h-50v110h110v-100l-63 -78h-42z" />
    <glyph glyph-name="uni0237" unicode="&#x237;" horiz-adv-x="225" 
d="M42 -165q-38 0 -63 13v90q21 -8 41 -8t28.5 10t8.5 33v533h110v-540q0 -131 -125 -131z" />
    <glyph glyph-name="uni02BC" unicode="&#x2bc;" horiz-adv-x="0" 
d="M1 453h-47l34 119h-43v128h110v-117z" />
    <glyph glyph-name="circumflex" unicode="&#x2c6;" horiz-adv-x="635" 
d="M255 583h-93l98 126h116l98 -126h-93l-63 63z" />
    <glyph glyph-name="caron" unicode="&#x2c7;" horiz-adv-x="635" 
d="M376 583h-116l-98 126h93l63 -63l63 63h93z" />
    <glyph glyph-name="uni02C9" unicode="&#x2c9;" horiz-adv-x="635" 
d="M457 604h-278v84h278v-84z" />
    <glyph glyph-name="breve" unicode="&#x2d8;" horiz-adv-x="635" 
d="M318 580q-63 0 -100 34.5t-39 94.5h70q8 -53 69 -53q63 0 72 53h68q-2 -59 -39 -94t-101 -35z" />
    <glyph glyph-name="dotaccent" unicode="&#x2d9;" horiz-adv-x="635" 
d="M374 583h-110v126h110v-126z" />
    <glyph glyph-name="ring" unicode="&#x2da;" horiz-adv-x="635" 
d="M213 680q0 45 30 75t75 30t75 -30t30 -75q0 -43 -30 -73.5t-75 -30.5t-75 30.5t-30 73.5zM286 647q13 -13 32 -13t31 13q13 13 13 33t-13 33q-12 14 -31 14t-32 -14q-12 -13 -12 -33t12 -33z" />
    <glyph glyph-name="ogonek" unicode="&#x2db;" horiz-adv-x="635" 
d="M337 -165q-107 0 -107 69q0 63 85 100h50q-46 -28 -46 -69q0 -36 47 -36q23 0 41 7v-59q-34 -12 -70 -12z" />
    <glyph glyph-name="tilde" unicode="&#x2dc;" horiz-adv-x="635" 
d="M215 577l-58 34q43 99 106 99q33 0 68 -28q26 -19 42 -19q25 0 48 51l58 -33q-43 -99 -106 -99q-31 0 -69 27q-25 19 -41 19q-27 0 -48 -51z" />
    <glyph glyph-name="hungarumlaut" unicode="&#x2dd;" horiz-adv-x="635" 
d="M258 583h-89l89 126h126zM427 583h-89l89 126h126z" />
    <glyph glyph-name="gravecomb" unicode="&#x300;" horiz-adv-x="0" 
d="M67 583h-93l-127 126h131z" />
    <glyph glyph-name="acutecomb" unicode="&#x301;" horiz-adv-x="0" 
d="M26 583h-93l89 126h131z" />
    <glyph glyph-name="uni0302" unicode="&#x302;" horiz-adv-x="0" 
d="M-63 583h-93l98 126h116l98 -126h-93l-63 63z" />
    <glyph glyph-name="tildecomb" unicode="&#x303;" horiz-adv-x="0" 
d="M-103 577l-58 34q43 99 106 99q33 0 68 -28q26 -19 42 -19q25 0 48 51l58 -33q-43 -99 -106 -99q-31 0 -69 27q-25 19 -41 19q-27 0 -48 -51z" />
    <glyph glyph-name="uni0304" unicode="&#x304;" horiz-adv-x="0" 
d="M139 604h-278v84h278v-84z" />
    <glyph glyph-name="uni0306" unicode="&#x306;" horiz-adv-x="0" 
d="M0 580q-63 0 -100 34.5t-39 94.5h70q8 -53 69 -53q63 0 72 53h68q-2 -59 -39 -94t-101 -35z" />
    <glyph glyph-name="uni0307" unicode="&#x307;" horiz-adv-x="0" 
d="M56 583h-111v126h111v-126z" />
    <glyph glyph-name="uni0308" unicode="&#x308;" horiz-adv-x="0" 
d="M-30 583h-107v126h107v-126zM137 583h-107v126h107v-126z" />
    <glyph glyph-name="uni030A" unicode="&#x30a;" horiz-adv-x="0" 
d="M-105 680q0 45 30 75t75 30t75 -30t30 -75q0 -43 -30 -73.5t-75 -30.5t-75 30.5t-30 73.5zM-31 647q12 -13 31 -13t31 13q13 13 13 33t-13 33q-12 14 -31 14t-31 -14q-13 -13 -13 -33t13 -33z" />
    <glyph glyph-name="uni030B" unicode="&#x30b;" horiz-adv-x="0" 
d="M-60 583h-89l89 126h126zM109 583h-89l89 126h126z" />
    <glyph glyph-name="uni030C" unicode="&#x30c;" horiz-adv-x="0" 
d="M58 583h-116l-98 126h93l63 -63l63 63h93z" />
    <glyph glyph-name="uni0312" unicode="&#x312;" horiz-adv-x="0" 
d="M55 583h-111v101l57 77h42l-39 -67h51v-111z" />
    <glyph glyph-name="uni0326" unicode="&#x326;" horiz-adv-x="0" 
d="M-7 -236h-42l45 68h-51v110h111v-100z" />
    <glyph glyph-name="uni0327" unicode="&#x327;" horiz-adv-x="0" 
d="M-6 -165q-102 0 -102 63v10h64v-9q0 -27 37 -27q42 0 42 30t-46 30h-10v79h43v-57q77 0 77 -54q0 -37 -25 -51t-80 -14z" />
    <glyph glyph-name="uni0328" unicode="&#x328;" horiz-adv-x="0" 
d="M19 -165q-107 0 -107 69q0 63 85 100h50q-46 -28 -46 -69q0 -36 47 -36q23 0 41 7v-59q-34 -12 -70 -12z" />
    <glyph glyph-name="uni0335" unicode="&#x335;" horiz-adv-x="0" 
d="M131 399h-262v91h262v-91z" />
    <glyph glyph-name="uni0336" unicode="&#x336;" horiz-adv-x="0" 
d="M260 398h-520v93h520v-93z" />
    <glyph glyph-name="uni0337" unicode="&#x337;" horiz-adv-x="0" 
d="M188 501l-321 -527l-55 34l321 526z" />
    <glyph glyph-name="uni0338" unicode="&#x338;" horiz-adv-x="0" 
d="M217 691l-371 -717l-63 35l371 717z" />
    <glyph glyph-name="uni0394" unicode="&#x394;" horiz-adv-x="514" 
d="M179 700h154l157 -700h-466zM252 581l-100 -483h201z" />
    <glyph glyph-name="uni03A9" unicode="&#x3a9;" horiz-adv-x="511" 
d="M233 0h-185v100h107v2q-58 48 -82.5 101t-24.5 133v175q0 95 53.5 147t153.5 52t153.5 -51.5t53.5 -147.5v-175q0 -80 -24.5 -133t-81.5 -101v-2h106v-100h-184v100q40 43 55 84q15 42 15 104v228q0 94 -93 94q-92 0 -92 -94v-228q0 -64 15 -105t55 -83v-100z" />
    <glyph glyph-name="uni03BC" unicode="&#x3bc;" horiz-adv-x="495" 
d="M328 197v309h110v-506h-96l-2 88q-33 -98 -142 -98q-5 0 -31 2v-147h-110v661h111v-330q0 -48 16.5 -69.5t54.5 -21.5q89 0 89 112z" />
    <glyph glyph-name="pi" unicode="&#x3c0;" horiz-adv-x="564" 
d="M212 0h-110v415h-78v91h516v-91h-78v-415h-110v415h-140v-415z" />
    <glyph glyph-name="uni0401" unicode="&#x401;" horiz-adv-x="463" 
d="M215 767h-107v126h107v-126zM382 767h-107v126h107v-126zM430 0h-370v700h370v-100h-256v-195h207v-100h-207v-205h256v-100z" />
    <glyph glyph-name="uni0404" unicode="&#x404;" horiz-adv-x="490" 
d="M455 512v-13h-107v17q0 47 -24 72t-69 25q-44 0 -68 -25t-24 -72v-102h156v-102h-156v-128q0 -47 24 -72t68 -25q45 0 69 25t24 72v38h107v-34q0 -95 -52.5 -146.5t-150.5 -51.5t-150.5 51.5t-52.5 146.5v324q0 95 52.5 146.5t150.5 51.5t150.5 -51.5t52.5 -146.5z" />
    <glyph glyph-name="uni0406" unicode="&#x406;" horiz-adv-x="234" 
d="M174 0h-114v700h114v-700z" />
    <glyph glyph-name="uni0407" unicode="&#x407;" horiz-adv-x="234" 
d="M87 767h-107v126h107v-126zM254 767h-107v126h107v-126zM174 0h-114v700h114v-700z" />
    <glyph glyph-name="uni0410" unicode="&#x410;" horiz-adv-x="514" 
d="M490 0h-117l-28 136h-185l-28 -136h-108l155 700h154zM252 581l-71 -346h143z" />
    <glyph glyph-name="uni0411" unicode="&#x411;" horiz-adv-x="504" 
d="M174 423h94q204 0 204 -195v-33q0 -195 -204 -195h-208v700h360v-100h-246v-177zM358 191v41q0 92 -90 92h-94v-224h94q47 0 68.5 22t21.5 69z" />
    <glyph glyph-name="uni0412" unicode="&#x412;" horiz-adv-x="516" 
d="M275 0h-215v700h202q203 0 203 -173v-13q0 -111 -95 -143v-3q109 -31 109 -164v-14q0 -97 -50 -143.5t-154 -46.5zM174 600v-190h72q55 0 80 21.5t25 68.5v13q0 46 -21.5 66.5t-70.5 20.5h-85zM174 310v-210h101q48 0 69 21t21 69v19q0 55 -25 78t-87 23h-79z" />
    <glyph glyph-name="uni0413" unicode="&#x413;" horiz-adv-x="431" 
d="M174 0h-114v700h346v-100h-232v-600z" />
    <glyph glyph-name="uni0414" unicode="&#x414;" horiz-adv-x="617" 
d="M526 700v-600h65v-194h-114v94h-337v-94h-114v194h70q30 28 33 94l24 506h373zM207 100h204v500h-151l-17 -400q-5 -66 -36 -100z" />
    <glyph glyph-name="uni0415" unicode="&#x415;" horiz-adv-x="463" 
d="M430 0h-370v700h370v-100h-256v-195h207v-100h-207v-205h256v-100z" />
    <glyph glyph-name="uni0416" unicode="&#x416;" horiz-adv-x="791" 
d="M768 0h-116l-130 349l-69 -108v-241h-114v239l-70 110l-129 -349h-116l169 436l-167 264h118l195 -319v319h114v-318l195 318h118l-167 -264z" />
    <glyph glyph-name="uni0417" unicode="&#x417;" horiz-adv-x="481" 
d="M237 -10q-203 0 -203 195v37h107v-38q0 -94 93 -94q50 0 72 23.5t22 74.5v19q0 56 -25 81.5t-81 25.5h-50v100h54q99 0 99 96v13q0 42 -23.5 64.5t-67.5 22.5q-88 0 -88 -87v-24h-108v14q0 96 51 146.5t150 50.5q96 0 148 -48.5t52 -135.5v-13q0 -49 -27 -88t-76 -54v-2
q105 -33 105 -162v-19q0 -198 -204 -198z" />
    <glyph glyph-name="uni0418" unicode="&#x418;" horiz-adv-x="545" 
d="M163 215l206 485h116v-700h-103v490l-206 -490h-116v700h103v-485z" />
    <glyph glyph-name="uni0419" unicode="&#x419;" horiz-adv-x="545" 
d="M272 764q-63 0 -100 34.5t-39 94.5h70q8 -53 69 -53q63 0 72 53h68q-2 -59 -39 -94t-101 -35zM163 215l206 485h116v-700h-103v490l-206 -490h-116v700h103v-485z" />
    <glyph glyph-name="uni041A" unicode="&#x41a;" horiz-adv-x="528" 
d="M505 0h-122l-134 333l-75 -109v-224h-114v700h114v-316l211 316h117l-175 -262z" />
    <glyph glyph-name="uni041B" unicode="&#x41b;" horiz-adv-x="587" 
d="M60 -1q-22 0 -35 4v98q24 -2 28 -2q43 0 59.5 20t18.5 70l24 511h372v-700h-114v600h-151l-18 -421q-4 -95 -47 -137.5t-137 -42.5z" />
    <glyph glyph-name="uni041C" unicode="&#x41c;" horiz-adv-x="677" 
d="M160 0h-100v700h162l117 -521l116 521h163v-700h-109v551l-127 -551h-95l-127 551v-551z" />
    <glyph glyph-name="uni041D" unicode="&#x41d;" horiz-adv-x="536" 
d="M174 0h-114v700h114v-295h189v295h114v-700h-114v305h-189v-305z" />
    <glyph glyph-name="uni041E" unicode="&#x41e;" horiz-adv-x="512" 
d="M49 189v322q0 95 53.5 147t153.5 52t153.5 -52t53.5 -147v-322q0 -95 -53.5 -147t-153.5 -52t-153.5 52t-53.5 147zM349 184v332q0 46 -24 70t-69 24t-69 -24t-24 -70v-332q0 -46 24 -70t69 -24t69 24t24 70z" />
    <glyph glyph-name="uni041F" unicode="&#x41f;" horiz-adv-x="536" 
d="M174 0h-114v700h416v-700h-114v600h-188v-600z" />
    <glyph glyph-name="uni0420" unicode="&#x420;" horiz-adv-x="494" 
d="M174 0h-114v700h198q104 0 154 -46.5t50 -143.5v-36q0 -98 -50 -144.5t-154 -46.5h-84v-283zM174 600v-217h84q48 0 69 21t21 70v36q0 48 -21 69t-69 21h-84z" />
    <glyph glyph-name="uni0421" unicode="&#x421;" horiz-adv-x="489" 
d="M250 -10q-96 0 -148.5 51.5t-52.5 146.5v324q0 95 52.5 146.5t148.5 51.5q97 0 149 -51.5t52 -146.5v-50h-108v54q0 47 -24 72t-67 25q-42 0 -65.5 -25t-23.5 -72v-332q0 -47 23.5 -72t65.5 -25q43 0 67 25t24 72v74h108v-70q0 -95 -52 -146.5t-149 -51.5z" />
    <glyph glyph-name="uni0422" unicode="&#x422;" horiz-adv-x="471" 
d="M293 0h-114v600h-154v100h421v-100h-153v-600z" />
    <glyph glyph-name="uni0423" unicode="&#x423;" horiz-adv-x="505" 
d="M131 -10q-44 0 -74 11v99q23 -10 60 -10q65 0 81 43l8 23l-180 544h120l119 -384l110 384h110l-175 -582q-20 -69 -61.5 -98.5t-117.5 -29.5z" />
    <glyph glyph-name="uni0424" unicode="&#x424;" horiz-adv-x="706" 
d="M410 0h-114v79h-38q-108 0 -164.5 53t-56.5 156v124q0 103 56.5 156t164.5 53h38v79h114v-79h38q107 0 163.5 -53t56.5 -156v-124q0 -103 -56.5 -156t-163.5 -53h-38v-79zM258 179h38v342h-38q-106 0 -106 -106v-130q0 -106 106 -106zM410 521v-342h38q106 0 106 106v130
q0 106 -106 106h-38z" />
    <glyph glyph-name="uni0425" unicode="&#x425;" horiz-adv-x="515" 
d="M133 0h-110l170 358l-163 342h123l110 -242l111 242h111l-163 -342l170 -358h-123l-117 260z" />
    <glyph glyph-name="uni0426" unicode="&#x426;" horiz-adv-x="576" 
d="M551 -94h-114v94h-377v700h114v-600h188v600h114v-600h75v-194z" />
    <glyph glyph-name="uni0427" unicode="&#x427;" horiz-adv-x="520" 
d="M347 468v232h114v-700h-114v301q-49 -55 -141 -55q-166 0 -166 188v266h114v-251q0 -99 87 -99q50 0 78 31.5t28 86.5z" />
    <glyph glyph-name="uni0428" unicode="&#x428;" horiz-adv-x="757" 
d="M697 0h-637v700h114v-600h147v600h114v-600h148v600h114v-700z" />
    <glyph glyph-name="uni0429" unicode="&#x429;" horiz-adv-x="796" 
d="M770 -94h-114v94h-596v700h114v-600h147v600h114v-600h148v600h114v-600h73v-194z" />
    <glyph glyph-name="uni042A" unicode="&#x42a;" horiz-adv-x="568" 
d="M332 0h-200v600h-107v100h221v-277h86q204 0 204 -195v-33q0 -195 -204 -195zM246 324v-224h86q47 0 68.5 22t21.5 69v41q0 92 -90 92h-86z" />
    <glyph glyph-name="uni042B" unicode="&#x42b;" horiz-adv-x="729" 
d="M260 0h-200v700h114v-277h86q204 0 204 -195v-33q0 -195 -204 -195zM670 0h-114v700h114v-700zM174 324v-224h86q47 0 68.5 22t21.5 69v41q0 92 -90 92h-86z" />
    <glyph glyph-name="uni042C" unicode="&#x42c;" horiz-adv-x="496" 
d="M260 0h-200v700h114v-277h86q204 0 204 -195v-33q0 -195 -204 -195zM174 324v-224h86q47 0 68.5 22t21.5 69v41q0 92 -90 92h-86z" />
    <glyph glyph-name="uni042D" unicode="&#x42d;" horiz-adv-x="490" 
d="M441 512v-324q0 -95 -52.5 -146.5t-150.5 -51.5t-150.5 51.5t-52.5 146.5v34h107v-38q0 -47 24 -72t69 -25q44 0 68 25t24 72v128h-156v102h156v102q0 47 -24 72t-68 25q-45 0 -69 -25t-24 -72v-17h-107v13q0 95 52.5 146.5t150.5 51.5t150.5 -51.5t52.5 -146.5z" />
    <glyph glyph-name="uni042E" unicode="&#x42e;" horiz-adv-x="750" 
d="M701 511v-322q0 -96 -53.5 -147.5t-153.5 -51.5t-153.5 52t-53.5 147v126h-113v-315h-114v700h114v-287h113v98q0 95 53.5 147t153.5 52t153.5 -51.5t53.5 -147.5zM587 184v332q0 46 -24 70t-69 24q-92 0 -92 -94v-332q0 -94 92 -94q45 0 69 24t24 70z" />
    <glyph glyph-name="uni042F" unicode="&#x42f;" horiz-adv-x="515" 
d="M455 700v-700h-114v293h-69q-59 0 -83 -23.5t-24 -80.5v-92q0 -62 -11 -97h-117q15 33 15 97v84q0 75 23.5 115t75.5 52v3q-98 32 -98 150v23q0 90 49.5 133t153.5 43h199zM271 392h70v208h-84q-47 0 -68.5 -21.5t-21.5 -68.5v-23q0 -49 25 -72t79 -23z" />
    <glyph glyph-name="uni0430" unicode="&#x430;" horiz-adv-x="469" 
d="M428 0h-101q-10 11 -11 89q-32 -99 -143 -99q-66 0 -104 35.5t-38 98.5t34.5 100.5t115.5 57.5q78 19 101 33q22 13 22 39q0 71 -72 71q-77 0 -77 -78h-103q0 81 47.5 125t134.5 44q94 0 137 -45.5t43 -139.5v-183q0 -95 14 -148zM208 81q45 0 70.5 28.5t25.5 84.5v51
q-17 -15 -88 -35q-41 -11 -58 -27.5t-17 -43.5q0 -58 67 -58z" />
    <glyph glyph-name="uni0431" unicode="&#x431;" horiz-adv-x="476" 
d="M291 489q142 0 142 -167v-146q0 -90 -50 -138t-142 -48t-141.5 48t-49.5 138v254q0 86 41 141q16 22 49 40q34 20 55 27l67 22q97 33 129 50v-108q-39 -19 -108 -37q-59 -16 -86 -32q-37 -21 -37 -71v-42q40 69 131 69zM323 167v137q0 48 -17 69.5t-56 21.5
q-90 0 -90 -112v-116q0 -39 21 -60.5t60 -21.5q40 0 61 21.5t21 60.5z" />
    <glyph glyph-name="uni0432" unicode="&#x432;" horiz-adv-x="494" 
d="M287 0h-230v506h220q168 0 168 -132v-4q0 -81 -64 -106v-2q78 -24 78 -116v-3q0 -143 -172 -143zM167 419v-119h96q38 0 55 14.5t17 45.5v4q0 30 -15.5 42.5t-49.5 12.5h-103zM167 214v-128h116q35 0 50.5 14.5t15.5 48.5v4q0 32 -19.5 46.5t-61.5 14.5h-101z" />
    <glyph glyph-name="uni0433" unicode="&#x433;" horiz-adv-x="379" 
d="M167 0h-110v506h298v-91h-188v-415z" />
    <glyph glyph-name="uni0434" unicode="&#x434;" horiz-adv-x="570" 
d="M485 506v-414h60v-186h-110v94h-300v-94h-110v186h69q26 20 30 82l21 332h340zM196 92h179v323h-127l-15 -234q-4 -66 -37 -89z" />
    <glyph glyph-name="uni0435" unicode="&#x435;" horiz-adv-x="470" 
d="M429 330v-101h-276v-65q0 -83 85 -83t85 84h106q-2 -82 -53 -128.5t-140 -46.5q-93 0 -143 48.5t-50 137.5v154q0 89 50 137.5t143 48.5t143 -48t50 -138zM153 343v-34h168v34q0 82 -84 82t-84 -82z" />
    <glyph glyph-name="uni0436" unicode="&#x436;" horiz-adv-x="731" 
d="M711 0h-119l-106 241l-65 -85v-156h-110v156l-66 85l-106 -241h-118l150 317l-142 189h116l166 -221v221h110v-221l165 221h117l-143 -189z" />
    <glyph glyph-name="uni0437" unicode="&#x437;" horiz-adv-x="443" 
d="M32 139v26h104v-13q0 -64 80 -64t80 67v3q0 33 -22.5 47t-71.5 14h-43v88h46q46 0 67 12t21 40q0 59 -77 59q-76 0 -76 -57v-2h-104v8q0 71 48 110t136 39q87 0 134.5 -36t48.5 -102q-1 -83 -78 -109v-2q81 -26 81 -118v-3q0 -75 -48.5 -115.5t-138.5 -40.5t-138.5 38.5
t-48.5 110.5z" />
    <glyph glyph-name="uni0438" unicode="&#x438;" horiz-adv-x="504" 
d="M159 162l175 344h112v-506h-101v342l-175 -342h-113v506h102v-344z" />
    <glyph glyph-name="uni0439" unicode="&#x439;" horiz-adv-x="504" 
d="M252 580q-63 0 -100 34.5t-39 94.5h70q8 -53 69 -53q63 0 72 53h68q-2 -59 -39 -94t-101 -35zM159 162l175 344h112v-506h-101v342l-175 -342h-113v506h102v-344z" />
    <glyph glyph-name="uni043A" unicode="&#x43a;" horiz-adv-x="494" 
d="M474 0h-122l-116 230l-69 -86v-144h-110v506h110v-225l175 225h124l-153 -189z" />
    <glyph glyph-name="uni043B" unicode="&#x43b;" horiz-adv-x="543" 
d="M75 -4q-37 0 -50 6v93q20 -4 36 -4q31 0 46 17.5t17 56.5l22 341h339v-506h-110v415h-125l-17 -266q-5 -76 -42.5 -114.5t-115.5 -38.5z" />
    <glyph glyph-name="uni043C" unicode="&#x43c;" horiz-adv-x="672" 
d="M335 144l125 362h155v-506h-107v391l-135 -391h-82l-136 391v-391h-98v506h153z" />
    <glyph glyph-name="uni043D" unicode="&#x43d;" horiz-adv-x="501" 
d="M334 310v196h110v-506h-110v219h-167v-219h-110v506h110v-196h167z" />
    <glyph glyph-name="uni043E" unicode="&#x43e;" horiz-adv-x="470" 
d="M43 176v154q0 89 50 137.5t142 48.5t142 -48.5t50 -137.5v-154q0 -90 -50 -138t-142 -48t-142 48t-50 138zM317 167v171q0 40 -21 61.5t-61 21.5t-61 -21.5t-21 -61.5v-171q0 -39 21 -60.5t61 -21.5t61 21.5t21 60.5z" />
    <glyph glyph-name="uni043F" unicode="&#x43f;" horiz-adv-x="495" 
d="M57 506h380v-506h-110v415h-160v-415h-110v506z" />
    <glyph glyph-name="uni0440" unicode="&#x440;" horiz-adv-x="488" 
d="M299 516q142 0 142 -168v-190q0 -168 -142 -168q-93 0 -132 71v-216h-110v661h96l2 -88q35 98 144 98zM331 176v154q0 48 -17 69.5t-56 21.5q-91 0 -91 -112v-112q0 -112 91 -112q39 0 56 21.5t17 69.5z" />
    <glyph glyph-name="uni0441" unicode="&#x441;" horiz-adv-x="457" 
d="M234 -11q-91 0 -140.5 48.5t-49.5 137.5v155q0 89 49.5 137.5t140.5 48.5t138 -48t48 -136v-11h-106v18q0 82 -80 82q-38 0 -59 -21.5t-21 -60.5v-173q0 -81 80 -81t80 81v29h106v-20q0 -89 -47.5 -137.5t-138.5 -48.5z" />
    <glyph glyph-name="uni0442" unicode="&#x442;" horiz-adv-x="455" 
d="M282 0h-110v415h-148v91h406v-91h-148v-415z" />
    <glyph glyph-name="uni0443" unicode="&#x443;" horiz-adv-x="461" 
d="M242 145l91 361h106l-155 -550q-18 -64 -56 -92.5t-104 -28.5q-46 0 -74 14v94q26 -13 61 -13q51 0 67 49l4 13l-161 514h115z" />
    <glyph glyph-name="uni0444" unicode="&#x444;" horiz-adv-x="640" 
d="M375 -155h-110v155h-21q-98 0 -150.5 47.5t-52.5 136.5v138q0 89 52.5 136.5t150.5 47.5h21v194h110v-194h21q99 0 151 -47.5t52 -136.5v-138q0 -89 -52 -136.5t-151 -47.5h-21v-155zM244 90h21v326h-21q-48 0 -70.5 -21.5t-22.5 -67.5v-148q0 -46 22.5 -67.5t70.5 -21.5
zM375 416v-326h21q48 0 70.5 21.5t22.5 67.5v148q0 46 -22.5 67.5t-70.5 21.5h-21z" />
    <glyph glyph-name="uni0445" unicode="&#x445;" horiz-adv-x="473" 
d="M129 0h-108l152 260l-145 246h120l93 -165l95 165h109l-146 -246l154 -260h-120l-102 181z" />
    <glyph glyph-name="uni0446" unicode="&#x446;" horiz-adv-x="532" 
d="M507 -94h-110v94h-340v506h110v-416h160v416h110v-416h70v-184z" />
    <glyph glyph-name="uni0447" unicode="&#x447;" horiz-adv-x="474" 
d="M307 381v125h110v-506h-110v238q-40 -64 -126 -64q-70 0 -107 42.5t-37 125.5v164h110v-146q0 -48 17 -69.5t55 -21.5q88 0 88 112z" />
    <glyph glyph-name="uni0448" unicode="&#x448;" horiz-adv-x="736" 
d="M679 0h-622v506h110v-416h146v416h110v-416h146v416h110v-506z" />
    <glyph glyph-name="uni0449" unicode="&#x449;" horiz-adv-x="773" 
d="M748 -94h-110v94h-581v506h110v-416h146v416h110v-416h146v416h110v-416h69v-184z" />
    <glyph glyph-name="uni044A" unicode="&#x44a;" horiz-adv-x="571" 
d="M252 333h99q190 0 190 -166q0 -167 -190 -167h-209v415h-118v91h228v-173zM252 90h96q83 0 83 77q0 76 -83 76h-96v-153z" />
    <glyph glyph-name="uni044B" unicode="&#x44b;" horiz-adv-x="711" 
d="M267 0h-210v506h110v-173h100q190 0 190 -166q0 -167 -190 -167zM653 0h-110v506h110v-506zM167 243v-153h96q84 0 84 77q0 76 -84 76h-96z" />
    <glyph glyph-name="uni044C" unicode="&#x44c;" horiz-adv-x="486" 
d="M267 0h-210v506h110v-173h100q190 0 190 -166q0 -167 -190 -167zM167 243v-153h96q84 0 84 77q0 76 -84 76h-96z" />
    <glyph glyph-name="uni044D" unicode="&#x44d;" horiz-adv-x="461" 
d="M224 -10q-90 0 -139.5 45.5t-52.5 129.5h106q2 -84 84 -84q85 0 85 83v53h-143v80h143v46q0 82 -83 82q-80 0 -84 -73h-107q6 79 55 121.5t136 42.5q93 0 143 -48t50 -138v-154q0 -90 -50 -138t-143 -48z" />
    <glyph glyph-name="uni044E" unicode="&#x44e;" horiz-adv-x="712" 
d="M668 330v-154q0 -90 -49.5 -138t-141.5 -48t-142 48t-50 138v43h-118v-219h-110v506h110v-197h118v21q0 89 50 137.5t142 48.5t141.5 -48.5t49.5 -137.5zM558 167v171q0 83 -81 83q-40 0 -61 -21.5t-21 -61.5v-171q0 -39 21 -60.5t61 -21.5q39 0 60 21.5t21 60.5z" />
    <glyph glyph-name="uni044F" unicode="&#x44f;" horiz-adv-x="505" 
d="M147 0h-112q14 28 14 66v47q0 60 18 89.5t62 38.5v1q-79 22 -79 120v4q0 73 43.5 106.5t137.5 33.5h216v-506h-110v189h-89q-50 0 -69.5 -15.5t-19.5 -54.5v-50q0 -42 -12 -69zM250 282h87v130h-98q-42 0 -60.5 -14.5t-18.5 -48.5v-4q0 -33 21.5 -48t68.5 -15z" />
    <glyph glyph-name="uni0451" unicode="&#x451;" horiz-adv-x="470" 
d="M99 709h107v-126h-107v126zM266 709h107v-126h-107v126zM429 330v-101h-276v-65q0 -83 85 -83t85 84h106q-2 -82 -53 -128.5t-140 -46.5q-93 0 -143 48.5t-50 137.5v154q0 89 50 137.5t143 48.5t143 -48t50 -138zM153 343v-34h168v34q0 82 -84 82t-84 -82z" />
    <glyph glyph-name="uni0454" unicode="&#x454;" horiz-adv-x="461" 
d="M237 -10q-93 0 -143 48t-50 138v154q0 90 50 138t143 48q87 0 136 -42.5t55 -121.5h-107q-4 73 -84 73q-83 0 -83 -82v-46h143v-80h-143v-53q0 -83 85 -83q83 0 84 84h106q-3 -84 -52.5 -129.5t-139.5 -45.5z" />
    <glyph glyph-name="uni0456" unicode="&#x456;" horiz-adv-x="225" 
d="M168 583h-110v126h110v-126zM167 0h-110v506h110v-506z" />
    <glyph glyph-name="uni0457" unicode="&#x457;" horiz-adv-x="225" 
d="M82 583h-107v126h107v-126zM249 583h-107v126h107v-126zM167 0h-110v506h110v-506z" />
    <glyph glyph-name="uni0490" unicode="&#x490;" horiz-adv-x="431" 
d="M292 700v94h114v-194h-232v-600h-114v700h232z" />
    <glyph glyph-name="uni0491" unicode="&#x491;" horiz-adv-x="379" 
d="M245 508v94h110v-187h-188v-415h-110v506h190z" />
    <glyph glyph-name="uni1E02" unicode="&#x1e02;" horiz-adv-x="516" 
d="M300 767h-110v126h110v-126zM275 0h-215v700h202q203 0 203 -173v-13q0 -111 -95 -143v-3q109 -31 109 -164v-14q0 -97 -50 -143.5t-154 -46.5zM174 600v-190h72q55 0 80 21.5t25 68.5v13q0 46 -21.5 66.5t-70.5 20.5h-85zM174 310v-210h101q48 0 69 21t21 69v19
q0 55 -25 78t-87 23h-79z" />
    <glyph glyph-name="uni1E03" unicode="&#x1e03;" horiz-adv-x="488" 
d="M58 893h110v-126h-110v126zM299 516q142 0 142 -168v-190q0 -168 -142 -168q-109 0 -144 98l-18 -88h-80v700h110v-256q39 72 132 72zM331 176v154q0 48 -17 69.5t-56 21.5q-91 0 -91 -112v-112q0 -112 91 -112q39 0 56 21.5t17 69.5z" />
    <glyph glyph-name="uni1E0A" unicode="&#x1e0a;" horiz-adv-x="518" 
d="M304 767h-110v126h110v-126zM266 0h-206v700h206q204 0 204 -195v-310q0 -195 -204 -195zM174 600v-500h90q49 0 70.5 22t21.5 71v314q0 49 -21.5 71t-70.5 22h-90z" />
    <glyph glyph-name="uni1E0B" unicode="&#x1e0b;" horiz-adv-x="490" 
d="M321 886h110v-126h-110v126zM445 0h-102q-8 10 -11 87q-33 -97 -143 -97q-142 0 -142 168v190q0 168 142 168q93 0 132 -72v256h110v-552q0 -101 14 -148zM230 85q91 0 91 112v112q0 112 -91 112q-39 0 -56 -21.5t-17 -69.5v-154q0 -48 17 -69.5t56 -21.5z" />
    <glyph glyph-name="uni1E1E" unicode="&#x1e1e;" horiz-adv-x="444" 
d="M294 767h-110v126h110v-126zM174 0h-114v700h359v-100h-245v-200h195v-100h-195v-300z" />
    <glyph glyph-name="uni1E1F" unicode="&#x1e1f;" horiz-adv-x="346" 
d="M147 893h110v-126h-110v126zM271 612q-32 0 -45.5 -15t-13.5 -50v-41h109v-91h-109v-415h-110v415h-78v91h78v54q0 150 148 150q39 0 71 -13v-94q-23 9 -50 9z" />
    <glyph glyph-name="uni1E40" unicode="&#x1e40;" horiz-adv-x="677" 
d="M395 767h-110v126h110v-126zM160 0h-100v700h162l117 -521l116 521h163v-700h-109v551l-127 -551h-95l-127 551v-551z" />
    <glyph glyph-name="uni1E41" unicode="&#x1e41;" horiz-adv-x="748" 
d="M320 709h110v-126h-110v126zM558 516q68 0 103 -43t35 -125v-348h-110v330q0 91 -70 91q-84 0 -84 -112v-309h-110v330q0 91 -69 91q-86 0 -86 -112v-309h-110v506h96l2 -87q33 97 139 97q99 0 128 -92q33 92 136 92z" />
    <glyph glyph-name="uni1E56" unicode="&#x1e56;" horiz-adv-x="494" 
d="M301 767h-110v126h110v-126zM174 0h-114v700h198q104 0 154 -46.5t50 -143.5v-36q0 -98 -50 -144.5t-154 -46.5h-84v-283zM174 600v-217h84q48 0 69 21t21 70v36q0 48 -21 69t-69 21h-84z" />
    <glyph glyph-name="uni1E57" unicode="&#x1e57;" horiz-adv-x="488" 
d="M195 709h110v-126h-110v126zM299 516q142 0 142 -168v-190q0 -168 -142 -168q-93 0 -132 71v-216h-110v661h96l2 -88q35 98 144 98zM331 176v154q0 48 -17 69.5t-56 21.5q-91 0 -91 -112v-112q0 -112 91 -112q39 0 56 21.5t17 69.5z" />
    <glyph glyph-name="uni1E60" unicode="&#x1e60;" horiz-adv-x="477" 
d="M293 767h-110v126h110v-126zM236 -10q-95 0 -147.5 50t-52.5 137v30h107v-30q0 -41 24.5 -65.5t67.5 -24.5t67.5 24.5t24.5 65.5q0 48 -25 73q-22 23 -104 62q-90 43 -125 90q-34 47 -34 122q0 85 53 135.5t148 50.5q94 0 145.5 -50t51.5 -138v-19h-108v18q0 43 -23 67.5
t-66 24.5q-40 0 -63.5 -24t-23.5 -63q0 -43 25 -68q26 -24 106 -62q91 -43 124 -91t33 -125q0 -88 -54 -139t-151 -51z" />
    <glyph glyph-name="uni1E61" unicode="&#x1e61;" horiz-adv-x="436" 
d="M270 583h-110v126h110v-126zM222 -10q-89 0 -138.5 40.5t-49.5 112.5v16h105v-16q0 -65 78 -65q76 0 76 65q0 21 -16 34q-14 13 -29 18t-60 15q-74 16 -110.5 50.5t-36.5 101.5q0 72 46.5 113t129.5 41q80 0 127.5 -39.5t47.5 -106.5v-11h-104v10q0 58 -70 58
q-32 0 -51 -15.5t-19 -43.5q0 -29 22 -42.5t85 -28.5q61 -15 99 -41q48 -32 48 -105q0 -76 -47 -118.5t-133 -42.5z" />
    <glyph glyph-name="uni1E6A" unicode="&#x1e6a;" horiz-adv-x="471" 
d="M291 767h-110v126h110v-126zM293 0h-114v600h-154v100h421v-100h-153v-600z" />
    <glyph glyph-name="uni1E6B" unicode="&#x1e6b;" horiz-adv-x="355" 
d="M106 833h110v-126h-110v126zM321 506v-91h-109v-261q0 -36 13.5 -51t45.5 -15q27 0 50 9v-94q-32 -13 -71 -13q-148 0 -148 150v275h-78v91h81l8 134h99v-134h109z" />
    <glyph glyph-name="Wgrave" unicode="&#x1e80;" horiz-adv-x="712" 
d="M424 767h-93l-127 126h131zM280 0h-149l-104 700h110l80 -557l87 557h115l88 -557l80 557h99l-104 -700h-140l-81 508z" />
    <glyph glyph-name="wgrave" unicode="&#x1e81;" horiz-adv-x="680" 
d="M407 583h-93l-127 126h131zM268 0h-138l-106 506h109l79 -388l76 388h114l77 -388l78 388h99l-105 -506h-132l-75 372z" />
    <glyph glyph-name="Wacute" unicode="&#x1e82;" horiz-adv-x="712" 
d="M383 767h-93l89 126h131zM280 0h-149l-104 700h110l80 -557l87 557h115l88 -557l80 557h99l-104 -700h-140l-81 508z" />
    <glyph glyph-name="wacute" unicode="&#x1e83;" horiz-adv-x="680" 
d="M366 583h-93l89 126h131zM268 0h-138l-106 506h109l79 -388l76 388h114l77 -388l78 388h99l-105 -506h-132l-75 372z" />
    <glyph glyph-name="Wdieresis" unicode="&#x1e84;" horiz-adv-x="712" 
d="M327 767h-107v126h107v-126zM494 767h-107v126h107v-126zM280 0h-149l-104 700h110l80 -557l87 557h115l88 -557l80 557h99l-104 -700h-140l-81 508z" />
    <glyph glyph-name="wdieresis" unicode="&#x1e85;" horiz-adv-x="680" 
d="M310 583h-107v126h107v-126zM477 583h-107v126h107v-126zM268 0h-138l-106 506h109l79 -388l76 388h114l77 -388l78 388h99l-105 -506h-132l-75 372z" />
    <glyph glyph-name="uni1E9E" unicode="&#x1e9e;" horiz-adv-x="522" 
d="M473 603l-115 -188q69 -15 98.5 -60.5t29.5 -123.5v-36q0 -195 -204 -195h-37v100h37q46 0 68 19.5t22 65.5v53q0 46 -21 65.5t-69 19.5h-36v95l107 182h-179v-600h-114v700h413v-97z" />
    <glyph glyph-name="Ygrave" unicode="&#x1ef2;" horiz-adv-x="507" 
d="M320 767h-93l-127 126h131zM310 0h-114v296l-175 404h123l114 -272l115 272h113l-176 -404v-296z" />
    <glyph glyph-name="ygrave" unicode="&#x1ef3;" horiz-adv-x="461" 
d="M210 709l89 -126h-93l-127 126h131zM242 145l91 361h106l-155 -550q-18 -64 -56 -92.5t-104 -28.5q-46 0 -74 14v94q26 -13 61 -13q51 0 67 49l4 13l-161 514h115z" />
    <glyph glyph-name="uni2002" unicode="&#x2002;" horiz-adv-x="400" 
 />
    <glyph glyph-name="uni2003" unicode="&#x2003;" horiz-adv-x="600" 
 />
    <glyph glyph-name="uni2007" unicode="&#x2007;" horiz-adv-x="508" 
 />
    <glyph glyph-name="uni2008" unicode="&#x2008;" horiz-adv-x="241" 
 />
    <glyph glyph-name="uni200B" unicode="&#x200b;" horiz-adv-x="0" 
 />
    <glyph glyph-name="figuredash" unicode="&#x2012;" horiz-adv-x="508" 
d="M508 258h-508v84h508v-84z" />
    <glyph glyph-name="endash" unicode="&#x2013;" horiz-adv-x="400" 
d="M400 258h-400v84h400v-84z" />
    <glyph glyph-name="emdash" unicode="&#x2014;" horiz-adv-x="600" 
d="M600 258h-600v84h600v-84z" />
    <glyph glyph-name="quoteleft" unicode="&#x2018;" horiz-adv-x="241" 
d="M132 700h52l-46 -112h39v-126h-114v115z" />
    <glyph glyph-name="quoteright" unicode="&#x2019;" horiz-adv-x="241" 
d="M109 462h-53l47 112h-40v126h114v-114z" />
    <glyph glyph-name="quotesinglbase" unicode="&#x201a;" horiz-adv-x="240" 
d="M109 -112h-53l47 112h-40v126h114v-115z" />
    <glyph glyph-name="quotedblleft" unicode="&#x201c;" horiz-adv-x="411" 
d="M132 700h52l-46 -112h39v-126h-114v115zM302 700h52l-46 -112h40v-126h-115v115z" />
    <glyph glyph-name="quotedblright" unicode="&#x201d;" horiz-adv-x="410" 
d="M109 462h-53l47 112h-40v126h114v-114zM279 462h-53l47 112h-40v126h114v-114z" />
    <glyph glyph-name="quotedblbase" unicode="&#x201e;" horiz-adv-x="410" 
d="M109 -112h-53l47 112h-40v126h114v-115zM279 -112h-53l47 112h-40v126h114v-115z" />
    <glyph glyph-name="dagger" unicode="&#x2020;" horiz-adv-x="525" 
d="M315 -97h-104v513h-174v99h174v185h104v-185h173v-99h-173v-513z" />
    <glyph glyph-name="daggerdbl" unicode="&#x2021;" horiz-adv-x="541" 
d="M322 -97h-104v184h-173v98h173v232h-173v98h173v185h104v-185h174v-98h-174v-232h174v-98h-174v-184z" />
    <glyph glyph-name="bullet" unicode="&#x2022;" horiz-adv-x="400" 
d="M273 227q-29 -29 -72 -29q-42 0 -73 29q-29 29 -29 73t29 73q31 29 73 29q43 0 72 -30q29 -29 29 -72q0 -42 -29 -73z" />
    <glyph glyph-name="ellipsis" unicode="&#x2026;" horiz-adv-x="635" 
d="M163 0h-114v126h114v-126zM375 0h-114v126h114v-126zM587 0h-114v126h114v-126z" />
    <glyph glyph-name="perthousand" unicode="&#x2030;" horiz-adv-x="1033" 
d="M32 438v145q0 61 34 94t98 33t98 -33t34 -94v-145q0 -61 -34 -94t-98 -33t-98 33t-34 94zM224 0h-76l346 700h75zM164 375q57 0 57 58v155q0 58 -57 58q-56 0 -56 -58v-155q0 -58 56 -58zM422 117v145q0 61 34 94t98 33t98 -33t34 -94v-145q0 -61 -34 -94t-98 -33t-98 33
t-34 94zM736 117v145q0 61 34 94t98 33t98.5 -33t34.5 -94v-145q0 -61 -34.5 -94t-98.5 -33t-98 33t-34 94zM610 112v155q0 58 -56 58t-56 -58v-155q0 -58 56 -58t56 58zM868 54q57 0 57 58v155q0 58 -57 58q-56 0 -56 -58v-155q0 -58 56 -58z" />
    <glyph glyph-name="guilsinglleft" unicode="&#x2039;" horiz-adv-x="237" 
d="M203 164h-83l-88 137l88 132h83l-67 -132z" />
    <glyph glyph-name="guilsinglright" unicode="&#x203a;" horiz-adv-x="237" 
d="M118 164h-84l67 137l-67 132h84l88 -132z" />
    <glyph glyph-name="fraction" unicode="&#x2044;" horiz-adv-x="113" 
d="M-78 0h-75l345 700h75z" />
    <glyph glyph-name="uni2070" unicode="&#x2070;" 
d="M42 470v212q0 61 35 95t97 34t97 -34t35 -95v-212q0 -61 -35 -95t-97 -34t-97 34t-35 95zM225 465v222q0 26 -13.5 40.5t-37.5 14.5t-37.5 -14.5t-13.5 -40.5v-222q0 -26 13.5 -40.5t37.5 -14.5t37.5 14.5t13.5 40.5z" />
    <glyph glyph-name="uni2074" unicode="&#x2074;" 
d="M286 351h-81v78h-186v70l177 302h90v-302h45v-70h-45v-78zM205 691l-110 -192h110v192z" />
    <glyph glyph-name="uni2075" unicode="&#x2075;" 
d="M47 468v19h77v-23q0 -54 49 -54t49 54v77q0 56 -45 56t-54 -51h-74l15 255h226v-69h-158l-7 -101q26 35 79 35q47 0 73 -30.5t26 -86.5v-81q0 -61 -33 -94t-95 -33t-95 33t-33 94z" />
    <glyph glyph-name="uni2076" unicode="&#x2076;" 
d="M176 341q-61 0 -95.5 34t-34.5 95v208q0 64 33.5 98.5t96.5 34.5q61 0 94.5 -33.5t33.5 -90.5h-75q0 55 -51 55q-53 0 -53 -67v-72q25 40 83 40q47 0 73 -31.5t26 -87.5v-54q0 -61 -34.5 -95t-96.5 -34zM176 410q52 0 52 55v52q0 57 -50 57q-26 0 -39.5 -16.5
t-13.5 -41.5v-51q0 -26 13.5 -40.5t37.5 -14.5z" />
    <glyph glyph-name="uni2077" unicode="&#x2077;" 
d="M163 351h-86l145 379h-180v71h261v-68z" />
    <glyph glyph-name="uni2078" unicode="&#x2078;" 
d="M37 467v9q0 85 64 107v1q-60 22 -60 95v11q0 58 34 89.5t99 31.5t99 -31.5t34 -89.5v-11q0 -73 -60 -95v-1q64 -22 64 -107v-9q0 -126 -137 -126t-137 126zM228 673v12q0 55 -54 55t-54 -55v-12q0 -55 54 -55t54 55zM231 473v10q0 64 -57 64t-57 -64v-10q0 -61 57 -61
t57 61z" />
    <glyph glyph-name="uni2079" unicode="&#x2079;" 
d="M172 811q61 0 95.5 -34t34.5 -95v-208q0 -64 -33.5 -98.5t-96.5 -34.5q-61 0 -94.5 33.5t-33.5 90.5h75q0 -55 51 -55q53 0 53 67v72q-25 -40 -84 -40q-46 0 -72 31.5t-26 87.5v54q0 61 34.5 95t96.5 34zM172 742q-52 0 -52 -55v-52q0 -57 50 -57q25 0 39 16.5t14 41.5
v51q0 26 -13.5 40.5t-37.5 14.5z" />
    <glyph glyph-name="uni2080" unicode="&#x2080;" 
d="M42 54v212q0 61 35 95t97 34t97 -34t35 -95v-212q0 -61 -35 -95t-97 -34t-97 34t-35 95zM225 49v222q0 26 -13.5 40.5t-37.5 14.5t-37.5 -14.5t-13.5 -40.5v-222q0 -26 13.5 -40.5t37.5 -14.5t37.5 14.5t13.5 40.5z" />
    <glyph glyph-name="uni2081" unicode="&#x2081;" 
d="M238 -65h-81v339q-31 -7 -76 -8v55q41 0 61.5 14t33.5 50h62v-450z" />
    <glyph glyph-name="uni2082" unicode="&#x2082;" 
d="M295 -65h-247v55q0 49 21 86t72 78q48 39 65 62q18 24 18 57q0 53 -49 53q-23 0 -36.5 -15t-13.5 -42v-36h-76v34q0 57 34 92.5t94 35.5q59 0 93 -33.5t34 -88.5q0 -48 -25 -83q-25 -36 -90 -90q-37 -29 -49.5 -48t-12.5 -41v-7h168v-69z" />
    <glyph glyph-name="uni2083" unicode="&#x2083;" 
d="M170 -75q-62 0 -95 32.5t-33 94.5v24h76v-27q0 -55 50 -55q51 0 51 59v13q0 66 -61 66h-30v71h33q56 0 56 60v11q0 52 -48 52q-49 0 -49 -55v-14h-76v11q0 61 33.5 94t95.5 33q59 0 91.5 -31.5t32.5 -89.5v-9q0 -32 -16.5 -57.5t-45.5 -37.5v-1q64 -22 64 -103v-12
q0 -63 -33 -96t-96 -33z" />
    <glyph glyph-name="uni2084" unicode="&#x2084;" 
d="M286 -65h-81v78h-186v70l177 302h90v-302h45v-70h-45v-78zM205 275l-110 -192h110v192z" />
    <glyph glyph-name="uni2085" unicode="&#x2085;" 
d="M47 52v19h77v-23q0 -54 49 -54t49 54v77q0 56 -45 56t-54 -51h-74l15 255h226v-69h-158l-7 -101q26 35 79 35q47 0 73 -30.5t26 -86.5v-81q0 -61 -33 -94t-95 -33t-95 33t-33 94z" />
    <glyph glyph-name="uni2086" unicode="&#x2086;" 
d="M176 -75q-61 0 -95.5 34t-34.5 95v208q0 64 33.5 98.5t96.5 34.5q61 0 94.5 -33.5t33.5 -90.5h-75q0 55 -51 55q-53 0 -53 -67v-72q25 40 83 40q47 0 73 -31.5t26 -87.5v-54q0 -61 -34.5 -95t-96.5 -34zM176 -6q52 0 52 55v52q0 57 -50 57q-26 0 -39.5 -16.5t-13.5 -41.5
v-51q0 -26 13.5 -40.5t37.5 -14.5z" />
    <glyph glyph-name="uni2087" unicode="&#x2087;" 
d="M163 -65h-86l145 379h-180v71h261v-68z" />
    <glyph glyph-name="uni2088" unicode="&#x2088;" 
d="M37 51v9q0 85 64 107v1q-60 22 -60 95v11q0 58 34 89.5t99 31.5t99 -31.5t34 -89.5v-11q0 -73 -60 -95v-1q64 -22 64 -107v-9q0 -126 -137 -126t-137 126zM228 257v12q0 55 -54 55t-54 -55v-12q0 -55 54 -55t54 55zM231 57v10q0 64 -57 64t-57 -64v-10q0 -61 57 -61
t57 61z" />
    <glyph glyph-name="uni2089" unicode="&#x2089;" 
d="M172 395q61 0 95.5 -34t34.5 -95v-208q0 -64 -33.5 -98.5t-96.5 -34.5q-61 0 -94.5 33.5t-33.5 90.5h75q0 -55 51 -55q53 0 53 67v72q-25 -40 -84 -40q-46 0 -72 31.5t-26 87.5v54q0 61 34.5 95t96.5 34zM172 326q-52 0 -52 -55v-52q0 -57 50 -57q25 0 39 16.5t14 41.5
v51q0 26 -13.5 40.5t-37.5 14.5z" />
    <glyph glyph-name="Euro" unicode="&#x20ac;" horiz-adv-x="508" 
d="M273 -10q-98 0 -149 51t-51 147v88h-41v60h41v52h-41v61h41v63q0 96 51 147t149 51t148.5 -51t50.5 -147v-11h-107v15q0 94 -90 94q-88 0 -88 -94v-67h208v-61h-208v-52h208v-60h-208v-92q0 -94 88 -94q90 0 90 94v40h107v-36q0 -96 -50.5 -147t-148.5 -51z" />
    <glyph glyph-name="uni20B9" unicode="&#x20b9;" horiz-adv-x="508" 
d="M213 312h-25l286 -312h-139l-295 312v87h133q57 0 84 14.5t31 47.5h-248v89h248q-3 34 -30 48t-85 14h-133v88h431v-88h-119q39 -23 46 -62h73v-89h-70q-6 -68 -63 -109q-55 -40 -125 -40z" />
    <glyph glyph-name="uni20BD" unicode="&#x20bd;" horiz-adv-x="508" 
d="M96 700h179q104 0 154.5 -46.5t50.5 -143.5v-19q0 -97 -50.5 -144t-154.5 -47h-65v-69h140v-93h-140v-138h-114v138h-64v93h64v69h-64v100h64v300zM366 491v19q0 48 -21.5 69t-69.5 21h-65v-200h65q48 0 69.5 21t21.5 70z" />
    <glyph glyph-name="uni20BF" unicode="&#x20bf;" horiz-adv-x="508" 
d="M369 364v-1q109 -34 109 -149v-23q0 -135 -135 -160v-86h-71v80h-79v-80h-71v80h-91v100h53v450h-53v100h91v70h71v-70h79v70h71v-78q121 -27 121 -148v-15q0 -105 -95 -140zM267 575h-69v-171h52q52 0 76.5 17.5t24.5 57.5v25q0 71 -84 71zM365 201v26q0 42 -26 60.5
t-88 18.5h-53v-181h73q94 0 94 76z" />
    <glyph glyph-name="uni2113" unicode="&#x2113;" horiz-adv-x="298" 
d="M203 -9q-147 0 -147 149v560h110v-548q0 -35 13.5 -50.5t45.5 -15.5q24 0 50 8v-90q-29 -13 -72 -13z" />
    <glyph glyph-name="uni2116" unicode="&#x2116;" horiz-adv-x="825" 
d="M162 0h-102v700h143l127 -442v442h102v-700h-110l-160 538v-538zM512 423v107q0 62 35.5 96t100.5 34t100 -34t35 -96v-107q0 -63 -35 -97t-100 -34t-100.5 34t-35.5 97zM648 364q25 0 38.5 14t13.5 38v120q0 25 -13.5 39t-38.5 14q-52 0 -52 -53v-120q0 -52 52 -52z
M783 175h-271v54h271v-54z" />
    <glyph glyph-name="uni2117" unicode="&#x2117;" horiz-adv-x="769" 
d="M633 92q-99 -102 -249 -102t-249 102q-99 104 -99 258q0 155 99 257q99 103 249 103t249 -103q99 -102 99 -257q0 -154 -99 -258zM178 134q81 -84 206 -84t206 84q81 86 81 216q0 131 -81 215q-81 85 -206 85t-206 -85q-80 -85 -80 -215t80 -216zM354 131h-64v429h113
q117 0 117 -115v-21q0 -117 -117 -117h-49v-176zM354 503v-139h49q53 0 53 60v21q0 58 -53 58h-49z" />
    <glyph glyph-name="uni2120" unicode="&#x2120;" horiz-adv-x="755" 
d="M188 551q55 -17 76 -42t21 -66q0 -52 -32 -80t-93 -28q-127 0 -127 102v13h71v-12q0 -46 56 -46q51 0 51 48q0 21 -15.5 32t-61.5 26q-98 29 -98 105q0 50 32 78.5t89 28.5q122 0 122 -104h-71q0 22 -13.5 34.5t-36.5 12.5q-21 0 -34 -12.5t-13 -33.5q0 -20 15 -30.5
t62 -25.5zM521 456l74 244h109v-356h-72v276l-84 -276h-58l-85 276v-276h-66v356h106z" />
    <glyph glyph-name="trademark" unicode="&#x2122;" horiz-adv-x="764" 
d="M118 634h-98v66h272v-66h-98v-290h-76v290zM530 456l74 244h109v-356h-72v276l-85 -276h-57l-85 276v-276h-66v356h106z" />
    <glyph glyph-name="uni2126" unicode="&#x2126;" horiz-adv-x="511" 
d="M233 0h-185v100h107v2q-58 48 -82.5 101t-24.5 133v175q0 95 53.5 147t153.5 52t153.5 -51.5t53.5 -147.5v-175q0 -80 -24.5 -133t-81.5 -101v-2h106v-100h-184v100q40 43 55 84q15 42 15 104v228q0 94 -93 94q-92 0 -92 -94v-228q0 -64 15 -105t55 -83v-100z" />
    <glyph glyph-name="estimated" unicode="&#x212e;" horiz-adv-x="862" 
d="M434 -10q-157 0 -269 106q-111 107 -111 254q0 148 111 254q112 106 269 106q158 0 268 -106q112 -106 112 -254v-9h-613q-8 0 -8 -7v-193q0 -5 11 -21q36 -52 97.5 -80t134.5 -28q146 0 244 120h56q-54 -67 -133.5 -104.5t-168.5 -37.5zM201 361h469q7 0 7 7v196
q0 9 -12 22q-42 49 -102 75.5t-127 26.5q-126 0 -232 -106q-11 -11 -11 -22v-192q0 -7 8 -7z" />
    <glyph glyph-name="uni2153" unicode="&#x2153;" horiz-adv-x="809" 
d="M238 256h-81v339q-31 -7 -76 -8v55q41 0 61.5 14t33.5 50h62v-450zM270 0h-75l345 700h75zM631 -10q-62 0 -95 32.5t-33 94.5v24h76v-27q0 -55 50 -55q51 0 51 59v13q0 66 -61 66h-30v71h33q56 0 56 60v11q0 52 -48 52q-49 0 -49 -55v-14h-76v11q0 61 33.5 94t95.5 33
q59 0 91.5 -31.5t32.5 -89.5v-9q0 -32 -16.5 -57.5t-45.5 -37.5v-1q64 -22 64 -103v-12q0 -63 -33 -96t-96 -33z" />
    <glyph glyph-name="uni2154" unicode="&#x2154;" horiz-adv-x="809" 
d="M295 256h-247v55q0 49 21 86t72 78q48 39 65 62q18 24 18 57q0 53 -49 53q-23 0 -36.5 -15t-13.5 -42v-36h-76v34q0 57 34 92.5t94 35.5q59 0 93 -33.5t34 -88.5q0 -48 -25 -83q-25 -36 -90 -90q-37 -29 -49.5 -48t-12.5 -41v-7h168v-69zM270 0h-75l345 700h75zM631 -10
q-62 0 -95 32.5t-33 94.5v24h76v-27q0 -55 50 -55q51 0 51 59v13q0 66 -61 66h-30v71h33q56 0 56 60v11q0 52 -48 52q-49 0 -49 -55v-14h-76v11q0 61 33.5 94t95.5 33q59 0 91.5 -31.5t32.5 -89.5v-9q0 -32 -16.5 -57.5t-45.5 -37.5v-1q64 -22 64 -103v-12q0 -63 -33 -96
t-96 -33z" />
    <glyph glyph-name="oneeighth" unicode="&#x215b;" horiz-adv-x="809" 
d="M238 256h-81v339q-31 -7 -76 -8v55q41 0 61.5 14t33.5 50h62v-450zM270 0h-75l345 700h75zM498 116v9q0 85 64 107v1q-60 22 -60 95v11q0 58 34 89.5t99 31.5t99 -31.5t34 -89.5v-11q0 -73 -60 -95v-1q64 -22 64 -107v-9q0 -126 -137 -126t-137 126zM689 322v12
q0 55 -54 55t-54 -55v-12q0 -55 54 -55t54 55zM692 122v10q0 64 -57 64t-57 -64v-10q0 -61 57 -61t57 61z" />
    <glyph glyph-name="threeeighths" unicode="&#x215c;" horiz-adv-x="809" 
d="M170 246q-62 0 -95 32.5t-33 94.5v24h76v-27q0 -55 50 -55q51 0 51 59v13q0 66 -61 66h-30v71h33q56 0 56 60v11q0 52 -48 52q-49 0 -49 -55v-14h-76v11q0 61 33.5 94t95.5 33q59 0 91.5 -31.5t32.5 -89.5v-9q0 -32 -16.5 -57.5t-45.5 -37.5v-1q64 -22 64 -103v-12
q0 -63 -33 -96t-96 -33zM270 0h-75l345 700h75zM498 116v9q0 85 64 107v1q-60 22 -60 95v11q0 58 34 89.5t99 31.5t99 -31.5t34 -89.5v-11q0 -73 -60 -95v-1q64 -22 64 -107v-9q0 -126 -137 -126t-137 126zM689 322v12q0 55 -54 55t-54 -55v-12q0 -55 54 -55t54 55zM692 122
v10q0 64 -57 64t-57 -64v-10q0 -61 57 -61t57 61z" />
    <glyph glyph-name="fiveeighths" unicode="&#x215d;" horiz-adv-x="809" 
d="M47 373v19h77v-23q0 -54 49 -54t49 54v77q0 56 -45 56t-54 -51h-74l15 255h226v-69h-158l-7 -101q26 35 79 35q47 0 73 -30.5t26 -86.5v-81q0 -61 -33 -94t-95 -33t-95 33t-33 94zM270 0h-75l345 700h75zM498 116v9q0 85 64 107v1q-60 22 -60 95v11q0 58 34 89.5t99 31.5
t99 -31.5t34 -89.5v-11q0 -73 -60 -95v-1q64 -22 64 -107v-9q0 -126 -137 -126t-137 126zM689 322v12q0 55 -54 55t-54 -55v-12q0 -55 54 -55t54 55zM692 122v10q0 64 -57 64t-57 -64v-10q0 -61 57 -61t57 61z" />
    <glyph glyph-name="seveneighths" unicode="&#x215e;" horiz-adv-x="809" 
d="M163 256h-86l145 379h-180v71h261v-68zM270 0h-75l345 700h75zM498 116v9q0 85 64 107v1q-60 22 -60 95v11q0 58 34 89.5t99 31.5t99 -31.5t34 -89.5v-11q0 -73 -60 -95v-1q64 -22 64 -107v-9q0 -126 -137 -126t-137 126zM689 322v12q0 55 -54 55t-54 -55v-12
q0 -55 54 -55t54 55zM692 122v10q0 64 -57 64t-57 -64v-10q0 -61 57 -61t57 61z" />
    <glyph glyph-name="partialdiff" unicode="&#x2202;" horiz-adv-x="522" 
d="M242 -10q-100 0 -153 47.5t-53 135.5q0 18 1 23l9 84q9 86 51 131t115 45q103 0 142 -74l12 120q2 18 2 20q0 88 -94 88q-89 0 -96 -85h-107q5 87 59 136t146 49q205 0 205 -183q0 -22 -1 -28l-29 -316q-8 -94 -61 -143.5t-148 -49.5zM242 90q86 0 95 93l7 74
q5 45 -18.5 72t-73.5 27q-81 0 -92 -92l-8 -76q-1 -3 -1 -12q0 -40 23.5 -63t67.5 -23z" />
    <glyph glyph-name="emptyset" unicode="&#x2205;" horiz-adv-x="706" 
d="M161 85l-57 -61l-62 56l61 65q-63 83 -63 200q0 138 89 230q88 93 224 93q107 0 192 -63l57 61l62 -56l-62 -65q64 -85 64 -200q0 -137 -89 -231q-89 -92 -224 -92q-109 0 -192 63zM170 214l311 326q-56 43 -128 43q-94 0 -156 -68t-62 -170q0 -73 35 -131zM353 107
q94 0 155 67q62 68 62 171q0 76 -34 131l-311 -326q55 -43 128 -43z" />
    <glyph glyph-name="uni2206" unicode="&#x2206;" horiz-adv-x="514" 
d="M179 700h154l157 -700h-466zM252 581l-100 -483h201z" />
    <glyph glyph-name="product" unicode="&#x220f;" horiz-adv-x="591" 
d="M182 -155h-114v855h454v-855h-114v755h-226v-755z" />
    <glyph glyph-name="summation" unicode="&#x2211;" horiz-adv-x="528" 
d="M490 -155h-450v102l241 327l-241 325v101h450v-100h-315l239 -327l-239 -328h315v-100z" />
    <glyph glyph-name="minus" unicode="&#x2212;" horiz-adv-x="508" 
d="M471 257h-434v86h434v-86z" />
    <glyph glyph-name="uni2215" unicode="&#x2215;" horiz-adv-x="508" 
d="M115 0h-90l368 700h90z" />
    <glyph glyph-name="uni2219" unicode="&#x2219;" horiz-adv-x="251" 
d="M195 281h-139v139h139v-139z" />
    <glyph glyph-name="radical" unicode="&#x221a;" horiz-adv-x="601" 
d="M345 -65h-117l-107 375h-93v80h181l87 -319l189 629h90z" />
    <glyph glyph-name="infinity" unicode="&#x221e;" horiz-adv-x="813" 
d="M223 93q-91 0 -137 60q-47 62 -47 149q0 88 46 146q47 59 136 59q58 0 99 -29t81 -94h5q70 123 184 123q91 0 137 -61q47 -61 47 -148t-47 -146t-136 -59q-57 0 -98.5 29t-81.5 94h-5q-70 -123 -183 -123zM230 180q44 0 69 27q27 27 60 98q-40 70 -64 92q-25 24 -66 24
q-45 0 -72 -33t-27 -86q0 -54 27 -88t73 -34zM583 179q45 0 72 33t27 86q0 54 -27 88t-72 34q-40 0 -66 -26q-25 -26 -66 -99q43 -69 68 -93q26 -23 64 -23z" />
    <glyph glyph-name="integral" unicode="&#x222b;" horiz-adv-x="508" 
d="M153 -170q-49 0 -79 13v101q27 -15 59 -15q63 0 63 73v580q0 82 40.5 125t115.5 43q47 0 80 -13v-100q-22 13 -58 13q-64 0 -64 -73v-579q0 -82 -40.5 -125t-116.5 -43z" />
    <glyph glyph-name="approxequal" unicode="&#x2248;" horiz-adv-x="508" 
d="M81 320l-62 46q38 66 70.5 94t76.5 28q40 0 96 -38q52 -37 79 -37q22 0 38.5 15.5t47.5 62.5l62 -46q-37 -65 -70.5 -93.5t-77.5 -28.5q-41 0 -96 38q-52 37 -78 37q-23 0 -40 -16t-46 -62zM81 109l-62 46q38 66 70.5 94t76.5 28q40 0 96 -38q52 -37 79 -37
q22 0 38.5 15.5t47.5 62.5l62 -46q-37 -65 -70.5 -93.5t-77.5 -28.5q-42 0 -96 39q-53 36 -78 36q-23 0 -40 -16t-46 -62z" />
    <glyph glyph-name="notequal" unicode="&#x2260;" horiz-adv-x="508" 
d="M138 35h-85l72 119h-75v86h125l74 120h-199v86h249l72 119h84l-72 -119h75v-86h-125l-74 -120h199v-86h-249z" />
    <glyph glyph-name="lessequal" unicode="&#x2264;" horiz-adv-x="508" 
d="M441 264v-87l-383 141v80l383 142v-87l-267 -95zM441 57h-383v84h383v-84z" />
    <glyph glyph-name="greaterequal" unicode="&#x2265;" horiz-adv-x="508" 
d="M449 318l-383 -141v87l268 94l-268 95v87l383 -142v-80zM449 57h-383v84h383v-84z" />
    <glyph glyph-name="lozenge" unicode="&#x25ca;" horiz-adv-x="508" 
d="M273 -10h-38l-206 360l206 360h38l206 -360zM124 350l130 -227l130 227l-130 226z" />
    <glyph glyph-name="uniE0FF" unicode="&#xe0ff;" horiz-adv-x="521" 
 />
    <glyph glyph-name="uniEFFD" unicode="&#xeffd;" horiz-adv-x="521" 
 />
    <glyph glyph-name="uniF000" unicode="&#xf000;" horiz-adv-x="521" 
 />
    <glyph glyph-name="uniF8FF" unicode="&#xf8ff;" horiz-adv-x="656" 
d="M275 494h59v116h156v-116h132v-152h-132v-60q0 -110 -63 -174t-165 -64q-101 0 -165 62q-63 63 -63 163t65 162q65 63 176 63zM334 281v61h-60q-39 0 -61 -20q-21 -20 -21 -52t20 -52q23 -18 51 -20t51 21.5t20 61.5z" />
    <glyph glyph-name="_1" horiz-adv-x="0" 
 />
    <glyph glyph-name="CR.001" horiz-adv-x="333" 
 />
    <glyph glyph-name="NULL" horiz-adv-x="0" 
 />
    <glyph glyph-name="uni00A40301" horiz-adv-x="338" 
d="M244 767h-93l89 126h131zM86 -5q-33 0 -60 6v100q20 -6 48 -6q50 0 72.5 20.5t22.5 67.5v517h114v-514q0 -99 -47.5 -145t-149.5 -46z" />
    <glyph glyph-name="i.loclTRK" horiz-adv-x="225" 
d="M168 583h-110v126h110v-126zM167 0h-110v506h110v-506z" />
    <glyph glyph-name="germandbls.calt" horiz-adv-x="522" 
d="M473 603l-115 -188q69 -15 98.5 -60.5t29.5 -123.5v-36q0 -195 -204 -195h-37v100h37q46 0 68 19.5t22 65.5v53q0 46 -21 65.5t-69 19.5h-36v95l107 182h-179v-600h-114v700h413v-97z" />
    <glyph glyph-name="zero.tf" horiz-adv-x="508" 
d="M48 189v322q0 96 53.5 147.5t153.5 51.5t153.5 -52t53.5 -147v-322q0 -95 -53.5 -147t-153.5 -52t-153.5 51.5t-53.5 147.5zM348 184v332q0 46 -24 70t-69 24t-69 -24t-24 -70v-332q0 -46 24 -70t69 -24t69 24t24 70z" />
    <glyph glyph-name="one.tf" horiz-adv-x="508" 
d="M371 0h-114v542q-77 -11 -150 -11v81q83 1 123 20q39 17 62 68h79v-700z" />
    <glyph glyph-name="two.tf" horiz-adv-x="508" 
d="M447 0h-395v79q0 74 35 133q36 60 123 127q77 59 107 96q29 35 29 87q0 88 -92 88q-45 0 -69 -25.5t-24 -71.5v-49h-107v49q0 91 52 144t151 53q97 0 150 -50.5t53 -133.5q0 -73 -41 -129t-142 -136q-65 -51 -89 -83t-24 -72v-6h283v-100z" />
    <glyph glyph-name="three.tf" horiz-adv-x="508" 
d="M251 -10q-204 0 -204 195v37h107v-38q0 -94 94 -94q48 0 70.5 23.5t22.5 74.5v19q0 56 -25 81.5t-80 25.5h-51v100h54q99 0 99 96v13q0 42 -23.5 64.5t-67.5 22.5q-88 0 -88 -87v-24h-108v14q0 96 51.5 146.5t150.5 50.5q96 0 147.5 -48.5t51.5 -135.5v-13q0 -49 -27 -88
t-75 -54v-2q104 -33 104 -162v-19q0 -198 -203 -198z" />
    <glyph glyph-name="four.tf" horiz-adv-x="508" 
d="M417 0h-114v127h-280v99l269 474h125v-474h69v-99h-69v-127zM303 534l-175 -308h175v308z" />
    <glyph glyph-name="five.tf" horiz-adv-x="508" 
d="M255 -10q-101 0 -152.5 51t-51.5 146v36h107v-39q0 -94 94 -94q93 0 93 94v108q0 94 -86 94q-81 0 -99 -79h-107l26 393h358v-100h-258l-13 -174q43 60 134 60q78 0 118.5 -47t40.5 -135v-117q0 -96 -51.5 -146.5t-152.5 -50.5z" />
    <glyph glyph-name="six.tf" horiz-adv-x="508" 
d="M50 188v317q0 100 52.5 152.5t154.5 52.5q96 0 150 -51t54 -139h-108q0 90 -93 90q-96 0 -96 -110v-118q44 72 139 72q161 0 161 -183v-83q0 -95 -53.5 -146.5t-153.5 -51.5t-153.5 51.5t-53.5 146.5zM350 182v76q0 96 -90 96q-47 0 -71.5 -26t-24.5 -72v-74
q0 -92 93 -92t93 92z" />
    <glyph glyph-name="seven.tf" horiz-adv-x="508" 
d="M225 0h-123l241 600h-296v100h411v-95z" />
    <glyph glyph-name="eight.tf" horiz-adv-x="508" 
d="M41 187v16q0 128 101 163v2q-44 15 -69.5 55t-25.5 88v16q0 88 52 135.5t155 47.5t155 -47.5t52 -135.5v-16q0 -48 -25.5 -88t-69.5 -55v-2q101 -35 101 -163v-16q0 -197 -213 -197t-213 197zM349 504v14q0 92 -95 92t-95 -92v-14q0 -46 25.5 -68.5t69.5 -22.5t69.5 22.5
t25.5 68.5zM354 194v17q0 102 -100 102t-100 -102v-17q0 -55 23 -79.5t77 -24.5t77 24.5t23 79.5z" />
    <glyph glyph-name="nine.tf" horiz-adv-x="508" 
d="M458 510v-317q0 -100 -52.5 -152.5t-154.5 -52.5q-96 0 -150 51t-54 139h108q0 -90 93 -90q96 0 96 110v118q-44 -72 -139 -72q-161 0 -161 183v83q0 95 53.5 146.5t153.5 51.5t153.5 -51.5t53.5 -146.5zM158 516v-76q0 -96 90 -96q47 0 71.5 26t24.5 72v74q0 92 -93 92
t-93 -92z" />
    <glyph glyph-name="zero.dnom" 
d="M42 119v212q0 61 35 95t97 34t97 -34t35 -95v-212q0 -61 -35 -95t-97 -34t-97 34t-35 95zM225 114v222q0 26 -13.5 40.5t-37.5 14.5t-37.5 -14.5t-13.5 -40.5v-222q0 -26 13.5 -40.5t37.5 -14.5t37.5 14.5t13.5 40.5z" />
    <glyph glyph-name="one.dnom" 
d="M238 0h-81v339q-31 -7 -76 -8v55q41 0 61.5 14t33.5 50h62v-450z" />
    <glyph glyph-name="two.dnom" 
d="M295 0h-247v55q0 49 21 86t72 78q48 39 65 62q18 24 18 57q0 53 -49 53q-23 0 -36.5 -15t-13.5 -42v-36h-76v34q0 57 34 92.5t94 35.5q59 0 93 -33.5t34 -88.5q0 -48 -25 -83q-25 -36 -90 -90q-37 -29 -49.5 -48t-12.5 -41v-7h168v-69z" />
    <glyph glyph-name="three.dnom" 
d="M170 -10q-62 0 -95 32.5t-33 94.5v24h76v-27q0 -55 50 -55q51 0 51 59v13q0 66 -61 66h-30v71h33q56 0 56 60v11q0 52 -48 52q-49 0 -49 -55v-14h-76v11q0 61 33.5 94t95.5 33q59 0 91.5 -31.5t32.5 -89.5v-9q0 -32 -16.5 -57.5t-45.5 -37.5v-1q64 -22 64 -103v-12
q0 -63 -33 -96t-96 -33z" />
    <glyph glyph-name="four.dnom" 
d="M286 0h-81v78h-186v70l177 302h90v-302h45v-70h-45v-78zM205 340l-110 -192h110v192z" />
    <glyph glyph-name="five.dnom" 
d="M47 117v19h77v-23q0 -54 49 -54t49 54v77q0 56 -45 56t-54 -51h-74l15 255h226v-69h-158l-7 -101q26 35 79 35q47 0 73 -30.5t26 -86.5v-81q0 -61 -33 -94t-95 -33t-95 33t-33 94z" />
    <glyph glyph-name="six.dnom" 
d="M176 -10q-61 0 -95.5 34t-34.5 95v208q0 64 33.5 98.5t96.5 34.5q61 0 94.5 -33.5t33.5 -90.5h-75q0 55 -51 55q-53 0 -53 -67v-72q25 40 83 40q47 0 73 -31.5t26 -87.5v-54q0 -61 -34.5 -95t-96.5 -34zM176 59q52 0 52 55v52q0 57 -50 57q-26 0 -39.5 -16.5t-13.5 -41.5
v-51q0 -26 13.5 -40.5t37.5 -14.5z" />
    <glyph glyph-name="seven.dnom" 
d="M163 0h-86l145 379h-180v71h261v-68z" />
    <glyph glyph-name="eight.dnom" 
d="M37 116v9q0 85 64 107v1q-60 22 -60 95v11q0 58 34 89.5t99 31.5t99 -31.5t34 -89.5v-11q0 -73 -60 -95v-1q64 -22 64 -107v-9q0 -126 -137 -126t-137 126zM228 322v12q0 55 -54 55t-54 -55v-12q0 -55 54 -55t54 55zM231 122v10q0 64 -57 64t-57 -64v-10q0 -61 57 -61
t57 61z" />
    <glyph glyph-name="nine.dnom" 
d="M172 460q61 0 95.5 -34t34.5 -95v-208q0 -64 -33.5 -98.5t-96.5 -34.5q-61 0 -94.5 33.5t-33.5 90.5h75q0 -55 51 -55q53 0 53 67v72q-25 -40 -84 -40q-46 0 -72 31.5t-26 87.5v54q0 61 34.5 95t96.5 34zM172 391q-52 0 -52 -55v-52q0 -57 50 -57q25 0 39 16.5t14 41.5
v51q0 26 -13.5 40.5t-37.5 14.5z" />
    <glyph glyph-name="zero.numr" 
d="M42 375v212q0 61 35 95t97 34t97 -34t35 -95v-212q0 -61 -35 -95t-97 -34t-97 34t-35 95zM225 370v222q0 26 -13.5 40.5t-37.5 14.5t-37.5 -14.5t-13.5 -40.5v-222q0 -26 13.5 -40.5t37.5 -14.5t37.5 14.5t13.5 40.5z" />
    <glyph glyph-name="one.numr" 
d="M238 256h-81v339q-31 -7 -76 -8v55q41 0 61.5 14t33.5 50h62v-450z" />
    <glyph glyph-name="two.numr" 
d="M295 256h-247v55q0 49 21 86t72 78q48 39 65 62q18 24 18 57q0 53 -49 53q-23 0 -36.5 -15t-13.5 -42v-36h-76v34q0 57 34 92.5t94 35.5q59 0 93 -33.5t34 -88.5q0 -48 -25 -83q-25 -36 -90 -90q-37 -29 -49.5 -48t-12.5 -41v-7h168v-69z" />
    <glyph glyph-name="three.numr" 
d="M170 246q-62 0 -95 32.5t-33 94.5v24h76v-27q0 -55 50 -55q51 0 51 59v13q0 66 -61 66h-30v71h33q56 0 56 60v11q0 52 -48 52q-49 0 -49 -55v-14h-76v11q0 61 33.5 94t95.5 33q59 0 91.5 -31.5t32.5 -89.5v-9q0 -32 -16.5 -57.5t-45.5 -37.5v-1q64 -22 64 -103v-12
q0 -63 -33 -96t-96 -33z" />
    <glyph glyph-name="four.numr" 
d="M286 256h-81v78h-186v70l177 302h90v-302h45v-70h-45v-78zM205 596l-110 -192h110v192z" />
    <glyph glyph-name="five.numr" 
d="M47 373v19h77v-23q0 -54 49 -54t49 54v77q0 56 -45 56t-54 -51h-74l15 255h226v-69h-158l-7 -101q26 35 79 35q47 0 73 -30.5t26 -86.5v-81q0 -61 -33 -94t-95 -33t-95 33t-33 94z" />
    <glyph glyph-name="six.numr" 
d="M176 246q-61 0 -95.5 34t-34.5 95v208q0 64 33.5 98.5t96.5 34.5q61 0 94.5 -33.5t33.5 -90.5h-75q0 55 -51 55q-53 0 -53 -67v-72q25 40 83 40q47 0 73 -31.5t26 -87.5v-54q0 -61 -34.5 -95t-96.5 -34zM176 315q52 0 52 55v52q0 57 -50 57q-26 0 -39.5 -16.5
t-13.5 -41.5v-51q0 -26 13.5 -40.5t37.5 -14.5z" />
    <glyph glyph-name="seven.numr" 
d="M163 256h-86l145 379h-180v71h261v-68z" />
    <glyph glyph-name="eight.numr" 
d="M37 372v9q0 85 64 107v1q-60 23 -60 95v11q0 58 34 89.5t99 31.5t99 -31.5t34 -89.5v-11q0 -72 -60 -95v-1q64 -22 64 -107v-9q0 -126 -137 -126t-137 126zM228 578v12q0 55 -54 55t-54 -55v-12q0 -55 54 -55t54 55zM231 378v10q0 64 -57 64t-57 -64v-10q0 -61 57 -61
t57 61z" />
    <glyph glyph-name="nine.numr" 
d="M172 716q61 0 95.5 -34t34.5 -95v-208q0 -64 -33.5 -98.5t-96.5 -34.5q-61 0 -94.5 33.5t-33.5 90.5h75q0 -55 51 -55q53 0 53 67v72q-25 -40 -84 -40q-46 0 -72 31.5t-26 87.5v54q0 61 34.5 95t96.5 34zM172 647q-52 0 -52 -55v-52q0 -57 50 -57q25 0 39 16.5t14 41.5
v51q0 26 -13.5 40.5t-37.5 14.5z" />
    <glyph glyph-name="caroncomb.alt" horiz-adv-x="0" 
d="M2 453h-47l33 123h-41v124h106v-112z" />
    <glyph glyph-name="caron.alt" horiz-adv-x="635" 
d="M320 453h-47l33 123h-41v124h106v-112z" />
    </font>
</defs>
</svg>
