<svg xmlns="http://www.w3.org/2000/svg">
<defs>
<font id="BebasNeuePro-ExpandedRegular" horiz-adv-x="508" >
  <font-face 
    font-family="Bebas Neue Pro Expanded"
    font-weight="400"
    font-stretch="expanded"
    units-per-em="1000"
    panose-1="2 11 5 6 2 2 2 5 2 1"
    ascent="700"
    descent="-300"
    x-height="500"
    cap-height="700"
    bbox="-253 -231 1000 963"
    underline-thickness="51"
    underline-position="-230"
    unicode-range="U+000D-FB02"
  />
<missing-glyph horiz-adv-x="738" 
d="M54 0v700h630v-700h-630zM152 134h434v432h-434v-432zM168 550h114v-112h-114v112zM346 390h-32v16h-16v80h32v32h-32v32h16v-16h32v-16h16v16h-16v16h32v-16h16v16h16v-32h16v-16h-16v-32h-16v-16h-16v48h-32v-16h16v-32h-16v16h-32v-48h16v32h16v-16h16v16h16v-32h-32
v-32zM426 550h16v-32h-16v32zM458 550h112v-112h-112v112zM184 454h82v80h-82v-80zM474 454h80v80h-80v-80zM200 518h50v-48h-50v48zM490 518h48v-48h-48v48zM410 454v-32h-16v32h16zM442 438h-16v16h16v-16zM200 406v-16h17v-16h-33v16h-16v32h49v-16h-17zM282 422v-16h-16
v-16h-32v16h16v16h32zM426 390v-16h-16v48h16v-16h16v-16h-16zM442 390h16v16h-16v16h64v-16h-16v-16h16v16h16v-16h16v-16h-16v-16h-32v16h-32v-16h-16v32zM570 374h-16v16h-16v32h32v-48zM282 406h16v-32h-32v16h16v16zM378 406h16v-16h-16v16zM362 390v-16h-16v16h16z
M217 358v16h17v-16h-17zM266 358h32v-16h-64v16h16v16h16v-16zM314 326v48h16v-48h-16zM410 358h-16v16h16v-16zM168 358h16v-32h-16v32zM410 342h48v16h32v-32h48v-16h-48v-16h16v-32h16v-16h-16v-16h16v-16h32v-16h16v-16h-32v16h-32v-32h-32v-16h-16v16h-16v-16h-16v32
h-16v-32h-32v16h16v16h-16v-16h-32v16h16v32h-16v-16h-16v32h48v16h16v-32h-16v-16h32v48h16v16h-16v16h-16v-16h-16v32h16v16h16v-16h16v16h-16v32zM378 310v-16h-32v16h16v32h-16v16h32v-16h16v-32h-16zM570 310h-16v16h-16v16h16v16h16v-48zM234 294h-17v16h-17v16h17v16
h17v-32h16v-32h-16v16zM298 326v-32h16v-32h-16v16h-32v16h16v16h-32v16h48zM330 326h16v-16h-16v16zM168 310h32v-16h-32v16zM314 310h16v-16h-16v16zM458 310h-16v-16h16v16zM217 278h-17v16h17v-16zM346 278h-16v16h16v-16zM538 294h16v-16h-16v16zM442 230h48v48h-48

<glyph glyph-name="fi" unicode="fi" horiz-adv-x="544" 
d="M110 500v70q0 140 136 140q38 0 67 -13v-68q-27 11 -56 11q-38 0 -53.5 -17.5t-15.5 -59.5v-63h125v-65h-125v-435h-78v435h-83v65h83zM404 589v115h78v-115h-78zM481 0h-78v500h78v-500z" />
    <glyph glyph-name="fl" unicode="fl" horiz-adv-x="544" 
d="M110 500v70q0 140 136 140q38 0 67 -13v-68q-27 11 -56 11q-38 0 -53.5 -17.5t-15.5 -59.5v-63h125v-65h-125v-435h-78v435h-83v65h83zM403 0v700h78v-700h-78z" />
    <glyph glyph-name=".notdef" horiz-adv-x="738" 
d="M54 0v700h630v-700h-630zM152 134h434v432h-434v-432zM168 550h114v-112h-114v112zM346 390h-32v16h-16v80h32v32h-32v32h16v-16h32v-16h16v16h-16v16h32v-16h16v16h16v-32h16v-16h-16v-32h-16v-16h-16v48h-32v-16h16v-32h-16v16h-32v-48h16v32h16v-16h16v16h16v-32h-32
v-32zM426 550h16v-32h-16v32zM458 550h112v-112h-112v112zM184 454h82v80h-82v-80zM474 454h80v80h-80v-80zM200 518h50v-48h-50v48zM490 518h48v-48h-48v48zM410 454v-32h-16v32h16zM442 438h-16v16h16v-16zM200 406v-16h17v-16h-33v16h-16v32h49v-16h-17zM282 422v-16h-16
v-16h-32v16h16v16h32zM426 390v-16h-16v48h16v-16h16v-16h-16zM442 390h16v16h-16v16h64v-16h-16v-16h16v16h16v-16h16v-16h-16v-16h-32v16h-32v-16h-16v32zM570 374h-16v16h-16v32h32v-48zM282 406h16v-32h-32v16h16v16zM378 406h16v-16h-16v16zM362 390v-16h-16v16h16z
M217 358v16h17v-16h-17zM266 358h32v-16h-64v16h16v16h16v-16zM314 326v48h16v-48h-16zM410 358h-16v16h16v-16zM168 358h16v-32h-16v32zM410 342h48v16h32v-32h48v-16h-48v-16h16v-32h16v-16h-16v-16h16v-16h32v-16h16v-16h-32v16h-32v-32h-32v-16h-16v16h-16v-16h-16v32
h-16v-32h-32v16h16v16h-16v-16h-32v16h16v32h-16v-16h-16v32h48v16h16v-32h-16v-16h32v48h16v16h-16v16h-16v-16h-16v32h16v16h16v-16h16v16h-16v32zM378 310v-16h-32v16h16v32h-16v16h32v-16h16v-32h-16zM570 310h-16v16h-16v16h16v16h16v-48zM234 294h-17v16h-17v16h17v16
h17v-32h16v-32h-16v16zM298 326v-32h16v-32h-16v16h-32v16h16v16h-32v16h48zM330 326h16v-16h-16v16zM168 310h32v-16h-32v16zM314 310h16v-16h-16v16zM458 310h-16v-16h16v16zM217 278h-17v16h17v-16zM346 278h-16v16h16v-16zM538 294h16v-16h-16v16zM442 230h48v48h-48
v-48zM522 278h16v-16h-16v16zM538 230v16h16v32h16v-64h-16v16h-16zM168 262h114v-112h-114v112zM314 246v16h16v-32h-32v16h16zM362 246h-16v16h16v-16zM458 262h16v-16h-16v16zM184 166h82v80h-82v-80zM200 230h50v-48h-50v48zM426 198h16v16h-16v-16zM458 182h32v32h-32
v-32zM298 198h32v-32h16v-16h-48v48zM522 166v-16h-16v16h16zM570 150h-16v16h16v-16z" />
    <glyph glyph-name=".null" horiz-adv-x="0" 
 />
    <glyph glyph-name="nonmarkingreturn" horiz-adv-x="333" 
 />
    <glyph glyph-name="CR" unicode="&#xd;" horiz-adv-x="184" 
 />
    <glyph glyph-name="space" unicode=" " horiz-adv-x="184" 
 />
    <glyph glyph-name="exclam" unicode="!" horiz-adv-x="235" 
d="M147 176h-59l-11 198v327h80v-327zM158 0h-82v101h82v-101z" />
    <glyph glyph-name="quotedbl" unicode="&#x22;" horiz-adv-x="348" 
d="M123 455h-44l-19 245h83zM268 455h-44l-19 245h83z" />
    <glyph glyph-name="numbersign" unicode="#" 
d="M141 0h-64l29 213h-76l5 53h77l28 207h-78l6 54h78l23 173h63l-22 -173h133l23 173h63l-23 -173h73l-6 -54h-72l-28 -207h72l-5 -53h-73l-29 -213h-63l28 213h-134zM203 473l-28 -207h135l26 207h-133z" />
    <glyph glyph-name="dollar" unicode="$" 
d="M450 187q0 -70 -43 -117t-118 -57v-68h-67v68q-77 8 -120.5 54.5t-43.5 118.5v30h76v-35q0 -45 32 -72t86 -27q56 0 87.5 26t31.5 74q0 54 -30 82q-29 30 -115 61q-93 34 -130 79q-36 44 -36 113q0 70 43 115.5t119 54.5v58h67v-58q75 -9 116.5 -54.5t41.5 -117.5v-10
h-76v14q0 45 -31.5 72t-84.5 27q-54 0 -84.5 -25.5t-30.5 -70.5q0 -49 29 -78q28 -28 117 -61q94 -36 129 -80t35 -116z" />
    <glyph glyph-name="percent" unicode="%" horiz-adv-x="722" 
d="M166 310q-61 0 -94.5 32.5t-33.5 92.5v150q0 60 33.5 92.5t94.5 32.5q62 0 96 -32.5t34 -92.5v-150q0 -60 -34 -92.5t-96 -32.5zM217 0h-59l347 700h58zM166 361q71 0 71 70v157q0 71 -71 71q-69 0 -69 -71v-157q0 -70 69 -70zM427 115v150q0 60 33.5 92.5t95.5 32.5
t95.5 -32.5t33.5 -92.5v-150q0 -60 -33.5 -92.5t-95.5 -32.5t-95.5 32.5t-33.5 92.5zM626 112v157q0 70 -70 70t-70 -70v-157q0 -71 70 -71t70 71z" />
    <glyph glyph-name="ampersand" unicode="&#x26;" horiz-adv-x="519" 
d="M484 392v-68h-42v-187q0 -92 16 -137h-73q-10 17 -11 81q-22 -43 -64 -67t-97 -24q-78 0 -119.5 41.5t-41.5 122.5v45q0 131 108 162v1q-51 16 -78.5 54.5t-27.5 93.5v17q0 88 49.5 135.5t144.5 47.5q194 0 194 -190v-2h-74v10q0 114 -118 114q-56 0 -87 -30t-31 -85v-19
q0 -54 33 -85t93 -31h226zM366 192v132h-112q-124 0 -124 -122v-40q0 -104 105 -104q58 0 94.5 36t36.5 98z" />
    <glyph glyph-name="quotesingle" unicode="'" horiz-adv-x="203" 
d="M123 455h-45l-18 245h83z" />
    <glyph glyph-name="parenleft" unicode="(" horiz-adv-x="330" 
d="M280 -100h-35q-91 0 -132 42t-41 134v448q0 92 41 134t132 42h35v-63h-30q-53 0 -77.5 -27t-24.5 -86v-448q0 -59 24.5 -86t77.5 -27h30v-63z" />
    <glyph glyph-name="parenright" unicode=")" horiz-adv-x="330" 
d="M86 -100h-35v63h30q53 0 77.5 27t24.5 86v448q0 59 -24.5 86t-77.5 27h-30v63h35q91 0 132 -42t41 -134v-448q0 -92 -41 -134t-132 -42z" />
    <glyph glyph-name="asterisk" unicode="*" horiz-adv-x="452" 
d="M226 477l-86 -142l-50 37l106 125l-161 40l19 58l154 -63l-13 168h63l-14 -168l155 63l19 -58l-161 -40l106 -125l-50 -37z" />
    <glyph glyph-name="plus" unicode="+" 
d="M287 87h-66v181h-181v66h181v181h66v-181h181v-66h-181v-181z" />
    <glyph glyph-name="comma" unicode="," horiz-adv-x="221" 
d="M98 -102h-38l39 102h-29v107h81v-100z" />
    <glyph glyph-name="hyphen" unicode="-" horiz-adv-x="333" 
d="M292 267h-252v66h252v-66z" />
    <glyph glyph-name="period" unicode="." horiz-adv-x="221" 
d="M151 0h-81v107h81v-107z" />
    <glyph glyph-name="slash" unicode="/" horiz-adv-x="465" 
d="M93 -100h-71l350 800h71z" />
    <glyph glyph-name="zero" unicode="0" 
d="M54 185v330q0 94 51.5 144.5t148.5 50.5t148.5 -50.5t51.5 -144.5v-330q0 -94 -51.5 -144.5t-148.5 -50.5t-148.5 50.5t-51.5 144.5zM254 61q120 0 120 119v340q0 119 -120 119q-119 0 -119 -119v-340q0 -119 119 -119z" />
    <glyph glyph-name="one" unicode="1" horiz-adv-x="330" 
d="M264 0h-81v574q-54 -25 -155 -26v59q75 3 116 24.5t62 68.5h58v-700z" />
    <glyph glyph-name="two" unicode="2" horiz-adv-x="473" 
d="M425 0h-384v61q0 81 38 143q38 61 132 130q84 62 113 99q31 37 31 99q0 49 -29.5 78t-86.5 29q-60 0 -90.5 -33t-30.5 -87v-40h-75v38q0 83 48 138q49 55 149 55q95 0 145.5 -48.5t50.5 -127.5q0 -76 -40 -129q-38 -53 -134 -126q-81 -61 -112 -101t-31 -98v-9h306v-71z
" />
    <glyph glyph-name="three" unicode="3" horiz-adv-x="478" 
d="M236 -10q-99 0 -148.5 50t-49.5 142v32h76v-34q0 -119 120 -119t120 124v22q0 122 -123 122h-55v72h57q57 0 88 29t31 83v14q0 54 -30.5 83t-87.5 29q-115 0 -115 -116v-19h-76v12q0 194 195 194q93 0 143.5 -47.5t50.5 -132.5v-15q0 -52 -28.5 -91.5t-78.5 -54.5v-1
q108 -28 108 -161v-22q0 -195 -197 -195z" />
    <glyph glyph-name="four" unicode="4" horiz-adv-x="510" 
d="M408 0h-80v141h-298v70l287 489h91v-488h73v-71h-73v-141zM328 584l-221 -372h221v372z" />
    <glyph glyph-name="five" unicode="5" horiz-adv-x="485" 
d="M244 -10q-99 0 -148.5 50.5t-49.5 142.5v29h76v-32q0 -119 121 -119q119 0 119 119v107q0 57 -28.5 87t-80.5 30q-93 0 -126 -86h-75l24 382h346v-71h-275l-15 -222q50 68 147 68q80 0 121.5 -46.5t41.5 -134.5v-111q0 -93 -50 -143t-148 -50z" />
    <glyph glyph-name="six" unicode="6" horiz-adv-x="499" 
d="M54 184v327q0 97 50.5 148t148.5 51q94 0 145.5 -49.5t51.5 -136.5h-76q0 55 -31 85t-88 30q-120 0 -120 -132v-144q43 81 151 81q168 0 168 -184v-76q0 -94 -51.5 -144t-148.5 -50t-148.5 50t-51.5 144zM373 179v74q0 120 -113 120q-56 0 -90.5 -36t-34.5 -93v-65
q0 -118 119 -118t119 118z" />
    <glyph glyph-name="seven" unicode="7" horiz-adv-x="458" 
d="M173 0h-87l260 629h-318v71h400v-68z" />
    <glyph glyph-name="eight" unicode="8" horiz-adv-x="499" 
d="M250 -10q-206 0 -206 193v18q0 135 106 163v1q-47 15 -74 55.5t-27 92.5v18q0 86 51 132.5t150 46.5q98 0 149 -46.5t51 -132.5v-18q0 -52 -27 -92.5t-74 -55.5v-1q106 -28 106 -163v-18q0 -193 -205 -193zM250 397q57 0 89 29t32 83v18q0 54 -31 83t-90 29
q-121 0 -121 -112v-18q0 -54 32 -83t89 -29zM250 61q67 0 96 30.5t29 94.5v18q0 121 -125 121q-126 0 -126 -121v-18q0 -64 29 -94.5t97 -30.5z" />
    <glyph glyph-name="nine" unicode="9" horiz-adv-x="498" 
d="M445 514v-327q0 -97 -50.5 -148t-148.5 -51q-94 0 -145.5 49.5t-51.5 136.5h76q0 -55 31 -85t88 -30q120 0 120 132v144q-44 -81 -152 -81q-167 0 -167 184v76q0 94 51.5 144t148.5 50t148.5 -50t51.5 -144zM126 519v-73q0 -121 113 -121q56 0 90.5 36t34.5 93v65
q0 118 -119 118t-119 -118z" />
    <glyph glyph-name="colon" unicode=":" horiz-adv-x="221" 
d="M151 378h-81v107h81v-107zM151 0h-81v107h81v-107z" />
    <glyph glyph-name="semicolon" unicode=";" horiz-adv-x="221" 
d="M151 378h-81v107h81v-107zM98 -102h-38l39 102h-29v107h81v-100z" />
    <glyph glyph-name="less" unicode="&#x3c;" 
d="M439 159v-68l-377 178v62l377 178v-68l-299 -141z" />
    <glyph glyph-name="equal" unicode="=" 
d="M455 370h-402v66h402v-66zM455 164h-402v66h402v-66z" />
    <glyph glyph-name="greater" unicode="&#x3e;" 
d="M446 269l-378 -178v68l299 141l-299 141v68l378 -178v-62z" />
    <glyph glyph-name="question" unicode="?" horiz-adv-x="461" 
d="M245 176h-71v24q0 54 19 94.5t66 86.5q47 47 67 81q19 32 19 76q0 101 -115 101q-61 0 -89.5 -29.5t-28.5 -90.5v-41h-76v41q0 191 195 191q95 0 144.5 -44.5t49.5 -126.5q0 -53 -21.5 -95.5t-72.5 -89.5q-48 -44 -68 -79q-18 -33 -18 -80v-19zM249 0h-81v101h81v-101z
" />
    <glyph glyph-name="at" unicode="@" horiz-adv-x="780" 
d="M495 498h67l-32 -273q-1 -5 -1 -17q0 -44 42 -44q46 0 76 71q30 72 30 181q0 111 -68.5 172.5t-191.5 61.5q-65 0 -116.5 -20.5t-86.5 -56t-58 -85.5t-33 -107.5t-10 -123.5q0 -140 77.5 -214t226.5 -74q112 0 188 55l-6 -69q-75 -45 -183 -45q-178 0 -274 91t-96 260
q0 203 94 325q94 124 276 124q153 0 236.5 -77.5t83.5 -218.5q0 -139 -50 -227q-50 -86 -130 -86q-78 0 -89 68q-39 -68 -116 -68q-54 0 -82.5 29t-28.5 83q0 19 1 25l17 144q16 126 122 126q79 0 109 -61zM373 161q37 0 62.5 26t31.5 73l9 77q1 6 1 24q0 40 -21 64t-59 24
q-64 0 -73 -76l-16 -131q-1 -4 -1 -17q0 -64 66 -64z" />
    <glyph glyph-name="A" unicode="A" horiz-adv-x="507" 
d="M479 0h-84l-35 148h-220l-35 -148h-77l170 700h109zM249 609l-92 -390h185z" />
    <glyph glyph-name="B" unicode="B" horiz-adv-x="512" 
d="M271 0h-205v700h192q197 0 197 -171v-13q0 -116 -101 -148v-2q115 -28 115 -163v-17q0 -94 -48.5 -140t-149.5 -46zM147 629v-234h96q68 0 100 26.5t32 84.5v13q0 58 -28.5 84t-90.5 26h-109zM147 325v-254h124q62 0 90 27t28 88v19q0 64 -33 92t-108 28h-101z" />
    <glyph glyph-name="C" unicode="C" horiz-adv-x="489" 
d="M249 -10q-91 0 -142 51t-51 142v334q0 91 51 142t142 51q94 0 145 -50.5t51 -142.5v-48h-77v51q0 57 -31 88.5t-86 31.5q-54 0 -84 -31.5t-30 -88.5v-340q0 -57 30 -88.5t84 -31.5q55 0 86 31.5t31 88.5v71h77v-68q0 -92 -51 -142.5t-145 -50.5z" />
    <glyph glyph-name="D" unicode="D" horiz-adv-x="516" 
d="M263 0h-197v700h197q198 0 198 -192v-316q0 -192 -198 -192zM147 629v-558h114q63 0 91 28t28 91v320q0 63 -28 91t-91 28h-114z" />
    <glyph glyph-name="E" unicode="E" horiz-adv-x="457" 
d="M423 0h-357v700h357v-71h-276v-239h226v-70h-226v-249h276v-71z" />
    <glyph glyph-name="F" unicode="F" horiz-adv-x="439" 
d="M147 0h-81v700h345v-71h-264v-244h215v-70h-215v-315z" />
    <glyph glyph-name="G" unicode="G" horiz-adv-x="503" 
d="M254 -10q-95 0 -147 50.5t-52 142.5v332q0 93 51.5 144t145.5 51q95 0 147 -51t52 -144v-35h-76v40q0 119 -120 119q-119 0 -119 -119v-340q0 -119 119 -119q120 0 120 119v127h-111v74h187v-198q0 -92 -51.5 -142.5t-145.5 -50.5z" />
    <glyph glyph-name="H" unicode="H" horiz-adv-x="532" 
d="M147 0h-81v700h81v-310h238v310h81v-700h-81v320h-238v-320z" />
    <glyph glyph-name="I" unicode="I" horiz-adv-x="213" 
d="M147 0h-81v700h81v-700z" />
    <glyph glyph-name="J" unicode="J" horiz-adv-x="335" 
d="M90 -5q-37 0 -61 8v72q22 -9 56 -9q56 0 82 26t26 82v526h80v-524q0 -93 -44.5 -137t-138.5 -44z" />
    <glyph glyph-name="K" unicode="K" horiz-adv-x="520" 
d="M493 0h-88l-162 366l-96 -132v-234h-81v700h81v-354l257 354h86l-190 -264z" />
    <glyph glyph-name="L" unicode="L" horiz-adv-x="439" 
d="M411 0h-345v700h81v-629h264v-71z" />
    <glyph glyph-name="M" unicode="M" horiz-adv-x="663" 
d="M138 0h-72v700h117l148 -563l147 563h119v-700h-79v590l-157 -590h-65l-158 590v-590z" />
    <glyph glyph-name="N" unicode="N" horiz-adv-x="541" 
d="M140 0h-74v700h106l228 -533v533h75v-700h-85l-250 588v-588z" />
    <glyph glyph-name="O" unicode="O" horiz-adv-x="512" 
d="M56 185v330q0 94 51.5 144.5t148.5 50.5t148.5 -50.5t51.5 -144.5v-330q0 -94 -51.5 -144.5t-148.5 -50.5t-148.5 50.5t-51.5 144.5zM256 61q120 0 120 119v340q0 119 -120 119q-119 0 -119 -119v-340q0 -119 119 -119z" />
    <glyph glyph-name="P" unicode="P" horiz-adv-x="490" 
d="M147 0h-81v700h188q102 0 151 -45.5t49 -140.5v-29q0 -95 -49 -140.5t-151 -45.5h-107v-299zM147 629v-259h107q63 0 91 26.5t28 88.5v29q0 61 -28 88t-91 27h-107z" />
    <glyph glyph-name="Q" unicode="Q" horiz-adv-x="512" 
d="M468 -12h18v-71h-25q-96 0 -120 86q-33 -13 -85 -13q-97 0 -148.5 50.5t-51.5 144.5v330q0 94 51.5 144.5t148.5 50.5t148.5 -50.5t51.5 -144.5v-330q0 -104 -62 -154q16 -43 74 -43zM137 520v-340q0 -119 119 -119q120 0 120 119v340q0 119 -120 119q-119 0 -119 -119z
" />
    <glyph glyph-name="R" unicode="R" horiz-adv-x="510" 
d="M147 0h-81v700h189q198 0 198 -173v-18q0 -67 -26 -105.5t-83 -53.5v-1q57 -12 83 -51.5t26 -113.5v-88q0 -66 13 -96h-82q-11 38 -11 97v92q0 65 -30 92.5t-101 27.5h-95v-309zM147 629v-249h93q69 0 100.5 28t31.5 88v18q0 61 -28 88t-90 27h-107z" />
    <glyph glyph-name="S" unicode="S" horiz-adv-x="472" 
d="M234 -10q-91 0 -142 48.5t-51 131.5v29h76v-28q0 -51 31.5 -81.5t85.5 -30.5t85.5 30.5t31.5 81.5q0 53 -29 84q-28 30 -114 69q-97 45 -130 89q-34 46 -34 117q0 82 52 131t141 49q90 0 140 -48.5t50 -132.5v-17h-76v16q0 52 -30.5 82t-83.5 30q-51 0 -81.5 -30
t-30.5 -78q0 -50 29 -79q28 -28 116 -69q93 -43 127 -91q34 -46 34 -120q0 -83 -52.5 -133t-144.5 -50z" />
    <glyph glyph-name="T" unicode="T" horiz-adv-x="463" 
d="M272 0h-81v629h-163v71h407v-71h-163v-629z" />
    <glyph glyph-name="U" unicode="U" horiz-adv-x="516" 
d="M61 185v515h81v-520q0 -119 118 -119q117 0 117 119v520h78v-515q0 -93 -50.5 -144t-146.5 -51t-146.5 51t-50.5 144z" />
    <glyph glyph-name="V" unicode="V" horiz-adv-x="505" 
d="M304 0h-103l-173 700h83l144 -602l144 602h77z" />
    <glyph glyph-name="W" unicode="W" horiz-adv-x="708" 
d="M255 0h-104l-120 700h80l99 -595l108 595h78l109 -595l100 595h73l-121 -700h-99l-101 555z" />
    <glyph glyph-name="X" unicode="X" horiz-adv-x="507" 
d="M107 0h-80l180 358l-172 342h88l134 -270l134 270h81l-174 -342l182 -358h-89l-141 287z" />
    <glyph glyph-name="Y" unicode="Y" horiz-adv-x="500" 
d="M290 0h-81v306l-183 394h88l140 -302l139 302h81l-184 -394v-306z" />
    <glyph glyph-name="Z" unicode="Z" horiz-adv-x="459" 
d="M424 0h-391v69l300 560h-288v71h379v-69l-301 -560h301v-71z" />
    <glyph glyph-name="bracketleft" unicode="[" horiz-adv-x="330" 
d="M283 -100h-206v800h206v-63h-130v-674h130v-63z" />
    <glyph glyph-name="backslash" unicode="\" horiz-adv-x="464" 
d="M442 -100h-70l-350 800h69z" />
    <glyph glyph-name="bracketright" unicode="]" horiz-adv-x="330" 
d="M253 700v-800h-206v63h130v674h-130v63h206z" />
    <glyph glyph-name="asciicircum" unicode="^" 
d="M115 358h-73l181 342h62l181 -342h-73l-139 262z" />
    <glyph glyph-name="underscore" unicode="_" horiz-adv-x="400" 
d="M400 -104h-400v53h400v-53z" />
    <glyph glyph-name="grave" unicode="`" horiz-adv-x="635" 
d="M374 589h-71l-114 115h95z" />
    <glyph glyph-name="a" unicode="a" horiz-adv-x="462" 
d="M414 0h-72q-9 19 -10 88q-38 -98 -153 -98q-67 0 -104.5 35t-37.5 97q0 61 34.5 97t116.5 56q88 23 111 36q24 15 24 45q-1 88 -94 88q-48 0 -74 -24.5t-26 -66.5h-73q0 72 47 114.5t128 42.5q170 0 170 -169v-204q0 -98 13 -137zM199 56q59 0 91.5 36t32.5 104v67
q-19 -19 -114 -45q-52 -14 -73 -34t-21 -56q0 -72 84 -72z" />
    <glyph glyph-name="b" unicode="b" horiz-adv-x="483" 
d="M285 510q145 0 145 -165v-190q0 -165 -145 -165q-115 0 -153 99l-12 -89h-57v700h78v-270q42 80 144 80zM352 167v165q0 57 -22 83.5t-70 26.5q-57 0 -88 -36.5t-31 -103.5v-105q0 -67 31 -103t88 -36q48 0 70 26.5t22 82.5z" />
    <glyph glyph-name="c" unicode="c" horiz-adv-x="451" 
d="M232 -11q-88 0 -135 47t-47 135v156q0 88 47.5 135.5t134.5 47.5q86 0 131 -46t47 -132v-4h-75v7q0 107 -103 107q-50 0 -77 -28t-27 -79v-171q0 -107 104 -107q103 0 103 107v19h75v-12q0 -88 -45 -135t-133 -47z" />
    <glyph glyph-name="d" unicode="d" horiz-adv-x="485" 
d="M432 0h-71q-10 21 -11 86q-38 -96 -152 -96q-145 0 -145 165v190q0 165 145 165q102 0 144 -78v268h78v-563q0 -95 12 -137zM223 58q57 0 88 36t31 103v105q0 67 -31 103.5t-88 36.5q-48 0 -70 -26.5t-22 -83.5v-165q0 -56 22 -82.5t70 -26.5z" />
    <glyph glyph-name="e" unicode="e" horiz-adv-x="464" 
d="M233 510q89 0 136.5 -47.5t47.5 -135.5v-90h-290v-72q0 -52 27.5 -80.5t79.5 -28.5q51 0 79 28t28 77h76q-3 -82 -51 -126.5t-133 -44.5q-88 0 -136 47.5t-48 135.5v154q0 88 48 135.5t136 47.5zM127 336v-38h213v38q0 108 -107 108q-51 0 -78.5 -28t-27.5 -80z" />
    <glyph glyph-name="f" unicode="f" horiz-adv-x="340" 
d="M257 640q-38 0 -53.5 -17.5t-15.5 -59.5v-63h125v-65h-125v-435h-78v435h-83v65h83v70q0 140 136 140q38 0 67 -13v-68q-27 11 -56 11z" />
    <glyph glyph-name="g" unicode="g" horiz-adv-x="480" 
d="M347 411l2 89h67v-495q0 -85 -43.5 -127.5t-137.5 -42.5q-172 0 -178 134h76q6 -68 101 -68q54 0 79 24.5t25 79.5v100q-42 -77 -144 -77q-145 0 -145 165v152q0 165 145 165q116 0 153 -99zM219 96q58 0 88.5 36t30.5 103v67q0 67 -30.5 103.5t-88.5 36.5
q-92 0 -92 -110v-127q0 -109 92 -109z" />
    <glyph glyph-name="h" unicode="h" horiz-adv-x="483" 
d="M282 510q143 0 143 -165v-345h-78v332q0 110 -89 110q-56 0 -86.5 -36.5t-30.5 -103.5v-302h-78v700h78v-269q42 79 141 79z" />
    <glyph glyph-name="i" unicode="i" horiz-adv-x="204" 
d="M142 589h-78v115h78v-115zM141 0h-78v500h78v-500z" />
    <glyph glyph-name="j" unicode="j" horiz-adv-x="204" 
d="M142 589h-78v115h78v-115zM32 -165q-35 0 -57 13v66q35 -18 63.5 -8t24.5 51v543h78v-546q0 -119 -109 -119z" />
    <glyph glyph-name="k" unicode="k" horiz-adv-x="480" 
d="M455 0h-88l-138 251l-88 -101v-150h-78v700h78v-456l217 256h89l-162 -189z" />
    <glyph glyph-name="l" unicode="l" horiz-adv-x="204" 
d="M141 0h-78v700h78v-700z" />
    <glyph glyph-name="m" unicode="m" horiz-adv-x="748" 
d="M552 510q138 0 138 -165v-345h-78v332q0 110 -86 110q-52 0 -81 -36.5t-29 -103.5v-302h-78v332q0 110 -86 110q-53 0 -82 -36.5t-29 -103.5v-302h-78v500h68l1 -89q36 99 145 99q105 0 131 -96q36 96 144 96z" />
    <glyph glyph-name="n" unicode="n" horiz-adv-x="483" 
d="M282 510q143 0 143 -165v-345h-78v332q0 110 -89 110q-56 0 -86.5 -36.5t-30.5 -103.5v-302h-78v500h68l1 -90q36 100 150 100z" />
    <glyph glyph-name="o" unicode="o" horiz-adv-x="465" 
d="M233 -10q-89 0 -136.5 48t-47.5 136v153q0 88 48 135.5t136 47.5t135.5 -47.5t47.5 -135.5v-153q0 -88 -47.5 -136t-135.5 -48zM338 166v168q0 52 -27 80t-78 28t-78.5 -28t-27.5 -80v-168q0 -52 27.5 -80t78.5 -28t78 28t27 80z" />
    <glyph glyph-name="p" unicode="p" horiz-adv-x="483" 
d="M285 510q145 0 145 -165v-190q0 -165 -145 -165q-102 0 -144 79v-224h-78v655h68l1 -90q37 100 153 100zM352 167v165q0 57 -22 83.5t-70 26.5q-57 0 -88 -36.5t-31 -103.5v-105q0 -67 31 -103t88 -36q48 0 70 26.5t22 82.5z" />
    <glyph glyph-name="q" unicode="q" horiz-adv-x="484" 
d="M351 412l13 88h56v-655h-78v222q-42 -77 -144 -77q-145 0 -145 165v190q0 165 145 165q115 0 153 -98zM223 58q58 0 88.5 36t30.5 103v105q0 67 -30.5 103.5t-88.5 36.5q-92 0 -92 -110v-165q0 -109 92 -109z" />
    <glyph glyph-name="r" unicode="r" horiz-adv-x="337" 
d="M268 510q29 0 43 -7v-76q-19 6 -41 6q-129 0 -129 -170v-263h-78v500h68l1 -99q31 109 136 109z" />
    <glyph glyph-name="s" unicode="s" horiz-adv-x="430" 
d="M218 -10q-86 0 -132.5 38t-46.5 105v18h75v-17q0 -79 100 -79t100 84q0 38 -35 55q-25 12 -82 24q-61 12 -103 41q-47 32 -47 105q0 68 45 107t123 39q76 0 121.5 -37.5t45.5 -102.5v-9h-74v9q0 75 -93 75q-43 0 -68 -20.5t-25 -58.5q0 -26 17 -43q17 -15 35.5 -21.5
t65.5 -17.5q65 -16 102 -40q49 -30 49 -103q0 -71 -45.5 -111t-127.5 -40z" />
    <glyph glyph-name="t" unicode="t" horiz-adv-x="347" 
d="M313 500v-65h-125v-297q0 -43 15.5 -60.5t53.5 -17.5q29 0 56 11v-68q-29 -13 -67 -13q-136 0 -136 140v305h-83v65h85l7 140h69v-140h125z" />
    <glyph glyph-name="u" unicode="u" horiz-adv-x="484" 
d="M342 198v302h78v-500h-68l-1 88q-38 -98 -150 -98q-143 0 -143 165v345h78v-332q0 -110 89 -110q56 0 86.5 36.5t30.5 103.5z" />
    <glyph glyph-name="v" unicode="v" horiz-adv-x="455" 
d="M277 0h-99l-152 500h82l123 -419l122 419h76z" />
    <glyph glyph-name="w" unicode="w" horiz-adv-x="670" 
d="M244 0h-100l-116 500h78l96 -416l94 416h85l94 -416l95 416h72l-116 -500h-95l-93 413z" />
    <glyph glyph-name="x" unicode="x" horiz-adv-x="457" 
d="M103 0h-78l158 256l-151 244h85l114 -188l115 188h78l-151 -244l159 -256h-86l-121 203z" />
    <glyph glyph-name="y" unicode="y" horiz-adv-x="453" 
d="M236 104l116 396h75l-169 -557q-18 -57 -51 -82.5t-88 -25.5q-43 0 -69 14v68q28 -14 61 -14q55 0 73 54l11 36l-170 507h82z" />
    <glyph glyph-name="z" unicode="z" horiz-adv-x="414" 
d="M379 0h-346v65l262 368h-250v67h334v-65l-263 -369h263v-66z" />
    <glyph glyph-name="braceleft" unicode="{" horiz-adv-x="330" 
d="M293 -100h-49q-126 0 -126 134v131q0 58 -18 80.5t-65 22.5v64q47 0 65 22t18 79v133q0 134 126 134h49v-66h-21q-45 0 -61.5 -20.5t-16.5 -76.5v-114q0 -104 -73 -123v-1q73 -19 73 -124v-112q0 -56 16.5 -76.5t61.5 -20.5h21v-66z" />
    <glyph glyph-name="bar" unicode="|" horiz-adv-x="400" 
d="M235 -200h-69v1000h69v-1000z" />
    <glyph glyph-name="braceright" unicode="}" horiz-adv-x="330" 
d="M87 -100h-49v66h20q46 0 62.5 20.5t16.5 76.5v112q0 55 17.5 84.5t55.5 39.5v1q-38 11 -55.5 40t-17.5 83v114q0 56 -16.5 76.5t-62.5 20.5h-20v66h49q126 0 126 -134v-133q0 -57 18 -79t64 -22v-64q-46 0 -64 -22.5t-18 -80.5v-131q0 -134 -126 -134z" />
    <glyph glyph-name="asciitilde" unicode="~" 
d="M72 223l-48 35q34 60 65.5 87.5t72.5 27.5q44 0 99 -39q55 -40 84 -40q26 0 44.5 17.5t46.5 64.5l49 -35q-34 -60 -66.5 -87.5t-73.5 -27.5q-44 0 -99 40q-19 14 -33 22q-25 17 -50 17q-26 0 -44 -17.5t-47 -64.5z" />
    <glyph glyph-name="uni00A0" unicode="&#xa0;" horiz-adv-x="184" 
 />
    <glyph glyph-name="exclamdown" unicode="&#xa1;" horiz-adv-x="236" 
d="M77 500h82v-102h-82v102zM88 323h59l11 -197v-327h-80v327z" />
    <glyph glyph-name="cent" unicode="&#xa2;" 
d="M452 459v-16h-76v18q0 55 -31 85.5t-86 30.5q-54 0 -84.5 -30.5t-30.5 -85.5v-224q0 -55 30 -85t85 -30t86 30.5t31 84.5v39h76v-37q0 -81 -42 -129.5t-120 -56.5v-74h-67v74q-76 9 -118 57.5t-42 128.5v220q0 80 42 129t118 58v64h67v-64q78 -8 120 -57t42 -130z" />
    <glyph glyph-name="sterling" unicode="&#xa3;" 
d="M454 0h-400v69q125 56 125 145q0 22 -4 34h-114v67h91l-33 54l-27 45q-24 50 -24 114q0 77 49 129q50 53 146 53t145.5 -51.5t49.5 -138.5v-16h-77v20q0 52 -29 83.5t-88 31.5q-57 0 -86 -32t-29 -83q0 -33 9 -66q12 -35 18 -49l27 -49q13 -21 24 -45h189v-67h-173
q2 -22 2 -25q0 -44 -25 -84t-74 -67h308v-72z" />
    <glyph glyph-name="currency" unicode="&#xa4;" 
d="M407 351q0 -47 -27 -88l70 -67l-40 -40l-66 70q-40 -28 -89 -28q-51 0 -88 28l-66 -70l-40 40l70 67q-27 38 -27 88q0 47 27 87l-70 66l40 40l66 -70q37 28 88 28t89 -28l66 70l40 -40l-70 -66q27 -40 27 -87zM255 259q40 0 65.5 26t25.5 66q0 39 -25.5 64.5t-65.5 25.5
q-39 0 -64.5 -25.5t-25.5 -64.5q0 -40 25.5 -66t64.5 -26z" />
    <glyph glyph-name="yen" unicode="&#xa5;" 
d="M396 700h82l-177 -380h134v-55h-140v-86h140v-55h-140v-124h-81v124h-136v55h136v86h-136v55h130l-178 380h90l137 -306z" />
    <glyph glyph-name="brokenbar" unicode="&#xa6;" horiz-adv-x="400" 
d="M235 400h-69v400h69v-400zM235 -200h-69v400h69v-400z" />
    <glyph glyph-name="section" unicode="&#xa7;" horiz-adv-x="531" 
d="M391 161q62 -41 62 -112q0 -73 -50.5 -114.5t-137.5 -41.5q-85 0 -136.5 41.5t-51.5 110.5v11h75v-11q0 -41 29.5 -63t84.5 -22q111 0 111 87q0 38 -34 59.5t-113 39.5q-94 20 -138.5 55t-44.5 101q0 102 92 140q-62 41 -62 112q0 73 50.5 114.5t137.5 41.5
q85 0 136.5 -41.5t51.5 -110.5v-11h-75v11q0 41 -29 63t-84 22q-111 0 -111 -87q0 -38 34 -59.5t113 -39.5q93 -20 138 -55.5t45 -100.5q0 -103 -93 -140zM125 309q0 -41 35 -64.5t113 -39.5l38 -9q94 7 94 98q0 41 -35 64.5t-113 39.5l-38 9q-94 -7 -94 -98z" />
    <glyph glyph-name="dieresis" unicode="&#xa8;" horiz-adv-x="635" 
d="M284 589h-77v115h77v-115zM429 589h-77v115h77v-115z" />
    <glyph glyph-name="copyright" unicode="&#xa9;" horiz-adv-x="780" 
d="M639 92q-99 -102 -249 -102t-249 102q-99 104 -99 258q0 155 99 257q99 103 249 103t249 -103q99 -102 99 -257q0 -154 -99 -258zM174 125q85 -88 216 -88t215 88q85 88 85 225q0 136 -85 224q-84 89 -215 89q-130 0 -216 -89q-84 -88 -84 -224t84 -225zM385 128
q-54 0 -84 32t-30 87v206q0 55 30 87t84 32q56 0 86.5 -31.5t30.5 -87.5v-29h-48v31q0 73 -67 73q-30 0 -48 -19t-18 -54v-210q0 -35 18 -54.5t48 -19.5q31 0 49 19t18 55v41h48v-39q0 -56 -31 -87.5t-86 -31.5z" />
    <glyph glyph-name="ordfeminine" unicode="&#xaa;" horiz-adv-x="356" 
d="M145 547q57 13 74 24t17 30q0 56 -61 56q-64 0 -64 -59h-59q0 52 32.5 82t91.5 30q124 0 124 -122v-139q0 -68 8 -97h-58q-6 11 -8 58q-27 -65 -104 -65q-47 0 -74 25t-27 69q0 43 25 68t83 40zM236 489v44q-15 -15 -74 -30q-33 -9 -47 -22.5t-14 -36.5q0 -46 54 -46
q37 0 59 23.5t22 67.5zM300 233h-263v42h263v-42z" />
    <glyph glyph-name="guillemotleft" unicode="&#xab;" horiz-adv-x="364" 
d="M174 176h-59l-76 125l76 121h59l-60 -121zM322 176h-60l-75 125l75 121h60l-60 -121z" />
    <glyph glyph-name="logicalnot" unicode="&#xac;" 
d="M456 128h-67v184h-361v66h428v-250z" />
    <glyph glyph-name="uni00AD" unicode="&#xad;" horiz-adv-x="333" 
d="M292 267h-252v66h252v-66z" />
    <glyph glyph-name="registered" unicode="&#xae;" horiz-adv-x="780" 
d="M639 92q-99 -102 -249 -102t-249 102q-99 104 -99 258q0 155 99 257q99 103 249 103t249 -103q99 -102 99 -257q0 -154 -99 -258zM174 125q85 -88 216 -88t215 88q85 88 85 225q0 136 -85 224q-84 89 -215 89q-130 0 -216 -89q-84 -88 -84 -224t84 -225zM330 136h-50v428
h112q120 0 120 -105v-12q0 -79 -64 -97v-1q64 -13 64 -101v-53q0 -41 7 -59h-51q-6 22 -6 59v56q0 39 -18 56t-59 17h-55v-188zM330 520v-150h54q78 0 78 69v12q0 69 -70 69h-62z" />
    <glyph glyph-name="overscore" unicode="&#xaf;" horiz-adv-x="635" 
d="M447 614h-258v64h258v-64z" />
    <glyph glyph-name="degree" unicode="&#xb0;" 
d="M128 583q0 56 35 91.5t91 35.5t91 -35.5t35 -91.5q0 -57 -35 -92t-91 -35t-91 35t-35 92zM202 531q20 -20 52 -20q31 0 51 20t20 52q0 31 -20 51t-51 20q-32 0 -52 -20q-19 -19 -19 -51q0 -33 19 -52z" />
    <glyph glyph-name="plusminus" unicode="&#xb1;" 
d="M455 67h-402v66h168v166h-168v66h168v171h66v-171h168v-66h-168v-166h168v-66z" />
    <glyph glyph-name="uni00B2" unicode="&#xb2;" horiz-adv-x="350" 
d="M295 351h-243v46q0 51 22 90t79 83q49 37 67 61q19 23 19 60q0 64 -62 64q-30 0 -47 -18.5t-17 -51.5v-28h-60v28q0 56 32.5 91t92.5 35q59 0 91.5 -33t32.5 -86q0 -49 -25 -83q-26 -35 -89 -85q-42 -33 -58 -57.5t-16 -52.5v-7h181v-56z" />
    <glyph glyph-name="uni00B3" unicode="&#xb3;" horiz-adv-x="350" 
d="M46 466v22h60v-23q0 -68 64 -68q65 0 65 70v15q0 73 -71 73h-32v57h34q31 0 49 17.5t18 49.5v12q0 64 -62 64q-29 0 -45.5 -17.5t-16.5 -48.5v-13h-61v9q0 60 33 93t92 33t91.5 -31.5t32.5 -87.5v-10q0 -33 -18 -59t-48 -37v-1q67 -22 67 -103v-14q0 -62 -33 -94.5
t-94 -32.5t-93 32t-32 93z" />
    <glyph glyph-name="acute" unicode="&#xb4;" horiz-adv-x="635" 
d="M333 589h-71l90 115h95z" />
    <glyph glyph-name="uni00B5" unicode="&#xb5;" horiz-adv-x="488" 
d="M347 198v302h78v-500h-68l-1 88q-38 -98 -150 -98q-38 0 -65 12v-157h-78v655h78v-332q0 -110 89 -110q56 0 86.5 36.5t30.5 103.5z" />
    <glyph glyph-name="paragraph" unicode="&#xb6;" horiz-adv-x="566" 
d="M312 -97h-66v401q-196 3 -196 161v65q0 170 207 170h230v-797h-65v736h-110v-736z" />
    <glyph glyph-name="middot" unicode="&#xb7;" horiz-adv-x="221" 
d="M151 248h-81v107h81v-107z" />
    <glyph glyph-name="cedilla" unicode="&#xb8;" horiz-adv-x="635" 
d="M320 -165q-95 0 -95 61v8h47v-9q0 -27 46 -27q51 0 51 29q0 28 -49 28h-13v82h34v-57q76 0 76 -53q0 -34 -24 -48t-73 -14z" />
    <glyph glyph-name="uni00B9" unicode="&#xb9;" horiz-adv-x="350" 
d="M231 351h-64v362q-30 -15 -77 -18v44q38 1 59 15t33 47h49v-450z" />
    <glyph glyph-name="ordmasculine" unicode="&#xba;" horiz-adv-x="353" 
d="M46 474v107q0 62 34 95.5t97 33.5q62 0 96 -33.5t34 -95.5v-107q0 -62 -34 -95.5t-96 -33.5t-96.5 33.5t-34.5 95.5zM177 400q32 0 50 18t18 50v119q0 32 -18 50t-50 18q-67 0 -67 -68v-119q0 -68 67 -68zM307 233h-261v42h261v-42z" />
    <glyph glyph-name="guillemotright" unicode="&#xbb;" horiz-adv-x="363" 
d="M102 176h-60l59 125l-59 121h60l75 -121zM250 176h-60l59 125l-59 121h60l74 -121z" />
    <glyph glyph-name="onequarter" unicode="&#xbc;" horiz-adv-x="808" 
d="M231 256h-64v362q-30 -15 -77 -18v44q38 1 59 15t33 47h49v-450zM260 0h-59l347 700h58zM739 0h-64v85h-196v56l187 309h73v-309h47v-56h-47v-85zM675 363l-133 -222h133v222z" />
    <glyph glyph-name="onehalf" unicode="&#xbd;" horiz-adv-x="808" 
d="M231 256h-64v362q-30 -15 -77 -18v44q38 1 59 15t33 47h49v-450zM260 0h-59l347 700h58zM752 0h-243v46q0 51 22 90t79 83q49 37 67 61q19 23 19 60q0 64 -62 64q-30 0 -47 -18.5t-17 -51.5v-28h-60v28q0 56 32.5 91t92.5 35q59 0 91.5 -33t32.5 -86q0 -49 -25 -83
q-26 -35 -89 -85q-42 -33 -58 -57.5t-16 -52.5v-7h181v-56z" />
    <glyph glyph-name="threequarters" unicode="&#xbe;" horiz-adv-x="808" 
d="M46 371v22h60v-23q0 -68 64 -68q65 0 65 70v15q0 73 -71 73h-32v57h34q31 0 49 17.5t18 49.5v12q0 64 -62 64q-29 0 -45.5 -17.5t-16.5 -48.5v-13h-61v9q0 60 33 93t92 33t91.5 -31.5t32.5 -87.5v-10q0 -33 -18 -59t-48 -37v-1q67 -22 67 -103v-14q0 -61 -33 -94t-94 -33
t-93 32t-32 93zM260 0h-59l347 700h58zM739 0h-64v85h-196v56l187 309h73v-309h47v-56h-47v-85zM675 363l-133 -222h133v222z" />
    <glyph glyph-name="questiondown" unicode="&#xbf;" horiz-adv-x="461" 
d="M212 500h82v-102h-82v102zM217 323h71v-23q0 -54 -19.5 -94.5t-66.5 -86.5q-47 -47 -67 -81q-19 -32 -19 -76q0 -101 115 -101q61 0 89.5 29.5t28.5 90.5v40h77v-40q0 -191 -196 -191q-95 0 -144 44.5t-49 126.5q0 53 21.5 95t72.5 90q49 44 67 78q19 34 19 81v18z" />
    <glyph glyph-name="Agrave" unicode="&#xc0;" horiz-adv-x="507" 
d="M216 894l90 -115h-71l-114 115h95zM479 0h-84l-35 148h-220l-35 -148h-77l170 700h109zM249 609l-92 -390h185z" />
    <glyph glyph-name="Aacute" unicode="&#xc1;" horiz-adv-x="507" 
d="M284 894h95l-114 -115h-71zM479 0h-84l-35 148h-220l-35 -148h-77l170 700h109zM249 609l-92 -390h185z" />
    <glyph glyph-name="Acircumflex" unicode="&#xc2;" horiz-adv-x="507" 
d="M319 779l-69 68l-68 -68h-71l94 115h90l94 -115h-70zM479 0h-84l-35 148h-220l-35 -148h-77l170 700h109zM249 609l-92 -390h185z" />
    <glyph glyph-name="Atilde" unicode="&#xc3;" horiz-adv-x="507" 
d="M196 828q-29 0 -51 -52l-44 24q39 89 95 89q32 0 67 -27q26 -19 41 -19q29 0 51 52l45 -24q-40 -88 -96 -88q-33 0 -67 26q-26 19 -41 19zM479 0h-84l-35 148h-220l-35 -148h-77l170 700h109zM249 609l-92 -390h185z" />
    <glyph glyph-name="Adieresis" unicode="&#xc4;" horiz-adv-x="507" 
d="M139 894h77v-115h-77v115zM284 894h77v-115h-77v115zM479 0h-84l-35 148h-220l-35 -148h-77l170 700h109zM249 609l-92 -390h185z" />
    <glyph glyph-name="Aring" unicode="&#xc5;" horiz-adv-x="507" 
d="M155 867q0 41 27 68.5t68 27.5t68 -27.5t27 -68.5q0 -39 -27 -66.5t-68 -27.5t-68 27.5t-27 66.5zM284 902q-14 14 -34 14t-34 -14t-14 -35t14 -35q14 -13 34 -13t34 13q14 14 14 35t-14 35zM479 0h-84l-35 148h-220l-35 -148h-77l170 700h109zM249 609l-92 -390h185z
" />
    <glyph glyph-name="AE" unicode="&#xc6;" horiz-adv-x="750" 
d="M716 700v-71h-275v-239h225v-70h-225v-249h275v-71h-356v148h-192l-62 -148h-80l296 700h394zM360 608l-163 -390h163v390z" />
    <glyph glyph-name="Ccedilla" unicode="&#xc7;" horiz-adv-x="489" 
d="M445 517v-48h-77v51q0 57 -31 88.5t-86 31.5q-54 0 -84 -31.5t-30 -88.5v-340q0 -57 30 -88.5t84 -31.5q55 0 86 31.5t31 88.5v71h77v-68q0 -87 -46.5 -137.5t-130.5 -54.5v-41q76 0 76 -53q0 -34 -24 -48t-73 -14q-95 0 -95 61v8h47v-9q0 -27 46 -27q51 0 51 29
q0 28 -49 28h-13v65q-84 5 -131 55.5t-47 137.5v334q0 91 51 142t142 51q94 0 145 -50.5t51 -142.5z" />
    <glyph glyph-name="Egrave" unicode="&#xc8;" horiz-adv-x="457" 
d="M301 779h-71l-114 115h95zM423 0h-357v700h357v-71h-276v-239h226v-70h-226v-249h276v-71z" />
    <glyph glyph-name="Eacute" unicode="&#xc9;" horiz-adv-x="457" 
d="M260 779h-71l90 115h95zM423 0h-357v700h357v-71h-276v-239h226v-70h-226v-249h276v-71z" />
    <glyph glyph-name="Ecircumflex" unicode="&#xca;" horiz-adv-x="457" 
d="M177 779h-71l94 115h90l94 -115h-70l-69 68zM423 0h-357v700h357v-71h-276v-239h226v-70h-226v-249h276v-71z" />
    <glyph glyph-name="Edieresis" unicode="&#xcb;" horiz-adv-x="457" 
d="M211 779h-77v115h77v-115zM356 779h-77v115h77v-115zM423 0h-357v700h357v-71h-276v-239h226v-70h-226v-249h276v-71z" />
    <glyph glyph-name="Igrave" unicode="&#xcc;" horiz-adv-x="213" 
d="M163 779h-71l-114 115h95zM147 0h-81v700h81v-700z" />
    <glyph glyph-name="Iacute" unicode="&#xcd;" horiz-adv-x="213" 
d="M122 779h-71l90 115h95zM147 0h-81v700h81v-700z" />
    <glyph glyph-name="Icircumflex" unicode="&#xce;" horiz-adv-x="213" 
d="M39 779h-71l94 115h90l94 -115h-70l-69 68zM147 0h-81v700h81v-700z" />
    <glyph glyph-name="Idieresis" unicode="&#xcf;" horiz-adv-x="213" 
d="M73 779h-77v115h77v-115zM218 779h-77v115h77v-115zM147 0h-81v700h81v-700z" />
    <glyph glyph-name="Eth" unicode="&#xd0;" horiz-adv-x="530" 
d="M81 700h197q198 0 198 -192v-316q0 -192 -198 -192h-197v331h-57v67h57v302zM395 190v320q0 63 -28 91t-91 28h-115v-231h111v-67h-111v-260h115q63 0 91 28t28 91z" />
    <glyph glyph-name="Ntilde" unicode="&#xd1;" horiz-adv-x="541" 
d="M166 776l-44 24q39 89 95 89q33 0 67 -27q26 -19 41 -19q29 0 51 52l45 -24q-40 -88 -96 -88q-33 0 -67 26q-26 19 -41 19q-29 0 -51 -52zM140 0h-74v700h106l228 -533v533h75v-700h-85l-250 588v-588z" />
    <glyph glyph-name="Ograve" unicode="&#xd2;" horiz-adv-x="512" 
d="M312 779h-71l-114 115h95zM56 185v330q0 94 51.5 144.5t148.5 50.5t148.5 -50.5t51.5 -144.5v-330q0 -94 -51.5 -144.5t-148.5 -50.5t-148.5 50.5t-51.5 144.5zM256 61q120 0 120 119v340q0 119 -120 119q-119 0 -119 -119v-340q0 -119 119 -119z" />
    <glyph glyph-name="Oacute" unicode="&#xd3;" horiz-adv-x="512" 
d="M271 779h-71l90 115h95zM56 185v330q0 94 51.5 144.5t148.5 50.5t148.5 -50.5t51.5 -144.5v-330q0 -94 -51.5 -144.5t-148.5 -50.5t-148.5 50.5t-51.5 144.5zM256 61q120 0 120 119v340q0 119 -120 119q-119 0 -119 -119v-340q0 -119 119 -119z" />
    <glyph glyph-name="Ocircumflex" unicode="&#xd4;" horiz-adv-x="512" 
d="M188 779h-71l94 115h90l94 -115h-70l-69 68zM56 185v330q0 94 51.5 144.5t148.5 50.5t148.5 -50.5t51.5 -144.5v-330q0 -94 -51.5 -144.5t-148.5 -50.5t-148.5 50.5t-51.5 144.5zM256 61q120 0 120 119v340q0 119 -120 119q-119 0 -119 -119v-340q0 -119 119 -119z" />
    <glyph glyph-name="Otilde" unicode="&#xd5;" horiz-adv-x="512" 
d="M151 776l-44 24q39 89 95 89q32 0 67 -27q26 -19 41 -19q29 0 51 52l45 -24q-40 -88 -96 -88q-33 0 -67 26q-26 19 -41 19q-29 0 -51 -52zM56 185v330q0 94 51.5 144.5t148.5 50.5t148.5 -50.5t51.5 -144.5v-330q0 -94 -51.5 -144.5t-148.5 -50.5t-148.5 50.5
t-51.5 144.5zM256 61q120 0 120 119v340q0 119 -120 119q-119 0 -119 -119v-340q0 -119 119 -119z" />
    <glyph glyph-name="Odieresis" unicode="&#xd6;" horiz-adv-x="512" 
d="M222 779h-77v115h77v-115zM367 779h-77v115h77v-115zM56 185v330q0 94 51.5 144.5t148.5 50.5t148.5 -50.5t51.5 -144.5v-330q0 -94 -51.5 -144.5t-148.5 -50.5t-148.5 50.5t-51.5 144.5zM256 61q120 0 120 119v340q0 119 -120 119q-119 0 -119 -119v-340
q0 -119 119 -119z" />
    <glyph glyph-name="multiply" unicode="&#xd7;" 
d="M254 256l-149 -152l-44 45l148 151l-148 151l44 45l149 -152l149 152l44 -45l-148 -151l148 -151l-44 -45z" />
    <glyph glyph-name="Oslash" unicode="&#xd8;" horiz-adv-x="512" 
d="M417 726l46 -26l-35 -70q28 -46 28 -115v-330q0 -94 -51.5 -144.5t-148.5 -50.5q-84 0 -134 38l-27 -54l-46 26l35 70q-28 46 -28 115v330q0 94 51.5 144.5t148.5 50.5q84 0 134 -38zM137 520v-346l216 426q-30 39 -97 39q-119 0 -119 -119zM376 180v348l-217 -427
q30 -40 97 -40q120 0 120 119z" />
    <glyph glyph-name="Ugrave" unicode="&#xd9;" horiz-adv-x="516" 
d="M314 779h-71l-114 115h95zM61 185v515h81v-520q0 -119 118 -119q117 0 117 119v520h78v-515q0 -93 -50.5 -144t-146.5 -51t-146.5 51t-50.5 144z" />
    <glyph glyph-name="Uacute" unicode="&#xda;" horiz-adv-x="516" 
d="M273 779h-71l90 115h95zM61 185v515h81v-520q0 -119 118 -119q117 0 117 119v520h78v-515q0 -93 -50.5 -144t-146.5 -51t-146.5 51t-50.5 144z" />
    <glyph glyph-name="Ucircumflex" unicode="&#xdb;" horiz-adv-x="516" 
d="M190 779h-71l94 115h90l94 -115h-70l-69 68zM61 185v515h81v-520q0 -119 118 -119q117 0 117 119v520h78v-515q0 -93 -50.5 -144t-146.5 -51t-146.5 51t-50.5 144z" />
    <glyph glyph-name="Udieresis" unicode="&#xdc;" horiz-adv-x="516" 
d="M224 779h-77v115h77v-115zM369 779h-77v115h77v-115zM61 185v515h81v-520q0 -119 118 -119q117 0 117 119v520h78v-515q0 -93 -50.5 -144t-146.5 -51t-146.5 51t-50.5 144z" />
    <glyph glyph-name="Yacute" unicode="&#xdd;" horiz-adv-x="500" 
d="M264 779h-71l90 115h95zM290 0h-81v306l-183 394h88l140 -302l139 302h81l-184 -394v-306z" />
    <glyph glyph-name="Thorn" unicode="&#xde;" horiz-adv-x="490" 
d="M147 0h-81v700h81v-104h107q102 0 151 -45.5t49 -140.5v-29q0 -95 -49 -141t-151 -46h-107v-194zM147 525v-260h107q63 0 91 27t28 89v29q0 62 -28 88.5t-91 26.5h-107z" />
    <glyph glyph-name="germandbls" unicode="&#xdf;" horiz-adv-x="500" 
d="M298 -10q-44 0 -75 10v67q27 -8 62 -8q104 0 104 77q0 17 -11 33q-9 15 -19 23.5t-35 23.5t-45 29q-15 14 -31 41q-16 28 -16 65q0 34 11.5 58.5t37.5 53.5q47 52 47 100q0 81 -92 81q-95 0 -95 -96v-548h-78v546q0 164 175 164q77 0 122.5 -37.5t45.5 -107.5
q0 -32 -10 -56q-13 -35 -45 -70q-4 -4 -22 -26q-20 -27 -20 -59q0 -20 11 -39q11 -17 21.5 -25.5t37.5 -25.5q27 -16 43 -30q18 -14 31.5 -40.5t13.5 -57.5q0 -70 -42.5 -108t-126.5 -38z" />
    <glyph glyph-name="agrave" unicode="&#xe0;" horiz-adv-x="462" 
d="M192 704l90 -115h-71l-114 115h95zM414 0h-72q-9 19 -10 88q-38 -98 -153 -98q-67 0 -104.5 35t-37.5 97q0 61 34.5 97t116.5 56q88 23 111 36q24 15 24 45q-1 88 -94 88q-48 0 -74 -24.5t-26 -66.5h-73q0 72 47 114.5t128 42.5q170 0 170 -169v-204q0 -98 13 -137z
M199 56q59 0 91.5 36t32.5 104v67q-19 -19 -114 -45q-52 -14 -73 -34t-21 -56q0 -72 84 -72z" />
    <glyph glyph-name="aacute" unicode="&#xe1;" horiz-adv-x="462" 
d="M260 704h95l-114 -115h-71zM414 0h-72q-9 19 -10 88q-38 -98 -153 -98q-67 0 -104.5 35t-37.5 97q0 61 34.5 97t116.5 56q88 23 111 36q24 15 24 45q-1 88 -94 88q-48 0 -74 -24.5t-26 -66.5h-73q0 72 47 114.5t128 42.5q170 0 170 -169v-204q0 -98 13 -137zM199 56
q59 0 91.5 36t32.5 104v67q-19 -19 -114 -45q-52 -14 -73 -34t-21 -56q0 -72 84 -72z" />
    <glyph glyph-name="acircumflex" unicode="&#xe2;" horiz-adv-x="462" 
d="M295 589l-69 68l-68 -68h-71l94 115h90l94 -115h-70zM414 0h-72q-9 19 -10 88q-38 -98 -153 -98q-67 0 -104.5 35t-37.5 97q0 61 34.5 97t116.5 56q88 23 111 36q24 15 24 45q-1 88 -94 88q-48 0 -74 -24.5t-26 -66.5h-73q0 72 47 114.5t128 42.5q170 0 170 -169v-204
q0 -98 13 -137zM199 56q59 0 91.5 36t32.5 104v67q-19 -19 -114 -45q-52 -14 -73 -34t-21 -56q0 -72 84 -72z" />
    <glyph glyph-name="atilde" unicode="&#xe3;" horiz-adv-x="462" 
d="M172 638q-29 0 -51 -52l-44 24q39 89 95 89q32 0 67 -27q26 -19 41 -19q29 0 51 52l45 -24q-40 -88 -96 -88q-33 0 -67 26q-26 19 -41 19zM414 0h-72q-9 19 -10 88q-38 -98 -153 -98q-67 0 -104.5 35t-37.5 97q0 61 34.5 97t116.5 56q88 23 111 36q24 15 24 45
q-1 88 -94 88q-48 0 -74 -24.5t-26 -66.5h-73q0 72 47 114.5t128 42.5q170 0 170 -169v-204q0 -98 13 -137zM199 56q59 0 91.5 36t32.5 104v67q-19 -19 -114 -45q-52 -14 -73 -34t-21 -56q0 -72 84 -72z" />
    <glyph glyph-name="adieresis" unicode="&#xe4;" horiz-adv-x="462" 
d="M115 704h77v-115h-77v115zM260 704h77v-115h-77v115zM414 0h-72q-9 19 -10 88q-38 -98 -153 -98q-67 0 -104.5 35t-37.5 97q0 61 34.5 97t116.5 56q88 23 111 36q24 15 24 45q-1 88 -94 88q-48 0 -74 -24.5t-26 -66.5h-73q0 72 47 114.5t128 42.5q170 0 170 -169v-204
q0 -98 13 -137zM199 56q59 0 91.5 36t32.5 104v67q-19 -19 -114 -45q-52 -14 -73 -34t-21 -56q0 -72 84 -72z" />
    <glyph glyph-name="aring" unicode="&#xe5;" horiz-adv-x="462" 
d="M131 677q0 41 27 68.5t68 27.5t68 -27.5t27 -68.5q0 -39 -27 -66.5t-68 -27.5t-68 27.5t-27 66.5zM260 712q-14 14 -34 14t-34 -14t-14 -35t14 -35q14 -13 34 -13t34 13q14 14 14 35t-14 35zM414 0h-72q-9 19 -10 88q-38 -98 -153 -98q-67 0 -104.5 35t-37.5 97
q0 61 34.5 97t116.5 56q88 23 111 36q24 15 24 45q-1 88 -94 88q-48 0 -74 -24.5t-26 -66.5h-73q0 72 47 114.5t128 42.5q170 0 170 -169v-204q0 -98 13 -137zM199 56q59 0 91.5 36t32.5 104v67q-19 -19 -114 -45q-52 -14 -73 -34t-21 -56q0 -72 84 -72z" />
    <glyph glyph-name="ae" unicode="&#xe6;" horiz-adv-x="738" 
d="M514 510q85 0 131 -47.5t46 -135.5v-90h-290v-72q0 -52 27.5 -80.5t79.5 -28.5q51 0 79 28t28 77h76q-2 -81 -50 -126t-134 -45q-119 0 -163 84q-40 -84 -158 -84q-71 0 -110 35t-39 97q0 61 34.5 97t116.5 56q88 23 110 36q23 15 25 45q-1 88 -94 88q-48 0 -74 -24.5
t-26 -66.5h-73q0 71 45.5 114t122.5 43q109 0 142 -80q41 80 148 80zM401 336v-38h213v38q0 108 -106 108q-52 0 -79.5 -28t-27.5 -80zM199 56q59 0 91.5 36t32.5 104v67q-19 -19 -114 -45q-52 -14 -73 -34t-21 -56q0 -72 84 -72z" />
    <glyph glyph-name="ccedilla" unicode="&#xe7;" horiz-adv-x="451" 
d="M410 332v-4h-75v7q0 107 -103 107q-50 0 -77 -28t-27 -79v-171q0 -107 104 -107q103 0 103 107v19h75v-12q0 -172 -160 -181v-40q76 0 76 -53q0 -34 -24 -48t-73 -14q-95 0 -95 61v8h47v-9q0 -27 46 -27q51 0 51 29q0 28 -49 28h-13v64q-81 4 -123.5 51t-42.5 131v156
q0 88 47.5 135.5t134.5 47.5q86 0 131 -46t47 -132z" />
    <glyph glyph-name="egrave" unicode="&#xe8;" horiz-adv-x="464" 
d="M200 704l90 -115h-71l-114 115h95zM233 510q89 0 136.5 -47.5t47.5 -135.5v-90h-290v-72q0 -52 27.5 -80.5t79.5 -28.5q51 0 79 28t28 77h76q-3 -82 -51 -126.5t-133 -44.5q-88 0 -136 47.5t-48 135.5v154q0 88 48 135.5t136 47.5zM127 336v-38h213v38q0 108 -107 108
q-51 0 -78.5 -28t-27.5 -80z" />
    <glyph glyph-name="eacute" unicode="&#xe9;" horiz-adv-x="464" 
d="M268 704h95l-114 -115h-71zM233 510q89 0 136.5 -47.5t47.5 -135.5v-90h-290v-72q0 -52 27.5 -80.5t79.5 -28.5q51 0 79 28t28 77h76q-3 -82 -51 -126.5t-133 -44.5q-88 0 -136 47.5t-48 135.5v154q0 88 48 135.5t136 47.5zM127 336v-38h213v38q0 108 -107 108
q-51 0 -78.5 -28t-27.5 -80z" />
    <glyph glyph-name="ecircumflex" unicode="&#xea;" horiz-adv-x="464" 
d="M303 589l-69 68l-68 -68h-71l94 115h90l94 -115h-70zM233 510q89 0 136.5 -47.5t47.5 -135.5v-90h-290v-72q0 -52 27.5 -80.5t79.5 -28.5q51 0 79 28t28 77h76q-3 -82 -51 -126.5t-133 -44.5q-88 0 -136 47.5t-48 135.5v154q0 88 48 135.5t136 47.5zM127 336v-38h213v38
q0 108 -107 108q-51 0 -78.5 -28t-27.5 -80z" />
    <glyph glyph-name="edieresis" unicode="&#xeb;" horiz-adv-x="464" 
d="M123 704h77v-115h-77v115zM268 704h77v-115h-77v115zM233 510q89 0 136.5 -47.5t47.5 -135.5v-90h-290v-72q0 -52 27.5 -80.5t79.5 -28.5q51 0 79 28t28 77h76q-3 -82 -51 -126.5t-133 -44.5q-88 0 -136 47.5t-48 135.5v154q0 88 48 135.5t136 47.5zM127 336v-38h213v38
q0 108 -107 108q-51 0 -78.5 -28t-27.5 -80z" />
    <glyph glyph-name="igrave" unicode="&#xec;" horiz-adv-x="204" 
d="M158 589h-71l-114 115h95zM141 0h-78v500h78v-500z" />
    <glyph glyph-name="iacute" unicode="&#xed;" horiz-adv-x="204" 
d="M117 589h-71l90 115h95zM141 0h-78v500h78v-500z" />
    <glyph glyph-name="icircumflex" unicode="&#xee;" horiz-adv-x="204" 
d="M34 589h-71l94 115h90l94 -115h-70l-69 68zM141 0h-78v500h78v-500z" />
    <glyph glyph-name="idieresis" unicode="&#xef;" horiz-adv-x="204" 
d="M68 589h-77v115h77v-115zM213 589h-77v115h77v-115zM141 0h-78v500h78v-500z" />
    <glyph glyph-name="eth" unicode="&#xf0;" horiz-adv-x="468" 
d="M343 700h78l-104 -80q98 -106 98 -294v-152q0 -88 -47.5 -136t-136.5 -48q-88 0 -135.5 48t-47.5 136v36h-1v95q0 165 146 165q102 0 144 -79q-4 112 -72 190l-84 -65h-79l129 98q-55 48 -148 86h116q44 -19 82 -48zM337 166v96q0 67 -31 103.5t-88 36.5q-48 0 -70.5 -27
t-22.5 -83v-45h1v-81q0 -52 27 -80t78 -28t78.5 28t27.5 80z" />
    <glyph glyph-name="ntilde" unicode="&#xf1;" horiz-adv-x="483" 
d="M188 638q-29 0 -51 -52l-44 24q39 89 95 89q32 0 67 -27q26 -19 41 -19q29 0 51 52l45 -24q-40 -88 -96 -88q-33 0 -67 26q-26 19 -41 19zM282 510q143 0 143 -165v-345h-78v332q0 110 -89 110q-56 0 -86.5 -36.5t-30.5 -103.5v-302h-78v500h68l1 -90q36 100 150 100z
" />
    <glyph glyph-name="ograve" unicode="&#xf2;" horiz-adv-x="465" 
d="M289 589h-71l-114 115h95zM233 -10q-89 0 -136.5 48t-47.5 136v153q0 88 48 135.5t136 47.5t135.5 -47.5t47.5 -135.5v-153q0 -88 -47.5 -136t-135.5 -48zM338 166v168q0 52 -27 80t-78 28t-78.5 -28t-27.5 -80v-168q0 -52 27.5 -80t78.5 -28t78 28t27 80z" />
    <glyph glyph-name="oacute" unicode="&#xf3;" horiz-adv-x="465" 
d="M248 589h-71l90 115h95zM233 -10q-89 0 -136.5 48t-47.5 136v153q0 88 48 135.5t136 47.5t135.5 -47.5t47.5 -135.5v-153q0 -88 -47.5 -136t-135.5 -48zM338 166v168q0 52 -27 80t-78 28t-78.5 -28t-27.5 -80v-168q0 -52 27.5 -80t78.5 -28t78 28t27 80z" />
    <glyph glyph-name="ocircumflex" unicode="&#xf4;" horiz-adv-x="465" 
d="M165 589h-71l94 115h90l94 -115h-70l-69 68zM233 -10q-89 0 -136.5 48t-47.5 136v153q0 88 48 135.5t136 47.5t135.5 -47.5t47.5 -135.5v-153q0 -88 -47.5 -136t-135.5 -48zM338 166v168q0 52 -27 80t-78 28t-78.5 -28t-27.5 -80v-168q0 -52 27.5 -80t78.5 -28t78 28
t27 80z" />
    <glyph glyph-name="otilde" unicode="&#xf5;" horiz-adv-x="465" 
d="M128 586l-44 24q39 89 95 89q33 0 67 -27q26 -19 41 -19q29 0 51 52l45 -24q-40 -88 -96 -88q-33 0 -67 26q-26 19 -41 19q-29 0 -51 -52zM233 -10q-89 0 -136.5 48t-47.5 136v153q0 88 48 135.5t136 47.5t135.5 -47.5t47.5 -135.5v-153q0 -88 -47.5 -136t-135.5 -48z
M338 166v168q0 52 -27 80t-78 28t-78.5 -28t-27.5 -80v-168q0 -52 27.5 -80t78.5 -28t78 28t27 80z" />
    <glyph glyph-name="odieresis" unicode="&#xf6;" horiz-adv-x="465" 
d="M199 589h-77v115h77v-115zM344 589h-77v115h77v-115zM233 -10q-89 0 -136.5 48t-47.5 136v153q0 88 48 135.5t136 47.5t135.5 -47.5t47.5 -135.5v-153q0 -88 -47.5 -136t-135.5 -48zM338 166v168q0 52 -27 80t-78 28t-78.5 -28t-27.5 -80v-168q0 -52 27.5 -80t78.5 -28
t78 28t27 80z" />
    <glyph glyph-name="divide" unicode="&#xf7;" 
d="M297 419h-87v121h87v-121zM468 267h-429v66h429v-66zM297 60h-87v121h87v-121z" />
    <glyph glyph-name="oslash" unicode="&#xf8;" horiz-adv-x="465" 
d="M415 504l-34 -56q35 -47 35 -121v-153q0 -88 -47.5 -136t-135.5 -48q-71 0 -114 30l-28 -46l-40 25l33 54q-35 47 -35 121v153q0 88 48 135.5t136 47.5q66 0 113 -29l29 48zM127 334v-168q0 -23 4 -36l176 288q-27 24 -74 24q-51 0 -78.5 -28t-27.5 -80zM338 166v168
q0 24 -4 37l-176 -288q28 -25 75 -25q51 0 78 28t27 80z" />
    <glyph glyph-name="ugrave" unicode="&#xf9;" horiz-adv-x="484" 
d="M208 704l90 -115h-71l-114 115h95zM342 198v302h78v-500h-68l-1 88q-38 -98 -150 -98q-143 0 -143 165v345h78v-332q0 -110 89 -110q56 0 86.5 36.5t30.5 103.5z" />
    <glyph glyph-name="uacute" unicode="&#xfa;" horiz-adv-x="484" 
d="M276 704h95l-114 -115h-71zM342 198v302h78v-500h-68l-1 88q-38 -98 -150 -98q-143 0 -143 165v345h78v-332q0 -110 89 -110q56 0 86.5 36.5t30.5 103.5z" />
    <glyph glyph-name="ucircumflex" unicode="&#xfb;" horiz-adv-x="484" 
d="M311 589l-69 68l-68 -68h-71l94 115h90l94 -115h-70zM342 198v302h78v-500h-68l-1 88q-38 -98 -150 -98q-143 0 -143 165v345h78v-332q0 -110 89 -110q56 0 86.5 36.5t30.5 103.5z" />
    <glyph glyph-name="udieresis" unicode="&#xfc;" horiz-adv-x="484" 
d="M131 704h77v-115h-77v115zM276 704h77v-115h-77v115zM342 198v302h78v-500h-68l-1 88q-38 -98 -150 -98q-143 0 -143 165v345h78v-332q0 -110 89 -110q56 0 86.5 36.5t30.5 103.5z" />
    <glyph glyph-name="yacute" unicode="&#xfd;" horiz-adv-x="453" 
d="M261 704h95l-114 -115h-71zM236 104l116 396h75l-169 -557q-18 -57 -51 -82.5t-88 -25.5q-43 0 -69 14v68q28 -14 61 -14q55 0 73 54l11 36l-170 507h82z" />
    <glyph glyph-name="thorn" unicode="&#xfe;" horiz-adv-x="483" 
d="M285 510q145 0 145 -165v-190q0 -165 -145 -165q-102 0 -144 79v-224h-78v855h78v-270q42 80 144 80zM352 167v165q0 57 -22 83.5t-70 26.5q-57 0 -88 -36.5t-31 -103.5v-105q0 -67 31 -103t88 -36q48 0 70 26.5t22 82.5z" />
    <glyph glyph-name="ydieresis" unicode="&#xff;" horiz-adv-x="453" 
d="M116 704h77v-115h-77v115zM261 704h77v-115h-77v115zM236 104l116 396h75l-169 -557q-18 -57 -51 -82.5t-88 -25.5q-43 0 -69 14v68q28 -14 61 -14q55 0 73 54l11 36l-170 507h82z" />
    <glyph glyph-name="Amacron" unicode="&#x100;" horiz-adv-x="507" 
d="M121 868h258v-64h-258v64zM479 0h-84l-35 148h-220l-35 -148h-77l170 700h109zM249 609l-92 -390h185z" />
    <glyph glyph-name="amacron" unicode="&#x101;" horiz-adv-x="462" 
d="M97 678h258v-64h-258v64zM414 0h-72q-9 19 -10 88q-38 -98 -153 -98q-67 0 -104.5 35t-37.5 97q0 61 34.5 97t116.5 56q88 23 111 36q24 15 24 45q-1 88 -94 88q-48 0 -74 -24.5t-26 -66.5h-73q0 72 47 114.5t128 42.5q170 0 170 -169v-204q0 -98 13 -137zM199 56
q59 0 91.5 36t32.5 104v67q-19 -19 -114 -45q-52 -14 -73 -34t-21 -56q0 -72 84 -72z" />
    <glyph glyph-name="Abreve" unicode="&#x102;" horiz-adv-x="507" 
d="M250 777q-58 0 -91 31t-35 86h53q5 -59 73 -59q69 0 75 59h52q-2 -54 -36 -85.5t-91 -31.5zM479 0h-84l-35 148h-220l-35 -148h-77l170 700h109zM249 609l-92 -390h185z" />
    <glyph glyph-name="abreve" unicode="&#x103;" horiz-adv-x="462" 
d="M226 587q-58 0 -91 31t-35 86h53q5 -59 73 -59q69 0 75 59h52q-2 -54 -36 -85.5t-91 -31.5zM414 0h-72q-9 19 -10 88q-38 -98 -153 -98q-67 0 -104.5 35t-37.5 97q0 61 34.5 97t116.5 56q88 23 111 36q24 15 24 45q-1 88 -94 88q-48 0 -74 -24.5t-26 -66.5h-73
q0 72 47 114.5t128 42.5q170 0 170 -169v-204q0 -98 13 -137zM199 56q59 0 91.5 36t32.5 104v67q-19 -19 -114 -45q-52 -14 -73 -34t-21 -56q0 -72 84 -72z" />
    <glyph glyph-name="Aogonek" unicode="&#x104;" horiz-adv-x="507" 
d="M450 -115q25 0 46 9v-46q-29 -13 -66 -13q-96 0 -96 67q0 59 73 98h-12l-35 148h-220l-35 -148h-77l170 700h109l172 -700h-20q-62 -29 -62 -76q0 -39 53 -39zM249 609l-92 -390h185z" />
    <glyph glyph-name="aogonek" unicode="&#x105;" horiz-adv-x="462" 
d="M385 -115q25 0 46 9v-46q-29 -13 -66 -13q-96 0 -96 67q0 59 73 98q-9 19 -10 88q-38 -98 -153 -98q-67 0 -104.5 35t-37.5 97q0 61 34.5 97t116.5 56q88 23 111 36q24 15 24 45q-1 88 -94 88q-48 0 -74 -24.5t-26 -66.5h-73q0 72 47 114.5t128 42.5q170 0 170 -169v-204
q0 -98 13 -137h-23q-59 -35 -59 -76q0 -39 53 -39zM199 56q59 0 91.5 36t32.5 104v67q-19 -19 -114 -45q-52 -14 -73 -34t-21 -56q0 -72 84 -72z" />
    <glyph glyph-name="Cacute" unicode="&#x106;" horiz-adv-x="489" 
d="M264 779h-71l90 115h95zM249 -10q-91 0 -142 51t-51 142v334q0 91 51 142t142 51q94 0 145 -50.5t51 -142.5v-48h-77v51q0 57 -31 88.5t-86 31.5q-54 0 -84 -31.5t-30 -88.5v-340q0 -57 30 -88.5t84 -31.5q55 0 86 31.5t31 88.5v71h77v-68q0 -92 -51 -142.5t-145 -50.5z
" />
    <glyph glyph-name="cacute" unicode="&#x107;" horiz-adv-x="451" 
d="M245 589h-71l90 115h95zM232 -11q-88 0 -135 47t-47 135v156q0 88 47.5 135.5t134.5 47.5q86 0 131 -46t47 -132v-4h-75v7q0 107 -103 107q-50 0 -77 -28t-27 -79v-171q0 -107 104 -107q103 0 103 107v19h75v-12q0 -88 -45 -135t-133 -47z" />
    <glyph glyph-name="Ccircumflex" unicode="&#x108;" horiz-adv-x="489" 
d="M181 779h-71l94 115h90l94 -115h-70l-69 68zM249 -10q-91 0 -142 51t-51 142v334q0 91 51 142t142 51q94 0 145 -50.5t51 -142.5v-48h-77v51q0 57 -31 88.5t-86 31.5q-54 0 -84 -31.5t-30 -88.5v-340q0 -57 30 -88.5t84 -31.5q55 0 86 31.5t31 88.5v71h77v-68
q0 -92 -51 -142.5t-145 -50.5z" />
    <glyph glyph-name="ccircumflex" unicode="&#x109;" horiz-adv-x="451" 
d="M162 589h-71l94 115h90l94 -115h-70l-69 68zM232 -11q-88 0 -135 47t-47 135v156q0 88 47.5 135.5t134.5 47.5q86 0 131 -46t47 -132v-4h-75v7q0 107 -103 107q-50 0 -77 -28t-27 -79v-171q0 -107 104 -107q103 0 103 107v19h75v-12q0 -88 -45 -135t-133 -47z" />
    <glyph glyph-name="Cdotaccent" unicode="&#x10a;" horiz-adv-x="489" 
d="M289 779h-78v115h78v-115zM249 -10q-91 0 -142 51t-51 142v334q0 91 51 142t142 51q94 0 145 -50.5t51 -142.5v-48h-77v51q0 57 -31 88.5t-86 31.5q-54 0 -84 -31.5t-30 -88.5v-340q0 -57 30 -88.5t84 -31.5q55 0 86 31.5t31 88.5v71h77v-68q0 -92 -51 -142.5t-145 -50.5
z" />
    <glyph glyph-name="cdotaccent" unicode="&#x10b;" horiz-adv-x="451" 
d="M270 589h-78v115h78v-115zM232 -11q-88 0 -135 47t-47 135v156q0 88 47.5 135.5t134.5 47.5q86 0 131 -46t47 -132v-4h-75v7q0 107 -103 107q-50 0 -77 -28t-27 -79v-171q0 -107 104 -107q103 0 103 107v19h75v-12q0 -88 -45 -135t-133 -47z" />
    <glyph glyph-name="Ccaron" unicode="&#x10c;" horiz-adv-x="489" 
d="M294 779h-90l-94 115h71l68 -69l69 69h70zM249 -10q-91 0 -142 51t-51 142v334q0 91 51 142t142 51q94 0 145 -50.5t51 -142.5v-48h-77v51q0 57 -31 88.5t-86 31.5q-54 0 -84 -31.5t-30 -88.5v-340q0 -57 30 -88.5t84 -31.5q55 0 86 31.5t31 88.5v71h77v-68
q0 -92 -51 -142.5t-145 -50.5z" />
    <glyph glyph-name="ccaron" unicode="&#x10d;" horiz-adv-x="451" 
d="M275 589h-90l-94 115h71l68 -69l69 69h70zM232 -11q-88 0 -135 47t-47 135v156q0 88 47.5 135.5t134.5 47.5q86 0 131 -46t47 -132v-4h-75v7q0 107 -103 107q-50 0 -77 -28t-27 -79v-171q0 -107 104 -107q103 0 103 107v19h75v-12q0 -88 -45 -135t-133 -47z" />
    <glyph glyph-name="Dcaron" unicode="&#x10e;" horiz-adv-x="516" 
d="M293 779h-90l-94 115h71l68 -69l69 69h70zM263 0h-197v700h197q198 0 198 -192v-316q0 -192 -198 -192zM147 629v-558h114q63 0 91 28t28 91v320q0 63 -28 91t-91 28h-114z" />
    <glyph glyph-name="dcaron" unicode="&#x10f;" horiz-adv-x="530" 
d="M342 700h78v-563q0 -95 12 -137h-71q-10 21 -11 86q-38 -96 -152 -96q-145 0 -145 165v190q0 165 145 165q102 0 144 -78v268zM470 585v115h74v-108l-41 -120h-33l28 113h-28zM223 58q57 0 88 36t31 103v105q0 67 -31 103.5t-88 36.5q-48 0 -70 -26.5t-22 -83.5v-165
q0 -56 22 -82.5t70 -26.5z" />
    <glyph glyph-name="Dcroat" unicode="&#x110;" horiz-adv-x="530" 
d="M81 700h197q198 0 198 -192v-316q0 -192 -198 -192h-197v331h-57v67h57v302zM395 190v320q0 63 -28 91t-91 28h-115v-231h111v-67h-111v-260h115q63 0 91 28t28 91z" />
    <glyph glyph-name="dslash" unicode="&#x111;" horiz-adv-x="485" 
d="M483 624v-60h-63v-427q0 -95 12 -137h-71q-10 21 -11 86q-38 -96 -152 -96q-145 0 -145 165v190q0 165 145 165q102 0 144 -78v132h-107v60h107v76h78v-76h63zM223 58q57 0 88 36t31 103v105q0 67 -31 103.5t-88 36.5q-48 0 -70 -26.5t-22 -83.5v-165q0 -56 22 -82.5
t70 -26.5z" />
    <glyph glyph-name="Emacron" unicode="&#x112;" horiz-adv-x="457" 
d="M374 804h-258v64h258v-64zM423 0h-357v700h357v-71h-276v-239h226v-70h-226v-249h276v-71z" />
    <glyph glyph-name="emacron" unicode="&#x113;" horiz-adv-x="464" 
d="M105 678h258v-64h-258v64zM233 510q89 0 136.5 -47.5t47.5 -135.5v-90h-290v-72q0 -52 27.5 -80.5t79.5 -28.5q51 0 79 28t28 77h76q-3 -82 -51 -126.5t-133 -44.5q-88 0 -136 47.5t-48 135.5v154q0 88 48 135.5t136 47.5zM127 336v-38h213v38q0 108 -107 108
q-51 0 -78.5 -28t-27.5 -80z" />
    <glyph glyph-name="Ebreve" unicode="&#x114;" horiz-adv-x="457" 
d="M245 777q-58 0 -91 31t-35 86h53q5 -59 73 -59q69 0 75 59h52q-2 -54 -36 -85.5t-91 -31.5zM423 0h-357v700h357v-71h-276v-239h226v-70h-226v-249h276v-71z" />
    <glyph glyph-name="ebreve" unicode="&#x115;" horiz-adv-x="464" 
d="M234 587q-58 0 -91 31t-35 86h53q5 -59 73 -59q69 0 75 59h52q-2 -54 -36 -85.5t-91 -31.5zM233 510q89 0 136.5 -47.5t47.5 -135.5v-90h-290v-72q0 -52 27.5 -80.5t79.5 -28.5q51 0 79 28t28 77h76q-3 -82 -51 -126.5t-133 -44.5q-88 0 -136 47.5t-48 135.5v154
q0 88 48 135.5t136 47.5zM127 336v-38h213v38q0 108 -107 108q-51 0 -78.5 -28t-27.5 -80z" />
    <glyph glyph-name="Edotaccent" unicode="&#x116;" horiz-adv-x="457" 
d="M285 779h-78v115h78v-115zM423 0h-357v700h357v-71h-276v-239h226v-70h-226v-249h276v-71z" />
    <glyph glyph-name="edotaccent" unicode="&#x117;" horiz-adv-x="464" 
d="M196 704h78v-115h-78v115zM233 510q89 0 136.5 -47.5t47.5 -135.5v-90h-290v-72q0 -52 27.5 -80.5t79.5 -28.5q51 0 79 28t28 77h76q-3 -82 -51 -126.5t-133 -44.5q-88 0 -136 47.5t-48 135.5v154q0 88 48 135.5t136 47.5zM127 336v-38h213v38q0 108 -107 108
q-51 0 -78.5 -28t-27.5 -80z" />
    <glyph glyph-name="Eogonek" unicode="&#x118;" horiz-adv-x="457" 
d="M423 700v-71h-276v-239h226v-70h-226v-249h276v-71h-48q-51 -33 -51 -76q0 -39 53 -39q25 0 46 9v-46q-29 -13 -66 -13q-96 0 -96 67q0 60 69 98h-264v700h357z" />
    <glyph glyph-name="eogonek" unicode="&#x119;" horiz-adv-x="464" 
d="M233 510q89 0 136.5 -47.5t47.5 -135.5v-90h-290v-72q0 -52 27.5 -80.5t79.5 -28.5q51 0 79 28t28 77h76q-3 -93 -65 -138q-52 -58 -52 -99q0 -39 49 -39q19 0 42 9v-46q-30 -13 -62 -13q-43 0 -67.5 17t-24.5 50q0 53 53 94q-27 -6 -57 -6q-88 0 -136 47.5t-48 135.5
v154q0 88 48 135.5t136 47.5zM127 336v-38h213v38q0 108 -107 108q-51 0 -78.5 -28t-27.5 -80z" />
    <glyph glyph-name="Ecaron" unicode="&#x11a;" horiz-adv-x="457" 
d="M290 779h-90l-94 115h71l68 -69l69 69h70zM423 0h-357v700h357v-71h-276v-239h226v-70h-226v-249h276v-71z" />
    <glyph glyph-name="ecaron" unicode="&#x11b;" horiz-adv-x="464" 
d="M373 704l-94 -115h-90l-94 115h71l68 -69l69 69h70zM233 510q89 0 136.5 -47.5t47.5 -135.5v-90h-290v-72q0 -52 27.5 -80.5t79.5 -28.5q51 0 79 28t28 77h76q-3 -82 -51 -126.5t-133 -44.5q-88 0 -136 47.5t-48 135.5v154q0 88 48 135.5t136 47.5zM127 336v-38h213v38
q0 108 -107 108q-51 0 -78.5 -28t-27.5 -80z" />
    <glyph glyph-name="Gcircumflex" unicode="&#x11c;" horiz-adv-x="503" 
d="M183 779h-71l94 115h90l94 -115h-70l-69 68zM254 -10q-95 0 -147 50.5t-52 142.5v332q0 93 51.5 144t145.5 51q95 0 147 -51t52 -144v-35h-76v40q0 119 -120 119q-119 0 -119 -119v-340q0 -119 119 -119q120 0 120 119v127h-111v74h187v-198q0 -92 -51.5 -142.5
t-145.5 -50.5z" />
    <glyph glyph-name="gcircumflex" unicode="&#x11d;" horiz-adv-x="480" 
d="M296 589l-69 68l-68 -68h-71l94 115h90l94 -115h-70zM347 411l2 89h67v-495q0 -85 -43.5 -127.5t-137.5 -42.5q-172 0 -178 134h76q6 -68 101 -68q54 0 79 24.5t25 79.5v100q-42 -77 -144 -77q-145 0 -145 165v152q0 165 145 165q116 0 153 -99zM219 96q58 0 88.5 36
t30.5 103v67q0 67 -30.5 103.5t-88.5 36.5q-92 0 -92 -110v-127q0 -109 92 -109z" />
    <glyph glyph-name="Gbreve" unicode="&#x11e;" horiz-adv-x="503" 
d="M251 777q-58 0 -91 31t-35 86h53q5 -59 73 -59q69 0 75 59h52q-2 -54 -36 -85.5t-91 -31.5zM254 -10q-95 0 -147 50.5t-52 142.5v332q0 93 51.5 144t145.5 51q95 0 147 -51t52 -144v-35h-76v40q0 119 -120 119q-119 0 -119 -119v-340q0 -119 119 -119q120 0 120 119v127
h-111v74h187v-198q0 -92 -51.5 -142.5t-145.5 -50.5z" />
    <glyph glyph-name="gbreve" unicode="&#x11f;" horiz-adv-x="480" 
d="M227 587q-58 0 -91 31t-35 86h53q5 -59 73 -59q69 0 75 59h52q-2 -54 -36 -85.5t-91 -31.5zM347 411l2 89h67v-495q0 -85 -43.5 -127.5t-137.5 -42.5q-172 0 -178 134h76q6 -68 101 -68q54 0 79 24.5t25 79.5v100q-42 -77 -144 -77q-145 0 -145 165v152q0 165 145 165
q116 0 153 -99zM219 96q58 0 88.5 36t30.5 103v67q0 67 -30.5 103.5t-88.5 36.5q-92 0 -92 -110v-127q0 -109 92 -109z" />
    <glyph glyph-name="Gdotaccent" unicode="&#x120;" horiz-adv-x="503" 
d="M291 779h-78v115h78v-115zM254 -10q-95 0 -147 50.5t-52 142.5v332q0 93 51.5 144t145.5 51q95 0 147 -51t52 -144v-35h-76v40q0 119 -120 119q-119 0 -119 -119v-340q0 -119 119 -119q120 0 120 119v127h-111v74h187v-198q0 -92 -51.5 -142.5t-145.5 -50.5z" />
    <glyph glyph-name="gdotaccent" unicode="&#x121;" horiz-adv-x="480" 
d="M189 704h78v-115h-78v115zM347 411l2 89h67v-495q0 -85 -43.5 -127.5t-137.5 -42.5q-172 0 -178 134h76q6 -68 101 -68q54 0 79 24.5t25 79.5v100q-42 -77 -144 -77q-145 0 -145 165v152q0 165 145 165q116 0 153 -99zM219 96q58 0 88.5 36t30.5 103v67q0 67 -30.5 103.5
t-88.5 36.5q-92 0 -92 -110v-127q0 -109 92 -109z" />
    <glyph glyph-name="uni0122" unicode="&#x122;" horiz-adv-x="503" 
d="M254 -10q-95 0 -147 50.5t-52 142.5v332q0 93 51.5 144t145.5 51q95 0 147 -51t52 -144v-35h-76v40q0 119 -120 119q-119 0 -119 -119v-340q0 -119 119 -119q120 0 120 119v127h-111v74h187v-198q0 -92 -51.5 -142.5t-145.5 -50.5zM243 -231h-32l37 67h-34v102h78v-95z
" />
    <glyph glyph-name="uni0123" unicode="&#x123;" horiz-adv-x="480" 
d="M231 692h35v-103h-78v97l46 73h32zM347 411l2 89h67v-495q0 -85 -43.5 -127.5t-137.5 -42.5q-172 0 -178 134h76q6 -68 101 -68q54 0 79 24.5t25 79.5v100q-42 -77 -144 -77q-145 0 -145 165v152q0 165 145 165q116 0 153 -99zM219 96q58 0 88.5 36t30.5 103v67
q0 67 -30.5 103.5t-88.5 36.5q-92 0 -92 -110v-127q0 -109 92 -109z" />
    <glyph glyph-name="Hcircumflex" unicode="&#x124;" horiz-adv-x="532" 
d="M198 779h-71l94 115h90l94 -115h-70l-69 68zM147 0h-81v700h81v-310h238v310h81v-700h-81v320h-238v-320z" />
    <glyph glyph-name="hcircumflex" unicode="&#x125;" horiz-adv-x="483" 
d="M241 779h-70l-69 68l-68 -68h-71l94 115h90zM282 510q143 0 143 -165v-345h-78v332q0 110 -89 110q-56 0 -86.5 -36.5t-30.5 -103.5v-302h-78v700h78v-269q42 79 141 79z" />
    <glyph glyph-name="Hbar" unicode="&#x126;" horiz-adv-x="552" 
d="M476 573h53v-67h-53v-506h-81v320h-238v-320h-81v506h-53v67h53v127h81v-127h238v127h81v-127zM157 390h238v116h-238v-116z" />
    <glyph glyph-name="hbar" unicode="&#x127;" horiz-adv-x="483" 
d="M282 510q143 0 143 -165v-345h-78v332q0 110 -89 110q-56 0 -86.5 -36.5t-30.5 -103.5v-302h-78v568h-63v60h63v72h78v-72h107v-60h-107v-137q42 79 141 79z" />
    <glyph glyph-name="Itilde" unicode="&#x128;" horiz-adv-x="213" 
d="M2 776l-44 24q39 89 95 89q33 0 67 -27q26 -19 41 -19q29 0 51 52l45 -24q-40 -88 -96 -88q-33 0 -67 26q-26 19 -41 19q-29 0 -51 -52zM147 0h-81v700h81v-700z" />
    <glyph glyph-name="itilde" unicode="&#x129;" horiz-adv-x="204" 
d="M-3 586l-44 24q39 89 95 89q32 0 67 -27q26 -19 41 -19q29 0 51 52l45 -24q-40 -88 -96 -88q-33 0 -67 26q-26 19 -41 19q-29 0 -51 -52zM141 0h-78v500h78v-500z" />
    <glyph glyph-name="Imacron" unicode="&#x12a;" horiz-adv-x="213" 
d="M236 804h-258v64h258v-64zM147 0h-81v700h81v-700z" />
    <glyph glyph-name="imacron" unicode="&#x12b;" horiz-adv-x="204" 
d="M231 614h-258v64h258v-64zM141 0h-78v500h78v-500z" />
    <glyph glyph-name="Ibreve" unicode="&#x12c;" horiz-adv-x="213" 
d="M107 777q-58 0 -91 31t-35 86h53q5 -59 73 -59q69 0 75 59h52q-2 -54 -36 -85.5t-91 -31.5zM147 0h-81v700h81v-700z" />
    <glyph glyph-name="ibreve" unicode="&#x12d;" horiz-adv-x="204" 
d="M102 587q-58 0 -91 31t-35 86h53q5 -59 73 -59q69 0 75 59h52q-2 -54 -36 -85.5t-91 -31.5zM141 0h-78v500h78v-500z" />
    <glyph glyph-name="Iogonek" unicode="&#x12e;" horiz-adv-x="213" 
d="M136 -115q24 0 45 9v-46q-29 -13 -64 -13q-96 0 -96 67q0 57 62 98h-17v700h81v-700h-16q-47 -32 -47 -76q0 -39 52 -39z" />
    <glyph glyph-name="iogonek" unicode="&#x12f;" horiz-adv-x="204" 
d="M64 704h78v-115h-78v115zM131 -115q24 0 45 9v-46q-29 -13 -64 -13q-96 0 -96 67q0 57 62 98h-15v500h78v-500h-15q-47 -32 -47 -76q0 -39 52 -39z" />
    <glyph glyph-name="Idot" unicode="&#x130;" horiz-adv-x="213" 
d="M147 779h-78v115h78v-115zM147 0h-81v700h81v-700z" />
    <glyph glyph-name="dotlessi" unicode="&#x131;" horiz-adv-x="204" 
d="M141 0h-78v500h78v-500z" />
    <glyph glyph-name="IJ" unicode="&#x132;" horiz-adv-x="548" 
d="M147 0h-81v700h81v-700zM303 -5q-37 0 -61 8v72q22 -9 56 -9q56 0 82 26t26 82v526h80v-524q0 -93 -44.5 -137t-138.5 -44z" />
    <glyph glyph-name="ij" unicode="&#x133;" horiz-adv-x="408" 
d="M142 589h-78v115h78v-115zM345 589h-78v115h78v-115zM141 0h-78v500h78v-500zM236 -165q-32 0 -57 13v66q35 -18 63.5 -8t24.5 51v543h78v-546q0 -119 -109 -119z" />
    <glyph glyph-name="Jcircumflex" unicode="&#x134;" horiz-adv-x="335" 
d="M153 779h-71l94 115h90l94 -115h-70l-69 68zM90 -5q-37 0 -61 8v72q22 -9 56 -9q56 0 82 26t26 82v526h80v-524q0 -93 -44.5 -137t-138.5 -44z" />
    <glyph glyph-name="jcircumflex" unicode="&#x135;" horiz-adv-x="204" 
d="M34 589h-71l94 115h90l94 -115h-70l-69 68zM32 -165q-35 0 -57 13v66q35 -18 63.5 -8t24.5 51v543h78v-546q0 -119 -109 -119z" />
    <glyph glyph-name="uni0136" unicode="&#x136;" horiz-adv-x="520" 
d="M490 700l-190 -264l193 -436h-88l-162 366l-96 -132v-234h-81v700h81v-354l257 354h86zM271 -164h-34v102h78v-95l-49 -74h-32z" />
    <glyph glyph-name="uni0137" unicode="&#x137;" horiz-adv-x="480" 
d="M447 500l-162 -189l170 -311h-88l-138 251l-88 -101v-150h-78v700h78v-456l217 256h89zM252 -164h-34v102h78v-95l-49 -74h-32z" />
    <glyph glyph-name="kgreenlandic" unicode="&#x138;" horiz-adv-x="480" 
d="M455 0h-88l-138 251l-88 -101v-150h-78v500h78v-256l217 256h89l-162 -189z" />
    <glyph glyph-name="Lacute" unicode="&#x139;" horiz-adv-x="439" 
d="M133 779h-71l90 115h95zM411 0h-345v700h81v-629h264v-71z" />
    <glyph glyph-name="lacute" unicode="&#x13a;" horiz-adv-x="204" 
d="M117 779h-71l90 115h95zM141 0h-78v700h78v-700z" />
    <glyph glyph-name="uni013B" unicode="&#x13b;" horiz-adv-x="439" 
d="M411 0h-345v700h81v-629h264v-71zM232 -231h-32l37 67h-34v102h78v-95z" />
    <glyph glyph-name="uni013C" unicode="&#x13c;" horiz-adv-x="204" 
d="M141 0h-78v700h78v-700zM93 -231h-32l37 67h-34v102h78v-95z" />
    <glyph glyph-name="Lcaron" unicode="&#x13d;" horiz-adv-x="439" 
d="M411 0h-345v700h81v-629h264v-71zM307 472h-34l28 113h-28v115h74v-108z" />
    <glyph glyph-name="lcaron" unicode="&#x13e;" horiz-adv-x="251" 
d="M141 0h-78v700h78v-700zM225 472h-34l28 113h-28v115h74v-108z" />
    <glyph glyph-name="Ldot" unicode="&#x13f;" horiz-adv-x="439" 
d="M411 0h-345v700h81v-629h264v-71zM365 325h-78v98h78v-98z" />
    <glyph glyph-name="ldot" unicode="&#x140;" horiz-adv-x="256" 
d="M141 0h-78v700h78v-700zM270 298h-82v107h82v-107z" />
    <glyph glyph-name="Lslash" unicode="&#x141;" horiz-adv-x="469" 
d="M177 282v-211h264v-71h-345v195l-72 -78v92l72 78v413h81v-326l159 172v-93z" />
    <glyph glyph-name="lslash" unicode="&#x142;" horiz-adv-x="254" 
d="M166 450l66 68v-80l-66 -69v-369h-78v288l-65 -67v81l65 67v331h78v-250z" />
    <glyph glyph-name="Nacute" unicode="&#x143;" horiz-adv-x="541" 
d="M286 779h-71l90 115h95zM140 0h-74v700h106l228 -533v533h75v-700h-85l-250 588v-588z" />
    <glyph glyph-name="nacute" unicode="&#x144;" horiz-adv-x="483" 
d="M276 704h95l-114 -115h-71zM282 510q143 0 143 -165v-345h-78v332q0 110 -89 110q-56 0 -86.5 -36.5t-30.5 -103.5v-302h-78v500h68l1 -90q36 100 150 100z" />
    <glyph glyph-name="uni0145" unicode="&#x145;" horiz-adv-x="541" 
d="M140 0h-74v700h106l228 -533v533h75v-700h-85l-250 588v-588zM262 -231h-32l37 67h-34v102h78v-95z" />
    <glyph glyph-name="uni0146" unicode="&#x146;" horiz-adv-x="483" 
d="M282 510q143 0 143 -165v-345h-78v332q0 110 -89 110q-56 0 -86.5 -36.5t-30.5 -103.5v-302h-78v500h68l1 -90q36 100 150 100zM238 -164h-34v102h78v-95l-49 -74h-32z" />
    <glyph glyph-name="Ncaron" unicode="&#x147;" horiz-adv-x="541" 
d="M316 779h-90l-94 115h71l68 -69l69 69h70zM140 0h-74v700h106l228 -533v533h75v-700h-85l-250 588v-588z" />
    <glyph glyph-name="ncaron" unicode="&#x148;" horiz-adv-x="483" 
d="M381 704l-94 -115h-90l-94 115h71l68 -69l69 69h70zM282 510q143 0 143 -165v-345h-78v332q0 110 -89 110q-56 0 -86.5 -36.5t-30.5 -103.5v-302h-78v500h68l1 -90q36 100 150 100z" />
    <glyph glyph-name="napostrophe" unicode="&#x149;" horiz-adv-x="486" 
d="M4 582h-29v118h78v-111l-45 -117h-34zM285 510q143 0 143 -165v-345h-78v332q0 110 -90 110q-55 0 -85.5 -36.5t-30.5 -103.5v-302h-78v500h67l2 -88q38 98 150 98z" />
    <glyph glyph-name="Eng" unicode="&#x14a;" horiz-adv-x="541" 
d="M313 -165q-26 0 -63 5v67q28 -6 56 -6q89 0 89 89q0 26 -10 49l-245 557v-596h-74v700h106l228 -505v505h75v-704q0 -161 -162 -161z" />
    <glyph glyph-name="eng" unicode="&#x14b;" horiz-adv-x="483" 
d="M282 510q143 0 143 -165v-370q0 -140 -132 -140q-39 0 -68 13v68q22 -13 56 -13q36 0 51 18t15 61v350q0 110 -89 110q-56 0 -86.5 -36.5t-30.5 -103.5v-302h-78v500h68l1 -90q36 100 150 100z" />
    <glyph glyph-name="Omacron" unicode="&#x14c;" horiz-adv-x="512" 
d="M385 804h-258v64h258v-64zM56 185v330q0 94 51.5 144.5t148.5 50.5t148.5 -50.5t51.5 -144.5v-330q0 -94 -51.5 -144.5t-148.5 -50.5t-148.5 50.5t-51.5 144.5zM256 61q120 0 120 119v340q0 119 -120 119q-119 0 -119 -119v-340q0 -119 119 -119z" />
    <glyph glyph-name="omacron" unicode="&#x14d;" horiz-adv-x="465" 
d="M362 614h-258v64h258v-64zM233 -10q-89 0 -136.5 48t-47.5 136v153q0 88 48 135.5t136 47.5t135.5 -47.5t47.5 -135.5v-153q0 -88 -47.5 -136t-135.5 -48zM338 166v168q0 52 -27 80t-78 28t-78.5 -28t-27.5 -80v-168q0 -52 27.5 -80t78.5 -28t78 28t27 80z" />
    <glyph glyph-name="Obreve" unicode="&#x14e;" horiz-adv-x="512" 
d="M256 777q-58 0 -91 31t-35 86h53q5 -59 73 -59q69 0 75 59h52q-2 -54 -36 -85.5t-91 -31.5zM56 185v330q0 94 51.5 144.5t148.5 50.5t148.5 -50.5t51.5 -144.5v-330q0 -94 -51.5 -144.5t-148.5 -50.5t-148.5 50.5t-51.5 144.5zM256 61q120 0 120 119v340q0 119 -120 119
q-119 0 -119 -119v-340q0 -119 119 -119z" />
    <glyph glyph-name="obreve" unicode="&#x14f;" horiz-adv-x="465" 
d="M233 587q-58 0 -91 31t-35 86h53q5 -59 73 -59q69 0 75 59h52q-2 -54 -36 -85.5t-91 -31.5zM233 -10q-89 0 -136.5 48t-47.5 136v153q0 88 48 135.5t136 47.5t135.5 -47.5t47.5 -135.5v-153q0 -88 -47.5 -136t-135.5 -48zM338 166v168q0 52 -27 80t-78 28t-78.5 -28
t-27.5 -80v-168q0 -52 27.5 -80t78.5 -28t78 28t27 80z" />
    <glyph glyph-name="Ohungarumlaut" unicode="&#x150;" horiz-adv-x="512" 
d="M195 779h-68l90 115h93zM346 779h-68l89 115h94zM56 185v330q0 94 51.5 144.5t148.5 50.5t148.5 -50.5t51.5 -144.5v-330q0 -94 -51.5 -144.5t-148.5 -50.5t-148.5 50.5t-51.5 144.5zM256 61q120 0 120 119v340q0 119 -120 119q-119 0 -119 -119v-340q0 -119 119 -119z
" />
    <glyph glyph-name="ohungarumlaut" unicode="&#x151;" horiz-adv-x="465" 
d="M172 589h-68l90 115h93zM323 589h-68l89 115h94zM233 -10q-89 0 -136.5 48t-47.5 136v153q0 88 48 135.5t136 47.5t135.5 -47.5t47.5 -135.5v-153q0 -88 -47.5 -136t-135.5 -48zM338 166v168q0 52 -27 80t-78 28t-78.5 -28t-27.5 -80v-168q0 -52 27.5 -80t78.5 -28t78 28
t27 80z" />
    <glyph glyph-name="OE" unicode="&#x152;" horiz-adv-x="760" 
d="M726 0h-473q-198 0 -198 192v316q0 192 198 192h473v-71h-276v-239h226v-70h-226v-249h276v-71zM255 71h114v558h-114q-64 0 -91.5 -28t-27.5 -91v-320q0 -63 27.5 -91t91.5 -28z" />
    <glyph glyph-name="oe" unicode="&#x153;" horiz-adv-x="753" 
d="M528 510q86 0 132 -47.5t46 -135.5v-90h-290v-72q0 -52 27.5 -80.5t79.5 -28.5q51 0 79 28t28 77h76q-4 -83 -49.5 -127t-129.5 -44q-113 0 -149 82q-37 -82 -151 -82q-86 0 -132 48t-46 136v153q0 88 46.5 135.5t131.5 47.5q115 0 151 -82q36 82 150 82zM416 336v-38
h213v38q0 108 -107 108q-51 0 -78.5 -28t-27.5 -80zM338 166v168q0 52 -27 80t-78 28t-78.5 -28t-27.5 -80v-168q0 -52 27.5 -80t78.5 -28t78 28t27 80z" />
    <glyph glyph-name="Racute" unicode="&#x154;" horiz-adv-x="510" 
d="M260 779h-71l90 115h95zM147 0h-81v700h189q198 0 198 -173v-18q0 -67 -26 -105.5t-83 -53.5v-1q57 -12 83 -51.5t26 -113.5v-88q0 -66 13 -96h-82q-11 38 -11 97v92q0 65 -30 92.5t-101 27.5h-95v-309zM147 629v-249h93q69 0 100.5 28t31.5 88v18q0 61 -28 88t-90 27
h-107z" />
    <glyph glyph-name="racute" unicode="&#x155;" horiz-adv-x="337" 
d="M210 704h95l-114 -115h-71zM268 510q29 0 43 -7v-76q-19 6 -41 6q-129 0 -129 -170v-263h-78v500h68l1 -99q31 109 136 109z" />
    <glyph glyph-name="uni0156" unicode="&#x156;" horiz-adv-x="510" 
d="M147 0h-81v700h189q198 0 198 -173v-18q0 -67 -26 -105.5t-83 -53.5v-1q57 -12 83 -51.5t26 -113.5v-88q0 -66 13 -96h-82q-11 38 -11 97v92q0 65 -30 92.5t-101 27.5h-95v-309zM147 629v-249h93q69 0 100.5 28t31.5 88v18q0 61 -28 88t-90 27h-107zM258 -231h-32l37 67
h-34v102h78v-95z" />
    <glyph glyph-name="uni0157" unicode="&#x157;" horiz-adv-x="337" 
d="M268 510q29 0 43 -7v-76q-19 6 -41 6q-129 0 -129 -170v-263h-78v500h68l1 -99q31 109 136 109zM98 -164h-34v102h78v-95l-49 -74h-32z" />
    <glyph glyph-name="Rcaron" unicode="&#x158;" horiz-adv-x="510" 
d="M290 779h-90l-94 115h71l68 -69l69 69h70zM147 0h-81v700h189q198 0 198 -173v-18q0 -67 -26 -105.5t-83 -53.5v-1q57 -12 83 -51.5t26 -113.5v-88q0 -66 13 -96h-82q-11 38 -11 97v92q0 65 -30 92.5t-101 27.5h-95v-309zM147 629v-249h93q69 0 100.5 28t31.5 88v18
q0 61 -28 88t-90 27h-107z" />
    <glyph glyph-name="rcaron" unicode="&#x159;" horiz-adv-x="337" 
d="M315 704l-94 -115h-90l-94 115h71l68 -69l69 69h70zM131 500l1 -99q31 109 136 109q29 0 43 -7v-76q-19 6 -41 6q-129 0 -129 -170v-263h-78v500h68z" />
    <glyph glyph-name="Sacute" unicode="&#x15a;" horiz-adv-x="472" 
d="M250 779h-71l90 115h95zM234 -10q-91 0 -142 48.5t-51 131.5v29h76v-28q0 -51 31.5 -81.5t85.5 -30.5t85.5 30.5t31.5 81.5q0 53 -29 84q-28 30 -114 69q-97 45 -130 89q-34 46 -34 117q0 82 52 131t141 49q90 0 140 -48.5t50 -132.5v-17h-76v16q0 52 -30.5 82t-83.5 30
q-51 0 -81.5 -30t-30.5 -78q0 -50 29 -79q28 -28 116 -69q93 -43 127 -91q34 -46 34 -120q0 -83 -52.5 -133t-144.5 -50z" />
    <glyph glyph-name="sacute" unicode="&#x15b;" horiz-adv-x="430" 
d="M226 589h-71l90 115h95zM218 -10q-86 0 -132.5 38t-46.5 105v18h75v-17q0 -79 100 -79t100 84q0 38 -35 55q-25 12 -82 24q-61 12 -103 41q-47 32 -47 105q0 68 45 107t123 39q76 0 121.5 -37.5t45.5 -102.5v-9h-74v9q0 75 -93 75q-43 0 -68 -20.5t-25 -58.5
q0 -26 17 -43q17 -15 35.5 -21.5t65.5 -17.5q65 -16 102 -40q49 -30 49 -103q0 -71 -45.5 -111t-127.5 -40z" />
    <glyph glyph-name="Scircumflex" unicode="&#x15c;" horiz-adv-x="472" 
d="M167 779h-71l94 115h90l94 -115h-70l-69 68zM234 -10q-91 0 -142 48.5t-51 131.5v29h76v-28q0 -51 31.5 -81.5t85.5 -30.5t85.5 30.5t31.5 81.5q0 53 -29 84q-28 30 -114 69q-97 45 -130 89q-34 46 -34 117q0 82 52 131t141 49q90 0 140 -48.5t50 -132.5v-17h-76v16
q0 52 -30.5 82t-83.5 30q-51 0 -81.5 -30t-30.5 -78q0 -50 29 -79q28 -28 116 -69q93 -43 127 -91q34 -46 34 -120q0 -83 -52.5 -133t-144.5 -50z" />
    <glyph glyph-name="scircumflex" unicode="&#x15d;" horiz-adv-x="430" 
d="M143 589h-71l94 115h90l94 -115h-70l-69 68zM218 -10q-86 0 -132.5 38t-46.5 105v18h75v-17q0 -79 100 -79t100 84q0 38 -35 55q-25 12 -82 24q-61 12 -103 41q-47 32 -47 105q0 68 45 107t123 39q76 0 121.5 -37.5t45.5 -102.5v-9h-74v9q0 75 -93 75q-43 0 -68 -20.5
t-25 -58.5q0 -26 17 -43q17 -15 35.5 -21.5t65.5 -17.5q65 -16 102 -40q49 -30 49 -103q0 -71 -45.5 -111t-127.5 -40z" />
    <glyph glyph-name="Scedilla" unicode="&#x15e;" horiz-adv-x="472" 
d="M431 173q0 -79 -47.5 -128.5t-131.5 -53.5v-41q76 0 76 -53q0 -34 -24 -48t-73 -14q-95 0 -95 61v8h47v-9q0 -27 46 -27q51 0 51 29q0 28 -49 28h-13v65q-84 4 -130.5 52.5t-46.5 127.5v29h76v-28q0 -51 31.5 -81.5t85.5 -30.5t85.5 30.5t31.5 81.5q0 53 -29 84
q-28 30 -114 69q-97 45 -130 89q-34 46 -34 117q0 82 52 131t141 49q90 0 140 -48.5t50 -132.5v-17h-76v16q0 52 -30.5 82t-83.5 30q-51 0 -81.5 -30t-30.5 -78q0 -50 29 -79q28 -28 116 -69q93 -43 127 -91q34 -46 34 -120z" />
    <glyph glyph-name="scedilla" unicode="&#x15f;" horiz-adv-x="430" 
d="M391 141q0 -68 -41.5 -107.5t-117.5 -43.5v-40q76 0 76 -53q0 -34 -24 -48t-73 -14q-95 0 -95 61v8h47v-9q0 -27 46 -27q51 0 51 29q0 28 -49 28h-13v66q-75 4 -117 41.5t-42 100.5v18h75v-17q0 -79 100 -79t100 84q0 38 -35 55q-25 12 -82 24q-61 12 -103 41
q-47 32 -47 105q0 68 45 107t123 39q76 0 121.5 -37.5t45.5 -102.5v-9h-74v9q0 75 -93 75q-43 0 -68 -20.5t-25 -58.5q0 -26 17 -43q17 -15 35.5 -21.5t65.5 -17.5q65 -16 102 -40q49 -30 49 -103z" />
    <glyph glyph-name="Scaron" unicode="&#x160;" horiz-adv-x="472" 
d="M280 779h-90l-94 115h71l68 -69l69 69h70zM234 -10q-91 0 -142 48.5t-51 131.5v29h76v-28q0 -51 31.5 -81.5t85.5 -30.5t85.5 30.5t31.5 81.5q0 53 -29 84q-28 30 -114 69q-97 45 -130 89q-34 46 -34 117q0 82 52 131t141 49q90 0 140 -48.5t50 -132.5v-17h-76v16
q0 52 -30.5 82t-83.5 30q-51 0 -81.5 -30t-30.5 -78q0 -50 29 -79q28 -28 116 -69q93 -43 127 -91q34 -46 34 -120q0 -83 -52.5 -133t-144.5 -50z" />
    <glyph glyph-name="scaron" unicode="&#x161;" horiz-adv-x="430" 
d="M256 589h-90l-94 115h71l68 -69l69 69h70zM218 -10q-86 0 -132.5 38t-46.5 105v18h75v-17q0 -79 100 -79t100 84q0 38 -35 55q-25 12 -82 24q-61 12 -103 41q-47 32 -47 105q0 68 45 107t123 39q76 0 121.5 -37.5t45.5 -102.5v-9h-74v9q0 75 -93 75q-43 0 -68 -20.5
t-25 -58.5q0 -26 17 -43q17 -15 35.5 -21.5t65.5 -17.5q65 -16 102 -40q49 -30 49 -103q0 -71 -45.5 -111t-127.5 -40z" />
    <glyph glyph-name="uni0162" unicode="&#x162;" horiz-adv-x="463" 
d="M272 629v-629h-24v-50q76 0 76 -53q0 -34 -24 -48t-73 -14q-95 0 -95 61v8h47v-9q0 -27 46 -27q51 0 51 29q0 28 -49 28h-13v75h-23v629h-163v71h407v-71h-163z" />
    <glyph glyph-name="uni0163" unicode="&#x163;" horiz-adv-x="347" 
d="M313 500v-65h-125v-297q0 -43 15.5 -60.5t53.5 -17.5q29 0 56 11v-68q-29 -13 -67 -13q-5 0 -31 2v-42q76 0 76 -53q0 -34 -24 -48t-73 -14q-95 0 -95 61v8h47v-9q0 -27 46 -27q51 0 51 29q0 28 -49 28h-13v75q-71 27 -71 130v305h-83v65h85l7 140h69v-140h125z" />
    <glyph glyph-name="Tcaron" unicode="&#x164;" horiz-adv-x="463" 
d="M276 779h-90l-94 115h71l68 -69l69 69h70zM272 0h-81v629h-163v71h407v-71h-163v-629z" />
    <glyph glyph-name="tcaron" unicode="&#x165;" horiz-adv-x="347" 
d="M244 657v115h74v-108l-41 -120h-33l28 113h-28zM119 640h69v-140h125v-65h-125v-297q0 -43 15.5 -60.5t53.5 -17.5q29 0 56 11v-68q-29 -13 -67 -13q-136 0 -136 140v305h-83v65h85z" />
    <glyph glyph-name="Tbar" unicode="&#x166;" horiz-adv-x="463" 
d="M435 700v-71h-163v-232h109v-67h-109v-330h-81v330h-109v67h109v232h-163v71h407z" />
    <glyph glyph-name="tbar" unicode="&#x167;" horiz-adv-x="347" 
d="M313 500v-65h-125v-138h98v-58h-98v-101q0 -43 15.5 -60.5t53.5 -17.5q29 0 56 11v-68q-29 -13 -67 -13q-136 0 -136 140v109h-72v58h72v138h-83v65h85l7 140h69v-140h125z" />
    <glyph glyph-name="Utilde" unicode="&#x168;" horiz-adv-x="516" 
d="M153 776l-44 24q39 89 95 89q32 0 67 -27q26 -19 41 -19q29 0 51 52l45 -24q-40 -88 -96 -88q-33 0 -67 26q-26 19 -41 19q-29 0 -51 -52zM61 185v515h81v-520q0 -119 118 -119q117 0 117 119v520h78v-515q0 -93 -50.5 -144t-146.5 -51t-146.5 51t-50.5 144z" />
    <glyph glyph-name="utilde" unicode="&#x169;" horiz-adv-x="484" 
d="M188 638q-29 0 -51 -52l-44 24q39 89 95 89q32 0 67 -27q26 -19 41 -19q29 0 51 52l45 -24q-40 -88 -96 -88q-33 0 -67 26q-26 19 -41 19zM342 198v302h78v-500h-68l-1 88q-38 -98 -150 -98q-143 0 -143 165v345h78v-332q0 -110 89 -110q56 0 86.5 36.5t30.5 103.5z" />
    <glyph glyph-name="Umacron" unicode="&#x16a;" horiz-adv-x="516" 
d="M387 804h-258v64h258v-64zM61 185v515h81v-520q0 -119 118 -119q117 0 117 119v520h78v-515q0 -93 -50.5 -144t-146.5 -51t-146.5 51t-50.5 144z" />
    <glyph glyph-name="umacron" unicode="&#x16b;" horiz-adv-x="484" 
d="M113 678h258v-64h-258v64zM342 198v302h78v-500h-68l-1 88q-38 -98 -150 -98q-143 0 -143 165v345h78v-332q0 -110 89 -110q56 0 86.5 36.5t30.5 103.5z" />
    <glyph glyph-name="Ubreve" unicode="&#x16c;" horiz-adv-x="516" 
d="M258 777q-58 0 -91 31t-35 86h53q5 -59 73 -59q69 0 75 59h52q-2 -54 -36 -85.5t-91 -31.5zM61 185v515h81v-520q0 -119 118 -119q117 0 117 119v520h78v-515q0 -93 -50.5 -144t-146.5 -51t-146.5 51t-50.5 144z" />
    <glyph glyph-name="ubreve" unicode="&#x16d;" horiz-adv-x="484" 
d="M242 587q-58 0 -91 31t-35 86h53q5 -59 73 -59q69 0 75 59h52q-2 -54 -36 -85.5t-91 -31.5zM342 198v302h78v-500h-68l-1 88q-38 -98 -150 -98q-143 0 -143 165v345h78v-332q0 -110 89 -110q56 0 86.5 36.5t30.5 103.5z" />
    <glyph glyph-name="Uring" unicode="&#x16e;" horiz-adv-x="516" 
d="M163 867q0 41 27 68.5t68 27.5t68 -27.5t27 -68.5q0 -39 -27 -66.5t-68 -27.5t-68 27.5t-27 66.5zM224 832q14 -13 34 -13t34 13q14 14 14 35t-14 35t-34 14t-34 -14t-14 -35t14 -35zM61 185v515h81v-520q0 -119 118 -119q117 0 117 119v520h78v-515q0 -93 -50.5 -144
t-146.5 -51t-146.5 51t-50.5 144z" />
    <glyph glyph-name="uring" unicode="&#x16f;" horiz-adv-x="484" 
d="M147 677q0 41 27 68.5t68 27.5t68 -27.5t27 -68.5q0 -39 -27 -66.5t-68 -27.5t-68 27.5t-27 66.5zM276 712q-14 14 -34 14t-34 -14t-14 -35t14 -35q14 -13 34 -13t34 13q14 14 14 35t-14 35zM342 198v302h78v-500h-68l-1 88q-38 -98 -150 -98q-143 0 -143 165v345h78
v-332q0 -110 89 -110q56 0 86.5 36.5t30.5 103.5z" />
    <glyph glyph-name="Uhungarumlaut" unicode="&#x170;" horiz-adv-x="516" 
d="M197 779h-68l90 115h93zM348 779h-68l89 115h94zM61 185v515h81v-520q0 -119 118 -119q117 0 117 119v520h78v-515q0 -93 -50.5 -144t-146.5 -51t-146.5 51t-50.5 144z" />
    <glyph glyph-name="uhungarumlaut" unicode="&#x171;" horiz-adv-x="484" 
d="M203 704h93l-115 -115h-68zM447 704l-115 -115h-68l89 115h94zM342 198v302h78v-500h-68l-1 88q-38 -98 -150 -98q-143 0 -143 165v345h78v-332q0 -110 89 -110q56 0 86.5 36.5t30.5 103.5z" />
    <glyph glyph-name="Uogonek" unicode="&#x172;" horiz-adv-x="516" 
d="M377 180v520h78v-515q0 -152 -127 -186q-49 -34 -49 -75q0 -39 53 -39q25 0 46 9v-46q-29 -13 -66 -13q-96 0 -96 67q0 52 53 88h-11q-96 0 -146.5 51t-50.5 144v515h81v-520q0 -119 118 -119q117 0 117 119z" />
    <glyph glyph-name="uogonek" unicode="&#x173;" horiz-adv-x="484" 
d="M398 -115q25 0 46 9v-46q-29 -13 -66 -13q-96 0 -96 67q0 59 73 98h-3l-1 88q-38 -98 -150 -98q-143 0 -143 165v345h78v-332q0 -110 89 -110q56 0 86.5 36.5t30.5 103.5v302h78v-500h-16q-59 -35 -59 -76q0 -39 53 -39z" />
    <glyph glyph-name="Wcircumflex" unicode="&#x174;" horiz-adv-x="708" 
d="M286 779h-71l94 115h90l94 -115h-70l-69 68zM255 0h-104l-120 700h80l99 -595l108 595h78l109 -595l100 595h73l-121 -700h-99l-101 555z" />
    <glyph glyph-name="wcircumflex" unicode="&#x175;" horiz-adv-x="670" 
d="M267 589h-71l94 115h90l94 -115h-70l-69 68zM244 0h-100l-116 500h78l96 -416l94 416h85l94 -416l95 416h72l-116 -500h-95l-93 413z" />
    <glyph glyph-name="Ycircumflex" unicode="&#x176;" horiz-adv-x="500" 
d="M181 779h-71l94 115h90l94 -115h-70l-69 68zM290 0h-81v306l-183 394h88l140 -302l139 302h81l-184 -394v-306z" />
    <glyph glyph-name="ycircumflex" unicode="&#x177;" horiz-adv-x="453" 
d="M296 589l-69 68l-68 -68h-71l94 115h90l94 -115h-70zM236 104l116 396h75l-169 -557q-18 -57 -51 -82.5t-88 -25.5q-43 0 -69 14v68q28 -14 61 -14q55 0 73 54l11 36l-170 507h82z" />
    <glyph glyph-name="Ydieresis" unicode="&#x178;" horiz-adv-x="500" 
d="M215 779h-77v115h77v-115zM360 779h-77v115h77v-115zM290 0h-81v306l-183 394h88l140 -302l139 302h81l-184 -394v-306z" />
    <glyph glyph-name="Zacute" unicode="&#x179;" horiz-adv-x="459" 
d="M250 779h-71l90 115h95zM424 0h-391v69l300 560h-288v71h379v-69l-301 -560h301v-71z" />
    <glyph glyph-name="zacute" unicode="&#x17a;" horiz-adv-x="414" 
d="M227 589h-71l90 115h95zM379 0h-346v65l262 368h-250v67h334v-65l-263 -369h263v-66z" />
    <glyph glyph-name="Zdotaccent" unicode="&#x17b;" horiz-adv-x="459" 
d="M275 779h-78v115h78v-115zM424 0h-391v69l300 560h-288v71h379v-69l-301 -560h301v-71z" />
    <glyph glyph-name="zdotaccent" unicode="&#x17c;" horiz-adv-x="414" 
d="M252 589h-78v115h78v-115zM379 0h-346v65l262 368h-250v67h334v-65l-263 -369h263v-66z" />
    <glyph glyph-name="Zcaron" unicode="&#x17d;" horiz-adv-x="459" 
d="M280 779h-90l-94 115h71l68 -69l69 69h70zM424 0h-391v69l300 560h-288v71h379v-69l-301 -560h301v-71z" />
    <glyph glyph-name="zcaron" unicode="&#x17e;" horiz-adv-x="414" 
d="M257 589h-90l-94 115h71l68 -69l69 69h70zM379 0h-346v65l262 368h-250v67h334v-65l-263 -369h263v-66z" />
    <glyph glyph-name="florin" unicode="&#x192;" 
d="M355 362v-2q116 -29 116 -149v-23q0 -132 -134 -158v-85h-61v80h-86v-80h-61v80h-94v71h57v508h-57v71h94v70h61v-70h86v70h61v-77q120 -26 120 -150v-15q0 -111 -102 -141zM260 604h-87v-214h73q65 0 97.5 22t32.5 74v22q0 50 -27.5 73t-88.5 23zM390 192v26
q0 54 -31.5 78t-110.5 24h-75v-224h97q61 0 90.5 22.5t29.5 73.5z" />
    <glyph glyph-name="AEacute" unicode="&#x1fc;" horiz-adv-x="750" 
d="M417 894h95l-114 -115h-71zM716 700v-71h-275v-239h225v-70h-225v-249h275v-71h-356v148h-192l-62 -148h-80l296 700h394zM360 608l-163 -390h163v390z" />
    <glyph glyph-name="aeacute" unicode="&#x1fd;" horiz-adv-x="738" 
d="M404 704h95l-114 -115h-71zM514 510q85 0 131 -47.5t46 -135.5v-90h-290v-72q0 -52 27.5 -80.5t79.5 -28.5q51 0 79 28t28 77h76q-2 -81 -50 -126t-134 -45q-119 0 -163 84q-40 -84 -158 -84q-71 0 -110 35t-39 97q0 61 34.5 97t116.5 56q88 23 110 36q23 15 25 45
q-1 88 -94 88q-48 0 -74 -24.5t-26 -66.5h-73q0 71 45.5 114t122.5 43q109 0 142 -80q41 80 148 80zM401 336v-38h213v38q0 108 -106 108q-52 0 -79.5 -28t-27.5 -80zM199 56q59 0 91.5 36t32.5 104v67q-19 -19 -114 -45q-52 -14 -73 -34t-21 -56q0 -72 84 -72z" />
    <glyph glyph-name="Oslashacute" unicode="&#x1fe;" horiz-adv-x="512" 
d="M290 894h95l-114 -115h-71zM417 726l46 -26l-35 -70q28 -46 28 -115v-330q0 -94 -51.5 -144.5t-148.5 -50.5q-84 0 -134 38l-27 -54l-46 26l35 70q-28 46 -28 115v330q0 94 51.5 144.5t148.5 50.5q84 0 134 -38zM137 520v-346l216 426q-30 39 -97 39q-119 0 -119 -119z
M376 180v348l-217 -427q30 -40 97 -40q120 0 120 119z" />
    <glyph glyph-name="oslashacute" unicode="&#x1ff;" horiz-adv-x="465" 
d="M267 704h95l-114 -115h-71zM415 504l-34 -56q35 -47 35 -121v-153q0 -88 -47.5 -136t-135.5 -48q-71 0 -114 30l-28 -46l-40 25l33 54q-35 47 -35 121v153q0 88 48 135.5t136 47.5q66 0 113 -29l29 48zM127 334v-168q0 -23 4 -36l176 288q-27 24 -74 24q-51 0 -78.5 -28
t-27.5 -80zM338 166v168q0 24 -4 37l-176 -288q28 -25 75 -25q51 0 78 28t27 80z" />
    <glyph glyph-name="uni0218" unicode="&#x218;" horiz-adv-x="472" 
d="M234 -10q-91 0 -142 48.5t-51 131.5v29h76v-28q0 -51 31.5 -81.5t85.5 -30.5t85.5 30.5t31.5 81.5q0 53 -29 84q-28 30 -114 69q-97 45 -130 89q-34 46 -34 117q0 82 52 131t141 49q90 0 140 -48.5t50 -132.5v-17h-76v16q0 52 -30.5 82t-83.5 30q-51 0 -81.5 -30
t-30.5 -78q0 -50 29 -79q28 -28 116 -69q93 -43 127 -91q34 -46 34 -120q0 -83 -52.5 -133t-144.5 -50zM226 -231h-32l37 67h-34v102h78v-95z" />
    <glyph glyph-name="uni0219" unicode="&#x219;" horiz-adv-x="430" 
d="M218 -10q-86 0 -132.5 38t-46.5 105v18h75v-17q0 -79 100 -79t100 84q0 38 -35 55q-25 12 -82 24q-61 12 -103 41q-47 32 -47 105q0 68 45 107t123 39q76 0 121.5 -37.5t45.5 -102.5v-9h-74v9q0 75 -93 75q-43 0 -68 -20.5t-25 -58.5q0 -26 17 -43q17 -15 35.5 -21.5
t65.5 -17.5q65 -16 102 -40q49 -30 49 -103q0 -71 -45.5 -111t-127.5 -40zM206 -231h-32l37 67h-34v102h78v-95z" />
    <glyph glyph-name="uni021A" unicode="&#x21a;" horiz-adv-x="463" 
d="M272 0h-81v629h-163v71h407v-71h-163v-629zM222 -231h-32l37 67h-34v102h78v-95z" />
    <glyph glyph-name="uni021B" unicode="&#x21b;" horiz-adv-x="347" 
d="M313 500v-65h-125v-297q0 -43 15.5 -60.5t53.5 -17.5q29 0 56 11v-68q-29 -13 -67 -13q-136 0 -136 140v305h-83v65h85l7 140h69v-140h125zM194 -164h-34v102h78v-95l-49 -74h-32z" />
    <glyph glyph-name="uni0237" unicode="&#x237;" horiz-adv-x="204" 
d="M32 -165q-35 0 -57 13v66q35 -18 63.5 -8t24.5 51v543h78v-546q0 -119 -109 -119z" />
    <glyph glyph-name="uni02BC" unicode="&#x2bc;" horiz-adv-x="0" 
d="M-6 472h-34l30 110h-29v118h78v-111z" />
    <glyph glyph-name="circumflex" unicode="&#x2c6;" horiz-adv-x="635" 
d="M250 589h-71l94 115h90l94 -115h-70l-69 68z" />
    <glyph glyph-name="caron" unicode="&#x2c7;" horiz-adv-x="635" 
d="M363 589h-90l-94 115h71l68 -69l69 69h70z" />
    <glyph glyph-name="uni02C9" unicode="&#x2c9;" horiz-adv-x="635" 
d="M447 614h-258v64h258v-64z" />
    <glyph glyph-name="breve" unicode="&#x2d8;" horiz-adv-x="635" 
d="M318 587q-58 0 -91 31t-35 86h53q5 -59 73 -59q69 0 75 59h52q-2 -54 -36 -85.5t-91 -31.5z" />
    <glyph glyph-name="dotaccent" unicode="&#x2d9;" horiz-adv-x="635" 
d="M358 589h-78v115h78v-115z" />
    <glyph glyph-name="ring" unicode="&#x2da;" horiz-adv-x="635" 
d="M223 677q0 41 27 68.5t68 27.5t68 -27.5t27 -68.5q0 -39 -27 -66.5t-68 -27.5t-68 27.5t-27 66.5zM284 642q14 -13 34 -13t34 13q14 14 14 35t-14 35t-34 14t-34 -14t-14 -35t14 -35z" />
    <glyph glyph-name="ogonek" unicode="&#x2db;" horiz-adv-x="635" 
d="M334 -165q-96 0 -96 67q0 63 77 102h44q-58 -34 -58 -80q0 -39 53 -39q25 0 46 9v-46q-29 -13 -66 -13z" />
    <glyph glyph-name="tilde" unicode="&#x2dc;" horiz-adv-x="635" 
d="M213 586l-44 24q39 89 95 89q32 0 67 -27q26 -19 41 -19q29 0 51 52l45 -24q-40 -88 -96 -88q-33 0 -67 26q-26 19 -41 19q-29 0 -51 -52z" />
    <glyph glyph-name="hungarumlaut" unicode="&#x2dd;" horiz-adv-x="635" 
d="M257 589h-68l90 115h93zM408 589h-68l89 115h94z" />
    <glyph glyph-name="gravecomb" unicode="&#x300;" horiz-adv-x="0" 
d="M56 589h-71l-114 115h95z" />
    <glyph glyph-name="acutecomb" unicode="&#x301;" horiz-adv-x="0" 
d="M15 589h-71l90 115h95z" />
    <glyph glyph-name="uni0302" unicode="&#x302;" horiz-adv-x="0" 
d="M-69 589h-70l94 115h90l94 -115h-70l-69 68z" />
    <glyph glyph-name="tildecomb" unicode="&#x303;" horiz-adv-x="0" 
d="M-105 586l-44 24q39 89 95 89q33 0 67 -27q26 -19 41 -19q29 0 51 52l45 -24q-40 -88 -96 -88q-33 0 -67 26q-26 19 -41 19q-29 0 -51 -52z" />
    <glyph glyph-name="uni0304" unicode="&#x304;" horiz-adv-x="0" 
d="M129 614h-258v64h258v-64z" />
    <glyph glyph-name="uni0306" unicode="&#x306;" horiz-adv-x="0" 
d="M0 587q-58 0 -91 31t-35 86h53q5 -59 73 -59q69 0 75 59h52q-2 -54 -36 -85.5t-91 -31.5z" />
    <glyph glyph-name="uni0307" unicode="&#x307;" horiz-adv-x="0" 
d="M40 589h-79v115h79v-115z" />
    <glyph glyph-name="uni0308" unicode="&#x308;" horiz-adv-x="0" 
d="M-34 589h-77v115h77v-115zM111 589h-77v115h77v-115z" />
    <glyph glyph-name="uni030A" unicode="&#x30a;" horiz-adv-x="0" 
d="M-95 677q0 41 27 68.5t68 27.5t68 -27.5t27 -68.5q0 -39 -27 -66.5t-68 -27.5t-68 27.5t-27 66.5zM-34 642q14 -13 34 -13t34 13q14 14 14 35t-14 35t-34 14t-34 -14t-14 -35t14 -35z" />
    <glyph glyph-name="uni030B" unicode="&#x30b;" horiz-adv-x="0" 
d="M-61 589h-68l90 115h93zM90 589h-68l89 115h94z" />
    <glyph glyph-name="uni030C" unicode="&#x30c;" horiz-adv-x="0" 
d="M45 589h-90l-94 115h70l69 -69l69 69h70z" />
    <glyph glyph-name="uni0312" unicode="&#x312;" horiz-adv-x="0" 
d="M39 589h-79v97l47 73h32l-35 -67h35v-103z" />
    <glyph glyph-name="uni0326" unicode="&#x326;" horiz-adv-x="0" 
d="M-9 -231h-32l37 67h-35v102h79v-95z" />
    <glyph glyph-name="uni0327" unicode="&#x327;" horiz-adv-x="0" 
d="M-4 -165q-95 0 -95 61v8h47v-9q0 -27 46 -27q51 0 51 29q0 28 -49 28h-13v82h34v-57q76 0 76 -53q0 -34 -24 -48t-73 -14z" />
    <glyph glyph-name="uni0328" unicode="&#x328;" horiz-adv-x="0" 
d="M16 -165q-96 0 -96 67q0 63 77 102h44q-58 -34 -58 -80q0 -39 53 -39q25 0 46 9v-46q-29 -13 -66 -13z" />
    <glyph glyph-name="uni0335" unicode="&#x335;" horiz-adv-x="0" 
d="M124 411h-248v67h248v-67z" />
    <glyph glyph-name="uni0336" unicode="&#x336;" horiz-adv-x="0" 
d="M253 411h-506v67h506v-67z" />
    <glyph glyph-name="uni0337" unicode="&#x337;" horiz-adv-x="0" 
d="M182 504l-324 -530l-40 25l324 530z" />
    <glyph glyph-name="uni0338" unicode="&#x338;" horiz-adv-x="0" 
d="M207 700l-368 -726l-46 26l368 726z" />
    <glyph glyph-name="uni0394" unicode="&#x394;" horiz-adv-x="507" 
d="M198 700h109l172 -700h-451zM249 609l-127 -539h256z" />
    <glyph glyph-name="uni03A9" unicode="&#x3a9;" horiz-adv-x="509" 
d="M229 0h-175v71h112v2q-61 48 -86.5 103.5t-25.5 140.5v198q0 94 52 144.5t149 50.5t148.5 -50.5t51.5 -144.5v-198q0 -85 -25.5 -140.5t-86.5 -103.5v-2h112v-71h-175v72q53 45 73.5 92.5t20.5 120.5v235q0 119 -119 119q-120 0 -120 -119v-235q0 -73 20.5 -120.5
t73.5 -92.5v-72z" />
    <glyph glyph-name="uni03BC" unicode="&#x3bc;" horiz-adv-x="488" 
d="M347 198v302h78v-500h-68l-1 88q-38 -98 -150 -98q-38 0 -65 12v-157h-78v655h78v-332q0 -110 89 -110q56 0 86.5 36.5t30.5 103.5z" />
    <glyph glyph-name="pi" unicode="&#x3c0;" horiz-adv-x="560" 
d="M190 0h-78v435h-85v65h506v-65h-83v-435h-78v435h-182v-435z" />
    <glyph glyph-name="uni0401" unicode="&#x401;" horiz-adv-x="457" 
d="M211 779h-77v115h77v-115zM356 779h-77v115h77v-115zM423 0h-357v700h357v-71h-276v-239h226v-70h-226v-249h276v-71z" />
    <glyph glyph-name="uni0404" unicode="&#x404;" horiz-adv-x="489" 
d="M449 517v-13h-76v16q0 59 -31 89.5t-89 30.5q-55 0 -86 -31.5t-31 -88.5v-120h177v-72h-177v-148q0 -57 31 -88.5t86 -31.5q58 0 89 30.5t31 89.5v34h76v-31q0 -93 -51 -143t-146 -50q-94 0 -145.5 50.5t-51.5 142.5v334q0 92 51.5 142.5t145.5 50.5q95 0 146 -50
t51 -143z" />
    <glyph glyph-name="uni0406" unicode="&#x406;" horiz-adv-x="213" 
d="M147 0h-81v700h81v-700z" />
    <glyph glyph-name="uni0407" unicode="&#x407;" horiz-adv-x="213" 
d="M73 779h-77v115h77v-115zM218 779h-77v115h77v-115zM147 0h-81v700h81v-700z" />
    <glyph glyph-name="uni0410" unicode="&#x410;" horiz-adv-x="507" 
d="M479 0h-84l-35 148h-220l-35 -148h-77l170 700h109zM249 609l-92 -390h185z" />
    <glyph glyph-name="uni0411" unicode="&#x411;" horiz-adv-x="500" 
d="M147 410h118q198 0 198 -192v-26q0 -192 -198 -192h-199v700h347v-71h-266v-219zM382 188v34q0 61 -28 89t-89 28h-118v-268h118q61 0 89 28t28 89z" />
    <glyph glyph-name="uni0412" unicode="&#x412;" horiz-adv-x="512" 
d="M271 0h-205v700h192q197 0 197 -171v-13q0 -116 -101 -148v-2q115 -28 115 -163v-17q0 -94 -48.5 -140t-149.5 -46zM147 629v-234h96q68 0 100 26.5t32 84.5v13q0 58 -28.5 84t-90.5 26h-109zM147 325v-254h124q62 0 90 27t28 88v19q0 64 -33 92t-108 28h-101z" />
    <glyph glyph-name="uni0413" unicode="&#x413;" horiz-adv-x="426" 
d="M147 0h-81v700h332v-71h-251v-629z" />
    <glyph glyph-name="uni0414" unicode="&#x414;" horiz-adv-x="600" 
d="M510 700v-629h61v-165h-81v94h-380v-94h-81v165h69q34 35 39 117l26 512h347zM179 71h250v558h-190l-21 -438q-4 -79 -39 -120z" />
    <glyph glyph-name="uni0415" unicode="&#x415;" horiz-adv-x="457" 
d="M423 0h-357v700h357v-71h-276v-239h226v-70h-226v-249h276v-71z" />
    <glyph glyph-name="uni0416" unicode="&#x416;" horiz-adv-x="788" 
d="M760 0h-83l-151 372l-92 -132v-240h-81v242l-91 130l-151 -372h-83l181 434l-178 266h85l237 -356v356h81v-358l239 358h84l-178 -266z" />
    <glyph glyph-name="uni0417" unicode="&#x417;" horiz-adv-x="481" 
d="M237 -10q-99 0 -148.5 50t-49.5 142v32h76v-34q0 -119 120 -119t120 124v22q0 122 -123 122h-55v72h57q57 0 88 29t31 83v14q0 54 -30.5 83t-87.5 29q-115 0 -115 -116v-19h-76v12q0 194 195 194q93 0 143.5 -47.5t50.5 -132.5v-15q0 -52 -28.5 -91.5t-78.5 -54.5v-1
q108 -28 108 -161v-22q0 -195 -197 -195z" />
    <glyph glyph-name="uni0418" unicode="&#x418;" horiz-adv-x="541" 
d="M141 154l249 546h85v-700h-75v549l-249 -549h-85v700h75v-546z" />
    <glyph glyph-name="uni0419" unicode="&#x419;" horiz-adv-x="541" 
d="M270 777q-58 0 -91 31t-35 86h53q5 -59 73 -59q69 0 75 59h52q-2 -54 -36 -85.5t-91 -31.5zM141 154l249 546h85v-700h-75v549l-249 -549h-85v700h75v-546z" />
    <glyph glyph-name="uni041A" unicode="&#x41a;" horiz-adv-x="520" 
d="M493 0h-88l-162 366l-96 -132v-234h-81v700h81v-354l257 354h86l-190 -264z" />
    <glyph glyph-name="uni041B" unicode="&#x41b;" horiz-adv-x="581" 
d="M56 -1q-14 0 -28 3v70q18 -2 23 -2q50 0 70 24.5t22 84.5l25 521h347v-700h-81v629h-190l-22 -458q-4 -91 -42 -131.5t-124 -40.5z" />
    <glyph glyph-name="uni041C" unicode="&#x41c;" horiz-adv-x="663" 
d="M138 0h-72v700h117l148 -563l147 563h119v-700h-79v590l-157 -590h-65l-158 590v-590z" />
    <glyph glyph-name="uni041D" unicode="&#x41d;" horiz-adv-x="532" 
d="M147 0h-81v700h81v-310h238v310h81v-700h-81v320h-238v-320z" />
    <glyph glyph-name="uni041E" unicode="&#x41e;" horiz-adv-x="512" 
d="M56 185v330q0 94 51.5 144.5t148.5 50.5t148.5 -50.5t51.5 -144.5v-330q0 -94 -51.5 -144.5t-148.5 -50.5t-148.5 50.5t-51.5 144.5zM256 61q120 0 120 119v340q0 119 -120 119q-119 0 -119 -119v-340q0 -119 119 -119z" />
    <glyph glyph-name="uni041F" unicode="&#x41f;" horiz-adv-x="532" 
d="M147 0h-81v700h400v-700h-81v629h-238v-629z" />
    <glyph glyph-name="uni0420" unicode="&#x420;" horiz-adv-x="490" 
d="M147 0h-81v700h188q102 0 151 -45.5t49 -140.5v-29q0 -95 -49 -140.5t-151 -45.5h-107v-299zM147 629v-259h107q63 0 91 26.5t28 88.5v29q0 61 -28 88t-91 27h-107z" />
    <glyph glyph-name="uni0421" unicode="&#x421;" horiz-adv-x="489" 
d="M249 -10q-91 0 -142 51t-51 142v334q0 91 51 142t142 51q94 0 145 -50.5t51 -142.5v-48h-77v51q0 57 -31 88.5t-86 31.5q-54 0 -84 -31.5t-30 -88.5v-340q0 -57 30 -88.5t84 -31.5q55 0 86 31.5t31 88.5v71h77v-68q0 -92 -51 -142.5t-145 -50.5z" />
    <glyph glyph-name="uni0422" unicode="&#x422;" horiz-adv-x="463" 
d="M272 0h-81v629h-163v71h407v-71h-163v-629z" />
    <glyph glyph-name="uni0423" unicode="&#x423;" horiz-adv-x="498" 
d="M124 -10q-40 0 -67 11v70q27 -10 59 -10q38 0 57 12.5t31 41.5l16 49l-188 536h85l145 -423l134 423h78l-192 -595q-20 -62 -56 -88.5t-102 -26.5z" />
    <glyph glyph-name="uni0424" unicode="&#x424;" horiz-adv-x="695" 
d="M388 0h-81v79h-44q-220 0 -220 211v120q0 211 220 211h44v79h81v-79h44q220 0 220 -211v-120q0 -211 -220 -211h-44v-79zM263 150h44v400h-44q-139 0 -139 -137v-126q0 -137 139 -137zM388 550v-400h44q139 0 139 137v126q0 137 -139 137h-44z" />
    <glyph glyph-name="uni0425" unicode="&#x425;" horiz-adv-x="507" 
d="M107 0h-80l180 358l-172 342h88l134 -270l134 270h81l-174 -342l182 -358h-89l-141 287z" />
    <glyph glyph-name="uni0426" unicode="&#x426;" horiz-adv-x="570" 
d="M541 -94h-81v94h-394v700h81v-629h239v629h80v-629h75v-165z" />
    <glyph glyph-name="uni0427" unicode="&#x427;" horiz-adv-x="516" 
d="M369 479v221h81v-700h-81v326q-53 -69 -157 -69q-82 0 -124.5 46.5t-42.5 135.5v261h81v-249q0 -120 107 -120q63 0 99.5 40t36.5 108z" />
    <glyph glyph-name="uni0428" unicode="&#x428;" horiz-adv-x="745" 
d="M679 0h-613v700h81v-629h185v629h81v-629h185v629h81v-700z" />
    <glyph glyph-name="uni0429" unicode="&#x429;" horiz-adv-x="781" 
d="M753 -94h-81v94h-606v700h81v-629h185v629h81v-629h185v629h81v-629h74v-165z" />
    <glyph glyph-name="uni042A" unicode="&#x42a;" horiz-adv-x="568" 
d="M334 0h-191v629h-115v71h196v-290h110q198 0 198 -192v-26q0 -192 -198 -192zM224 339v-268h110q61 0 89 28t28 89v34q0 61 -28 89t-89 28h-110z" />
    <glyph glyph-name="uni042B" unicode="&#x42b;" horiz-adv-x="704" 
d="M257 0h-191v700h81v-290h110q198 0 198 -192v-26q0 -192 -198 -192zM639 0h-81v700h81v-700zM147 339v-268h110q61 0 89 28t28 89v34q0 61 -28 89t-89 28h-110z" />
    <glyph glyph-name="uni042C" unicode="&#x42c;" horiz-adv-x="492" 
d="M257 0h-191v700h81v-290h110q198 0 198 -192v-26q0 -192 -198 -192zM147 339v-268h110q61 0 89 28t28 89v34q0 61 -28 89t-89 28h-110z" />
    <glyph glyph-name="uni042D" unicode="&#x42d;" horiz-adv-x="489" 
d="M237 710q94 0 145.5 -50.5t51.5 -142.5v-334q0 -92 -51.5 -142.5t-145.5 -50.5q-95 0 -146 50t-51 143v31h76v-34q0 -59 31 -89.5t89 -30.5q55 0 86 31.5t31 88.5v148h-177v72h177v120q0 57 -31 88.5t-86 31.5q-58 0 -89 -30.5t-31 -89.5v-16h-76v13q0 93 51 143t146 50z
" />
    <glyph glyph-name="uni042E" unicode="&#x42e;" horiz-adv-x="729" 
d="M673 515v-330q0 -94 -51.5 -144.5t-148.5 -50.5t-148.5 50.5t-51.5 144.5v145h-126v-330h-81v700h81v-300h126v115q0 94 51.5 144.5t148.5 50.5t148.5 -50.5t51.5 -144.5zM593 180v340q0 119 -120 119q-119 0 -119 -119v-340q0 -119 119 -119q120 0 120 119z" />
    <glyph glyph-name="uni042F" unicode="&#x42f;" horiz-adv-x="510" 
d="M444 700v-700h-81v309h-95q-71 0 -101 -27.5t-30 -92.5v-92q0 -59 -11 -97h-82q13 30 13 96v88q0 74 26 113.5t83 51.5v1q-57 15 -83 53.5t-26 105.5v18q0 173 198 173h189zM270 380h93v249h-107q-62 0 -90 -27t-28 -88v-18q0 -60 31.5 -88t100.5 -28z" />
    <glyph glyph-name="uni0430" unicode="&#x430;" horiz-adv-x="462" 
d="M414 0h-72q-9 19 -10 88q-38 -98 -153 -98q-67 0 -104.5 35t-37.5 97q0 61 34.5 97t116.5 56q88 23 111 36q24 15 24 45q-1 88 -94 88q-48 0 -74 -24.5t-26 -66.5h-73q0 72 47 114.5t128 42.5q170 0 170 -169v-204q0 -98 13 -137zM199 56q59 0 91.5 36t32.5 104v67
q-19 -19 -114 -45q-52 -14 -73 -34t-21 -56q0 -72 84 -72z" />
    <glyph glyph-name="uni0431" unicode="&#x431;" horiz-adv-x="472" 
d="M278 487q145 0 145 -165v-148q0 -88 -47.5 -136t-136.5 -48q-88 0 -135.5 48t-47.5 136v257q0 82 37 135q15 21 46 39q31 19 51 27l63 23q81 29 128 55v-80q-31 -16 -111 -44q-41 -13 -55 -19q-21 -9 -41 -22q-40 -28 -40 -90v-45q42 77 144 77zM345 166v144
q0 110 -92 110q-58 0 -88.5 -36.5t-30.5 -103.5v-114q0 -52 27 -80t78 -28t78.5 28t27.5 80z" />
    <glyph glyph-name="uni0432" unicode="&#x432;" horiz-adv-x="487" 
d="M283 0h-220v500h208q161 0 161 -128v-4q0 -87 -70 -109v-1q84 -21 84 -116v-4q0 -138 -163 -138zM141 437v-152h117q50 0 73 18t23 58v4q0 72 -88 72h-125zM141 222v-159h139q47 0 67.5 18.5t20.5 60.5v4q0 40 -25.5 58t-81.5 18h-120z" />
    <glyph glyph-name="uni0433" unicode="&#x433;" horiz-adv-x="375" 
d="M141 0h-78v500h285v-65h-207v-435z" />
    <glyph glyph-name="uni0434" unicode="&#x434;" horiz-adv-x="554" 
d="M469 500v-434h57v-160h-78v94h-343v-94h-78v160h67q31 22 36 93l24 341h315zM170 66h221v369h-164l-19 -271q-2 -27 -4.5 -40t-10.5 -29t-23 -29z" />
    <glyph glyph-name="uni0435" unicode="&#x435;" horiz-adv-x="464" 
d="M233 510q89 0 136.5 -47.5t47.5 -135.5v-90h-290v-72q0 -52 27.5 -80.5t79.5 -28.5q51 0 79 28t28 77h76q-3 -82 -51 -126.5t-133 -44.5q-88 0 -136 47.5t-48 135.5v154q0 88 48 135.5t136 47.5zM127 336v-38h213v38q0 108 -107 108q-51 0 -78.5 -28t-27.5 -80z" />
    <glyph glyph-name="uni0436" unicode="&#x436;" horiz-adv-x="712" 
d="M687 0h-85l-124 256l-82 -100v-156h-78v155l-83 102l-124 -257h-86l158 312l-150 188h83l202 -253v253h78v-251l200 251h83l-150 -189z" />
    <glyph glyph-name="uni0437" unicode="&#x437;" horiz-adv-x="439" 
d="M217 -10q-86 0 -132.5 38.5t-46.5 110.5v22h75v-16q0 -84 101 -84q103 0 103 87v3q0 76 -106 76h-49v67h50q103 0 103 70v1q0 74 -100 74q-99 0 -99 -81v-4h-74v11q0 69 46.5 107t129.5 38t129 -35t46 -98v-1q0 -43 -22 -72t-60 -39v-2q84 -22 84 -116v-4
q0 -73 -46.5 -113t-131.5 -40z" />
    <glyph glyph-name="uni0438" unicode="&#x438;" horiz-adv-x="495" 
d="M136 115l214 385h82v-500h-73v384l-214 -384h-82v500h73v-385z" />
    <glyph glyph-name="uni0439" unicode="&#x439;" horiz-adv-x="495" 
d="M247 587q-58 0 -91 31t-35 86h53q5 -59 73 -59q69 0 75 59h52q-2 -54 -36 -85.5t-91 -31.5zM136 115l214 385h82v-500h-73v384l-214 -384h-82v500h73v-385z" />
    <glyph glyph-name="uni043A" unicode="&#x43a;" horiz-adv-x="480" 
d="M455 0h-88l-138 251l-88 -101v-150h-78v500h78v-256l217 256h89l-162 -189z" />
    <glyph glyph-name="uni043B" unicode="&#x43b;" horiz-adv-x="538" 
d="M69 -4q-25 0 -42 6v67q16 -4 34 -4q38 0 55 20t20 67l23 348h315v-500h-78v435h-163l-21 -296q-5 -72 -38.5 -107.5t-104.5 -35.5z" />
    <glyph glyph-name="uni043C" unicode="&#x43c;" horiz-adv-x="659" 
d="M329 102l154 398h113v-500h-77v413l-161 -413h-63l-161 413v-413h-71v500h112z" />
    <glyph glyph-name="uni043D" unicode="&#x43d;" horiz-adv-x="494" 
d="M353 292v208h78v-500h-78v228h-212v-228h-78v500h78v-208h212z" />
    <glyph glyph-name="uni043E" unicode="&#x43e;" horiz-adv-x="465" 
d="M233 -10q-89 0 -136.5 48t-47.5 136v153q0 88 48 135.5t136 47.5t135.5 -47.5t47.5 -135.5v-153q0 -88 -47.5 -136t-135.5 -48zM338 166v168q0 52 -27 80t-78 28t-78.5 -28t-27.5 -80v-168q0 -52 27.5 -80t78.5 -28t78 28t27 80z" />
    <glyph glyph-name="uni043F" unicode="&#x43f;" horiz-adv-x="488" 
d="M63 500h362v-500h-78v435h-206v-435h-78v500z" />
    <glyph glyph-name="uni0440" unicode="&#x440;" horiz-adv-x="483" 
d="M285 510q145 0 145 -165v-190q0 -165 -145 -165q-102 0 -144 79v-224h-78v655h68l1 -90q37 100 153 100zM352 167v165q0 57 -22 83.5t-70 26.5q-57 0 -88 -36.5t-31 -103.5v-105q0 -67 31 -103t88 -36q48 0 70 26.5t22 82.5z" />
    <glyph glyph-name="uni0441" unicode="&#x441;" horiz-adv-x="451" 
d="M232 -11q-88 0 -135 47t-47 135v156q0 88 47.5 135.5t134.5 47.5q86 0 131 -46t47 -132v-4h-75v7q0 107 -103 107q-50 0 -77 -28t-27 -79v-171q0 -107 104 -107q103 0 103 107v19h75v-12q0 -88 -45 -135t-133 -47z" />
    <glyph glyph-name="uni0442" unicode="&#x442;" horiz-adv-x="446" 
d="M262 0h-78v435h-157v65h392v-65h-157v-435z" />
    <glyph glyph-name="uni0443" unicode="&#x443;" horiz-adv-x="453" 
d="M236 104l116 396h75l-169 -557q-18 -57 -51 -82.5t-88 -25.5q-43 0 -69 14v68q28 -14 61 -14q55 0 73 54l11 36l-170 507h82z" />
    <glyph glyph-name="uni0444" unicode="&#x444;" horiz-adv-x="619" 
d="M349 -155h-78v155h-21q-100 0 -151.5 47t-51.5 137v133q0 90 51.5 137t151.5 47h21v199h78v-199h21q99 0 150.5 -47t51.5 -137v-133q0 -90 -51.5 -137t-150.5 -47h-21v-155zM250 65h21v372h-21q-125 0 -125 -117v-140q0 -115 125 -115zM349 437v-372h21q124 0 124 115
v140q0 117 -124 117h-21z" />
    <glyph glyph-name="uni0445" unicode="&#x445;" horiz-adv-x="457" 
d="M103 0h-78l158 256l-151 244h85l114 -188l115 188h78l-151 -244l159 -256h-86l-121 203z" />
    <glyph glyph-name="uni0446" unicode="&#x446;" horiz-adv-x="525" 
d="M497 -94h-78v94h-356v500h78v-435h206v435h78v-435h72v-159z" />
    <glyph glyph-name="uni0447" unicode="&#x447;" horiz-adv-x="467" 
d="M326 381v119h78v-500h-78v245q-42 -71 -138 -71q-70 0 -108 42.5t-38 122.5v161h78v-149q0 -109 89 -109q56 0 86.5 36t30.5 103z" />
    <glyph glyph-name="uni0448" unicode="&#x448;" horiz-adv-x="725" 
d="M661 0h-598v500h78v-435h182v435h78v-435h182v435h78v-500z" />
    <glyph glyph-name="uni0449" unicode="&#x449;" horiz-adv-x="761" 
d="M734 -94h-78v94h-593v500h78v-435h182v435h78v-435h182v435h78v-435h73v-159z" />
    <glyph glyph-name="uni044A" unicode="&#x44a;" horiz-adv-x="563" 
d="M224 314h124q181 0 181 -157t-181 -157h-202v435h-119v65h197v-186zM224 65h123q54 0 79 22t25 70t-25.5 70.5t-78.5 22.5h-123v-185z" />
    <glyph glyph-name="uni044B" unicode="&#x44b;" horiz-adv-x="685" 
d="M265 0h-202v500h78v-186h124q181 0 181 -157t-181 -157zM621 0h-78v500h78v-500zM141 250v-185h123q54 0 79 22t25 70t-25.5 70.5t-78.5 22.5h-123z" />
    <glyph glyph-name="uni044C" unicode="&#x44c;" horiz-adv-x="480" 
d="M265 0h-202v500h78v-186h124q181 0 181 -157t-181 -157zM141 250v-185h123q54 0 79 22t25 70t-25.5 70.5t-78.5 22.5h-123z" />
    <glyph glyph-name="uni044D" unicode="&#x44d;" horiz-adv-x="454" 
d="M221 -10q-85 0 -132.5 44t-50.5 127h75q3 -105 107 -105q52 0 79.5 28.5t27.5 80.5v59h-169v61h169v51q0 52 -27.5 80t-78.5 28q-100 0 -106 -94h-76q6 78 52.5 119t129.5 41q88 0 136 -47.5t48 -135.5v-154q0 -88 -48 -135.5t-136 -47.5z" />
    <glyph glyph-name="uni044E" unicode="&#x44e;" horiz-adv-x="687" 
d="M638 327v-153q0 -88 -47.5 -136t-135.5 -48q-89 0 -136.5 48t-47.5 136v53h-130v-227h-78v500h78v-208h130v35q0 88 48 135.5t136 47.5t135.5 -47.5t47.5 -135.5zM560 166v168q0 52 -27 80t-78 28t-78.5 -28t-27.5 -80v-168q0 -52 27.5 -80t78.5 -28t78 28t27 80z" />
    <glyph glyph-name="uni044F" unicode="&#x44f;" horiz-adv-x="497" 
d="M122 0h-80q13 29 13 66v49q0 60 19 88.5t67 36.5v1q-45 10 -65.5 38.5t-20.5 80.5v4q0 71 42 103.5t134 32.5h203v-500h-78v202h-112q-63 0 -87 -18.5t-24 -64.5v-52q0 -37 -11 -67zM246 269h110v164h-120q-56 0 -79 -18t-23 -62v-4q0 -42 26.5 -61t85.5 -19z" />
    <glyph glyph-name="uni0451" unicode="&#x451;" horiz-adv-x="464" 
d="M123 704h77v-115h-77v115zM268 704h77v-115h-77v115zM233 510q89 0 136.5 -47.5t47.5 -135.5v-90h-290v-72q0 -52 27.5 -80.5t79.5 -28.5q51 0 79 28t28 77h76q-3 -82 -51 -126.5t-133 -44.5q-88 0 -136 47.5t-48 135.5v154q0 88 48 135.5t136 47.5zM127 336v-38h213v38
q0 108 -107 108q-51 0 -78.5 -28t-27.5 -80z" />
    <glyph glyph-name="uni0454" unicode="&#x454;" horiz-adv-x="455" 
d="M233 -10q-88 0 -136 47.5t-48 135.5v154q0 88 48 135.5t136 47.5q83 0 130 -41.5t53 -118.5h-76q-7 94 -107 94q-51 0 -78.5 -28t-27.5 -80v-51h170v-61h-170v-59q0 -52 27.5 -80.5t79.5 -28.5q104 0 107 105h76q-4 -83 -51.5 -127t-132.5 -44z" />
    <glyph glyph-name="uni0456" unicode="&#x456;" horiz-adv-x="204" 
d="M142 589h-78v115h78v-115zM141 0h-78v500h78v-500z" />
    <glyph glyph-name="uni0457" unicode="&#x457;" horiz-adv-x="204" 
d="M68 589h-77v115h77v-115zM213 589h-77v115h77v-115zM141 0h-78v500h78v-500z" />
    <glyph glyph-name="uni0490" unicode="&#x490;" horiz-adv-x="426" 
d="M317 700v94h81v-165h-251v-629h-81v700h251z" />
    <glyph glyph-name="uni0491" unicode="&#x491;" horiz-adv-x="375" 
d="M270 501v94h78v-160h-207v-435h-78v500h208z" />
    <glyph glyph-name="uni1E02" unicode="&#x1e02;" horiz-adv-x="512" 
d="M282 779h-78v115h78v-115zM271 0h-205v700h192q197 0 197 -171v-13q0 -116 -101 -148v-2q115 -28 115 -163v-17q0 -94 -48.5 -140t-149.5 -46zM147 629v-234h96q68 0 100 26.5t32 84.5v13q0 58 -28.5 84t-90.5 26h-109zM147 325v-254h124q62 0 90 27t28 88v19
q0 64 -33 92t-108 28h-101z" />
    <glyph glyph-name="uni1E03" unicode="&#x1e03;" horiz-adv-x="483" 
d="M64 894h78v-115h-78v115zM285 510q145 0 145 -165v-190q0 -165 -145 -165q-115 0 -153 99l-12 -89h-57v700h78v-270q42 80 144 80zM352 167v165q0 57 -22 83.5t-70 26.5q-57 0 -88 -36.5t-31 -103.5v-105q0 -67 31 -103t88 -36q48 0 70 26.5t22 82.5z" />
    <glyph glyph-name="uni1E0A" unicode="&#x1e0a;" horiz-adv-x="516" 
d="M288 779h-78v115h78v-115zM263 0h-197v700h197q198 0 198 -192v-316q0 -192 -198 -192zM147 629v-558h114q63 0 91 28t28 91v320q0 63 -28 91t-91 28h-114z" />
    <glyph glyph-name="uni1E0B" unicode="&#x1e0b;" horiz-adv-x="485" 
d="M343 889h78v-115h-78v115zM432 0h-71q-10 21 -11 86q-38 -96 -152 -96q-145 0 -145 165v190q0 165 145 165q102 0 144 -78v268h78v-563q0 -95 12 -137zM223 58q57 0 88 36t31 103v105q0 67 -31 103.5t-88 36.5q-48 0 -70 -26.5t-22 -83.5v-165q0 -56 22 -82.5t70 -26.5z
" />
    <glyph glyph-name="uni1E1E" unicode="&#x1e1e;" horiz-adv-x="439" 
d="M278 779h-78v115h78v-115zM147 0h-81v700h345v-71h-264v-244h215v-70h-215v-315z" />
    <glyph glyph-name="uni1E1F" unicode="&#x1e1f;" horiz-adv-x="340" 
d="M163 894h78v-115h-78v115zM257 640q-38 0 -53.5 -17.5t-15.5 -59.5v-63h125v-65h-125v-435h-78v435h-83v65h83v70q0 140 136 140q38 0 67 -13v-68q-27 11 -56 11z" />
    <glyph glyph-name="uni1E40" unicode="&#x1e40;" horiz-adv-x="663" 
d="M371 779h-78v115h78v-115zM138 0h-72v700h117l148 -563l147 563h119v-700h-79v590l-157 -590h-65l-158 590v-590z" />
    <glyph glyph-name="uni1E41" unicode="&#x1e41;" horiz-adv-x="748" 
d="M336 704h78v-115h-78v115zM552 510q138 0 138 -165v-345h-78v332q0 110 -86 110q-52 0 -81 -36.5t-29 -103.5v-302h-78v332q0 110 -86 110q-53 0 -82 -36.5t-29 -103.5v-302h-78v500h68l1 -89q36 99 145 99q105 0 131 -96q36 96 144 96z" />
    <glyph glyph-name="uni1E56" unicode="&#x1e56;" horiz-adv-x="490" 
d="M285 779h-78v115h78v-115zM147 0h-81v700h188q102 0 151 -45.5t49 -140.5v-29q0 -95 -49 -140.5t-151 -45.5h-107v-299zM147 629v-259h107q63 0 91 26.5t28 88.5v29q0 61 -28 88t-91 27h-107z" />
    <glyph glyph-name="uni1E57" unicode="&#x1e57;" horiz-adv-x="483" 
d="M208 704h78v-115h-78v115zM285 510q145 0 145 -165v-190q0 -165 -145 -165q-102 0 -144 79v-224h-78v655h68l1 -90q37 100 153 100zM352 167v165q0 57 -22 83.5t-70 26.5q-57 0 -88 -36.5t-31 -103.5v-105q0 -67 31 -103t88 -36q48 0 70 26.5t22 82.5z" />
    <glyph glyph-name="uni1E60" unicode="&#x1e60;" horiz-adv-x="472" 
d="M275 779h-78v115h78v-115zM234 -10q-91 0 -142 48.5t-51 131.5v29h76v-28q0 -51 31.5 -81.5t85.5 -30.5t85.5 30.5t31.5 81.5q0 53 -29 84q-28 30 -114 69q-97 45 -130 89q-34 46 -34 117q0 82 52 131t141 49q90 0 140 -48.5t50 -132.5v-17h-76v16q0 52 -30.5 82
t-83.5 30q-51 0 -81.5 -30t-30.5 -78q0 -50 29 -79q28 -28 116 -69q93 -43 127 -91q34 -46 34 -120q0 -83 -52.5 -133t-144.5 -50z" />
    <glyph glyph-name="uni1E61" unicode="&#x1e61;" horiz-adv-x="430" 
d="M251 589h-78v115h78v-115zM218 -10q-86 0 -132.5 38t-46.5 105v18h75v-17q0 -79 100 -79t100 84q0 38 -35 55q-25 12 -82 24q-61 12 -103 41q-47 32 -47 105q0 68 45 107t123 39q76 0 121.5 -37.5t45.5 -102.5v-9h-74v9q0 75 -93 75q-43 0 -68 -20.5t-25 -58.5
q0 -26 17 -43q17 -15 35.5 -21.5t65.5 -17.5q65 -16 102 -40q49 -30 49 -103q0 -71 -45.5 -111t-127.5 -40z" />
    <glyph glyph-name="uni1E6A" unicode="&#x1e6a;" horiz-adv-x="463" 
d="M271 779h-78v115h78v-115zM272 0h-81v629h-163v71h407v-71h-163v-629z" />
    <glyph glyph-name="uni1E6B" unicode="&#x1e6b;" horiz-adv-x="347" 
d="M112 834h78v-115h-78v115zM313 500v-65h-125v-297q0 -43 15.5 -60.5t53.5 -17.5q29 0 56 11v-68q-29 -13 -67 -13q-136 0 -136 140v305h-83v65h85l7 140h69v-140h125z" />
    <glyph glyph-name="Wgrave" unicode="&#x1e80;" horiz-adv-x="708" 
d="M410 779h-71l-114 115h95zM255 0h-104l-120 700h80l99 -595l108 595h78l109 -595l100 595h73l-121 -700h-99l-101 555z" />
    <glyph glyph-name="wgrave" unicode="&#x1e81;" horiz-adv-x="670" 
d="M391 589h-71l-114 115h95zM244 0h-100l-116 500h78l96 -416l94 416h85l94 -416l95 416h72l-116 -500h-95l-93 413z" />
    <glyph glyph-name="Wacute" unicode="&#x1e82;" horiz-adv-x="708" 
d="M369 779h-71l90 115h95zM255 0h-104l-120 700h80l99 -595l108 595h78l109 -595l100 595h73l-121 -700h-99l-101 555z" />
    <glyph glyph-name="wacute" unicode="&#x1e83;" horiz-adv-x="670" 
d="M350 589h-71l90 115h95zM244 0h-100l-116 500h78l96 -416l94 416h85l94 -416l95 416h72l-116 -500h-95l-93 413z" />
    <glyph glyph-name="Wdieresis" unicode="&#x1e84;" horiz-adv-x="708" 
d="M320 779h-77v115h77v-115zM465 779h-77v115h77v-115zM255 0h-104l-120 700h80l99 -595l108 595h78l109 -595l100 595h73l-121 -700h-99l-101 555z" />
    <glyph glyph-name="wdieresis" unicode="&#x1e85;" horiz-adv-x="670" 
d="M301 589h-77v115h77v-115zM446 589h-77v115h77v-115zM244 0h-100l-116 500h78l96 -416l94 416h85l94 -416l95 416h72l-116 -500h-95l-93 413z" />
    <glyph glyph-name="uni1E9E" unicode="&#x1e9e;" horiz-adv-x="519" 
d="M464 630l-137 -216q81 -9 115.5 -55t34.5 -130v-37q0 -96 -48 -144t-149 -48h-40v71h40q61 0 89 26.5t28 88.5v47q0 60 -27 86.5t-90 26.5h-37v68l135 215h-231v-629h-81v700h398v-70z" />
    <glyph glyph-name="Ygrave" unicode="&#x1ef2;" horiz-adv-x="500" 
d="M305 779h-71l-114 115h95zM290 0h-81v306l-183 394h88l140 -302l139 302h81l-184 -394v-306z" />
    <glyph glyph-name="ygrave" unicode="&#x1ef3;" horiz-adv-x="453" 
d="M193 704l90 -115h-71l-114 115h95zM236 104l116 396h75l-169 -557q-18 -57 -51 -82.5t-88 -25.5q-43 0 -69 14v68q28 -14 61 -14q55 0 73 54l11 36l-170 507h82z" />
    <glyph glyph-name="uni2002" unicode="&#x2002;" horiz-adv-x="400" 
 />
    <glyph glyph-name="uni2003" unicode="&#x2003;" horiz-adv-x="600" 
 />
    <glyph glyph-name="uni2007" unicode="&#x2007;" 
 />
    <glyph glyph-name="uni2008" unicode="&#x2008;" horiz-adv-x="221" 
 />
    <glyph glyph-name="uni200B" unicode="&#x200b;" horiz-adv-x="0" 
 />
    <glyph glyph-name="figuredash" unicode="&#x2012;" 
d="M508 270h-508v60h508v-60z" />
    <glyph glyph-name="endash" unicode="&#x2013;" horiz-adv-x="400" 
d="M400 270h-400v60h400v-60z" />
    <glyph glyph-name="emdash" unicode="&#x2014;" horiz-adv-x="600" 
d="M600 270h-600v60h600v-60z" />
    <glyph glyph-name="quoteleft" unicode="&#x2018;" horiz-adv-x="221" 
d="M123 700h38l-40 -102h30v-108h-81v100z" />
    <glyph glyph-name="quoteright" unicode="&#x2019;" horiz-adv-x="221" 
d="M98 490h-38l39 103h-29v107h81v-100z" />
    <glyph glyph-name="quotesinglbase" unicode="&#x201a;" horiz-adv-x="223" 
d="M98 -102h-38l39 102h-29v107h81v-100z" />
    <glyph glyph-name="quotedblleft" unicode="&#x201c;" horiz-adv-x="368" 
d="M123 700h38l-40 -102h30v-108h-81v100zM270 700h38l-39 -102h29v-108h-81v100z" />
    <glyph glyph-name="quotedblright" unicode="&#x201d;" horiz-adv-x="367" 
d="M98 490h-38l39 103h-29v107h81v-100zM244 490h-37l39 103h-30v107h82v-100z" />
    <glyph glyph-name="quotedblbase" unicode="&#x201e;" horiz-adv-x="367" 
d="M98 -102h-38l39 102h-29v107h81v-100zM244 -102h-37l39 102h-30v107h82v-100z" />
    <glyph glyph-name="dagger" unicode="&#x2020;" horiz-adv-x="531" 
d="M303 -97h-74v533h-188v70h188v194h74v-194h187v-70h-187v-533z" />
    <glyph glyph-name="daggerdbl" unicode="&#x2021;" horiz-adv-x="545" 
d="M309 -97h-73v205h-188v69h188v259h-188v70h188v194h73v-194h187v-70h-187v-259h187v-69h-187v-205z" />
    <glyph glyph-name="bullet" unicode="&#x2022;" horiz-adv-x="400" 
d="M259 242q-23 -23 -58 -23t-59 23q-23 23 -23 58t23 58q24 23 59 23t58 -23t23 -58t-23 -58z" />
    <glyph glyph-name="ellipsis" unicode="&#x2026;" horiz-adv-x="635" 
d="M146 0h-81v107h81v-107zM358 0h-81v107h81v-107zM570 0h-81v107h81v-107z" />
    <glyph glyph-name="perthousand" unicode="&#x2030;" horiz-adv-x="1038" 
d="M166 310q-61 0 -94.5 32.5t-33.5 92.5v150q0 60 33.5 92.5t94.5 32.5q62 0 96 -32.5t34 -92.5v-150q0 -60 -34 -92.5t-96 -32.5zM217 0h-59l347 700h58zM166 361q71 0 71 70v157q0 71 -71 71q-69 0 -69 -71v-157q0 -70 69 -70zM427 115v150q0 60 33.5 92.5t95.5 32.5
t95.5 -32.5t33.5 -92.5v-150q0 -60 -33.5 -92.5t-95.5 -32.5t-95.5 32.5t-33.5 92.5zM742 115v150q0 60 33.5 92.5t95.5 32.5t95.5 -32.5t33.5 -92.5v-150q0 -60 -33.5 -92.5t-95.5 -32.5t-95.5 32.5t-33.5 92.5zM626 112v157q0 70 -70 70t-70 -70v-157q0 -71 70 -71t70 71z
M941 112v157q0 70 -70 70t-70 -70v-157q0 -71 70 -71t70 71z" />
    <glyph glyph-name="guilsinglleft" unicode="&#x2039;" horiz-adv-x="216" 
d="M174 176h-59l-76 125l76 121h59l-60 -121z" />
    <glyph glyph-name="guilsinglright" unicode="&#x203a;" horiz-adv-x="216" 
d="M102 176h-61l61 125l-61 121h61l75 -121z" />
    <glyph glyph-name="fraction" unicode="&#x2044;" horiz-adv-x="107" 
d="M-90 0h-59l347 700h58z" />
    <glyph glyph-name="uni2070" unicode="&#x2070;" horiz-adv-x="350" 
d="M46 468v216q0 60 34 93.5t95 33.5t95 -33.5t34 -93.5v-216q0 -60 -34 -93.5t-95 -33.5t-95 33.5t-34 93.5zM241 465v222q0 32 -17.5 50t-48.5 18t-48 -18t-17 -50v-222q0 -32 17 -50t48 -18t48.5 18t17.5 50z" />
    <glyph glyph-name="uni2074" unicode="&#x2074;" horiz-adv-x="350" 
d="M282 351h-64v85h-196v56l187 309h73v-309h47v-56h-47v-85zM218 714l-133 -222h133v222z" />
    <glyph glyph-name="uni2075" unicode="&#x2075;" horiz-adv-x="350" 
d="M175 341q-60 0 -92.5 32.5t-32.5 92.5v19h61v-22q0 -66 63 -66q65 0 65 66v74q0 67 -59 67q-52 0 -68 -52h-59l15 249h221v-56h-165l-9 -125q25 40 87 40q47 0 73.5 -30.5t26.5 -85.5v-78q0 -60 -33 -92.5t-94 -32.5z" />
    <glyph glyph-name="uni2076" unicode="&#x2076;" horiz-adv-x="350" 
d="M177 341q-60 0 -93.5 33.5t-33.5 93.5v213q0 62 33 96t94 34q60 0 93 -32.5t33 -89.5h-59q0 66 -65 66q-66 0 -66 -77v-88q25 48 91 48q48 0 75 -31t27 -87v-52q0 -60 -34 -93.5t-95 -33.5zM177 397q31 0 48.5 17.5t17.5 49.5v50q0 68 -63 68q-31 0 -49 -21t-18 -52v-45
q0 -31 17 -49t47 -18z" />
    <glyph glyph-name="uni2077" unicode="&#x2077;" horiz-adv-x="350" 
d="M150 351h-67l155 394h-192v56h257v-55z" />
    <glyph glyph-name="uni2078" unicode="&#x2078;" horiz-adv-x="350" 
d="M175 341q-134 0 -134 124v10q0 87 68 107v1q-30 11 -47 37t-17 60v12q0 57 33.5 88t96.5 31t97 -31t34 -88v-12q0 -34 -17 -60t-47 -37v-1q68 -20 68 -107v-10q0 -124 -135 -124zM241 676v11q0 64 -66 64t-66 -64v-11q0 -31 17.5 -48t48.5 -17t48.5 17t17.5 48zM175 401
q70 0 70 68v10q0 72 -70 72q-69 0 -69 -72v-10q0 -68 69 -68z" />
    <glyph glyph-name="uni2079" unicode="&#x2079;" horiz-adv-x="350" 
d="M300 684v-213q0 -62 -32.5 -96t-93.5 -34q-60 0 -93 32.5t-33 89.5h59q0 -66 65 -66q66 0 66 77v88q-28 -48 -92 -48q-47 0 -74 31.5t-27 86.5v52q0 60 33.5 93.5t94.5 33.5t94 -33.5t33 -93.5zM107 688v-50q0 -68 63 -68q31 0 49.5 21t18.5 52v45q0 32 -17 49.5
t-48 17.5t-48.5 -18t-17.5 -49z" />
    <glyph glyph-name="uni2080" unicode="&#x2080;" horiz-adv-x="350" 
d="M46 52v216q0 60 34 93.5t95 33.5t95 -33.5t34 -93.5v-216q0 -60 -34 -93.5t-95 -33.5t-95 33.5t-34 93.5zM241 49v222q0 32 -17.5 50t-48.5 18t-48 -18t-17 -50v-222q0 -32 17 -50t48 -18t48.5 18t17.5 50z" />
    <glyph glyph-name="uni2081" unicode="&#x2081;" horiz-adv-x="350" 
d="M231 -65h-64v362q-30 -15 -77 -18v44q38 1 59 15t33 47h49v-450z" />
    <glyph glyph-name="uni2082" unicode="&#x2082;" horiz-adv-x="350" 
d="M295 -65h-243v46q0 51 22 90t79 83q49 37 67 61q19 23 19 60q0 64 -62 64q-30 0 -47 -18.5t-17 -51.5v-28h-60v28q0 56 32.5 91t92.5 35q59 0 91.5 -33t32.5 -86q0 -49 -25 -83q-26 -35 -89 -85q-42 -33 -58 -57.5t-16 -52.5v-7h181v-56z" />
    <glyph glyph-name="uni2083" unicode="&#x2083;" horiz-adv-x="350" 
d="M46 50v22h60v-23q0 -68 64 -68q65 0 65 70v15q0 73 -71 73h-32v57h34q31 0 49 17.5t18 49.5v12q0 64 -62 64q-29 0 -45.5 -17.5t-16.5 -48.5v-13h-61v9q0 60 33 93t92 33t91.5 -31.5t32.5 -87.5v-10q0 -33 -18 -59t-48 -37v-1q67 -22 67 -103v-14q0 -62 -33 -94.5
t-94 -32.5t-93 32t-32 93z" />
    <glyph glyph-name="uni2084" unicode="&#x2084;" horiz-adv-x="350" 
d="M282 -65h-64v85h-196v56l187 309h73v-309h47v-56h-47v-85zM218 298l-133 -222h133v222z" />
    <glyph glyph-name="uni2085" unicode="&#x2085;" horiz-adv-x="350" 
d="M175 -75q-60 0 -92.5 32.5t-32.5 92.5v19h61v-22q0 -66 63 -66q65 0 65 66v74q0 67 -59 67q-52 0 -68 -52h-59l15 249h221v-56h-165l-9 -125q25 40 87 40q47 0 73.5 -30.5t26.5 -85.5v-78q0 -60 -33 -92.5t-94 -32.5z" />
    <glyph glyph-name="uni2086" unicode="&#x2086;" horiz-adv-x="350" 
d="M177 -75q-60 0 -93.5 33.5t-33.5 93.5v213q0 62 33 96t94 34q60 0 93 -32.5t33 -89.5h-59q0 66 -65 66q-66 0 -66 -77v-88q25 48 91 48q48 0 75 -31t27 -87v-52q0 -60 -34 -93.5t-95 -33.5zM177 -19q31 0 48.5 17.5t17.5 49.5v50q0 68 -63 68q-31 0 -49 -21t-18 -52v-45
q0 -31 17 -49t47 -18z" />
    <glyph glyph-name="uni2087" unicode="&#x2087;" horiz-adv-x="350" 
d="M150 -65h-67l155 394h-192v56h257v-55z" />
    <glyph glyph-name="uni2088" unicode="&#x2088;" horiz-adv-x="350" 
d="M175 -75q-134 0 -134 124v10q0 87 68 107v1q-30 11 -47 37t-17 60v12q0 57 33.5 88t96.5 31t97 -31t34 -88v-12q0 -34 -17 -60t-47 -37v-1q68 -20 68 -107v-10q0 -124 -135 -124zM241 260v11q0 64 -66 64t-66 -64v-11q0 -31 17.5 -48t48.5 -17t48.5 17t17.5 48zM175 -15
q70 0 70 68v10q0 72 -70 72q-69 0 -69 -72v-10q0 -68 69 -68z" />
    <glyph glyph-name="uni2089" unicode="&#x2089;" horiz-adv-x="350" 
d="M300 268v-213q0 -62 -32.5 -96t-93.5 -34q-60 0 -93 32.5t-33 89.5h59q0 -66 65 -66q66 0 66 77v88q-28 -48 -92 -48q-47 0 -74 31.5t-27 86.5v52q0 60 33.5 93.5t94.5 33.5t94 -33.5t33 -93.5zM107 272v-50q0 -68 63 -68q31 0 49.5 21t18.5 52v45q0 32 -17 49.5
t-48 17.5t-48.5 -18t-17.5 -49z" />
    <glyph glyph-name="Euro" unicode="&#x20ac;" 
d="M275 -10q-93 0 -143.5 50.5t-50.5 141.5v96h-47v52h47v64h-47v53h47v71q0 91 50.5 141.5t143.5 50.5q94 0 144 -50t50 -142v-16h-76v20q0 57 -30 87t-86 30q-55 0 -85 -30t-30 -87v-75h226v-53h-226v-64h226v-52h-226v-100q0 -57 30 -87t85 -30q56 0 86 30t30 87v44h76
v-40q0 -92 -50 -142t-144 -50z" />
    <glyph glyph-name="uni20B9" unicode="&#x20b9;" 
d="M44 700h423v-65h-127q58 -32 62 -90h65v-66h-63q-4 -70 -59 -113q-55 -42 -133 -42h-61l315 -324h-101l-321 324v65h141q131 0 139 90h-280v66h280q-6 90 -140 90h-140v65z" />
    <glyph glyph-name="uni20BD" unicode="&#x20bd;" 
d="M103 700h170q102 0 151 -45.5t49 -140.5v-16q0 -95 -49 -141t-151 -46h-89v-83h168v-68h-168v-160h-81v160h-66v68h66v83h-66v71h66v318zM392 498v16q0 61 -28 88t-91 27h-89v-247h89q63 0 91 27t28 89z" />
    <glyph glyph-name="uni20BF" unicode="&#x20bf;" 
d="M355 362v-2q116 -29 116 -149v-23q0 -132 -134 -158v-85h-61v80h-86v-80h-61v80h-94v71h57v508h-57v71h94v70h61v-70h86v70h61v-77q120 -26 120 -150v-15q0 -111 -102 -141zM260 604h-87v-214h73q65 0 97.5 22t32.5 74v22q0 50 -27.5 73t-88.5 23zM390 192v26
q0 54 -31.5 78t-110.5 24h-75v-224h97q61 0 90.5 22.5t29.5 73.5z" />
    <glyph glyph-name="uni2113" unicode="&#x2113;" horiz-adv-x="291" 
d="M194 -10q-132 0 -132 139v571h78v-563q0 -41 16 -60t53 -19q30 0 55 11v-66q-32 -13 -70 -13z" />
    <glyph glyph-name="uni2116" unicode="&#x2116;" horiz-adv-x="817" 
d="M140 0h-74v700h106l171 -519v519h74v-700h-82l-195 590v-590zM639 295q-62 0 -96.5 33.5t-34.5 95.5v107q0 62 34 95.5t97 33.5t97 -33.5t34 -95.5v-107q0 -62 -34 -95.5t-97 -33.5zM639 350q32 0 50 18t18 50v119q0 32 -18 50t-50 18q-67 0 -67 -68v-119q0 -68 67 -68z
M770 183h-262v42h262v-42z" />
    <glyph glyph-name="uni2117" unicode="&#x2117;" horiz-adv-x="780" 
d="M639 92q-99 -102 -249 -102t-249 102q-99 104 -99 258q0 155 99 257q99 103 249 103t249 -103q99 -102 99 -257q0 -154 -99 -258zM174 125q85 -88 216 -88t215 88q85 88 85 225q0 136 -85 224q-84 89 -215 89q-130 0 -216 -89q-84 -88 -84 -224t84 -225zM348 131h-50v428
h109q113 0 113 -112v-19q0 -114 -113 -114h-59v-183zM348 515v-156h59q64 0 64 69v19q0 68 -64 68h-59z" />
    <glyph glyph-name="uni2120" unicode="&#x2120;" horiz-adv-x="755" 
d="M177 547q58 -15 83 -40t25 -66q0 -51 -32 -78.5t-91 -27.5q-60 0 -92.5 25.5t-32.5 75.5v11h55v-10q0 -57 70 -57q65 0 65 58q0 26 -16.5 38t-62.5 25q-57 15 -82.5 40t-25.5 65q0 49 31.5 76.5t87.5 27.5q57 0 88 -26t31 -76h-54q0 26 -17.5 41.5t-48.5 15.5
q-28 0 -44 -15t-16 -42q0 -23 17.5 -36t61.5 -25zM520 430l94 270h85v-356h-57v294l-100 -294h-46l-102 294v-294h-51v356h82z" />
    <glyph glyph-name="trademark" unicode="&#x2122;" horiz-adv-x="762" 
d="M127 650h-105v50h270v-50h-105v-306h-60v306zM527 430l94 270h85v-356h-57v294l-100 -294h-46l-102 294v-294h-51v356h82z" />
    <glyph glyph-name="uni2126" unicode="&#x2126;" horiz-adv-x="509" 
d="M229 0h-175v71h112v2q-61 48 -86.5 103.5t-25.5 140.5v198q0 94 52 144.5t149 50.5t148.5 -50.5t51.5 -144.5v-198q0 -85 -25.5 -140.5t-86.5 -103.5v-2h112v-71h-175v72q53 45 73.5 92.5t20.5 120.5v235q0 119 -119 119q-120 0 -120 -119v-235q0 -73 20.5 -120.5
t73.5 -92.5v-72z" />
    <glyph glyph-name="estimated" unicode="&#x212e;" horiz-adv-x="862" 
d="M434 -10q-157 0 -269 106q-111 107 -111 254q0 148 111 254q112 106 269 106q158 0 268 -106q112 -106 112 -254v-9h-613q-8 0 -8 -7v-193q0 -5 11 -21q36 -52 97.5 -80t134.5 -28q146 0 244 120h56q-54 -67 -133.5 -104.5t-168.5 -37.5zM201 361h469q7 0 7 7v196
q0 9 -12 22q-42 49 -102 75.5t-127 26.5q-126 0 -232 -106q-11 -11 -11 -22v-192q0 -7 8 -7z" />
    <glyph glyph-name="uni2153" unicode="&#x2153;" horiz-adv-x="808" 
d="M231 256h-64v362q-30 -15 -77 -18v44q38 1 59 15t33 47h49v-450zM260 0h-59l347 700h58zM628 -10q-61 0 -93 32t-32 93v22h60v-23q0 -68 64 -68q65 0 65 70v15q0 73 -71 73h-32v57h34q31 0 49 17.5t18 49.5v12q0 64 -62 64q-29 0 -45.5 -17.5t-16.5 -48.5v-13h-61v9
q0 60 33 93t92 33t91.5 -31.5t32.5 -87.5v-10q0 -33 -18 -59t-48 -37v-1q67 -22 67 -103v-14q0 -61 -32.5 -94t-94.5 -33z" />
    <glyph glyph-name="uni2154" unicode="&#x2154;" horiz-adv-x="808" 
d="M295 256h-243v46q0 51 22 90t79 83q49 37 67 61q19 23 19 60q0 64 -62 64q-30 0 -47 -18.5t-17 -51.5v-28h-60v28q0 56 32.5 91t92.5 35q59 0 91.5 -33t32.5 -86q0 -49 -25 -83q-26 -35 -89 -85q-42 -33 -58 -57.5t-16 -52.5v-7h181v-56zM260 0h-59l347 700h58zM628 -10
q-61 0 -93 32t-32 93v22h60v-23q0 -68 64 -68q65 0 65 70v15q0 73 -71 73h-32v57h34q31 0 49 17.5t18 49.5v12q0 64 -62 64q-29 0 -45.5 -17.5t-16.5 -48.5v-13h-61v9q0 60 33 93t92 33t91.5 -31.5t32.5 -87.5v-10q0 -33 -18 -59t-48 -37v-1q67 -22 67 -103v-14
q0 -61 -32.5 -94t-94.5 -33z" />
    <glyph glyph-name="oneeighth" unicode="&#x215b;" horiz-adv-x="808" 
d="M231 256h-64v362q-30 -15 -77 -18v44q38 1 59 15t33 47h49v-450zM260 0h-59l347 700h58zM632 -10q-134 0 -134 124v10q0 87 68 107v1q-30 11 -47 37t-17 60v12q0 57 33.5 88t96.5 31t97 -31t34 -88v-12q0 -34 -17 -60t-47 -37v-1q68 -20 68 -107v-10q0 -124 -135 -124z
M698 325v11q0 64 -66 64t-66 -64v-11q0 -31 17.5 -48t48.5 -17t48.5 17t17.5 48zM632 50q70 0 70 68v10q0 72 -70 72q-69 0 -69 -72v-10q0 -68 69 -68z" />
    <glyph glyph-name="threeeighths" unicode="&#x215c;" horiz-adv-x="808" 
d="M46 371v22h60v-23q0 -68 64 -68q65 0 65 70v15q0 73 -71 73h-32v57h34q31 0 49 17.5t18 49.5v12q0 64 -62 64q-29 0 -45.5 -17.5t-16.5 -48.5v-13h-61v9q0 60 33 93t92 33t91.5 -31.5t32.5 -87.5v-10q0 -33 -18 -59t-48 -37v-1q67 -22 67 -103v-14q0 -61 -33 -94t-94 -33
t-93 32t-32 93zM260 0h-59l347 700h58zM632 -10q-134 0 -134 124v10q0 87 68 107v1q-30 11 -47 37t-17 60v12q0 57 33.5 88t96.5 31t97 -31t34 -88v-12q0 -34 -17 -60t-47 -37v-1q68 -20 68 -107v-10q0 -124 -135 -124zM698 325v11q0 64 -66 64t-66 -64v-11q0 -31 17.5 -48
t48.5 -17t48.5 17t17.5 48zM632 50q70 0 70 68v10q0 72 -70 72q-69 0 -69 -72v-10q0 -68 69 -68z" />
    <glyph glyph-name="fiveeighths" unicode="&#x215d;" horiz-adv-x="808" 
d="M175 246q-60 0 -92.5 32.5t-32.5 92.5v19h61v-22q0 -66 63 -66q65 0 65 66v74q0 67 -59 67q-52 0 -68 -52h-59l15 249h221v-56h-165l-9 -125q25 40 87 40q47 0 73.5 -30.5t26.5 -85.5v-78q0 -60 -33 -92.5t-94 -32.5zM260 0h-59l347 700h58zM632 -10q-134 0 -134 124v10
q0 87 68 107v1q-30 11 -47 37t-17 60v12q0 57 33.5 88t96.5 31t97 -31t34 -88v-12q0 -34 -17 -60t-47 -37v-1q68 -20 68 -107v-10q0 -124 -135 -124zM698 325v11q0 64 -66 64t-66 -64v-11q0 -31 17.5 -48t48.5 -17t48.5 17t17.5 48zM632 50q70 0 70 68v10q0 72 -70 72
q-69 0 -69 -72v-10q0 -68 69 -68z" />
    <glyph glyph-name="seveneighths" unicode="&#x215e;" horiz-adv-x="808" 
d="M150 256h-67l155 394h-192v56h257v-55zM260 0h-59l347 700h58zM632 -10q-134 0 -134 124v10q0 87 68 107v1q-30 11 -47 37t-17 60v12q0 57 33.5 88t96.5 31t97 -31t34 -88v-12q0 -34 -17 -60t-47 -37v-1q68 -20 68 -107v-10q0 -124 -135 -124zM698 325v11q0 64 -66 64
t-66 -64v-11q0 -31 17.5 -48t48.5 -17t48.5 17t17.5 48zM632 50q70 0 70 68v10q0 72 -70 72q-69 0 -69 -72v-10q0 -68 69 -68z" />
    <glyph glyph-name="partialdiff" unicode="&#x2202;" horiz-adv-x="521" 
d="M242 -10q-98 0 -149 46.5t-51 132.5q0 18 1 23l8 80q8 84 52 129t121 45q115 0 154 -85l14 145q2 18 2 21q0 111 -119 111q-112 0 -122 -109h-76q6 85 58 133t141 48q198 0 198 -178q0 -21 -1 -27l-30 -325q-8 -93 -59.5 -141.5t-141.5 -48.5zM240 62q108 0 122 117l7 66
q6 58 -27 93t-95 35q-104 0 -116 -112l-8 -75q-1 -4 -1 -16q0 -52 30.5 -80t87.5 -28z" />
    <glyph glyph-name="emptyset" unicode="&#x2205;" horiz-adv-x="714" 
d="M157 93l-60 -63l-45 40l62 66q-70 86 -70 209q0 139 88 230q88 93 225 93q113 0 201 -71l60 63l45 -40l-63 -66q70 -86 70 -209q0 -137 -89 -231q-89 -92 -224 -92q-115 0 -200 71zM163 186l349 364q-65 56 -155 56q-104 0 -175 -74q-69 -74 -69 -187q0 -94 50 -159z
M357 84q104 0 175 74q70 73 70 187q0 91 -50 159l-349 -364q65 -56 154 -56z" />
    <glyph glyph-name="uni2206" unicode="&#x2206;" horiz-adv-x="507" 
d="M198 700h109l172 -700h-451zM249 609l-127 -539h256z" />
    <glyph glyph-name="product" unicode="&#x220f;" horiz-adv-x="589" 
d="M156 -155h-81v855h439v-855h-81v784h-277v-784z" />
    <glyph glyph-name="summation" unicode="&#x2211;" horiz-adv-x="523" 
d="M481 -155h-438v72l254 356l-254 355v72h438v-71h-342l253 -356l-253 -357h342v-71z" />
    <glyph glyph-name="minus" unicode="&#x2212;" 
d="M468 267h-428v66h428v-66z" />
    <glyph glyph-name="uni2215" unicode="&#x2215;" 
d="M99 0h-71l381 700h71z" />
    <glyph glyph-name="uni2219" unicode="&#x2219;" horiz-adv-x="216" 
d="M163 295h-109v109h109v-109z" />
    <glyph glyph-name="radical" unicode="&#x221a;" horiz-adv-x="589" 
d="M329 -65h-85l-109 385h-103v60h167l93 -339l197 659h69z" />
    <glyph glyph-name="infinity" unicode="&#x221e;" horiz-adv-x="806" 
d="M220 103q-84 0 -130 57q-45 57 -45 142q0 84 45 140q45 55 128 55q57 0 98 -30t83 -102h4q67 132 183 132q84 0 129 -57q46 -56 46 -142q0 -87 -46 -141t-129 -54q-57 0 -97 30t-82 102h-4q-69 -132 -183 -132zM226 170q44 0 75.5 30.5t64.5 103.5q-41 74 -70 100
q-28 27 -72 27q-50 0 -79 -35.5t-29 -93.5q0 -59 29.5 -95.5t80.5 -36.5zM581 169q50 0 79.5 35.5t29.5 93.5q0 59 -30 95.5t-80 36.5q-42 0 -74 -29q-30 -27 -68 -105q44 -75 72 -101q29 -26 71 -26z" />
    <glyph glyph-name="integral" unicode="&#x222b;" 
d="M155 -170q-44 0 -74 13v72q25 -15 60 -15q72 0 72 86v612q0 152 139 152q44 0 74 -13v-72q-23 14 -61 14q-37 0 -54 -20.5t-17 -64.5v-613q0 -74 -36 -112.5t-103 -38.5z" />
    <glyph glyph-name="approxequal" unicode="&#x2248;" 
d="M71 325l-48 35q34 60 65 87.5t73.5 26.5t98.5 -39q56 -39 85 -39q26 0 43.5 17t46.5 65l49 -35q-34 -62 -65.5 -89t-74.5 -27q-42 0 -98 40q-34 25 -49.5 32.5t-33.5 7.5q-26 0 -45 -18t-47 -64zM71 123l-48 35q34 60 66 87.5t73 27.5q42 0 98 -39q55 -40 85 -40
q26 0 43.5 17t46.5 65l49 -35q-34 -62 -65.5 -89t-74.5 -27q-42 0 -98 40q-34 25 -49.5 32.5t-33.5 7.5q-26 0 -45 -18t-47 -64z" />
    <glyph glyph-name="notequal" unicode="&#x2260;" 
d="M128 37h-67l79 127h-87v66h124l88 140h-212v66h250l79 127h65l-77 -127h85v-66h-124l-88 -140h212v-66h-250z" />
    <glyph glyph-name="lessequal" unicode="&#x2264;" 
d="M439 248v-68l-377 149v61l377 149v-67l-289 -112zM439 66h-377v64h377v-64z" />
    <glyph glyph-name="greaterequal" unicode="&#x2265;" 
d="M446 329l-378 -149v68l289 112l-289 112v67l378 -149v-61zM446 66h-378v64h378v-64z" />
    <glyph glyph-name="lozenge" unicode="&#x25ca;" 
d="M270 -10h-31l-206 360l206 360h31l205 -360zM104 350l150 -263l150 263l-150 262z" />
    <glyph glyph-name="uniE0FF" unicode="&#xe0ff;" horiz-adv-x="547" 
 />
    <glyph glyph-name="uniEFFD" unicode="&#xeffd;" horiz-adv-x="547" 
 />
    <glyph glyph-name="uniF000" unicode="&#xf000;" horiz-adv-x="547" 
 />
    <glyph glyph-name="uniF8FF" unicode="&#xf8ff;" horiz-adv-x="656" 
d="M275 494h59v116h156v-116h132v-152h-132v-60q0 -110 -63 -174t-165 -64q-101 0 -165 62q-63 63 -63 163t65 162q65 63 176 63zM334 281v61h-60q-39 0 -61 -20q-21 -20 -21 -52t20 -52q23 -18 51 -20t51 21.5t20 61.5z" />
    <glyph glyph-name="_1" horiz-adv-x="0" 
 />
    <glyph glyph-name="CR.001" horiz-adv-x="333" 
 />
    <glyph glyph-name="NULL" horiz-adv-x="0" 
 />
    <glyph glyph-name="uni00A40301" horiz-adv-x="335" 
d="M236 779h-71l90 115h95zM90 -5q-37 0 -61 8v72q22 -9 56 -9q56 0 82 26t26 82v526h80v-524q0 -93 -44.5 -137t-138.5 -44z" />
    <glyph glyph-name="i.loclTRK" horiz-adv-x="204" 
d="M142 589h-78v115h78v-115zM141 0h-78v500h78v-500z" />
    <glyph glyph-name="germandbls.calt" horiz-adv-x="519" 
d="M464 630l-137 -216q81 -9 115.5 -55t34.5 -130v-37q0 -96 -48 -144t-149 -48h-40v71h40q61 0 89 26.5t28 88.5v47q0 60 -27 86.5t-90 26.5h-37v68l135 215h-231v-629h-81v700h398v-70z" />
    <glyph glyph-name="zero.tf" 
d="M54 185v330q0 94 51.5 144.5t148.5 50.5t149 -50.5t52 -144.5v-330q0 -94 -52 -144.5t-149 -50.5t-148.5 50.5t-51.5 144.5zM254 61q120 0 120 119v340q0 119 -120 119q-119 0 -119 -119v-340q0 -119 119 -119z" />
    <glyph glyph-name="one.tf" 
d="M356 0h-80v574q-55 -25 -156 -26v59q75 3 116 24.5t62 68.5h58v-700z" />
    <glyph glyph-name="two.tf" 
d="M443 0h-385v61q0 81 38 143q38 61 132 130q59 45 64 49q20 17 42 42q39 42 39 107q0 49 -29.5 78t-87.5 29q-60 0 -90.5 -33t-30.5 -87v-40h-75v38q0 83 48 138q49 55 150 55q95 0 145 -48.5t50 -127.5q0 -76 -40 -129q-38 -53 -134 -126q-78 -57 -111 -100
q-31 -40 -31 -99v-9h306v-71z" />
    <glyph glyph-name="three.tf" 
d="M250 -10q-99 0 -148 50t-49 142v32h75v-34q0 -119 120 -119q63 0 91.5 31t28.5 93v22q0 122 -122 122h-55v72h57q57 0 87.5 29t30.5 83v14q0 54 -30 83t-87 29q-115 0 -115 -116v-19h-77v12q0 94 49 144t146 50q94 0 144.5 -47.5t50.5 -132.5v-15q0 -52 -28.5 -91.5
t-78.5 -54.5v-1q108 -28 108 -161v-22q0 -195 -198 -195z" />
    <glyph glyph-name="four.tf" 
d="M407 0h-80v141h-298v70l288 489h90v-488h73v-71h-73v-141zM327 584l-221 -372h221v372z" />
    <glyph glyph-name="five.tf" 
d="M254 -10q-99 0 -148.5 50.5t-49.5 142.5v29h76v-32q0 -119 121 -119q119 0 119 119v107q0 57 -28.5 87t-80.5 30q-93 0 -126 -86h-75l24 382h346v-71h-275l-16 -222q50 68 148 68q80 0 121.5 -46.5t41.5 -134.5v-111q0 -93 -50 -143t-148 -50z" />
    <glyph glyph-name="six.tf" 
d="M57 184v327q0 97 50.5 148t149.5 51q94 0 145.5 -49.5t51.5 -136.5h-77q0 55 -31 85t-88 30q-120 0 -120 -132v-144q44 81 152 81q167 0 167 -184v-76q0 -94 -51.5 -144t-148.5 -50t-148.5 50t-51.5 144zM257 61q120 0 120 118v74q0 120 -113 120q-57 0 -91.5 -36
t-34.5 -93v-65q0 -118 119 -118z" />
    <glyph glyph-name="seven.tf" 
d="M198 0h-87l260 629h-318v71h400v-68z" />
    <glyph glyph-name="eight.tf" 
d="M48 183v18q0 133 106 163v1q-45 15 -72.5 56t-27.5 92v18q0 86 50.5 132.5t149.5 46.5t149.5 -46.5t50.5 -132.5v-18q0 -51 -27.5 -92t-72.5 -56v-1q106 -30 106 -163v-18q0 -193 -206 -193t-206 193zM375 509v18q0 54 -31 83t-90 29t-90 -29t-31 -83v-18q0 -54 32 -83
t89 -29t89 29t32 83zM380 186v18q0 121 -126 121t-126 -121v-18q0 -64 29 -94.5t97 -30.5t97 30.5t29 94.5z" />
    <glyph glyph-name="nine.tf" 
d="M451 514v-327q0 -97 -50.5 -148t-149.5 -51q-94 0 -145.5 49.5t-51.5 136.5h77q0 -55 31 -85t88 -30q120 0 120 132v144q-44 -81 -152 -81q-167 0 -167 184v76q0 94 51.5 144t148.5 50t148.5 -50t51.5 -144zM132 519v-73q0 -121 112 -121q57 0 91.5 36t34.5 93v65
q0 118 -119 118t-119 -118z" />
    <glyph glyph-name="zero.dnom" horiz-adv-x="350" 
d="M46 117v216q0 60 34 93.5t95 33.5t95 -33.5t34 -93.5v-216q0 -60 -34 -93.5t-95 -33.5t-95 33.5t-34 93.5zM241 114v222q0 32 -17.5 50t-48.5 18t-48 -18t-17 -50v-222q0 -32 17 -50t48 -18t48.5 18t17.5 50z" />
    <glyph glyph-name="one.dnom" horiz-adv-x="350" 
d="M231 0h-64v362q-30 -15 -77 -18v44q38 1 59 15t33 47h49v-450z" />
    <glyph glyph-name="two.dnom" horiz-adv-x="350" 
d="M295 0h-243v46q0 51 22 90t79 83q49 37 67 61q19 23 19 60q0 64 -62 64q-30 0 -47 -18.5t-17 -51.5v-28h-60v28q0 56 32.5 91t92.5 35q59 0 91.5 -33t32.5 -86q0 -49 -25 -83q-26 -35 -89 -85q-42 -33 -58 -57.5t-16 -52.5v-7h181v-56z" />
    <glyph glyph-name="three.dnom" horiz-adv-x="350" 
d="M46 115v22h60v-23q0 -68 64 -68q65 0 65 70v15q0 73 -71 73h-32v57h34q31 0 49 17.5t18 49.5v12q0 64 -62 64q-29 0 -45.5 -17.5t-16.5 -48.5v-13h-61v9q0 60 33 93t92 33t91.5 -31.5t32.5 -87.5v-10q0 -33 -18 -59t-48 -37v-1q67 -22 67 -103v-14q0 -61 -33 -94t-94 -33
t-93 32t-32 93z" />
    <glyph glyph-name="four.dnom" horiz-adv-x="350" 
d="M282 0h-64v85h-196v56l187 309h73v-309h47v-56h-47v-85zM218 363l-133 -222h133v222z" />
    <glyph glyph-name="five.dnom" horiz-adv-x="350" 
d="M175 -10q-60 0 -92.5 32.5t-32.5 92.5v19h61v-22q0 -66 63 -66q65 0 65 66v74q0 67 -59 67q-52 0 -68 -52h-59l15 249h221v-56h-165l-9 -125q25 40 87 40q47 0 73.5 -30.5t26.5 -85.5v-78q0 -60 -33 -92.5t-94 -32.5z" />
    <glyph glyph-name="six.dnom" horiz-adv-x="350" 
d="M177 -10q-60 0 -93.5 33.5t-33.5 93.5v213q0 62 33 96t94 34q60 0 93 -32.5t33 -89.5h-59q0 66 -65 66q-66 0 -66 -77v-88q25 48 91 48q48 0 75 -31t27 -87v-52q0 -60 -34 -93.5t-95 -33.5zM177 46q31 0 48.5 17.5t17.5 49.5v50q0 68 -63 68q-31 0 -49 -21t-18 -52v-45
q0 -31 17 -49t47 -18z" />
    <glyph glyph-name="seven.dnom" horiz-adv-x="350" 
d="M150 0h-67l155 394h-192v56h257v-55z" />
    <glyph glyph-name="eight.dnom" horiz-adv-x="350" 
d="M175 -10q-134 0 -134 124v10q0 87 68 107v1q-30 11 -47 37t-17 60v12q0 57 33.5 88t96.5 31t97 -31t34 -88v-12q0 -34 -17 -60t-47 -37v-1q68 -20 68 -107v-10q0 -124 -135 -124zM241 325v11q0 64 -66 64t-66 -64v-11q0 -31 17.5 -48t48.5 -17t48.5 17t17.5 48zM175 50
q70 0 70 68v10q0 72 -70 72q-69 0 -69 -72v-10q0 -68 69 -68z" />
    <glyph glyph-name="nine.dnom" horiz-adv-x="350" 
d="M300 333v-213q0 -62 -32.5 -96t-93.5 -34q-60 0 -93 32.5t-33 89.5h59q0 -66 65 -66q66 0 66 77v88q-28 -48 -92 -48q-47 0 -74 31.5t-27 86.5v52q0 60 33.5 93.5t94.5 33.5t94 -33.5t33 -93.5zM107 337v-50q0 -68 63 -68q31 0 49.5 21t18.5 52v45q0 32 -17 49.5
t-48 17.5t-48.5 -18t-17.5 -49z" />
    <glyph glyph-name="zero.numr" horiz-adv-x="350" 
d="M46 373v216q0 60 34 93.5t95 33.5t95 -33.5t34 -93.5v-216q0 -60 -34 -93.5t-95 -33.5t-95 33.5t-34 93.5zM241 370v222q0 32 -17.5 50t-48.5 18t-48 -18t-17 -50v-222q0 -32 17 -50t48 -18t48.5 18t17.5 50z" />
    <glyph glyph-name="one.numr" horiz-adv-x="350" 
d="M231 256h-64v362q-30 -15 -77 -18v44q38 1 59 15t33 47h49v-450z" />
    <glyph glyph-name="two.numr" horiz-adv-x="350" 
d="M295 256h-243v46q0 51 22 90t79 83q49 37 67 61q19 23 19 60q0 64 -62 64q-30 0 -47 -18.5t-17 -51.5v-28h-60v28q0 56 32.5 91t92.5 35q59 0 91.5 -33t32.5 -86q0 -49 -25 -83q-26 -35 -89 -85q-42 -33 -58 -57.5t-16 -52.5v-7h181v-56z" />
    <glyph glyph-name="three.numr" horiz-adv-x="350" 
d="M46 371v22h60v-23q0 -68 64 -68q65 0 65 70v15q0 73 -71 73h-32v57h34q31 0 49 17.5t18 49.5v12q0 64 -62 64q-29 0 -45.5 -17.5t-16.5 -48.5v-13h-61v9q0 60 33 93t92 33t91.5 -31.5t32.5 -87.5v-10q0 -33 -18 -59t-48 -37v-1q67 -22 67 -103v-14q0 -61 -33 -94t-94 -33
t-93 32t-32 93z" />
    <glyph glyph-name="four.numr" horiz-adv-x="350" 
d="M282 256h-64v85h-196v56l187 309h73v-309h47v-56h-47v-85zM218 619l-133 -222h133v222z" />
    <glyph glyph-name="five.numr" horiz-adv-x="350" 
d="M175 246q-60 0 -92.5 32.5t-32.5 92.5v19h61v-22q0 -66 63 -66q65 0 65 66v74q0 67 -59 67q-52 0 -68 -52h-59l15 249h221v-56h-165l-9 -125q25 40 87 40q47 0 73.5 -30.5t26.5 -85.5v-78q0 -60 -33 -92.5t-94 -32.5z" />
    <glyph glyph-name="six.numr" horiz-adv-x="350" 
d="M177 246q-60 0 -93.5 33.5t-33.5 93.5v213q0 62 33 96t94 34q60 0 93 -32.5t33 -89.5h-59q0 66 -65 66q-66 0 -66 -77v-88q25 48 91 48q48 0 75 -31t27 -87v-52q0 -60 -34 -93.5t-95 -33.5zM177 302q31 0 48.5 17.5t17.5 49.5v50q0 68 -63 68q-31 0 -49 -21t-18 -52v-45
q0 -31 17 -49t47 -18z" />
    <glyph glyph-name="seven.numr" horiz-adv-x="350" 
d="M150 256h-67l155 394h-192v56h257v-55z" />
    <glyph glyph-name="eight.numr" horiz-adv-x="350" 
d="M175 246q-134 0 -134 124v10q0 87 68 107v1q-30 11 -47 37t-17 60v12q0 57 33.5 88t96.5 31t97 -31t34 -88v-12q0 -34 -17 -60t-47 -37v-1q68 -20 68 -107v-10q0 -124 -135 -124zM241 581v11q0 64 -66 64t-66 -64v-11q0 -31 17.5 -48t48.5 -17t48.5 17t17.5 48zM175 306
q70 0 70 68v10q0 72 -70 72q-69 0 -69 -72v-10q0 -68 69 -68z" />
    <glyph glyph-name="nine.numr" horiz-adv-x="350" 
d="M300 589v-213q0 -62 -32.5 -96t-93.5 -34q-60 0 -93 32.5t-33 89.5h59q0 -66 65 -66q66 0 66 77v88q-28 -48 -92 -48q-47 0 -74 31.5t-27 86.5v52q0 60 33.5 93.5t94.5 33.5t94 -33.5t33 -93.5zM107 593v-50q0 -68 63 -68q31 0 49.5 21t18.5 52v45q0 32 -17 49.5
t-48 17.5t-48.5 -18t-17.5 -49z" />
    <glyph glyph-name="caroncomb.alt" horiz-adv-x="0" 
d="M-4 472h-33l28 113h-28v115h74v-108z" />
    <glyph glyph-name="caron.alt" horiz-adv-x="635" 
d="M315 472h-34l28 113h-28v115h74v-108z" />
    </font>
</defs>
</svg>
