<?xml version="1.0" standalone="no"?>
<!DOCTYPE svg PUBLIC "-//W3C//DTD SVG 1.1//EN" "http://www.w3.org/Graphics/SVG/1.1/DTD/svg11.dtd" >
<svg xmlns="http://www.w3.org/2000/svg" xmlns:xlink="http://www.w3.org/1999/xlink" version="1.1">
<metadata>
Created by FontForge 20170731 at Wed Jun 13 11:35:39 2018
 By Aleksey,,,
Copyright (c) 1990 -2018 MyFonts Inc. All rights reserved.
</metadata>
<defs>
<font id="Swiss721BT-Italic" horiz-adv-x="1024" >
  <font-face 
    font-family="Swiss721 BT"
    font-weight="400"
    font-style="italic"
    font-stretch="normal"
    units-per-em="2048"
    panose-1="2 11 5 3 2 2 2 9 2 4"
    ascent="1556"
    descent="-492"
    x-height="1071"
    cap-height="1473"
    bbox="-342 -483 2515 1972"
    underline-thickness="50"
    underline-position="-150"
    slope="-12"
    unicode-range="U+000D-F002"
  />
<missing-glyph horiz-adv-x="1229" 
d="M217 -248h795v1577h-795v-1577zM102 -362v1806h1024v-1806h-1024z" />
    <glyph glyph-name="fi" unicode="fi" horiz-adv-x="995" 
d="M12 0l189 924h-148l29 147h149l33 168q27 129 89 185q62 55 184 55q23 0 51.5 -2.5t68.5 -8.5l-30 -161q-40 8 -84 8q-50 0 -74 -26q-25 -26 -41 -111l-20 -107h182l-29 -147h-184l-189 -924h-176zM778 1257l45 216h178l-45 -216h-178zM510 0l227 1071h178l-227 -1071
h-178z" />
    <glyph glyph-name="fl" unicode="fl" horiz-adv-x="993" 
d="M12 0l189 924h-148l29 147h149l33 168q27 129 89 185q62 55 184 55q23 0 51.5 -2.5t68.5 -8.5l-30 -161q-20 4 -40 6t-42 2q-50 0 -74 -26q-25 -26 -41 -111l-22 -107h182l-27 -147h-186l-187 -924h-178zM512 0l313 1473h176l-313 -1473h-176z" />
    <glyph glyph-name=".notdef" horiz-adv-x="1229" 
d="M217 -248h795v1577h-795v-1577zM102 -362v1806h1024v-1806h-1024z" />
    <glyph glyph-name=".null" horiz-adv-x="0" 
 />
    <glyph glyph-name="nonmarkingreturn" unicode="&#xd;" horiz-adv-x="561" 
 />
    <glyph glyph-name="NULL" horiz-adv-x="0" 
 />
    <glyph glyph-name="NULL" horiz-adv-x="0" 
 />
    <glyph glyph-name="space" unicode=" " horiz-adv-x="561" 
 />
    <glyph glyph-name="exclam" unicode="!" horiz-adv-x="657" 
d="M72 0l47 223h221l-51 -223h-217zM195 373l186 1100h203l-277 -1100h-112z" />
    <glyph glyph-name="quotedbl" unicode="&#x22;" horiz-adv-x="614" 
d="M229 1436v-555h-139v555h139zM524 1436v-555h-139v555h139z" />
    <glyph glyph-name="numbersign" unicode="#" horiz-adv-x="1575" 
d="M924 1458l-162 -454h256l164 454h164l-160 -454h301l-51 -146h-303l-93 -262h322l-51 -147h-322l-162 -453h-165l161 453h-258l-162 -453h-165l159 453h-309l53 147h310l92 262h-330l51 146h332l162 454h166zM969 858h-260l-93 -264h261z" />
    <glyph glyph-name="dollar" unicode="$" horiz-adv-x="1124" 
d="M301 -199l39 174q-162 39 -244 144t-82 272v25h178q4 -247 183 -281l112 512q-167 61 -240 153q-73 91 -73 234q0 172 130 284q130 114 333 114h22l23 114h104l-26 -123q152 -24 229.5 -115t77.5 -243v-29l-172 1q-5 104 -45.5 159.5t-124.5 73.5l-102 -477
q192 -71 268 -156q78 -86 78 -221q0 -209 -141 -330q-141 -122 -385 -123l-35 -162h-107zM625 1278h-9q-113 0 -182 -71t-69 -185q0 -69 38 -114t125 -77zM477 123h27q121 0 195 72q75 72 75 188q0 42 -10.5 75t-33.5 60t-59.5 49t-88.5 41z" />
    <glyph glyph-name="percent" unicode="%" horiz-adv-x="1731" 
d="M365 -41l876 1473h125l-877 -1473h-124zM72 1036q0 148 102 252q103 103 252 103q146 0 250 -104t104 -251q0 -146 -104 -252q-104 -104 -250 -104q-149 0 -252 103q-102 103 -102 253zM221 1036q0 -87 59 -146t146 -59q85 0 145 60t60 145q0 86 -60 145q-60 60 -145 60
q-86 0 -146 -60q-59 -59 -59 -145zM948 356q0 149 103 252t252 103q145 0 251 -104q105 -104 105 -251t-105 -252q-104 -104 -251 -104q-149 0 -252 103t-103 253zM1098 356q0 -86 59 -147q59 -59 146 -59q84 0 144 60q60 61 60 146q0 86 -60 145q-59 60 -144 60
q-86 0 -146 -60q-59 -59 -59 -145z" />
    <glyph glyph-name="ampersand" unicode="&#x26;" horiz-adv-x="1362" 
d="M594 938q116 62 166.5 120.5t50.5 129.5q0 73 -41 112t-119 39q-73 0 -115 -41.5t-42 -113.5q0 -30 13 -70.5t38 -85.5zM940 0l-70 117q-194 -158 -421 -158q-183 0 -304 116q-120 117 -120 298q0 81 24 150.5t74 130.5t127 113.5t184 100.5l-37 72q-45 86 -63 139
q-17 57 -17 107q0 135 96 218q98 83 255 83q145 0 231 -81q86 -80 86 -216q0 -119 -74.5 -211.5t-236.5 -175.5l246 -412q45 60 73 126t41 142h168q-30 -251 -194 -415l145 -244h-213zM512 733q-169 -84 -237 -161q-66 -77 -66 -181q0 -120 72 -193q73 -73 192 -73
q165 0 320 131z" />
    <glyph glyph-name="quotesingle" unicode="'" horiz-adv-x="317" 
d="M229 1436v-555h-139v555h139z" />
    <glyph glyph-name="parenleft" unicode="(" horiz-adv-x="688" 
d="M307 -436q-88 204 -132 394.5t-44 375.5q0 302 133 578q134 279 410 558h139q-264 -313 -384 -611q-120 -297 -120 -632q0 -318 109 -663h-111z" />
    <glyph glyph-name="parenright" unicode=")" horiz-adv-x="688" 
d="M303 1473q174 -402 174 -773q0 -302 -132 -579q-132 -278 -408 -557h-140q132 158 227.5 309.5t155.5 301.5q121 297 121 634q0 161 -27 325t-81 339h110z" />
    <glyph glyph-name="asterisk" unicode="*" 
d="M582 950l-174 -252l-140 93l197 245l-287 78l53 158l275 -94v295h151v-295l275 94l55 -158l-289 -78l197 -243l-135 -101z" />
    <glyph glyph-name="plus" unicode="+" horiz-adv-x="1706" 
d="M924 1221v-541h528v-139h-528v-541h-142v541h-528v139h528v541h142z" />
    <glyph glyph-name="comma" unicode="," horiz-adv-x="561" 
d="M-6 -219q63 21 99.5 73.5t53.5 145.5h-106l45 219h221l-45 -219q-29 -140 -100 -218t-189 -99z" />
    <glyph glyph-name="hyphen" unicode="-" horiz-adv-x="639" 
d="M18 461l37 162h494l-37 -162h-494z" />
    <glyph glyph-name="period" unicode="." horiz-adv-x="561" 
d="M31 0l47 221h221l-45 -221h-223z" />
    <glyph glyph-name="slash" unicode="/" horiz-adv-x="616" 
d="M-2 -190l494 1701h126l-497 -1701h-123z" />
    <glyph glyph-name="zero" unicode="0" horiz-adv-x="1124" 
d="M47 489q0 198 59 390q59 189 168 338q78 106 176.5 160.5t213.5 54.5q199 0 305 -133q108 -132 108 -377q0 -185 -54 -372q-26 -94 -64 -178t-87 -161q-79 -126 -182 -189t-227 -63q-205 0 -310.5 134t-105.5 396zM657 1272q-163 0 -266 -205q-75 -147 -114 -303
t-39 -307q0 -336 231 -336q152 0 254 186q75 136 117 304q43 166 43 325q0 336 -226 336z" />
    <glyph glyph-name="one" unicode="1" horiz-adv-x="1124" 
d="M398 0l230 1081q-78 -23 -175 -36.5t-220 -16.5l30 135q100 3 179.5 20.5t139.5 50.5t103 82.5t70 115.5h129l-305 -1432h-181z" />
    <glyph glyph-name="two" unicode="2" horiz-adv-x="1124" 
d="M6 0q11 118 49 209.5t107 163.5q89 93 326 242l5 3l6 4q353 221 353 410q0 54 -16 97.5t-45.5 74t-72 46.5t-95.5 16q-136 0 -210.5 -76t-95.5 -234h-190q29 235 154.5 355.5t339.5 120.5q194 0 310 -108q116 -107 116 -286q0 -146 -80 -259t-283 -240q-17 -11 -41.5 -26
t-56.5 -35q-306 -186 -359 -316h709l-33 -162h-897z" />
    <glyph glyph-name="three" unicode="3" horiz-adv-x="1124" 
d="M223 465q-4 -23 -6 -47.5t-2 -50.5q0 -121 62.5 -182.5t183.5 -61.5q147 0 234 87q87 88 87 236q0 103 -69.5 158t-200.5 55q-22 0 -33 -0.5t-20 -0.5l33 151q11 -1 24.5 -1.5t38.5 -0.5q151 0 231 64.5t80 187.5q0 99 -62 156t-171 57q-244 0 -287 -283h-186
q29 215 153 329t328 114q189 0 300 -99q112 -99 112 -266q0 -121 -59.5 -208t-174.5 -136q154 -96 154 -285q0 -211 -143 -345t-369 -134q-207 0 -319 103q-113 104 -113 290q0 53 6 113h188z" />
    <glyph glyph-name="four" unicode="4" horiz-adv-x="1124" 
d="M528 0l76 358h-608l37 156l815 877h158l-187 -877h205l-33 -156h-207l-75 -358h-181zM217 514h422l129 604z" />
    <glyph glyph-name="five" unicode="5" horiz-adv-x="1124" 
d="M43 401h176v-22q0 -124 62 -189t180 -65q160 0 254 109q96 109 96 292q0 271 -254 271q-99 0 -169.5 -38.5t-108.5 -113.5h-170l221 746h725l-33 -160h-573l-109 -367q97 88 266 88q180 0 286 -115q107 -116 107 -309q0 -250 -154 -410q-153 -161 -390 -161
q-193 0 -303 110q-109 109 -109 304v30z" />
    <glyph glyph-name="six" unicode="6" horiz-adv-x="1124" 
d="M303 809q72 67 153.5 100t178.5 33q175 0 279 -111q104 -112 104 -299q0 -256 -145 -413q-144 -158 -379 -158q-102 0 -181 33.5t-133 98.5t-82 159.5t-28 216.5q0 209 58 405q58 199 159 336q81 109 192.5 166.5t247.5 57.5q176 0 269.5 -96t93.5 -275v-23h-181
q0 118 -49 175t-149 57q-145 0 -246.5 -115t-161.5 -348zM578 788q-140 0 -232 -107q-90 -107 -90 -275q0 -144 65.5 -220.5t186.5 -76.5q136 0 227 115q92 116 92 290q0 130 -66 202t-183 72z" />
    <glyph glyph-name="seven" unicode="7" horiz-adv-x="1124" 
d="M182 0q19 144 71 288.5t137 293.5q86 149 211 308.5t292 334.5h-739l36 166h949l-31 -152q-168 -175 -294.5 -336.5t-214.5 -313.5q-174 -301 -210 -589h-207z" />
    <glyph glyph-name="eight" unicode="8" horiz-adv-x="1124" 
d="M326 768q-142 85 -142 254q0 174 129 288q128 115 328 115q185 0 296 -96q112 -94 112 -252q0 -115 -59.5 -201t-168.5 -131q79 -51 118.5 -125t39.5 -171q0 -211 -144 -349q-145 -137 -368 -137q-201 0 -314 103q-114 103 -114 284q0 146 72 251.5t215 166.5zM637 1270
q-122 0 -195 -66q-73 -64 -73 -174q0 -99 60 -153t169 -54q117 0 190 67q74 68 74 173q0 96 -61 151q-62 56 -164 56zM539 672q-137 0 -222 -87q-86 -88 -86 -225q0 -118 63.5 -180.5t184.5 -62.5q134 0 220 93q87 93 87 234q0 108 -64.5 168t-182.5 60z" />
    <glyph glyph-name="nine" unicode="9" horiz-adv-x="1124" 
d="M213 350q0 -118 47.5 -174.5t149.5 -56.5q145 0 247 115t162 348q-142 -133 -334 -133q-175 0 -278 111q-103 110 -103 298q0 256 145 413q145 159 380 159q201 0 312 -134q112 -133 112 -376q0 -205 -59 -406q-58 -198 -158 -334q-81 -109 -193 -166t-248 -57
q-176 0 -269 95.5t-93 275.5v22h180zM612 1282q-136 0 -227 -115q-90 -116 -90 -288q0 -132 65 -204.5t183 -72.5q140 0 232 107q91 107 91 278q0 141 -66.5 218t-187.5 77z" />
    <glyph glyph-name="colon" unicode=":" horiz-adv-x="608" 
d="M55 0l47 221h222l-48 -221h-221zM229 819l47 221h222l-47 -221h-222z" />
    <glyph glyph-name="semicolon" unicode=";" horiz-adv-x="608" 
d="M8 -219q63 21 100 73.5t54 145.5h-109l45 219h224l-48 -219q-58 -275 -288 -317zM227 819l47 221h222l-45 -221h-224z" />
    <glyph glyph-name="less" unicode="&#x3c;" horiz-adv-x="1706" 
d="M1442 1006l-969 -396l969 -393v-154l-1178 484v129l1178 483v-153z" />
    <glyph glyph-name="equal" unicode="=" horiz-adv-x="1706" 
d="M1452 879v-140h-1198v140h1198zM1452 481v-139h-1198v139h1198z" />
    <glyph glyph-name="greater" unicode="&#x3e;" horiz-adv-x="1706" 
d="M1442 676v-129l-1178 -484v154l971 393l-971 396v153z" />
    <glyph glyph-name="question" unicode="?" horiz-adv-x="1075" 
d="M340 375q8 115 54.5 199t140.5 153q17 13 45 32.5t68 45.5q81 53 106 80q48 51 70 103.5t22 113.5q0 103 -63.5 161t-178.5 58q-123 0 -197.5 -78t-91.5 -225h-178q13 216 139 340q126 123 334 123q197 0 313 -102q117 -101 117 -271q0 -121 -57.5 -217t-183.5 -184
q-16 -11 -39 -26t-53 -34q-109 -68 -140 -108q-21 -27 -34.5 -66.5t-22.5 -97.5h-170zM260 0l45 213h207l-43 -213h-209z" />
    <glyph glyph-name="at" unicode="@" horiz-adv-x="2048" 
d="M1249 711q-17 88 -68.5 136t-129.5 48q-138 0 -232 -130t-94 -319q0 -106 48 -162.5t138 -56.5q97 0 174 69q78 69 105 179zM1341 969h132l-146 -576q-8 -34 -8 -59q0 -94 100 -94q48 0 102.5 26.5t106.5 75.5q40 38 71.5 85t53.5 101t33.5 113t11.5 121q0 259 -191 420
t-499 161q-134 0 -246 -28t-211 -86q-191 -114 -296 -300q-105 -185 -105 -409q0 -177 61.5 -308t192.5 -230q50 -39 110 -68.5t126.5 -50t139.5 -31t148 -10.5q170 0 328.5 48.5t292.5 141.5l55 -82q-297 -223 -664 -223q-382 0 -628 187q-306 234 -306 628
q0 166 51.5 313.5t151.5 268.5q147 179 351.5 270.5t455.5 91.5q81 0 159.5 -11.5t150.5 -33.5t136 -54t117 -73q131 -100 198 -230.5t67 -283.5q0 -176 -63.5 -315t-184.5 -236q-69 -54 -150 -83t-166 -29q-200 0 -200 157v19q-55 -90 -128.5 -132t-172.5 -42
q-154 0 -234 84.5t-80 247.5q0 235 138 394t339 159q170 0 242 -150z" />
    <glyph glyph-name="A" unicode="A" horiz-adv-x="1237" 
d="M-150 0l793 1473h246l246 -1473h-199l-66 416h-587l-220 -416h-213zM373 588h469l-107 682z" />
    <glyph glyph-name="B" unicode="B" horiz-adv-x="1376" 
d="M4 0l311 1473h549q212 0 320 -90t108 -267q0 -131 -62.5 -220.5t-182.5 -129.5q96 -43 142 -117.5t46 -183.5q0 -78 -22.5 -148.5t-65.5 -130.5q-71 -100 -171 -143q-99 -43 -271 -43h-701zM373 842h342q198 0 289.5 61.5t91.5 194.5q0 108 -60 155q-61 47 -207 47h-360z
M229 174h359q80 0 134.5 2.5t83.5 7.5t54 13.5t45 21.5q60 38 94.5 103.5t34.5 142.5q0 116 -69 164q-67 49 -240 49h-389z" />
    <glyph glyph-name="C" unicode="C" horiz-adv-x="1448" 
d="M1327 524q-57 -264 -238 -416q-180 -153 -432 -153q-269 0 -419 167q-150 168 -150 468q0 175 50 333t147 289q106 145 249.5 218t321.5 73q247 0 389 -136q143 -137 156 -386h-197q-7 165 -103 254.5t-265 89.5q-253 0 -402 -227q-73 -114 -110 -241t-37 -265
q0 -229 100.5 -348t294.5 -119q158 0 273 100t184 299h188z" />
    <glyph glyph-name="D" unicode="D" horiz-adv-x="1460" 
d="M4 0l315 1473h420q325 0 474 -147q149 -146 149 -464q0 -187 -49.5 -346t-143.5 -274q-42 -54 -92 -95.5t-110 -74.5q-72 -40 -159 -56q-44 -8 -106.5 -12t-146.5 -4h-551zM236 166h282q194 0 296 38q100 39 171 132q81 106 122.5 240.5t41.5 293.5q0 234 -100 334
q-101 101 -336 101h-234z" />
    <glyph glyph-name="E" unicode="E" horiz-adv-x="1204" 
d="M4 0l311 1473h891l-39 -181h-696l-94 -446h674l-37 -174h-674l-107 -492h752l-39 -180h-942z" />
    <glyph glyph-name="F" unicode="F" horiz-adv-x="1104" 
d="M4 0l309 1473h848l-37 -179h-651l-96 -448h629l-39 -180h-627l-143 -666h-193z" />
    <glyph glyph-name="G" unicode="G" horiz-adv-x="1542" 
d="M1122 0l13 158q-184 -199 -463 -199q-276 0 -429 167q-153 168 -153 470q0 194 60 366t172 304q105 120 242 181.5t300 61.5q262 0 411 -132q149 -131 163 -376h-197q-11 162 -110 248t-273 86q-129 0 -229.5 -53.5t-182.5 -167.5q-74 -103 -116 -242q-41 -141 -41 -284
q0 -110 28.5 -195t82.5 -143t133.5 -88.5t181.5 -30.5q181 0 310 123q130 124 185 348h-462l32 160h654l-160 -762h-152z" />
    <glyph glyph-name="H" unicode="H" horiz-adv-x="1434" 
d="M4 0l311 1473h197l-129 -605h725l127 605h195l-314 -1473h-194l147 696h-723l-149 -696h-193z" />
    <glyph glyph-name="I" unicode="I" horiz-adv-x="532" 
d="M8 0l311 1473h205l-313 -1473h-203z" />
    <glyph glyph-name="J" unicode="J" horiz-adv-x="1012" 
d="M168 479q-14 -54 -20.5 -97.5t-6.5 -78.5q0 -82 43 -125t127 -43q116 0 178 72q62 74 107 282l209 984h196l-227 -1061q-51 -242 -161 -349q-109 -106 -304 -106q-168 0 -262 87q-94 88 -94 243q0 39 5.5 87t16.5 105h193z" />
    <glyph glyph-name="K" unicode="K" horiz-adv-x="1266" 
d="M8 0l316 1473h192l-156 -744l770 744h248l-637 -607l443 -866h-205l-377 739l-299 -274l-100 -465h-195z" />
    <glyph glyph-name="L" unicode="L" horiz-adv-x="1139" 
d="M8 0l311 1473h195l-272 -1291h764l-39 -182h-959z" />
    <glyph glyph-name="M" unicode="M" horiz-adv-x="1726" 
d="M4 0l311 1473h283l162 -1217l667 1217h295l-313 -1473h-184l239 1124q11 48 22 83.5t25 66.5l-704 -1274h-189l-174 1292v-22q0 -25 -2.5 -51t-7.5 -56l-241 -1163h-189z" />
    <glyph glyph-name="N" unicode="N" horiz-adv-x="1432" 
d="M4 0l311 1473h193l481 -1162l246 1162h192l-311 -1473h-188l-486 1153l-245 -1153h-193z" />
    <glyph glyph-name="O" unicode="O" horiz-adv-x="1571" 
d="M80 584q0 185 64 361q64 177 182 315q105 123 247.5 187t311.5 64q280 0 440 -169q160 -167 160 -463q0 -186 -66 -363t-186 -315q-102 -118 -244 -180t-309 -62q-279 0 -440 167q-160 167 -160 458zM866 1339q-117 0 -219 -50t-180 -146q-88 -109 -137 -257
q-49 -147 -49 -298q0 -214 110 -336q111 -121 305 -121q112 0 211 45.5t174 132.5q48 56 85.5 123t63 141.5t39 156t13.5 165.5q0 203 -113 324q-113 120 -303 120z" />
    <glyph glyph-name="P" unicode="P" horiz-adv-x="1260" 
d="M4 0l313 1473h490q202 0 307 -98.5t105 -287.5q0 -235 -144 -353t-430 -118h-313l-133 -616h-195zM369 786h290q191 0 279 71.5t88 225.5q0 116 -60 169t-192 53h-295z" />
    <glyph glyph-name="Q" unicode="Q" horiz-adv-x="1571" 
d="M1133 -197l-187 203q-75 -24 -137.5 -35.5t-116.5 -11.5q-294 0 -455 161q-159 162 -159 460q0 187 64 364q64 178 180 313q105 124 248 189t309 65q283 0 443 -172q161 -172 161 -473q0 -243 -101 -448t-284 -336l155 -170zM700 274l121 109l156 -170q143 98 223 271
q80 175 80 384q0 218 -111 343q-111 124 -307 124q-118 0 -219.5 -50t-179.5 -146q-88 -109 -138 -260q-49 -147 -49 -306q0 -214 104 -329t298 -115q49 0 141 16z" />
    <glyph glyph-name="R" unicode="R" horiz-adv-x="1356" 
d="M4 0l315 1473h504q122 0 187 -15q66 -15 116 -49q73 -48 111.5 -125t38.5 -176q0 -148 -67 -249.5t-197 -149.5q59 -31 85 -81q25 -47 25 -136q0 -28 -0.5 -43t-1.5 -28l-8 -147q-2 -30 -3 -52t-1 -40q0 -63 9.5 -94t31.5 -49v-39h-233q-19 53 -19 109q0 37 6 114l12 166
q1 10 2 22t1 33q0 113 -53 154t-216 41h-315l-139 -639h-191zM371 811h356q173 0 263.5 72t90.5 211q0 206 -262 206h-346z" />
    <glyph glyph-name="S" unicode="S" horiz-adv-x="1223" 
d="M195 457v-27q0 -71 22.5 -126.5t64.5 -93.5t102.5 -58.5t137.5 -20.5q151 0 240 75q90 75 90 200q0 141 -272 255v1q-252 106 -326 192q-72 85 -72 231q0 192 140 309q139 117 370 117q230 0 357 -116q127 -115 127 -326v-18h-191v6q0 145 -76 218t-229 73
q-140 0 -223 -68q-82 -67 -82 -182q0 -130 244 -236l60 -26q223 -99 299 -187q77 -89 77 -221q0 -219 -149 -345t-406 -126q-225 0 -359 125q-133 124 -133 336q0 6 1 19.5t1 19.5h185z" />
    <glyph glyph-name="T" unicode="T" horiz-adv-x="1108" 
d="M307 0l277 1305h-449l35 168h1055l-37 -168h-408l-276 -1305h-197z" />
    <glyph glyph-name="U" unicode="U" horiz-adv-x="1411" 
d="M313 1473h195l-203 -961q-8 -36 -12 -68.5t-4 -58.5q0 -115 80 -178.5t227 -63.5q87 0 154.5 20t117.5 62t83.5 107t52.5 155l208 986h195l-211 -996q-34 -154 -76 -236q-44 -83 -114 -143q-81 -69 -187.5 -104t-230.5 -35q-227 0 -361 112q-135 112 -135 300
q0 28 7 75.5t22 122.5z" />
    <glyph glyph-name="V" unicode="V" horiz-adv-x="1133" 
d="M338 0l-248 1473h193l192 -1223l586 1223h201l-719 -1473h-205z" />
    <glyph glyph-name="W" unicode="W" horiz-adv-x="1702" 
d="M246 0l-109 1473h182l80 -1133l453 1133h195l112 -1147l447 1147h188l-575 -1473h-197l-117 1171l-463 -1171h-196z" />
    <glyph glyph-name="X" unicode="X" horiz-adv-x="1071" 
d="M-111 0l547 754l-342 719h207l258 -564l391 564h226l-533 -736l348 -737h-207l-266 582l-405 -582h-224z" />
    <glyph glyph-name="Y" unicode="Y" horiz-adv-x="1055" 
d="M276 0l125 610l-331 863h204l254 -682l455 682h223l-614 -893l-119 -580h-197z" />
    <glyph glyph-name="Z" unicode="Z" horiz-adv-x="1176" 
d="M-41 0l37 174l938 1124h-729l39 175h962l-35 -175l-933 -1122h768l-39 -176h-1008z" />
    <glyph glyph-name="bracketleft" unicode="[" horiz-adv-x="725" 
d="M10 -406l396 1879h350l-23 -140h-182l-346 -1607h192l-26 -132h-361z" />
    <glyph glyph-name="backslash" unicode="\" horiz-adv-x="616" 
d="M313 -190l-135 1701h119l139 -1701h-123z" />
    <glyph glyph-name="bracketright" unicode="]" horiz-adv-x="725" 
d="M631 1473l-398 -1879h-348l21 138h184l344 1607h-190l24 134h363z" />
    <glyph glyph-name="asciicircum" unicode="^" horiz-adv-x="2048" 
d="M1116 1458l510 -557h-180l-422 420l-424 -420h-180l510 557h186z" />
    <glyph glyph-name="underscore" unicode="_" 
d="M1024 -340v-143h-1024v143h1024z" />
    <glyph glyph-name="grave" unicode="`" 
d="M762 1214h-109l-301 349h201z" />
    <glyph glyph-name="a" unicode="a" horiz-adv-x="1081" 
d="M655 121q-142 -154 -340 -154q-156 0 -244 87q-87 87 -87 241q0 172 109 254q108 81 368 98h5.5t8.5 1q291 19 291 161q0 70 -48.5 102.5t-154.5 32.5q-149 0 -207 -39q-57 -39 -82 -145h-178q56 338 467 338q188 0 288.5 -65t100.5 -185q0 -6 -1 -15t-3 -23.5t-6 -36
t-10 -52.5l-98 -454q-6 -23 -8.5 -45t-2.5 -44q0 -59 74 -59q21 0 45 6l-27 -125q-24 -6 -51 -9t-63 -3q-146 0 -146 133zM711 539q-79 -29 -215 -40q-67 -5 -110.5 -10t-63.5 -10q-154 -36 -154 -184q0 -79 48 -125.5t130 -46.5q156 0 248 105.5t117 310.5z" />
    <glyph glyph-name="b" unicode="b" horiz-adv-x="1208" 
d="M653 944q-160 0 -262 -137q-59 -80 -93 -185t-34 -210q0 -137 69 -211t195 -74q165 0 278 153q112 154 112 382q0 135 -69 208.5t-196 73.5zM-6 2l315 1471h174l-106 -523q64 75 147.5 114.5t180.5 39.5q186 0 296 -117q109 -116 109 -319q0 -130 -44 -265
q-44 -132 -120 -237q-70 -96 -169.5 -146.5t-217.5 -50.5q-129 0 -219.5 52.5t-136.5 152.5l-39 -172h-170z" />
    <glyph glyph-name="c" unicode="c" horiz-adv-x="1139" 
d="M975 397q-44 -197 -183 -315q-140 -117 -329 -117q-212 0 -319 119.5t-107 355.5q0 138 43.5 258.5t130.5 219.5q81 91 185.5 138.5t228.5 47.5q193 0 298.5 -101.5t110.5 -291.5h-182q0 112 -64 174.5t-178 62.5q-155 0 -269 -152t-114 -366q0 -145 64.5 -221t187.5 -76
q107 0 192 70t126 194h178z" />
    <glyph glyph-name="d" unicode="d" horiz-adv-x="1208" 
d="M864 655q0 133 -69 210t-189 77q-163 0 -276 -155t-113 -386q0 -135 66 -211q66 -77 180 -77q172 0 286 154q115 154 115 388zM758 0l22 133q-76 -87 -161 -127.5t-187 -40.5q-190 0 -296 117q-105 118 -105 332q0 137 41.5 261t117.5 220q78 96 182 148.5t218 52.5
q226 0 342 -203l119 580h174l-305 -1473h-162z" />
    <glyph glyph-name="e" unicode="e" horiz-adv-x="1135" 
d="M971 350q-37 -178 -172 -283q-134 -102 -328 -102q-212 0 -324 120t-112 347q0 298 157 485q157 189 404 189q199 0 316 -118q118 -117 118 -316q0 -38 -4 -83.5t-12 -103.5h-793v-5q-2 -22 -3 -37.5t-1 -24.5q0 -146 71 -221.5t208 -75.5q109 0 186 61q79 61 106 168
h183zM837 631q2 9 2.5 18.5t0.5 28.5q0 63 -17 113t-48.5 85t-76.5 53.5t-102 18.5q-130 0 -220 -82t-126 -235h587z" />
    <glyph glyph-name="f" unicode="f" horiz-adv-x="545" 
d="M14 0l187 924h-148l29 147h147l35 168q25 129 87 185q62 55 184 55q24 0 53.5 -2.5t68.5 -8.5l-30 -161q-40 8 -84 8q-80 0 -107 -120l-4 -18l-24 -106h182l-29 -147h-184l-187 -924h-176z" />
    <glyph glyph-name="g" unicode="g" horiz-adv-x="1204" 
d="M-18 -106h178v-17q0 -38 16.5 -68t47.5 -51.5t75 -33t98 -11.5q170 0 248 85q80 86 123 325q-121 -139 -313 -139q-198 0 -307 120q-109 119 -109 336q0 287 159 476q160 190 398 190q244 0 334 -211l39 176h174l-228 -1089q-23 -110 -65.5 -190t-107 -132.5t-152 -78
t-199.5 -25.5q-194 0 -301 88q-108 88 -108 245v5zM602 950q-167 0 -271 -146t-104 -380q0 -138 66.5 -212.5t189.5 -74.5q172 0 277 147q106 148 106 390q0 130 -69.5 203t-194.5 73z" />
    <glyph glyph-name="h" unicode="h" horiz-adv-x="1141" 
d="M-6 0l313 1473h178l-116 -551q163 168 376 168q287 0 287 -234q0 -29 -4 -62.5t-12 -68.5l-154 -725h-182l149 698q9 40 13 70.5t4 56.5q0 51 -43.5 82t-118.5 31q-154 0 -253.5 -101.5t-141.5 -299.5l-113 -537h-182z" />
    <glyph glyph-name="i" unicode="i" horiz-adv-x="473" 
d="M-8 0l225 1071h180l-227 -1071h-178zM260 1257l45 216h178l-45 -216h-178z" />
    <glyph glyph-name="j" unicode="j" horiz-adv-x="481" 
d="M-164 -263q6 0 13.5 -0.5t21.5 -0.5q47 0 68 19t32 72l265 1244h180l-269 -1264q-27 -130 -87 -182q-61 -53 -175 -53q-17 0 -36.5 1.5t-38.5 4.5zM276 1260l46 213h178l-45 -213h-179z" />
    <glyph glyph-name="k" unicode="k" horiz-adv-x="1012" 
d="M-4 0l309 1473h178l-188 -881l534 479h254l-465 -401l248 -670h-194l-199 545l-229 -199l-76 -346h-172z" />
    <glyph glyph-name="l" unicode="l" horiz-adv-x="473" 
d="M0 0l313 1473h179l-312 -1473h-180z" />
    <glyph glyph-name="m" unicode="m" horiz-adv-x="1698" 
d="M-14 0l225 1071h170l-41 -180q81 100 171.5 147t199.5 47q230 0 235 -192q88 100 178 147t189 47q130 0 203 -62t73 -171q0 -40 -14 -113l-160 -741h-190l168 762q8 38 8 61q0 103 -135 103q-117 0 -217 -94q-99 -93 -131 -240l-130 -592h-184l164 770q8 34 8 59
q0 46 -30 71.5t-87 25.5q-126 0 -227 -89q-100 -88 -131 -227l-135 -610h-180z" />
    <glyph glyph-name="n" unicode="n" horiz-adv-x="1130" 
d="M-14 0l227 1071h164l-35 -160q90 91 186 135t205 44q143 0 216 -58.5t73 -173.5q0 -54 -19 -134l-151 -724h-182l149 698q8 39 11.5 67t3.5 52q0 58 -42 89.5t-118 31.5q-155 0 -254 -101.5t-141 -299.5l-113 -537h-180z" />
    <glyph glyph-name="o" unicode="o" horiz-adv-x="1176" 
d="M31 424q0 299 165 490q166 192 425 192q204 0 323 -122t119 -333q0 -299 -166 -489q-165 -191 -424 -191q-210 0 -326 119t-116 334zM602 948q-170 0 -272 -151q-51 -76 -81 -182q-30 -104 -30 -205q0 -137 67 -210t193 -73q173 0 283 152q110 154 110 393
q0 136 -68.5 206t-201.5 70z" />
    <glyph glyph-name="p" unicode="p" horiz-adv-x="1208" 
d="M-86 -428l301 1499h166l-31 -153q142 178 346 178q186 0 291 -118q105 -119 105 -327q0 -138 -42 -263t-120 -224q-76 -97 -175.5 -147t-211.5 -50q-218 0 -338 193l-121 -588h-170zM659 946q-163 0 -277 -157q-114 -156 -114 -386q0 -135 66 -208.5t186 -73.5
q162 0 273 156q112 155 112 389q0 133 -64.5 206.5t-181.5 73.5z" />
    <glyph glyph-name="q" unicode="q" horiz-adv-x="1208" 
d="M1145 1071l-316 -1499h-178l115 549q-138 -144 -328 -144q-185 0 -295 119q-108 118 -108 324q0 66 10.5 132t31.5 129t51 120.5t69 107.5q76 100 173 150.5t212 50.5q258 0 358 -203l37 164h168zM487 135q78 0 145.5 36t121.5 108q56 74 91 177q34 102 34 199
q0 297 -265 297q-175 0 -276 -153q-52 -79 -81.5 -179t-29.5 -202q0 -136 68 -209.5t192 -73.5z" />
    <glyph glyph-name="r" unicode="r" horiz-adv-x="668" 
d="M-8 0l225 1071h172l-45 -199q45 64 84.5 107.5t73.5 68.5q68 50 145 50q18 0 38.5 -2t43.5 -6l-45 -203h-5q-18 2 -31.5 3t-22.5 1q-134 0 -218 -92.5t-126 -284.5l-111 -514h-178z" />
    <glyph glyph-name="s" unicode="s" horiz-adv-x="1008" 
d="M151 375q0 -6 -0.5 -14t-0.5 -23q0 -112 71 -169.5t211 -57.5q102 0 161.5 44t59.5 119q0 51 -30 86t-154 93l-55 25q-297 138 -297 313q0 141 107 227t286 86q186 0 289 -94q104 -93 104 -260v-23h-166v6q0 219 -233 219q-99 0 -155 -38.5t-56 -104.5q0 -80 178 -161
l10 -5q118 -54 191 -96.5t102 -76.5q60 -68 60 -169q0 -153 -117 -246q-118 -92 -314 -92t-310 99q-113 101 -113 272q0 16 0.5 25t1.5 16h169z" />
    <glyph glyph-name="t" unicode="t" horiz-adv-x="543" 
d="M385 0q-78 -23 -125 -23q-225 0 -225 173q0 20 4.5 51t13.5 80l137 643h-155l33 147h153l62 291h180l-62 -291h185l-31 -147h-186l-140 -662q-12 -50 -12 -76q0 -29 21.5 -45t60.5 -16q26 0 54 3t61 9z" />
    <glyph glyph-name="u" unicode="u" horiz-adv-x="1130" 
d="M1067 1071l-225 -1071h-164l33 162q-90 -91 -185.5 -134.5t-206.5 -43.5q-286 0 -286 229q0 31 4 64.5t12 68.5l154 725h182l-150 -697l-1 -6q-15 -75 -15 -112q0 -58 43 -90.5t119 -32.5q154 0 253.5 101.5t141.5 300.5l113 536h178z" />
    <glyph glyph-name="v" unicode="v" horiz-adv-x="946" 
d="M215 0l-168 1071h174l125 -881l449 881h196l-577 -1071h-199z" />
    <glyph glyph-name="w" unicode="w" horiz-adv-x="1505" 
d="M193 0l-138 1071h174l97 -840l370 840h199l45 -850l422 850h194l-573 -1071h-184l-47 819l-377 -819h-182z" />
    <glyph glyph-name="x" unicode="x" horiz-adv-x="905" 
d="M-147 0l462 557l-260 514h201l180 -381l307 381h211l-438 -532l262 -539h-196l-189 397l-325 -397h-215z" />
    <glyph glyph-name="y" unicode="y" horiz-adv-x="946" 
d="M221 -55l-176 1126h193l116 -901l445 901h198l-696 -1329q-26 -48 -55 -82.5t-64 -56.5t-77 -32.5t-93 -10.5q-39 0 -96 19l39 159q16 -6 34 -9t36 -3q72 0 108 65z" />
    <glyph glyph-name="z" unicode="z" horiz-adv-x="913" 
d="M-86 0l31 141l696 772h-561l31 158h809l-31 -131l-707 -780h606l-34 -160h-840z" />
    <glyph glyph-name="braceleft" unicode="{" 
d="M866 1327h-41q-121 0 -161 -45q-41 -44 -41 -184v-242q0 -161 -45 -228q-44 -68 -156 -98q114 -29 157 -96q44 -68 44 -229v-242q0 -141 41 -185q42 -44 163 -44h39v-148h-43q-108 0 -169 12q-59 10 -103 37q-56 35 -78 97t-22 211v245q0 149 -55 210q-54 61 -185 61
q-7 0 -21.5 -1t-21.5 -1v149q8 0 23 -1t22 -1q130 0 184 60q54 61 54 208v246q0 150 22 210q22 62 78 97q22 14 48.5 24t60 16t75 9t94.5 3h37v-150z" />
    <glyph glyph-name="bar" unicode="|" 
d="M588 1565v-2048h-150v2048h150z" />
    <glyph glyph-name="braceright" unicode="}" 
d="M575 872q0 -147 54 -208q54 -60 184 -60q7 0 22 1t23 1v-149q-7 0 -22 1t-21 1q-132 0 -186 -61q-54 -60 -54 -210v-245q0 -147 -23 -211q-23 -63 -77 -97q-44 -27 -103 -37q-62 -12 -169 -12h-43v148h39q120 0 162 45t42 186v240q0 160 44 228q46 69 157 97
q-111 30 -157 98q-44 68 -44 228v242q0 140 -42 184q-42 45 -162 45h-39v150h37q54 0 96 -3t75.5 -9.5t59.5 -16.5t47 -23q54 -34 77 -97t23 -210v-246z" />
    <glyph glyph-name="asciitilde" unicode="~" horiz-adv-x="1706" 
d="M1530 614q-105 -72 -199 -106.5t-190 -34.5q-94 0 -256 58l-34 12l-15 5q-176 60 -273 60q-42 0 -85 -9t-90 -28t-98.5 -48.5t-111.5 -71.5v155q211 144 387 144q60 0 127 -14t164 -48q8 -2 19.5 -6.5t27.5 -10.5q159 -57 240 -57q44 0 88 9t91 28t98.5 48.5t109.5 70.5
v-156z" />
    <glyph glyph-name="Euro" horiz-adv-x="1124" 
d="M1034 510q-62 -262 -203 -409q-141 -148 -325 -148q-204 0 -311 139.5t-107 407.5q0 26 0.5 42.5t1.5 32.5h-106l39 93h75q7 48 11.5 75.5t9.5 48.5l-148 1l39 92h129q79 298 228 460q148 162 338 162q194 0 303 -133q110 -133 110 -368v-25h-194v18q0 171 -56.5 259
t-167.5 88q-115 0 -206 -117t-154 -344h451l-39 -92h-435q-5 -21 -10 -47.5t-12 -77.5h401l-39 -93h-372q-2 -23 -2.5 -39t-1 -28.5t-0.5 -22.5v-20q0 -175 57.5 -263.5t171.5 -88.5q115 0 205 107q89 106 127 290h192z" />
    <glyph glyph-name="nonbreakingspace" unicode="&#xa0;" horiz-adv-x="1124" 
 />
    <glyph glyph-name="exclamdown" unicode="&#xa1;" horiz-adv-x="657" 
d="M584 1473l-47 -224h-220l50 224h217zM461 1100l-187 -1100h-202l276 1100h113z" />
    <glyph glyph-name="cent" unicode="&#xa2;" horiz-adv-x="1124" 
d="M961 397q-46 -198 -184 -313q-137 -115 -331 -115q-24 0 -36 0.5t-23 1.5l-68 -229h-86l74 242q-143 37 -216 148.5t-73 293.5q0 296 172 486q172 192 439 192h18l58 192h86l-62 -204q140 -33 213 -129t76 -252h-182q-2 90 -40 145.5t-114 81.5l-244 -805q5 0 15.5 -1
t15.5 -1q106 0 186 68.5t125 197.5h181zM600 948q-161 -2 -275 -153q-114 -150 -114 -365q0 -219 147 -278z" />
    <glyph glyph-name="sterling" unicode="&#xa3;" horiz-adv-x="1124" 
d="M41 150q213 156 213 401q0 28 -2 53.5t-6 48.5h-189l27 103h145q-14 60 -21 114t-7 97q0 224 134 364q133 139 349 139q174 0 281 -93q106 -93 106 -244q0 -69 -12 -148h-185q13 77 13 117q0 102 -52.5 154.5t-154.5 52.5q-134 0 -211 -89q-76 -88 -76 -247
q0 -45 5.5 -97.5t17.5 -119.5h358l-24 -103h-324v-4q2 -18 3 -31.5t1 -23.5q0 -120 -56 -230t-173 -219q66 25 119 37.5t98 12.5q65 0 185 -30t171 -30q48 0 95.5 19t101.5 61l-58 -215q-40 -16 -80.5 -24.5t-82.5 -8.5q-69 0 -214 40q-144 40 -225 40q-51 0 -111 -18.5
t-124 -53.5z" />
    <glyph glyph-name="currency" unicode="&#xa4;" horiz-adv-x="1124" 
d="M1034 510q-62 -262 -203 -409q-141 -148 -325 -148q-204 0 -311 139.5t-107 407.5q0 26 0.5 42.5t1.5 32.5h-106l39 93h75q7 48 11.5 75.5t9.5 48.5l-148 1l39 92h129q79 298 228 460q148 162 338 162q194 0 303 -133q110 -133 110 -368v-25h-194v18q0 171 -56.5 259
t-167.5 88q-115 0 -206 -117t-154 -344h451l-39 -92h-435q-5 -21 -10 -47.5t-12 -77.5h401l-39 -93h-372q-2 -23 -2.5 -39t-1 -28.5t-0.5 -22.5v-20q0 -175 57.5 -263.5t171.5 -88.5q115 0 205 107q89 106 127 290h192z" />
    <glyph glyph-name="yen" unicode="&#xa5;" horiz-adv-x="1169" 
d="M340 0l115 559h-475l18 92h432l-53 135h-350l20 93h295l-199 512h187l248 -654l438 654h203l-355 -512h318l-21 -93h-360l-92 -135h424l-19 -92h-477l-113 -559h-184z" />
    <glyph glyph-name="brokenbar" unicode="&#xa6;" 
d="M588 1432v-758h-150v758h150zM588 408v-758h-150v758h150z" />
    <glyph glyph-name="section" unicode="&#xa7;" 
d="M217 114q20 -157 164 -157q40 0 73 11.5t56.5 32t36 49t12.5 63.5q0 76 -122 174l-13 10l-176 139q-92 74 -129 130q-37 58 -37 124q0 85 50 154t155 127q-60 88 -60 198q0 134 98 226q100 92 244 92q163 0 250.5 -77.5t87.5 -221.5q0 -6 -1 -17t-1 -16h-184
q0 91 -37 131.5t-121 40.5q-33 0 -60.5 -9.5t-47 -27t-30.5 -42t-11 -54.5q0 -50 31 -93q31 -42 120 -112l158 -121q90 -68 130 -133.5t40 -140.5q0 -96 -49.5 -168t-155.5 -127q57 -75 57 -182q0 -139 -102 -233q-101 -95 -252 -95q-176 0 -266 82.5t-90 243.5zM584 401
q135 61 135 156q0 43 -24.5 80.5t-82.5 81.5l-217 164q-66 -25 -99.5 -67t-33.5 -97q0 -34 23 -66q24 -32 92 -86z" />
    <glyph glyph-name="dieresis" unicode="&#xa8;" 
d="M371 1274l45 209h182l-43 -209h-184zM700 1274l45 209h183l-43 -209h-185z" />
    <glyph glyph-name="copyright" unicode="&#xa9;" horiz-adv-x="1706" 
d="M852 1464q153 0 285.5 -54.5t238.5 -160.5q104 -103 159.5 -238.5t55.5 -283.5q0 -150 -54 -281.5t-159 -234.5q-111 -108 -245.5 -164.5t-280.5 -56.5t-279 55.5t-239 163.5q-106 106 -161.5 238.5t-55.5 279.5q0 148 55.5 281.5t163.5 242.5q105 105 236 159t280 54z
M1493 727q0 131 -47 246.5t-137 206.5q-94 93 -209 140.5t-246 47.5q-130 0 -243.5 -46.5t-204.5 -137.5q-94 -94 -143.5 -211.5t-49.5 -245.5q0 -127 48.5 -242t141.5 -209q93 -91 207.5 -139.5t243.5 -48.5q126 0 242 48.5t213 142.5q91 88 137.5 202t46.5 246zM1053 907
q-13 78 -65.5 119t-139.5 41q-53 0 -94.5 -23.5t-70.5 -67t-44.5 -107t-15.5 -142.5q0 -78 16 -140t46 -104.5t73.5 -65t99.5 -22.5q82 0 136.5 47t68.5 129h145q-9 -130 -108 -211q-98 -81 -248 -81q-183 0 -286 120q-103 119 -103 334q0 201 109 322q109 123 286 123
q141 0 236 -75q96 -76 106 -196h-147z" />
    <glyph glyph-name="ordfeminine" unicode="&#xaa;" horiz-adv-x="940" 
d="M688 1116q-27 -13 -66.5 -22t-92.5 -16q-52 -7 -88.5 -13t-57.5 -12q-54 -17 -84.5 -52.5t-30.5 -80.5q0 -43 33.5 -68t93.5 -25q96 0 173 53q78 54 98 134zM787 904q-3 -12 -5 -23t-2 -19q0 -35 45 -35q14 0 21 0.5t14 1.5l-23 -98q-5 -1 -14.5 -3.5t-23.5 -6.5
q-29 -8 -41 -8q-54 0 -83.5 24t-29.5 66q0 5 1 12.5t3 21.5q-82 -64 -156.5 -94t-152.5 -30q-108 0 -163.5 43.5t-55.5 128.5q0 127 92.5 199.5t275.5 91.5q9 1 21.5 2t29.5 3q187 18 187 130q0 40 -38.5 62t-113.5 22q-88 0 -141.5 -34.5t-66.5 -103.5h-136q23 117 122 184
q101 68 251 68q139 0 204.5 -41.5t65.5 -130.5q0 -18 -8 -61zM78 582h686l-23 -109h-686z" />
    <glyph glyph-name="guillemotleft" unicode="&#xab;" horiz-adv-x="909" 
d="M35 473l33 160l389 244l-37 -177l-258 -161l184 -185l-35 -159zM444 473l33 160l389 244l-37 -177l-258 -161l185 -185l-35 -159z" />
    <glyph glyph-name="logicalnot" unicode="&#xac;" horiz-adv-x="1706" 
d="M1452 860v-502h-137v363h-1061v139h1198z" />
    <glyph glyph-name="sfthyphen" unicode="&#xad;" horiz-adv-x="639" 
d="M18 461l37 162h494l-37 -162h-494z" />
    <glyph glyph-name="registered" unicode="&#xae;" horiz-adv-x="1706" 
d="M852 1464q152 0 286 -55.5t240 -163.5q103 -105 158 -238t55 -280q0 -152 -54.5 -283.5t-160.5 -234.5q-109 -106 -244 -162.5t-280 -56.5q-148 0 -281 56t-239 165q-106 106 -160.5 238t-54.5 278q0 147 57 283t166 245q102 103 231.5 156t280.5 53zM1493 721
q0 135 -46 251t-136 206q-93 94 -208.5 142t-248.5 48q-131 0 -245 -47t-201 -135q-94 -96 -144.5 -214t-50.5 -245q0 -126 48.5 -240.5t139.5 -207.5t206.5 -142t240.5 -49q131 0 246.5 47.5t212.5 140.5q91 88 138.5 202t47.5 243zM872 1159q349 0 349 -229
q0 -90 -50 -148.5t-141 -76.5l187 -381h-177l-170 356h-155v-356h-158v835h315zM715 1057v-277h133q113 0 162 31.5t49 101.5q0 76 -50.5 110t-164.5 34h-129z" />
    <glyph glyph-name="macron" unicode="&#xaf;" 
d="M365 1307l30 141h539l-29 -141h-540z" />
    <glyph glyph-name="degree" unicode="&#xb0;" horiz-adv-x="674" 
d="M338 1456q118 0 202 -85q85 -84 85 -204q0 -119 -84 -203q-85 -83 -205 -83q-121 0 -204 83t-83 203t84 204q85 85 205 85zM530 1169q0 81 -56 137t-136 56t-138 -56q-57 -56 -57 -137t57 -139q57 -57 138 -57q80 0 136 57q56 59 56 139z" />
    <glyph glyph-name="plusminus" unicode="&#xb1;" horiz-adv-x="1706" 
d="M924 1192v-340h528v-139h-528v-340h-142v340h-528v139h528v340h142zM1452 170v-141h-1198v141h1198z" />
    <glyph glyph-name="twosuperior" unicode="&#xb2;" horiz-adv-x="741" 
d="M4 557q8 73 32.5 127t69.5 96q17 16 36 31t41 31q23 16 58.5 37t84.5 49l5 3q232 133 232 245q0 66 -41 103.5t-110 37.5q-91 0 -140 -45t-63 -142h-125q18 140 101 212.5t225 72.5q127 0 203 -64q77 -65 77 -171q0 -89 -52 -156t-187 -143l-67 -38q-200 -113 -234 -190
h468l-22 -96h-592z" />
    <glyph glyph-name="threesuperior" unicode="&#xb3;" horiz-adv-x="741" 
d="M147 835q-6 -30 -6 -59q0 -72 41.5 -108.5t122.5 -36.5q48 0 87 13.5t66.5 39t42.5 61t15 80.5q0 61 -45.5 94t-132.5 33h-35l21 90q9 -1 17.5 -1.5t25.5 -0.5q99 0 151.5 39.5t52.5 112.5q0 60 -40.5 94.5t-112.5 34.5q-160 0 -189 -170h-125q20 129 102 196.5t218 67.5
q122 0 196 -59t74 -158q0 -73 -39 -125.5t-114 -81.5q102 -59 102 -172q0 -126 -95 -207q-95 -80 -243 -80q-137 0 -212 62t-75 174q0 9 1 24.5t3 37.5q0 5 1 6z" />
    <glyph glyph-name="acute" unicode="&#xb4;" 
d="M600 1214h-121l232 349h190z" />
    <glyph glyph-name="mu" unicode="&#xb5;" horiz-adv-x="1151" 
d="M385 1071l-129 -600q-7 -32 -10.5 -64.5t-3.5 -68.5q0 -100 51.5 -153.5t148.5 -53.5q131 0 208 92q78 95 124 312l115 536h178l-156 -732l-4 -20q-18 -87 -18 -112q0 -37 16.5 -52.5t55.5 -15.5q12 0 18.5 0.5t13.5 1.5l-31 -143q-46 -10 -108 -10q-63 0 -97 29t-52 100
q-89 -131 -271 -131q-82 0 -143 27.5t-113 88.5l-110 -530h-181l318 1499h180z" />
    <glyph glyph-name="paragraph" unicode="&#xb6;" 
d="M958 1393h-120v-1393h-111v1393h-176v-1393h-113v782q-171 8 -271 102q-101 95 -101 246q0 157 107 253q108 96 286 96h499v-86z" />
    <glyph glyph-name="glyph123" unicode="&#xb7;" horiz-adv-x="561" 
d="M154 702q0 52 36 90q37 37 91 37t91 -37q38 -36 38 -90q0 -53 -38 -91t-91 -38q-52 0 -90 38q-37 37 -37 91z" />
    <glyph glyph-name="cedilla" unicode="&#xb8;" 
d="M100 -324q81 -23 130.5 -34t80.5 -11q73 0 105.5 23.5t32.5 75.5q0 43 -40 61.5t-139 18.5h-22l65 190h78l-35 -102h23q106 0 159.5 -42t53.5 -124q0 -100 -64.5 -152.5t-185.5 -52.5q-48 0 -115 12.5t-164 38.5z" />
    <glyph glyph-name="onesuperior" unicode="&#xb9;" horiz-adv-x="741" 
d="M264 557l150 649q-51 -15 -115 -23t-145 -9l20 81q132 4 210.5 42.5t113.5 117.5h86l-201 -858h-119z" />
    <glyph glyph-name="ordmasculine" unicode="&#xba;" horiz-adv-x="940" 
d="M760 1217q0 85 -45.5 131.5t-126.5 46.5q-118 0 -201 -113q-82 -112 -82 -272q0 -90 43.5 -137.5t124.5 -47.5q121 0 204 113t83 279zM616 1509q140 0 215.5 -71.5t75.5 -202.5q0 -223 -131 -374q-131 -150 -327 -150q-69 0 -123 19t-91.5 54.5t-57 86.5t-19.5 116
q0 223 130 372q130 150 328 150zM98 582h643l-22 -109h-643z" />
    <glyph glyph-name="guillemotright" unicode="&#xbb;" horiz-adv-x="909" 
d="M401 600l-32 -162l-389 -243l36 176l258 161l-184 185l35 160zM813 600l-35 -162l-389 -243l37 176l258 161l-182 185l35 160z" />
    <glyph glyph-name="onequarter" unicode="&#xbc;" horiz-adv-x="1757" 
d="M251 612l143 607q-48 -14 -111 -22t-136 -9l18 75q127 4 201.5 40t107.5 110h82l-192 -801h-113zM366 -41l899 1473h125l-899 -1473h-125zM1383 0l48 201h-383l22 88l514 489h98l-116 -489h129l-21 -88h-131l-47 -201h-113zM1187 289h266l80 338z" />
    <glyph glyph-name="onehalf" unicode="&#xbd;" horiz-adv-x="1757" 
d="M251 612l143 607q-48 -14 -111 -22t-136 -9l18 75q127 4 201.5 40t107.5 110h82l-192 -801h-113zM366 -41l899 1473h125l-899 -1473h-125zM1054 0q6 67 29.5 118.5t68.5 90.5q48 47 186 124l23 13l10 6q215 122 215 226q0 60 -38.5 95.5t-104.5 35.5q-88 0 -134 -42
t-59 -130h-121q19 130 97.5 197t214.5 67q121 0 195 -60q73 -60 73 -159q0 -83 -50 -147q-50 -62 -179 -134l-63 -34q-191 -104 -224 -177h446l-20 -90h-565z" />
    <glyph glyph-name="threequarters" unicode="&#xbe;" horiz-adv-x="1759" 
d="M141 872q-6 -29 -6 -55q0 -66 39 -100.5t117 -34.5q92 0 147 49q56 50 56 131q0 58 -44 88.5t-126 30.5h-35l20 84h41q94 0 144.5 36t50.5 105q0 55 -39.5 87t-106.5 32q-154 0 -182 -160h-117q19 121 97 184.5t206 63.5q60 0 108.5 -14.5t82 -40.5t52 -64t18.5 -84
q0 -136 -148 -192q49 -28 72.5 -67t23.5 -93q0 -118 -90 -193q-89 -75 -231 -75q-131 0 -202 57t-71 162q0 24 1 37.5t3 25.5h119zM367 -41l899 1473h125l-899 -1473h-125zM1384 0l48 201h-383l22 88l514 489h98l-116 -489h129l-21 -88h-131l-47 -201h-113zM1188 289h266
l80 338z" />
    <glyph glyph-name="questiondown" unicode="&#xbf;" horiz-adv-x="1075" 
d="M764 1446l-45 -213h-207l43 213h209zM684 1071q-8 -114 -55 -200t-140 -154q-34 -26 -115 -79q-40 -26 -65.5 -45t-38.5 -32q-48 -51 -70 -103.5t-22 -113.5q0 -103 63.5 -161t178.5 -58q123 0 197.5 78t91.5 225h178q-13 -217 -140 -342q-126 -123 -333 -123
q-197 0 -314 102q-116 102 -116 273q0 60 14 113t43 102t75 94t109 90q16 11 37.5 25.5t50.5 32.5q113 71 144 112q21 27 34.5 66.5t22.5 97.5h170z" />
    <glyph glyph-name="Agrave" unicode="&#xc0;" horiz-adv-x="1237" 
d="M-150 0l793 1473h246l246 -1473h-199l-66 416h-587l-220 -416h-213zM373 588h469l-107 682zM928 1620h-109l-301 349h201z" />
    <glyph glyph-name="Aacute" unicode="&#xc1;" horiz-adv-x="1237" 
d="M-150 0l793 1473h246l246 -1473h-199l-66 416h-587l-220 -416h-213zM373 588h469l-107 682zM766 1620h-121l232 349h190z" />
    <glyph glyph-name="Acircumflex" unicode="&#xc2;" horiz-adv-x="1237" 
d="M-150 0l793 1473h246l246 -1473h-199l-66 416h-587l-220 -416h-213zM373 588h469l-107 682zM1071 1620h-108l-133 220l-226 -220h-121l267 349h184z" />
    <glyph glyph-name="Atilde" unicode="&#xc3;" horiz-adv-x="1237" 
d="M-150 0l793 1473h246l246 -1473h-199l-66 416h-587l-220 -416h-213zM373 588h469l-107 682zM1114 1903q-28 -105 -77 -153t-130 -48q-17 0 -30.5 2t-26.5 7l-88 28q-14 4 -27.5 6t-27.5 2q-68 0 -86 -79h-103q49 208 201 208q16 0 34 -2.5t36 -7.5l88 -26q12 -4 24 -6.5
t23 -2.5q34 0 55 17t33 55h102z" />
    <glyph glyph-name="Adieresis" unicode="&#xc4;" horiz-adv-x="1237" 
d="M-150 0l793 1473h246l246 -1473h-199l-66 416h-587l-220 -416h-213zM373 588h469l-107 682zM537 1680l45 209h182l-43 -209h-184zM866 1680l45 209h183l-43 -209h-185z" />
    <glyph glyph-name="Aring" unicode="&#xc5;" horiz-adv-x="1237" 
d="M-150 0l793 1473h246l246 -1473h-199l-66 416h-587l-220 -416h-213zM373 588h469l-107 682zM557 1747q0 95 66 160q67 65 161 65t159 -65t65 -160t-65 -160t-159 -65t-161 66q-66 66 -66 159zM668 1747q0 -24 9 -45t24 -36.5t36 -24.5t45 -9t45 9t36.5 24.5t24.5 36.5
t9 45t-9 45t-24.5 36.5t-36.5 24.5t-45 9t-45 -9t-36 -24.5t-24 -36.5t-9 -45z" />
    <glyph glyph-name="AE" unicode="&#xc6;" horiz-adv-x="1915" 
d="M-182 0l895 1473h1204l-37 -181h-696l-94 -446h673l-34 -174h-676l-107 -492h750l-39 -180h-940l90 416h-526l-248 -416h-215zM383 588h459l153 710h-188z" />
    <glyph glyph-name="Ccedilla" unicode="&#xc7;" horiz-adv-x="1448" 
d="M1327 524q-63 -278 -238 -421.5t-452 -143.5h-16l-23 -61h23q217 0 217 -174q0 -45 -18 -81.5t-51 -62t-80 -39.5t-105 -14q-51 0 -117.5 12.5t-159.5 38.5l37 98q83 -25 133 -35t88 -10q125 0 125 99q0 22 -8.5 37.5t-29 25t-54 13.5t-82.5 4h-24l49 155
q-213 39 -334 203q-119 164 -119 420q0 172 51 334t146 290q215 291 571 291q247 0 390 -137t155 -385h-197q-6 163 -103 253q-97 91 -265 91q-253 0 -402 -229q-72 -114 -109.5 -243t-37.5 -265q0 -224 100.5 -343.5t288.5 -119.5q326 0 463 399h188z" />
    <glyph glyph-name="Egrave" unicode="&#xc8;" horiz-adv-x="1204" 
d="M4 0l311 1473h891l-39 -181h-696l-94 -446h674l-37 -174h-674l-107 -492h752l-39 -180h-942zM934 1620h-109l-301 349h201z" />
    <glyph glyph-name="Eacute" unicode="&#xc9;" horiz-adv-x="1204" 
d="M4 0l311 1473h891l-39 -181h-696l-94 -446h674l-37 -174h-674l-107 -492h752l-39 -180h-942zM772 1620h-121l232 349h190z" />
    <glyph glyph-name="Ecircumflex" unicode="&#xca;" horiz-adv-x="1204" 
d="M4 0l311 1473h891l-39 -181h-696l-94 -446h674l-37 -174h-674l-107 -492h752l-39 -180h-942zM1077 1620h-108l-133 220l-226 -220h-121l267 349h184z" />
    <glyph glyph-name="Edieresis" unicode="&#xcb;" horiz-adv-x="1204" 
d="M4 0l311 1473h891l-39 -181h-696l-94 -446h674l-37 -174h-674l-107 -492h752l-39 -180h-942zM543 1680l45 209h182l-43 -209h-184zM872 1680l45 209h183l-43 -209h-185z" />
    <glyph glyph-name="Igrave" unicode="&#xcc;" horiz-adv-x="532" 
d="M8 0l311 1473h205l-313 -1473h-203zM598 1620h-109l-301 349h201z" />
    <glyph glyph-name="Iacute" unicode="&#xcd;" horiz-adv-x="532" 
d="M8 0l311 1473h205l-313 -1473h-203zM436 1620h-121l232 349h190z" />
    <glyph glyph-name="Icircumflex" unicode="&#xce;" horiz-adv-x="532" 
d="M8 0l311 1473h205l-313 -1473h-203zM741 1620h-108l-133 220l-226 -220h-121l267 349h184z" />
    <glyph glyph-name="Idieresis" unicode="&#xcf;" horiz-adv-x="532" 
d="M8 0l311 1473h205l-313 -1473h-203zM207 1680l45 209h182l-43 -209h-184zM536 1680l45 209h183l-43 -209h-185z" />
    <glyph glyph-name="Eth" unicode="&#xd0;" horiz-adv-x="1470" 
d="M12 0l156 719h-168l27 127h170l133 627h420q323 0 472 -147q148 -145 148 -464q0 -188 -48.5 -346.5t-141.5 -273.5q-42 -51 -92 -93.5t-113 -76.5q-72 -40 -159 -56q-44 -8 -106.5 -12t-146.5 -4h-551zM362 719l-118 -553h282q194 0 296 38q100 39 171 132
q82 108 124 242t42 292q0 233 -101 334t-337 101h-234l-96 -459h385l-26 -127h-388z" />
    <glyph glyph-name="Ntilde" unicode="&#xd1;" horiz-adv-x="1432" 
d="M4 0l311 1473h193l481 -1162l246 1162h192l-311 -1473h-188l-486 1153l-245 -1153h-193zM1233 1903q-28 -105 -77 -153t-130 -48q-17 0 -30.5 2t-26.5 7l-88 28q-14 4 -27.5 6t-27.5 2q-68 0 -86 -79h-103q49 208 201 208q16 0 34 -2.5t36 -7.5l88 -26q12 -4 24 -6.5
t23 -2.5q34 0 55 17t33 55h102z" />
    <glyph glyph-name="Ograve" unicode="&#xd2;" horiz-adv-x="1571" 
d="M80 584q0 185 64 361q64 177 182 315q105 123 247.5 187t311.5 64q280 0 440 -169q160 -167 160 -463q0 -186 -66 -363t-186 -315q-102 -118 -244 -180t-309 -62q-279 0 -440 167q-160 167 -160 458zM866 1339q-117 0 -219 -50t-180 -146q-88 -109 -137 -257
q-49 -147 -49 -298q0 -214 110 -336q111 -121 305 -121q112 0 211 45.5t174 132.5q48 56 85.5 123t63 141.5t39 156t13.5 165.5q0 203 -113 324q-113 120 -303 120zM1081 1620h-109l-301 349h201z" />
    <glyph glyph-name="Oacute" unicode="&#xd3;" horiz-adv-x="1571" 
d="M80 584q0 185 64 361q64 177 182 315q105 123 247.5 187t311.5 64q280 0 440 -169q160 -167 160 -463q0 -186 -66 -363t-186 -315q-102 -118 -244 -180t-309 -62q-279 0 -440 167q-160 167 -160 458zM866 1339q-117 0 -219 -50t-180 -146q-88 -109 -137 -257
q-49 -147 -49 -298q0 -214 110 -336q111 -121 305 -121q112 0 211 45.5t174 132.5q48 56 85.5 123t63 141.5t39 156t13.5 165.5q0 203 -113 324q-113 120 -303 120zM919 1620h-121l232 349h190z" />
    <glyph glyph-name="Ocircumflex" unicode="&#xd4;" horiz-adv-x="1571" 
d="M80 584q0 185 64 361q64 177 182 315q105 123 247.5 187t311.5 64q280 0 440 -169q160 -167 160 -463q0 -186 -66 -363t-186 -315q-102 -118 -244 -180t-309 -62q-279 0 -440 167q-160 167 -160 458zM866 1339q-117 0 -219 -50t-180 -146q-88 -109 -137 -257
q-49 -147 -49 -298q0 -214 110 -336q111 -121 305 -121q112 0 211 45.5t174 132.5q48 56 85.5 123t63 141.5t39 156t13.5 165.5q0 203 -113 324q-113 120 -303 120zM1224 1620h-108l-133 220l-226 -220h-121l267 349h184z" />
    <glyph glyph-name="Otilde" unicode="&#xd5;" horiz-adv-x="1571" 
d="M80 584q0 185 64 361q64 177 182 315q105 123 247.5 187t311.5 64q280 0 440 -169q160 -167 160 -463q0 -186 -66 -363t-186 -315q-102 -118 -244 -180t-309 -62q-279 0 -440 167q-160 167 -160 458zM866 1339q-117 0 -219 -50t-180 -146q-88 -109 -137 -257
q-49 -147 -49 -298q0 -214 110 -336q111 -121 305 -121q112 0 211 45.5t174 132.5q48 56 85.5 123t63 141.5t39 156t13.5 165.5q0 203 -113 324q-113 120 -303 120zM1267 1903q-28 -105 -77 -153t-130 -48q-17 0 -30.5 2t-26.5 7l-88 28q-14 4 -27.5 6t-27.5 2
q-68 0 -86 -79h-103q49 208 201 208q16 0 34 -2.5t36 -7.5l88 -26q12 -4 24 -6.5t23 -2.5q34 0 55 17t33 55h102z" />
    <glyph glyph-name="Odieresis" unicode="&#xd6;" horiz-adv-x="1571" 
d="M80 584q0 185 64 361q64 177 182 315q105 123 247.5 187t311.5 64q280 0 440 -169q160 -167 160 -463q0 -186 -66 -363t-186 -315q-102 -118 -244 -180t-309 -62q-279 0 -440 167q-160 167 -160 458zM866 1339q-117 0 -219 -50t-180 -146q-88 -109 -137 -257
q-49 -147 -49 -298q0 -214 110 -336q111 -121 305 -121q112 0 211 45.5t174 132.5q48 56 85.5 123t63 141.5t39 156t13.5 165.5q0 203 -113 324q-113 120 -303 120zM690 1680l45 209h182l-43 -209h-184zM1019 1680l45 209h183l-43 -209h-185z" />
    <glyph glyph-name="multiply" unicode="&#xd7;" horiz-adv-x="1706" 
d="M860 709l469 469l98 -99l-469 -469l469 -469l-98 -96l-469 467l-469 -467l-98 96l469 469l-469 469l98 99z" />
    <glyph glyph-name="Oslash" unicode="&#xd8;" horiz-adv-x="1571" 
d="M137 -39l-69 59l133 148q-64 88 -94.5 186.5t-30.5 218.5q0 188 65 369q64 180 181 315q105 125 248 189.5t311 64.5q126 0 226 -35t185 -110l127 139l70 -61l-131 -146q64 -88 94.5 -191.5t30.5 -236.5q0 -193 -63.5 -364.5t-184.5 -306.5q-106 -118 -248.5 -178
t-316.5 -60q-132 0 -231 33.5t-177 103.5zM1163 1219q-60 57 -135 84.5t-172 27.5q-115 0 -213 -48t-176 -144q-90 -113 -139 -264t-49 -318q0 -67 14 -127t43 -117zM389 240q54 -57 128 -84t177 -27q117 0 216 44.5t177 131.5q91 103 144 256t53 311q0 75 -16.5 143
t-50.5 134z" />
    <glyph glyph-name="Ugrave" unicode="&#xd9;" horiz-adv-x="1411" 
d="M313 1473h195l-203 -961q-8 -36 -12 -68.5t-4 -58.5q0 -115 80 -178.5t227 -63.5q87 0 154.5 20t117.5 62t83.5 107t52.5 155l208 986h195l-211 -996q-34 -154 -76 -236q-44 -83 -114 -143q-81 -69 -187.5 -104t-230.5 -35q-227 0 -361 112q-135 112 -135 300
q0 28 7 75.5t22 122.5zM1026 1620h-109l-301 349h201z" />
    <glyph glyph-name="Uacute" unicode="&#xda;" horiz-adv-x="1411" 
d="M313 1473h195l-203 -961q-8 -36 -12 -68.5t-4 -58.5q0 -115 80 -178.5t227 -63.5q87 0 154.5 20t117.5 62t83.5 107t52.5 155l208 986h195l-211 -996q-34 -154 -76 -236q-44 -83 -114 -143q-81 -69 -187.5 -104t-230.5 -35q-227 0 -361 112q-135 112 -135 300
q0 28 7 75.5t22 122.5zM864 1620h-121l232 349h190z" />
    <glyph glyph-name="Ucircumflex" unicode="&#xdb;" horiz-adv-x="1411" 
d="M313 1473h195l-203 -961q-8 -36 -12 -68.5t-4 -58.5q0 -115 80 -178.5t227 -63.5q87 0 154.5 20t117.5 62t83.5 107t52.5 155l208 986h195l-211 -996q-34 -154 -76 -236q-44 -83 -114 -143q-81 -69 -187.5 -104t-230.5 -35q-227 0 -361 112q-135 112 -135 300
q0 28 7 75.5t22 122.5zM1169 1620h-108l-133 220l-226 -220h-121l267 349h184z" />
    <glyph glyph-name="Udieresis" unicode="&#xdc;" horiz-adv-x="1411" 
d="M313 1473h195l-203 -961q-8 -36 -12 -68.5t-4 -58.5q0 -115 80 -178.5t227 -63.5q87 0 154.5 20t117.5 62t83.5 107t52.5 155l208 986h195l-211 -996q-34 -154 -76 -236q-44 -83 -114 -143q-81 -69 -187.5 -104t-230.5 -35q-227 0 -361 112q-135 112 -135 300
q0 28 7 75.5t22 122.5zM635 1680l45 209h182l-43 -209h-184zM964 1680l45 209h183l-43 -209h-185z" />
    <glyph glyph-name="Yacute" unicode="&#xdd;" horiz-adv-x="1055" 
d="M276 0l125 610l-331 863h204l254 -682l455 682h223l-614 -893l-119 -580h-197zM696 1620h-121l232 349h190z" />
    <glyph glyph-name="Thorn" unicode="&#xde;" horiz-adv-x="1233" 
d="M6 0l313 1473h193l-59 -285h297q204 0 307.5 -90t103.5 -267q0 -436 -571 -436h-305l-84 -395h-195zM319 563h283q195 0 281 65t86 212q0 48 -14 82.5t-44 56.5t-78 32.5t-116 10.5h-299z" />
    <glyph glyph-name="germandbls" unicode="&#xdf;" horiz-adv-x="1143" 
d="M-10 0l243 1126q37 174 153.5 266.5t297.5 92.5q186 0 289 -94q104 -93 104 -258q0 -118 -59.5 -204.5t-171.5 -131.5q162 -103 162 -293q0 -229 -155 -376q-155 -146 -398 -146q-66 0 -142 18l37 162q37 -9 66 -13t53 -4q147 0 245 96q97 96 97 240q0 130 -69 192
t-214 62q-23 0 -36.5 -0.5t-24.5 -1.5l35 143q11 -1 22.5 -1.5t34.5 -0.5q330 0 330 261q0 44 -15 79t-43 60t-68 38t-89 13q-106 0 -172.5 -57t-89.5 -166l-240 -1102h-182z" />
    <glyph glyph-name="agrave" unicode="&#xe0;" horiz-adv-x="1081" 
d="M655 121q-142 -154 -340 -154q-156 0 -244 87q-87 87 -87 241q0 172 109 254q108 81 368 98h5.5t8.5 1q291 19 291 161q0 70 -48.5 102.5t-154.5 32.5q-149 0 -207 -39q-57 -39 -82 -145h-178q56 338 467 338q188 0 288.5 -65t100.5 -185q0 -6 -1 -15t-3 -23.5t-6 -36
t-10 -52.5l-98 -454q-6 -23 -8.5 -45t-2.5 -44q0 -59 74 -59q21 0 45 6l-27 -125q-24 -6 -51 -9t-63 -3q-146 0 -146 133zM711 539q-79 -29 -215 -40q-67 -5 -110.5 -10t-63.5 -10q-154 -36 -154 -184q0 -79 48 -125.5t130 -46.5q156 0 248 105.5t117 310.5zM772 1214h-109
l-301 349h201z" />
    <glyph glyph-name="aacute" unicode="&#xe1;" horiz-adv-x="1081" 
d="M655 121q-142 -154 -340 -154q-156 0 -244 87q-87 87 -87 241q0 172 109 254q108 81 368 98h5.5t8.5 1q291 19 291 161q0 70 -48.5 102.5t-154.5 32.5q-149 0 -207 -39q-57 -39 -82 -145h-178q56 338 467 338q188 0 288.5 -65t100.5 -185q0 -6 -1 -15t-3 -23.5t-6 -36
t-10 -52.5l-98 -454q-6 -23 -8.5 -45t-2.5 -44q0 -59 74 -59q21 0 45 6l-27 -125q-24 -6 -51 -9t-63 -3q-146 0 -146 133zM711 539q-79 -29 -215 -40q-67 -5 -110.5 -10t-63.5 -10q-154 -36 -154 -184q0 -79 48 -125.5t130 -46.5q156 0 248 105.5t117 310.5zM610 1214h-121
l232 349h190z" />
    <glyph glyph-name="acircumflex" unicode="&#xe2;" horiz-adv-x="1081" 
d="M655 121q-142 -154 -340 -154q-156 0 -244 87q-87 87 -87 241q0 172 109 254q108 81 368 98h5.5t8.5 1q291 19 291 161q0 70 -48.5 102.5t-154.5 32.5q-149 0 -207 -39q-57 -39 -82 -145h-178q56 338 467 338q188 0 288.5 -65t100.5 -185q0 -6 -1 -15t-3 -23.5t-6 -36
t-10 -52.5l-98 -454q-6 -23 -8.5 -45t-2.5 -44q0 -59 74 -59q21 0 45 6l-27 -125q-24 -6 -51 -9t-63 -3q-146 0 -146 133zM711 539q-79 -29 -215 -40q-67 -5 -110.5 -10t-63.5 -10q-154 -36 -154 -184q0 -79 48 -125.5t130 -46.5q156 0 248 105.5t117 310.5zM915 1214h-108
l-133 220l-226 -220h-121l267 349h184z" />
    <glyph glyph-name="atilde" unicode="&#xe3;" horiz-adv-x="1081" 
d="M655 121q-142 -154 -340 -154q-156 0 -244 87q-87 87 -87 241q0 172 109 254q108 81 368 98h5.5t8.5 1q291 19 291 161q0 70 -48.5 102.5t-154.5 32.5q-149 0 -207 -39q-57 -39 -82 -145h-178q56 338 467 338q188 0 288.5 -65t100.5 -185q0 -6 -1 -15t-3 -23.5t-6 -36
t-10 -52.5l-98 -454q-6 -23 -8.5 -45t-2.5 -44q0 -59 74 -59q21 0 45 6l-27 -125q-24 -6 -51 -9t-63 -3q-146 0 -146 133zM711 539q-79 -29 -215 -40q-67 -5 -110.5 -10t-63.5 -10q-154 -36 -154 -184q0 -79 48 -125.5t130 -46.5q156 0 248 105.5t117 310.5zM958 1497
q-28 -105 -77 -153t-130 -48q-17 0 -30.5 2t-26.5 7l-88 28q-14 4 -27.5 6t-27.5 2q-68 0 -86 -79h-103q49 208 201 208q16 0 34 -2.5t36 -7.5l88 -26q12 -4 24 -6.5t23 -2.5q34 0 55 17t33 55h102z" />
    <glyph glyph-name="adieresis" unicode="&#xe4;" horiz-adv-x="1081" 
d="M655 121q-142 -154 -340 -154q-156 0 -244 87q-87 87 -87 241q0 172 109 254q108 81 368 98h5.5t8.5 1q291 19 291 161q0 70 -48.5 102.5t-154.5 32.5q-149 0 -207 -39q-57 -39 -82 -145h-178q56 338 467 338q188 0 288.5 -65t100.5 -185q0 -6 -1 -15t-3 -23.5t-6 -36
t-10 -52.5l-98 -454q-6 -23 -8.5 -45t-2.5 -44q0 -59 74 -59q21 0 45 6l-27 -125q-24 -6 -51 -9t-63 -3q-146 0 -146 133zM711 539q-79 -29 -215 -40q-67 -5 -110.5 -10t-63.5 -10q-154 -36 -154 -184q0 -79 48 -125.5t130 -46.5q156 0 248 105.5t117 310.5zM381 1274
l45 209h182l-43 -209h-184zM710 1274l45 209h183l-43 -209h-185z" />
    <glyph glyph-name="aring" unicode="&#xe5;" horiz-adv-x="1081" 
d="M711 539q-79 -29 -215 -40q-67 -5 -110.5 -10t-63.5 -10q-154 -36 -154 -184q0 -79 48 -125.5t130 -46.5q156 0 248 105.5t117 310.5zM655 121q-142 -154 -340 -154q-156 0 -244 87q-87 87 -87 241q0 172 109 254q108 81 368 98h5.5t8.5 1q291 19 291 161
q0 70 -48.5 102.5t-154.5 32.5q-149 0 -207 -39q-57 -39 -82 -145h-178q56 338 467 338q188 0 288.5 -65t100.5 -185q0 -6 -1 -15t-3 -23.5t-6 -36t-10 -52.5l-98 -454q-6 -23 -8.5 -45t-2.5 -44q0 -59 74 -59q21 0 45 6l-27 -125q-24 -6 -51 -9t-63 -3q-146 0 -146 133z
M403 1370q0 95 66 160q67 65 162 65q94 0 159 -65q64 -64 64 -160q0 -95 -65 -160t-158 -65q-94 0 -161 66t-67 159zM514 1370q0 -24 9 -45t24.5 -36.5t36.5 -24.5t45 -9t45 9t36 24.5t24 36.5t9 45q0 48 -34 81q-33 34 -80 34q-24 0 -45 -9t-36.5 -24.5t-24.5 -36.5t-9 -45
z" />
    <glyph glyph-name="ae" unicode="&#xe6;" horiz-adv-x="1772" 
d="M733 215q-90 -126 -192.5 -187t-225.5 -61q-153 0 -242 86q-89 87 -89 236q0 178 108 259q107 82 393 103q5 1 11 1t14 1q266 21 266 162q0 64 -59 98.5t-168 34.5q-135 0 -193 -40t-82 -144h-178q28 169 142.5 253.5t314.5 84.5q131 0 218.5 -33t141.5 -102
q154 135 363 135q172 0 279 -122q108 -122 108 -321q0 -12 -0.5 -26.5t-2 -34t-4.5 -45l-7 -59.5h-772q-1 -1 -1 -7q-2 -22 -3 -37t-1 -24q0 -146 68 -224.5t193 -78.5q112 0 191 61q81 63 106 166h180q-41 -179 -171 -281q-131 -102 -321 -102q-151 0 -250 63.5t-135 184.5
zM725 551q-102 -43 -253 -55q-75 -6 -119 -12t-60 -11q-66 -23 -95.5 -66.5t-29.5 -113.5q0 -79 49.5 -124.5t136.5 -45.5q149 0 249 115q101 116 122 313zM1477 637v37q0 136 -58.5 205t-173.5 69q-126 0 -220 -87q-93 -86 -116 -224h568z" />
    <glyph glyph-name="ccedilla" unicode="&#xe7;" horiz-adv-x="1139" 
d="M975 397q-90 -414 -539 -430l-22 -69h22q215 0 215 -174q0 -93 -66 -145t-186 -52q-49 0 -116.5 12.5t-161.5 38.5l37 98q83 -25 133 -35t88 -10q127 0 127 99q0 21 -9 36.5t-29.5 25t-54.5 14t-83 4.5h-25l53 159q-158 34 -239.5 155t-81.5 320q0 282 169 470
q169 190 421 190q191 0 297 -103q107 -104 110 -290h-182q0 55 -17 99t-48.5 74.5t-76 47t-100.5 16.5q-155 0 -269 -152t-114 -366q0 -71 16.5 -126.5t48 -93.5t77 -58.5t102.5 -20.5q117 0 201.5 69t124.5 197h178z" />
    <glyph glyph-name="egrave" unicode="&#xe8;" horiz-adv-x="1135" 
d="M971 350q-37 -178 -172 -283q-134 -102 -328 -102q-212 0 -324 120t-112 347q0 298 157 485q157 189 404 189q199 0 316 -118q118 -117 118 -316q0 -38 -4 -83.5t-12 -103.5h-793v-5q-2 -22 -3 -37.5t-1 -24.5q0 -146 71 -221.5t208 -75.5q109 0 186 61q79 61 106 168
h183zM837 631q2 9 2.5 18.5t0.5 28.5q0 63 -17 113t-48.5 85t-76.5 53.5t-102 18.5q-130 0 -220 -82t-126 -235h587zM764 1214h-109l-301 349h201z" />
    <glyph glyph-name="eacute" unicode="&#xe9;" horiz-adv-x="1135" 
d="M971 350q-37 -178 -172 -283q-134 -102 -328 -102q-212 0 -324 120t-112 347q0 298 157 485q157 189 404 189q199 0 316 -118q118 -117 118 -316q0 -38 -4 -83.5t-12 -103.5h-793v-5q-2 -22 -3 -37.5t-1 -24.5q0 -146 71 -221.5t208 -75.5q109 0 186 61q79 61 106 168
h183zM837 631q2 9 2.5 18.5t0.5 28.5q0 63 -17 113t-48.5 85t-76.5 53.5t-102 18.5q-130 0 -220 -82t-126 -235h587zM602 1214h-121l232 349h190z" />
    <glyph glyph-name="ecircumflex" unicode="&#xea;" horiz-adv-x="1135" 
d="M971 350q-37 -178 -172 -283q-134 -102 -328 -102q-212 0 -324 120t-112 347q0 298 157 485q157 189 404 189q199 0 316 -118q118 -117 118 -316q0 -38 -4 -83.5t-12 -103.5h-793v-5q-2 -22 -3 -37.5t-1 -24.5q0 -146 71 -221.5t208 -75.5q109 0 186 61q79 61 106 168
h183zM837 631q2 9 2.5 18.5t0.5 28.5q0 63 -17 113t-48.5 85t-76.5 53.5t-102 18.5q-130 0 -220 -82t-126 -235h587zM907 1214h-108l-133 220l-226 -220h-121l267 349h184z" />
    <glyph glyph-name="edieresis" unicode="&#xeb;" horiz-adv-x="1135" 
d="M971 350q-37 -178 -172 -283q-134 -102 -328 -102q-212 0 -324 120t-112 347q0 298 157 485q157 189 404 189q199 0 316 -118q118 -117 118 -316q0 -38 -4 -83.5t-12 -103.5h-793v-5q-2 -22 -3 -37.5t-1 -24.5q0 -146 71 -221.5t208 -75.5q109 0 186 61q79 61 106 168
h183zM837 631q2 9 2.5 18.5t0.5 28.5q0 63 -17 113t-48.5 85t-76.5 53.5t-102 18.5q-130 0 -220 -82t-126 -235h587zM373 1274l45 209h182l-43 -209h-184zM702 1274l45 209h183l-43 -209h-185z" />
    <glyph glyph-name="igrave" unicode="&#xec;" horiz-adv-x="473" 
d="M-8 0l225 1071h180l-227 -1071h-178zM488 1214h-109l-301 349h201z" />
    <glyph glyph-name="iacute" unicode="&#xed;" horiz-adv-x="473" 
d="M-8 0l225 1071h180l-227 -1071h-178zM326 1214h-121l232 349h190z" />
    <glyph glyph-name="icircumflex" unicode="&#xee;" horiz-adv-x="473" 
d="M-8 0l225 1071h180l-227 -1071h-178zM631 1214h-108l-133 220l-226 -220h-121l267 349h184z" />
    <glyph glyph-name="idieresis" unicode="&#xef;" horiz-adv-x="473" 
d="M-8 0l225 1071h180l-227 -1071h-178zM97 1274l45 209h182l-43 -209h-184zM426 1274l45 209h183l-43 -209h-185z" />
    <glyph glyph-name="eth" unicode="&#xf0;" horiz-adv-x="1176" 
d="M604 913q-85 0 -155 -37t-121 -110q-50 -71 -80 -172q-29 -102 -29 -197q0 -132 66 -200t194 -68q174 0 283 145q110 146 110 373q0 128 -69.5 197t-198.5 69zM819 985q-65 147 -178 236l-250 -113l-43 88l203 96q-52 29 -106 55.5t-109 49.5l53 110q94 -29 174 -66
t152 -83l278 129l41 -90l-227 -109q130 -126 192 -279t62 -345q0 -311 -162 -501t-424 -190q-211 0 -327 113q-115 114 -115 322q0 279 154 463q154 186 382 186q75 0 138 -18.5t112 -53.5z" />
    <glyph glyph-name="ntilde" unicode="&#xf1;" horiz-adv-x="1130" 
d="M-14 0l227 1071h164l-35 -160q90 91 186 135t205 44q143 0 216 -58.5t73 -173.5q0 -54 -19 -134l-151 -724h-182l149 698q8 39 11.5 67t3.5 52q0 58 -42 89.5t-118 31.5q-155 0 -254 -101.5t-141 -299.5l-113 -537h-180zM1001 1497q-28 -105 -77 -153t-130 -48
q-17 0 -30.5 2t-26.5 7l-88 28q-14 4 -27.5 6t-27.5 2q-68 0 -86 -79h-103q49 208 201 208q16 0 34 -2.5t36 -7.5l88 -26q12 -4 24 -6.5t23 -2.5q34 0 55 17t33 55h102z" />
    <glyph glyph-name="ograve" unicode="&#xf2;" horiz-adv-x="1176" 
d="M31 424q0 299 165 490q166 192 425 192q204 0 323 -122t119 -333q0 -299 -166 -489q-165 -191 -424 -191q-210 0 -326 119t-116 334zM602 948q-170 0 -272 -151q-51 -76 -81 -182q-30 -104 -30 -205q0 -137 67 -210t193 -73q173 0 283 152q110 154 110 393
q0 136 -68.5 206t-201.5 70zM778 1214h-109l-301 349h201z" />
    <glyph glyph-name="oacute" unicode="&#xf3;" horiz-adv-x="1176" 
d="M31 424q0 299 165 490q166 192 425 192q204 0 323 -122t119 -333q0 -299 -166 -489q-165 -191 -424 -191q-210 0 -326 119t-116 334zM602 948q-170 0 -272 -151q-51 -76 -81 -182q-30 -104 -30 -205q0 -137 67 -210t193 -73q173 0 283 152q110 154 110 393
q0 136 -68.5 206t-201.5 70zM616 1214h-121l232 349h190z" />
    <glyph glyph-name="ocircumflex" unicode="&#xf4;" horiz-adv-x="1176" 
d="M31 424q0 299 165 490q166 192 425 192q204 0 323 -122t119 -333q0 -299 -166 -489q-165 -191 -424 -191q-210 0 -326 119t-116 334zM602 948q-170 0 -272 -151q-51 -76 -81 -182q-30 -104 -30 -205q0 -137 67 -210t193 -73q173 0 283 152q110 154 110 393
q0 136 -68.5 206t-201.5 70zM921 1214h-108l-133 220l-226 -220h-121l267 349h184z" />
    <glyph glyph-name="otilde" unicode="&#xf5;" horiz-adv-x="1176" 
d="M31 424q0 299 165 490q166 192 425 192q204 0 323 -122t119 -333q0 -299 -166 -489q-165 -191 -424 -191q-210 0 -326 119t-116 334zM602 948q-170 0 -272 -151q-51 -76 -81 -182q-30 -104 -30 -205q0 -137 67 -210t193 -73q173 0 283 152q110 154 110 393
q0 136 -68.5 206t-201.5 70zM964 1497q-28 -105 -77 -153t-130 -48q-17 0 -30.5 2t-26.5 7l-88 28q-14 4 -27.5 6t-27.5 2q-68 0 -86 -79h-103q49 208 201 208q16 0 34 -2.5t36 -7.5l88 -26q12 -4 24 -6.5t23 -2.5q34 0 55 17t33 55h102z" />
    <glyph glyph-name="odieresis" unicode="&#xf6;" horiz-adv-x="1176" 
d="M31 424q0 299 165 490q166 192 425 192q204 0 323 -122t119 -333q0 -299 -166 -489q-165 -191 -424 -191q-210 0 -326 119t-116 334zM602 948q-170 0 -272 -151q-51 -76 -81 -182q-30 -104 -30 -205q0 -137 67 -210t193 -73q173 0 283 152q110 154 110 393
q0 136 -68.5 206t-201.5 70zM387 1274l45 209h182l-43 -209h-184zM716 1274l45 209h183l-43 -209h-185z" />
    <glyph glyph-name="divide" unicode="&#xf7;" horiz-adv-x="1706" 
d="M854 1106q50 0 88 -38q37 -37 37 -89q0 -51 -37 -88q-36 -37 -88 -37t-89 36q-36 37 -36 89t37 89q38 38 88 38zM1452 680v-139h-1198v139h1198zM854 367q51 0 88 -37t37 -88q0 -52 -37 -89q-36 -36 -88 -36q-53 0 -89 36t-36 89q0 51 37 88t88 37z" />
    <glyph glyph-name="oslash" unicode="&#xf8;" horiz-adv-x="1176" 
d="M801 879q-33 35 -81.5 52t-117.5 17q-164 0 -276 -150q-111 -149 -111 -370q0 -40 6 -78t19 -71zM285 201q64 -82 184 -82q174 0 288 154q115 154 115 389q0 78 -20 141zM51 -49l-65 57l123 133q-40 58 -59 126t-19 149q0 304 166 497t426 193q172 0 299 -100l102 110
l66 -59l-111 -117q43 -61 63.5 -131.5t20.5 -155.5q0 -302 -165 -492q-163 -190 -425 -190q-191 0 -305 105z" />
    <glyph glyph-name="ugrave" unicode="&#xf9;" horiz-adv-x="1130" 
d="M1067 1071l-225 -1071h-164l33 162q-90 -91 -185.5 -134.5t-206.5 -43.5q-286 0 -286 229q0 31 4 64.5t12 68.5l154 725h182l-150 -697l-1 -6q-15 -75 -15 -112q0 -58 43 -90.5t119 -32.5q154 0 253.5 101.5t141.5 300.5l113 536h178zM799 1214h-109l-301 349h201z" />
    <glyph glyph-name="uacute" unicode="&#xfa;" horiz-adv-x="1130" 
d="M1067 1071l-225 -1071h-164l33 162q-90 -91 -185.5 -134.5t-206.5 -43.5q-286 0 -286 229q0 31 4 64.5t12 68.5l154 725h182l-150 -697l-1 -6q-15 -75 -15 -112q0 -58 43 -90.5t119 -32.5q154 0 253.5 101.5t141.5 300.5l113 536h178zM637 1214h-121l232 349h190z" />
    <glyph glyph-name="ucircumflex" unicode="&#xfb;" horiz-adv-x="1130" 
d="M1067 1071l-225 -1071h-164l33 162q-90 -91 -185.5 -134.5t-206.5 -43.5q-286 0 -286 229q0 31 4 64.5t12 68.5l154 725h182l-150 -697l-1 -6q-15 -75 -15 -112q0 -58 43 -90.5t119 -32.5q154 0 253.5 101.5t141.5 300.5l113 536h178zM942 1214h-108l-133 220l-226 -220
h-121l267 349h184z" />
    <glyph glyph-name="udieresis" unicode="&#xfc;" horiz-adv-x="1130" 
d="M1067 1071l-225 -1071h-164l33 162q-90 -91 -185.5 -134.5t-206.5 -43.5q-286 0 -286 229q0 31 4 64.5t12 68.5l154 725h182l-150 -697l-1 -6q-15 -75 -15 -112q0 -58 43 -90.5t119 -32.5q154 0 253.5 101.5t141.5 300.5l113 536h178zM408 1274l45 209h182l-43 -209h-184
zM737 1274l45 209h183l-43 -209h-185z" />
    <glyph glyph-name="yacute" unicode="&#xfd;" horiz-adv-x="946" 
d="M221 -55l-176 1126h193l116 -901l445 901h198l-696 -1329q-26 -48 -55 -82.5t-64 -56.5t-77 -32.5t-93 -10.5q-39 0 -96 19l39 159q16 -6 34 -9t36 -3q72 0 108 65zM561 1214h-121l232 349h190z" />
    <glyph glyph-name="thorn" unicode="&#xfe;" horiz-adv-x="1208" 
d="M-86 -428l383 1901h172l-113 -555q60 87 147.5 132.5t192.5 45.5q186 0 291 -118q105 -117 105 -327q0 -138 -42 -263t-120 -224q-76 -97 -175.5 -147t-211.5 -50q-218 0 -338 193l-121 -588h-170zM659 946q-163 0 -277 -157q-114 -156 -114 -386q0 -135 66 -208.5
t186 -73.5q162 0 273 156q112 155 112 389q0 133 -64.5 206.5t-181.5 73.5z" />
    <glyph glyph-name="ydieresis" unicode="&#xff;" horiz-adv-x="946" 
d="M221 -55l-176 1126h193l116 -901l445 901h198l-696 -1329q-26 -48 -55 -82.5t-64 -56.5t-77 -32.5t-93 -10.5q-39 0 -96 19l39 159q16 -6 34 -9t36 -3q72 0 108 65zM332 1274l45 209h182l-43 -209h-184zM661 1274l45 209h183l-43 -209h-185z" />
    <glyph glyph-name="Cacute" unicode="&#x106;" horiz-adv-x="1448" 
d="M1327 524q-57 -264 -238 -416q-180 -153 -432 -153q-269 0 -419 167q-150 168 -150 468q0 175 50 333t147 289q106 145 249.5 218t321.5 73q247 0 389 -136q143 -137 156 -386h-197q-7 165 -103 254.5t-265 89.5q-253 0 -402 -227q-73 -114 -110 -241t-37 -265
q0 -229 100.5 -348t294.5 -119q158 0 273 100t184 299h188zM876 1620h-121l232 349h190z" />
    <glyph glyph-name="cacute" unicode="&#x107;" horiz-adv-x="1139" 
d="M975 397q-44 -197 -183 -315q-140 -117 -329 -117q-212 0 -319 119.5t-107 355.5q0 138 43.5 258.5t130.5 219.5q81 91 185.5 138.5t228.5 47.5q193 0 298.5 -101.5t110.5 -291.5h-182q0 112 -64 174.5t-178 62.5q-155 0 -269 -152t-114 -366q0 -145 64.5 -221t187.5 -76
q107 0 192 70t126 194h178zM625 1214h-121l232 349h190z" />
    <glyph glyph-name="Ccaron" unicode="&#x10c;" horiz-adv-x="1448" 
d="M1327 524q-57 -264 -238 -416q-180 -153 -432 -153q-269 0 -419 167q-150 168 -150 468q0 175 50 333t147 289q106 145 249.5 218t321.5 73q247 0 389 -136q143 -137 156 -386h-197q-7 165 -103 254.5t-265 89.5q-253 0 -402 -227q-73 -114 -110 -241t-37 -265
q0 -229 100.5 -348t294.5 -119q158 0 273 100t184 299h188zM661 1969h109l133 -220l225 220h121l-266 -349h-183z" />
    <glyph glyph-name="ccaron" unicode="&#x10d;" horiz-adv-x="1139" 
d="M975 397q-44 -197 -183 -315q-140 -117 -329 -117q-212 0 -319 119.5t-107 355.5q0 138 43.5 258.5t130.5 219.5q81 91 185.5 138.5t228.5 47.5q193 0 298.5 -101.5t110.5 -291.5h-182q0 112 -64 174.5t-178 62.5q-155 0 -269 -152t-114 -366q0 -145 64.5 -221t187.5 -76
q107 0 192 70t126 194h178zM410 1563h109l133 -220l225 220h121l-266 -349h-183z" />
    <glyph glyph-name="dcroat" unicode="&#x111;" horiz-adv-x="1219" 
d="M864 655q0 133 -69 210t-189 77q-163 0 -276 -155t-113 -386q0 -135 66 -211q66 -77 180 -77q173 0 287 155q114 154 114 387zM758 0l22 133q-78 -88 -161.5 -128t-186.5 -40q-190 0 -296 117q-105 118 -105 332q0 289 163 485q164 197 396 197q226 0 342 -203l63 311
h-358l22 115h361l31 154h174l-33 -154h156l-23 -115h-158l-247 -1204h-162z" />
    <glyph glyph-name="Gbreve" unicode="&#x11e;" horiz-adv-x="1542" 
d="M1122 0l13 158q-184 -199 -463 -199q-276 0 -429 167q-153 168 -153 470q0 194 60 366t172 304q105 120 242 181.5t300 61.5q262 0 411 -132q149 -131 163 -376h-197q-11 162 -110 248t-273 86q-129 0 -229.5 -53.5t-182.5 -167.5q-74 -103 -116 -242q-41 -141 -41 -284
q0 -110 28.5 -195t82.5 -143t133.5 -88.5t181.5 -30.5q181 0 310 123q130 124 185 348h-462l32 160h654l-160 -762h-152zM834 1936v-19q0 -66 33.5 -95.5t109.5 -29.5q88 0 143.5 34.5t85.5 109.5h109q-80 -283 -348 -283q-238 0 -238 234q0 18 0.5 28.5t1.5 19.5z" />
    <glyph glyph-name="gbreve" unicode="&#x11f;" horiz-adv-x="1204" 
d="M-18 -106h178v-17q0 -38 16.5 -68t47.5 -51.5t75 -33t98 -11.5q170 0 248 85q80 86 123 325q-121 -139 -313 -139q-198 0 -307 120q-109 119 -109 336q0 287 159 476q160 190 398 190q244 0 334 -211l39 176h174l-228 -1089q-23 -110 -65.5 -190t-107 -132.5t-152 -78
t-199.5 -25.5q-194 0 -301 88q-108 88 -108 245v5zM602 950q-167 0 -271 -146t-104 -380q0 -138 66.5 -212.5t189.5 -74.5q172 0 277 147q106 148 106 390q0 130 -69.5 203t-194.5 73zM584 1530v-19q0 -66 33.5 -95.5t109.5 -29.5q88 0 143.5 34.5t85.5 109.5h109
q-80 -283 -348 -283q-238 0 -238 234q0 18 0.5 28.5t1.5 19.5z" />
    <glyph glyph-name="Idotaccent" unicode="&#x130;" horiz-adv-x="532" 
d="M8 0l311 1473h205l-313 -1473h-203zM362 1674l47 221h193l-47 -221h-193z" />
    <glyph glyph-name="dotlessi" unicode="&#x131;" horiz-adv-x="473" 
d="M-8 0l225 1071h180l-227 -1071h-178z" />
    <glyph glyph-name="Lslash" unicode="&#x141;" horiz-adv-x="1147" 
d="M18 0l132 614l-154 -88l-66 115l256 147l146 685h192l-125 -590l375 215l66 -115l-478 -276l-110 -529h764l-37 -178h-961z" />
    <glyph glyph-name="lslash" unicode="&#x142;" horiz-adv-x="494" 
d="M0 0l133 631l-121 -66l-57 103l213 123l145 682h179l-127 -599l118 70l62 -102l-213 -121l-152 -721h-180z" />
    <glyph glyph-name="OE" unicode="&#x152;" horiz-adv-x="2218" 
d="M971 0l26 117q-168 -156 -389 -156q-237 0 -383 170q-145 169 -145 451q0 186 64 362q64 178 180 313q102 120 241 186t287 66q129 0 226.5 -43.5t174.5 -136.5l31 144h936l-37 -181h-743l-97 -446h721l-34 -174h-723l-105 -492h797l-37 -180h-991zM1223 1180
q-121 163 -340 163q-255 0 -418 -204q-43 -54 -77 -117.5t-59 -138.5q-50 -150 -50 -293q0 -213 104 -340q105 -125 283 -125q99 0 188 38.5t176 119.5z" />
    <glyph glyph-name="oe" unicode="&#x153;" horiz-adv-x="1923" 
d="M889 172q-78 -102 -184 -153.5t-240 -51.5q-201 0 -318 127q-116 128 -116 346q0 295 163 480q163 186 420 186q139 0 229.5 -47t141.5 -146q84 99 182.5 146t223.5 47q199 0 310 -113t111 -315q0 -15 -1.5 -45.5t-5.5 -77.5l-5 -67l-780 -1q-6 -42 -6 -81
q0 -136 69 -209.5t195 -73.5q111 0 190 61q80 62 107 166h180q-42 -184 -172 -283.5t-332 -99.5q-124 0 -213 50t-149 155zM606 956q-168 0 -277 -145q-110 -146 -110 -369q0 -156 67.5 -237.5t198.5 -81.5q172 0 274 141q103 142 103 379q0 154 -65 233.5t-191 79.5z
M1626 633q0 6 1 18.5t1 18.5q0 136 -64 210t-182 74q-60 0 -113.5 -21.5t-97 -63t-76.5 -101t-53 -135.5h584z" />
    <glyph glyph-name="Scedilla" unicode="&#x15e;" horiz-adv-x="1223" 
d="M10 457h185v-29q0 -142 86 -219.5t243 -77.5q151 0 239 76q89 77 89 201q0 138 -267 251l-6 3q-249 105 -323 191t-74 232q0 192 139 309t371 117q229 0 356 -115q128 -116 128 -323v-22h-191v6q0 145 -76 218t-229 73q-140 0 -223 -68q-82 -67 -82 -182q0 -130 242 -235
q40 -17 63 -27q222 -97 299 -186q76 -88 76 -220q0 -222 -148 -346q-150 -126 -413 -127l-21 -59h23q106 0 159.5 -42t53.5 -124q0 -100 -64.5 -152.5t-185.5 -52.5q-51 0 -119.5 12.5t-159.5 38.5l37 98q81 -24 132.5 -34.5t90.5 -10.5q125 0 125 99q0 21 -9 36.5t-29.5 25
t-54.5 14t-83 4.5h-24l51 153q-406 65 -406 455v39z" />
    <glyph glyph-name="scedilla" unicode="&#x15f;" horiz-adv-x="1008" 
d="M151 375q0 -7 -0.5 -15.5t-0.5 -23.5q0 -112 71.5 -168.5t210.5 -56.5q102 0 161.5 44t59.5 119q0 91 -172 173l-12 6l-47 21q-305 140 -305 317q0 141 107 227t286 86q185 0 289 -93q104 -92 104 -257v-27h-166v6q0 108 -57 163.5t-166 55.5q-106 0 -163.5 -38
t-57.5 -107q0 -81 181 -160l46 -20q198 -89 255 -155q59 -68 59 -169q0 -150 -114 -244q-113 -94 -300 -94h-31l-24 -67h22q106 0 160.5 -42.5t54.5 -123.5q0 -100 -64.5 -152.5t-185.5 -52.5q-51 0 -119 12.5t-159 38.5l37 98q42 -12 74 -21t58.5 -14t47.5 -7.5t41 -2.5
q127 0 127 99q0 21 -9 36.5t-29.5 25t-54.5 14t-83 4.5h-25l53 155q-164 31 -247.5 124t-83.5 245q0 16 0.5 25t1.5 16h169z" />
    <glyph glyph-name="Scaron" unicode="&#x160;" horiz-adv-x="1223" 
d="M195 457v-27q0 -71 22.5 -126.5t64.5 -93.5t102.5 -58.5t137.5 -20.5q151 0 240 75q90 75 90 200q0 141 -272 255v1q-252 106 -326 192q-72 85 -72 231q0 192 140 309q139 117 370 117q230 0 357 -116q127 -115 127 -326v-18h-191v6q0 145 -76 218t-229 73
q-140 0 -223 -68q-82 -67 -82 -182q0 -130 244 -236l60 -26q223 -99 299 -187q77 -89 77 -221q0 -219 -149 -345t-406 -126q-225 0 -359 125q-133 124 -133 336q0 6 1 19.5t1 19.5h185zM565 1969h109l133 -220l225 220h121l-266 -349h-183z" />
    <glyph glyph-name="scaron" unicode="&#x161;" horiz-adv-x="1008" 
d="M151 375q0 -6 -0.5 -14t-0.5 -23q0 -112 71 -169.5t211 -57.5q102 0 161.5 44t59.5 119q0 51 -30 86t-154 93l-55 25q-297 138 -297 313q0 141 107 227t286 86q186 0 289 -94q104 -93 104 -260v-23h-166v6q0 219 -233 219q-99 0 -155 -38.5t-56 -104.5q0 -80 178 -161
l10 -5q118 -54 191 -96.5t102 -76.5q60 -68 60 -169q0 -153 -117 -246q-118 -92 -314 -92t-310 99q-113 101 -113 272q0 16 0.5 25t1.5 16h169zM377 1563h109l133 -220l225 220h121l-266 -349h-183z" />
    <glyph glyph-name="Ydieresis" unicode="&#x178;" horiz-adv-x="1055" 
d="M276 0l125 610l-331 863h204l254 -682l455 682h223l-614 -893l-119 -580h-197zM467 1680l45 209h182l-43 -209h-184zM796 1680l45 209h183l-43 -209h-185z" />
    <glyph glyph-name="Zcaron" unicode="&#x17d;" horiz-adv-x="1176" 
d="M-41 0l37 174l938 1124h-729l39 175h962l-35 -175l-933 -1122h768l-39 -176h-1008zM543 1969h109l133 -220l225 220h121l-266 -349h-183z" />
    <glyph glyph-name="zcaron" unicode="&#x17e;" horiz-adv-x="913" 
d="M-86 0l31 141l696 772h-561l31 158h809l-31 -131l-707 -780h606l-34 -160h-840zM330 1563h109l133 -220l225 220h121l-266 -349h-183z" />
    <glyph glyph-name="florin" unicode="&#x192;" horiz-adv-x="1124" 
d="M20 -217q60 -37 121 -37q72 0 110 59q19 29 37.5 92t35.5 160l137 744h-213v147h244q56 320 139 440q84 123 237 123q45 0 88 -11t88 -34l-45 -151q-33 16 -61 24.5t-53 8.5q-77 0 -119 -75q-20 -37 -41 -118t-41 -207h229v-147h-256l-122 -660q-62 -331 -145 -447
q-84 -118 -238 -118q-93 0 -181 47z" />
    <glyph glyph-name="circumflex" unicode="&#x2c6;" 
d="M905 1214h-108l-133 220l-226 -220h-121l267 349h184z" />
    <glyph glyph-name="caron" unicode="&#x2c7;" 
d="M385 1563h109l133 -220l225 220h121l-266 -349h-183z" />
    <glyph glyph-name="breve" unicode="&#x2d8;" 
d="M494 1530v-19q0 -66 33.5 -95.5t109.5 -29.5q88 0 143.5 34.5t85.5 109.5h109q-80 -283 -348 -283q-238 0 -238 234q0 18 0.5 28.5t1.5 19.5z" />
    <glyph glyph-name="dotaccent" unicode="&#x2d9;" 
d="M526 1268l47 221h193l-47 -221h-193z" />
    <glyph glyph-name="ring" unicode="&#x2da;" 
d="M410 1450q0 106 73 179t181 73q106 0 178 -73q73 -73 73 -179q0 -107 -73 -180q-74 -74 -178 -74q-106 0 -180 74t-74 180zM520 1448q0 -60 41 -101q41 -40 103 -40q60 0 100 40q41 41 41 101t-42 101q-41 42 -99 42q-60 0 -102 -42q-42 -41 -42 -101z" />
    <glyph glyph-name="ogonek" unicode="&#x2db;" 
d="M391 0q-70 -63 -102.5 -116t-32.5 -105q0 -44 20.5 -61t73.5 -17h101l-31 -143h-72q-225 0 -225 168q0 66 43.5 130.5t142.5 143.5h82z" />
    <glyph glyph-name="tilde" unicode="&#x2dc;" 
d="M948 1497q-28 -105 -77 -153t-130 -48q-17 0 -30.5 2t-26.5 7l-88 28q-14 4 -27.5 6t-27.5 2q-68 0 -86 -79h-103q49 208 201 208q16 0 34 -2.5t36 -7.5l88 -26q12 -4 24 -6.5t23 -2.5q34 0 55 17t33 55h102z" />
    <glyph glyph-name="hungarumlaut" unicode="&#x2dd;" 
d="M588 1565h168l-226 -351h-96zM870 1565h168l-254 -351h-96z" />
    <glyph glyph-name="Omega" unicode="&#x3a9;" horiz-adv-x="1565" 
d="M1487 178v-178h-600v178q178 98 276 263q99 166 99 368q0 239 -132 385q-132 145 -348 145q-215 0 -349 -146q-132 -146 -132 -384q0 -202 99 -368q100 -166 278 -263v-178h-600v178h319q-158 139 -231 288q-72 148 -72 333q0 318 191 515q192 197 497 197
q303 0 495 -197q193 -196 193 -505q0 -192 -71 -342q-35 -75 -93 -146.5t-139 -142.5h320z" />
    <glyph glyph-name="pi" unicode="&#x3c0;" horiz-adv-x="1206" 
d="M1159 913h-182l-105 -487q-15 -75 -22.5 -120.5t-7.5 -67.5q0 -58 23.5 -82.5t78.5 -24.5q17 0 40 2.5t60 7.5l-30 -141q-58 -16 -111 -16q-118 0 -178.5 51t-60.5 151q0 23 2.5 52.5t7.5 65.5q11 74 45 233l80 376h-326l-194 -913h-181l195 913h-41q-54 0 -84 -32
t-39 -101h-160q28 166 99 228q72 63 237 63h889z" />
    <glyph glyph-name="endash" unicode="&#x2013;" 
d="M-49 487l24 109h1024l-24 -109h-1024z" />
    <glyph glyph-name="emdash" unicode="&#x2014;" horiz-adv-x="2048" 
d="M-25 596h2048l-24 -109h-2048z" />
    <glyph glyph-name="quoteleft" unicode="&#x2018;" horiz-adv-x="514" 
d="M510 1413q-54 -17 -84 -57.5t-43 -110.5h98l-45 -209h-209l47 209q25 109 91 177t163 83z" />
    <glyph glyph-name="quoteright" unicode="&#x2019;" horiz-adv-x="514" 
d="M225 1094q54 17 84 57.5t43 110.5h-98l45 211h209l-47 -211q-25 -109 -91 -177t-163 -84z" />
    <glyph glyph-name="quotesinglbase" unicode="&#x201a;" horiz-adv-x="514" 
d="M-31 -166q54 18 84.5 58t42.5 110h-96l43 209h209l-47 -209q-25 -109 -91 -178t-163 -84z" />
    <glyph glyph-name="quotedblleft" unicode="&#x201c;" horiz-adv-x="846" 
d="M510 1413q-54 -17 -84 -57.5t-43 -110.5h98l-45 -209h-209l47 209q25 109 91 177t163 83zM842 1413q-54 -17 -84 -57.5t-43 -110.5h98l-45 -209h-209l47 209q25 109 91 177t163 83z" />
    <glyph glyph-name="quotedblright" unicode="&#x201d;" horiz-adv-x="846" 
d="M225 1094q54 17 84 57.5t43 110.5h-98l45 211h209l-47 -211q-25 -109 -91 -177t-163 -84zM557 1094q54 17 84 57.5t43 110.5h-98l45 211h209l-47 -211q-25 -109 -91 -177t-163 -84z" />
    <glyph glyph-name="quotedblbase" unicode="&#x201e;" horiz-adv-x="846" 
d="M-31 -166q54 18 84.5 58t42.5 110h-96l43 209h209l-47 -209q-25 -109 -91 -178t-163 -84zM301 -166q54 18 84 58t43 110h-98l45 209h209l-47 -209q-25 -109 -91 -178t-163 -84z" />
    <glyph glyph-name="dagger" unicode="&#x2020;" 
d="M260 -213l197 1128h-338l28 146h338l72 412h164l-70 -412h334l-22 -146h-336l-201 -1128h-166z" />
    <glyph glyph-name="daggerdbl" unicode="&#x2021;" 
d="M256 -213l70 410h-338l28 147h338l99 571h-338l26 146h338l74 412h164l-72 -412h336l-23 -146h-337l-101 -571h336l-25 -147h-335l-74 -410h-166z" />
    <glyph glyph-name="bullet" unicode="&#x2022;" horiz-adv-x="1208" 
d="M307 762q0 123 87 209q88 86 210 86t208 -87q87 -86 87 -208t-88 -210q-87 -87 -209 -87q-124 0 -209 87q-86 88 -86 210z" />
    <glyph glyph-name="ellipsis" unicode="&#x2026;" horiz-adv-x="2048" 
d="M92 0l47 221h221l-45 -221h-223zM774 0l47 221h221l-45 -221h-223zM1458 0l47 221h221l-45 -221h-223z" />
    <glyph glyph-name="perthousand" unicode="&#x2030;" horiz-adv-x="2587" 
d="M365 -41l876 1473h125l-877 -1473h-124zM72 1036q0 148 102 252q103 103 252 103q146 0 250 -104t104 -251q0 -146 -104 -252q-104 -104 -250 -104q-149 0 -252 103q-102 103 -102 253zM221 1036q0 -87 59 -146t146 -59q85 0 145 60t60 145q0 86 -60 145q-60 60 -145 60
q-86 0 -146 -60q-59 -59 -59 -145zM948 356q0 149 103 252t252 103q145 0 251 -104q105 -104 105 -251t-105 -252q-104 -104 -251 -104q-149 0 -252 103t-103 253zM1098 356q0 -86 59 -147q59 -59 146 -59q84 0 144 60q60 61 60 146q0 86 -60 145q-59 60 -144 60
q-86 0 -146 -60q-59 -59 -59 -145zM1804 356q0 149 103 252t252 103q145 0 251 -104q105 -104 105 -251t-105 -252q-104 -104 -251 -104q-149 0 -252 103t-103 253zM1954 356q0 -86 59 -147q59 -59 146 -59q84 0 144 60q60 61 60 146q0 86 -60 145q-59 60 -144 60
q-86 0 -146 -60q-59 -59 -59 -145z" />
    <glyph glyph-name="guilsinglleft" unicode="&#x2039;" horiz-adv-x="500" 
d="M35 473l33 160l389 244l-37 -177l-258 -161l184 -185l-35 -159z" />
    <glyph glyph-name="guilsinglright" unicode="&#x203a;" horiz-adv-x="500" 
d="M401 600l-32 -162l-389 -243l36 176l258 161l-184 185l35 160z" />
    <glyph glyph-name="franc" unicode="&#x20a3;" horiz-adv-x="1772" 
d="M4 0l309 1473h848l-37 -179h-651l-96 -448h629l-39 -180h-627l-143 -666h-193zM1096 0l225 1071h172l-45 -199q45 64 84.5 107.5t73.5 68.5q68 50 145 50q18 0 38.5 -2t43.5 -6l-45 -203h-5q-18 2 -31.5 3t-22.5 1q-134 0 -218 -92.5t-126 -284.5l-111 -514h-178z" />
    <glyph glyph-name="trademark" unicode="&#x2122;" horiz-adv-x="1706" 
d="M694 1458v-80h-172v-458h-108v458h-172v80h452zM963 1458l151 -385l141 385h150v-538h-98v444l-166 -444h-56l-174 444v-444h-98v538h150z" />
    <glyph glyph-name="partialdiff" unicode="&#x2202;" horiz-adv-x="1059" 
d="M707 494q0 117 -43.5 179t-122.5 62q-110 0 -180 -129q-70 -128 -70 -336q0 -117 42.5 -178t123.5 -61q109 0 179 130q71 131 71 333zM756 621q30 174 30 325q0 260 -145 260q-56 0 -127 -58t-108 -58q-36 0 -60 22t-24 53q0 61 72 111q71 49 173 49q180 0 287 -155
t107 -418q0 -336 -145 -556q-144 -221 -357 -221q-152 0 -254 108q-101 109 -101 271q0 198 110 326q111 129 273 129q102 0 166.5 -45.5t102.5 -142.5z" />
    <glyph glyph-name="Delta" unicode="&#x2206;" horiz-adv-x="1370" 
d="M573 1473h224l579 -1473h-1382zM684 1262l-418 -1084h836z" />
    <glyph glyph-name="product" unicode="&#x220f;" horiz-adv-x="1550" 
d="M156 1473h1237v-1866h-240v1661h-758v-1661h-239v1866z" />
    <glyph glyph-name="summation" unicode="&#x2211;" horiz-adv-x="1380" 
d="M55 1473h1258v-193h-959l672 -717l-694 -764h1007v-192h-1314v149l725 801l-695 739v177z" />
    <glyph glyph-name="minus" unicode="&#x2212;" horiz-adv-x="1706" 
d="M1452 682v-141h-1198v141h1198z" />
    <glyph glyph-name="fraction" unicode="&#x2215;" horiz-adv-x="342" 
d="M-342 -41l899 1473h125l-899 -1473h-125z" />
    <glyph glyph-name="periodcentered" unicode="&#x2219;" horiz-adv-x="561" 
d="M154 702q0 52 36 90q37 37 91 37t91 -37q38 -36 38 -90q0 -53 -38 -91t-91 -38q-52 0 -90 38q-37 37 -37 91z" />
    <glyph glyph-name="radical" unicode="&#x221a;" horiz-adv-x="1305" 
d="M1116 1661h189v-96h-115l-594 -1606h-66l-319 883l-125 -45l-25 80l283 98l256 -709z" />
    <glyph glyph-name="infinity" unicode="&#x221e;" horiz-adv-x="1706" 
d="M864 483q-70 -136 -148.5 -199t-172.5 -63q-136 0 -229 111q-93 112 -93 278q0 174 83 283q84 108 218 108q95 0 171.5 -63t148.5 -201q68 138 147 203.5t176 65.5q133 0 228 -113q94 -112 94 -279q0 -176 -84 -282q-83 -107 -217 -107q-93 0 -169 59q-74 60 -153 199z
M793 666q-98 176 -267 176q-102 0 -166 -66q-63 -66 -63 -172q0 -100 59 -168q58 -67 148 -67q81 0 149 68q34 34 68.5 91t71.5 138zM915 559q49 -88 115.5 -133t151.5 -45q101 0 165 67t64 173q0 100 -59 168q-58 67 -148 67q-81 0 -149 -68q-67 -69 -140 -229z" />
    <glyph glyph-name="integral" unicode="&#x222b;" horiz-adv-x="1067" 
d="M311 -262q107 0 120 688l3 165q12 514 107 737q94 222 297 222q80 0 130 -42t50 -107q0 -54 -32 -85.5t-87 -31.5q-85 0 -110 73q-7 17 -11 51q-5 36 -20 36q-108 0 -121 -619q-2 -97 -4 -172.5t-4 -130.5q-16 -477 -112 -686q-95 -207 -290 -207q-79 0 -130 42
q-50 41 -50 106q0 57 34 88t95 31q65 0 96 -57q10 -18 15 -59q4 -42 24 -42z" />
    <glyph glyph-name="approxequal" unicode="&#x2248;" horiz-adv-x="1706" 
d="M1530 799q-106 -73 -199.5 -107.5t-189.5 -34.5q-93 0 -285 68t-293 68q-84 0 -172 -36q-87 -35 -213 -122v156q210 143 387 143q115 0 305 -68q189 -67 273 -67q88 0 175 34q45 17 97 47.5t115 73.5v-155zM1530 430q-106 -73 -199.5 -107t-189.5 -34t-285 67
q-192 68 -293 68q-82 0 -172 -36q-87 -35 -213 -122v156q215 145 387 145q114 0 305 -69q192 -68 273 -68q87 0 177 35q90 37 210 121v-156z" />
    <glyph glyph-name="notequal" unicode="&#x2260;" horiz-adv-x="1706" 
d="M1313 1112l-187 -235h326v-136h-416l-205 -262h621v-135h-709l-249 -317l-105 84l184 233h-319v135h408l204 262h-612v136h702l252 317z" />
    <glyph glyph-name="lessequal" unicode="&#x2264;" horiz-adv-x="1706" 
d="M1444 1059l-936 -309l936 -306v-149l-1182 395v121l1182 395v-147zM1446 162v-139h-1184v139h1184z" />
    <glyph glyph-name="greaterequal" unicode="&#x2265;" horiz-adv-x="1706" 
d="M1446 811v-121l-1184 -395v149l938 306l-938 309v147zM1446 162v-139h-1184v139h1184z" />
    <glyph glyph-name="lozenge" unicode="&#x25ca;" horiz-adv-x="1012" 
d="M506 1653l500 -1061l-500 -1069l-500 1069zM506 1409l-385 -817l385 -825l385 825z" />
    <glyph glyph-name="apple" unicode="&#xf000;" horiz-adv-x="1618" 
d="M1505 403q-114 -248 -205 -343q-92 -95 -204 -95q-50 0 -132 33q-81 33 -122 33q-46 0 -131 -33q-86 -33 -127 -33q-127 0 -258 176q-102 140 -158 295q-55 155 -55 301q0 219 125 356q124 138 323 138q69 0 155 -34t124 -34q33 0 121 35q90 35 153 35q111 0 198.5 -39.5
t160.5 -124.5q-103 -66 -152 -145.5t-49 -182.5q0 -114 59.5 -200.5t173.5 -137.5zM836 1216q-1 6 -1.5 14t-0.5 23q0 123 95 229q94 106 236 132q1 -10 1.5 -23t0.5 -39q0 -131 -104 -235q-103 -103 -203 -103h-8q-3 0 -7.5 1t-8.5 1z" />
  </font>
</defs>
</svg>
