<?xml version="1.0" encoding="utf-8"?><svg xmlns="http://www.w3.org/2000/svg" xmlns:xlink="http://www.w3.org/1999/xlink"><symbol fill="none" stroke-width="2" viewBox="0 0 17.783 11.437" id="arrow_btn" xmlns="http://www.w3.org/2000/svg"><path d="M5.305 1.414l-4.3 4.3 4.3 4.3M1 5.718h15.783"/></symbol><symbol fill="none" stroke-width="1.5" viewBox="0 0 10.745 6.433" id="arrow_dropdown" xmlns="http://www.w3.org/2000/svg"><path d="M1.061 1.061l4.312 4.312 4.312-4.312"/></symbol><symbol fill="none" stroke-width="1.5" viewBox="0 0 17.284 10.73" id="arrow_link" xmlns="http://www.w3.org/2000/svg"><path d="M12.229 1.061l4.3 4.3-4.3 4.3M16.533 5.365H.75"/></symbol><symbol fill="none" stroke-width="2" viewBox="0 0 17.414 10.121" id="arrow_select" xmlns="http://www.w3.org/2000/svg"><path d="M.707.707l8 8 8-8"/></symbol><symbol fill="none" stroke-width="1.5" viewBox="0 0 18.121 18.121" id="close" xmlns="http://www.w3.org/2000/svg"><path d="M17.061 1.061l-16 16M17.061 17.061l-16-16"/></symbol><symbol fill="none" stroke-width="2" viewBox="0 0 11.141 12.82" id="play" xmlns="http://www.w3.org/2000/svg"><path d="M1 1v10.82l9.141-5.41z"/></symbol><symbol fill="none" stroke-width="2" viewBox="0 0 17.208 17.209" id="search_icon" xmlns="http://www.w3.org/2000/svg"><path d="M11.501 11.501l5 5zm-10.5-4.5a6 6 0 116 6 6 6 0 01-6-6z"/></symbol><symbol viewBox="0 0 17.946 17.946" id="soc_fb" xmlns="http://www.w3.org/2000/svg"><path d="M16.736 0H1.21A1.21 1.21 0 000 1.21v15.526a1.21 1.21 0 001.21 1.21h7.158v-6.28h-2.28v-2.6h2.28V7.091A3.17 3.17 0 0111.76 3.6a13.814 13.814 0 012.011.175v2.21h-1.133a1.3 1.3 0 00-1.464 1.4V9.07h2.491l-.4 2.6h-2.093v6.28h5.561a1.21 1.21 0 001.21-1.21V1.21A1.21 1.21 0 0016.736 0z"/></symbol><symbol viewBox="0 0 17.946 17.946" id="soc_in" xmlns="http://www.w3.org/2000/svg"><defs><style>.ia{fill:#f77b71}</style></defs><path class="ia" d="M17.2 0H.748A.749.749 0 000 .748V17.2a.748.748 0 00.748.748H17.2a.748.748 0 00.748-.748V.748A.748.748 0 0017.2 0M5.324 15.292H2.659V6.728h2.665zM3.992 5.558a1.544 1.544 0 111.543-1.544 1.543 1.543 0 01-1.543 1.544m11.3 9.734h-2.661v-4.164c0-.993-.017-2.271-1.382-2.271-1.385 0-1.6 1.083-1.6 2.2v4.236H6.994V6.728h2.551V7.9h.036A2.8 2.8 0 0112.1 6.516c2.695 0 3.193 1.773 3.193 4.08z"/></symbol><symbol viewBox="0 0 18.216 14.804" id="soc_tw" xmlns="http://www.w3.org/2000/svg"><path d="M5.729 14.804A10.561 10.561 0 0016.362 4.171c0-.162 0-.323-.011-.483a7.6 7.6 0 001.864-1.935 7.46 7.46 0 01-2.146.588A3.75 3.75 0 0017.712.274a7.49 7.49 0 01-2.373.907 3.741 3.741 0 00-6.368 3.408 10.61 10.61 0 01-7.7-3.9 3.74 3.74 0 001.157 4.989A3.709 3.709 0 01.735 5.21v.048a3.739 3.739 0 003 3.664 3.732 3.732 0 01-1.688.064 3.742 3.742 0 003.491 2.6 7.5 7.5 0 01-4.642 1.6 7.6 7.6 0 01-.891-.052 10.58 10.58 0 005.729 1.679"/></symbol></svg>